<svg width="2411" height="1435" viewBox="0 0 2411 1435" fill="none" xmlns="http://www.w3.org/2000/svg">
<g clip-path="url(#clip0_47_62)">
<path d="M2.5 1056C2.5 1046.34 10.335 1038.5 20 1038.5H1091C1100.66 1038.5 1108.5 1046.34 1108.5 1056V1235.96C1108.5 1245.63 1100.66 1253.46 1091 1253.46H20C10.335 1253.46 2.5 1245.63 2.5 1235.96V1056Z" fill="#C4C4C4" stroke="#C4C4C4" stroke-width="5"/>
<path d="M392.5 1078C392.5 1068.34 400.335 1060.5 410 1060.5H709C718.665 1060.5 726.5 1068.34 726.5 1078V1214C726.5 1223.66 718.665 1231.5 709 1231.5H410C400.335 1231.5 392.5 1223.66 392.5 1214V1078Z" fill="#E6E6E6" stroke="#60195E" stroke-width="5"/>
<path d="M757.5 1078C757.5 1068.34 765.335 1060.5 775 1060.5H1073C1082.66 1060.5 1090.5 1068.34 1090.5 1078V1214C1090.5 1223.66 1082.66 1231.5 1073 1231.5H775C765.335 1231.5 757.5 1223.66 757.5 1214V1078Z" fill="#E6E6E6" stroke="#60195E" stroke-width="5"/>
<path d="M28.5 1078C28.5 1068.34 36.335 1060.5 46 1060.5H344C353.665 1060.5 361.5 1068.34 361.5 1078V1214C361.5 1223.66 353.665 1231.5 344 1231.5H46C36.335 1231.5 28.5 1223.66 28.5 1214V1078Z" fill="#E6E6E6" stroke="#60195E" stroke-width="5"/>
<path d="M198.069 1128.68V1173H192.469V1135.67L181.177 1139.79V1134.73L197.191 1128.68H198.069Z" fill="#60195E"/>
<path d="M563.069 1126.68V1171H557.469V1133.67L546.177 1137.79V1132.73L562.191 1126.68H563.069Z" fill="#60195E"/>
<path d="M927.069 1171H921.438V1133.67L910.146 1137.82V1132.73L926.191 1126.71H927.069V1171Z" fill="#60195E"/>
<path d="M2.5 679C2.5 669.335 10.335 661.5 20 661.5H1091C1100.66 661.5 1108.5 669.335 1108.5 679V858.963C1108.5 868.628 1100.66 876.463 1091 876.463H20C10.335 876.463 2.5 868.628 2.5 858.963V679Z" fill="#C4C4C4" stroke="#C4C4C4" stroke-width="5"/>
<path d="M392.5 701C392.5 691.335 400.335 683.5 410 683.5H709C718.665 683.5 726.5 691.335 726.5 701V837C726.5 846.665 718.665 854.5 709 854.5H410C400.335 854.5 392.5 846.665 392.5 837V701Z" fill="#E6E6E6" stroke="#60195E" stroke-width="5"/>
<path d="M757.5 701C757.5 691.335 765.335 683.5 775 683.5H1073C1082.66 683.5 1090.5 691.335 1090.5 701V837C1090.5 846.665 1082.66 854.5 1073 854.5H775C765.335 854.5 757.5 846.665 757.5 837V701Z" fill="#E6E6E6" stroke="#60195E" stroke-width="5"/>
<path d="M28.5 701C28.5 691.335 36.335 683.5 46 683.5H344C353.665 683.5 361.5 691.335 361.5 701V837C361.5 846.665 353.665 854.5 344 854.5H46C36.335 854.5 28.5 846.665 28.5 837V701Z" fill="#E6E6E6" stroke="#60195E" stroke-width="5"/>
<path d="M198.069 751.68V796H192.469V758.673L181.177 762.79V757.734L197.191 751.68H198.069Z" fill="#60195E"/>
<path d="M563.069 749.68V794H557.469V756.673L546.177 760.79V755.734L562.191 749.68H563.069Z" fill="#60195E"/>
<path d="M927.069 794H921.438V756.673L910.146 760.82V755.734L926.191 749.71H927.069V794Z" fill="#60195E"/>
<path d="M1302.5 679C1302.5 669.335 1310.34 661.5 1320 661.5H2391C2400.66 661.5 2408.5 669.335 2408.5 679V858.963C2408.5 868.628 2400.66 876.463 2391 876.463H1320C1310.34 876.463 1302.5 868.628 1302.5 858.963V679Z" fill="#C4C4C4" stroke="#C4C4C4" stroke-width="5"/>
<path d="M1970.5 701C1970.5 691.335 1978.34 683.5 1988 683.5H2365C2374.66 683.5 2382.5 691.335 2382.5 701V836C2382.5 845.665 2374.67 853.5 2365 853.5H1988C1978.34 853.5 1970.5 845.665 1970.5 836V701Z" fill="#E6E6E6" stroke="#60195E" stroke-width="5"/>
<path d="M1328.5 701C1328.5 691.335 1336.34 683.5 1346 683.5H1721C1730.66 683.5 1738.5 691.335 1738.5 701V837C1738.5 846.665 1730.66 854.5 1721 854.5H1346C1336.34 854.5 1328.5 846.665 1328.5 837V701Z" fill="#E6E6E6" stroke="#60195E" stroke-width="5"/>
<path d="M1765.5 701C1765.5 691.335 1773.34 683.5 1783 683.5H1921.95C1931.62 683.5 1939.45 691.335 1939.45 701V836.225C1939.45 845.89 1931.62 853.725 1921.95 853.725H1783C1773.34 853.725 1765.5 845.89 1765.5 836.225V701Z" fill="#E6E6E6" stroke="#60195E" stroke-width="5"/>
<path d="M1536.07 794H1530.44V756.673L1519.15 760.82V755.734L1535.19 749.71H1536.07V794Z" fill="#60195E"/>
<path d="M1847.81 769.236H1852.01C1854.66 769.196 1856.74 768.5 1858.25 767.147C1859.76 765.795 1860.52 763.969 1860.52 761.668C1860.52 756.501 1857.95 753.918 1852.8 753.918C1850.38 753.918 1848.44 754.614 1846.99 756.007C1845.56 757.379 1844.84 759.206 1844.84 761.486H1839.24C1839.24 757.995 1840.51 755.099 1843.05 752.798C1845.62 750.477 1848.87 749.316 1852.8 749.316C1856.96 749.316 1860.22 750.416 1862.58 752.616C1864.94 754.816 1866.12 757.874 1866.12 761.789C1866.12 763.706 1865.5 765.563 1864.25 767.359C1863.01 769.156 1861.33 770.498 1859.19 771.386C1861.61 772.153 1863.48 773.424 1864.79 775.2C1866.12 776.976 1866.79 779.146 1866.79 781.709C1866.79 785.665 1865.5 788.803 1862.91 791.124C1860.33 793.445 1856.97 794.605 1852.83 794.605C1848.69 794.605 1845.32 793.485 1842.72 791.245C1840.14 789.005 1838.85 786.048 1838.85 782.375H1844.48C1844.48 784.696 1845.23 786.553 1846.75 787.945C1848.26 789.338 1850.29 790.034 1852.83 790.034C1855.54 790.034 1857.61 789.328 1859.04 787.915C1860.47 786.502 1861.19 784.474 1861.19 781.83C1861.19 779.267 1860.4 777.299 1858.83 775.927C1857.25 774.554 1854.98 773.848 1852.01 773.808H1847.81V769.236Z" fill="#60195E"/>
<path d="M2179.07 794H2173.44V756.673L2162.15 760.82V755.734L2178.19 749.71H2179.07V794Z" fill="#60195E"/>
<path d="M1299.5 1056C1299.5 1046.34 1307.34 1038.5 1317 1038.5H2388C2397.66 1038.5 2405.5 1046.34 2405.5 1056V1235.96C2405.5 1245.63 2397.66 1253.46 2388 1253.46H1317C1307.34 1253.46 1299.5 1245.63 1299.5 1235.96V1056Z" fill="#C4C4C4" stroke="#C4C4C4" stroke-width="5"/>
<path d="M1331.5 1080C1331.5 1070.34 1339.34 1062.5 1349 1062.5H1617C1626.66 1062.5 1634.5 1070.34 1634.5 1080V1215C1634.5 1224.66 1626.66 1232.5 1617 1232.5H1349C1339.34 1232.5 1331.5 1224.66 1331.5 1215V1080Z" fill="#E6E6E6" stroke="#60195E" stroke-width="5"/>
<path d="M1861.5 1079C1861.5 1069.34 1869.34 1061.5 1879 1061.5H2166C2175.67 1061.5 2183.5 1069.34 2183.5 1079V1214C2183.5 1223.66 2175.67 1231.5 2166 1231.5H1879C1869.34 1231.5 1861.5 1223.66 1861.5 1214V1079Z" fill="#E6E6E6" stroke="#60195E" stroke-width="5"/>
<path d="M1659.5 1078C1659.5 1068.34 1667.34 1060.5 1677 1060.5H1815.95C1825.62 1060.5 1833.45 1068.34 1833.45 1078V1213.22C1833.45 1222.89 1825.62 1230.72 1815.95 1230.72H1677C1667.34 1230.72 1659.5 1222.89 1659.5 1213.22V1078Z" fill="#E6E6E6" stroke="#60195E" stroke-width="5"/>
<path d="M2208.5 1077C2208.5 1067.34 2216.34 1059.5 2226 1059.5H2364.95C2374.62 1059.5 2382.45 1067.34 2382.45 1077V1212.22C2382.45 1221.89 2374.62 1229.72 2364.95 1229.72H2226C2216.34 1229.72 2208.5 1221.89 2208.5 1212.22V1077Z" fill="#E6E6E6" stroke="#60195E" stroke-width="5"/>
<path d="M1486.07 1173H1480.44V1135.67L1469.15 1139.82V1134.73L1485.19 1128.71H1486.07V1173Z" fill="#60195E"/>
<path d="M2035.07 1172H2029.44V1134.67L2018.15 1138.82V1133.73L2034.19 1127.71H2035.07V1172Z" fill="#60195E"/>
<path d="M1763.54 1171H1734.66V1166.97L1749.92 1150.02C1752.18 1147.46 1753.74 1145.38 1754.58 1143.78C1755.45 1142.17 1755.88 1140.5 1755.88 1138.79C1755.88 1136.49 1755.19 1134.6 1753.8 1133.13C1752.4 1131.65 1750.55 1130.92 1748.23 1130.92C1745.44 1130.92 1743.27 1131.72 1741.72 1133.31C1740.18 1134.88 1739.42 1137.08 1739.42 1139.91H1733.82C1733.82 1135.85 1735.12 1132.57 1737.72 1130.07C1740.34 1127.57 1743.85 1126.32 1748.23 1126.32C1752.32 1126.32 1755.56 1127.4 1757.94 1129.56C1760.32 1131.69 1761.52 1134.55 1761.52 1138.12C1761.52 1142.46 1758.75 1147.63 1753.22 1153.62L1741.41 1166.43H1763.54V1171Z" fill="#60195E"/>
<path d="M2312.54 1170H2283.66V1165.97L2298.92 1149.02C2301.18 1146.46 2302.74 1144.38 2303.58 1142.78C2304.45 1141.17 2304.88 1139.5 2304.88 1137.79C2304.88 1135.49 2304.19 1133.6 2302.8 1132.13C2301.4 1130.65 2299.55 1129.92 2297.23 1129.92C2294.44 1129.92 2292.27 1130.72 2290.72 1132.31C2289.18 1133.88 2288.42 1136.08 2288.42 1138.91H2282.82C2282.82 1134.85 2284.12 1131.57 2286.72 1129.07C2289.34 1126.57 2292.85 1125.32 2297.23 1125.32C2301.32 1125.32 2304.56 1126.4 2306.94 1128.56C2309.32 1130.69 2310.52 1133.55 2310.52 1137.12C2310.52 1141.46 2307.75 1146.63 2302.22 1152.62L2290.41 1165.43H2312.54V1170Z" fill="#60195E"/>
<path d="M20.384 191.474C23.52 191.474 25.8067 191.115 27.244 190.396C28.6813 189.612 29.4 188.305 29.4 186.476C29.4 184.777 28.616 183.373 27.048 182.262C25.5453 181.151 23.03 179.943 19.502 178.636C17.346 177.852 15.3533 177.035 13.524 176.186C11.76 175.271 10.2247 174.226 8.918 173.05C7.61133 171.874 6.566 170.469 5.782 168.836C5.06333 167.137 4.704 165.079 4.704 162.662C4.704 157.958 6.43533 154.267 9.898 151.588C13.3607 148.844 18.0647 147.472 24.01 147.472C27.0153 147.472 29.89 147.766 32.634 148.354C35.378 148.877 37.436 149.399 38.808 149.922L36.652 159.526C35.3453 158.938 33.6793 158.415 31.654 157.958C29.6287 157.435 27.2767 157.174 24.598 157.174C22.1807 157.174 20.2207 157.599 18.718 158.448C17.2153 159.232 16.464 160.473 16.464 162.172C16.464 163.021 16.5947 163.773 16.856 164.426C17.1827 165.079 17.7053 165.7 18.424 166.288C19.1427 166.811 20.09 167.366 21.266 167.954C22.442 168.477 23.8793 169.032 25.578 169.62C28.3873 170.665 30.772 171.711 32.732 172.756C34.692 173.736 36.2927 174.879 37.534 176.186C38.8407 177.427 39.788 178.865 40.376 180.498C40.964 182.131 41.258 184.091 41.258 186.378C41.258 191.278 39.4287 195.002 35.77 197.55C32.1767 200.033 27.0153 201.274 20.286 201.274C15.778 201.274 12.152 200.882 9.408 200.098C6.664 199.379 4.73667 198.791 3.626 198.334L5.684 188.436C7.448 189.155 9.53867 189.841 11.956 190.494C14.4387 191.147 17.248 191.474 20.384 191.474ZM52.3351 200V125.912L64.1931 123.952V149.334C65.4997 148.877 67.0024 148.485 68.7011 148.158C70.4651 147.831 72.1964 147.668 73.8951 147.668C78.0111 147.668 81.4084 148.256 84.0871 149.432C86.8311 150.543 89.0197 152.143 90.6531 154.234C92.2864 156.259 93.4297 158.709 94.0831 161.584C94.8017 164.459 95.1611 167.66 95.1611 171.188V200H83.3031V173.05C83.3031 170.306 83.1071 167.987 82.7151 166.092C82.3884 164.132 81.8004 162.564 80.9511 161.388C80.1671 160.147 79.0891 159.265 77.7171 158.742C76.3451 158.154 74.6464 157.86 72.6211 157.86C71.0531 157.86 69.4524 158.023 67.8191 158.35C66.1857 158.677 64.9771 158.971 64.1931 159.232V200H52.3351ZM138.578 159.428C137.598 159.101 136.226 158.775 134.462 158.448C132.763 158.056 130.771 157.86 128.484 157.86C127.177 157.86 125.773 157.991 124.27 158.252C122.833 158.513 121.82 158.742 121.232 158.938V200H109.374V151.196C111.661 150.347 114.503 149.563 117.9 148.844C121.363 148.06 125.185 147.668 129.366 147.668C130.15 147.668 131.065 147.733 132.11 147.864C133.155 147.929 134.201 148.06 135.246 148.256C136.291 148.387 137.304 148.583 138.284 148.844C139.264 149.04 140.048 149.236 140.636 149.432L138.578 159.428ZM160.856 200H148.998V148.746H160.856V200ZM162.13 133.752C162.13 135.973 161.411 137.737 159.974 139.044C158.536 140.351 156.838 141.004 154.878 141.004C152.852 141.004 151.121 140.351 149.684 139.044C148.246 137.737 147.528 135.973 147.528 133.752C147.528 131.465 148.246 129.669 149.684 128.362C151.121 127.055 152.852 126.402 154.878 126.402C156.838 126.402 158.536 127.055 159.974 128.362C161.411 129.669 162.13 131.465 162.13 133.752ZM175.984 150.412C178.27 149.759 181.243 149.138 184.902 148.55C188.56 147.962 192.611 147.668 197.054 147.668C201.235 147.668 204.73 148.256 207.54 149.432C210.349 150.543 212.57 152.143 214.204 154.234C215.902 156.259 217.078 158.742 217.732 161.682C218.45 164.557 218.809 167.725 218.809 171.188V200H206.952V173.05C206.952 170.306 206.756 167.987 206.364 166.092C206.037 164.132 205.449 162.564 204.6 161.388C203.816 160.147 202.705 159.265 201.268 158.742C199.896 158.154 198.197 157.86 196.172 157.86C194.669 157.86 193.101 157.958 191.468 158.154C189.834 158.35 188.626 158.513 187.842 158.644V200H175.984V150.412ZM245.168 168.738C246.67 167.17 248.271 165.504 249.97 163.74C251.668 161.911 253.334 160.114 254.968 158.35C256.601 156.521 258.136 154.789 259.574 153.156C261.076 151.457 262.35 149.987 263.396 148.746H277.41C274.143 152.405 270.68 156.194 267.022 160.114C263.428 164.034 259.802 167.856 256.144 171.58C258.104 173.213 260.162 175.206 262.318 177.558C264.474 179.845 266.564 182.295 268.59 184.908C270.615 187.521 272.51 190.135 274.274 192.748C276.038 195.361 277.508 197.779 278.684 200H264.964C263.788 197.975 262.416 195.851 260.848 193.63C259.345 191.409 257.712 189.253 255.948 187.162C254.184 185.071 252.387 183.111 250.558 181.282C248.728 179.387 246.932 177.787 245.168 176.48V200H233.31V125.912L245.168 123.952V168.738Z" fill="#60195E"/>
<path d="M1.544 269.696L9.288 268.416V278.528H21.192V284.992H9.288V298.624C9.288 301.312 9.71467 303.232 10.568 304.384C11.4213 305.536 12.872 306.112 14.92 306.112C16.328 306.112 17.5653 305.963 18.632 305.664C19.7413 305.365 20.616 305.088 21.256 304.832L22.536 310.976C21.64 311.36 20.4667 311.744 19.016 312.128C17.5653 312.555 15.8587 312.768 13.896 312.768C11.5067 312.768 9.50133 312.448 7.88 311.808C6.30133 311.168 5.04267 310.251 4.104 309.056C3.16533 307.819 2.504 306.347 2.12 304.64C1.736 302.891 1.544 300.907 1.544 298.688V269.696ZM56.006 278.528C52.55 291.243 48.5393 302.763 43.974 313.088C43.1207 315.008 42.246 316.651 41.35 318.016C40.454 319.381 39.4513 320.512 38.342 321.408C37.2327 322.304 35.9953 322.944 34.63 323.328C33.2647 323.755 31.686 323.968 29.894 323.968C28.6993 323.968 27.5047 323.84 26.31 323.584C25.158 323.328 24.2833 323.051 23.686 322.752L25.094 316.544C26.63 317.141 28.1447 317.44 29.638 317.44C31.6433 317.44 33.2007 316.949 34.31 315.968C35.462 315.029 36.4647 313.557 37.318 311.552C34.886 306.859 32.5393 301.739 30.278 296.192C28.0593 290.645 26.0753 284.757 24.326 278.528H32.582C33.0087 280.32 33.5207 282.261 34.118 284.352C34.758 286.443 35.4407 288.576 36.166 290.752C36.8913 292.885 37.6593 295.019 38.47 297.152C39.2807 299.285 40.0913 301.269 40.902 303.104C42.2673 299.307 43.5473 295.275 44.742 291.008C45.9367 286.699 47.0247 282.539 48.006 278.528H56.006ZM84.0735 295.424C84.0735 291.968 83.2842 289.28 81.7055 287.36C80.1695 285.44 77.6735 284.48 74.2175 284.48C73.4922 284.48 72.7242 284.523 71.9135 284.608C71.1455 284.651 70.3775 284.779 69.6095 284.992V304.128C70.2922 304.597 71.1882 305.045 72.2975 305.472C73.4495 305.856 74.6655 306.048 75.9455 306.048C78.7615 306.048 80.8095 305.088 82.0895 303.168C83.4122 301.248 84.0735 298.667 84.0735 295.424ZM92.0095 295.296C92.0095 297.856 91.6682 300.203 90.9855 302.336C90.3455 304.469 89.4068 306.304 88.1695 307.84C86.9322 309.376 85.3748 310.571 83.4975 311.424C81.6628 312.277 79.5722 312.704 77.2255 312.704C75.6468 312.704 74.1962 312.512 72.8735 312.128C71.5508 311.744 70.4628 311.317 69.6095 310.848V323.84H61.8655V279.616C63.4442 279.189 65.3855 278.784 67.6895 278.4C69.9935 278.016 72.4255 277.824 74.9855 277.824C77.6308 277.824 79.9988 278.229 82.0895 279.04C84.1802 279.851 85.9508 281.024 87.4015 282.56C88.8948 284.053 90.0255 285.888 90.7935 288.064C91.6042 290.197 92.0095 292.608 92.0095 295.296ZM98.1345 295.424C98.1345 292.48 98.5612 289.899 99.4145 287.68C100.311 285.461 101.484 283.627 102.935 282.176C104.385 280.683 106.049 279.573 107.927 278.848C109.804 278.08 111.724 277.696 113.687 277.696C118.295 277.696 121.879 279.125 124.439 281.984C127.041 284.843 128.343 289.109 128.343 294.784C128.343 295.211 128.321 295.701 128.279 296.256C128.279 296.768 128.257 297.237 128.215 297.664H106.135C106.348 300.352 107.287 302.443 108.951 303.936C110.657 305.387 113.111 306.112 116.311 306.112C118.188 306.112 119.895 305.941 121.431 305.6C123.009 305.259 124.247 304.896 125.143 304.512L126.167 310.848C125.74 311.061 125.143 311.296 124.375 311.552C123.649 311.765 122.796 311.957 121.815 312.128C120.876 312.341 119.852 312.512 118.743 312.64C117.633 312.768 116.503 312.832 115.351 312.832C112.407 312.832 109.847 312.405 107.671 311.552C105.495 310.656 103.703 309.44 102.295 307.904C100.887 306.325 99.8412 304.491 99.1585 302.4C98.4758 300.267 98.1345 297.941 98.1345 295.424ZM120.599 291.968C120.599 290.901 120.449 289.899 120.151 288.96C119.852 287.979 119.404 287.147 118.807 286.464C118.252 285.739 117.548 285.184 116.695 284.8C115.884 284.373 114.903 284.16 113.751 284.16C112.556 284.16 111.511 284.395 110.615 284.864C109.719 285.291 108.951 285.867 108.311 286.592C107.713 287.317 107.244 288.149 106.903 289.088C106.561 290.027 106.327 290.987 106.199 291.968H120.599ZM145.257 283.84C145.257 285.333 144.745 286.549 143.721 287.488C142.74 288.427 141.545 288.896 140.137 288.896C138.686 288.896 137.47 288.427 136.489 287.488C135.508 286.549 135.017 285.333 135.017 283.84C135.017 282.347 135.508 281.131 136.489 280.192C137.47 279.211 138.686 278.72 140.137 278.72C141.545 278.72 142.74 279.211 143.721 280.192C144.745 281.131 145.257 282.347 145.257 283.84ZM145.257 307.776C145.257 309.269 144.745 310.485 143.721 311.424C142.74 312.363 141.545 312.832 140.137 312.832C138.686 312.832 137.47 312.363 136.489 311.424C135.508 310.485 135.017 309.269 135.017 307.776C135.017 306.283 135.508 305.067 136.489 304.128C137.47 303.147 138.686 302.656 140.137 302.656C141.545 302.656 142.74 303.147 143.721 304.128C144.745 305.067 145.257 306.283 145.257 307.776ZM182.251 262.336C183.872 262.336 185.237 262.464 186.347 262.72C187.499 262.976 188.395 263.232 189.035 263.488L187.819 269.76C187.221 269.547 186.496 269.355 185.643 269.184C184.832 269.013 183.936 268.928 182.955 268.928C180.395 268.928 178.624 269.611 177.643 270.976C176.704 272.341 176.235 274.112 176.235 276.288V278.528H188.523V284.992H176.235V312H168.491V276.16C168.491 271.808 169.621 268.416 171.883 265.984C174.144 263.552 177.6 262.336 182.251 262.336ZM206.123 312.64C203.819 312.597 201.899 312.341 200.363 311.872C198.869 311.403 197.675 310.741 196.779 309.888C195.883 308.992 195.243 307.904 194.859 306.624C194.517 305.301 194.347 303.808 194.347 302.144V263.616L202.091 262.336V300.672C202.091 301.611 202.155 302.4 202.283 303.04C202.453 303.68 202.731 304.235 203.115 304.704C203.499 305.131 204.011 305.472 204.651 305.728C205.333 305.941 206.187 306.112 207.211 306.24L206.123 312.64ZM211.635 295.424C211.635 292.48 212.061 289.899 212.915 287.68C213.811 285.461 214.984 283.627 216.435 282.176C217.885 280.683 219.549 279.573 221.427 278.848C223.304 278.08 225.224 277.696 227.187 277.696C231.795 277.696 235.379 279.125 237.939 281.984C240.541 284.843 241.843 289.109 241.843 294.784C241.843 295.211 241.821 295.701 241.779 296.256C241.779 296.768 241.757 297.237 241.715 297.664H219.635C219.848 300.352 220.787 302.443 222.451 303.936C224.157 305.387 226.611 306.112 229.811 306.112C231.688 306.112 233.395 305.941 234.931 305.6C236.509 305.259 237.747 304.896 238.643 304.512L239.667 310.848C239.24 311.061 238.643 311.296 237.875 311.552C237.149 311.765 236.296 311.957 235.315 312.128C234.376 312.341 233.352 312.512 232.243 312.64C231.133 312.768 230.003 312.832 228.851 312.832C225.907 312.832 223.347 312.405 221.171 311.552C218.995 310.656 217.203 309.44 215.795 307.904C214.387 306.325 213.341 304.491 212.659 302.4C211.976 300.267 211.635 297.941 211.635 295.424ZM234.099 291.968C234.099 290.901 233.949 289.899 233.651 288.96C233.352 287.979 232.904 287.147 232.307 286.464C231.752 285.739 231.048 285.184 230.195 284.8C229.384 284.373 228.403 284.16 227.251 284.16C226.056 284.16 225.011 284.395 224.115 284.864C223.219 285.291 222.451 285.867 221.811 286.592C221.213 287.317 220.744 288.149 220.403 289.088C220.061 290.027 219.827 290.987 219.699 291.968H234.099ZM262.085 289.472L269.189 278.528H277.317L266.309 294.336C268.613 297.323 270.81 300.352 272.901 303.424C275.034 306.453 276.784 309.312 278.149 312H269.765C269.381 311.189 268.869 310.272 268.229 309.248C267.632 308.181 266.97 307.093 266.245 305.984C265.562 304.832 264.837 303.701 264.069 302.592C263.301 301.483 262.554 300.437 261.829 299.456C260.336 301.376 258.864 303.509 257.413 305.856C256.005 308.16 254.832 310.208 253.893 312H245.957C246.597 310.72 247.365 309.355 248.261 307.904C249.157 306.453 250.117 304.981 251.141 303.488C252.165 301.952 253.21 300.437 254.277 298.944C255.386 297.408 256.474 295.957 257.541 294.592L246.469 278.528H254.981L262.085 289.472Z" fill="#60195E"/>
<path d="M3.072 369.424C3.072 366.48 3.49867 363.899 4.352 361.68C5.248 359.461 6.42133 357.627 7.872 356.176C9.32267 354.683 10.9867 353.573 12.864 352.848C14.7413 352.08 16.6613 351.696 18.624 351.696C23.232 351.696 26.816 353.125 29.376 355.984C31.9787 358.843 33.28 363.109 33.28 368.784C33.28 369.211 33.2587 369.701 33.216 370.256C33.216 370.768 33.1947 371.237 33.152 371.664H11.072C11.2853 374.352 12.224 376.443 13.888 377.936C15.5947 379.387 18.048 380.112 21.248 380.112C23.1253 380.112 24.832 379.941 26.368 379.6C27.9467 379.259 29.184 378.896 30.08 378.512L31.104 384.848C30.6773 385.061 30.08 385.296 29.312 385.552C28.5867 385.765 27.7333 385.957 26.752 386.128C25.8133 386.341 24.7893 386.512 23.68 386.64C22.5707 386.768 21.44 386.832 20.288 386.832C17.344 386.832 14.784 386.405 12.608 385.552C10.432 384.656 8.64 383.44 7.232 381.904C5.824 380.325 4.77867 378.491 4.096 376.4C3.41333 374.267 3.072 371.941 3.072 369.424ZM25.536 365.968C25.536 364.901 25.3867 363.899 25.088 362.96C24.7893 361.979 24.3413 361.147 23.744 360.464C23.1893 359.739 22.4853 359.184 21.632 358.8C20.8213 358.373 19.84 358.16 18.688 358.16C17.4933 358.16 16.448 358.395 15.552 358.864C14.656 359.291 13.888 359.867 13.248 360.592C12.6507 361.317 12.1813 362.149 11.84 363.088C11.4987 364.027 11.264 364.987 11.136 365.968H25.536ZM47.5705 369.424C47.5705 372.667 48.2105 375.248 49.4905 377.168C50.8132 379.088 52.8825 380.048 55.6985 380.048C56.9785 380.048 58.1732 379.856 59.2825 379.472C60.4345 379.045 61.3518 378.597 62.0345 378.128V358.992C61.4798 358.864 60.7758 358.757 59.9225 358.672C59.1118 358.544 58.0452 358.48 56.7225 358.48C53.8638 358.48 51.6238 359.461 50.0025 361.424C48.3812 363.344 47.5705 366.011 47.5705 369.424ZM39.6345 369.296C39.6345 366.651 40.0185 364.261 40.7865 362.128C41.5972 359.952 42.7278 358.117 44.1785 356.624C45.6718 355.088 47.4638 353.915 49.5545 353.104C51.6452 352.251 54.0132 351.824 56.6585 351.824C59.3038 351.824 61.7785 352.016 64.0825 352.4C66.3865 352.784 68.2852 353.189 69.7785 353.616V397.84H62.0345V384.848C61.1385 385.317 60.0292 385.744 58.7065 386.128C57.4265 386.512 55.9972 386.704 54.4185 386.704C52.0292 386.704 49.9172 386.299 48.0825 385.488C46.2478 384.635 44.7118 383.44 43.4745 381.904C42.2372 380.368 41.2772 378.533 40.5945 376.4C39.9545 374.267 39.6345 371.899 39.6345 369.296ZM107.072 384.976C105.578 385.36 103.637 385.744 101.248 386.128C98.8582 386.555 96.2342 386.768 93.3755 386.768C90.6875 386.768 88.4262 386.384 86.5915 385.616C84.7995 384.848 83.3488 383.781 82.2395 382.416C81.1728 381.051 80.4048 379.429 79.9355 377.552C79.4662 375.632 79.2315 373.541 79.2315 371.28V352.528H86.9755V370.064C86.9755 373.648 87.4875 376.208 88.5115 377.744C89.5782 379.28 91.4128 380.048 94.0155 380.048C94.9542 380.048 95.9355 380.005 96.9595 379.92C98.0262 379.835 98.8155 379.728 99.3275 379.6V352.528H107.072V384.976ZM124.736 386H116.992V352.528H124.736V386ZM125.568 342.736C125.568 344.187 125.099 345.339 124.16 346.192C123.221 347.045 122.112 347.472 120.832 347.472C119.509 347.472 118.379 347.045 117.44 346.192C116.501 345.339 116.032 344.187 116.032 342.736C116.032 341.243 116.501 340.069 117.44 339.216C118.379 338.363 119.509 337.936 120.832 337.936C122.112 337.936 123.221 338.363 124.16 339.216C125.099 340.069 125.568 341.243 125.568 342.736ZM143.192 386C141.058 381.605 138.861 376.571 136.6 370.896C134.381 365.179 132.354 359.056 130.52 352.528H138.776C139.245 354.405 139.778 356.432 140.376 358.608C141.016 360.741 141.677 362.896 142.36 365.072C143.085 367.205 143.81 369.296 144.536 371.344C145.304 373.349 146.008 375.163 146.648 376.784C147.288 375.163 147.97 373.349 148.696 371.344C149.421 369.296 150.125 367.205 150.808 365.072C151.533 362.896 152.216 360.741 152.856 358.608C153.496 356.432 154.05 354.405 154.52 352.528H162.52C160.685 359.056 158.637 365.179 156.376 370.896C154.157 376.571 151.981 381.605 149.848 386H143.192ZM180.079 380.56C182.468 380.56 184.282 380.432 185.519 380.176V371.6C185.092 371.472 184.474 371.344 183.663 371.216C182.852 371.088 181.956 371.024 180.975 371.024C180.122 371.024 179.247 371.088 178.351 371.216C177.498 371.344 176.708 371.579 175.983 371.92C175.3 372.261 174.746 372.752 174.319 373.392C173.892 373.989 173.679 374.757 173.679 375.696C173.679 377.531 174.255 378.811 175.407 379.536C176.559 380.219 178.116 380.56 180.079 380.56ZM179.439 351.696C181.999 351.696 184.154 352.016 185.903 352.656C187.652 353.296 189.039 354.192 190.063 355.344C191.13 356.496 191.876 357.904 192.303 359.568C192.772 361.189 193.007 362.981 193.007 364.944V385.232C191.812 385.488 189.999 385.787 187.567 386.128C185.178 386.512 182.468 386.704 179.439 386.704C177.434 386.704 175.599 386.512 173.935 386.128C172.271 385.744 170.842 385.125 169.647 384.272C168.495 383.419 167.578 382.309 166.895 380.944C166.255 379.579 165.935 377.893 165.935 375.888C165.935 373.968 166.298 372.347 167.023 371.024C167.791 369.701 168.815 368.635 170.095 367.824C171.375 366.971 172.847 366.373 174.511 366.032C176.218 365.648 177.988 365.456 179.823 365.456C180.676 365.456 181.572 365.52 182.511 365.648C183.45 365.733 184.452 365.904 185.519 366.16V364.88C185.519 363.984 185.412 363.131 185.199 362.32C184.986 361.509 184.602 360.805 184.047 360.208C183.535 359.568 182.831 359.077 181.935 358.736C181.082 358.395 179.994 358.224 178.671 358.224C176.879 358.224 175.236 358.352 173.743 358.608C172.25 358.864 171.034 359.163 170.095 359.504L169.135 353.232C170.116 352.891 171.546 352.549 173.423 352.208C175.3 351.867 177.306 351.696 179.439 351.696ZM214.139 386.64C211.835 386.597 209.915 386.341 208.379 385.872C206.885 385.403 205.691 384.741 204.795 383.888C203.899 382.992 203.259 381.904 202.875 380.624C202.533 379.301 202.363 377.808 202.363 376.144V337.616L210.107 336.336V374.672C210.107 375.611 210.171 376.4 210.299 377.04C210.469 377.68 210.747 378.235 211.131 378.704C211.515 379.131 212.027 379.472 212.667 379.728C213.349 379.941 214.203 380.112 215.227 380.24L214.139 386.64ZM219.635 369.424C219.635 366.48 220.061 363.899 220.915 361.68C221.811 359.461 222.984 357.627 224.435 356.176C225.885 354.683 227.549 353.573 229.427 352.848C231.304 352.08 233.224 351.696 235.187 351.696C239.795 351.696 243.379 353.125 245.939 355.984C248.541 358.843 249.843 363.109 249.843 368.784C249.843 369.211 249.821 369.701 249.779 370.256C249.779 370.768 249.757 371.237 249.715 371.664H227.635C227.848 374.352 228.787 376.443 230.451 377.936C232.157 379.387 234.611 380.112 237.811 380.112C239.688 380.112 241.395 379.941 242.931 379.6C244.509 379.259 245.747 378.896 246.643 378.512L247.667 384.848C247.24 385.061 246.643 385.296 245.875 385.552C245.149 385.765 244.296 385.957 243.315 386.128C242.376 386.341 241.352 386.512 240.243 386.64C239.133 386.768 238.003 386.832 236.851 386.832C233.907 386.832 231.347 386.405 229.171 385.552C226.995 384.656 225.203 383.44 223.795 381.904C222.387 380.325 221.341 378.491 220.659 376.4C219.976 374.267 219.635 371.941 219.635 369.424ZM242.099 365.968C242.099 364.901 241.949 363.899 241.651 362.96C241.352 361.979 240.904 361.147 240.307 360.464C239.752 359.739 239.048 359.184 238.195 358.8C237.384 358.373 236.403 358.16 235.251 358.16C234.056 358.16 233.011 358.395 232.115 358.864C231.219 359.291 230.451 359.867 229.811 360.592C229.213 361.317 228.744 362.149 228.403 363.088C228.061 364.027 227.827 364.987 227.699 365.968H242.099ZM258.053 353.616C259.546 353.189 261.488 352.784 263.877 352.4C266.266 352.016 268.912 351.824 271.813 351.824C274.544 351.824 276.826 352.208 278.661 352.976C280.496 353.701 281.946 354.747 283.013 356.112C284.122 357.435 284.89 359.056 285.317 360.976C285.786 362.853 286.021 364.923 286.021 367.184V386H278.277V368.4C278.277 366.608 278.149 365.093 277.893 363.856C277.68 362.576 277.296 361.552 276.741 360.784C276.229 359.973 275.504 359.397 274.565 359.056C273.669 358.672 272.56 358.48 271.237 358.48C270.256 358.48 269.232 358.544 268.165 358.672C267.098 358.8 266.309 358.907 265.797 358.992V386H258.053V353.616ZM295.107 343.696L302.851 342.416V352.528H314.755V358.992H302.851V372.624C302.851 375.312 303.277 377.232 304.131 378.384C304.984 379.536 306.435 380.112 308.483 380.112C309.891 380.112 311.128 379.963 312.195 379.664C313.304 379.365 314.179 379.088 314.819 378.832L316.099 384.976C315.203 385.36 314.029 385.744 312.579 386.128C311.128 386.555 309.421 386.768 307.458 386.768C305.069 386.768 303.064 386.448 301.443 385.808C299.864 385.168 298.605 384.251 297.667 383.056C296.728 381.819 296.067 380.347 295.683 378.64C295.299 376.891 295.107 374.907 295.107 372.688V343.696ZM335.322 369.296C335.322 366.821 335.706 364.517 336.474 362.384C337.242 360.208 338.33 358.331 339.738 356.752C341.189 355.173 342.938 353.936 344.986 353.04C347.034 352.144 349.338 351.696 351.898 351.696C355.055 351.696 358.042 352.272 360.858 353.424L359.194 359.76C358.298 359.376 357.274 359.056 356.122 358.8C355.013 358.544 353.818 358.416 352.538 358.416C349.509 358.416 347.205 359.376 345.626 361.296C344.047 363.173 343.258 365.84 343.258 369.296C343.258 372.624 344.005 375.269 345.498 377.232C346.991 379.152 349.509 380.112 353.05 380.112C354.373 380.112 355.674 379.984 356.954 379.728C358.234 379.472 359.343 379.152 360.282 378.768L361.37 385.168C360.517 385.595 359.215 385.979 357.466 386.32C355.759 386.661 353.989 386.832 352.154 386.832C349.295 386.832 346.799 386.405 344.666 385.552C342.575 384.656 340.826 383.44 339.418 381.904C338.053 380.325 337.029 378.469 336.346 376.336C335.663 374.16 335.322 371.813 335.322 369.296ZM375.75 380.432C377.798 380.432 379.291 380.197 380.23 379.728C381.168 379.216 381.638 378.363 381.638 377.168C381.638 376.059 381.126 375.141 380.102 374.416C379.12 373.691 377.478 372.901 375.174 372.048C373.766 371.536 372.464 371.003 371.27 370.448C370.118 369.851 369.115 369.168 368.262 368.4C367.408 367.632 366.726 366.715 366.214 365.648C365.744 364.539 365.51 363.195 365.51 361.616C365.51 358.544 366.64 356.133 368.902 354.384C371.163 352.592 374.235 351.696 378.118 351.696C380.08 351.696 381.958 351.888 383.75 352.272C385.542 352.613 386.886 352.955 387.782 353.296L386.374 359.568C385.52 359.184 384.432 358.843 383.11 358.544C381.787 358.203 380.251 358.032 378.502 358.032C376.923 358.032 375.643 358.309 374.662 358.864C373.68 359.376 373.19 360.187 373.19 361.296C373.19 361.851 373.275 362.341 373.446 362.768C373.659 363.195 374 363.6 374.47 363.984C374.939 364.325 375.558 364.688 376.326 365.072C377.094 365.413 378.032 365.776 379.142 366.16C380.976 366.843 382.534 367.525 383.814 368.208C385.094 368.848 386.139 369.595 386.95 370.448C387.803 371.259 388.422 372.197 388.806 373.264C389.19 374.331 389.382 375.611 389.382 377.104C389.382 380.304 388.187 382.736 385.798 384.4C383.451 386.021 380.08 386.832 375.686 386.832C372.742 386.832 370.374 386.576 368.582 386.064C366.79 385.595 365.531 385.211 364.806 384.912L366.15 378.448C367.302 378.917 368.667 379.365 370.246 379.792C371.867 380.219 373.702 380.432 375.75 380.432ZM405 380.432C407.048 380.432 408.541 380.197 409.48 379.728C410.418 379.216 410.888 378.363 410.888 377.168C410.888 376.059 410.376 375.141 409.352 374.416C408.37 373.691 406.728 372.901 404.424 372.048C403.016 371.536 401.714 371.003 400.52 370.448C399.368 369.851 398.365 369.168 397.512 368.4C396.658 367.632 395.976 366.715 395.464 365.648C394.994 364.539 394.76 363.195 394.76 361.616C394.76 358.544 395.89 356.133 398.152 354.384C400.413 352.592 403.485 351.696 407.368 351.696C409.33 351.696 411.208 351.888 413 352.272C414.792 352.613 416.136 352.955 417.032 353.296L415.624 359.568C414.77 359.184 413.682 358.843 412.36 358.544C411.037 358.203 409.501 358.032 407.752 358.032C406.173 358.032 404.893 358.309 403.912 358.864C402.93 359.376 402.44 360.187 402.44 361.296C402.44 361.851 402.525 362.341 402.696 362.768C402.909 363.195 403.25 363.6 403.72 363.984C404.189 364.325 404.808 364.688 405.576 365.072C406.344 365.413 407.282 365.776 408.392 366.16C410.226 366.843 411.784 367.525 413.064 368.208C414.344 368.848 415.389 369.595 416.2 370.448C417.053 371.259 417.672 372.197 418.056 373.264C418.44 374.331 418.632 375.611 418.632 377.104C418.632 380.304 417.437 382.736 415.048 384.4C412.701 386.021 409.33 386.832 404.936 386.832C401.992 386.832 399.624 386.576 397.832 386.064C396.04 385.595 394.781 385.211 394.056 384.912L395.4 378.448C396.552 378.917 397.917 379.365 399.496 379.792C401.117 380.219 402.952 380.432 405 380.432ZM434.57 357.84C434.57 359.333 434.058 360.549 433.034 361.488C432.052 362.427 430.858 362.896 429.45 362.896C427.999 362.896 426.783 362.427 425.802 361.488C424.82 360.549 424.33 359.333 424.33 357.84C424.33 356.347 424.82 355.131 425.802 354.192C426.783 353.211 427.999 352.72 429.45 352.72C430.858 352.72 432.052 353.211 433.034 354.192C434.058 355.131 434.57 356.347 434.57 357.84ZM434.57 381.776C434.57 383.269 434.058 384.485 433.034 385.424C432.052 386.363 430.858 386.832 429.45 386.832C427.999 386.832 426.783 386.363 425.802 385.424C424.82 384.485 424.33 383.269 424.33 381.776C424.33 380.283 424.82 379.067 425.802 378.128C426.783 377.147 427.999 376.656 429.45 376.656C430.858 376.656 432.052 377.147 433.034 378.128C434.058 379.067 434.57 380.283 434.57 381.776ZM471.563 336.336C473.184 336.336 474.55 336.464 475.659 336.72C476.811 336.976 477.707 337.232 478.347 337.488L477.131 343.76C476.534 343.547 475.808 343.355 474.955 343.184C474.144 343.013 473.248 342.928 472.267 342.928C469.707 342.928 467.936 343.611 466.955 344.976C466.016 346.341 465.547 348.112 465.547 350.288V352.528H477.835V358.992H465.547V386H457.803V350.16C457.803 345.808 458.934 342.416 461.195 339.984C463.456 337.552 466.912 336.336 471.563 336.336ZM495.435 386.64C493.131 386.597 491.211 386.341 489.675 385.872C488.182 385.403 486.987 384.741 486.091 383.888C485.195 382.992 484.555 381.904 484.171 380.624C483.83 379.301 483.659 377.808 483.659 376.144V337.616L491.403 336.336V374.672C491.403 375.611 491.467 376.4 491.595 377.04C491.766 377.68 492.043 378.235 492.427 378.704C492.811 379.131 493.323 379.472 493.963 379.728C494.646 379.941 495.499 380.112 496.523 380.24L495.435 386.64ZM500.947 369.424C500.947 366.48 501.374 363.899 502.227 361.68C503.123 359.461 504.296 357.627 505.747 356.176C507.198 354.683 508.862 353.573 510.739 352.848C512.616 352.08 514.536 351.696 516.499 351.696C521.107 351.696 524.691 353.125 527.251 355.984C529.854 358.843 531.155 363.109 531.155 368.784C531.155 369.211 531.134 369.701 531.091 370.256C531.091 370.768 531.07 371.237 531.027 371.664H508.947C509.16 374.352 510.099 376.443 511.763 377.936C513.47 379.387 515.923 380.112 519.123 380.112C521 380.112 522.707 379.941 524.243 379.6C525.822 379.259 527.059 378.896 527.955 378.512L528.979 384.848C528.552 385.061 527.955 385.296 527.187 385.552C526.462 385.765 525.608 385.957 524.627 386.128C523.688 386.341 522.664 386.512 521.555 386.64C520.446 386.768 519.315 386.832 518.163 386.832C515.219 386.832 512.659 386.405 510.483 385.552C508.307 384.656 506.515 383.44 505.107 381.904C503.699 380.325 502.654 378.491 501.971 376.4C501.288 374.267 500.947 371.941 500.947 369.424ZM523.411 365.968C523.411 364.901 523.262 363.899 522.963 362.96C522.664 361.979 522.216 361.147 521.619 360.464C521.064 359.739 520.36 359.184 519.507 358.8C518.696 358.373 517.715 358.16 516.563 358.16C515.368 358.16 514.323 358.395 513.427 358.864C512.531 359.291 511.763 359.867 511.123 360.592C510.526 361.317 510.056 362.149 509.715 363.088C509.374 364.027 509.139 364.987 509.011 365.968H523.411ZM551.398 363.472L558.502 352.528H566.63L555.622 368.336C557.926 371.323 560.123 374.352 562.214 377.424C564.347 380.453 566.096 383.312 567.462 386H559.078C558.694 385.189 558.182 384.272 557.542 383.248C556.944 382.181 556.283 381.093 555.558 379.984C554.875 378.832 554.15 377.701 553.382 376.592C552.614 375.483 551.867 374.437 551.142 373.456C549.648 375.376 548.176 377.509 546.726 379.856C545.318 382.16 544.144 384.208 543.206 386H535.27C535.91 384.72 536.678 383.355 537.574 381.904C538.47 380.453 539.43 378.981 540.454 377.488C541.478 375.952 542.523 374.437 543.59 372.944C544.699 371.408 545.787 369.957 546.854 368.592L535.782 352.528H544.294L551.398 363.472ZM569.785 364.176H587.001V371.28H569.785V364.176ZM601.812 380.432C603.86 380.432 605.353 380.197 606.292 379.728C607.231 379.216 607.7 378.363 607.7 377.168C607.7 376.059 607.188 375.141 606.164 374.416C605.183 373.691 603.54 372.901 601.236 372.048C599.828 371.536 598.527 371.003 597.332 370.448C596.18 369.851 595.177 369.168 594.324 368.4C593.471 367.632 592.788 366.715 592.276 365.648C591.807 364.539 591.572 363.195 591.572 361.616C591.572 358.544 592.703 356.133 594.964 354.384C597.225 352.592 600.297 351.696 604.18 351.696C606.143 351.696 608.02 351.888 609.812 352.272C611.604 352.613 612.948 352.955 613.844 353.296L612.436 359.568C611.583 359.184 610.495 358.843 609.172 358.544C607.849 358.203 606.313 358.032 604.564 358.032C602.985 358.032 601.705 358.309 600.724 358.864C599.743 359.376 599.252 360.187 599.252 361.296C599.252 361.851 599.337 362.341 599.508 362.768C599.721 363.195 600.063 363.6 600.532 363.984C601.001 364.325 601.62 364.688 602.388 365.072C603.156 365.413 604.095 365.776 605.204 366.16C607.039 366.843 608.596 367.525 609.876 368.208C611.156 368.848 612.201 369.595 613.012 370.448C613.865 371.259 614.484 372.197 614.868 373.264C615.252 374.331 615.444 375.611 615.444 377.104C615.444 380.304 614.249 382.736 611.86 384.4C609.513 386.021 606.143 386.832 601.748 386.832C598.804 386.832 596.436 386.576 594.644 386.064C592.852 385.595 591.593 385.211 590.868 384.912L592.212 378.448C593.364 378.917 594.729 379.365 596.308 379.792C597.929 380.219 599.764 380.432 601.812 380.432ZM622.678 386V337.616L630.422 336.336V352.912C631.275 352.613 632.257 352.357 633.366 352.144C634.518 351.931 635.649 351.824 636.758 351.824C639.446 351.824 641.665 352.208 643.414 352.976C645.206 353.701 646.635 354.747 647.702 356.112C648.769 357.435 649.515 359.035 649.942 360.912C650.411 362.789 650.646 364.88 650.646 367.184V386H642.902V368.4C642.902 366.608 642.774 365.093 642.518 363.856C642.305 362.576 641.921 361.552 641.366 360.784C640.854 359.973 640.15 359.397 639.254 359.056C638.358 358.672 637.249 358.48 635.926 358.48C634.902 358.48 633.857 358.587 632.79 358.8C631.723 359.013 630.934 359.205 630.422 359.376V386H622.678ZM679 359.504C678.36 359.291 677.464 359.077 676.312 358.864C675.203 358.608 673.901 358.48 672.408 358.48C671.555 358.48 670.637 358.565 669.656 358.736C668.717 358.907 668.056 359.056 667.672 359.184V386H659.928V354.128C661.421 353.573 663.277 353.061 665.496 352.592C667.757 352.08 670.253 351.824 672.984 351.824C673.496 351.824 674.093 351.867 674.776 351.952C675.459 351.995 676.141 352.08 676.824 352.208C677.507 352.293 678.168 352.421 678.808 352.592C679.448 352.72 679.96 352.848 680.344 352.976L679 359.504ZM693.549 386H685.805V352.528H693.549V386ZM694.381 342.736C694.381 344.187 693.911 345.339 692.973 346.192C692.034 347.045 690.925 347.472 689.645 347.472C688.322 347.472 687.191 347.045 686.253 346.192C685.314 345.339 684.845 344.187 684.845 342.736C684.845 341.243 685.314 340.069 686.253 339.216C687.191 338.363 688.322 337.936 689.645 337.936C690.925 337.936 692.034 338.363 692.973 339.216C693.911 340.069 694.381 341.243 694.381 342.736ZM703.428 353.616C704.921 353.189 706.863 352.784 709.252 352.4C711.641 352.016 714.287 351.824 717.188 351.824C719.919 351.824 722.201 352.208 724.036 352.976C725.871 353.701 727.321 354.747 728.388 356.112C729.497 357.435 730.265 359.056 730.692 360.976C731.161 362.853 731.396 364.923 731.396 367.184V386H723.652V368.4C723.652 366.608 723.524 365.093 723.268 363.856C723.055 362.576 722.671 361.552 722.116 360.784C721.604 359.973 720.879 359.397 719.94 359.056C719.044 358.672 717.935 358.48 716.612 358.48C715.631 358.48 714.607 358.544 713.54 358.672C712.473 358.8 711.684 358.907 711.172 358.992V386H703.428V353.616ZM748.61 365.584C749.591 364.56 750.636 363.472 751.746 362.32C752.855 361.125 753.943 359.952 755.01 358.8C756.076 357.605 757.079 356.475 758.018 355.408C758.999 354.299 759.831 353.339 760.514 352.528H769.666C767.532 354.917 765.271 357.392 762.882 359.952C760.535 362.512 758.167 365.008 755.778 367.44C757.058 368.507 758.402 369.808 759.81 371.344C761.218 372.837 762.583 374.437 763.906 376.144C765.228 377.851 766.466 379.557 767.618 381.264C768.77 382.971 769.73 384.549 770.498 386H761.538C760.77 384.677 759.874 383.291 758.85 381.84C757.868 380.389 756.802 378.981 755.65 377.616C754.498 376.251 753.324 374.971 752.13 373.776C750.935 372.539 749.762 371.493 748.61 370.64V386H740.866V337.616L748.61 336.336V365.584Z" fill="#60195E"/>
<path d="M31.9 610C30.5853 607.796 29.116 605.437 27.492 602.924C25.868 600.372 24.186 597.82 22.446 595.268C20.706 592.677 18.9273 590.183 17.11 587.786C15.3313 585.35 13.63 583.165 12.006 581.232V610H4.814V569.806H10.788C12.3347 571.43 13.9973 573.363 15.776 575.606C17.5547 577.81 19.3333 580.111 21.112 582.508C22.9293 584.905 24.6693 587.322 26.332 589.758C28.0333 592.155 29.5413 594.398 30.856 596.486V569.806H38.106V610H31.9ZM63.2336 610.87C60.4883 610.87 58.1296 610.483 56.1576 609.71C54.1856 608.898 52.5423 607.777 51.2276 606.346C49.9516 604.915 49.0043 603.233 48.3856 601.3C47.7669 599.367 47.4576 597.24 47.4576 594.92V569.806H54.8236V594.224C54.8236 596.041 55.0169 597.607 55.4036 598.922C55.8289 600.198 56.4089 601.242 57.1436 602.054C57.9169 602.866 58.8063 603.465 59.8116 603.852C60.8556 604.239 62.0156 604.432 63.2916 604.432C64.5676 604.432 65.7276 604.239 66.7716 603.852C67.8156 603.465 68.7049 602.866 69.4396 602.054C70.2129 601.242 70.7929 600.198 71.1796 598.922C71.6049 597.607 71.8176 596.041 71.8176 594.224V569.806H79.1836V594.92C79.1836 597.24 78.8549 599.367 78.1976 601.3C77.5789 603.233 76.6123 604.915 75.2976 606.346C74.0216 607.777 72.3783 608.898 70.3676 609.71C68.3569 610.483 65.9789 610.87 63.2336 610.87ZM113.933 603.678V610H88.5288V569.806H95.8368V603.678H113.933ZM144.915 603.678V610H119.511V569.806H126.819V603.678H144.915ZM170.527 592.658C170.527 597.414 171.242 601.88 172.673 606.056C174.103 610.232 176.095 614.041 178.647 617.482L173.717 620.73C170.585 616.979 168.11 612.726 166.293 607.97C164.475 603.175 163.567 598.071 163.567 592.658C163.567 587.245 164.475 582.16 166.293 577.404C168.11 572.609 170.585 568.337 173.717 564.586L178.647 567.834C176.095 571.314 174.103 575.142 172.673 579.318C171.242 583.455 170.527 587.902 170.527 592.658ZM188.847 594.746C188.847 597.839 189.582 600.275 191.051 602.054C192.52 603.794 194.55 604.664 197.141 604.664C198.262 604.664 199.21 604.625 199.983 604.548C200.795 604.432 201.452 604.316 201.955 604.2V586.8C201.336 586.375 200.505 585.988 199.461 585.64C198.456 585.253 197.373 585.06 196.213 585.06C193.661 585.06 191.786 585.93 190.587 587.67C189.427 589.41 188.847 591.769 188.847 594.746ZM208.973 609.072C207.581 609.497 205.822 609.884 203.695 610.232C201.607 610.58 199.403 610.754 197.083 610.754C194.686 610.754 192.54 610.387 190.645 609.652C188.75 608.917 187.126 607.873 185.773 606.52C184.458 605.128 183.434 603.465 182.699 601.532C182.003 599.56 181.655 597.356 181.655 594.92C181.655 592.523 181.945 590.357 182.525 588.424C183.144 586.452 184.033 584.77 185.193 583.378C186.353 581.986 187.764 580.923 189.427 580.188C191.09 579.415 193.004 579.028 195.169 579.028C196.638 579.028 197.934 579.202 199.055 579.55C200.176 579.898 201.143 580.285 201.955 580.71V566.152L208.973 564.992V609.072ZM216.206 594.978C216.206 592.31 216.593 589.971 217.366 587.96C218.178 585.949 219.241 584.287 220.556 582.972C221.871 581.619 223.379 580.613 225.08 579.956C226.781 579.26 228.521 578.912 230.3 578.912C234.476 578.912 237.724 580.207 240.044 582.798C242.403 585.389 243.582 589.255 243.582 594.398C243.582 594.785 243.563 595.229 243.524 595.732C243.524 596.196 243.505 596.621 243.466 597.008H223.456C223.649 599.444 224.5 601.339 226.008 602.692C227.555 604.007 229.778 604.664 232.678 604.664C234.379 604.664 235.926 604.509 237.318 604.2C238.749 603.891 239.87 603.562 240.682 603.214L241.61 608.956C241.223 609.149 240.682 609.362 239.986 609.594C239.329 609.787 238.555 609.961 237.666 610.116C236.815 610.309 235.887 610.464 234.882 610.58C233.877 610.696 232.852 610.754 231.808 610.754C229.14 610.754 226.82 610.367 224.848 609.594C222.876 608.782 221.252 607.68 219.976 606.288C218.7 604.857 217.753 603.195 217.134 601.3C216.515 599.367 216.206 597.259 216.206 594.978ZM236.564 591.846C236.564 590.879 236.429 589.971 236.158 589.12C235.887 588.231 235.481 587.477 234.94 586.858C234.437 586.201 233.799 585.698 233.026 585.35C232.291 584.963 231.402 584.77 230.358 584.77C229.275 584.77 228.328 584.983 227.516 585.408C226.704 585.795 226.008 586.317 225.428 586.974C224.887 587.631 224.461 588.385 224.152 589.236C223.843 590.087 223.63 590.957 223.514 591.846H236.564ZM263.377 564.992C265.001 564.992 266.431 565.147 267.669 565.456C268.906 565.727 269.834 565.978 270.453 566.21L269.119 572.01C268.461 571.701 267.688 571.449 266.799 571.256C265.948 571.063 265.02 570.966 264.015 570.966C262.893 570.966 261.946 571.14 261.173 571.488C260.399 571.797 259.781 572.242 259.317 572.822C258.853 573.402 258.524 574.117 258.331 574.968C258.137 575.78 258.041 576.669 258.041 577.636V579.666H269.061V585.524H258.041V610H251.023V577.52C251.023 573.615 252.047 570.56 254.097 568.356C256.146 566.113 259.239 564.992 263.377 564.992ZM284.917 605.07C287.083 605.07 288.726 604.954 289.847 604.722V596.95C289.461 596.834 288.9 596.718 288.165 596.602C287.431 596.486 286.619 596.428 285.729 596.428C284.956 596.428 284.163 596.486 283.351 596.602C282.578 596.718 281.863 596.931 281.205 597.24C280.587 597.549 280.084 597.994 279.697 598.574C279.311 599.115 279.117 599.811 279.117 600.662C279.117 602.325 279.639 603.485 280.683 604.142C281.727 604.761 283.139 605.07 284.917 605.07ZM284.337 578.912C286.657 578.912 288.61 579.202 290.195 579.782C291.781 580.362 293.037 581.174 293.965 582.218C294.932 583.262 295.609 584.538 295.995 586.046C296.421 587.515 296.633 589.139 296.633 590.918V609.304C295.551 609.536 293.907 609.807 291.703 610.116C289.538 610.464 287.083 610.638 284.337 610.638C282.52 610.638 280.857 610.464 279.349 610.116C277.841 609.768 276.546 609.207 275.463 608.434C274.419 607.661 273.588 606.655 272.969 605.418C272.389 604.181 272.099 602.653 272.099 600.836C272.099 599.096 272.428 597.627 273.085 596.428C273.781 595.229 274.709 594.263 275.869 593.528C277.029 592.755 278.363 592.213 279.871 591.904C281.418 591.556 283.023 591.382 284.685 591.382C285.459 591.382 286.271 591.44 287.121 591.556C287.972 591.633 288.881 591.788 289.847 592.02V590.86C289.847 590.048 289.751 589.275 289.557 588.54C289.364 587.805 289.016 587.167 288.513 586.626C288.049 586.046 287.411 585.601 286.599 585.292C285.826 584.983 284.84 584.828 283.641 584.828C282.017 584.828 280.529 584.944 279.175 585.176C277.822 585.408 276.72 585.679 275.869 585.988L274.999 580.304C275.889 579.995 277.184 579.685 278.885 579.376C280.587 579.067 282.404 578.912 284.337 578.912ZM330.11 609.072C328.756 609.42 326.997 609.768 324.832 610.116C322.666 610.503 320.288 610.696 317.698 610.696C315.262 610.696 313.212 610.348 311.55 609.652C309.926 608.956 308.611 607.989 307.606 606.752C306.639 605.515 305.943 604.045 305.518 602.344C305.092 600.604 304.88 598.709 304.88 596.66V579.666H311.898V595.558C311.898 598.806 312.362 601.126 313.29 602.518C314.256 603.91 315.919 604.606 318.278 604.606C319.128 604.606 320.018 604.567 320.946 604.49C321.912 604.413 322.628 604.316 323.092 604.2V579.666H330.11V609.072ZM349.598 610.58C347.51 610.541 345.77 610.309 344.378 609.884C343.025 609.459 341.942 608.859 341.13 608.086C340.318 607.274 339.738 606.288 339.39 605.128C339.081 603.929 338.926 602.576 338.926 601.068V566.152L345.944 564.992V599.734C345.944 600.585 346.002 601.3 346.118 601.88C346.273 602.46 346.524 602.963 346.872 603.388C347.22 603.775 347.684 604.084 348.264 604.316C348.883 604.509 349.656 604.664 350.584 604.78L349.598 610.58ZM355.913 571.662L362.931 570.502V579.666H373.719V585.524H362.931V597.878C362.931 600.314 363.318 602.054 364.091 603.098C364.864 604.142 366.179 604.664 368.035 604.664C369.311 604.664 370.432 604.529 371.399 604.258C372.404 603.987 373.197 603.736 373.777 603.504L374.937 609.072C374.125 609.42 373.062 609.768 371.747 610.116C370.432 610.503 368.886 610.696 367.107 610.696C364.942 610.696 363.124 610.406 361.655 609.826C360.224 609.246 359.084 608.415 358.233 607.332C357.382 606.211 356.783 604.877 356.435 603.33C356.087 601.745 355.913 599.947 355.913 597.936V571.662ZM390.908 590.222H406.51V596.66H390.908V590.222ZM438.226 564.992C439.85 564.992 441.281 565.147 442.518 565.456C443.756 565.727 444.684 565.978 445.302 566.21L443.968 572.01C443.311 571.701 442.538 571.449 441.648 571.256C440.798 571.063 439.87 570.966 438.864 570.966C437.743 570.966 436.796 571.14 436.022 571.488C435.249 571.797 434.63 572.242 434.166 572.822C433.702 573.402 433.374 574.117 433.18 574.968C432.987 575.78 432.89 576.669 432.89 577.636V579.666H443.91V585.524H432.89V610H425.872V577.52C425.872 573.615 426.897 570.56 428.946 568.356C430.996 566.113 434.089 564.992 438.226 564.992ZM459.767 605.07C461.932 605.07 463.576 604.954 464.697 604.722V596.95C464.31 596.834 463.75 596.718 463.015 596.602C462.28 596.486 461.468 596.428 460.579 596.428C459.806 596.428 459.013 596.486 458.201 596.602C457.428 596.718 456.712 596.931 456.055 597.24C455.436 597.549 454.934 597.994 454.547 598.574C454.16 599.115 453.967 599.811 453.967 600.662C453.967 602.325 454.489 603.485 455.533 604.142C456.577 604.761 457.988 605.07 459.767 605.07ZM459.187 578.912C461.507 578.912 463.46 579.202 465.045 579.782C466.63 580.362 467.887 581.174 468.815 582.218C469.782 583.262 470.458 584.538 470.845 586.046C471.27 587.515 471.483 589.139 471.483 590.918V609.304C470.4 609.536 468.757 609.807 466.553 610.116C464.388 610.464 461.932 610.638 459.187 610.638C457.37 610.638 455.707 610.464 454.199 610.116C452.691 609.768 451.396 609.207 450.313 608.434C449.269 607.661 448.438 606.655 447.819 605.418C447.239 604.181 446.949 602.653 446.949 600.836C446.949 599.096 447.278 597.627 447.935 596.428C448.631 595.229 449.559 594.263 450.719 593.528C451.879 592.755 453.213 592.213 454.721 591.904C456.268 591.556 457.872 591.382 459.535 591.382C460.308 591.382 461.12 591.44 461.971 591.556C462.822 591.633 463.73 591.788 464.697 592.02V590.86C464.697 590.048 464.6 589.275 464.407 588.54C464.214 587.805 463.866 587.167 463.363 586.626C462.899 586.046 462.261 585.601 461.449 585.292C460.676 584.983 459.69 584.828 458.491 584.828C456.867 584.828 455.378 584.944 454.025 585.176C452.672 585.408 451.57 585.679 450.719 585.988L449.849 580.304C450.738 579.995 452.034 579.685 453.735 579.376C455.436 579.067 457.254 578.912 459.187 578.912ZM490.633 610.58C488.545 610.541 486.805 610.309 485.413 609.884C484.06 609.459 482.977 608.859 482.165 608.086C481.353 607.274 480.773 606.288 480.425 605.128C480.116 603.929 479.961 602.576 479.961 601.068V566.152L486.979 564.992V599.734C486.979 600.585 487.037 601.3 487.153 601.88C487.308 602.46 487.559 602.963 487.907 603.388C488.255 603.775 488.719 604.084 489.299 604.316C489.918 604.509 490.691 604.664 491.619 604.78L490.633 610.58ZM507.852 610.58C505.764 610.541 504.024 610.309 502.632 609.884C501.279 609.459 500.196 608.859 499.384 608.086C498.572 607.274 497.992 606.288 497.644 605.128C497.335 603.929 497.18 602.576 497.18 601.068V566.152L504.198 564.992V599.734C504.198 600.585 504.256 601.3 504.372 601.88C504.527 602.46 504.778 602.963 505.126 603.388C505.474 603.775 505.938 604.084 506.518 604.316C507.137 604.509 507.91 604.664 508.838 604.78L507.852 610.58ZM522.113 604.954C523.969 604.954 525.322 604.741 526.173 604.316C527.023 603.852 527.449 603.079 527.449 601.996C527.449 600.991 526.985 600.159 526.057 599.502C525.167 598.845 523.679 598.129 521.591 597.356C520.315 596.892 519.135 596.409 518.053 595.906C517.009 595.365 516.1 594.746 515.327 594.05C514.553 593.354 513.935 592.523 513.471 591.556C513.045 590.551 512.833 589.333 512.833 587.902C512.833 585.118 513.857 582.933 515.907 581.348C517.956 579.724 520.74 578.912 524.259 578.912C526.037 578.912 527.739 579.086 529.363 579.434C530.987 579.743 532.205 580.053 533.017 580.362L531.741 586.046C530.967 585.698 529.981 585.389 528.783 585.118C527.584 584.809 526.192 584.654 524.607 584.654C523.176 584.654 522.016 584.905 521.127 585.408C520.237 585.872 519.793 586.607 519.793 587.612C519.793 588.115 519.87 588.559 520.025 588.946C520.218 589.333 520.527 589.7 520.953 590.048C521.378 590.357 521.939 590.686 522.635 591.034C523.331 591.343 524.181 591.672 525.187 592.02C526.849 592.639 528.261 593.257 529.421 593.876C530.581 594.456 531.528 595.133 532.263 595.906C533.036 596.641 533.597 597.491 533.945 598.458C534.293 599.425 534.467 600.585 534.467 601.938C534.467 604.838 533.384 607.042 531.219 608.55C529.092 610.019 526.037 610.754 522.055 610.754C519.387 610.754 517.241 610.522 515.617 610.058C513.993 609.633 512.852 609.285 512.195 609.014L513.413 603.156C514.457 603.581 515.694 603.987 517.125 604.374C518.594 604.761 520.257 604.954 522.113 604.954ZM574.686 594.746C574.686 591.769 574.086 589.41 572.888 587.67C571.728 585.93 569.872 585.06 567.32 585.06C566.16 585.06 565.058 585.234 564.014 585.582C563.008 585.93 562.196 586.317 561.578 586.742V604.2C562.08 604.316 562.718 604.432 563.492 604.548C564.304 604.625 565.27 604.664 566.392 604.664C568.982 604.664 571.012 603.794 572.482 602.054C573.951 600.275 574.686 597.839 574.686 594.746ZM581.878 594.862C581.878 597.298 581.51 599.502 580.776 601.474C580.08 603.407 579.055 605.07 577.702 606.462C576.387 607.854 574.782 608.917 572.888 609.652C570.993 610.387 568.847 610.754 566.45 610.754C564.13 610.754 561.906 610.58 559.78 610.232C557.692 609.884 555.952 609.497 554.56 609.072V566.152L561.578 564.992V580.71C562.39 580.285 563.376 579.898 564.536 579.55C565.734 579.202 567.049 579.028 568.48 579.028C570.606 579.028 572.501 579.415 574.164 580.188C575.865 580.923 577.276 581.986 578.398 583.378C579.519 584.77 580.37 586.452 580.95 588.424C581.568 590.357 581.878 592.503 581.878 594.862ZM599.783 605.07C601.948 605.07 603.591 604.954 604.713 604.722V596.95C604.326 596.834 603.765 596.718 603.031 596.602C602.296 596.486 601.484 596.428 600.595 596.428C599.821 596.428 599.029 596.486 598.217 596.602C597.443 596.718 596.728 596.931 596.071 597.24C595.452 597.549 594.949 597.994 594.563 598.574C594.176 599.115 593.983 599.811 593.983 600.662C593.983 602.325 594.505 603.485 595.549 604.142C596.593 604.761 598.004 605.07 599.783 605.07ZM599.203 578.912C601.523 578.912 603.475 579.202 605.061 579.782C606.646 580.362 607.903 581.174 608.831 582.218C609.797 583.262 610.474 584.538 610.861 586.046C611.286 587.515 611.499 589.139 611.499 590.918V609.304C610.416 609.536 608.773 609.807 606.569 610.116C604.403 610.464 601.948 610.638 599.203 610.638C597.385 610.638 595.723 610.464 594.215 610.116C592.707 609.768 591.411 609.207 590.329 608.434C589.285 607.661 588.453 606.655 587.835 605.418C587.255 604.181 586.965 602.653 586.965 600.836C586.965 599.096 587.293 597.627 587.951 596.428C588.647 595.229 589.575 594.263 590.735 593.528C591.895 592.755 593.229 592.213 594.737 591.904C596.283 591.556 597.888 591.382 599.551 591.382C600.324 591.382 601.136 591.44 601.987 591.556C602.837 591.633 603.746 591.788 604.713 592.02V590.86C604.713 590.048 604.616 589.275 604.423 588.54C604.229 587.805 603.881 587.167 603.379 586.626C602.915 586.046 602.277 585.601 601.465 585.292C600.691 584.983 599.705 584.828 598.507 584.828C596.883 584.828 595.394 584.944 594.041 585.176C592.687 585.408 591.585 585.679 590.735 585.988L589.865 580.304C590.754 579.995 592.049 579.685 593.751 579.376C595.452 579.067 597.269 578.912 599.203 578.912ZM618.411 594.862C618.411 592.619 618.759 590.531 619.455 588.598C620.151 586.626 621.137 584.925 622.413 583.494C623.728 582.063 625.313 580.942 627.169 580.13C629.025 579.318 631.113 578.912 633.433 578.912C636.294 578.912 639.001 579.434 641.553 580.478L640.045 586.22C639.233 585.872 638.305 585.582 637.261 585.35C636.256 585.118 635.173 585.002 634.013 585.002C631.268 585.002 629.18 585.872 627.749 587.612C626.318 589.313 625.603 591.73 625.603 594.862C625.603 597.878 626.28 600.275 627.633 602.054C628.986 603.794 631.268 604.664 634.477 604.664C635.676 604.664 636.855 604.548 638.015 604.316C639.175 604.084 640.18 603.794 641.031 603.446L642.017 609.246C641.244 609.633 640.064 609.981 638.479 610.29C636.932 610.599 635.328 610.754 633.665 610.754C631.074 610.754 628.812 610.367 626.879 609.594C624.984 608.782 623.399 607.68 622.123 606.288C620.886 604.857 619.958 603.175 619.339 601.242C618.72 599.27 618.411 597.143 618.411 594.862ZM654.468 591.498C655.358 590.57 656.305 589.584 657.31 588.54C658.316 587.457 659.302 586.394 660.268 585.35C661.235 584.267 662.144 583.243 662.994 582.276C663.884 581.271 664.638 580.401 665.256 579.666H673.55C671.617 581.831 669.568 584.074 667.402 586.394C665.276 588.714 663.13 590.976 660.964 593.18C662.124 594.147 663.342 595.326 664.618 596.718C665.894 598.071 667.132 599.521 668.33 601.068C669.529 602.615 670.65 604.161 671.694 605.708C672.738 607.255 673.608 608.685 674.304 610H666.184C665.488 608.801 664.676 607.545 663.748 606.23C662.859 604.915 661.892 603.639 660.848 602.402C659.804 601.165 658.741 600.005 657.658 598.922C656.576 597.801 655.512 596.853 654.468 596.08V610H647.45V566.152L654.468 564.992V591.498ZM692.585 571.662L699.603 570.502V579.666H710.391V585.524H699.603V597.878C699.603 600.314 699.989 602.054 700.763 603.098C701.536 604.142 702.851 604.664 704.707 604.664C705.983 604.664 707.104 604.529 708.071 604.258C709.076 603.987 709.869 603.736 710.449 603.504L711.609 609.072C710.797 609.42 709.733 609.768 708.419 610.116C707.104 610.503 705.557 610.696 703.779 610.696C701.613 610.696 699.796 610.406 698.327 609.826C696.896 609.246 695.755 608.415 694.905 607.332C694.054 606.211 693.455 604.877 693.107 603.33C692.759 601.745 692.585 599.947 692.585 597.936V571.662ZM743.929 594.804C743.929 597.201 743.581 599.386 742.885 601.358C742.189 603.33 741.203 605.012 739.927 606.404C738.651 607.796 737.105 608.879 735.287 609.652C733.509 610.425 731.537 610.812 729.371 610.812C727.206 610.812 725.234 610.425 723.455 609.652C721.677 608.879 720.149 607.796 718.873 606.404C717.597 605.012 716.592 603.33 715.857 601.358C715.161 599.386 714.813 597.201 714.813 594.804C714.813 592.407 715.161 590.241 715.857 588.308C716.592 586.336 717.597 584.654 718.873 583.262C720.188 581.87 721.735 580.807 723.513 580.072C725.292 579.299 727.245 578.912 729.371 578.912C731.498 578.912 733.451 579.299 735.229 580.072C737.047 580.807 738.593 581.87 739.869 583.262C741.145 584.654 742.131 586.336 742.827 588.308C743.562 590.241 743.929 592.407 743.929 594.804ZM736.737 594.804C736.737 591.788 736.08 589.41 734.765 587.67C733.489 585.891 731.691 585.002 729.371 585.002C727.051 585.002 725.234 585.891 723.919 587.67C722.643 589.41 722.005 591.788 722.005 594.804C722.005 597.859 722.643 600.275 723.919 602.054C725.234 603.833 727.051 604.722 729.371 604.722C731.691 604.722 733.489 603.833 734.765 602.054C736.08 600.275 736.737 597.859 736.737 594.804ZM777.166 564.992C778.636 564.992 779.873 565.108 780.878 565.34C781.922 565.572 782.734 565.804 783.314 566.036L782.212 571.72C781.671 571.527 781.014 571.353 780.24 571.198C779.506 571.043 778.694 570.966 777.804 570.966C775.484 570.966 773.88 571.585 772.99 572.822C772.14 574.059 771.714 575.664 771.714 577.636V579.666H782.85V585.524H771.714V610H764.696V577.52C764.696 573.576 765.721 570.502 767.77 568.298C769.82 566.094 772.952 564.992 777.166 564.992ZM798.8 610.58C796.712 610.541 794.972 610.309 793.58 609.884C792.227 609.459 791.144 608.859 790.332 608.086C789.52 607.274 788.94 606.288 788.592 605.128C788.283 603.929 788.128 602.576 788.128 601.068V566.152L795.146 564.992V599.734C795.146 600.585 795.204 601.3 795.32 601.88C795.475 602.46 795.726 602.963 796.074 603.388C796.422 603.775 796.886 604.084 797.466 604.316C798.085 604.509 798.858 604.664 799.786 604.78L798.8 610.58ZM803.796 594.978C803.796 592.31 804.182 589.971 804.956 587.96C805.768 585.949 806.831 584.287 808.146 582.972C809.46 581.619 810.968 580.613 812.67 579.956C814.371 579.26 816.111 578.912 817.89 578.912C822.066 578.912 825.314 580.207 827.634 582.798C829.992 585.389 831.172 589.255 831.172 594.398C831.172 594.785 831.152 595.229 831.114 595.732C831.114 596.196 831.094 596.621 831.056 597.008H811.046C811.239 599.444 812.09 601.339 813.598 602.692C815.144 604.007 817.368 604.664 820.268 604.664C821.969 604.664 823.516 604.509 824.908 604.2C826.338 603.891 827.46 603.562 828.272 603.214L829.2 608.956C828.813 609.149 828.272 609.362 827.576 609.594C826.918 609.787 826.145 609.961 825.256 610.116C824.405 610.309 823.477 610.464 822.472 610.58C821.466 610.696 820.442 610.754 819.398 610.754C816.73 610.754 814.41 610.367 812.438 609.594C810.466 608.782 808.842 607.68 807.566 606.288C806.29 604.857 805.342 603.195 804.724 601.3C804.105 599.367 803.796 597.259 803.796 594.978ZM824.154 591.846C824.154 590.879 824.018 589.971 823.748 589.12C823.477 588.231 823.071 587.477 822.53 586.858C822.027 586.201 821.389 585.698 820.616 585.35C819.881 584.963 818.992 584.77 817.948 584.77C816.865 584.77 815.918 584.983 815.106 585.408C814.294 585.795 813.598 586.317 813.018 586.974C812.476 587.631 812.051 588.385 811.742 589.236C811.432 590.087 811.22 590.957 811.104 591.846H824.154ZM849.516 589.584L855.954 579.666H863.32L853.344 593.992C855.432 596.699 857.424 599.444 859.318 602.228C861.252 604.973 862.837 607.564 864.074 610H856.476C856.128 609.265 855.664 608.434 855.084 607.506C854.543 606.539 853.944 605.553 853.286 604.548C852.668 603.504 852.01 602.479 851.314 601.474C850.618 600.469 849.942 599.521 849.284 598.632C847.931 600.372 846.597 602.305 845.282 604.432C844.006 606.52 842.943 608.376 842.092 610H834.9C835.48 608.84 836.176 607.603 836.988 606.288C837.8 604.973 838.67 603.639 839.598 602.286C840.526 600.894 841.474 599.521 842.44 598.168C843.446 596.776 844.432 595.461 845.398 594.224L835.364 579.666H843.078L849.516 589.584ZM890.621 610C888.687 606.017 886.696 601.455 884.647 596.312C882.636 591.131 880.799 585.582 879.137 579.666H886.619C887.044 581.367 887.527 583.204 888.069 585.176C888.649 587.109 889.248 589.062 889.867 591.034C890.524 592.967 891.181 594.862 891.839 596.718C892.535 598.535 893.173 600.179 893.753 601.648C894.333 600.179 894.951 598.535 895.609 596.718C896.266 594.862 896.904 592.967 897.523 591.034C898.18 589.062 898.799 587.109 899.379 585.176C899.959 583.204 900.461 581.367 900.887 579.666H908.137C906.474 585.582 904.618 591.131 902.569 596.312C900.558 601.455 898.586 606.017 896.653 610H890.621ZM924.05 605.07C926.215 605.07 927.859 604.954 928.98 604.722V596.95C928.593 596.834 928.033 596.718 927.298 596.602C926.563 596.486 925.751 596.428 924.862 596.428C924.089 596.428 923.296 596.486 922.484 596.602C921.711 596.718 920.995 596.931 920.338 597.24C919.719 597.549 919.217 597.994 918.83 598.574C918.443 599.115 918.25 599.811 918.25 600.662C918.25 602.325 918.772 603.485 919.816 604.142C920.86 604.761 922.271 605.07 924.05 605.07ZM923.47 578.912C925.79 578.912 927.743 579.202 929.328 579.782C930.913 580.362 932.17 581.174 933.098 582.218C934.065 583.262 934.741 584.538 935.128 586.046C935.553 587.515 935.766 589.139 935.766 590.918V609.304C934.683 609.536 933.04 609.807 930.836 610.116C928.671 610.464 926.215 610.638 923.47 610.638C921.653 610.638 919.99 610.464 918.482 610.116C916.974 609.768 915.679 609.207 914.596 608.434C913.552 607.661 912.721 606.655 912.102 605.418C911.522 604.181 911.232 602.653 911.232 600.836C911.232 599.096 911.561 597.627 912.218 596.428C912.914 595.229 913.842 594.263 915.002 593.528C916.162 592.755 917.496 592.213 919.004 591.904C920.551 591.556 922.155 591.382 923.818 591.382C924.591 591.382 925.403 591.44 926.254 591.556C927.105 591.633 928.013 591.788 928.98 592.02V590.86C928.98 590.048 928.883 589.275 928.69 588.54C928.497 587.805 928.149 587.167 927.646 586.626C927.182 586.046 926.544 585.601 925.732 585.292C924.959 584.983 923.973 584.828 922.774 584.828C921.15 584.828 919.661 584.944 918.308 585.176C916.955 585.408 915.853 585.679 915.002 585.988L914.132 580.304C915.021 579.995 916.317 579.685 918.018 579.376C919.719 579.067 921.537 578.912 923.47 578.912ZM954.917 610.58C952.829 610.541 951.089 610.309 949.697 609.884C948.343 609.459 947.261 608.859 946.449 608.086C945.637 607.274 945.057 606.288 944.709 605.128C944.399 603.929 944.245 602.576 944.245 601.068V566.152L951.263 564.992V599.734C951.263 600.585 951.321 601.3 951.437 601.88C951.591 602.46 951.843 602.963 952.191 603.388C952.539 603.775 953.003 604.084 953.583 604.316C954.201 604.509 954.975 604.664 955.903 604.78L954.917 610.58ZM986.461 609.072C985.108 609.42 983.349 609.768 981.183 610.116C979.018 610.503 976.64 610.696 974.049 610.696C971.613 610.696 969.564 610.348 967.901 609.652C966.277 608.956 964.963 607.989 963.957 606.752C962.991 605.515 962.295 604.045 961.869 602.344C961.444 600.604 961.231 598.709 961.231 596.66V579.666H968.249V595.558C968.249 598.806 968.713 601.126 969.641 602.518C970.608 603.91 972.271 604.606 974.629 604.606C975.48 604.606 976.369 604.567 977.297 604.49C978.264 604.413 978.979 604.316 979.443 604.2V579.666H986.461V609.072ZM993.712 594.978C993.712 592.31 994.098 589.971 994.872 587.96C995.684 585.949 996.747 584.287 998.062 582.972C999.376 581.619 1000.88 580.613 1002.59 579.956C1004.29 579.26 1006.03 578.912 1007.81 578.912C1011.98 578.912 1015.23 580.207 1017.55 582.798C1019.91 585.389 1021.09 589.255 1021.09 594.398C1021.09 594.785 1021.07 595.229 1021.03 595.732C1021.03 596.196 1021.01 596.621 1020.97 597.008H1000.96C1001.16 599.444 1002.01 601.339 1003.51 602.692C1005.06 604.007 1007.28 604.664 1010.18 604.664C1011.89 604.664 1013.43 604.509 1014.82 604.2C1016.25 603.891 1017.38 603.562 1018.19 603.214L1019.12 608.956C1018.73 609.149 1018.19 609.362 1017.49 609.594C1016.83 609.787 1016.06 609.961 1015.17 610.116C1014.32 610.309 1013.39 610.464 1012.39 610.58C1011.38 610.696 1010.36 610.754 1009.31 610.754C1006.65 610.754 1004.33 610.367 1002.35 609.594C1000.38 608.782 998.758 607.68 997.482 606.288C996.206 604.857 995.258 603.195 994.64 601.3C994.021 599.367 993.712 597.259 993.712 594.978ZM1014.07 591.846C1014.07 590.879 1013.93 589.971 1013.66 589.12C1013.39 588.231 1012.99 587.477 1012.45 586.858C1011.94 586.201 1011.31 585.698 1010.53 585.35C1009.8 584.963 1008.91 584.77 1007.86 584.77C1006.78 584.77 1005.83 584.983 1005.02 585.408C1004.21 585.795 1003.51 586.317 1002.93 586.974C1002.39 587.631 1001.97 588.385 1001.66 589.236C1001.35 590.087 1001.14 590.957 1001.02 591.846H1014.07ZM1032.41 592.658C1032.41 587.902 1031.7 583.455 1030.27 579.318C1028.84 575.142 1026.85 571.314 1024.29 567.834L1029.22 564.586C1032.36 568.337 1034.83 572.609 1036.65 577.404C1038.47 582.16 1039.37 587.245 1039.37 592.658C1039.37 598.071 1038.47 603.175 1036.65 607.97C1034.83 612.726 1032.36 616.979 1029.22 620.73L1024.29 617.482C1026.85 614.041 1028.84 610.232 1030.27 606.056C1031.7 601.88 1032.41 597.414 1032.41 592.658Z" fill="#60195E"/>
<path d="M2.784 971.862C2.784 969.619 3.132 967.531 3.828 965.598C4.524 963.626 5.51 961.925 6.786 960.494C8.10067 959.063 9.686 957.942 11.542 957.13C13.398 956.318 15.486 955.912 17.806 955.912C20.6673 955.912 23.374 956.434 25.926 957.478L24.418 963.22C23.606 962.872 22.678 962.582 21.634 962.35C20.6287 962.118 19.546 962.002 18.386 962.002C15.6407 962.002 13.5527 962.872 12.122 964.612C10.6913 966.313 9.976 968.73 9.976 971.862C9.976 974.878 10.6527 977.275 12.006 979.054C13.3593 980.794 15.6407 981.664 18.85 981.664C20.0487 981.664 21.228 981.548 22.388 981.316C23.548 981.084 24.5533 980.794 25.404 980.446L26.39 986.246C25.6167 986.633 24.4373 986.981 22.852 987.29C21.3053 987.599 19.7007 987.754 18.038 987.754C15.4473 987.754 13.1853 987.367 11.252 986.594C9.35733 985.782 7.772 984.68 6.496 983.288C5.25867 981.857 4.33067 980.175 3.712 978.242C3.09333 976.27 2.784 974.143 2.784 971.862ZM38.6674 969.658C38.6674 974.414 39.3828 978.88 40.8134 983.056C42.2441 987.232 44.2354 991.041 46.7874 994.482L41.8574 997.73C38.7254 993.979 36.2508 989.726 34.4334 984.97C32.6161 980.175 31.7074 975.071 31.7074 969.658C31.7074 964.245 32.6161 959.16 34.4334 954.404C36.2508 949.609 38.7254 945.337 41.8574 941.586L46.7874 944.834C44.2354 948.314 42.2441 952.142 40.8134 956.318C39.3828 960.455 38.6674 964.902 38.6674 969.658ZM52.2317 955.158C54.4744 954.269 56.7171 953.128 58.9597 951.736C61.2411 950.344 63.2517 948.701 64.9917 946.806H69.9217V987H62.9037V956.202C61.8597 957.014 60.5451 957.807 58.9597 958.58C57.3744 959.353 55.8471 959.991 54.3777 960.494L52.2317 955.158ZM88.3286 969.658C88.3286 964.902 87.6132 960.455 86.1826 956.318C84.7519 952.142 82.7606 948.314 80.2086 944.834L85.1386 941.586C88.2706 945.337 90.7452 949.609 92.5626 954.404C94.3799 959.16 95.2886 964.245 95.2886 969.658C95.2886 975.071 94.3799 980.175 92.5626 984.97C90.7452 989.726 88.2706 993.979 85.1386 997.73L80.2086 994.482C82.7606 991.041 84.7519 987.232 86.1826 983.056C87.6132 978.88 88.3286 974.414 88.3286 969.658Z" fill="#60195E"/>
<path d="M1302.78 594.862C1302.78 592.619 1303.13 590.531 1303.83 588.598C1304.52 586.626 1305.51 584.925 1306.79 583.494C1308.1 582.063 1309.69 580.942 1311.54 580.13C1313.4 579.318 1315.49 578.912 1317.81 578.912C1320.67 578.912 1323.37 579.434 1325.93 580.478L1324.42 586.22C1323.61 585.872 1322.68 585.582 1321.63 585.35C1320.63 585.118 1319.55 585.002 1318.39 585.002C1315.64 585.002 1313.55 585.872 1312.12 587.612C1310.69 589.313 1309.98 591.73 1309.98 594.862C1309.98 597.878 1310.65 600.275 1312.01 602.054C1313.36 603.794 1315.64 604.664 1318.85 604.664C1320.05 604.664 1321.23 604.548 1322.39 604.316C1323.55 604.084 1324.55 603.794 1325.4 603.446L1326.39 609.246C1325.62 609.633 1324.44 609.981 1322.85 610.29C1321.31 610.599 1319.7 610.754 1318.04 610.754C1315.45 610.754 1313.19 610.367 1311.25 609.594C1309.36 608.782 1307.77 607.68 1306.5 606.288C1305.26 604.857 1304.33 603.175 1303.71 601.242C1303.09 599.27 1302.78 597.143 1302.78 594.862ZM1338.67 592.658C1338.67 597.414 1339.38 601.88 1340.81 606.056C1342.24 610.232 1344.24 614.041 1346.79 617.482L1341.86 620.73C1338.73 616.979 1336.25 612.726 1334.43 607.97C1332.62 603.175 1331.71 598.071 1331.71 592.658C1331.71 587.245 1332.62 582.16 1334.43 577.404C1336.25 572.609 1338.73 568.337 1341.86 564.586L1346.79 567.834C1344.24 571.314 1342.24 575.142 1340.81 579.318C1339.38 583.455 1338.67 587.902 1338.67 592.658ZM1360.7 610.87C1359.66 610.87 1358.57 610.793 1357.45 610.638C1356.37 610.522 1355.33 610.348 1354.32 610.116C1353.35 609.923 1352.46 609.71 1351.65 609.478C1350.84 609.207 1350.22 608.956 1349.8 608.724L1351.19 602.75C1352 603.137 1353.18 603.581 1354.73 604.084C1356.27 604.548 1358.19 604.78 1360.47 604.78C1363.52 604.78 1365.73 604.2 1367.08 603.04C1368.43 601.841 1369.11 600.256 1369.11 598.284C1369.11 597.008 1368.84 595.945 1368.3 595.094C1367.8 594.243 1367.08 593.567 1366.15 593.064C1365.26 592.523 1364.22 592.155 1363.02 591.962C1361.86 591.73 1360.62 591.614 1359.31 591.614H1356.93V585.93H1359.83C1360.72 585.93 1361.61 585.853 1362.5 585.698C1363.43 585.505 1364.26 585.195 1364.99 584.77C1365.73 584.306 1366.33 583.707 1366.79 582.972C1367.25 582.237 1367.49 581.29 1367.49 580.13C1367.49 579.202 1367.31 578.409 1366.96 577.752C1366.62 577.095 1366.15 576.553 1365.57 576.128C1365.03 575.703 1364.39 575.393 1363.66 575.2C1362.92 575.007 1362.15 574.91 1361.34 574.91C1359.6 574.91 1358.05 575.181 1356.7 575.722C1355.34 576.225 1354.15 576.805 1353.1 577.462L1350.55 572.242C1351.09 571.894 1351.75 571.527 1352.52 571.14C1353.3 570.753 1354.15 570.386 1355.07 570.038C1356.04 569.69 1357.07 569.419 1358.15 569.226C1359.23 568.994 1360.37 568.878 1361.57 568.878C1363.81 568.878 1365.75 569.149 1367.37 569.69C1368.99 570.231 1370.33 571.005 1371.37 572.01C1372.45 572.977 1373.25 574.137 1373.75 575.49C1374.29 576.805 1374.56 578.255 1374.56 579.84C1374.56 581.696 1374.04 583.359 1373 584.828C1371.99 586.297 1370.68 587.419 1369.05 588.192C1371.14 588.927 1372.86 590.145 1374.21 591.846C1375.61 593.547 1376.3 595.732 1376.3 598.4C1376.3 600.179 1375.99 601.841 1375.37 603.388C1374.76 604.896 1373.81 606.211 1372.53 607.332C1371.26 608.415 1369.63 609.285 1367.66 609.942C1365.73 610.561 1363.41 610.87 1360.7 610.87ZM1391.69 602.286C1391.77 602.943 1391.81 603.427 1391.81 603.736C1391.81 604.045 1391.81 604.355 1391.81 604.664C1391.81 607.061 1391.42 609.536 1390.65 612.088C1389.91 614.64 1388.87 617.057 1387.52 619.338L1382.01 617.83C1382.93 615.587 1383.55 613.383 1383.86 611.218C1384.21 609.091 1384.38 607.216 1384.38 605.592C1384.38 605.128 1384.37 604.548 1384.33 603.852C1384.33 603.156 1384.31 602.634 1384.27 602.286H1391.69ZM1414.25 578.158C1416.5 577.269 1418.74 576.128 1420.98 574.736C1423.26 573.344 1425.27 571.701 1427.01 569.806H1431.94V610H1424.93V579.202C1423.88 580.014 1422.57 580.807 1420.98 581.58C1419.4 582.353 1417.87 582.991 1416.4 583.494L1414.25 578.158ZM1453.71 602.286C1453.79 602.943 1453.83 603.427 1453.83 603.736C1453.83 604.045 1453.83 604.355 1453.83 604.664C1453.83 607.061 1453.44 609.536 1452.67 612.088C1451.94 614.64 1450.89 617.057 1449.54 619.338L1444.03 617.83C1444.96 615.587 1445.57 613.383 1445.88 611.218C1446.23 609.091 1446.41 607.216 1446.41 605.592C1446.41 605.128 1446.39 604.548 1446.35 603.852C1446.35 603.156 1446.33 602.634 1446.29 602.286H1453.71ZM1484.74 610.87C1483.7 610.87 1482.62 610.793 1481.49 610.638C1480.41 610.522 1479.37 610.348 1478.36 610.116C1477.4 609.923 1476.51 609.71 1475.69 609.478C1474.88 609.207 1474.26 608.956 1473.84 608.724L1475.23 602.75C1476.04 603.137 1477.22 603.581 1478.77 604.084C1480.32 604.548 1482.23 604.78 1484.51 604.78C1487.57 604.78 1489.77 604.2 1491.12 603.04C1492.48 601.841 1493.15 600.256 1493.15 598.284C1493.15 597.008 1492.88 595.945 1492.34 595.094C1491.84 594.243 1491.12 593.567 1490.19 593.064C1489.31 592.523 1488.26 592.155 1487.06 591.962C1485.9 591.73 1484.67 591.614 1483.35 591.614H1480.97V585.93H1483.87C1484.76 585.93 1485.65 585.853 1486.54 585.698C1487.47 585.505 1488.3 585.195 1489.03 584.77C1489.77 584.306 1490.37 583.707 1490.83 582.972C1491.3 582.237 1491.53 581.29 1491.53 580.13C1491.53 579.202 1491.35 578.409 1491.01 577.752C1490.66 577.095 1490.19 576.553 1489.61 576.128C1489.07 575.703 1488.44 575.393 1487.7 575.2C1486.97 575.007 1486.19 574.91 1485.38 574.91C1483.64 574.91 1482.09 575.181 1480.74 575.722C1479.39 576.225 1478.19 576.805 1477.14 577.462L1474.59 572.242C1475.13 571.894 1475.79 571.527 1476.56 571.14C1477.34 570.753 1478.19 570.386 1479.12 570.038C1480.08 569.69 1481.11 569.419 1482.19 569.226C1483.27 568.994 1484.41 568.878 1485.61 568.878C1487.86 568.878 1489.79 569.149 1491.41 569.69C1493.04 570.231 1494.37 571.005 1495.41 572.01C1496.5 572.977 1497.29 574.137 1497.79 575.49C1498.33 576.805 1498.6 578.255 1498.6 579.84C1498.6 581.696 1498.08 583.359 1497.04 584.828C1496.03 586.297 1494.72 587.419 1493.09 588.192C1495.18 588.927 1496.9 590.145 1498.26 591.846C1499.65 593.547 1500.34 595.732 1500.34 598.4C1500.34 600.179 1500.04 601.841 1499.42 603.388C1498.8 604.896 1497.85 606.211 1496.57 607.332C1495.3 608.415 1493.67 609.285 1491.7 609.942C1489.77 610.561 1487.45 610.87 1484.74 610.87ZM1512.37 592.658C1512.37 587.902 1511.66 583.455 1510.23 579.318C1508.79 575.142 1506.8 571.314 1504.25 567.834L1509.18 564.586C1512.31 568.337 1514.79 572.609 1516.61 577.404C1518.42 582.16 1519.33 587.245 1519.33 592.658C1519.33 598.071 1518.42 603.175 1516.61 607.97C1514.79 612.726 1512.31 616.979 1509.18 620.73L1504.25 617.482C1506.8 614.041 1508.79 610.232 1510.23 606.056C1511.66 601.88 1512.37 597.414 1512.37 592.658Z" fill="#60195E"/>
<path d="M1299.78 971.862C1299.78 969.619 1300.13 967.531 1300.83 965.598C1301.52 963.626 1302.51 961.925 1303.79 960.494C1305.1 959.063 1306.69 957.942 1308.54 957.13C1310.4 956.318 1312.49 955.912 1314.81 955.912C1317.67 955.912 1320.37 956.434 1322.93 957.478L1321.42 963.22C1320.61 962.872 1319.68 962.582 1318.63 962.35C1317.63 962.118 1316.55 962.002 1315.39 962.002C1312.64 962.002 1310.55 962.872 1309.12 964.612C1307.69 966.313 1306.98 968.73 1306.98 971.862C1306.98 974.878 1307.65 977.275 1309.01 979.054C1310.36 980.794 1312.64 981.664 1315.85 981.664C1317.05 981.664 1318.23 981.548 1319.39 981.316C1320.55 981.084 1321.55 980.794 1322.4 980.446L1323.39 986.246C1322.62 986.633 1321.44 986.981 1319.85 987.29C1318.31 987.599 1316.7 987.754 1315.04 987.754C1312.45 987.754 1310.19 987.367 1308.25 986.594C1306.36 985.782 1304.77 984.68 1303.5 983.288C1302.26 981.857 1301.33 980.175 1300.71 978.242C1300.09 976.27 1299.78 974.143 1299.78 971.862ZM1335.67 969.658C1335.67 974.414 1336.38 978.88 1337.81 983.056C1339.24 987.232 1341.24 991.041 1343.79 994.482L1338.86 997.73C1335.73 993.979 1333.25 989.726 1331.43 984.97C1329.62 980.175 1328.71 975.071 1328.71 969.658C1328.71 964.245 1329.62 959.16 1331.43 954.404C1333.25 949.609 1335.73 945.337 1338.86 941.586L1343.79 944.834C1341.24 948.314 1339.24 952.142 1337.81 956.318C1336.38 960.455 1335.67 964.902 1335.67 969.658ZM1371.91 957.246C1371.91 958.638 1371.62 960.011 1371.04 961.364C1370.46 962.679 1369.71 963.974 1368.78 965.25C1367.89 966.487 1366.86 967.705 1365.7 968.904C1364.54 970.064 1363.38 971.205 1362.22 972.326C1361.61 972.906 1360.91 973.602 1360.14 974.414C1359.36 975.226 1358.63 976.038 1357.93 976.85C1357.24 977.662 1356.64 978.455 1356.13 979.228C1355.63 979.963 1355.36 980.581 1355.32 981.084H1373.19V987H1347.61C1347.57 986.691 1347.55 986.323 1347.55 985.898C1347.55 985.434 1347.55 985.086 1347.55 984.854C1347.55 982.998 1347.84 981.297 1348.42 979.75C1349.04 978.165 1349.83 976.695 1350.8 975.342C1351.76 973.989 1352.85 972.713 1354.05 971.514C1355.24 970.315 1356.44 969.136 1357.64 967.976C1358.57 967.087 1359.46 966.217 1360.31 965.366C1361.16 964.515 1361.9 963.684 1362.51 962.872C1363.17 962.021 1363.69 961.171 1364.08 960.32C1364.47 959.431 1364.66 958.522 1364.66 957.594C1364.66 955.583 1364.08 954.153 1362.92 953.302C1361.76 952.451 1360.35 952.026 1358.69 952.026C1357.6 952.026 1356.6 952.181 1355.67 952.49C1354.74 952.799 1353.91 953.167 1353.18 953.592C1352.48 954.017 1351.86 954.462 1351.32 954.926C1350.78 955.351 1350.37 955.699 1350.1 955.97L1346.62 951.04C1348.25 949.493 1350.14 948.256 1352.31 947.328C1354.51 946.361 1356.87 945.878 1359.38 945.878C1363.67 945.878 1366.83 946.903 1368.84 948.952C1370.89 950.963 1371.91 953.727 1371.91 957.246ZM1388.69 979.286C1388.77 979.943 1388.81 980.427 1388.81 980.736C1388.81 981.045 1388.81 981.355 1388.81 981.664C1388.81 984.061 1388.42 986.536 1387.65 989.088C1386.91 991.64 1385.87 994.057 1384.52 996.338L1379.01 994.83C1379.93 992.587 1380.55 990.383 1380.86 988.218C1381.21 986.091 1381.38 984.216 1381.38 982.592C1381.38 982.128 1381.37 981.548 1381.33 980.852C1381.33 980.156 1381.31 979.634 1381.27 979.286H1388.69ZM1411.25 955.158C1413.5 954.269 1415.74 953.128 1417.98 951.736C1420.26 950.344 1422.27 948.701 1424.01 946.806H1428.94V987H1421.93V956.202C1420.88 957.014 1419.57 957.807 1417.98 958.58C1416.4 959.353 1414.87 959.991 1413.4 960.494L1411.25 955.158ZM1447.35 969.658C1447.35 964.902 1446.63 960.455 1445.2 956.318C1443.77 952.142 1441.78 948.314 1439.23 944.834L1444.16 941.586C1447.29 945.337 1449.77 949.609 1451.58 954.404C1453.4 959.16 1454.31 964.245 1454.31 969.658C1454.31 975.071 1453.4 980.175 1451.58 984.97C1449.77 989.726 1447.29 993.979 1444.16 997.73L1439.23 994.482C1441.78 991.041 1443.77 987.232 1445.2 983.056C1446.63 978.88 1447.35 974.414 1447.35 969.658Z" fill="#60195E"/>
<line x1="-5.68248e-07" y1="233.5" x2="1121" y2="233.5" stroke="#60195E" stroke-width="13"/>
<line x1="-5.68248e-07" y1="233.5" x2="1121" y2="233.5" stroke="black" stroke-opacity="0.2" stroke-width="13"/>
</g>
<defs>
<clipPath id="clip0_47_62">
<rect width="2411" height="1435" fill="white"/>
</clipPath>
</defs>
</svg>
