<svg width="1869" height="370" viewBox="0 0 1869 370" fill="none" xmlns="http://www.w3.org/2000/svg">
<path d="M20 93.5H811.016C820.681 93.5 828.516 101.335 828.516 111V350C828.516 359.665 820.681 367.5 811.016 367.5H20C10.335 367.5 2.5 359.665 2.5 350V111C2.5 101.335 10.335 93.5 20 93.5Z" fill="#C4C4C4" stroke="#C4C4C4" stroke-width="5"/>
<line x1="188.753" y1="91" x2="188.753" y2="370" stroke="#60195E" stroke-width="8" stroke-dasharray="16 3"/>
<line x1="4" y1="91" x2="3.99999" y2="370" stroke="#60195E" stroke-width="8" stroke-dasharray="16 3"/>
<line x1="564.992" y1="91" x2="564.992" y2="370" stroke="#60195E" stroke-width="8" stroke-dasharray="16 3"/>
<line x1="826" y1="91" x2="826" y2="370" stroke="#60195E" stroke-width="8" stroke-dasharray="16 3"/>
<line x1="831.016" y1="184.759" x2="-5.61568e-07" y2="184.759" stroke="black" stroke-opacity="0.3" stroke-width="8" stroke-dasharray="16 3"/>
<line x1="831.016" y1="290.626" x2="-5.61568e-07" y2="290.626" stroke="black" stroke-opacity="0.3" stroke-width="8" stroke-dasharray="16 3"/>
<path d="M1057 93.5H1848.02C1857.68 93.5 1865.52 101.335 1865.52 111V350C1865.52 359.665 1857.68 367.5 1848.02 367.5H1057C1047.34 367.5 1039.5 359.665 1039.5 350V111C1039.5 101.335 1047.34 93.5 1057 93.5Z" fill="#C4C4C4" stroke="#C4C4C4" stroke-width="5"/>
<line x1="1225.75" y1="91" x2="1225.75" y2="370" stroke="black" stroke-opacity="0.3" stroke-width="8" stroke-dasharray="16 3"/>
<line x1="1601.99" y1="91" x2="1601.99" y2="370" stroke="black" stroke-opacity="0.3" stroke-width="8" stroke-dasharray="16 3"/>
<line x1="1868.02" y1="184.759" x2="1037" y2="184.759" stroke="#60195E" stroke-width="8" stroke-dasharray="16 3"/>
<line x1="1868.02" y1="95" x2="1037" y2="95" stroke="#60195E" stroke-width="8" stroke-dasharray="16 3"/>
<line x1="1868.02" y1="366" x2="1037" y2="366" stroke="#60195E" stroke-width="8" stroke-dasharray="16 3"/>
<line x1="1868.02" y1="290.626" x2="1037" y2="290.626" stroke="#60195E" stroke-width="8" stroke-dasharray="16 3"/>
<path d="M2.784 39.862C2.784 37.6193 3.132 35.5313 3.828 33.598C4.524 31.626 5.51 29.9247 6.786 28.494C8.10067 27.0633 9.686 25.942 11.542 25.13C13.398 24.318 15.486 23.912 17.806 23.912C20.6673 23.912 23.374 24.434 25.926 25.478L24.418 31.22C23.606 30.872 22.678 30.582 21.634 30.35C20.6287 30.118 19.546 30.002 18.386 30.002C15.6407 30.002 13.5527 30.872 12.122 32.612C10.6913 34.3133 9.976 36.73 9.976 39.862C9.976 42.878 10.6527 45.2753 12.006 47.054C13.3593 48.794 15.6407 49.664 18.85 49.664C20.0487 49.664 21.228 49.548 22.388 49.316C23.548 49.084 24.5533 48.794 25.404 48.446L26.39 54.246C25.6167 54.6327 24.4373 54.9807 22.852 55.29C21.3053 55.5993 19.7007 55.754 18.038 55.754C15.4473 55.754 13.1853 55.3673 11.252 54.594C9.35733 53.782 7.772 52.68 6.496 51.288C5.25867 49.8573 4.33067 48.1753 3.712 46.242C3.09333 44.27 2.784 42.1433 2.784 39.862ZM58.6344 39.804C58.6344 42.2013 58.2864 44.386 57.5904 46.358C56.8944 48.33 55.9084 50.012 54.6324 51.404C53.3564 52.796 51.8097 53.8787 49.9924 54.652C48.2137 55.4253 46.2417 55.812 44.0764 55.812C41.911 55.812 39.939 55.4253 38.1604 54.652C36.3817 53.8787 34.8544 52.796 33.5784 51.404C32.3024 50.012 31.297 48.33 30.5624 46.358C29.8664 44.386 29.5184 42.2013 29.5184 39.804C29.5184 37.4067 29.8664 35.2413 30.5624 33.308C31.297 31.336 32.3024 29.654 33.5784 28.262C34.893 26.87 36.4397 25.8067 38.2184 25.072C39.997 24.2987 41.9497 23.912 44.0764 23.912C46.203 23.912 48.1557 24.2987 49.9344 25.072C51.7517 25.8067 53.2984 26.87 54.5744 28.262C55.8504 29.654 56.8364 31.336 57.5324 33.308C58.267 35.2413 58.6344 37.4067 58.6344 39.804ZM51.4424 39.804C51.4424 36.788 50.785 34.41 49.4704 32.67C48.1944 30.8913 46.3964 30.002 44.0764 30.002C41.7564 30.002 39.939 30.8913 38.6244 32.67C37.3484 34.41 36.7104 36.788 36.7104 39.804C36.7104 42.8587 37.3484 45.2753 38.6244 47.054C39.939 48.8327 41.7564 49.722 44.0764 49.722C46.3964 49.722 48.1944 48.8327 49.4704 47.054C50.785 45.2753 51.4424 42.8587 51.4424 39.804ZM76.4204 55.58C74.3324 55.5413 72.5924 55.3093 71.2004 54.884C69.8471 54.4587 68.7644 53.8593 67.9524 53.086C67.1404 52.274 66.5604 51.288 66.2124 50.128C65.9031 48.9293 65.7484 47.576 65.7484 46.068V11.152L72.7664 9.992V44.734C72.7664 45.5847 72.8244 46.3 72.9404 46.88C73.0951 47.46 73.3464 47.9627 73.6944 48.388C74.0424 48.7747 74.5064 49.084 75.0864 49.316C75.7051 49.5093 76.4784 49.664 77.4064 49.78L76.4204 55.58ZM107.965 54.072C106.612 54.42 104.853 54.768 102.687 55.116C100.522 55.5027 98.1439 55.696 95.5532 55.696C93.1172 55.696 91.0679 55.348 89.4052 54.652C87.7812 53.956 86.4665 52.9893 85.4612 51.752C84.4945 50.5147 83.7985 49.0453 83.3732 47.344C82.9479 45.604 82.7352 43.7093 82.7352 41.66V24.666H89.7532V40.558C89.7532 43.806 90.2172 46.126 91.1452 47.518C92.1119 48.91 93.7745 49.606 96.1332 49.606C96.9839 49.606 97.8732 49.5673 98.8012 49.49C99.7679 49.4127 100.483 49.316 100.947 49.2V24.666H107.965V54.072ZM134.182 39.05C134.182 35.8793 133.776 33.598 132.964 32.206C132.19 30.7753 130.721 30.06 128.556 30.06C127.782 30.06 126.932 30.118 126.004 30.234C125.076 30.35 124.38 30.4467 123.916 30.524V55H116.898V25.652C118.251 25.2653 120.01 24.898 122.176 24.55C124.38 24.202 126.7 24.028 129.136 24.028C131.224 24.028 132.925 24.2987 134.24 24.84C135.593 25.3813 136.714 26.0967 137.604 26.986C138.029 26.6767 138.57 26.348 139.228 26C139.885 25.652 140.62 25.3427 141.432 25.072C142.244 24.7627 143.094 24.5113 143.984 24.318C144.912 24.1247 145.84 24.028 146.768 24.028C149.126 24.028 151.06 24.376 152.568 25.072C154.114 25.7293 155.313 26.6767 156.164 27.914C157.053 29.1127 157.652 30.582 157.962 32.322C158.31 34.0233 158.484 35.8987 158.484 37.948V55H151.466V39.05C151.466 35.8793 151.079 33.598 150.306 32.206C149.532 30.7753 148.044 30.06 145.84 30.06C144.718 30.06 143.655 30.2533 142.65 30.64C141.644 30.988 140.89 31.336 140.388 31.684C140.697 32.6507 140.91 33.6753 141.026 34.758C141.142 35.8407 141.2 37.0007 141.2 38.238V55H134.182V39.05ZM167.081 25.652C168.435 25.2653 170.194 24.898 172.359 24.55C174.525 24.202 176.922 24.028 179.551 24.028C182.026 24.028 184.095 24.376 185.757 25.072C187.42 25.7293 188.735 26.6767 189.701 27.914C190.707 29.1127 191.403 30.582 191.789 32.322C192.215 34.0233 192.427 35.8987 192.427 37.948V55H185.409V39.05C185.409 37.426 185.293 36.0533 185.061 34.932C184.868 33.772 184.52 32.844 184.017 32.148C183.553 31.4133 182.896 30.8913 182.045 30.582C181.233 30.234 180.228 30.06 179.029 30.06C178.14 30.06 177.212 30.118 176.245 30.234C175.279 30.35 174.563 30.4467 174.099 30.524V55H167.081V25.652ZM220.056 39.05C220.056 42.0273 220.694 44.212 221.97 45.604C223.285 46.9573 224.967 47.634 227.016 47.634C228.137 47.634 229.181 47.4793 230.148 47.17C231.153 46.8607 231.965 46.4933 232.584 46.068V30.35C232.081 30.234 231.463 30.1373 230.728 30.06C229.993 29.944 229.065 29.886 227.944 29.886C225.392 29.886 223.439 30.7367 222.086 32.438C220.733 34.1007 220.056 36.3047 220.056 39.05ZM239.602 51.926C239.602 56.7593 238.365 60.2973 235.89 62.54C233.454 64.7827 229.703 65.904 224.638 65.904C222.782 65.904 220.965 65.7493 219.186 65.44C217.446 65.1307 215.861 64.7247 214.43 64.222L215.706 58.248C216.905 58.7507 218.258 59.1567 219.766 59.466C221.313 59.7753 222.975 59.93 224.754 59.93C227.577 59.93 229.587 59.35 230.786 58.19C231.985 57.03 232.584 55.3093 232.584 53.028V51.868C231.888 52.216 230.96 52.564 229.8 52.912C228.679 53.26 227.383 53.434 225.914 53.434C223.981 53.434 222.202 53.1247 220.578 52.506C218.993 51.8873 217.62 50.9787 216.46 49.78C215.339 48.5813 214.449 47.0927 213.792 45.314C213.173 43.4967 212.864 41.4087 212.864 39.05C212.864 36.846 213.193 34.816 213.85 32.96C214.546 31.104 215.532 29.5187 216.808 28.204C218.123 26.8893 219.708 25.8647 221.564 25.13C223.42 24.3953 225.527 24.028 227.886 24.028C230.167 24.028 232.333 24.202 234.382 24.55C236.431 24.898 238.171 25.2653 239.602 25.652V51.926ZM265.814 30.988C265.234 30.7947 264.422 30.6013 263.378 30.408C262.373 30.176 261.194 30.06 259.84 30.06C259.067 30.06 258.236 30.1373 257.346 30.292C256.496 30.4467 255.896 30.582 255.548 30.698V55H248.53V26.116C249.884 25.6133 251.566 25.1493 253.576 24.724C255.626 24.26 257.888 24.028 260.362 24.028C260.826 24.028 261.368 24.0667 261.986 24.144C262.605 24.1827 263.224 24.26 263.842 24.376C264.461 24.4533 265.06 24.5693 265.64 24.724C266.22 24.84 266.684 24.956 267.032 25.072L265.814 30.988ZM278.999 55H271.981V24.666H278.999V55ZM279.753 15.792C279.753 17.1067 279.328 18.1507 278.477 18.924C277.626 19.6973 276.621 20.084 275.461 20.084C274.262 20.084 273.238 19.6973 272.387 18.924C271.536 18.1507 271.111 17.1067 271.111 15.792C271.111 14.4387 271.536 13.3753 272.387 12.602C273.238 11.8287 274.262 11.442 275.461 11.442C276.621 11.442 277.626 11.8287 278.477 12.602C279.328 13.3753 279.753 14.4387 279.753 15.792ZM293.462 39.746C293.462 42.8393 294.197 45.2753 295.666 47.054C297.136 48.794 299.166 49.664 301.756 49.664C302.878 49.664 303.825 49.6253 304.598 49.548C305.41 49.432 306.068 49.316 306.57 49.2V31.8C305.952 31.3747 305.12 30.988 304.076 30.64C303.071 30.2533 301.988 30.06 300.828 30.06C298.276 30.06 296.401 30.93 295.202 32.67C294.042 34.41 293.462 36.7687 293.462 39.746ZM313.588 54.072C312.196 54.4973 310.437 54.884 308.31 55.232C306.222 55.58 304.018 55.754 301.698 55.754C299.301 55.754 297.155 55.3867 295.26 54.652C293.366 53.9173 291.742 52.8733 290.388 51.52C289.074 50.128 288.049 48.4653 287.314 46.532C286.618 44.56 286.27 42.356 286.27 39.92C286.27 37.5227 286.56 35.3573 287.14 33.424C287.759 31.452 288.648 29.77 289.808 28.378C290.968 26.986 292.38 25.9227 294.042 25.188C295.705 24.4147 297.619 24.028 299.784 24.028C301.254 24.028 302.549 24.202 303.67 24.55C304.792 24.898 305.758 25.2847 306.57 25.71V11.152L313.588 9.992V54.072ZM346.596 55.58C344.508 55.5413 342.768 55.3093 341.376 54.884C340.023 54.4587 338.94 53.8593 338.128 53.086C337.316 52.274 336.736 51.288 336.388 50.128C336.079 48.9293 335.924 47.576 335.924 46.068V11.152L342.942 9.992V44.734C342.942 45.5847 343 46.3 343.116 46.88C343.271 47.46 343.522 47.9627 343.87 48.388C344.218 48.7747 344.682 49.084 345.262 49.316C345.881 49.5093 346.654 49.664 347.582 49.78L346.596 55.58ZM360.335 55H353.317V24.666H360.335V55ZM361.089 15.792C361.089 17.1067 360.664 18.1507 359.813 18.924C358.962 19.6973 357.957 20.084 356.797 20.084C355.598 20.084 354.574 19.6973 353.723 18.924C352.872 18.1507 352.447 17.1067 352.447 15.792C352.447 14.4387 352.872 13.3753 353.723 12.602C354.574 11.8287 355.598 11.442 356.797 11.442C357.957 11.442 358.962 11.8287 359.813 12.602C360.664 13.3753 361.089 14.4387 361.089 15.792ZM369.288 25.652C370.642 25.2653 372.401 24.898 374.566 24.55C376.732 24.202 379.129 24.028 381.758 24.028C384.233 24.028 386.302 24.376 387.964 25.072C389.627 25.7293 390.942 26.6767 391.908 27.914C392.914 29.1127 393.61 30.582 393.996 32.322C394.422 34.0233 394.634 35.8987 394.634 37.948V55H387.616V39.05C387.616 37.426 387.5 36.0533 387.268 34.932C387.075 33.772 386.727 32.844 386.224 32.148C385.76 31.4133 385.103 30.8913 384.252 30.582C383.44 30.234 382.435 30.06 381.236 30.06C380.347 30.06 379.419 30.118 378.452 30.234C377.486 30.35 376.77 30.4467 376.306 30.524V55H369.288V25.652ZM401.534 39.978C401.534 37.31 401.921 34.9707 402.694 32.96C403.506 30.9493 404.569 29.2867 405.884 27.972C407.199 26.6187 408.707 25.6133 410.408 24.956C412.109 24.26 413.849 23.912 415.628 23.912C419.804 23.912 423.052 25.2073 425.372 27.798C427.731 30.3887 428.91 34.2553 428.91 39.398C428.91 39.7847 428.891 40.2293 428.852 40.732C428.852 41.196 428.833 41.6213 428.794 42.008H408.784C408.977 44.444 409.828 46.3387 411.336 47.692C412.883 49.0067 415.106 49.664 418.006 49.664C419.707 49.664 421.254 49.5093 422.646 49.2C424.077 48.8907 425.198 48.562 426.01 48.214L426.938 53.956C426.551 54.1493 426.01 54.362 425.314 54.594C424.657 54.7873 423.883 54.9613 422.994 55.116C422.143 55.3093 421.215 55.464 420.21 55.58C419.205 55.696 418.18 55.754 417.136 55.754C414.468 55.754 412.148 55.3673 410.176 54.594C408.204 53.782 406.58 52.68 405.304 51.288C404.028 49.8573 403.081 48.1947 402.462 46.3C401.843 44.3667 401.534 42.2593 401.534 39.978ZM421.892 36.846C421.892 35.8793 421.757 34.9707 421.486 34.12C421.215 33.2307 420.809 32.4767 420.268 31.858C419.765 31.2007 419.127 30.698 418.354 30.35C417.619 29.9633 416.73 29.77 415.686 29.77C414.603 29.77 413.656 29.9827 412.844 30.408C412.032 30.7947 411.336 31.3167 410.756 31.974C410.215 32.6313 409.789 33.3853 409.48 34.236C409.171 35.0867 408.958 35.9567 408.842 36.846H421.892ZM443.949 49.954C445.805 49.954 447.158 49.7413 448.009 49.316C448.859 48.852 449.285 48.0787 449.285 46.996C449.285 45.9907 448.821 45.1593 447.893 44.502C447.003 43.8447 445.515 43.1293 443.427 42.356C442.151 41.892 440.971 41.4087 439.889 40.906C438.845 40.3647 437.936 39.746 437.163 39.05C436.389 38.354 435.771 37.5227 435.307 36.556C434.881 35.5507 434.669 34.3327 434.669 32.902C434.669 30.118 435.693 27.9333 437.743 26.348C439.792 24.724 442.576 23.912 446.095 23.912C447.873 23.912 449.575 24.086 451.199 24.434C452.823 24.7433 454.041 25.0527 454.853 25.362L453.577 31.046C452.803 30.698 451.817 30.3887 450.619 30.118C449.42 29.8087 448.028 29.654 446.443 29.654C445.012 29.654 443.852 29.9053 442.963 30.408C442.073 30.872 441.629 31.6067 441.629 32.612C441.629 33.1147 441.706 33.5593 441.861 33.946C442.054 34.3327 442.363 34.7 442.789 35.048C443.214 35.3573 443.775 35.686 444.471 36.034C445.167 36.3433 446.017 36.672 447.023 37.02C448.685 37.6387 450.097 38.2573 451.257 38.876C452.417 39.456 453.364 40.1327 454.099 40.906C454.872 41.6407 455.433 42.4913 455.781 43.458C456.129 44.4247 456.303 45.5847 456.303 46.938C456.303 49.838 455.22 52.042 453.055 53.55C450.928 55.0193 447.873 55.754 443.891 55.754C441.223 55.754 439.077 55.522 437.453 55.058C435.829 54.6327 434.688 54.2847 434.031 54.014L435.249 48.156C436.293 48.5813 437.53 48.9873 438.961 49.374C440.43 49.7607 442.093 49.954 443.949 49.954Z" fill="#60195E"/>
<path d="M1058.75 30.988C1058.17 30.7947 1057.36 30.6013 1056.31 30.408C1055.31 30.176 1054.13 30.06 1052.78 30.06C1052 30.06 1051.17 30.1373 1050.28 30.292C1049.43 30.4467 1048.83 30.582 1048.48 30.698V55H1041.47V26.116C1042.82 25.6133 1044.5 25.1493 1046.51 24.724C1048.56 24.26 1050.82 24.028 1053.3 24.028C1053.76 24.028 1054.3 24.0667 1054.92 24.144C1055.54 24.1827 1056.16 24.26 1056.78 24.376C1057.4 24.4533 1058 24.5693 1058.58 24.724C1059.16 24.84 1059.62 24.956 1059.97 25.072L1058.75 30.988ZM1092.29 39.804C1092.29 42.2013 1091.94 44.386 1091.25 46.358C1090.55 48.33 1089.57 50.012 1088.29 51.404C1087.01 52.796 1085.47 53.8787 1083.65 54.652C1081.87 55.4253 1079.9 55.812 1077.73 55.812C1075.57 55.812 1073.6 55.4253 1071.82 54.652C1070.04 53.8787 1068.51 52.796 1067.24 51.404C1065.96 50.012 1064.96 48.33 1064.22 46.358C1063.52 44.386 1063.18 42.2013 1063.18 39.804C1063.18 37.4067 1063.52 35.2413 1064.22 33.308C1064.96 31.336 1065.96 29.654 1067.24 28.262C1068.55 26.87 1070.1 25.8067 1071.88 25.072C1073.66 24.2987 1075.61 23.912 1077.73 23.912C1079.86 23.912 1081.81 24.2987 1083.59 25.072C1085.41 25.8067 1086.96 26.87 1088.23 28.262C1089.51 29.654 1090.49 31.336 1091.19 33.308C1091.93 35.2413 1092.29 37.4067 1092.29 39.804ZM1085.1 39.804C1085.1 36.788 1084.44 34.41 1083.13 32.67C1081.85 30.8913 1080.05 30.002 1077.73 30.002C1075.41 30.002 1073.6 30.8913 1072.28 32.67C1071.01 34.41 1070.37 36.788 1070.37 39.804C1070.37 42.8587 1071.01 45.2753 1072.28 47.054C1073.6 48.8327 1075.41 49.722 1077.73 49.722C1080.05 49.722 1081.85 48.8327 1083.13 47.054C1084.44 45.2753 1085.1 42.8587 1085.1 39.804ZM1117 35.918C1116.11 39.3207 1115.14 42.646 1114.1 45.894C1113.09 49.1033 1112.08 52.1387 1111.08 55H1105.34C1104.56 53.2213 1103.75 51.1913 1102.9 48.91C1102.05 46.6287 1101.2 44.1927 1100.35 41.602C1099.5 39.0113 1098.65 36.2853 1097.8 33.424C1096.95 30.5627 1096.12 27.6433 1095.3 24.666H1102.73C1103.08 26.29 1103.48 28.0493 1103.95 29.944C1104.41 31.8 1104.89 33.714 1105.4 35.686C1105.9 37.6193 1106.42 39.514 1106.96 41.37C1107.5 43.226 1108.04 44.9273 1108.59 46.474C1109.17 44.6953 1109.73 42.8587 1110.27 40.964C1110.85 39.0693 1111.39 37.1747 1111.89 35.28C1112.39 33.3853 1112.86 31.5487 1113.28 29.77C1113.75 27.9527 1114.15 26.2513 1114.5 24.666H1119.9C1120.24 26.2513 1120.63 27.9527 1121.06 29.77C1121.48 31.5487 1121.93 33.3853 1122.39 35.28C1122.89 37.1747 1123.41 39.0693 1123.96 40.964C1124.54 42.8587 1125.12 44.6953 1125.7 46.474C1126.2 44.9273 1126.72 43.226 1127.26 41.37C1127.8 39.514 1128.32 37.6193 1128.83 35.686C1129.37 33.714 1129.87 31.8 1130.34 29.944C1130.8 28.0493 1131.21 26.29 1131.55 24.666H1138.8C1137.99 27.6433 1137.16 30.5627 1136.31 33.424C1135.46 36.2853 1134.61 39.0113 1133.76 41.602C1132.91 44.1927 1132.06 46.6287 1131.21 48.91C1130.35 51.1913 1129.52 53.2213 1128.71 55H1123.03C1122.02 52.1387 1120.98 49.1033 1119.9 45.894C1118.85 42.646 1117.88 39.3207 1117 35.918ZM1163.2 39.05C1163.2 42.0273 1163.84 44.212 1165.12 45.604C1166.43 46.9573 1168.11 47.634 1170.16 47.634C1171.28 47.634 1172.33 47.4793 1173.29 47.17C1174.3 46.8607 1175.11 46.4933 1175.73 46.068V30.35C1175.23 30.234 1174.61 30.1373 1173.87 30.06C1173.14 29.944 1172.21 29.886 1171.09 29.886C1168.54 29.886 1166.59 30.7367 1165.23 32.438C1163.88 34.1007 1163.2 36.3047 1163.2 39.05ZM1182.75 51.926C1182.75 56.7593 1181.51 60.2973 1179.04 62.54C1176.6 64.7827 1172.85 65.904 1167.78 65.904C1165.93 65.904 1164.11 65.7493 1162.33 65.44C1160.59 65.1307 1159.01 64.7247 1157.58 64.222L1158.85 58.248C1160.05 58.7507 1161.4 59.1567 1162.91 59.466C1164.46 59.7753 1166.12 59.93 1167.9 59.93C1170.72 59.93 1172.73 59.35 1173.93 58.19C1175.13 57.03 1175.73 55.3093 1175.73 53.028V51.868C1175.03 52.216 1174.11 52.564 1172.95 52.912C1171.83 53.26 1170.53 53.434 1169.06 53.434C1167.13 53.434 1165.35 53.1247 1163.72 52.506C1162.14 51.8873 1160.77 50.9787 1159.61 49.78C1158.49 48.5813 1157.6 47.0927 1156.94 45.314C1156.32 43.4967 1156.01 41.4087 1156.01 39.05C1156.01 36.846 1156.34 34.816 1157 32.96C1157.69 31.104 1158.68 29.5187 1159.95 28.204C1161.27 26.8893 1162.85 25.8647 1164.71 25.13C1166.57 24.3953 1168.67 24.028 1171.03 24.028C1173.31 24.028 1175.48 24.202 1177.53 24.55C1179.58 24.898 1181.32 25.2653 1182.75 25.652V51.926ZM1208.96 30.988C1208.38 30.7947 1207.57 30.6013 1206.52 30.408C1205.52 30.176 1204.34 30.06 1202.99 30.06C1202.21 30.06 1201.38 30.1373 1200.49 30.292C1199.64 30.4467 1199.04 30.582 1198.69 30.698V55H1191.68V26.116C1193.03 25.6133 1194.71 25.1493 1196.72 24.724C1198.77 24.26 1201.03 24.028 1203.51 24.028C1203.97 24.028 1204.51 24.0667 1205.13 24.144C1205.75 24.1827 1206.37 24.26 1206.99 24.376C1207.61 24.4533 1208.21 24.5693 1208.79 24.724C1209.37 24.84 1209.83 24.956 1210.18 25.072L1208.96 30.988ZM1222.15 55H1215.13V24.666H1222.15V55ZM1222.9 15.792C1222.9 17.1067 1222.47 18.1507 1221.62 18.924C1220.77 19.6973 1219.77 20.084 1218.61 20.084C1217.41 20.084 1216.38 19.6973 1215.53 18.924C1214.68 18.1507 1214.26 17.1067 1214.26 15.792C1214.26 14.4387 1214.68 13.3753 1215.53 12.602C1216.38 11.8287 1217.41 11.442 1218.61 11.442C1219.77 11.442 1220.77 11.8287 1221.62 12.602C1222.47 13.3753 1222.9 14.4387 1222.9 15.792ZM1236.61 39.746C1236.61 42.8393 1237.34 45.2753 1238.81 47.054C1240.28 48.794 1242.31 49.664 1244.9 49.664C1246.02 49.664 1246.97 49.6253 1247.74 49.548C1248.56 49.432 1249.21 49.316 1249.72 49.2V31.8C1249.1 31.3747 1248.27 30.988 1247.22 30.64C1246.22 30.2533 1245.13 30.06 1243.97 30.06C1241.42 30.06 1239.55 30.93 1238.35 32.67C1237.19 34.41 1236.61 36.7687 1236.61 39.746ZM1256.73 54.072C1255.34 54.4973 1253.58 54.884 1251.46 55.232C1249.37 55.58 1247.16 55.754 1244.84 55.754C1242.45 55.754 1240.3 55.3867 1238.41 54.652C1236.51 53.9173 1234.89 52.8733 1233.53 51.52C1232.22 50.128 1231.2 48.4653 1230.46 46.532C1229.76 44.56 1229.42 42.356 1229.42 39.92C1229.42 37.5227 1229.71 35.3573 1230.29 33.424C1230.91 31.452 1231.79 29.77 1232.95 28.378C1234.11 26.986 1235.53 25.9227 1237.19 25.188C1238.85 24.4147 1240.77 24.028 1242.93 24.028C1244.4 24.028 1245.7 24.202 1246.82 24.55C1247.94 24.898 1248.9 25.2847 1249.72 25.71V11.152L1256.73 9.992V54.072ZM1289.74 55.58C1287.65 55.5413 1285.91 55.3093 1284.52 54.884C1283.17 54.4587 1282.09 53.8593 1281.27 53.086C1280.46 52.274 1279.88 51.288 1279.53 50.128C1279.23 48.9293 1279.07 47.576 1279.07 46.068V11.152L1286.09 9.992V44.734C1286.09 45.5847 1286.15 46.3 1286.26 46.88C1286.42 47.46 1286.67 47.9627 1287.02 48.388C1287.36 48.7747 1287.83 49.084 1288.41 49.316C1289.03 49.5093 1289.8 49.664 1290.73 49.78L1289.74 55.58ZM1303.48 55H1296.46V24.666H1303.48V55ZM1304.24 15.792C1304.24 17.1067 1303.81 18.1507 1302.96 18.924C1302.11 19.6973 1301.1 20.084 1299.94 20.084C1298.74 20.084 1297.72 19.6973 1296.87 18.924C1296.02 18.1507 1295.59 17.1067 1295.59 15.792C1295.59 14.4387 1296.02 13.3753 1296.87 12.602C1297.72 11.8287 1298.74 11.442 1299.94 11.442C1301.1 11.442 1302.11 11.8287 1302.96 12.602C1303.81 13.3753 1304.24 14.4387 1304.24 15.792ZM1312.43 25.652C1313.79 25.2653 1315.55 24.898 1317.71 24.55C1319.88 24.202 1322.28 24.028 1324.9 24.028C1327.38 24.028 1329.45 24.376 1331.11 25.072C1332.77 25.7293 1334.09 26.6767 1335.05 27.914C1336.06 29.1127 1336.76 30.582 1337.14 32.322C1337.57 34.0233 1337.78 35.8987 1337.78 37.948V55H1330.76V39.05C1330.76 37.426 1330.65 36.0533 1330.41 34.932C1330.22 33.772 1329.87 32.844 1329.37 32.148C1328.91 31.4133 1328.25 30.8913 1327.4 30.582C1326.59 30.234 1325.58 30.06 1324.38 30.06C1323.49 30.06 1322.57 30.118 1321.6 30.234C1320.63 30.35 1319.92 30.4467 1319.45 30.524V55H1312.43V25.652ZM1344.68 39.978C1344.68 37.31 1345.07 34.9707 1345.84 32.96C1346.65 30.9493 1347.72 29.2867 1349.03 27.972C1350.35 26.6187 1351.85 25.6133 1353.55 24.956C1355.26 24.26 1357 23.912 1358.77 23.912C1362.95 23.912 1366.2 25.2073 1368.52 27.798C1370.88 30.3887 1372.06 34.2553 1372.06 39.398C1372.06 39.7847 1372.04 40.2293 1372 40.732C1372 41.196 1371.98 41.6213 1371.94 42.008H1351.93C1352.12 44.444 1352.97 46.3387 1354.48 47.692C1356.03 49.0067 1358.25 49.664 1361.15 49.664C1362.85 49.664 1364.4 49.5093 1365.79 49.2C1367.22 48.8907 1368.34 48.562 1369.16 48.214L1370.08 53.956C1369.7 54.1493 1369.16 54.362 1368.46 54.594C1367.8 54.7873 1367.03 54.9613 1366.14 55.116C1365.29 55.3093 1364.36 55.464 1363.36 55.58C1362.35 55.696 1361.33 55.754 1360.28 55.754C1357.61 55.754 1355.29 55.3673 1353.32 54.594C1351.35 53.782 1349.73 52.68 1348.45 51.288C1347.17 49.8573 1346.23 48.1947 1345.61 46.3C1344.99 44.3667 1344.68 42.2593 1344.68 39.978ZM1365.04 36.846C1365.04 35.8793 1364.9 34.9707 1364.63 34.12C1364.36 33.2307 1363.96 32.4767 1363.41 31.858C1362.91 31.2007 1362.27 30.698 1361.5 30.35C1360.77 29.9633 1359.88 29.77 1358.83 29.77C1357.75 29.77 1356.8 29.9827 1355.99 30.408C1355.18 30.7947 1354.48 31.3167 1353.9 31.974C1353.36 32.6313 1352.94 33.3853 1352.63 34.236C1352.32 35.0867 1352.1 35.9567 1351.99 36.846H1365.04ZM1387.1 49.954C1388.95 49.954 1390.3 49.7413 1391.16 49.316C1392.01 48.852 1392.43 48.0787 1392.43 46.996C1392.43 45.9907 1391.97 45.1593 1391.04 44.502C1390.15 43.8447 1388.66 43.1293 1386.57 42.356C1385.3 41.892 1384.12 41.4087 1383.04 40.906C1381.99 40.3647 1381.08 39.746 1380.31 39.05C1379.54 38.354 1378.92 37.5227 1378.45 36.556C1378.03 35.5507 1377.82 34.3327 1377.82 32.902C1377.82 30.118 1378.84 27.9333 1380.89 26.348C1382.94 24.724 1385.72 23.912 1389.24 23.912C1391.02 23.912 1392.72 24.086 1394.35 24.434C1395.97 24.7433 1397.19 25.0527 1398 25.362L1396.72 31.046C1395.95 30.698 1394.96 30.3887 1393.77 30.118C1392.57 29.8087 1391.17 29.654 1389.59 29.654C1388.16 29.654 1387 29.9053 1386.11 30.408C1385.22 30.872 1384.78 31.6067 1384.78 32.612C1384.78 33.1147 1384.85 33.5593 1385.01 33.946C1385.2 34.3327 1385.51 34.7 1385.94 35.048C1386.36 35.3573 1386.92 35.686 1387.62 36.034C1388.31 36.3433 1389.16 36.672 1390.17 37.02C1391.83 37.6387 1393.24 38.2573 1394.4 38.876C1395.56 39.456 1396.51 40.1327 1397.25 40.906C1398.02 41.6407 1398.58 42.4913 1398.93 43.458C1399.28 44.4247 1399.45 45.5847 1399.45 46.938C1399.45 49.838 1398.37 52.042 1396.2 53.55C1394.07 55.0193 1391.02 55.754 1387.04 55.754C1384.37 55.754 1382.22 55.522 1380.6 55.058C1378.98 54.6327 1377.83 54.2847 1377.18 54.014L1378.4 48.156C1379.44 48.5813 1380.68 48.9873 1382.11 49.374C1383.58 49.7607 1385.24 49.954 1387.1 49.954Z" fill="#60195E"/>
</svg>
