<svg width="2432" height="1085" viewBox="0 0 2432 1085" fill="none" xmlns="http://www.w3.org/2000/svg">
<g clip-path="url(#clip0_91_415)">
<path d="M36.75 159.428C35.77 159.101 34.398 158.775 32.634 158.448C30.9353 158.056 28.9427 157.86 26.656 157.86C25.3493 157.86 23.9447 157.991 22.442 158.252C21.0047 158.513 19.992 158.742 19.404 158.938V200H7.546V151.196C9.83267 150.347 12.6747 149.563 16.072 148.844C19.5347 148.06 23.3567 147.668 27.538 147.668C28.322 147.668 29.2367 147.733 30.282 147.864C31.3273 147.929 32.3727 148.06 33.418 148.256C34.4633 148.387 35.476 148.583 36.456 148.844C37.436 149.04 38.22 149.236 38.808 149.432L36.75 159.428ZM93.4254 174.324C93.4254 178.375 92.8374 182.066 91.6614 185.398C90.4854 188.73 88.8194 191.572 86.6634 193.924C84.5074 196.276 81.8941 198.105 78.8234 199.412C75.8181 200.719 72.4861 201.372 68.8274 201.372C65.1687 201.372 61.8367 200.719 58.8314 199.412C55.8261 198.105 53.2454 196.276 51.0894 193.924C48.9334 191.572 47.2347 188.73 45.9934 185.398C44.8174 182.066 44.2294 178.375 44.2294 174.324C44.2294 170.273 44.8174 166.615 45.9934 163.348C47.2347 160.016 48.9334 157.174 51.0894 154.822C53.3107 152.47 55.9241 150.673 58.9294 149.432C61.9347 148.125 65.2341 147.472 68.8274 147.472C72.4207 147.472 75.7201 148.125 78.7254 149.432C81.7961 150.673 84.4094 152.47 86.5654 154.822C88.7214 157.174 90.3874 160.016 91.5634 163.348C92.8047 166.615 93.4254 170.273 93.4254 174.324ZM81.2734 174.324C81.2734 169.228 80.1627 165.21 77.9414 162.27C75.7854 159.265 72.7474 157.762 68.8274 157.762C64.9074 157.762 61.8367 159.265 59.6154 162.27C57.4594 165.21 56.3814 169.228 56.3814 174.324C56.3814 179.485 57.4594 183.569 59.6154 186.574C61.8367 189.579 64.9074 191.082 68.8274 191.082C72.7474 191.082 75.7854 189.579 77.9414 186.574C80.1627 183.569 81.2734 179.485 81.2734 174.324ZM135.165 167.758C133.662 173.507 132.029 179.126 130.265 184.614C128.566 190.037 126.868 195.165 125.169 200H115.467C114.16 196.995 112.788 193.565 111.351 189.71C109.914 185.855 108.476 181.739 107.039 177.362C105.602 172.985 104.164 168.379 102.727 163.544C101.29 158.709 99.885 153.777 98.513 148.746H111.057C111.645 151.49 112.331 154.463 113.115 157.664C113.899 160.8 114.716 164.034 115.565 167.366C116.414 170.633 117.296 173.834 118.211 176.97C119.126 180.106 120.04 182.981 120.955 185.594C121.935 182.589 122.882 179.485 123.797 176.284C124.777 173.083 125.692 169.881 126.541 166.68C127.39 163.479 128.174 160.375 128.893 157.37C129.677 154.299 130.363 151.425 130.951 148.746H140.065C140.653 151.425 141.306 154.299 142.025 157.37C142.744 160.375 143.495 163.479 144.279 166.68C145.128 169.881 146.01 173.083 146.925 176.284C147.905 179.485 148.885 182.589 149.865 185.594C150.714 182.981 151.596 180.106 152.511 176.97C153.426 173.834 154.308 170.633 155.157 167.366C156.072 164.034 156.921 160.8 157.705 157.664C158.489 154.463 159.175 151.49 159.763 148.746H172.013C170.641 153.777 169.236 158.709 167.799 163.544C166.362 168.379 164.924 172.985 163.487 177.362C162.05 181.739 160.612 185.855 159.175 189.71C157.738 193.565 156.333 196.995 154.961 200H145.357C143.658 195.165 141.894 190.037 140.065 184.614C138.301 179.126 136.668 173.507 135.165 167.758ZM193.894 191.474C197.03 191.474 199.316 191.115 200.754 190.396C202.191 189.612 202.91 188.305 202.91 186.476C202.91 184.777 202.126 183.373 200.558 182.262C199.055 181.151 196.54 179.943 193.012 178.636C190.856 177.852 188.863 177.035 187.034 176.186C185.27 175.271 183.734 174.226 182.428 173.05C181.121 171.874 180.076 170.469 179.292 168.836C178.573 167.137 178.214 165.079 178.214 162.662C178.214 157.958 179.945 154.267 183.408 151.588C186.87 148.844 191.574 147.472 197.52 147.472C200.525 147.472 203.4 147.766 206.144 148.354C208.888 148.877 210.946 149.399 212.318 149.922L210.162 159.526C208.855 158.938 207.189 158.415 205.164 157.958C203.138 157.435 200.786 157.174 198.108 157.174C195.69 157.174 193.73 157.599 192.228 158.448C190.725 159.232 189.974 160.473 189.974 162.172C189.974 163.021 190.104 163.773 190.366 164.426C190.692 165.079 191.215 165.7 191.934 166.288C192.652 166.811 193.6 167.366 194.776 167.954C195.952 168.477 197.389 169.032 199.088 169.62C201.897 170.665 204.282 171.711 206.242 172.756C208.202 173.736 209.802 174.879 211.044 176.186C212.35 177.427 213.298 178.865 213.886 180.498C214.474 182.131 214.768 184.091 214.768 186.378C214.768 191.278 212.938 195.002 209.28 197.55C205.686 200.033 200.525 201.274 193.796 201.274C189.288 201.274 185.662 200.882 182.918 200.098C180.174 199.379 178.246 198.791 177.136 198.334L179.194 188.436C180.958 189.155 183.048 189.841 185.466 190.494C187.948 191.147 190.758 191.474 193.894 191.474Z" fill="#60195E"/>
<path d="M1.544 269.696L9.288 268.416V278.528H21.192V284.992H9.288V298.624C9.288 301.312 9.71467 303.232 10.568 304.384C11.4213 305.536 12.872 306.112 14.92 306.112C16.328 306.112 17.5653 305.963 18.632 305.664C19.7413 305.365 20.616 305.088 21.256 304.832L22.536 310.976C21.64 311.36 20.4667 311.744 19.016 312.128C17.5653 312.555 15.8587 312.768 13.896 312.768C11.5067 312.768 9.50133 312.448 7.88 311.808C6.30133 311.168 5.04267 310.251 4.104 309.056C3.16533 307.819 2.504 306.347 2.12 304.64C1.736 302.891 1.544 300.907 1.544 298.688V269.696ZM56.006 278.528C52.55 291.243 48.5393 302.763 43.974 313.088C43.1207 315.008 42.246 316.651 41.35 318.016C40.454 319.381 39.4513 320.512 38.342 321.408C37.2327 322.304 35.9953 322.944 34.63 323.328C33.2647 323.755 31.686 323.968 29.894 323.968C28.6993 323.968 27.5047 323.84 26.31 323.584C25.158 323.328 24.2833 323.051 23.686 322.752L25.094 316.544C26.63 317.141 28.1447 317.44 29.638 317.44C31.6433 317.44 33.2007 316.949 34.31 315.968C35.462 315.029 36.4647 313.557 37.318 311.552C34.886 306.859 32.5393 301.739 30.278 296.192C28.0593 290.645 26.0753 284.757 24.326 278.528H32.582C33.0087 280.32 33.5207 282.261 34.118 284.352C34.758 286.443 35.4407 288.576 36.166 290.752C36.8913 292.885 37.6593 295.019 38.47 297.152C39.2807 299.285 40.0913 301.269 40.902 303.104C42.2673 299.307 43.5473 295.275 44.742 291.008C45.9367 286.699 47.0247 282.539 48.006 278.528H56.006ZM84.0735 295.424C84.0735 291.968 83.2842 289.28 81.7055 287.36C80.1695 285.44 77.6735 284.48 74.2175 284.48C73.4922 284.48 72.7242 284.523 71.9135 284.608C71.1455 284.651 70.3775 284.779 69.6095 284.992V304.128C70.2922 304.597 71.1882 305.045 72.2975 305.472C73.4495 305.856 74.6655 306.048 75.9455 306.048C78.7615 306.048 80.8095 305.088 82.0895 303.168C83.4122 301.248 84.0735 298.667 84.0735 295.424ZM92.0095 295.296C92.0095 297.856 91.6682 300.203 90.9855 302.336C90.3455 304.469 89.4068 306.304 88.1695 307.84C86.9322 309.376 85.3748 310.571 83.4975 311.424C81.6628 312.277 79.5722 312.704 77.2255 312.704C75.6468 312.704 74.1962 312.512 72.8735 312.128C71.5508 311.744 70.4628 311.317 69.6095 310.848V323.84H61.8655V279.616C63.4442 279.189 65.3855 278.784 67.6895 278.4C69.9935 278.016 72.4255 277.824 74.9855 277.824C77.6308 277.824 79.9988 278.229 82.0895 279.04C84.1802 279.851 85.9508 281.024 87.4015 282.56C88.8948 284.053 90.0255 285.888 90.7935 288.064C91.6042 290.197 92.0095 292.608 92.0095 295.296ZM98.1345 295.424C98.1345 292.48 98.5612 289.899 99.4145 287.68C100.311 285.461 101.484 283.627 102.935 282.176C104.385 280.683 106.049 279.573 107.927 278.848C109.804 278.08 111.724 277.696 113.687 277.696C118.295 277.696 121.879 279.125 124.439 281.984C127.041 284.843 128.343 289.109 128.343 294.784C128.343 295.211 128.321 295.701 128.279 296.256C128.279 296.768 128.257 297.237 128.215 297.664H106.135C106.348 300.352 107.287 302.443 108.951 303.936C110.657 305.387 113.111 306.112 116.311 306.112C118.188 306.112 119.895 305.941 121.431 305.6C123.009 305.259 124.247 304.896 125.143 304.512L126.167 310.848C125.74 311.061 125.143 311.296 124.375 311.552C123.649 311.765 122.796 311.957 121.815 312.128C120.876 312.341 119.852 312.512 118.743 312.64C117.633 312.768 116.503 312.832 115.351 312.832C112.407 312.832 109.847 312.405 107.671 311.552C105.495 310.656 103.703 309.44 102.295 307.904C100.887 306.325 99.8412 304.491 99.1585 302.4C98.4758 300.267 98.1345 297.941 98.1345 295.424ZM120.599 291.968C120.599 290.901 120.449 289.899 120.151 288.96C119.852 287.979 119.404 287.147 118.807 286.464C118.252 285.739 117.548 285.184 116.695 284.8C115.884 284.373 114.903 284.16 113.751 284.16C112.556 284.16 111.511 284.395 110.615 284.864C109.719 285.291 108.951 285.867 108.311 286.592C107.713 287.317 107.244 288.149 106.903 289.088C106.561 290.027 106.327 290.987 106.199 291.968H120.599ZM145.257 283.84C145.257 285.333 144.745 286.549 143.721 287.488C142.74 288.427 141.545 288.896 140.137 288.896C138.686 288.896 137.47 288.427 136.489 287.488C135.508 286.549 135.017 285.333 135.017 283.84C135.017 282.347 135.508 281.131 136.489 280.192C137.47 279.211 138.686 278.72 140.137 278.72C141.545 278.72 142.74 279.211 143.721 280.192C144.745 281.131 145.257 282.347 145.257 283.84ZM145.257 307.776C145.257 309.269 144.745 310.485 143.721 311.424C142.74 312.363 141.545 312.832 140.137 312.832C138.686 312.832 137.47 312.363 136.489 311.424C135.508 310.485 135.017 309.269 135.017 307.776C135.017 306.283 135.508 305.067 136.489 304.128C137.47 303.147 138.686 302.656 140.137 302.656C141.545 302.656 142.74 303.147 143.721 304.128C144.745 305.067 145.257 306.283 145.257 307.776ZM182.251 262.336C183.872 262.336 185.237 262.464 186.347 262.72C187.499 262.976 188.395 263.232 189.035 263.488L187.819 269.76C187.221 269.547 186.496 269.355 185.643 269.184C184.832 269.013 183.936 268.928 182.955 268.928C180.395 268.928 178.624 269.611 177.643 270.976C176.704 272.341 176.235 274.112 176.235 276.288V278.528H188.523V284.992H176.235V312H168.491V276.16C168.491 271.808 169.621 268.416 171.883 265.984C174.144 263.552 177.6 262.336 182.251 262.336ZM206.123 312.64C203.819 312.597 201.899 312.341 200.363 311.872C198.869 311.403 197.675 310.741 196.779 309.888C195.883 308.992 195.243 307.904 194.859 306.624C194.517 305.301 194.347 303.808 194.347 302.144V263.616L202.091 262.336V300.672C202.091 301.611 202.155 302.4 202.283 303.04C202.453 303.68 202.731 304.235 203.115 304.704C203.499 305.131 204.011 305.472 204.651 305.728C205.333 305.941 206.187 306.112 207.211 306.24L206.123 312.64ZM211.635 295.424C211.635 292.48 212.061 289.899 212.915 287.68C213.811 285.461 214.984 283.627 216.435 282.176C217.885 280.683 219.549 279.573 221.427 278.848C223.304 278.08 225.224 277.696 227.187 277.696C231.795 277.696 235.379 279.125 237.939 281.984C240.541 284.843 241.843 289.109 241.843 294.784C241.843 295.211 241.821 295.701 241.779 296.256C241.779 296.768 241.757 297.237 241.715 297.664H219.635C219.848 300.352 220.787 302.443 222.451 303.936C224.157 305.387 226.611 306.112 229.811 306.112C231.688 306.112 233.395 305.941 234.931 305.6C236.509 305.259 237.747 304.896 238.643 304.512L239.667 310.848C239.24 311.061 238.643 311.296 237.875 311.552C237.149 311.765 236.296 311.957 235.315 312.128C234.376 312.341 233.352 312.512 232.243 312.64C231.133 312.768 230.003 312.832 228.851 312.832C225.907 312.832 223.347 312.405 221.171 311.552C218.995 310.656 217.203 309.44 215.795 307.904C214.387 306.325 213.341 304.491 212.659 302.4C211.976 300.267 211.635 297.941 211.635 295.424ZM234.099 291.968C234.099 290.901 233.949 289.899 233.651 288.96C233.352 287.979 232.904 287.147 232.307 286.464C231.752 285.739 231.048 285.184 230.195 284.8C229.384 284.373 228.403 284.16 227.251 284.16C226.056 284.16 225.011 284.395 224.115 284.864C223.219 285.291 222.451 285.867 221.811 286.592C221.213 287.317 220.744 288.149 220.403 289.088C220.061 290.027 219.827 290.987 219.699 291.968H234.099ZM262.085 289.472L269.189 278.528H277.317L266.309 294.336C268.613 297.323 270.81 300.352 272.901 303.424C275.034 306.453 276.784 309.312 278.149 312H269.765C269.381 311.189 268.869 310.272 268.229 309.248C267.632 308.181 266.97 307.093 266.245 305.984C265.562 304.832 264.837 303.701 264.069 302.592C263.301 301.483 262.554 300.437 261.829 299.456C260.336 301.376 258.864 303.509 257.413 305.856C256.005 308.16 254.832 310.208 253.893 312H245.957C246.597 310.72 247.365 309.355 248.261 307.904C249.157 306.453 250.117 304.981 251.141 303.488C252.165 301.952 253.21 300.437 254.277 298.944C255.386 297.408 256.474 295.957 257.541 294.592L246.469 278.528H254.981L262.085 289.472ZM300.146 323.84H292.209L313.842 261.888H321.65L300.146 323.84ZM346.508 294.4C346.508 297.685 347.212 300.096 348.62 301.632C350.071 303.125 351.927 303.872 354.188 303.872C355.425 303.872 356.577 303.701 357.644 303.36C358.753 303.019 359.649 302.613 360.332 302.144V284.8C359.777 284.672 359.095 284.565 358.284 284.48C357.473 284.352 356.449 284.288 355.212 284.288C352.396 284.288 350.241 285.227 348.748 287.104C347.255 288.939 346.508 291.371 346.508 294.4ZM368.076 308.608C368.076 313.941 366.711 317.845 363.98 320.32C361.292 322.795 357.153 324.032 351.564 324.032C349.516 324.032 347.511 323.861 345.548 323.52C343.628 323.179 341.879 322.731 340.3 322.176L341.708 315.584C343.031 316.139 344.524 316.587 346.188 316.928C347.895 317.269 349.729 317.44 351.692 317.44C354.807 317.44 357.025 316.8 358.348 315.52C359.671 314.24 360.332 312.341 360.332 309.824V308.544C359.564 308.928 358.54 309.312 357.26 309.696C356.023 310.08 354.593 310.272 352.972 310.272C350.839 310.272 348.876 309.931 347.084 309.248C345.335 308.565 343.82 307.563 342.54 306.24C341.303 304.917 340.321 303.275 339.596 301.312C338.913 299.307 338.572 297.003 338.572 294.4C338.572 291.968 338.935 289.728 339.66 287.68C340.428 285.632 341.516 283.883 342.924 282.432C344.375 280.981 346.124 279.851 348.172 279.04C350.22 278.229 352.545 277.824 355.148 277.824C357.665 277.824 360.055 278.016 362.316 278.4C364.577 278.784 366.497 279.189 368.076 279.616V308.608ZM397 285.504C396.36 285.291 395.464 285.077 394.312 284.864C393.203 284.608 391.901 284.48 390.408 284.48C389.555 284.48 388.637 284.565 387.656 284.736C386.717 284.907 386.056 285.056 385.672 285.184V312H377.928V280.128C379.421 279.573 381.277 279.061 383.496 278.592C385.757 278.08 388.253 277.824 390.984 277.824C391.496 277.824 392.093 277.867 392.776 277.952C393.459 277.995 394.141 278.08 394.824 278.208C395.507 278.293 396.168 278.421 396.808 278.592C397.448 278.72 397.96 278.848 398.344 278.976L397 285.504ZM411.549 312H403.805V278.528H411.549V312ZM412.381 268.736C412.381 270.187 411.911 271.339 410.973 272.192C410.034 273.045 408.925 273.472 407.645 273.472C406.322 273.472 405.191 273.045 404.253 272.192C403.314 271.339 402.845 270.187 402.845 268.736C402.845 267.243 403.314 266.069 404.253 265.216C405.191 264.363 406.322 263.936 407.645 263.936C408.925 263.936 410.034 264.363 410.973 265.216C411.911 266.069 412.381 267.243 412.381 268.736ZM427.508 295.168C427.508 298.581 428.319 301.269 429.94 303.232C431.561 305.152 433.801 306.112 436.66 306.112C437.897 306.112 438.943 306.069 439.796 305.984C440.692 305.856 441.417 305.728 441.972 305.6V286.4C441.289 285.931 440.372 285.504 439.22 285.12C438.111 284.693 436.916 284.48 435.636 284.48C432.82 284.48 430.751 285.44 429.428 287.36C428.148 289.28 427.508 291.883 427.508 295.168ZM449.716 310.976C448.18 311.445 446.239 311.872 443.892 312.256C441.588 312.64 439.156 312.832 436.596 312.832C433.951 312.832 431.583 312.427 429.492 311.616C427.401 310.805 425.609 309.653 424.116 308.16C422.665 306.624 421.535 304.789 420.724 302.656C419.956 300.48 419.572 298.048 419.572 295.36C419.572 292.715 419.892 290.325 420.532 288.192C421.215 286.016 422.196 284.16 423.476 282.624C424.756 281.088 426.313 279.915 428.148 279.104C429.983 278.251 432.095 277.824 434.484 277.824C436.105 277.824 437.535 278.016 438.772 278.4C440.009 278.784 441.076 279.211 441.972 279.68V263.616L449.716 262.336V310.976Z" fill="#60195E"/>
<path d="M3.072 369.424C3.072 366.48 3.49867 363.899 4.352 361.68C5.248 359.461 6.42133 357.627 7.872 356.176C9.32267 354.683 10.9867 353.573 12.864 352.848C14.7413 352.08 16.6613 351.696 18.624 351.696C23.232 351.696 26.816 353.125 29.376 355.984C31.9787 358.843 33.28 363.109 33.28 368.784C33.28 369.211 33.2587 369.701 33.216 370.256C33.216 370.768 33.1947 371.237 33.152 371.664H11.072C11.2853 374.352 12.224 376.443 13.888 377.936C15.5947 379.387 18.048 380.112 21.248 380.112C23.1253 380.112 24.832 379.941 26.368 379.6C27.9467 379.259 29.184 378.896 30.08 378.512L31.104 384.848C30.6773 385.061 30.08 385.296 29.312 385.552C28.5867 385.765 27.7333 385.957 26.752 386.128C25.8133 386.341 24.7893 386.512 23.68 386.64C22.5707 386.768 21.44 386.832 20.288 386.832C17.344 386.832 14.784 386.405 12.608 385.552C10.432 384.656 8.64 383.44 7.232 381.904C5.824 380.325 4.77867 378.491 4.096 376.4C3.41333 374.267 3.072 371.941 3.072 369.424ZM25.536 365.968C25.536 364.901 25.3867 363.899 25.088 362.96C24.7893 361.979 24.3413 361.147 23.744 360.464C23.1893 359.739 22.4853 359.184 21.632 358.8C20.8213 358.373 19.84 358.16 18.688 358.16C17.4933 358.16 16.448 358.395 15.552 358.864C14.656 359.291 13.888 359.867 13.248 360.592C12.6507 361.317 12.1813 362.149 11.84 363.088C11.4987 364.027 11.264 364.987 11.136 365.968H25.536ZM47.5705 369.424C47.5705 372.667 48.2105 375.248 49.4905 377.168C50.8132 379.088 52.8825 380.048 55.6985 380.048C56.9785 380.048 58.1732 379.856 59.2825 379.472C60.4345 379.045 61.3518 378.597 62.0345 378.128V358.992C61.4798 358.864 60.7758 358.757 59.9225 358.672C59.1118 358.544 58.0452 358.48 56.7225 358.48C53.8638 358.48 51.6238 359.461 50.0025 361.424C48.3812 363.344 47.5705 366.011 47.5705 369.424ZM39.6345 369.296C39.6345 366.651 40.0185 364.261 40.7865 362.128C41.5972 359.952 42.7278 358.117 44.1785 356.624C45.6718 355.088 47.4638 353.915 49.5545 353.104C51.6452 352.251 54.0132 351.824 56.6585 351.824C59.3038 351.824 61.7785 352.016 64.0825 352.4C66.3865 352.784 68.2852 353.189 69.7785 353.616V397.84H62.0345V384.848C61.1385 385.317 60.0292 385.744 58.7065 386.128C57.4265 386.512 55.9972 386.704 54.4185 386.704C52.0292 386.704 49.9172 386.299 48.0825 385.488C46.2478 384.635 44.7118 383.44 43.4745 381.904C42.2372 380.368 41.2772 378.533 40.5945 376.4C39.9545 374.267 39.6345 371.899 39.6345 369.296ZM107.072 384.976C105.578 385.36 103.637 385.744 101.248 386.128C98.8582 386.555 96.2342 386.768 93.3755 386.768C90.6875 386.768 88.4262 386.384 86.5915 385.616C84.7995 384.848 83.3488 383.781 82.2395 382.416C81.1728 381.051 80.4048 379.429 79.9355 377.552C79.4662 375.632 79.2315 373.541 79.2315 371.28V352.528H86.9755V370.064C86.9755 373.648 87.4875 376.208 88.5115 377.744C89.5782 379.28 91.4128 380.048 94.0155 380.048C94.9542 380.048 95.9355 380.005 96.9595 379.92C98.0262 379.835 98.8155 379.728 99.3275 379.6V352.528H107.072V384.976ZM124.736 386H116.992V352.528H124.736V386ZM125.568 342.736C125.568 344.187 125.099 345.339 124.16 346.192C123.221 347.045 122.112 347.472 120.832 347.472C119.509 347.472 118.379 347.045 117.44 346.192C116.501 345.339 116.032 344.187 116.032 342.736C116.032 341.243 116.501 340.069 117.44 339.216C118.379 338.363 119.509 337.936 120.832 337.936C122.112 337.936 123.221 338.363 124.16 339.216C125.099 340.069 125.568 341.243 125.568 342.736ZM143.192 386C141.058 381.605 138.861 376.571 136.6 370.896C134.381 365.179 132.354 359.056 130.52 352.528H138.776C139.245 354.405 139.778 356.432 140.376 358.608C141.016 360.741 141.677 362.896 142.36 365.072C143.085 367.205 143.81 369.296 144.536 371.344C145.304 373.349 146.008 375.163 146.648 376.784C147.288 375.163 147.97 373.349 148.696 371.344C149.421 369.296 150.125 367.205 150.808 365.072C151.533 362.896 152.216 360.741 152.856 358.608C153.496 356.432 154.05 354.405 154.52 352.528H162.52C160.685 359.056 158.637 365.179 156.376 370.896C154.157 376.571 151.981 381.605 149.848 386H143.192ZM180.079 380.56C182.468 380.56 184.282 380.432 185.519 380.176V371.6C185.092 371.472 184.474 371.344 183.663 371.216C182.852 371.088 181.956 371.024 180.975 371.024C180.122 371.024 179.247 371.088 178.351 371.216C177.498 371.344 176.708 371.579 175.983 371.92C175.3 372.261 174.746 372.752 174.319 373.392C173.892 373.989 173.679 374.757 173.679 375.696C173.679 377.531 174.255 378.811 175.407 379.536C176.559 380.219 178.116 380.56 180.079 380.56ZM179.439 351.696C181.999 351.696 184.154 352.016 185.903 352.656C187.652 353.296 189.039 354.192 190.063 355.344C191.13 356.496 191.876 357.904 192.303 359.568C192.772 361.189 193.007 362.981 193.007 364.944V385.232C191.812 385.488 189.999 385.787 187.567 386.128C185.178 386.512 182.468 386.704 179.439 386.704C177.434 386.704 175.599 386.512 173.935 386.128C172.271 385.744 170.842 385.125 169.647 384.272C168.495 383.419 167.578 382.309 166.895 380.944C166.255 379.579 165.935 377.893 165.935 375.888C165.935 373.968 166.298 372.347 167.023 371.024C167.791 369.701 168.815 368.635 170.095 367.824C171.375 366.971 172.847 366.373 174.511 366.032C176.218 365.648 177.988 365.456 179.823 365.456C180.676 365.456 181.572 365.52 182.511 365.648C183.45 365.733 184.452 365.904 185.519 366.16V364.88C185.519 363.984 185.412 363.131 185.199 362.32C184.986 361.509 184.602 360.805 184.047 360.208C183.535 359.568 182.831 359.077 181.935 358.736C181.082 358.395 179.994 358.224 178.671 358.224C176.879 358.224 175.236 358.352 173.743 358.608C172.25 358.864 171.034 359.163 170.095 359.504L169.135 353.232C170.116 352.891 171.546 352.549 173.423 352.208C175.3 351.867 177.306 351.696 179.439 351.696ZM214.139 386.64C211.835 386.597 209.915 386.341 208.379 385.872C206.885 385.403 205.691 384.741 204.795 383.888C203.899 382.992 203.259 381.904 202.875 380.624C202.533 379.301 202.363 377.808 202.363 376.144V337.616L210.107 336.336V374.672C210.107 375.611 210.171 376.4 210.299 377.04C210.469 377.68 210.747 378.235 211.131 378.704C211.515 379.131 212.027 379.472 212.667 379.728C213.349 379.941 214.203 380.112 215.227 380.24L214.139 386.64ZM219.635 369.424C219.635 366.48 220.061 363.899 220.915 361.68C221.811 359.461 222.984 357.627 224.435 356.176C225.885 354.683 227.549 353.573 229.427 352.848C231.304 352.08 233.224 351.696 235.187 351.696C239.795 351.696 243.379 353.125 245.939 355.984C248.541 358.843 249.843 363.109 249.843 368.784C249.843 369.211 249.821 369.701 249.779 370.256C249.779 370.768 249.757 371.237 249.715 371.664H227.635C227.848 374.352 228.787 376.443 230.451 377.936C232.157 379.387 234.611 380.112 237.811 380.112C239.688 380.112 241.395 379.941 242.931 379.6C244.509 379.259 245.747 378.896 246.643 378.512L247.667 384.848C247.24 385.061 246.643 385.296 245.875 385.552C245.149 385.765 244.296 385.957 243.315 386.128C242.376 386.341 241.352 386.512 240.243 386.64C239.133 386.768 238.003 386.832 236.851 386.832C233.907 386.832 231.347 386.405 229.171 385.552C226.995 384.656 225.203 383.44 223.795 381.904C222.387 380.325 221.341 378.491 220.659 376.4C219.976 374.267 219.635 371.941 219.635 369.424ZM242.099 365.968C242.099 364.901 241.949 363.899 241.651 362.96C241.352 361.979 240.904 361.147 240.307 360.464C239.752 359.739 239.048 359.184 238.195 358.8C237.384 358.373 236.403 358.16 235.251 358.16C234.056 358.16 233.011 358.395 232.115 358.864C231.219 359.291 230.451 359.867 229.811 360.592C229.213 361.317 228.744 362.149 228.403 363.088C228.061 364.027 227.827 364.987 227.699 365.968H242.099ZM258.053 353.616C259.546 353.189 261.488 352.784 263.877 352.4C266.266 352.016 268.912 351.824 271.813 351.824C274.544 351.824 276.826 352.208 278.661 352.976C280.496 353.701 281.946 354.747 283.013 356.112C284.122 357.435 284.89 359.056 285.317 360.976C285.786 362.853 286.021 364.923 286.021 367.184V386H278.277V368.4C278.277 366.608 278.149 365.093 277.893 363.856C277.68 362.576 277.296 361.552 276.741 360.784C276.229 359.973 275.504 359.397 274.565 359.056C273.669 358.672 272.56 358.48 271.237 358.48C270.256 358.48 269.232 358.544 268.165 358.672C267.098 358.8 266.309 358.907 265.797 358.992V386H258.053V353.616ZM295.107 343.696L302.851 342.416V352.528H314.755V358.992H302.851V372.624C302.851 375.312 303.277 377.232 304.131 378.384C304.984 379.536 306.435 380.112 308.483 380.112C309.891 380.112 311.128 379.963 312.195 379.664C313.304 379.365 314.179 379.088 314.819 378.832L316.099 384.976C315.203 385.36 314.029 385.744 312.579 386.128C311.128 386.555 309.421 386.768 307.458 386.768C305.069 386.768 303.064 386.448 301.443 385.808C299.864 385.168 298.605 384.251 297.667 383.056C296.728 381.819 296.067 380.347 295.683 378.64C295.299 376.891 295.107 374.907 295.107 372.688V343.696ZM335.322 369.296C335.322 366.821 335.706 364.517 336.474 362.384C337.242 360.208 338.33 358.331 339.738 356.752C341.189 355.173 342.938 353.936 344.986 353.04C347.034 352.144 349.338 351.696 351.898 351.696C355.055 351.696 358.042 352.272 360.858 353.424L359.194 359.76C358.298 359.376 357.274 359.056 356.122 358.8C355.013 358.544 353.818 358.416 352.538 358.416C349.509 358.416 347.205 359.376 345.626 361.296C344.047 363.173 343.258 365.84 343.258 369.296C343.258 372.624 344.005 375.269 345.498 377.232C346.991 379.152 349.509 380.112 353.05 380.112C354.373 380.112 355.674 379.984 356.954 379.728C358.234 379.472 359.343 379.152 360.282 378.768L361.37 385.168C360.517 385.595 359.215 385.979 357.466 386.32C355.759 386.661 353.989 386.832 352.154 386.832C349.295 386.832 346.799 386.405 344.666 385.552C342.575 384.656 340.826 383.44 339.418 381.904C338.053 380.325 337.029 378.469 336.346 376.336C335.663 374.16 335.322 371.813 335.322 369.296ZM375.75 380.432C377.798 380.432 379.291 380.197 380.23 379.728C381.168 379.216 381.638 378.363 381.638 377.168C381.638 376.059 381.126 375.141 380.102 374.416C379.12 373.691 377.478 372.901 375.174 372.048C373.766 371.536 372.464 371.003 371.27 370.448C370.118 369.851 369.115 369.168 368.262 368.4C367.408 367.632 366.726 366.715 366.214 365.648C365.744 364.539 365.51 363.195 365.51 361.616C365.51 358.544 366.64 356.133 368.902 354.384C371.163 352.592 374.235 351.696 378.118 351.696C380.08 351.696 381.958 351.888 383.75 352.272C385.542 352.613 386.886 352.955 387.782 353.296L386.374 359.568C385.52 359.184 384.432 358.843 383.11 358.544C381.787 358.203 380.251 358.032 378.502 358.032C376.923 358.032 375.643 358.309 374.662 358.864C373.68 359.376 373.19 360.187 373.19 361.296C373.19 361.851 373.275 362.341 373.446 362.768C373.659 363.195 374 363.6 374.47 363.984C374.939 364.325 375.558 364.688 376.326 365.072C377.094 365.413 378.032 365.776 379.142 366.16C380.976 366.843 382.534 367.525 383.814 368.208C385.094 368.848 386.139 369.595 386.95 370.448C387.803 371.259 388.422 372.197 388.806 373.264C389.19 374.331 389.382 375.611 389.382 377.104C389.382 380.304 388.187 382.736 385.798 384.4C383.451 386.021 380.08 386.832 375.686 386.832C372.742 386.832 370.374 386.576 368.582 386.064C366.79 385.595 365.531 385.211 364.806 384.912L366.15 378.448C367.302 378.917 368.667 379.365 370.246 379.792C371.867 380.219 373.702 380.432 375.75 380.432ZM405 380.432C407.048 380.432 408.541 380.197 409.48 379.728C410.418 379.216 410.888 378.363 410.888 377.168C410.888 376.059 410.376 375.141 409.352 374.416C408.37 373.691 406.728 372.901 404.424 372.048C403.016 371.536 401.714 371.003 400.52 370.448C399.368 369.851 398.365 369.168 397.512 368.4C396.658 367.632 395.976 366.715 395.464 365.648C394.994 364.539 394.76 363.195 394.76 361.616C394.76 358.544 395.89 356.133 398.152 354.384C400.413 352.592 403.485 351.696 407.368 351.696C409.33 351.696 411.208 351.888 413 352.272C414.792 352.613 416.136 352.955 417.032 353.296L415.624 359.568C414.77 359.184 413.682 358.843 412.36 358.544C411.037 358.203 409.501 358.032 407.752 358.032C406.173 358.032 404.893 358.309 403.912 358.864C402.93 359.376 402.44 360.187 402.44 361.296C402.44 361.851 402.525 362.341 402.696 362.768C402.909 363.195 403.25 363.6 403.72 363.984C404.189 364.325 404.808 364.688 405.576 365.072C406.344 365.413 407.282 365.776 408.392 366.16C410.226 366.843 411.784 367.525 413.064 368.208C414.344 368.848 415.389 369.595 416.2 370.448C417.053 371.259 417.672 372.197 418.056 373.264C418.44 374.331 418.632 375.611 418.632 377.104C418.632 380.304 417.437 382.736 415.048 384.4C412.701 386.021 409.33 386.832 404.936 386.832C401.992 386.832 399.624 386.576 397.832 386.064C396.04 385.595 394.781 385.211 394.056 384.912L395.4 378.448C396.552 378.917 397.917 379.365 399.496 379.792C401.117 380.219 402.952 380.432 405 380.432ZM434.57 357.84C434.57 359.333 434.058 360.549 433.034 361.488C432.052 362.427 430.858 362.896 429.45 362.896C427.999 362.896 426.783 362.427 425.802 361.488C424.82 360.549 424.33 359.333 424.33 357.84C424.33 356.347 424.82 355.131 425.802 354.192C426.783 353.211 427.999 352.72 429.45 352.72C430.858 352.72 432.052 353.211 433.034 354.192C434.058 355.131 434.57 356.347 434.57 357.84ZM434.57 381.776C434.57 383.269 434.058 384.485 433.034 385.424C432.052 386.363 430.858 386.832 429.45 386.832C427.999 386.832 426.783 386.363 425.802 385.424C424.82 384.485 424.33 383.269 424.33 381.776C424.33 380.283 424.82 379.067 425.802 378.128C426.783 377.147 427.999 376.656 429.45 376.656C430.858 376.656 432.052 377.147 433.034 378.128C434.058 379.067 434.57 380.283 434.57 381.776ZM463.883 368.4C463.883 371.685 464.587 374.096 465.995 375.632C467.446 377.125 469.302 377.872 471.563 377.872C472.8 377.872 473.952 377.701 475.019 377.36C476.128 377.019 477.024 376.613 477.707 376.144V358.8C477.152 358.672 476.47 358.565 475.659 358.48C474.848 358.352 473.824 358.288 472.587 358.288C469.771 358.288 467.616 359.227 466.123 361.104C464.63 362.939 463.883 365.371 463.883 368.4ZM485.451 382.608C485.451 387.941 484.086 391.845 481.355 394.32C478.667 396.795 474.528 398.032 468.939 398.032C466.891 398.032 464.886 397.861 462.923 397.52C461.003 397.179 459.254 396.731 457.675 396.176L459.083 389.584C460.406 390.139 461.899 390.587 463.563 390.928C465.27 391.269 467.104 391.44 469.067 391.44C472.182 391.44 474.4 390.8 475.723 389.52C477.046 388.24 477.707 386.341 477.707 383.824V382.544C476.939 382.928 475.915 383.312 474.635 383.696C473.398 384.08 471.968 384.272 470.347 384.272C468.214 384.272 466.251 383.931 464.459 383.248C462.71 382.565 461.195 381.563 459.915 380.24C458.678 378.917 457.696 377.275 456.971 375.312C456.288 373.307 455.947 371.003 455.947 368.4C455.947 365.968 456.31 363.728 457.035 361.68C457.803 359.632 458.891 357.883 460.299 356.432C461.75 354.981 463.499 353.851 465.547 353.04C467.595 352.229 469.92 351.824 472.523 351.824C475.04 351.824 477.43 352.016 479.691 352.4C481.952 352.784 483.872 353.189 485.451 353.616V382.608ZM514.375 359.504C513.735 359.291 512.839 359.077 511.687 358.864C510.578 358.608 509.276 358.48 507.783 358.48C506.93 358.48 506.012 358.565 505.031 358.736C504.092 358.907 503.431 359.056 503.047 359.184V386H495.303V354.128C496.796 353.573 498.652 353.061 500.871 352.592C503.132 352.08 505.628 351.824 508.359 351.824C508.871 351.824 509.468 351.867 510.151 351.952C510.834 351.995 511.516 352.08 512.199 352.208C512.882 352.293 513.543 352.421 514.183 352.592C514.823 352.72 515.335 352.848 515.719 352.976L514.375 359.504ZM528.924 386H521.18V352.528H528.924V386ZM529.756 342.736C529.756 344.187 529.286 345.339 528.348 346.192C527.409 347.045 526.3 347.472 525.02 347.472C523.697 347.472 522.566 347.045 521.628 346.192C520.689 345.339 520.22 344.187 520.22 342.736C520.22 341.243 520.689 340.069 521.628 339.216C522.566 338.363 523.697 337.936 525.02 337.936C526.3 337.936 527.409 338.363 528.348 339.216C529.286 340.069 529.756 341.243 529.756 342.736ZM544.883 369.168C544.883 372.581 545.694 375.269 547.315 377.232C548.936 379.152 551.176 380.112 554.035 380.112C555.272 380.112 556.318 380.069 557.171 379.984C558.067 379.856 558.792 379.728 559.347 379.6V360.4C558.664 359.931 557.747 359.504 556.595 359.12C555.486 358.693 554.291 358.48 553.011 358.48C550.195 358.48 548.126 359.44 546.803 361.36C545.523 363.28 544.883 365.883 544.883 369.168ZM567.091 384.976C565.555 385.445 563.614 385.872 561.267 386.256C558.963 386.64 556.531 386.832 553.971 386.832C551.326 386.832 548.958 386.427 546.867 385.616C544.776 384.805 542.984 383.653 541.491 382.16C540.04 380.624 538.91 378.789 538.099 376.656C537.331 374.48 536.947 372.048 536.947 369.36C536.947 366.715 537.267 364.325 537.907 362.192C538.59 360.016 539.571 358.16 540.851 356.624C542.131 355.088 543.688 353.915 545.523 353.104C547.358 352.251 549.47 351.824 551.859 351.824C553.48 351.824 554.91 352.016 556.147 352.4C557.384 352.784 558.451 353.211 559.347 353.68V337.616L567.091 336.336V384.976ZM573.472 364.176H590.688V371.28H573.472V364.176ZM596.732 343.696L604.476 342.416V352.528H616.38V358.992H604.476V372.624C604.476 375.312 604.902 377.232 605.756 378.384C606.609 379.536 608.06 380.112 610.108 380.112C611.516 380.112 612.753 379.963 613.82 379.664C614.929 379.365 615.804 379.088 616.444 378.832L617.724 384.976C616.828 385.36 615.654 385.744 614.204 386.128C612.753 386.555 611.046 386.768 609.083 386.768C606.694 386.768 604.689 386.448 603.068 385.808C601.489 385.168 600.23 384.251 599.292 383.056C598.353 381.819 597.692 380.347 597.308 378.64C596.924 376.891 596.732 374.907 596.732 372.688V343.696ZM621.447 369.424C621.447 366.48 621.874 363.899 622.727 361.68C623.623 359.461 624.796 357.627 626.247 356.176C627.698 354.683 629.362 353.573 631.239 352.848C633.116 352.08 635.036 351.696 636.999 351.696C641.607 351.696 645.191 353.125 647.751 355.984C650.354 358.843 651.655 363.109 651.655 368.784C651.655 369.211 651.634 369.701 651.591 370.256C651.591 370.768 651.57 371.237 651.527 371.664H629.447C629.66 374.352 630.599 376.443 632.263 377.936C633.97 379.387 636.423 380.112 639.623 380.112C641.5 380.112 643.207 379.941 644.743 379.6C646.322 379.259 647.559 378.896 648.455 378.512L649.479 384.848C649.052 385.061 648.455 385.296 647.687 385.552C646.962 385.765 646.108 385.957 645.127 386.128C644.188 386.341 643.164 386.512 642.055 386.64C640.946 386.768 639.815 386.832 638.663 386.832C635.719 386.832 633.159 386.405 630.983 385.552C628.807 384.656 627.015 383.44 625.607 381.904C624.199 380.325 623.154 378.491 622.471 376.4C621.788 374.267 621.447 371.941 621.447 369.424ZM643.911 365.968C643.911 364.901 643.762 363.899 643.463 362.96C643.164 361.979 642.716 361.147 642.119 360.464C641.564 359.739 640.86 359.184 640.007 358.8C639.196 358.373 638.215 358.16 637.063 358.16C635.868 358.16 634.823 358.395 633.927 358.864C633.031 359.291 632.263 359.867 631.623 360.592C631.026 361.317 630.556 362.149 630.215 363.088C629.874 364.027 629.639 364.987 629.511 365.968H643.911ZM678.938 368.4C678.938 364.901 678.49 362.384 677.594 360.848C676.74 359.269 675.119 358.48 672.73 358.48C671.876 358.48 670.938 358.544 669.914 358.672C668.89 358.8 668.122 358.907 667.61 358.992V386H659.866V353.616C661.359 353.189 663.3 352.784 665.69 352.4C668.122 352.016 670.682 351.824 673.37 351.824C675.674 351.824 677.551 352.123 679.002 352.72C680.495 353.317 681.732 354.107 682.714 355.088C683.183 354.747 683.78 354.384 684.506 354C685.231 353.616 686.042 353.275 686.938 352.976C687.834 352.635 688.772 352.357 689.754 352.144C690.778 351.931 691.802 351.824 692.826 351.824C695.428 351.824 697.562 352.208 699.226 352.976C700.932 353.701 702.255 354.747 703.194 356.112C704.175 357.435 704.836 359.056 705.178 360.976C705.562 362.853 705.754 364.923 705.754 367.184V386H698.01V368.4C698.01 364.901 697.583 362.384 696.73 360.848C695.876 359.269 694.234 358.48 691.802 358.48C690.564 358.48 689.391 358.693 688.282 359.12C687.172 359.504 686.34 359.888 685.786 360.272C686.127 361.339 686.362 362.469 686.49 363.664C686.618 364.859 686.682 366.139 686.682 367.504V386H678.938V368.4ZM737.449 369.424C737.449 365.968 736.659 363.28 735.081 361.36C733.545 359.44 731.049 358.48 727.593 358.48C726.867 358.48 726.099 358.523 725.289 358.608C724.521 358.651 723.753 358.779 722.985 358.992V378.128C723.667 378.597 724.563 379.045 725.673 379.472C726.825 379.856 728.041 380.048 729.321 380.048C732.137 380.048 734.185 379.088 735.465 377.168C736.787 375.248 737.449 372.667 737.449 369.424ZM745.385 369.296C745.385 371.856 745.043 374.203 744.361 376.336C743.721 378.469 742.782 380.304 741.545 381.84C740.307 383.376 738.75 384.571 736.873 385.424C735.038 386.277 732.947 386.704 730.601 386.704C729.022 386.704 727.571 386.512 726.249 386.128C724.926 385.744 723.838 385.317 722.985 384.848V397.84H715.241V353.616C716.819 353.189 718.761 352.784 721.065 352.4C723.369 352.016 725.801 351.824 728.361 351.824C731.006 351.824 733.374 352.229 735.465 353.04C737.555 353.851 739.326 355.024 740.777 356.56C742.27 358.053 743.401 359.888 744.169 362.064C744.979 364.197 745.385 366.608 745.385 369.296ZM765.014 386.64C762.71 386.597 760.79 386.341 759.254 385.872C757.76 385.403 756.566 384.741 755.67 383.888C754.774 382.992 754.134 381.904 753.75 380.624C753.408 379.301 753.238 377.808 753.238 376.144V337.616L760.982 336.336V374.672C760.982 375.611 761.046 376.4 761.174 377.04C761.344 377.68 761.622 378.235 762.006 378.704C762.39 379.131 762.902 379.472 763.542 379.728C764.224 379.941 765.078 380.112 766.102 380.24L765.014 386.64ZM784.142 380.56C786.531 380.56 788.344 380.432 789.582 380.176V371.6C789.155 371.472 788.536 371.344 787.726 371.216C786.915 371.088 786.019 371.024 785.038 371.024C784.184 371.024 783.31 371.088 782.414 371.216C781.56 371.344 780.771 371.579 780.046 371.92C779.363 372.261 778.808 372.752 778.382 373.392C777.955 373.989 777.742 374.757 777.742 375.696C777.742 377.531 778.318 378.811 779.47 379.536C780.622 380.219 782.179 380.56 784.142 380.56ZM783.502 351.696C786.062 351.696 788.216 352.016 789.966 352.656C791.715 353.296 793.102 354.192 794.126 355.344C795.192 356.496 795.939 357.904 796.366 359.568C796.835 361.189 797.07 362.981 797.07 364.944V385.232C795.875 385.488 794.062 385.787 791.63 386.128C789.24 386.512 786.531 386.704 783.502 386.704C781.496 386.704 779.662 386.512 777.998 386.128C776.334 385.744 774.904 385.125 773.71 384.272C772.558 383.419 771.64 382.309 770.958 380.944C770.318 379.579 769.998 377.893 769.998 375.888C769.998 373.968 770.36 372.347 771.086 371.024C771.854 369.701 772.878 368.635 774.158 367.824C775.438 366.971 776.91 366.373 778.574 366.032C780.28 365.648 782.051 365.456 783.885 365.456C784.739 365.456 785.635 365.52 786.574 365.648C787.512 365.733 788.515 365.904 789.582 366.16V364.88C789.582 363.984 789.475 363.131 789.262 362.32C789.048 361.509 788.664 360.805 788.11 360.208C787.598 359.568 786.894 359.077 785.998 358.736C785.144 358.395 784.056 358.224 782.734 358.224C780.942 358.224 779.299 358.352 777.806 358.608C776.312 358.864 775.096 359.163 774.158 359.504L773.198 353.232C774.179 352.891 775.608 352.549 777.486 352.208C779.363 351.867 781.368 351.696 783.502 351.696ZM806.169 343.696L813.913 342.416V352.528H825.817V358.992H813.913V372.624C813.913 375.312 814.34 377.232 815.193 378.384C816.046 379.536 817.497 380.112 819.545 380.112C820.953 380.112 822.19 379.963 823.257 379.664C824.366 379.365 825.241 379.088 825.881 378.832L827.161 384.976C826.265 385.36 825.092 385.744 823.641 386.128C822.19 386.555 820.484 386.768 818.521 386.768C816.132 386.768 814.126 386.448 812.505 385.808C810.926 385.168 809.668 384.251 808.729 383.056C807.79 381.819 807.129 380.347 806.745 378.64C806.361 376.891 806.169 374.907 806.169 372.688V343.696ZM830.885 369.424C830.885 366.48 831.311 363.899 832.165 361.68C833.061 359.461 834.234 357.627 835.685 356.176C837.135 354.683 838.799 353.573 840.677 352.848C842.554 352.08 844.474 351.696 846.437 351.696C851.045 351.696 854.629 353.125 857.189 355.984C859.791 358.843 861.093 363.109 861.093 368.784C861.093 369.211 861.071 369.701 861.029 370.256C861.029 370.768 861.007 371.237 860.965 371.664H838.885C839.098 374.352 840.037 376.443 841.701 377.936C843.407 379.387 845.861 380.112 849.061 380.112C850.938 380.112 852.645 379.941 854.181 379.6C855.759 379.259 856.997 378.896 857.893 378.512L858.917 384.848C858.49 385.061 857.893 385.296 857.125 385.552C856.399 385.765 855.546 385.957 854.565 386.128C853.626 386.341 852.602 386.512 851.493 386.64C850.383 386.768 849.253 386.832 848.101 386.832C845.157 386.832 842.597 386.405 840.421 385.552C838.245 384.656 836.453 383.44 835.045 381.904C833.637 380.325 832.591 378.491 831.909 376.4C831.226 374.267 830.885 371.941 830.885 369.424ZM853.349 365.968C853.349 364.901 853.199 363.899 852.901 362.96C852.602 361.979 852.154 361.147 851.557 360.464C851.002 359.739 850.298 359.184 849.445 358.8C848.634 358.373 847.653 358.16 846.501 358.16C845.306 358.16 844.261 358.395 843.365 358.864C842.469 359.291 841.701 359.867 841.061 360.592C840.463 361.317 839.994 362.149 839.653 363.088C839.311 364.027 839.077 364.987 838.949 365.968H853.349ZM865.847 364.176H883.063V371.28H865.847V364.176ZM908.563 359.504C907.923 359.291 907.027 359.077 905.875 358.864C904.765 358.608 903.464 358.48 901.971 358.48C901.117 358.48 900.2 358.565 899.219 358.736C898.28 358.907 897.619 359.056 897.235 359.184V386H889.491V354.128C890.984 353.573 892.84 353.061 895.059 352.592C897.32 352.08 899.816 351.824 902.547 351.824C903.059 351.824 903.656 351.867 904.339 351.952C905.021 351.995 905.704 352.08 906.387 352.208C907.069 352.293 907.731 352.421 908.371 352.592C909.011 352.72 909.523 352.848 909.907 352.976L908.563 359.504ZM945.575 369.232C945.575 371.877 945.191 374.288 944.423 376.464C943.655 378.64 942.567 380.496 941.159 382.032C939.751 383.568 938.044 384.763 936.039 385.616C934.076 386.469 931.9 386.896 929.511 386.896C927.122 386.896 924.946 386.469 922.983 385.616C921.02 384.763 919.335 383.568 917.927 382.032C916.519 380.496 915.41 378.64 914.599 376.464C913.831 374.288 913.447 371.877 913.447 369.232C913.447 366.587 913.831 364.197 914.599 362.064C915.41 359.888 916.519 358.032 917.927 356.496C919.378 354.96 921.084 353.787 923.047 352.976C925.01 352.123 927.164 351.696 929.511 351.696C931.858 351.696 934.012 352.123 935.975 352.976C937.98 353.787 939.687 354.96 941.095 356.496C942.503 358.032 943.591 359.888 944.359 362.064C945.17 364.197 945.575 366.587 945.575 369.232ZM937.639 369.232C937.639 365.904 936.914 363.28 935.463 361.36C934.055 359.397 932.071 358.416 929.511 358.416C926.951 358.416 924.946 359.397 923.495 361.36C922.087 363.28 921.383 365.904 921.383 369.232C921.383 372.603 922.087 375.269 923.495 377.232C924.946 379.195 926.951 380.176 929.511 380.176C932.071 380.176 934.055 379.195 935.463 377.232C936.914 375.269 937.639 372.603 937.639 369.232ZM972.834 364.944C971.852 368.699 970.786 372.368 969.634 375.952C968.524 379.493 967.415 382.843 966.306 386H959.97C959.116 384.037 958.22 381.797 957.282 379.28C956.343 376.763 955.404 374.075 954.466 371.216C953.527 368.357 952.588 365.349 951.65 362.192C950.711 359.035 949.794 355.813 948.898 352.528H957.09C957.474 354.32 957.922 356.261 958.434 358.352C958.946 360.4 959.479 362.512 960.034 364.688C960.588 366.821 961.164 368.912 961.762 370.96C962.359 373.008 962.956 374.885 963.554 376.592C964.194 374.629 964.812 372.603 965.41 370.512C966.05 368.421 966.647 366.331 967.202 364.24C967.756 362.149 968.268 360.123 968.738 358.16C969.25 356.155 969.698 354.277 970.082 352.528H976.034C976.418 354.277 976.844 356.155 977.314 358.16C977.783 360.123 978.274 362.149 978.786 364.24C979.34 366.331 979.916 368.421 980.514 370.512C981.154 372.603 981.794 374.629 982.434 376.592C982.988 374.885 983.564 373.008 984.162 370.96C984.759 368.912 985.335 366.821 985.89 364.688C986.487 362.512 987.042 360.4 987.554 358.352C988.066 356.261 988.514 354.32 988.898 352.528H996.898C996.002 355.813 995.084 359.035 994.146 362.192C993.207 365.349 992.268 368.357 991.33 371.216C990.391 374.075 989.452 376.763 988.514 379.28C987.575 381.797 986.658 384.037 985.762 386H979.49C978.38 382.843 977.228 379.493 976.034 375.952C974.882 372.368 973.815 368.699 972.834 364.944ZM1011.19 380.432C1013.24 380.432 1014.73 380.197 1015.67 379.728C1016.61 379.216 1017.08 378.363 1017.08 377.168C1017.08 376.059 1016.56 375.141 1015.54 374.416C1014.56 373.691 1012.92 372.901 1010.61 372.048C1009.2 371.536 1007.9 371.003 1006.71 370.448C1005.56 369.851 1004.55 369.168 1003.7 368.4C1002.85 367.632 1002.16 366.715 1001.65 365.648C1001.18 364.539 1000.95 363.195 1000.95 361.616C1000.95 358.544 1002.08 356.133 1004.34 354.384C1006.6 352.592 1009.67 351.696 1013.56 351.696C1015.52 351.696 1017.4 351.888 1019.19 352.272C1020.98 352.613 1022.32 352.955 1023.22 353.296L1021.81 359.568C1020.96 359.184 1019.87 358.843 1018.55 358.544C1017.22 358.203 1015.69 358.032 1013.94 358.032C1012.36 358.032 1011.08 358.309 1010.1 358.864C1009.12 359.376 1008.63 360.187 1008.63 361.296C1008.63 361.851 1008.71 362.341 1008.88 362.768C1009.1 363.195 1009.44 363.6 1009.91 363.984C1010.38 364.325 1011 364.688 1011.76 365.072C1012.53 365.413 1013.47 365.776 1014.58 366.16C1016.41 366.843 1017.97 367.525 1019.25 368.208C1020.53 368.848 1021.58 369.595 1022.39 370.448C1023.24 371.259 1023.86 372.197 1024.24 373.264C1024.63 374.331 1024.82 375.611 1024.82 377.104C1024.82 380.304 1023.62 382.736 1021.24 384.4C1018.89 386.021 1015.52 386.832 1011.12 386.832C1008.18 386.832 1005.81 386.576 1004.02 386.064C1002.23 385.595 1000.97 385.211 1000.24 384.912L1001.59 378.448C1002.74 378.917 1004.1 379.365 1005.68 379.792C1007.3 380.219 1009.14 380.432 1011.19 380.432Z" fill="#60195E"/>
<path d="M18.75 549.988C18.17 549.795 17.358 549.601 16.314 549.408C15.3087 549.176 14.1293 549.06 12.776 549.06C12.0027 549.06 11.1713 549.137 10.282 549.292C9.43133 549.447 8.832 549.582 8.484 549.698V574H1.466V545.116C2.81933 544.613 4.50133 544.149 6.512 543.724C8.56133 543.26 10.8233 543.028 13.298 543.028C13.762 543.028 14.3033 543.067 14.922 543.144C15.5407 543.183 16.1593 543.26 16.778 543.376C17.3967 543.453 17.996 543.569 18.576 543.724C19.156 543.84 19.62 543.956 19.968 544.072L18.75 549.988ZM52.2926 558.804C52.2926 561.201 51.9446 563.386 51.2486 565.358C50.5526 567.33 49.5666 569.012 48.2906 570.404C47.0146 571.796 45.4679 572.879 43.6506 573.652C41.8719 574.425 39.8999 574.812 37.7346 574.812C35.5692 574.812 33.5972 574.425 31.8186 573.652C30.0399 572.879 28.5126 571.796 27.2366 570.404C25.9606 569.012 24.9552 567.33 24.2206 565.358C23.5246 563.386 23.1766 561.201 23.1766 558.804C23.1766 556.407 23.5246 554.241 24.2206 552.308C24.9552 550.336 25.9606 548.654 27.2366 547.262C28.5512 545.87 30.0979 544.807 31.8766 544.072C33.6552 543.299 35.6079 542.912 37.7346 542.912C39.8612 542.912 41.8139 543.299 43.5926 544.072C45.4099 544.807 46.9566 545.87 48.2326 547.262C49.5086 548.654 50.4946 550.336 51.1906 552.308C51.9252 554.241 52.2926 556.407 52.2926 558.804ZM45.1006 558.804C45.1006 555.788 44.4432 553.41 43.1286 551.67C41.8526 549.891 40.0546 549.002 37.7346 549.002C35.4146 549.002 33.5972 549.891 32.2826 551.67C31.0066 553.41 30.3686 555.788 30.3686 558.804C30.3686 561.859 31.0066 564.275 32.2826 566.054C33.5972 567.833 35.4146 568.722 37.7346 568.722C40.0546 568.722 41.8526 567.833 43.1286 566.054C44.4432 564.275 45.1006 561.859 45.1006 558.804ZM76.9956 554.918C76.1063 558.321 75.1396 561.646 74.0956 564.894C73.0903 568.103 72.0849 571.139 71.0796 574H65.3376C64.5643 572.221 63.7523 570.191 62.9016 567.91C62.0509 565.629 61.2003 563.193 60.3496 560.602C59.4989 558.011 58.6483 555.285 57.7976 552.424C56.9469 549.563 56.1156 546.643 55.3036 543.666H62.7276C63.0756 545.29 63.4816 547.049 63.9456 548.944C64.4096 550.8 64.8929 552.714 65.3956 554.686C65.8983 556.619 66.4203 558.514 66.9616 560.37C67.5029 562.226 68.0443 563.927 68.5856 565.474C69.1656 563.695 69.7263 561.859 70.2676 559.964C70.8476 558.069 71.3889 556.175 71.8916 554.28C72.3943 552.385 72.8583 550.549 73.2836 548.77C73.7476 546.953 74.1536 545.251 74.5016 543.666H79.8956C80.2436 545.251 80.6303 546.953 81.0556 548.77C81.4809 550.549 81.9256 552.385 82.3896 554.28C82.8923 556.175 83.4143 558.069 83.9556 559.964C84.5356 561.859 85.1156 563.695 85.6956 565.474C86.1983 563.927 86.7203 562.226 87.2616 560.37C87.8029 558.514 88.3249 556.619 88.8276 554.686C89.3689 552.714 89.8716 550.8 90.3356 548.944C90.7996 547.049 91.2056 545.29 91.5536 543.666H98.8036C97.9916 546.643 97.1603 549.563 96.3096 552.424C95.4589 555.285 94.6083 558.011 93.7576 560.602C92.9069 563.193 92.0563 565.629 91.2056 567.91C90.3549 570.191 89.5236 572.221 88.7116 574H83.0276C82.0223 571.139 80.9783 568.103 79.8956 564.894C78.8516 561.646 77.8849 558.321 76.9956 554.918ZM111.753 568.954C113.609 568.954 114.963 568.741 115.813 568.316C116.664 567.852 117.089 567.079 117.089 565.996C117.089 564.991 116.625 564.159 115.697 563.502C114.808 562.845 113.319 562.129 111.231 561.356C109.955 560.892 108.776 560.409 107.693 559.906C106.649 559.365 105.741 558.746 104.967 558.05C104.194 557.354 103.575 556.523 103.111 555.556C102.686 554.551 102.473 553.333 102.473 551.902C102.473 549.118 103.498 546.933 105.547 545.348C107.597 543.724 110.381 542.912 113.899 542.912C115.678 542.912 117.379 543.086 119.003 543.434C120.627 543.743 121.845 544.053 122.657 544.362L121.381 550.046C120.608 549.698 119.622 549.389 118.423 549.118C117.225 548.809 115.833 548.654 114.247 548.654C112.817 548.654 111.657 548.905 110.767 549.408C109.878 549.872 109.433 550.607 109.433 551.612C109.433 552.115 109.511 552.559 109.665 552.946C109.859 553.333 110.168 553.7 110.593 554.048C111.019 554.357 111.579 554.686 112.275 555.034C112.971 555.343 113.822 555.672 114.827 556.02C116.49 556.639 117.901 557.257 119.061 557.876C120.221 558.456 121.169 559.133 121.903 559.906C122.677 560.641 123.237 561.491 123.585 562.458C123.933 563.425 124.107 564.585 124.107 565.938C124.107 568.838 123.025 571.042 120.859 572.55C118.733 574.019 115.678 574.754 111.695 574.754C109.027 574.754 106.881 574.522 105.257 574.058C103.633 573.633 102.493 573.285 101.835 573.014L103.053 567.156C104.097 567.581 105.335 567.987 106.765 568.374C108.235 568.761 109.897 568.954 111.753 568.954ZM138.551 548.48C138.551 549.833 138.087 550.935 137.159 551.786C136.27 552.637 135.187 553.062 133.911 553.062C132.597 553.062 131.495 552.637 130.605 551.786C129.716 550.935 129.271 549.833 129.271 548.48C129.271 547.127 129.716 546.025 130.605 545.174C131.495 544.285 132.597 543.84 133.911 543.84C135.187 543.84 136.27 544.285 137.159 545.174C138.087 546.025 138.551 547.127 138.551 548.48ZM138.551 570.172C138.551 571.525 138.087 572.627 137.159 573.478C136.27 574.329 135.187 574.754 133.911 574.754C132.597 574.754 131.495 574.329 130.605 573.478C129.716 572.627 129.271 571.525 129.271 570.172C129.271 568.819 129.716 567.717 130.605 566.866C131.495 565.977 132.597 565.532 133.911 565.532C135.187 565.532 136.27 565.977 137.159 566.866C138.087 567.717 138.551 568.819 138.551 570.172ZM177.355 562.516C177.355 561.24 177.103 560.099 176.601 559.094C176.098 558.089 175.209 557.238 173.933 556.542C172.695 555.846 171.013 555.324 168.887 554.976C166.799 554.628 164.15 554.454 160.941 554.454C161.366 550.742 161.695 547.223 161.927 543.898C162.159 540.534 162.352 537.17 162.507 533.806H183.039V539.722H168.481C168.442 540.379 168.384 541.133 168.307 541.984C168.268 542.796 168.21 543.627 168.133 544.478C168.094 545.329 168.036 546.141 167.959 546.914C167.881 547.687 167.804 548.345 167.727 548.886C173.449 549.195 177.664 550.51 180.371 552.83C183.116 555.111 184.489 558.243 184.489 562.226C184.489 564.043 184.179 565.725 183.561 567.272C182.942 568.819 181.995 570.153 180.719 571.274C179.443 572.395 177.838 573.285 175.905 573.942C173.971 574.561 171.709 574.87 169.119 574.87C168.075 574.87 167.011 574.793 165.929 574.638C164.846 574.483 163.802 574.29 162.797 574.058C161.83 573.865 160.96 573.652 160.187 573.42C159.413 573.188 158.833 572.975 158.447 572.782L159.781 566.866C160.593 567.253 161.753 567.678 163.261 568.142C164.807 568.567 166.683 568.78 168.887 568.78C170.395 568.78 171.69 568.625 172.773 568.316C173.855 567.968 174.725 567.504 175.383 566.924C176.079 566.344 176.581 565.687 176.891 564.952C177.2 564.179 177.355 563.367 177.355 562.516ZM218.555 553.874C218.555 560.641 217.318 565.841 214.843 569.476C212.369 573.072 208.947 574.87 204.577 574.87C200.208 574.87 196.786 573.072 194.311 569.476C191.837 565.841 190.599 560.641 190.599 553.874C190.599 550.51 190.909 547.533 191.527 544.942C192.185 542.313 193.113 540.109 194.311 538.33C195.549 536.551 197.018 535.198 198.719 534.27C200.459 533.342 202.412 532.878 204.577 532.878C208.947 532.878 212.369 534.695 214.843 538.33C217.318 541.926 218.555 547.107 218.555 553.874ZM211.305 553.874C211.305 551.786 211.189 549.833 210.957 548.016C210.725 546.199 210.339 544.633 209.797 543.318C209.295 541.965 208.618 540.901 207.767 540.128C206.917 539.355 205.853 538.968 204.577 538.968C203.301 538.968 202.219 539.355 201.329 540.128C200.479 540.901 199.783 541.965 199.241 543.318C198.739 544.633 198.371 546.199 198.139 548.016C197.946 549.833 197.849 551.786 197.849 553.874C197.849 555.962 197.946 557.915 198.139 559.732C198.371 561.549 198.739 563.135 199.241 564.488C199.783 565.803 200.479 566.847 201.329 567.62C202.219 568.393 203.301 568.78 204.577 568.78C205.853 568.78 206.917 568.393 207.767 567.62C208.618 566.847 209.295 565.803 209.797 564.488C210.339 563.135 210.725 561.549 210.957 559.732C211.189 557.915 211.305 555.962 211.305 553.874ZM243.284 543.898C243.284 547.417 242.376 550.123 240.558 552.018C238.78 553.913 236.44 554.86 233.54 554.86C232.11 554.86 230.795 554.628 229.596 554.164C228.398 553.661 227.373 552.946 226.522 552.018C225.672 551.09 224.995 549.949 224.492 548.596C224.028 547.204 223.796 545.638 223.796 543.898C223.796 540.341 224.686 537.634 226.464 535.778C228.282 533.883 230.64 532.936 233.54 532.936C236.44 532.936 238.78 533.883 240.558 535.778C242.376 537.634 243.284 540.341 243.284 543.898ZM237.774 543.898C237.774 541.849 237.388 540.321 236.614 539.316C235.88 538.272 234.855 537.75 233.54 537.75C232.226 537.75 231.201 538.272 230.466 539.316C229.732 540.321 229.364 541.849 229.364 543.898C229.364 545.947 229.732 547.494 230.466 548.538C231.201 549.543 232.226 550.046 233.54 550.046C234.855 550.046 235.88 549.543 236.614 548.538C237.388 547.494 237.774 545.947 237.774 543.898ZM255.058 533.806H261.728L239.05 574H232.38L255.058 533.806ZM270.37 563.966C270.37 567.485 269.462 570.191 267.644 572.086C265.866 573.981 263.526 574.928 260.626 574.928C259.196 574.928 257.881 574.677 256.682 574.174C255.484 573.71 254.459 573.014 253.608 572.086C252.758 571.158 252.081 570.017 251.578 568.664C251.114 567.272 250.882 565.706 250.882 563.966C250.882 560.409 251.772 557.702 253.55 555.846C255.368 553.951 257.726 553.004 260.626 553.004C263.526 553.004 265.866 553.951 267.644 555.846C269.462 557.702 270.37 560.409 270.37 563.966ZM264.86 563.966C264.86 561.917 264.474 560.389 263.7 559.384C262.966 558.34 261.941 557.818 260.626 557.818C259.312 557.818 258.287 558.34 257.552 559.384C256.818 560.389 256.45 561.917 256.45 563.966C256.45 566.015 256.818 567.562 257.552 568.606C258.287 569.611 259.312 570.114 260.626 570.114C261.941 570.114 262.966 569.611 263.7 568.606C264.474 567.562 264.86 566.015 264.86 563.966ZM308.874 562.516C308.874 561.24 308.623 560.099 308.12 559.094C307.617 558.089 306.728 557.238 305.452 556.542C304.215 555.846 302.533 555.324 300.406 554.976C298.318 554.628 295.669 554.454 292.46 554.454C292.885 550.742 293.214 547.223 293.446 543.898C293.678 540.534 293.871 537.17 294.026 533.806H314.558V539.722H300C299.961 540.379 299.903 541.133 299.826 541.984C299.787 542.796 299.729 543.627 299.652 544.478C299.613 545.329 299.555 546.141 299.478 546.914C299.401 547.687 299.323 548.345 299.246 548.886C304.969 549.195 309.183 550.51 311.89 552.83C314.635 555.111 316.008 558.243 316.008 562.226C316.008 564.043 315.699 565.725 315.08 567.272C314.461 568.819 313.514 570.153 312.238 571.274C310.962 572.395 309.357 573.285 307.424 573.942C305.491 574.561 303.229 574.87 300.638 574.87C299.594 574.87 298.531 574.793 297.448 574.638C296.365 574.483 295.321 574.29 294.316 574.058C293.349 573.865 292.479 573.652 291.706 573.42C290.933 573.188 290.353 572.975 289.966 572.782L291.3 566.866C292.112 567.253 293.272 567.678 294.78 568.142C296.327 568.567 298.202 568.78 300.406 568.78C301.914 568.78 303.209 568.625 304.292 568.316C305.375 567.968 306.245 567.504 306.902 566.924C307.598 566.344 308.101 565.687 308.41 564.952C308.719 564.179 308.874 563.367 308.874 562.516ZM350.075 553.874C350.075 560.641 348.838 565.841 346.363 569.476C343.888 573.072 340.466 574.87 336.097 574.87C331.728 574.87 328.306 573.072 325.831 569.476C323.356 565.841 322.119 560.641 322.119 553.874C322.119 550.51 322.428 547.533 323.047 544.942C323.704 542.313 324.632 540.109 325.831 538.33C327.068 536.551 328.538 535.198 330.239 534.27C331.979 533.342 333.932 532.878 336.097 532.878C340.466 532.878 343.888 534.695 346.363 538.33C348.838 541.926 350.075 547.107 350.075 553.874ZM342.825 553.874C342.825 551.786 342.709 549.833 342.477 548.016C342.245 546.199 341.858 544.633 341.317 543.318C340.814 541.965 340.138 540.901 339.287 540.128C338.436 539.355 337.373 538.968 336.097 538.968C334.821 538.968 333.738 539.355 332.849 540.128C331.998 540.901 331.302 541.965 330.761 543.318C330.258 544.633 329.891 546.199 329.659 548.016C329.466 549.833 329.369 551.786 329.369 553.874C329.369 555.962 329.466 557.915 329.659 559.732C329.891 561.549 330.258 563.135 330.761 564.488C331.302 565.803 331.998 566.847 332.849 567.62C333.738 568.393 334.821 568.78 336.097 568.78C337.373 568.78 338.436 568.393 339.287 567.62C340.138 566.847 340.814 565.803 341.317 564.488C341.858 563.135 342.245 561.549 342.477 559.732C342.709 557.915 342.825 555.962 342.825 553.874ZM374.804 543.898C374.804 547.417 373.895 550.123 372.078 552.018C370.299 553.913 367.96 554.86 365.06 554.86C363.629 554.86 362.315 554.628 361.116 554.164C359.917 553.661 358.893 552.946 358.042 552.018C357.191 551.09 356.515 549.949 356.012 548.596C355.548 547.204 355.316 545.638 355.316 543.898C355.316 540.341 356.205 537.634 357.984 535.778C359.801 533.883 362.16 532.936 365.06 532.936C367.96 532.936 370.299 533.883 372.078 535.778C373.895 537.634 374.804 540.341 374.804 543.898ZM369.294 543.898C369.294 541.849 368.907 540.321 368.134 539.316C367.399 538.272 366.375 537.75 365.06 537.75C363.745 537.75 362.721 538.272 361.986 539.316C361.251 540.321 360.884 541.849 360.884 543.898C360.884 545.947 361.251 547.494 361.986 548.538C362.721 549.543 363.745 550.046 365.06 550.046C366.375 550.046 367.399 549.543 368.134 548.538C368.907 547.494 369.294 545.947 369.294 543.898ZM386.578 533.806H393.248L370.57 574H363.9L386.578 533.806ZM401.89 563.966C401.89 567.485 400.981 570.191 399.164 572.086C397.385 573.981 395.046 574.928 392.146 574.928C390.715 574.928 389.401 574.677 388.202 574.174C387.003 573.71 385.979 573.014 385.128 572.086C384.277 571.158 383.601 570.017 383.098 568.664C382.634 567.272 382.402 565.706 382.402 563.966C382.402 560.409 383.291 557.702 385.07 555.846C386.887 553.951 389.246 553.004 392.146 553.004C395.046 553.004 397.385 553.951 399.164 555.846C400.981 557.702 401.89 560.409 401.89 563.966ZM396.38 563.966C396.38 561.917 395.993 560.389 395.22 559.384C394.485 558.34 393.461 557.818 392.146 557.818C390.831 557.818 389.807 558.34 389.072 559.384C388.337 560.389 387.97 561.917 387.97 563.966C387.97 566.015 388.337 567.562 389.072 568.606C389.807 569.611 390.831 570.114 392.146 570.114C393.461 570.114 394.485 569.611 395.22 568.606C395.993 567.562 396.38 566.015 396.38 563.966Z" fill="#60195E"/>
<path d="M1334.75 86.988C1334.17 86.7947 1333.36 86.6013 1332.31 86.408C1331.31 86.176 1330.13 86.06 1328.78 86.06C1328 86.06 1327.17 86.1373 1326.28 86.292C1325.43 86.4467 1324.83 86.582 1324.48 86.698V111H1317.47V82.116C1318.82 81.6133 1320.5 81.1493 1322.51 80.724C1324.56 80.26 1326.82 80.028 1329.3 80.028C1329.76 80.028 1330.3 80.0667 1330.92 80.144C1331.54 80.1827 1332.16 80.26 1332.78 80.376C1333.4 80.4533 1334 80.5693 1334.58 80.724C1335.16 80.84 1335.62 80.956 1335.97 81.072L1334.75 86.988ZM1368.29 95.804C1368.29 98.2013 1367.94 100.386 1367.25 102.358C1366.55 104.33 1365.57 106.012 1364.29 107.404C1363.01 108.796 1361.47 109.879 1359.65 110.652C1357.87 111.425 1355.9 111.812 1353.73 111.812C1351.57 111.812 1349.6 111.425 1347.82 110.652C1346.04 109.879 1344.51 108.796 1343.24 107.404C1341.96 106.012 1340.96 104.33 1340.22 102.358C1339.52 100.386 1339.18 98.2013 1339.18 95.804C1339.18 93.4067 1339.52 91.2413 1340.22 89.308C1340.96 87.336 1341.96 85.654 1343.24 84.262C1344.55 82.87 1346.1 81.8067 1347.88 81.072C1349.66 80.2987 1351.61 79.912 1353.73 79.912C1355.86 79.912 1357.81 80.2987 1359.59 81.072C1361.41 81.8067 1362.96 82.87 1364.23 84.262C1365.51 85.654 1366.49 87.336 1367.19 89.308C1367.93 91.2413 1368.29 93.4067 1368.29 95.804ZM1361.1 95.804C1361.1 92.788 1360.44 90.41 1359.13 88.67C1357.85 86.8913 1356.05 86.002 1353.73 86.002C1351.41 86.002 1349.6 86.8913 1348.28 88.67C1347.01 90.41 1346.37 92.788 1346.37 95.804C1346.37 98.8587 1347.01 101.275 1348.28 103.054C1349.6 104.833 1351.41 105.722 1353.73 105.722C1356.05 105.722 1357.85 104.833 1359.13 103.054C1360.44 101.275 1361.1 98.8587 1361.1 95.804ZM1393 91.918C1392.11 95.3207 1391.14 98.646 1390.1 101.894C1389.09 105.103 1388.08 108.139 1387.08 111H1381.34C1380.56 109.221 1379.75 107.191 1378.9 104.91C1378.05 102.629 1377.2 100.193 1376.35 97.602C1375.5 95.0113 1374.65 92.2853 1373.8 89.424C1372.95 86.5627 1372.12 83.6433 1371.3 80.666H1378.73C1379.08 82.29 1379.48 84.0493 1379.95 85.944C1380.41 87.8 1380.89 89.714 1381.4 91.686C1381.9 93.6193 1382.42 95.514 1382.96 97.37C1383.5 99.226 1384.04 100.927 1384.59 102.474C1385.17 100.695 1385.73 98.8587 1386.27 96.964C1386.85 95.0693 1387.39 93.1747 1387.89 91.28C1388.39 89.3853 1388.86 87.5487 1389.28 85.77C1389.75 83.9527 1390.15 82.2513 1390.5 80.666H1395.9C1396.24 82.2513 1396.63 83.9527 1397.06 85.77C1397.48 87.5487 1397.93 89.3853 1398.39 91.28C1398.89 93.1747 1399.41 95.0693 1399.96 96.964C1400.54 98.8587 1401.12 100.695 1401.7 102.474C1402.2 100.927 1402.72 99.226 1403.26 97.37C1403.8 95.514 1404.32 93.6193 1404.83 91.686C1405.37 89.714 1405.87 87.8 1406.34 85.944C1406.8 84.0493 1407.21 82.29 1407.55 80.666H1414.8C1413.99 83.6433 1413.16 86.5627 1412.31 89.424C1411.46 92.2853 1410.61 95.0113 1409.76 97.602C1408.91 100.193 1408.06 102.629 1407.21 104.91C1406.35 107.191 1405.52 109.221 1404.71 111H1399.03C1398.02 108.139 1396.98 105.103 1395.9 101.894C1394.85 98.646 1393.88 95.3207 1393 91.918ZM1427.75 105.954C1429.61 105.954 1430.96 105.741 1431.81 105.316C1432.66 104.852 1433.09 104.079 1433.09 102.996C1433.09 101.991 1432.63 101.159 1431.7 100.502C1430.81 99.8447 1429.32 99.1293 1427.23 98.356C1425.96 97.892 1424.78 97.4087 1423.69 96.906C1422.65 96.3647 1421.74 95.746 1420.97 95.05C1420.19 94.354 1419.58 93.5227 1419.11 92.556C1418.69 91.5507 1418.47 90.3327 1418.47 88.902C1418.47 86.118 1419.5 83.9333 1421.55 82.348C1423.6 80.724 1426.38 79.912 1429.9 79.912C1431.68 79.912 1433.38 80.086 1435 80.434C1436.63 80.7433 1437.85 81.0527 1438.66 81.362L1437.38 87.046C1436.61 86.698 1435.62 86.3887 1434.42 86.118C1433.22 85.8087 1431.83 85.654 1430.25 85.654C1428.82 85.654 1427.66 85.9053 1426.77 86.408C1425.88 86.872 1425.43 87.6067 1425.43 88.612C1425.43 89.1147 1425.51 89.5593 1425.67 89.946C1425.86 90.3327 1426.17 90.7 1426.59 91.048C1427.02 91.3573 1427.58 91.686 1428.28 92.034C1428.97 92.3433 1429.82 92.672 1430.83 93.02C1432.49 93.6387 1433.9 94.2573 1435.06 94.876C1436.22 95.456 1437.17 96.1327 1437.9 96.906C1438.68 97.6407 1439.24 98.4913 1439.59 99.458C1439.93 100.425 1440.11 101.585 1440.11 102.938C1440.11 105.838 1439.02 108.042 1436.86 109.55C1434.73 111.019 1431.68 111.754 1427.7 111.754C1425.03 111.754 1422.88 111.522 1421.26 111.058C1419.63 110.633 1418.49 110.285 1417.84 110.014L1419.05 104.156C1420.1 104.581 1421.33 104.987 1422.77 105.374C1424.23 105.761 1425.9 105.954 1427.75 105.954ZM1454.55 85.48C1454.55 86.8333 1454.09 87.9353 1453.16 88.786C1452.27 89.6367 1451.19 90.062 1449.91 90.062C1448.6 90.062 1447.49 89.6367 1446.61 88.786C1445.72 87.9353 1445.27 86.8333 1445.27 85.48C1445.27 84.1267 1445.72 83.0247 1446.61 82.174C1447.49 81.2847 1448.6 80.84 1449.91 80.84C1451.19 80.84 1452.27 81.2847 1453.16 82.174C1454.09 83.0247 1454.55 84.1267 1454.55 85.48ZM1454.55 107.172C1454.55 108.525 1454.09 109.627 1453.16 110.478C1452.27 111.329 1451.19 111.754 1449.91 111.754C1448.6 111.754 1447.49 111.329 1446.61 110.478C1445.72 109.627 1445.27 108.525 1445.27 107.172C1445.27 105.819 1445.72 104.717 1446.61 103.866C1447.49 102.977 1448.6 102.532 1449.91 102.532C1451.19 102.532 1452.27 102.977 1453.16 103.866C1454.09 104.717 1454.55 105.819 1454.55 107.172ZM1499.04 81.246C1499.04 82.638 1498.75 84.0107 1498.17 85.364C1497.59 86.6787 1496.83 87.974 1495.91 89.25C1495.02 90.4873 1493.99 91.7053 1492.83 92.904C1491.67 94.064 1490.51 95.2047 1489.35 96.326C1488.73 96.906 1488.04 97.602 1487.26 98.414C1486.49 99.226 1485.76 100.038 1485.06 100.85C1484.36 101.662 1483.77 102.455 1483.26 103.228C1482.76 103.963 1482.49 104.581 1482.45 105.084H1500.31V111H1474.74C1474.7 110.691 1474.68 110.323 1474.68 109.898C1474.68 109.434 1474.68 109.086 1474.68 108.854C1474.68 106.998 1474.97 105.297 1475.55 103.75C1476.17 102.165 1476.96 100.695 1477.93 99.342C1478.89 97.9887 1479.98 96.7127 1481.17 95.514C1482.37 94.3153 1483.57 93.136 1484.77 91.976C1485.7 91.0867 1486.59 90.2167 1487.44 89.366C1488.29 88.5153 1489.02 87.684 1489.64 86.872C1490.3 86.0213 1490.82 85.1707 1491.21 84.32C1491.6 83.4307 1491.79 82.522 1491.79 81.594C1491.79 79.5833 1491.21 78.1527 1490.05 77.302C1488.89 76.4513 1487.48 76.026 1485.81 76.026C1484.73 76.026 1483.73 76.1807 1482.8 76.49C1481.87 76.7993 1481.04 77.1667 1480.3 77.592C1479.61 78.0173 1478.99 78.462 1478.45 78.926C1477.91 79.3513 1477.5 79.6993 1477.23 79.97L1473.75 75.04C1475.37 73.4933 1477.27 72.256 1479.43 71.328C1481.64 70.3613 1484 69.878 1486.51 69.878C1490.8 69.878 1493.95 70.9027 1495.96 72.952C1498.01 74.9627 1499.04 77.7273 1499.04 81.246ZM1526.32 99.516C1526.32 98.24 1526.07 97.0993 1525.57 96.094C1525.06 95.0887 1524.17 94.238 1522.9 93.542C1521.66 92.846 1519.98 92.324 1517.85 91.976C1515.76 91.628 1513.11 91.454 1509.91 91.454C1510.33 87.742 1510.66 84.2233 1510.89 80.898C1511.12 77.534 1511.32 74.17 1511.47 70.806H1532V76.722H1517.45C1517.41 77.3793 1517.35 78.1333 1517.27 78.984C1517.23 79.796 1517.17 80.6273 1517.1 81.478C1517.06 82.3287 1517 83.1407 1516.92 83.914C1516.85 84.6873 1516.77 85.3447 1516.69 85.886C1522.41 86.1953 1526.63 87.51 1529.34 89.83C1532.08 92.1113 1533.45 95.2433 1533.45 99.226C1533.45 101.043 1533.14 102.725 1532.53 104.272C1531.91 105.819 1530.96 107.153 1529.68 108.274C1528.41 109.395 1526.8 110.285 1524.87 110.942C1522.94 111.561 1520.67 111.87 1518.08 111.87C1517.04 111.87 1515.98 111.793 1514.89 111.638C1513.81 111.483 1512.77 111.29 1511.76 111.058C1510.79 110.865 1509.92 110.652 1509.15 110.42C1508.38 110.188 1507.8 109.975 1507.41 109.782L1508.75 103.866C1509.56 104.253 1510.72 104.678 1512.23 105.142C1513.77 105.567 1515.65 105.78 1517.85 105.78C1519.36 105.78 1520.65 105.625 1521.74 105.316C1522.82 104.968 1523.69 104.504 1524.35 103.924C1525.04 103.344 1525.55 102.687 1525.86 101.952C1526.16 101.179 1526.32 100.367 1526.32 99.516ZM1561.66 95.978C1561.66 92.846 1560.95 90.41 1559.52 88.67C1558.12 86.93 1555.86 86.06 1552.73 86.06C1552.07 86.06 1551.38 86.0987 1550.64 86.176C1549.95 86.2147 1549.25 86.3307 1548.55 86.524V103.866C1549.17 104.291 1549.98 104.697 1550.99 105.084C1552.03 105.432 1553.14 105.606 1554.3 105.606C1556.85 105.606 1558.7 104.736 1559.86 102.996C1561.06 101.256 1561.66 98.9167 1561.66 95.978ZM1568.85 95.862C1568.85 98.182 1568.54 100.309 1567.93 102.242C1567.35 104.175 1566.5 105.838 1565.37 107.23C1564.25 108.622 1562.84 109.705 1561.14 110.478C1559.48 111.251 1557.58 111.638 1555.46 111.638C1554.03 111.638 1552.71 111.464 1551.51 111.116C1550.31 110.768 1549.33 110.381 1548.55 109.956V121.73H1541.54V81.652C1542.97 81.2653 1544.73 80.898 1546.81 80.55C1548.9 80.202 1551.11 80.028 1553.43 80.028C1555.82 80.028 1557.97 80.3953 1559.86 81.13C1561.76 81.8647 1563.36 82.928 1564.68 84.32C1566.03 85.6733 1567.06 87.336 1567.75 89.308C1568.49 91.2413 1568.85 93.426 1568.85 95.862ZM1586.14 90.584L1592.58 80.666H1599.95L1589.97 94.992C1592.06 97.6987 1594.05 100.444 1595.94 103.228C1597.88 105.973 1599.46 108.564 1600.7 111H1593.1C1592.75 110.265 1592.29 109.434 1591.71 108.506C1591.17 107.539 1590.57 106.553 1589.91 105.548C1589.29 104.504 1588.64 103.479 1587.94 102.474C1587.24 101.469 1586.57 100.521 1585.91 99.632C1584.56 101.372 1583.22 103.305 1581.91 105.432C1580.63 107.52 1579.57 109.376 1578.72 111H1571.53C1572.11 109.84 1572.8 108.603 1573.61 107.288C1574.43 105.973 1575.3 104.639 1576.22 103.286C1577.15 101.894 1578.1 100.521 1579.07 99.168C1580.07 97.776 1581.06 96.4613 1582.02 95.224L1571.99 80.666H1579.7L1586.14 90.584ZM1620.23 79.158C1622.47 78.2687 1624.71 77.128 1626.96 75.736C1629.24 74.344 1631.25 72.7007 1632.99 70.806H1637.92V111H1630.9V80.202C1629.86 81.014 1628.54 81.8067 1626.96 82.58C1625.37 83.3533 1623.84 83.9913 1622.37 84.494L1620.23 79.158ZM1664.79 65.992C1666.42 65.992 1667.85 66.1467 1669.08 66.456C1670.32 66.7267 1671.25 66.978 1671.87 67.21L1670.53 73.01C1669.88 72.7007 1669.1 72.4493 1668.21 72.256C1667.36 72.0627 1666.44 71.966 1665.43 71.966C1664.31 71.966 1663.36 72.14 1662.59 72.488C1661.82 72.7973 1661.2 73.242 1660.73 73.822C1660.27 74.402 1659.94 75.1173 1659.75 75.968C1659.55 76.78 1659.46 77.6693 1659.46 78.636V80.666H1670.48V86.524H1659.46V111H1652.44V78.52C1652.44 74.6147 1653.46 71.56 1655.51 69.356C1657.56 67.1133 1660.66 65.992 1664.79 65.992ZM1692.95 86.988C1692.37 86.7947 1691.55 86.6013 1690.51 86.408C1689.5 86.176 1688.32 86.06 1686.97 86.06C1686.2 86.06 1685.37 86.1373 1684.48 86.292C1683.63 86.4467 1683.03 86.582 1682.68 86.698V111H1675.66V82.116C1677.01 81.6133 1678.7 81.1493 1680.71 80.724C1682.76 80.26 1685.02 80.028 1687.49 80.028C1687.96 80.028 1688.5 80.0667 1689.12 80.144C1689.74 80.1827 1690.35 80.26 1690.97 80.376C1691.59 80.4533 1692.19 80.5693 1692.77 80.724C1693.35 80.84 1693.82 80.956 1694.16 81.072L1692.95 86.988Z" fill="#60195E"/>
<path d="M1338.75 564.988C1338.17 564.795 1337.36 564.601 1336.31 564.408C1335.31 564.176 1334.13 564.06 1332.78 564.06C1332 564.06 1331.17 564.137 1330.28 564.292C1329.43 564.447 1328.83 564.582 1328.48 564.698V589H1321.47V560.116C1322.82 559.613 1324.5 559.149 1326.51 558.724C1328.56 558.26 1330.82 558.028 1333.3 558.028C1333.76 558.028 1334.3 558.067 1334.92 558.144C1335.54 558.183 1336.16 558.26 1336.78 558.376C1337.4 558.453 1338 558.569 1338.58 558.724C1339.16 558.84 1339.62 558.956 1339.97 559.072L1338.75 564.988ZM1372.29 573.804C1372.29 576.201 1371.94 578.386 1371.25 580.358C1370.55 582.33 1369.57 584.012 1368.29 585.404C1367.01 586.796 1365.47 587.879 1363.65 588.652C1361.87 589.425 1359.9 589.812 1357.73 589.812C1355.57 589.812 1353.6 589.425 1351.82 588.652C1350.04 587.879 1348.51 586.796 1347.24 585.404C1345.96 584.012 1344.96 582.33 1344.22 580.358C1343.52 578.386 1343.18 576.201 1343.18 573.804C1343.18 571.407 1343.52 569.241 1344.22 567.308C1344.96 565.336 1345.96 563.654 1347.24 562.262C1348.55 560.87 1350.1 559.807 1351.88 559.072C1353.66 558.299 1355.61 557.912 1357.73 557.912C1359.86 557.912 1361.81 558.299 1363.59 559.072C1365.41 559.807 1366.96 560.87 1368.23 562.262C1369.51 563.654 1370.49 565.336 1371.19 567.308C1371.93 569.241 1372.29 571.407 1372.29 573.804ZM1365.1 573.804C1365.1 570.788 1364.44 568.41 1363.13 566.67C1361.85 564.891 1360.05 564.002 1357.73 564.002C1355.41 564.002 1353.6 564.891 1352.28 566.67C1351.01 568.41 1350.37 570.788 1350.37 573.804C1350.37 576.859 1351.01 579.275 1352.28 581.054C1353.6 582.833 1355.41 583.722 1357.73 583.722C1360.05 583.722 1361.85 582.833 1363.13 581.054C1364.44 579.275 1365.1 576.859 1365.1 573.804ZM1397 569.918C1396.11 573.321 1395.14 576.646 1394.1 579.894C1393.09 583.103 1392.08 586.139 1391.08 589H1385.34C1384.56 587.221 1383.75 585.191 1382.9 582.91C1382.05 580.629 1381.2 578.193 1380.35 575.602C1379.5 573.011 1378.65 570.285 1377.8 567.424C1376.95 564.563 1376.12 561.643 1375.3 558.666H1382.73C1383.08 560.29 1383.48 562.049 1383.95 563.944C1384.41 565.8 1384.89 567.714 1385.4 569.686C1385.9 571.619 1386.42 573.514 1386.96 575.37C1387.5 577.226 1388.04 578.927 1388.59 580.474C1389.17 578.695 1389.73 576.859 1390.27 574.964C1390.85 573.069 1391.39 571.175 1391.89 569.28C1392.39 567.385 1392.86 565.549 1393.28 563.77C1393.75 561.953 1394.15 560.251 1394.5 558.666H1399.9C1400.24 560.251 1400.63 561.953 1401.06 563.77C1401.48 565.549 1401.93 567.385 1402.39 569.28C1402.89 571.175 1403.41 573.069 1403.96 574.964C1404.54 576.859 1405.12 578.695 1405.7 580.474C1406.2 578.927 1406.72 577.226 1407.26 575.37C1407.8 573.514 1408.32 571.619 1408.83 569.686C1409.37 567.714 1409.87 565.8 1410.34 563.944C1410.8 562.049 1411.21 560.29 1411.55 558.666H1418.8C1417.99 561.643 1417.16 564.563 1416.31 567.424C1415.46 570.285 1414.61 573.011 1413.76 575.602C1412.91 578.193 1412.06 580.629 1411.21 582.91C1410.35 585.191 1409.52 587.221 1408.71 589H1403.03C1402.02 586.139 1400.98 583.103 1399.9 579.894C1398.85 576.646 1397.88 573.321 1397 569.918ZM1431.75 583.954C1433.61 583.954 1434.96 583.741 1435.81 583.316C1436.66 582.852 1437.09 582.079 1437.09 580.996C1437.09 579.991 1436.63 579.159 1435.7 578.502C1434.81 577.845 1433.32 577.129 1431.23 576.356C1429.96 575.892 1428.78 575.409 1427.69 574.906C1426.65 574.365 1425.74 573.746 1424.97 573.05C1424.19 572.354 1423.58 571.523 1423.11 570.556C1422.69 569.551 1422.47 568.333 1422.47 566.902C1422.47 564.118 1423.5 561.933 1425.55 560.348C1427.6 558.724 1430.38 557.912 1433.9 557.912C1435.68 557.912 1437.38 558.086 1439 558.434C1440.63 558.743 1441.85 559.053 1442.66 559.362L1441.38 565.046C1440.61 564.698 1439.62 564.389 1438.42 564.118C1437.22 563.809 1435.83 563.654 1434.25 563.654C1432.82 563.654 1431.66 563.905 1430.77 564.408C1429.88 564.872 1429.43 565.607 1429.43 566.612C1429.43 567.115 1429.51 567.559 1429.67 567.946C1429.86 568.333 1430.17 568.7 1430.59 569.048C1431.02 569.357 1431.58 569.686 1432.28 570.034C1432.97 570.343 1433.82 570.672 1434.83 571.02C1436.49 571.639 1437.9 572.257 1439.06 572.876C1440.22 573.456 1441.17 574.133 1441.9 574.906C1442.68 575.641 1443.24 576.491 1443.59 577.458C1443.93 578.425 1444.11 579.585 1444.11 580.938C1444.11 583.838 1443.02 586.042 1440.86 587.55C1438.73 589.019 1435.68 589.754 1431.7 589.754C1429.03 589.754 1426.88 589.522 1425.26 589.058C1423.63 588.633 1422.49 588.285 1421.84 588.014L1423.05 582.156C1424.1 582.581 1425.33 582.987 1426.77 583.374C1428.23 583.761 1429.9 583.954 1431.75 583.954ZM1458.55 563.48C1458.55 564.833 1458.09 565.935 1457.16 566.786C1456.27 567.637 1455.19 568.062 1453.91 568.062C1452.6 568.062 1451.49 567.637 1450.61 566.786C1449.72 565.935 1449.27 564.833 1449.27 563.48C1449.27 562.127 1449.72 561.025 1450.61 560.174C1451.49 559.285 1452.6 558.84 1453.91 558.84C1455.19 558.84 1456.27 559.285 1457.16 560.174C1458.09 561.025 1458.55 562.127 1458.55 563.48ZM1458.55 585.172C1458.55 586.525 1458.09 587.627 1457.16 588.478C1456.27 589.329 1455.19 589.754 1453.91 589.754C1452.6 589.754 1451.49 589.329 1450.61 588.478C1449.72 587.627 1449.27 586.525 1449.27 585.172C1449.27 583.819 1449.72 582.717 1450.61 581.866C1451.49 580.977 1452.6 580.532 1453.91 580.532C1455.19 580.532 1456.27 580.977 1457.16 581.866C1458.09 582.717 1458.55 583.819 1458.55 585.172ZM1503.04 559.246C1503.04 560.638 1502.75 562.011 1502.17 563.364C1501.59 564.679 1500.83 565.974 1499.91 567.25C1499.02 568.487 1497.99 569.705 1496.83 570.904C1495.67 572.064 1494.51 573.205 1493.35 574.326C1492.73 574.906 1492.04 575.602 1491.26 576.414C1490.49 577.226 1489.76 578.038 1489.06 578.85C1488.36 579.662 1487.77 580.455 1487.26 581.228C1486.76 581.963 1486.49 582.581 1486.45 583.084H1504.31V589H1478.74C1478.7 588.691 1478.68 588.323 1478.68 587.898C1478.68 587.434 1478.68 587.086 1478.68 586.854C1478.68 584.998 1478.97 583.297 1479.55 581.75C1480.17 580.165 1480.96 578.695 1481.93 577.342C1482.89 575.989 1483.98 574.713 1485.17 573.514C1486.37 572.315 1487.57 571.136 1488.77 569.976C1489.7 569.087 1490.59 568.217 1491.44 567.366C1492.29 566.515 1493.02 565.684 1493.64 564.872C1494.3 564.021 1494.82 563.171 1495.21 562.32C1495.6 561.431 1495.79 560.522 1495.79 559.594C1495.79 557.583 1495.21 556.153 1494.05 555.302C1492.89 554.451 1491.48 554.026 1489.81 554.026C1488.73 554.026 1487.73 554.181 1486.8 554.49C1485.87 554.799 1485.04 555.167 1484.3 555.592C1483.61 556.017 1482.99 556.462 1482.45 556.926C1481.91 557.351 1481.5 557.699 1481.23 557.97L1477.75 553.04C1479.37 551.493 1481.27 550.256 1483.43 549.328C1485.64 548.361 1488 547.878 1490.51 547.878C1494.8 547.878 1497.95 548.903 1499.96 550.952C1502.01 552.963 1503.04 555.727 1503.04 559.246ZM1530.32 577.516C1530.32 576.24 1530.07 575.099 1529.57 574.094C1529.06 573.089 1528.17 572.238 1526.9 571.542C1525.66 570.846 1523.98 570.324 1521.85 569.976C1519.76 569.628 1517.11 569.454 1513.91 569.454C1514.33 565.742 1514.66 562.223 1514.89 558.898C1515.12 555.534 1515.32 552.17 1515.47 548.806H1536V554.722H1521.45C1521.41 555.379 1521.35 556.133 1521.27 556.984C1521.23 557.796 1521.17 558.627 1521.1 559.478C1521.06 560.329 1521 561.141 1520.92 561.914C1520.85 562.687 1520.77 563.345 1520.69 563.886C1526.41 564.195 1530.63 565.51 1533.34 567.83C1536.08 570.111 1537.45 573.243 1537.45 577.226C1537.45 579.043 1537.14 580.725 1536.53 582.272C1535.91 583.819 1534.96 585.153 1533.68 586.274C1532.41 587.395 1530.8 588.285 1528.87 588.942C1526.94 589.561 1524.67 589.87 1522.08 589.87C1521.04 589.87 1519.98 589.793 1518.89 589.638C1517.81 589.483 1516.77 589.29 1515.76 589.058C1514.79 588.865 1513.92 588.652 1513.15 588.42C1512.38 588.188 1511.8 587.975 1511.41 587.782L1512.75 581.866C1513.56 582.253 1514.72 582.678 1516.23 583.142C1517.77 583.567 1519.65 583.78 1521.85 583.78C1523.36 583.78 1524.65 583.625 1525.74 583.316C1526.82 582.968 1527.69 582.504 1528.35 581.924C1529.04 581.344 1529.55 580.687 1529.86 579.952C1530.16 579.179 1530.32 578.367 1530.32 577.516ZM1565.66 573.978C1565.66 570.846 1564.95 568.41 1563.52 566.67C1562.12 564.93 1559.86 564.06 1556.73 564.06C1556.07 564.06 1555.38 564.099 1554.64 564.176C1553.95 564.215 1553.25 564.331 1552.55 564.524V581.866C1553.17 582.291 1553.98 582.697 1554.99 583.084C1556.03 583.432 1557.14 583.606 1558.3 583.606C1560.85 583.606 1562.7 582.736 1563.86 580.996C1565.06 579.256 1565.66 576.917 1565.66 573.978ZM1572.85 573.862C1572.85 576.182 1572.54 578.309 1571.93 580.242C1571.35 582.175 1570.5 583.838 1569.37 585.23C1568.25 586.622 1566.84 587.705 1565.14 588.478C1563.48 589.251 1561.58 589.638 1559.46 589.638C1558.03 589.638 1556.71 589.464 1555.51 589.116C1554.31 588.768 1553.33 588.381 1552.55 587.956V599.73H1545.54V559.652C1546.97 559.265 1548.73 558.898 1550.81 558.55C1552.9 558.202 1555.11 558.028 1557.43 558.028C1559.82 558.028 1561.97 558.395 1563.86 559.13C1565.76 559.865 1567.36 560.928 1568.68 562.32C1570.03 563.673 1571.06 565.336 1571.75 567.308C1572.49 569.241 1572.85 571.426 1572.85 573.862ZM1590.14 568.584L1596.58 558.666H1603.95L1593.97 572.992C1596.06 575.699 1598.05 578.444 1599.94 581.228C1601.88 583.973 1603.46 586.564 1604.7 589H1597.1C1596.75 588.265 1596.29 587.434 1595.71 586.506C1595.17 585.539 1594.57 584.553 1593.91 583.548C1593.29 582.504 1592.64 581.479 1591.94 580.474C1591.24 579.469 1590.57 578.521 1589.91 577.632C1588.56 579.372 1587.22 581.305 1585.91 583.432C1584.63 585.52 1583.57 587.376 1582.72 589H1575.53C1576.11 587.84 1576.8 586.603 1577.61 585.288C1578.43 583.973 1579.3 582.639 1580.22 581.286C1581.15 579.894 1582.1 578.521 1583.07 577.168C1584.07 575.776 1585.06 574.461 1586.02 573.224L1575.99 558.666H1583.7L1590.14 568.584ZM1624.23 557.158C1626.47 556.269 1628.71 555.128 1630.96 553.736C1633.24 552.344 1635.25 550.701 1636.99 548.806H1641.92V589H1634.9V558.202C1633.86 559.014 1632.54 559.807 1630.96 560.58C1629.37 561.353 1627.84 561.991 1626.37 562.494L1624.23 557.158ZM1668.79 543.992C1670.42 543.992 1671.85 544.147 1673.08 544.456C1674.32 544.727 1675.25 544.978 1675.87 545.21L1674.53 551.01C1673.88 550.701 1673.1 550.449 1672.21 550.256C1671.36 550.063 1670.44 549.966 1669.43 549.966C1668.31 549.966 1667.36 550.14 1666.59 550.488C1665.82 550.797 1665.2 551.242 1664.73 551.822C1664.27 552.402 1663.94 553.117 1663.75 553.968C1663.55 554.78 1663.46 555.669 1663.46 556.636V558.666H1674.48V564.524H1663.46V589H1656.44V556.52C1656.44 552.615 1657.46 549.56 1659.51 547.356C1661.56 545.113 1664.66 543.992 1668.79 543.992ZM1696.95 564.988C1696.37 564.795 1695.55 564.601 1694.51 564.408C1693.5 564.176 1692.32 564.06 1690.97 564.06C1690.2 564.06 1689.37 564.137 1688.48 564.292C1687.63 564.447 1687.03 564.582 1686.68 564.698V589H1679.66V560.116C1681.01 559.613 1682.7 559.149 1684.71 558.724C1686.76 558.26 1689.02 558.028 1691.49 558.028C1691.96 558.028 1692.5 558.067 1693.12 558.144C1693.74 558.183 1694.35 558.26 1694.97 558.376C1695.59 558.453 1696.19 558.569 1696.77 558.724C1697.35 558.84 1697.82 558.956 1698.16 559.072L1696.95 564.988ZM1717.35 557.158C1719.59 556.269 1721.83 555.128 1724.07 553.736C1726.35 552.344 1728.37 550.701 1730.11 548.806H1735.04V589H1728.02V558.202C1726.97 559.014 1725.66 559.807 1724.07 560.58C1722.49 561.353 1720.96 561.991 1719.49 562.494L1717.35 557.158ZM1761.91 543.992C1763.53 543.992 1764.96 544.147 1766.2 544.456C1767.44 544.727 1768.37 544.978 1768.99 545.21L1767.65 551.01C1766.99 550.701 1766.22 550.449 1765.33 550.256C1764.48 550.063 1763.55 549.966 1762.55 549.966C1761.43 549.966 1760.48 550.14 1759.71 550.488C1758.93 550.797 1758.31 551.242 1757.85 551.822C1757.39 552.402 1757.06 553.117 1756.86 553.968C1756.67 554.78 1756.57 555.669 1756.57 556.636V558.666H1767.59V564.524H1756.57V589H1749.56V556.52C1749.56 552.615 1750.58 549.56 1752.63 547.356C1754.68 545.113 1757.77 543.992 1761.91 543.992ZM1790.06 564.988C1789.48 564.795 1788.67 564.601 1787.63 564.408C1786.62 564.176 1785.44 564.06 1784.09 564.06C1783.32 564.06 1782.48 564.137 1781.59 564.292C1780.74 564.447 1780.14 564.582 1779.8 564.698V589H1772.78V560.116C1774.13 559.613 1775.81 559.149 1777.82 558.724C1779.87 558.26 1782.14 558.028 1784.61 558.028C1785.07 558.028 1785.62 558.067 1786.23 558.144C1786.85 558.183 1787.47 558.26 1788.09 558.376C1788.71 558.453 1789.31 558.569 1789.89 558.724C1790.47 558.84 1790.93 558.956 1791.28 559.072L1790.06 564.988Z" fill="#60195E"/>
<line x1="-5.68248e-07" y1="233.5" x2="1121" y2="233.5" stroke="#60195E" stroke-width="13"/>
<line x1="-5.68248e-07" y1="233.5" x2="1121" y2="233.5" stroke="black" stroke-opacity="0.2" stroke-width="13"/>
<path d="M1337 136.5H2408C2417.67 136.5 2425.5 144.335 2425.5 154V487C2425.5 496.665 2417.67 504.5 2408 504.5H1337C1327.34 504.5 1319.5 496.665 1319.5 487V154C1319.5 144.335 1327.34 136.5 1337 136.5Z" fill="#C4C4C4" stroke="#C4C4C4" stroke-width="5"/>
<line x1="2424" y1="197" x2="1313" y2="197" stroke="black" stroke-opacity="0.6" stroke-width="8" stroke-dasharray="16 3"/>
<path d="M1341 614.5H2412C2421.67 614.5 2429.5 622.335 2429.5 632V965C2429.5 974.665 2421.67 982.5 2412 982.5H1341C1331.34 982.5 1323.5 974.665 1323.5 965V632C1323.5 622.335 1331.34 614.5 1341 614.5Z" fill="#C4C4C4" stroke="#C4C4C4" stroke-width="5"/>
<line x1="2428" y1="675" x2="1317" y2="675" stroke="black" stroke-opacity="0.6" stroke-width="8" stroke-dasharray="16 3"/>
<line x1="2432" y1="826" x2="1321" y2="826" stroke="black" stroke-opacity="0.6" stroke-width="8" stroke-dasharray="16 3"/>
<path d="M20 614.5H1091C1100.67 614.5 1108.5 622.335 1108.5 632V965C1108.5 974.665 1100.67 982.5 1091 982.5H20C10.335 982.5 2.5 974.665 2.5 965V632C2.5 622.335 10.335 614.5 20 614.5Z" fill="#C4C4C4" stroke="#C4C4C4" stroke-width="5"/>
<line x1="1111" y1="803" x2="-5.61568e-07" y2="803" stroke="black" stroke-opacity="0.6" stroke-width="8" stroke-dasharray="16 3"/>
</g>
<defs>
<clipPath id="clip0_91_415">
<rect width="2432" height="1085" fill="white"/>
</clipPath>
</defs>
</svg>
