<svg width="2364" height="1319" viewBox="0 0 2364 1319" fill="none" xmlns="http://www.w3.org/2000/svg">
<path d="M23 591.5H1094C1103.66 591.5 1111.5 599.335 1111.5 609V788.963C1111.5 798.628 1103.66 806.463 1094 806.463H23C13.335 806.463 5.5 798.628 5.5 788.963V609C5.5 599.335 13.335 591.5 23 591.5Z" fill="#C4C4C4" stroke="#C4C4C4" stroke-width="5"/>
<path d="M928.95 613.869H1067.9C1077.57 613.869 1085.4 621.704 1085.4 631.369V766.594C1085.4 776.259 1077.57 784.094 1067.9 784.094H928.95C919.285 784.094 911.45 776.259 911.45 766.594V631.369C911.45 621.704 919.285 613.869 928.95 613.869Z" fill="#E6E6E6" stroke="#60195E" stroke-width="5"/>
<path d="M708.987 613.869H847.94C857.605 613.869 865.44 621.704 865.44 631.369V766.594C865.44 776.259 857.605 784.094 847.94 784.094H708.987C699.322 784.094 691.487 776.259 691.487 766.594V631.369C691.487 621.704 699.322 613.869 708.987 613.869Z" fill="#E6E6E6" stroke="#60195E" stroke-width="5"/>
<path d="M269.06 613.869H408.013C417.678 613.869 425.513 621.704 425.513 631.369V766.594C425.513 776.259 417.678 784.094 408.013 784.094H269.06C259.395 784.094 251.56 776.259 251.56 766.594V631.369C251.56 621.704 259.395 613.869 269.06 613.869Z" fill="#E6E6E6" stroke="#60195E" stroke-width="5"/>
<path d="M489.023 613.869H627.976C637.641 613.869 645.476 621.704 645.476 631.369V766.594C645.476 776.259 637.641 784.094 627.976 784.094H489.023C479.358 784.094 471.523 776.259 471.523 766.594V631.369C471.523 621.704 479.358 613.869 489.023 613.869Z" fill="#E6E6E6" stroke="#60195E" stroke-width="5"/>
<path d="M49.0972 613.869H188.05C197.715 613.869 205.55 621.704 205.55 631.369V766.594C205.55 776.259 197.715 784.094 188.05 784.094H49.0972C39.4322 784.094 31.5972 776.259 31.5972 766.594V631.369C31.5972 621.704 39.4322 613.869 49.0972 613.869Z" fill="#E6E6E6" stroke="#60195E" stroke-width="5"/>
<path d="M1031.79 701.896C1033.74 699.943 1033.74 696.777 1031.79 694.825L999.967 663.005C998.015 661.052 994.849 661.052 992.896 663.005C990.944 664.957 990.944 668.123 992.896 670.076L1021.18 698.36L992.896 726.644C990.944 728.597 990.944 731.763 992.896 733.716C994.849 735.668 998.015 735.668 999.967 733.716L1031.79 701.896ZM93.7192 703.36L1028.25 703.36V693.36L93.7192 693.36V703.36Z" fill="#FF0000"/>
<path d="M2254.46 184L2254.46 1255C2254.46 1264.66 2246.63 1272.5 2236.96 1272.5L2057 1272.5C2047.34 1272.5 2039.5 1264.66 2039.5 1255L2039.5 184C2039.5 174.335 2047.34 166.5 2057 166.5L2236.96 166.5C2246.63 166.5 2254.46 174.335 2254.46 184Z" fill="#C4C4C4" stroke="#C4C4C4" stroke-width="5"/>
<path d="M2232.09 1089.95L2232.09 1228.9C2232.09 1238.57 2224.26 1246.4 2214.59 1246.4L2079.37 1246.4C2069.7 1246.4 2061.87 1238.57 2061.87 1228.9L2061.87 1089.95C2061.87 1080.28 2069.7 1072.45 2079.37 1072.45L2214.59 1072.45C2224.26 1072.45 2232.09 1080.28 2232.09 1089.95Z" fill="#E6E6E6" stroke="#60195E" stroke-width="5"/>
<path d="M2232.09 869.987L2232.09 1008.94C2232.09 1018.6 2224.26 1026.44 2214.59 1026.44L2079.37 1026.44C2069.7 1026.44 2061.87 1018.6 2061.87 1008.94L2061.87 869.987C2061.87 860.322 2069.7 852.487 2079.37 852.487L2214.59 852.487C2224.26 852.487 2232.09 860.322 2232.09 869.987Z" fill="#E6E6E6" stroke="#60195E" stroke-width="5"/>
<path d="M2232.09 430.06L2232.09 569.013C2232.09 578.678 2224.26 586.513 2214.59 586.513L2079.37 586.513C2069.7 586.513 2061.87 578.678 2061.87 569.013L2061.87 430.06C2061.87 420.395 2069.7 412.56 2079.37 412.56L2214.59 412.56C2224.26 412.56 2232.09 420.395 2232.09 430.06Z" fill="#E6E6E6" stroke="#60195E" stroke-width="5"/>
<path d="M2232.09 650.023L2232.09 788.976C2232.09 798.641 2224.26 806.476 2214.59 806.476L2079.37 806.476C2069.7 806.476 2061.87 798.641 2061.87 788.976L2061.87 650.023C2061.87 640.358 2069.7 632.523 2079.37 632.523L2214.59 632.523C2224.26 632.523 2232.09 640.358 2232.09 650.023Z" fill="#E6E6E6" stroke="#60195E" stroke-width="5"/>
<path d="M2232.09 210.097L2232.09 349.05C2232.09 358.715 2224.26 366.55 2214.59 366.55L2079.37 366.55C2069.7 366.55 2061.87 358.715 2061.87 349.05L2061.87 210.097C2061.87 200.432 2069.7 192.597 2079.37 192.597L2214.59 192.597C2224.26 192.597 2232.09 200.432 2232.09 210.097Z" fill="#E6E6E6" stroke="#60195E" stroke-width="5"/>
<path d="M2151.14 251.184C2149.18 249.231 2146.02 249.231 2144.06 251.184L2112.24 283.004C2110.29 284.956 2110.29 288.122 2112.24 290.075C2114.2 292.027 2117.36 292.027 2119.32 290.075L2147.6 261.79L2175.88 290.075C2177.84 292.027 2181 292.027 2182.96 290.075C2184.91 288.122 2184.91 284.956 2182.96 283.004L2151.14 251.184ZM2152.6 1189.25L2152.6 254.719L2142.6 254.719L2142.6 1189.25L2152.6 1189.25Z" fill="#FF0000"/>
<path d="M23 981.5H1094C1103.66 981.5 1111.5 989.335 1111.5 999V1178.96C1111.5 1188.63 1103.66 1196.46 1094 1196.46H23C13.335 1196.46 5.5 1188.63 5.5 1178.96V999C5.5 989.335 13.335 981.5 23 981.5Z" fill="#C4C4C4" stroke="#C4C4C4" stroke-width="5"/>
<path d="M928.95 1003.87H1067.9C1077.57 1003.87 1085.4 1011.7 1085.4 1021.37V1156.59C1085.4 1166.26 1077.57 1174.09 1067.9 1174.09H928.95C919.285 1174.09 911.45 1166.26 911.45 1156.59V1021.37C911.45 1011.7 919.285 1003.87 928.95 1003.87Z" fill="#E6E6E6" stroke="#60195E" stroke-width="5"/>
<path d="M708.987 1003.87H847.94C857.605 1003.87 865.44 1011.7 865.44 1021.37V1156.59C865.44 1166.26 857.605 1174.09 847.94 1174.09H708.987C699.322 1174.09 691.487 1166.26 691.487 1156.59V1021.37C691.487 1011.7 699.322 1003.87 708.987 1003.87Z" fill="#E6E6E6" stroke="#60195E" stroke-width="5"/>
<path d="M269.06 1003.87H408.013C417.678 1003.87 425.513 1011.7 425.513 1021.37V1156.59C425.513 1166.26 417.678 1174.09 408.013 1174.09H269.06C259.395 1174.09 251.56 1166.26 251.56 1156.59V1021.37C251.56 1011.7 259.395 1003.87 269.06 1003.87Z" fill="#E6E6E6" stroke="#60195E" stroke-width="5"/>
<path d="M489.023 1003.87H627.976C637.641 1003.87 645.476 1011.7 645.476 1021.37V1156.59C645.476 1166.26 637.641 1174.09 627.976 1174.09H489.023C479.358 1174.09 471.523 1166.26 471.523 1156.59V1021.37C471.523 1011.7 479.358 1003.87 489.023 1003.87Z" fill="#E6E6E6" stroke="#60195E" stroke-width="5"/>
<path d="M49.0972 1003.87H188.05C197.715 1003.87 205.55 1011.7 205.55 1021.37V1156.59C205.55 1166.26 197.715 1174.09 188.05 1174.09H49.0972C39.4322 1174.09 31.5972 1166.26 31.5972 1156.59V1021.37C31.5972 1011.7 39.4322 1003.87 49.0972 1003.87Z" fill="#E6E6E6" stroke="#60195E" stroke-width="5"/>
<path d="M90.1835 1084.82C88.2308 1086.78 88.2308 1089.94 90.1835 1091.9L122.003 1123.72C123.956 1125.67 127.122 1125.67 129.074 1123.72C131.027 1121.76 131.027 1118.6 129.074 1116.64L100.79 1088.36L129.074 1060.08C131.027 1058.12 131.027 1054.96 129.074 1053C127.122 1051.05 123.956 1051.05 122.003 1053L90.1835 1084.82ZM1028.25 1083.36L93.719 1083.36L93.719 1093.36L1028.25 1093.36L1028.25 1083.36Z" fill="#FF0000"/>
<path d="M1744.5 184L1744.5 1255C1744.5 1264.66 1736.66 1272.5 1727 1272.5L1547.04 1272.5C1537.37 1272.5 1529.54 1264.66 1529.54 1255L1529.54 184C1529.54 174.335 1537.37 166.5 1547.04 166.5L1727 166.5C1736.66 166.5 1744.5 174.335 1744.5 184Z" fill="#C4C4C4" stroke="#C4C4C4" stroke-width="5"/>
<path d="M1722.13 1089.95L1722.13 1228.9C1722.13 1238.57 1714.3 1246.4 1704.63 1246.4L1569.41 1246.4C1559.74 1246.4 1551.91 1238.57 1551.91 1228.9L1551.91 1089.95C1551.91 1080.28 1559.74 1072.45 1569.41 1072.45L1704.63 1072.45C1714.3 1072.45 1722.13 1080.28 1722.13 1089.95Z" fill="#E6E6E6" stroke="#60195E" stroke-width="5"/>
<path d="M1722.13 869.987L1722.13 1008.94C1722.13 1018.6 1714.3 1026.44 1704.63 1026.44L1569.41 1026.44C1559.74 1026.44 1551.91 1018.6 1551.91 1008.94L1551.91 869.987C1551.91 860.322 1559.74 852.487 1569.41 852.487L1704.63 852.487C1714.3 852.487 1722.13 860.322 1722.13 869.987Z" fill="#E6E6E6" stroke="#60195E" stroke-width="5"/>
<path d="M1722.13 430.06L1722.13 569.013C1722.13 578.678 1714.3 586.513 1704.63 586.513L1569.41 586.513C1559.74 586.513 1551.91 578.678 1551.91 569.013L1551.91 430.06C1551.91 420.395 1559.74 412.56 1569.41 412.56L1704.63 412.56C1714.3 412.56 1722.13 420.395 1722.13 430.06Z" fill="#E6E6E6" stroke="#60195E" stroke-width="5"/>
<path d="M1722.13 650.023L1722.13 788.976C1722.13 798.641 1714.3 806.476 1704.63 806.476L1569.41 806.476C1559.74 806.476 1551.91 798.641 1551.91 788.976L1551.91 650.023C1551.91 640.358 1559.74 632.523 1569.41 632.523L1704.63 632.523C1714.3 632.523 1722.13 640.358 1722.13 650.023Z" fill="#E6E6E6" stroke="#60195E" stroke-width="5"/>
<path d="M1722.13 210.097L1722.13 349.05C1722.13 358.715 1714.3 366.55 1704.63 366.55L1569.41 366.55C1559.74 366.55 1551.91 358.715 1551.91 349.05L1551.91 210.097C1551.91 200.432 1559.74 192.597 1569.41 192.597L1704.63 192.597C1714.3 192.597 1722.13 200.432 1722.13 210.097Z" fill="#E6E6E6" stroke="#60195E" stroke-width="5"/>
<path d="M1634.1 1192.79C1636.06 1194.74 1639.22 1194.74 1641.17 1192.79L1672.99 1160.97C1674.95 1159.01 1674.95 1155.85 1672.99 1153.9C1671.04 1151.94 1667.88 1151.94 1665.92 1153.9L1637.64 1182.18L1609.36 1153.9C1607.4 1151.94 1604.24 1151.94 1602.28 1153.9C1600.33 1155.85 1600.33 1159.01 1602.28 1160.97L1634.1 1192.79ZM1632.64 254.719L1632.64 1189.25L1642.64 1189.25L1642.64 254.719L1632.64 254.719Z" fill="#FF0000"/>
<path d="M19.856 104.226C19.856 109.453 21.0973 113.569 23.58 116.574C26.0627 119.514 29.4927 120.984 33.87 120.984C35.7647 120.984 37.3653 120.919 38.672 120.788C40.044 120.592 41.1547 120.396 42.004 120.2V90.8C40.9587 90.0813 39.554 89.428 37.79 88.84C36.0913 88.1867 34.262 87.86 32.302 87.86C27.99 87.86 24.8213 89.33 22.796 92.27C20.836 95.21 19.856 99.1953 19.856 104.226ZM53.862 128.432C51.51 129.151 48.5373 129.804 44.944 130.392C41.416 130.98 37.692 131.274 33.772 131.274C29.7213 131.274 26.0953 130.653 22.894 129.412C19.6927 128.171 16.9487 126.407 14.662 124.12C12.4407 121.768 10.7093 118.959 9.468 115.692C8.292 112.36 7.704 108.636 7.704 104.52C7.704 100.469 8.194 96.8107 9.174 93.544C10.2193 90.212 11.722 87.37 13.682 85.018C15.642 82.666 18.0267 80.8693 20.836 79.628C23.6453 78.3213 26.8793 77.668 30.538 77.668C33.0207 77.668 35.2093 77.962 37.104 78.55C38.9987 79.138 40.632 79.7913 42.004 80.51V55.912L53.862 53.952V128.432ZM80.8809 130H69.0229V78.746H80.8809V130ZM82.1549 63.752C82.1549 65.9733 81.4362 67.7373 79.9989 69.044C78.5616 70.3507 76.8629 71.004 74.9029 71.004C72.8776 71.004 71.1462 70.3507 69.7089 69.044C68.2716 67.7373 67.5529 65.9733 67.5529 63.752C67.5529 61.4653 68.2716 59.6687 69.7089 58.362C71.1462 57.0553 72.8776 56.402 74.9029 56.402C76.8629 56.402 78.5616 57.0553 79.9989 58.362C81.4362 59.6687 82.1549 61.4653 82.1549 63.752ZM125.213 89.428C124.233 89.1013 122.861 88.7747 121.097 88.448C119.398 88.056 117.406 87.86 115.119 87.86C113.812 87.86 112.408 87.9907 110.905 88.252C109.468 88.5133 108.455 88.742 107.867 88.938V130H96.0089V81.196C98.2956 80.3467 101.138 79.5627 104.535 78.844C107.998 78.06 111.82 77.668 116.001 77.668C116.785 77.668 117.7 77.7333 118.745 77.864C119.79 77.9293 120.836 78.06 121.881 78.256C122.926 78.3867 123.939 78.5827 124.919 78.844C125.899 79.04 126.683 79.236 127.271 79.432L125.213 89.428ZM132.692 104.618C132.692 100.11 133.346 96.1573 134.652 92.76C136.024 89.3627 137.821 86.5533 140.042 84.332C142.264 82.0453 144.812 80.3467 147.686 79.236C150.561 78.06 153.501 77.472 156.506 77.472C163.562 77.472 169.05 79.6607 172.97 84.038C176.956 88.4153 178.948 94.9487 178.948 103.638C178.948 104.291 178.916 105.043 178.85 105.892C178.85 106.676 178.818 107.395 178.752 108.048H144.942C145.269 112.164 146.706 115.365 149.254 117.652C151.868 119.873 155.624 120.984 160.524 120.984C163.399 120.984 166.012 120.723 168.364 120.2C170.782 119.677 172.676 119.122 174.048 118.534L175.616 128.236C174.963 128.563 174.048 128.922 172.872 129.314C171.762 129.641 170.455 129.935 168.952 130.196C167.515 130.523 165.947 130.784 164.248 130.98C162.55 131.176 160.818 131.274 159.054 131.274C154.546 131.274 150.626 130.621 147.294 129.314C143.962 127.942 141.218 126.08 139.062 123.728C136.906 121.311 135.306 118.501 134.26 115.3C133.215 112.033 132.692 108.473 132.692 104.618ZM167.09 99.326C167.09 97.6927 166.862 96.1573 166.404 94.72C165.947 93.2173 165.261 91.9433 164.346 90.898C163.497 89.7873 162.419 88.938 161.112 88.35C159.871 87.6967 158.368 87.37 156.604 87.37C154.775 87.37 153.174 87.7293 151.802 88.448C150.43 89.1013 149.254 89.9833 148.274 91.094C147.36 92.2047 146.641 93.4787 146.118 94.916C145.596 96.3533 145.236 97.8233 145.04 99.326H167.09ZM188.679 104.422C188.679 100.633 189.267 97.1047 190.443 93.838C191.619 90.506 193.285 87.6313 195.441 85.214C197.662 82.7967 200.341 80.902 203.477 79.53C206.613 78.158 210.141 77.472 214.061 77.472C218.895 77.472 223.469 78.354 227.781 80.118L225.233 89.82C223.861 89.232 222.293 88.742 220.529 88.35C218.83 87.958 217.001 87.762 215.041 87.762C210.402 87.762 206.874 89.232 204.457 92.172C202.039 95.0467 200.831 99.13 200.831 104.422C200.831 109.518 201.974 113.569 204.261 116.574C206.547 119.514 210.402 120.984 215.825 120.984C217.85 120.984 219.843 120.788 221.803 120.396C223.763 120.004 225.461 119.514 226.899 118.926L228.565 128.726C227.258 129.379 225.265 129.967 222.587 130.49C219.973 131.013 217.262 131.274 214.453 131.274C210.075 131.274 206.253 130.621 202.987 129.314C199.785 127.942 197.107 126.08 194.951 123.728C192.86 121.311 191.292 118.469 190.247 115.202C189.201 111.87 188.679 108.277 188.679 104.422ZM237.157 65.222L249.015 63.262V78.746H267.243V88.644H249.015V109.518C249.015 113.634 249.669 116.574 250.975 118.338C252.282 120.102 254.503 120.984 257.639 120.984C259.795 120.984 261.69 120.755 263.323 120.298C265.022 119.841 266.361 119.416 267.341 119.024L269.301 128.432C267.929 129.02 266.133 129.608 263.911 130.196C261.69 130.849 259.077 131.176 256.071 131.176C252.413 131.176 249.342 130.686 246.859 129.706C244.442 128.726 242.515 127.321 241.077 125.492C239.64 123.597 238.627 121.343 238.039 118.73C237.451 116.051 237.157 113.013 237.157 109.616V65.222ZM290.662 130H278.804V78.746H290.662V130ZM291.936 63.752C291.936 65.9733 291.217 67.7373 289.78 69.044C288.343 70.3507 286.644 71.004 284.684 71.004C282.659 71.004 280.927 70.3507 279.49 69.044C278.053 67.7373 277.334 65.9733 277.334 63.752C277.334 61.4653 278.053 59.6687 279.49 58.362C280.927 57.0553 282.659 56.402 284.684 56.402C286.644 56.402 288.343 57.0553 289.78 58.362C291.217 59.6687 291.936 61.4653 291.936 63.752ZM352.144 104.324C352.144 108.375 351.556 112.066 350.38 115.398C349.204 118.73 347.538 121.572 345.382 123.924C343.226 126.276 340.613 128.105 337.542 129.412C334.537 130.719 331.205 131.372 327.546 131.372C323.887 131.372 320.555 130.719 317.55 129.412C314.545 128.105 311.964 126.276 309.808 123.924C307.652 121.572 305.953 118.73 304.712 115.398C303.536 112.066 302.948 108.375 302.948 104.324C302.948 100.273 303.536 96.6147 304.712 93.348C305.953 90.016 307.652 87.174 309.808 84.822C312.029 82.47 314.643 80.6733 317.648 79.432C320.653 78.1253 323.953 77.472 327.546 77.472C331.139 77.472 334.439 78.1253 337.444 79.432C340.515 80.6733 343.128 82.47 345.284 84.822C347.44 87.174 349.106 90.016 350.282 93.348C351.523 96.6147 352.144 100.273 352.144 104.324ZM339.992 104.324C339.992 99.228 338.881 95.21 336.66 92.27C334.504 89.2647 331.466 87.762 327.546 87.762C323.626 87.762 320.555 89.2647 318.334 92.27C316.178 95.21 315.1 99.228 315.1 104.324C315.1 109.485 316.178 113.569 318.334 116.574C320.555 119.579 323.626 121.082 327.546 121.082C331.466 121.082 334.504 119.579 336.66 116.574C338.881 113.569 339.992 109.485 339.992 104.324ZM364.36 80.412C366.647 79.7587 369.62 79.138 373.278 78.55C376.937 77.962 380.988 77.668 385.43 77.668C389.612 77.668 393.107 78.256 395.916 79.432C398.726 80.5427 400.947 82.1433 402.58 84.234C404.279 86.2593 405.455 88.742 406.108 91.682C406.827 94.5567 407.186 97.7253 407.186 101.188V130H395.328V103.05C395.328 100.306 395.132 97.9867 394.74 96.092C394.414 94.132 393.826 92.564 392.976 91.388C392.192 90.1467 391.082 89.2647 389.644 88.742C388.272 88.154 386.574 87.86 384.548 87.86C383.046 87.86 381.478 87.958 379.844 88.154C378.211 88.35 377.002 88.5133 376.218 88.644V130H364.36V80.412Z" fill="#60195E"/>
<path d="M4.544 199.696L12.288 198.416V208.528H24.192V214.992H12.288V228.624C12.288 231.312 12.7147 233.232 13.568 234.384C14.4213 235.536 15.872 236.112 17.92 236.112C19.328 236.112 20.5653 235.963 21.632 235.664C22.7413 235.365 23.616 235.088 24.256 234.832L25.536 240.976C24.64 241.36 23.4667 241.744 22.016 242.128C20.5653 242.555 18.8587 242.768 16.896 242.768C14.5067 242.768 12.5013 242.448 10.88 241.808C9.30133 241.168 8.04267 240.251 7.104 239.056C6.16533 237.819 5.504 236.347 5.12 234.64C4.736 232.891 4.544 230.907 4.544 228.688V199.696ZM59.006 208.528C55.55 221.243 51.5393 232.763 46.974 243.088C46.1207 245.008 45.246 246.651 44.35 248.016C43.454 249.381 42.4513 250.512 41.342 251.408C40.2327 252.304 38.9953 252.944 37.63 253.328C36.2647 253.755 34.686 253.968 32.894 253.968C31.6993 253.968 30.5047 253.84 29.31 253.584C28.158 253.328 27.2833 253.051 26.686 252.752L28.094 246.544C29.63 247.141 31.1447 247.44 32.638 247.44C34.6433 247.44 36.2007 246.949 37.31 245.968C38.462 245.029 39.4647 243.557 40.318 241.552C37.886 236.859 35.5393 231.739 33.278 226.192C31.0593 220.645 29.0753 214.757 27.326 208.528H35.582C36.0087 210.32 36.5207 212.261 37.118 214.352C37.758 216.443 38.4407 218.576 39.166 220.752C39.8913 222.885 40.6593 225.019 41.47 227.152C42.2807 229.285 43.0913 231.269 43.902 233.104C45.2673 229.307 46.5473 225.275 47.742 221.008C48.9367 216.699 50.0247 212.539 51.006 208.528H59.006ZM87.0735 225.424C87.0735 221.968 86.2842 219.28 84.7055 217.36C83.1695 215.44 80.6735 214.48 77.2175 214.48C76.4922 214.48 75.7242 214.523 74.9135 214.608C74.1455 214.651 73.3775 214.779 72.6095 214.992V234.128C73.2922 234.597 74.1882 235.045 75.2975 235.472C76.4495 235.856 77.6655 236.048 78.9455 236.048C81.7615 236.048 83.8095 235.088 85.0895 233.168C86.4122 231.248 87.0735 228.667 87.0735 225.424ZM95.0095 225.296C95.0095 227.856 94.6682 230.203 93.9855 232.336C93.3455 234.469 92.4068 236.304 91.1695 237.84C89.9322 239.376 88.3748 240.571 86.4975 241.424C84.6628 242.277 82.5722 242.704 80.2255 242.704C78.6468 242.704 77.1962 242.512 75.8735 242.128C74.5508 241.744 73.4628 241.317 72.6095 240.848V253.84H64.8655V209.616C66.4442 209.189 68.3855 208.784 70.6895 208.4C72.9935 208.016 75.4255 207.824 77.9855 207.824C80.6308 207.824 82.9988 208.229 85.0895 209.04C87.1802 209.851 88.9508 211.024 90.4015 212.56C91.8948 214.053 93.0255 215.888 93.7935 218.064C94.6042 220.197 95.0095 222.608 95.0095 225.296ZM101.135 225.424C101.135 222.48 101.561 219.899 102.415 217.68C103.311 215.461 104.484 213.627 105.935 212.176C107.385 210.683 109.049 209.573 110.927 208.848C112.804 208.08 114.724 207.696 116.687 207.696C121.295 207.696 124.879 209.125 127.439 211.984C130.041 214.843 131.343 219.109 131.343 224.784C131.343 225.211 131.321 225.701 131.279 226.256C131.279 226.768 131.257 227.237 131.215 227.664H109.135C109.348 230.352 110.287 232.443 111.951 233.936C113.657 235.387 116.111 236.112 119.311 236.112C121.188 236.112 122.895 235.941 124.431 235.6C126.009 235.259 127.247 234.896 128.143 234.512L129.167 240.848C128.74 241.061 128.143 241.296 127.375 241.552C126.649 241.765 125.796 241.957 124.815 242.128C123.876 242.341 122.852 242.512 121.743 242.64C120.633 242.768 119.503 242.832 118.351 242.832C115.407 242.832 112.847 242.405 110.671 241.552C108.495 240.656 106.703 239.44 105.295 237.904C103.887 236.325 102.841 234.491 102.159 232.4C101.476 230.267 101.135 227.941 101.135 225.424ZM123.599 221.968C123.599 220.901 123.449 219.899 123.151 218.96C122.852 217.979 122.404 217.147 121.807 216.464C121.252 215.739 120.548 215.184 119.695 214.8C118.884 214.373 117.903 214.16 116.751 214.16C115.556 214.16 114.511 214.395 113.615 214.864C112.719 215.291 111.951 215.867 111.311 216.592C110.713 217.317 110.244 218.149 109.903 219.088C109.561 220.027 109.327 220.987 109.199 221.968H123.599ZM148.257 213.84C148.257 215.333 147.745 216.549 146.721 217.488C145.74 218.427 144.545 218.896 143.137 218.896C141.686 218.896 140.47 218.427 139.489 217.488C138.508 216.549 138.017 215.333 138.017 213.84C138.017 212.347 138.508 211.131 139.489 210.192C140.47 209.211 141.686 208.72 143.137 208.72C144.545 208.72 145.74 209.211 146.721 210.192C147.745 211.131 148.257 212.347 148.257 213.84ZM148.257 237.776C148.257 239.269 147.745 240.485 146.721 241.424C145.74 242.363 144.545 242.832 143.137 242.832C141.686 242.832 140.47 242.363 139.489 241.424C138.508 240.485 138.017 239.269 138.017 237.776C138.017 236.283 138.508 235.067 139.489 234.128C140.47 233.147 141.686 232.656 143.137 232.656C144.545 232.656 145.74 233.147 146.721 234.128C147.745 235.067 148.257 236.283 148.257 237.776ZM185.251 192.336C186.872 192.336 188.237 192.464 189.347 192.72C190.499 192.976 191.395 193.232 192.035 193.488L190.819 199.76C190.221 199.547 189.496 199.355 188.643 199.184C187.832 199.013 186.936 198.928 185.955 198.928C183.395 198.928 181.624 199.611 180.643 200.976C179.704 202.341 179.235 204.112 179.235 206.288V208.528H191.523V214.992H179.235V242H171.491V206.16C171.491 201.808 172.621 198.416 174.883 195.984C177.144 193.552 180.6 192.336 185.251 192.336ZM209.123 242.64C206.819 242.597 204.899 242.341 203.363 241.872C201.869 241.403 200.675 240.741 199.779 239.888C198.883 238.992 198.243 237.904 197.859 236.624C197.517 235.301 197.347 233.808 197.347 232.144V193.616L205.091 192.336V230.672C205.091 231.611 205.155 232.4 205.283 233.04C205.453 233.68 205.731 234.235 206.115 234.704C206.499 235.131 207.011 235.472 207.651 235.728C208.333 235.941 209.187 236.112 210.211 236.24L209.123 242.64ZM214.635 225.424C214.635 222.48 215.061 219.899 215.915 217.68C216.811 215.461 217.984 213.627 219.435 212.176C220.885 210.683 222.549 209.573 224.427 208.848C226.304 208.08 228.224 207.696 230.187 207.696C234.795 207.696 238.379 209.125 240.939 211.984C243.541 214.843 244.843 219.109 244.843 224.784C244.843 225.211 244.821 225.701 244.779 226.256C244.779 226.768 244.757 227.237 244.715 227.664H222.635C222.848 230.352 223.787 232.443 225.451 233.936C227.157 235.387 229.611 236.112 232.811 236.112C234.688 236.112 236.395 235.941 237.931 235.6C239.509 235.259 240.747 234.896 241.643 234.512L242.667 240.848C242.24 241.061 241.643 241.296 240.875 241.552C240.149 241.765 239.296 241.957 238.315 242.128C237.376 242.341 236.352 242.512 235.243 242.64C234.133 242.768 233.003 242.832 231.851 242.832C228.907 242.832 226.347 242.405 224.171 241.552C221.995 240.656 220.203 239.44 218.795 237.904C217.387 236.325 216.341 234.491 215.659 232.4C214.976 230.267 214.635 227.941 214.635 225.424ZM237.099 221.968C237.099 220.901 236.949 219.899 236.651 218.96C236.352 217.979 235.904 217.147 235.307 216.464C234.752 215.739 234.048 215.184 233.195 214.8C232.384 214.373 231.403 214.16 230.251 214.16C229.056 214.16 228.011 214.395 227.115 214.864C226.219 215.291 225.451 215.867 224.811 216.592C224.213 217.317 223.744 218.149 223.403 219.088C223.061 220.027 222.827 220.987 222.699 221.968H237.099ZM265.085 219.472L272.189 208.528H280.317L269.309 224.336C271.613 227.323 273.81 230.352 275.901 233.424C278.034 236.453 279.784 239.312 281.149 242H272.765C272.381 241.189 271.869 240.272 271.229 239.248C270.632 238.181 269.97 237.093 269.245 235.984C268.562 234.832 267.837 233.701 267.069 232.592C266.301 231.483 265.554 230.437 264.829 229.456C263.336 231.376 261.864 233.509 260.413 235.856C259.005 238.16 257.832 240.208 256.893 242H248.957C249.597 240.72 250.365 239.355 251.261 237.904C252.157 236.453 253.117 234.981 254.141 233.488C255.165 231.952 256.21 230.437 257.277 228.944C258.386 227.408 259.474 225.957 260.541 224.592L249.469 208.528H257.981L265.085 219.472Z" fill="#60195E"/>
<path d="M6.072 299.424C6.072 296.48 6.49867 293.899 7.352 291.68C8.248 289.461 9.42133 287.627 10.872 286.176C12.3227 284.683 13.9867 283.573 15.864 282.848C17.7413 282.08 19.6613 281.696 21.624 281.696C26.232 281.696 29.816 283.125 32.376 285.984C34.9787 288.843 36.28 293.109 36.28 298.784C36.28 299.211 36.2587 299.701 36.216 300.256C36.216 300.768 36.1947 301.237 36.152 301.664H14.072C14.2853 304.352 15.224 306.443 16.888 307.936C18.5947 309.387 21.048 310.112 24.248 310.112C26.1253 310.112 27.832 309.941 29.368 309.6C30.9467 309.259 32.184 308.896 33.08 308.512L34.104 314.848C33.6773 315.061 33.08 315.296 32.312 315.552C31.5867 315.765 30.7333 315.957 29.752 316.128C28.8133 316.341 27.7893 316.512 26.68 316.64C25.5707 316.768 24.44 316.832 23.288 316.832C20.344 316.832 17.784 316.405 15.608 315.552C13.432 314.656 11.64 313.44 10.232 311.904C8.824 310.325 7.77867 308.491 7.096 306.4C6.41333 304.267 6.072 301.941 6.072 299.424ZM28.536 295.968C28.536 294.901 28.3867 293.899 28.088 292.96C27.7893 291.979 27.3413 291.147 26.744 290.464C26.1893 289.739 25.4853 289.184 24.632 288.8C23.8213 288.373 22.84 288.16 21.688 288.16C20.4933 288.16 19.448 288.395 18.552 288.864C17.656 289.291 16.888 289.867 16.248 290.592C15.6507 291.317 15.1813 292.149 14.84 293.088C14.4987 294.027 14.264 294.987 14.136 295.968H28.536ZM50.5705 299.424C50.5705 302.667 51.2105 305.248 52.4905 307.168C53.8132 309.088 55.8825 310.048 58.6985 310.048C59.9785 310.048 61.1732 309.856 62.2825 309.472C63.4345 309.045 64.3518 308.597 65.0345 308.128V288.992C64.4798 288.864 63.7758 288.757 62.9225 288.672C62.1118 288.544 61.0452 288.48 59.7225 288.48C56.8638 288.48 54.6238 289.461 53.0025 291.424C51.3812 293.344 50.5705 296.011 50.5705 299.424ZM42.6345 299.296C42.6345 296.651 43.0185 294.261 43.7865 292.128C44.5972 289.952 45.7278 288.117 47.1785 286.624C48.6718 285.088 50.4638 283.915 52.5545 283.104C54.6452 282.251 57.0132 281.824 59.6585 281.824C62.3038 281.824 64.7785 282.016 67.0825 282.4C69.3865 282.784 71.2852 283.189 72.7785 283.616V327.84H65.0345V314.848C64.1385 315.317 63.0292 315.744 61.7065 316.128C60.4265 316.512 58.9972 316.704 57.4185 316.704C55.0292 316.704 52.9172 316.299 51.0825 315.488C49.2478 314.635 47.7118 313.44 46.4745 311.904C45.2372 310.368 44.2772 308.533 43.5945 306.4C42.9545 304.267 42.6345 301.899 42.6345 299.296ZM110.072 314.976C108.578 315.36 106.637 315.744 104.248 316.128C101.858 316.555 99.2342 316.768 96.3755 316.768C93.6875 316.768 91.4262 316.384 89.5915 315.616C87.7995 314.848 86.3488 313.781 85.2395 312.416C84.1728 311.051 83.4048 309.429 82.9355 307.552C82.4662 305.632 82.2315 303.541 82.2315 301.28V282.528H89.9755V300.064C89.9755 303.648 90.4875 306.208 91.5115 307.744C92.5782 309.28 94.4128 310.048 97.0155 310.048C97.9542 310.048 98.9355 310.005 99.9595 309.92C101.026 309.835 101.816 309.728 102.328 309.6V282.528H110.072V314.976ZM127.736 316H119.992V282.528H127.736V316ZM128.568 272.736C128.568 274.187 128.099 275.339 127.16 276.192C126.221 277.045 125.112 277.472 123.832 277.472C122.509 277.472 121.379 277.045 120.44 276.192C119.501 275.339 119.032 274.187 119.032 272.736C119.032 271.243 119.501 270.069 120.44 269.216C121.379 268.363 122.509 267.936 123.832 267.936C125.112 267.936 126.221 268.363 127.16 269.216C128.099 270.069 128.568 271.243 128.568 272.736ZM146.192 316C144.058 311.605 141.861 306.571 139.6 300.896C137.381 295.179 135.354 289.056 133.52 282.528H141.776C142.245 284.405 142.778 286.432 143.376 288.608C144.016 290.741 144.677 292.896 145.36 295.072C146.085 297.205 146.81 299.296 147.536 301.344C148.304 303.349 149.008 305.163 149.648 306.784C150.288 305.163 150.97 303.349 151.696 301.344C152.421 299.296 153.125 297.205 153.808 295.072C154.533 292.896 155.216 290.741 155.856 288.608C156.496 286.432 157.05 284.405 157.52 282.528H165.52C163.685 289.056 161.637 295.179 159.376 300.896C157.157 306.571 154.981 311.605 152.848 316H146.192ZM183.079 310.56C185.468 310.56 187.282 310.432 188.519 310.176V301.6C188.092 301.472 187.474 301.344 186.663 301.216C185.852 301.088 184.956 301.024 183.975 301.024C183.122 301.024 182.247 301.088 181.351 301.216C180.498 301.344 179.708 301.579 178.983 301.92C178.3 302.261 177.746 302.752 177.319 303.392C176.892 303.989 176.679 304.757 176.679 305.696C176.679 307.531 177.255 308.811 178.407 309.536C179.559 310.219 181.116 310.56 183.079 310.56ZM182.439 281.696C184.999 281.696 187.154 282.016 188.903 282.656C190.652 283.296 192.039 284.192 193.063 285.344C194.13 286.496 194.876 287.904 195.303 289.568C195.772 291.189 196.007 292.981 196.007 294.944V315.232C194.812 315.488 192.999 315.787 190.567 316.128C188.178 316.512 185.468 316.704 182.439 316.704C180.434 316.704 178.599 316.512 176.935 316.128C175.271 315.744 173.842 315.125 172.647 314.272C171.495 313.419 170.578 312.309 169.895 310.944C169.255 309.579 168.935 307.893 168.935 305.888C168.935 303.968 169.298 302.347 170.023 301.024C170.791 299.701 171.815 298.635 173.095 297.824C174.375 296.971 175.847 296.373 177.511 296.032C179.218 295.648 180.988 295.456 182.823 295.456C183.676 295.456 184.572 295.52 185.511 295.648C186.45 295.733 187.452 295.904 188.519 296.16V294.88C188.519 293.984 188.412 293.131 188.199 292.32C187.986 291.509 187.602 290.805 187.047 290.208C186.535 289.568 185.831 289.077 184.935 288.736C184.082 288.395 182.994 288.224 181.671 288.224C179.879 288.224 178.236 288.352 176.743 288.608C175.25 288.864 174.034 289.163 173.095 289.504L172.135 283.232C173.116 282.891 174.546 282.549 176.423 282.208C178.3 281.867 180.306 281.696 182.439 281.696ZM217.139 316.64C214.835 316.597 212.915 316.341 211.379 315.872C209.885 315.403 208.691 314.741 207.795 313.888C206.899 312.992 206.259 311.904 205.875 310.624C205.533 309.301 205.363 307.808 205.363 306.144V267.616L213.107 266.336V304.672C213.107 305.611 213.171 306.4 213.299 307.04C213.469 307.68 213.747 308.235 214.131 308.704C214.515 309.131 215.027 309.472 215.667 309.728C216.349 309.941 217.203 310.112 218.227 310.24L217.139 316.64ZM222.635 299.424C222.635 296.48 223.061 293.899 223.915 291.68C224.811 289.461 225.984 287.627 227.435 286.176C228.885 284.683 230.549 283.573 232.427 282.848C234.304 282.08 236.224 281.696 238.187 281.696C242.795 281.696 246.379 283.125 248.939 285.984C251.541 288.843 252.843 293.109 252.843 298.784C252.843 299.211 252.821 299.701 252.779 300.256C252.779 300.768 252.757 301.237 252.715 301.664H230.635C230.848 304.352 231.787 306.443 233.451 307.936C235.157 309.387 237.611 310.112 240.811 310.112C242.688 310.112 244.395 309.941 245.931 309.6C247.509 309.259 248.747 308.896 249.643 308.512L250.667 314.848C250.24 315.061 249.643 315.296 248.875 315.552C248.149 315.765 247.296 315.957 246.315 316.128C245.376 316.341 244.352 316.512 243.243 316.64C242.133 316.768 241.003 316.832 239.851 316.832C236.907 316.832 234.347 316.405 232.171 315.552C229.995 314.656 228.203 313.44 226.795 311.904C225.387 310.325 224.341 308.491 223.659 306.4C222.976 304.267 222.635 301.941 222.635 299.424ZM245.099 295.968C245.099 294.901 244.949 293.899 244.651 292.96C244.352 291.979 243.904 291.147 243.307 290.464C242.752 289.739 242.048 289.184 241.195 288.8C240.384 288.373 239.403 288.16 238.251 288.16C237.056 288.16 236.011 288.395 235.115 288.864C234.219 289.291 233.451 289.867 232.811 290.592C232.213 291.317 231.744 292.149 231.403 293.088C231.061 294.027 230.827 294.987 230.699 295.968H245.099ZM261.053 283.616C262.546 283.189 264.488 282.784 266.877 282.4C269.266 282.016 271.912 281.824 274.813 281.824C277.544 281.824 279.826 282.208 281.661 282.976C283.496 283.701 284.946 284.747 286.013 286.112C287.122 287.435 287.89 289.056 288.317 290.976C288.786 292.853 289.021 294.923 289.021 297.184V316H281.277V298.4C281.277 296.608 281.149 295.093 280.893 293.856C280.68 292.576 280.296 291.552 279.741 290.784C279.229 289.973 278.504 289.397 277.565 289.056C276.669 288.672 275.56 288.48 274.237 288.48C273.256 288.48 272.232 288.544 271.165 288.672C270.098 288.8 269.309 288.907 268.797 288.992V316H261.053V283.616ZM298.107 273.696L305.851 272.416V282.528H317.755V288.992H305.851V302.624C305.851 305.312 306.277 307.232 307.131 308.384C307.984 309.536 309.435 310.112 311.483 310.112C312.891 310.112 314.128 309.963 315.195 309.664C316.304 309.365 317.179 309.088 317.819 308.832L319.099 314.976C318.203 315.36 317.029 315.744 315.579 316.128C314.128 316.555 312.421 316.768 310.458 316.768C308.069 316.768 306.064 316.448 304.443 315.808C302.864 315.168 301.605 314.251 300.667 313.056C299.728 311.819 299.067 310.347 298.683 308.64C298.299 306.891 298.107 304.907 298.107 302.688V273.696ZM338.322 299.296C338.322 296.821 338.706 294.517 339.474 292.384C340.242 290.208 341.33 288.331 342.738 286.752C344.189 285.173 345.938 283.936 347.986 283.04C350.034 282.144 352.338 281.696 354.898 281.696C358.055 281.696 361.042 282.272 363.858 283.424L362.194 289.76C361.298 289.376 360.274 289.056 359.122 288.8C358.013 288.544 356.818 288.416 355.538 288.416C352.509 288.416 350.205 289.376 348.626 291.296C347.047 293.173 346.258 295.84 346.258 299.296C346.258 302.624 347.005 305.269 348.498 307.232C349.991 309.152 352.509 310.112 356.05 310.112C357.373 310.112 358.674 309.984 359.954 309.728C361.234 309.472 362.343 309.152 363.282 308.768L364.37 315.168C363.517 315.595 362.215 315.979 360.466 316.32C358.759 316.661 356.989 316.832 355.154 316.832C352.295 316.832 349.799 316.405 347.666 315.552C345.575 314.656 343.826 313.44 342.418 311.904C341.053 310.325 340.029 308.469 339.346 306.336C338.663 304.16 338.322 301.813 338.322 299.296ZM378.75 310.432C380.798 310.432 382.291 310.197 383.23 309.728C384.168 309.216 384.638 308.363 384.638 307.168C384.638 306.059 384.126 305.141 383.102 304.416C382.12 303.691 380.478 302.901 378.174 302.048C376.766 301.536 375.464 301.003 374.27 300.448C373.118 299.851 372.115 299.168 371.262 298.4C370.408 297.632 369.726 296.715 369.214 295.648C368.744 294.539 368.51 293.195 368.51 291.616C368.51 288.544 369.64 286.133 371.902 284.384C374.163 282.592 377.235 281.696 381.118 281.696C383.08 281.696 384.958 281.888 386.75 282.272C388.542 282.613 389.886 282.955 390.782 283.296L389.374 289.568C388.52 289.184 387.432 288.843 386.11 288.544C384.787 288.203 383.251 288.032 381.502 288.032C379.923 288.032 378.643 288.309 377.662 288.864C376.68 289.376 376.19 290.187 376.19 291.296C376.19 291.851 376.275 292.341 376.446 292.768C376.659 293.195 377 293.6 377.47 293.984C377.939 294.325 378.558 294.688 379.326 295.072C380.094 295.413 381.032 295.776 382.142 296.16C383.976 296.843 385.534 297.525 386.814 298.208C388.094 298.848 389.139 299.595 389.95 300.448C390.803 301.259 391.422 302.197 391.806 303.264C392.19 304.331 392.382 305.611 392.382 307.104C392.382 310.304 391.187 312.736 388.798 314.4C386.451 316.021 383.08 316.832 378.686 316.832C375.742 316.832 373.374 316.576 371.582 316.064C369.79 315.595 368.531 315.211 367.806 314.912L369.15 308.448C370.302 308.917 371.667 309.365 373.246 309.792C374.867 310.219 376.702 310.432 378.75 310.432ZM408 310.432C410.048 310.432 411.541 310.197 412.48 309.728C413.418 309.216 413.888 308.363 413.888 307.168C413.888 306.059 413.376 305.141 412.352 304.416C411.37 303.691 409.728 302.901 407.424 302.048C406.016 301.536 404.714 301.003 403.52 300.448C402.368 299.851 401.365 299.168 400.512 298.4C399.658 297.632 398.976 296.715 398.464 295.648C397.994 294.539 397.76 293.195 397.76 291.616C397.76 288.544 398.89 286.133 401.152 284.384C403.413 282.592 406.485 281.696 410.368 281.696C412.33 281.696 414.208 281.888 416 282.272C417.792 282.613 419.136 282.955 420.032 283.296L418.624 289.568C417.77 289.184 416.682 288.843 415.36 288.544C414.037 288.203 412.501 288.032 410.752 288.032C409.173 288.032 407.893 288.309 406.912 288.864C405.93 289.376 405.44 290.187 405.44 291.296C405.44 291.851 405.525 292.341 405.696 292.768C405.909 293.195 406.25 293.6 406.72 293.984C407.189 294.325 407.808 294.688 408.576 295.072C409.344 295.413 410.282 295.776 411.392 296.16C413.226 296.843 414.784 297.525 416.064 298.208C417.344 298.848 418.389 299.595 419.2 300.448C420.053 301.259 420.672 302.197 421.056 303.264C421.44 304.331 421.632 305.611 421.632 307.104C421.632 310.304 420.437 312.736 418.048 314.4C415.701 316.021 412.33 316.832 407.936 316.832C404.992 316.832 402.624 316.576 400.832 316.064C399.04 315.595 397.781 315.211 397.056 314.912L398.4 308.448C399.552 308.917 400.917 309.365 402.496 309.792C404.117 310.219 405.952 310.432 408 310.432ZM437.57 287.84C437.57 289.333 437.058 290.549 436.034 291.488C435.052 292.427 433.858 292.896 432.45 292.896C430.999 292.896 429.783 292.427 428.802 291.488C427.82 290.549 427.33 289.333 427.33 287.84C427.33 286.347 427.82 285.131 428.802 284.192C429.783 283.211 430.999 282.72 432.45 282.72C433.858 282.72 435.052 283.211 436.034 284.192C437.058 285.131 437.57 286.347 437.57 287.84ZM437.57 311.776C437.57 313.269 437.058 314.485 436.034 315.424C435.052 316.363 433.858 316.832 432.45 316.832C430.999 316.832 429.783 316.363 428.802 315.424C427.82 314.485 427.33 313.269 427.33 311.776C427.33 310.283 427.82 309.067 428.802 308.128C429.783 307.147 430.999 306.656 432.45 306.656C433.858 306.656 435.052 307.147 436.034 308.128C437.058 309.067 437.57 310.283 437.57 311.776ZM474.563 266.336C476.184 266.336 477.55 266.464 478.659 266.72C479.811 266.976 480.707 267.232 481.347 267.488L480.131 273.76C479.534 273.547 478.808 273.355 477.955 273.184C477.144 273.013 476.248 272.928 475.267 272.928C472.707 272.928 470.936 273.611 469.955 274.976C469.016 276.341 468.547 278.112 468.547 280.288V282.528H480.835V288.992H468.547V316H460.803V280.16C460.803 275.808 461.934 272.416 464.195 269.984C466.456 267.552 469.912 266.336 474.563 266.336ZM498.435 316.64C496.131 316.597 494.211 316.341 492.675 315.872C491.182 315.403 489.987 314.741 489.091 313.888C488.195 312.992 487.555 311.904 487.171 310.624C486.83 309.301 486.659 307.808 486.659 306.144V267.616L494.403 266.336V304.672C494.403 305.611 494.467 306.4 494.595 307.04C494.766 307.68 495.043 308.235 495.427 308.704C495.811 309.131 496.323 309.472 496.963 309.728C497.646 309.941 498.499 310.112 499.523 310.24L498.435 316.64ZM503.947 299.424C503.947 296.48 504.374 293.899 505.227 291.68C506.123 289.461 507.296 287.627 508.747 286.176C510.198 284.683 511.862 283.573 513.739 282.848C515.616 282.08 517.536 281.696 519.499 281.696C524.107 281.696 527.691 283.125 530.251 285.984C532.854 288.843 534.155 293.109 534.155 298.784C534.155 299.211 534.134 299.701 534.091 300.256C534.091 300.768 534.07 301.237 534.027 301.664H511.947C512.16 304.352 513.099 306.443 514.763 307.936C516.47 309.387 518.923 310.112 522.123 310.112C524 310.112 525.707 309.941 527.243 309.6C528.822 309.259 530.059 308.896 530.955 308.512L531.979 314.848C531.552 315.061 530.955 315.296 530.187 315.552C529.462 315.765 528.608 315.957 527.627 316.128C526.688 316.341 525.664 316.512 524.555 316.64C523.446 316.768 522.315 316.832 521.163 316.832C518.219 316.832 515.659 316.405 513.483 315.552C511.307 314.656 509.515 313.44 508.107 311.904C506.699 310.325 505.654 308.491 504.971 306.4C504.288 304.267 503.947 301.941 503.947 299.424ZM526.411 295.968C526.411 294.901 526.262 293.899 525.963 292.96C525.664 291.979 525.216 291.147 524.619 290.464C524.064 289.739 523.36 289.184 522.507 288.8C521.696 288.373 520.715 288.16 519.563 288.16C518.368 288.16 517.323 288.395 516.427 288.864C515.531 289.291 514.763 289.867 514.123 290.592C513.526 291.317 513.056 292.149 512.715 293.088C512.374 294.027 512.139 294.987 512.011 295.968H526.411ZM554.398 293.472L561.502 282.528H569.63L558.622 298.336C560.926 301.323 563.123 304.352 565.214 307.424C567.347 310.453 569.096 313.312 570.462 316H562.078C561.694 315.189 561.182 314.272 560.542 313.248C559.944 312.181 559.283 311.093 558.558 309.984C557.875 308.832 557.15 307.701 556.382 306.592C555.614 305.483 554.867 304.437 554.142 303.456C552.648 305.376 551.176 307.509 549.726 309.856C548.318 312.16 547.144 314.208 546.206 316H538.27C538.91 314.72 539.678 313.355 540.574 311.904C541.47 310.453 542.43 308.981 543.454 307.488C544.478 305.952 545.523 304.437 546.59 302.944C547.699 301.408 548.787 299.957 549.854 298.592L538.782 282.528H547.294L554.398 293.472ZM572.785 294.176H590.001V301.28H572.785V294.176ZM602.508 299.168C602.508 302.581 603.319 305.269 604.94 307.232C606.561 309.152 608.801 310.112 611.66 310.112C612.897 310.112 613.943 310.069 614.796 309.984C615.692 309.856 616.417 309.728 616.972 309.6V290.4C616.289 289.931 615.372 289.504 614.22 289.12C613.111 288.693 611.916 288.48 610.636 288.48C607.82 288.48 605.751 289.44 604.428 291.36C603.148 293.28 602.508 295.883 602.508 299.168ZM624.716 314.976C623.18 315.445 621.239 315.872 618.892 316.256C616.588 316.64 614.156 316.832 611.596 316.832C608.951 316.832 606.583 316.427 604.492 315.616C602.401 314.805 600.609 313.653 599.116 312.16C597.665 310.624 596.535 308.789 595.724 306.656C594.956 304.48 594.572 302.048 594.572 299.36C594.572 296.715 594.892 294.325 595.532 292.192C596.215 290.016 597.196 288.16 598.476 286.624C599.756 285.088 601.313 283.915 603.148 283.104C604.983 282.251 607.095 281.824 609.484 281.824C611.105 281.824 612.535 282.016 613.772 282.4C615.009 282.784 616.076 283.211 616.972 283.68V267.616L624.716 266.336V314.976ZM642.361 316H634.617V282.528H642.361V316ZM643.193 272.736C643.193 274.187 642.724 275.339 641.785 276.192C640.846 277.045 639.737 277.472 638.457 277.472C637.134 277.472 636.004 277.045 635.065 276.192C634.126 275.339 633.657 274.187 633.657 272.736C633.657 271.243 634.126 270.069 635.065 269.216C636.004 268.363 637.134 267.936 638.457 267.936C639.737 267.936 640.846 268.363 641.785 269.216C642.724 270.069 643.193 271.243 643.193 272.736ZM671.313 289.504C670.673 289.291 669.777 289.077 668.625 288.864C667.515 288.608 666.214 288.48 664.721 288.48C663.867 288.48 662.95 288.565 661.969 288.736C661.03 288.907 660.369 289.056 659.985 289.184V316H652.241V284.128C653.734 283.573 655.59 283.061 657.809 282.592C660.07 282.08 662.566 281.824 665.297 281.824C665.809 281.824 666.406 281.867 667.089 281.952C667.771 281.995 668.454 282.08 669.137 282.208C669.819 282.293 670.481 282.421 671.121 282.592C671.761 282.72 672.273 282.848 672.657 282.976L671.313 289.504ZM676.197 299.424C676.197 296.48 676.624 293.899 677.477 291.68C678.373 289.461 679.546 287.627 680.997 286.176C682.448 284.683 684.112 283.573 685.989 282.848C687.866 282.08 689.786 281.696 691.749 281.696C696.357 281.696 699.941 283.125 702.501 285.984C705.104 288.843 706.405 293.109 706.405 298.784C706.405 299.211 706.384 299.701 706.341 300.256C706.341 300.768 706.32 301.237 706.277 301.664H684.197C684.41 304.352 685.349 306.443 687.013 307.936C688.72 309.387 691.173 310.112 694.373 310.112C696.25 310.112 697.957 309.941 699.493 309.6C701.072 309.259 702.309 308.896 703.205 308.512L704.229 314.848C703.802 315.061 703.205 315.296 702.437 315.552C701.712 315.765 700.858 315.957 699.877 316.128C698.938 316.341 697.914 316.512 696.805 316.64C695.696 316.768 694.565 316.832 693.413 316.832C690.469 316.832 687.909 316.405 685.733 315.552C683.557 314.656 681.765 313.44 680.357 311.904C678.949 310.325 677.904 308.491 677.221 306.4C676.538 304.267 676.197 301.941 676.197 299.424ZM698.661 295.968C698.661 294.901 698.512 293.899 698.213 292.96C697.914 291.979 697.466 291.147 696.869 290.464C696.314 289.739 695.61 289.184 694.757 288.8C693.946 288.373 692.965 288.16 691.813 288.16C690.618 288.16 689.573 288.395 688.677 288.864C687.781 289.291 687.013 289.867 686.373 290.592C685.776 291.317 685.306 292.149 684.965 293.088C684.624 294.027 684.389 294.987 684.261 295.968H698.661ZM712.76 299.296C712.76 296.821 713.144 294.517 713.911 292.384C714.68 290.208 715.768 288.331 717.176 286.752C718.626 285.173 720.376 283.936 722.424 283.04C724.472 282.144 726.776 281.696 729.336 281.696C732.493 281.696 735.48 282.272 738.296 283.424L736.632 289.76C735.736 289.376 734.712 289.056 733.56 288.8C732.45 288.544 731.256 288.416 729.976 288.416C726.946 288.416 724.642 289.376 723.064 291.296C721.485 293.173 720.696 295.84 720.696 299.296C720.696 302.624 721.442 305.269 722.936 307.232C724.429 309.152 726.946 310.112 730.488 310.112C731.81 310.112 733.112 309.984 734.392 309.728C735.672 309.472 736.781 309.152 737.72 308.768L738.808 315.168C737.954 315.595 736.653 315.979 734.904 316.32C733.197 316.661 731.426 316.832 729.592 316.832C726.733 316.832 724.237 316.405 722.104 315.552C720.013 314.656 718.264 313.44 716.856 311.904C715.49 310.325 714.466 308.469 713.784 306.336C713.101 304.16 712.76 301.813 712.76 299.296ZM744.419 273.696L752.163 272.416V282.528H764.067V288.992H752.163V302.624C752.163 305.312 752.59 307.232 753.443 308.384C754.296 309.536 755.747 310.112 757.795 310.112C759.203 310.112 760.44 309.963 761.507 309.664C762.616 309.365 763.491 309.088 764.131 308.832L765.411 314.976C764.515 315.36 763.342 315.744 761.891 316.128C760.44 316.555 758.734 316.768 756.771 316.768C754.382 316.768 752.376 316.448 750.755 315.808C749.176 315.168 747.918 314.251 746.979 313.056C746.04 311.819 745.379 310.347 744.995 308.64C744.611 306.891 744.419 304.907 744.419 302.688V273.696ZM779.361 316H771.617V282.528H779.361V316ZM780.193 272.736C780.193 274.187 779.724 275.339 778.785 276.192C777.846 277.045 776.737 277.472 775.457 277.472C774.134 277.472 773.004 277.045 772.065 276.192C771.126 275.339 770.657 274.187 770.657 272.736C770.657 271.243 771.126 270.069 772.065 269.216C773.004 268.363 774.134 267.936 775.457 267.936C776.737 267.936 777.846 268.363 778.785 269.216C779.724 270.069 780.193 271.243 780.193 272.736ZM819.513 299.232C819.513 301.877 819.129 304.288 818.361 306.464C817.593 308.64 816.505 310.496 815.097 312.032C813.689 313.568 811.982 314.763 809.977 315.616C808.014 316.469 805.838 316.896 803.449 316.896C801.059 316.896 798.883 316.469 796.921 315.616C794.958 314.763 793.273 313.568 791.865 312.032C790.457 310.496 789.347 308.64 788.536 306.464C787.769 304.288 787.385 301.877 787.385 299.232C787.385 296.587 787.769 294.197 788.536 292.064C789.347 289.888 790.457 288.032 791.865 286.496C793.315 284.96 795.022 283.787 796.985 282.976C798.947 282.123 801.102 281.696 803.449 281.696C805.795 281.696 807.95 282.123 809.913 282.976C811.918 283.787 813.625 284.96 815.033 286.496C816.441 288.032 817.529 289.888 818.297 292.064C819.107 294.197 819.513 296.587 819.513 299.232ZM811.577 299.232C811.577 295.904 810.851 293.28 809.401 291.36C807.993 289.397 806.009 288.416 803.449 288.416C800.889 288.416 798.883 289.397 797.433 291.36C796.025 293.28 795.321 295.904 795.321 299.232C795.321 302.603 796.025 305.269 797.433 307.232C798.883 309.195 800.889 310.176 803.449 310.176C806.009 310.176 807.993 309.195 809.401 307.232C810.851 305.269 811.577 302.603 811.577 299.232ZM827.491 283.616C828.984 283.189 830.925 282.784 833.315 282.4C835.704 282.016 838.349 281.824 841.251 281.824C843.981 281.824 846.264 282.208 848.099 282.976C849.933 283.701 851.384 284.747 852.451 286.112C853.56 287.435 854.328 289.056 854.755 290.976C855.224 292.853 855.458 294.923 855.458 297.184V316H847.715V298.4C847.715 296.608 847.587 295.093 847.331 293.856C847.117 292.576 846.733 291.552 846.179 290.784C845.667 289.973 844.941 289.397 844.003 289.056C843.107 288.672 841.997 288.48 840.675 288.48C839.693 288.48 838.669 288.544 837.603 288.672C836.536 288.8 835.747 288.907 835.235 288.992V316H827.491V283.616Z" fill="#60195E"/>
<path d="M24.75 515.988C24.17 515.795 23.358 515.601 22.314 515.408C21.3087 515.176 20.1293 515.06 18.776 515.06C18.0027 515.06 17.1713 515.137 16.282 515.292C15.4313 515.447 14.832 515.582 14.484 515.698V540H7.466V511.116C8.81933 510.613 10.5013 510.149 12.512 509.724C14.5613 509.26 16.8233 509.028 19.298 509.028C19.762 509.028 20.3033 509.067 20.922 509.144C21.5407 509.183 22.1593 509.26 22.778 509.376C23.3967 509.453 23.996 509.569 24.576 509.724C25.156 509.84 25.62 509.956 25.968 510.072L24.75 515.988ZM58.2926 524.804C58.2926 527.201 57.9446 529.386 57.2486 531.358C56.5526 533.33 55.5666 535.012 54.2906 536.404C53.0146 537.796 51.4679 538.879 49.6506 539.652C47.8719 540.425 45.8999 540.812 43.7346 540.812C41.5692 540.812 39.5972 540.425 37.8186 539.652C36.0399 538.879 34.5126 537.796 33.2366 536.404C31.9606 535.012 30.9552 533.33 30.2206 531.358C29.5246 529.386 29.1766 527.201 29.1766 524.804C29.1766 522.407 29.5246 520.241 30.2206 518.308C30.9552 516.336 31.9606 514.654 33.2366 513.262C34.5512 511.87 36.0979 510.807 37.8766 510.072C39.6552 509.299 41.6079 508.912 43.7346 508.912C45.8612 508.912 47.8139 509.299 49.5926 510.072C51.4099 510.807 52.9566 511.87 54.2326 513.262C55.5086 514.654 56.4946 516.336 57.1906 518.308C57.9252 520.241 58.2926 522.407 58.2926 524.804ZM51.1006 524.804C51.1006 521.788 50.4432 519.41 49.1286 517.67C47.8526 515.891 46.0546 515.002 43.7346 515.002C41.4146 515.002 39.5972 515.891 38.2826 517.67C37.0066 519.41 36.3686 521.788 36.3686 524.804C36.3686 527.859 37.0066 530.275 38.2826 532.054C39.5972 533.833 41.4146 534.722 43.7346 534.722C46.0546 534.722 47.8526 533.833 49.1286 532.054C50.4432 530.275 51.1006 527.859 51.1006 524.804ZM82.9956 520.918C82.1063 524.321 81.1396 527.646 80.0956 530.894C79.0903 534.103 78.0849 537.139 77.0796 540H71.3376C70.5643 538.221 69.7523 536.191 68.9016 533.91C68.0509 531.629 67.2003 529.193 66.3496 526.602C65.4989 524.011 64.6483 521.285 63.7976 518.424C62.9469 515.563 62.1156 512.643 61.3036 509.666H68.7276C69.0756 511.29 69.4816 513.049 69.9456 514.944C70.4096 516.8 70.8929 518.714 71.3956 520.686C71.8983 522.619 72.4203 524.514 72.9616 526.37C73.5029 528.226 74.0443 529.927 74.5856 531.474C75.1656 529.695 75.7263 527.859 76.2676 525.964C76.8476 524.069 77.3889 522.175 77.8916 520.28C78.3943 518.385 78.8583 516.549 79.2836 514.77C79.7476 512.953 80.1536 511.251 80.5016 509.666H85.8956C86.2436 511.251 86.6303 512.953 87.0556 514.77C87.4809 516.549 87.9256 518.385 88.3896 520.28C88.8923 522.175 89.4143 524.069 89.9556 525.964C90.5356 527.859 91.1156 529.695 91.6956 531.474C92.1983 529.927 92.7203 528.226 93.2616 526.37C93.8029 524.514 94.3249 522.619 94.8276 520.686C95.3689 518.714 95.8716 516.8 96.3356 514.944C96.7996 513.049 97.2056 511.29 97.5536 509.666H104.804C103.992 512.643 103.16 515.563 102.31 518.424C101.459 521.285 100.608 524.011 99.7576 526.602C98.9069 529.193 98.0563 531.629 97.2056 533.91C96.3549 536.191 95.5236 538.221 94.7116 540H89.0276C88.0223 537.139 86.9783 534.103 85.8956 530.894C84.8516 527.646 83.8849 524.321 82.9956 520.918ZM130.537 522.658C130.537 527.414 131.252 531.88 132.683 536.056C134.113 540.232 136.105 544.041 138.657 547.482L133.727 550.73C130.595 546.979 128.12 542.726 126.303 537.97C124.485 533.175 123.577 528.071 123.577 522.658C123.577 517.245 124.485 512.16 126.303 507.404C128.12 502.609 130.595 498.337 133.727 494.586L138.657 497.834C136.105 501.314 134.113 505.142 132.683 509.318C131.252 513.455 130.537 517.902 130.537 522.658ZM148.857 524.746C148.857 527.839 149.592 530.275 151.061 532.054C152.53 533.794 154.56 534.664 157.151 534.664C158.272 534.664 159.22 534.625 159.993 534.548C160.805 534.432 161.462 534.316 161.965 534.2V516.8C161.346 516.375 160.515 515.988 159.471 515.64C158.466 515.253 157.383 515.06 156.223 515.06C153.671 515.06 151.796 515.93 150.597 517.67C149.437 519.41 148.857 521.769 148.857 524.746ZM168.983 539.072C167.591 539.497 165.832 539.884 163.705 540.232C161.617 540.58 159.413 540.754 157.093 540.754C154.696 540.754 152.55 540.387 150.655 539.652C148.76 538.917 147.136 537.873 145.783 536.52C144.468 535.128 143.444 533.465 142.709 531.532C142.013 529.56 141.665 527.356 141.665 524.92C141.665 522.523 141.955 520.357 142.535 518.424C143.154 516.452 144.043 514.77 145.203 513.378C146.363 511.986 147.774 510.923 149.437 510.188C151.1 509.415 153.014 509.028 155.179 509.028C156.648 509.028 157.944 509.202 159.065 509.55C160.186 509.898 161.153 510.285 161.965 510.71V496.152L168.983 494.992V539.072ZM176.216 524.978C176.216 522.31 176.602 519.971 177.376 517.96C178.188 515.949 179.251 514.287 180.566 512.972C181.88 511.619 183.388 510.613 185.09 509.956C186.791 509.26 188.531 508.912 190.31 508.912C194.486 508.912 197.734 510.207 200.054 512.798C202.412 515.389 203.592 519.255 203.592 524.398C203.592 524.785 203.572 525.229 203.534 525.732C203.534 526.196 203.514 526.621 203.476 527.008H183.466C183.659 529.444 184.51 531.339 186.018 532.692C187.564 534.007 189.788 534.664 192.688 534.664C194.389 534.664 195.936 534.509 197.328 534.2C198.758 533.891 199.88 533.562 200.692 533.214L201.62 538.956C201.233 539.149 200.692 539.362 199.996 539.594C199.338 539.787 198.565 539.961 197.676 540.116C196.825 540.309 195.897 540.464 194.892 540.58C193.886 540.696 192.862 540.754 191.818 540.754C189.15 540.754 186.83 540.367 184.858 539.594C182.886 538.782 181.262 537.68 179.986 536.288C178.71 534.857 177.762 533.195 177.144 531.3C176.525 529.367 176.216 527.259 176.216 524.978ZM196.574 521.846C196.574 520.879 196.438 519.971 196.168 519.12C195.897 518.231 195.491 517.477 194.95 516.858C194.447 516.201 193.809 515.698 193.036 515.35C192.301 514.963 191.412 514.77 190.368 514.77C189.285 514.77 188.338 514.983 187.526 515.408C186.714 515.795 186.018 516.317 185.438 516.974C184.896 517.631 184.471 518.385 184.162 519.236C183.852 520.087 183.64 520.957 183.524 521.846H196.574ZM223.386 494.992C225.01 494.992 226.441 495.147 227.678 495.456C228.916 495.727 229.844 495.978 230.462 496.21L229.128 502.01C228.471 501.701 227.698 501.449 226.808 501.256C225.958 501.063 225.03 500.966 224.024 500.966C222.903 500.966 221.956 501.14 221.182 501.488C220.409 501.797 219.79 502.242 219.326 502.822C218.862 503.402 218.534 504.117 218.34 504.968C218.147 505.78 218.05 506.669 218.05 507.636V509.666H229.07V515.524H218.05V540H211.032V507.52C211.032 503.615 212.057 500.56 214.106 498.356C216.156 496.113 219.249 494.992 223.386 494.992ZM244.927 535.07C247.092 535.07 248.736 534.954 249.857 534.722V526.95C249.47 526.834 248.91 526.718 248.175 526.602C247.44 526.486 246.628 526.428 245.739 526.428C244.966 526.428 244.173 526.486 243.361 526.602C242.588 526.718 241.872 526.931 241.215 527.24C240.596 527.549 240.094 527.994 239.707 528.574C239.32 529.115 239.127 529.811 239.127 530.662C239.127 532.325 239.649 533.485 240.693 534.142C241.737 534.761 243.148 535.07 244.927 535.07ZM244.347 508.912C246.667 508.912 248.62 509.202 250.205 509.782C251.79 510.362 253.047 511.174 253.975 512.218C254.942 513.262 255.618 514.538 256.005 516.046C256.43 517.515 256.643 519.139 256.643 520.918V539.304C255.56 539.536 253.917 539.807 251.713 540.116C249.548 540.464 247.092 540.638 244.347 540.638C242.53 540.638 240.867 540.464 239.359 540.116C237.851 539.768 236.556 539.207 235.473 538.434C234.429 537.661 233.598 536.655 232.979 535.418C232.399 534.181 232.109 532.653 232.109 530.836C232.109 529.096 232.438 527.627 233.095 526.428C233.791 525.229 234.719 524.263 235.879 523.528C237.039 522.755 238.373 522.213 239.881 521.904C241.428 521.556 243.032 521.382 244.695 521.382C245.468 521.382 246.28 521.44 247.131 521.556C247.982 521.633 248.89 521.788 249.857 522.02V520.86C249.857 520.048 249.76 519.275 249.567 518.54C249.374 517.805 249.026 517.167 248.523 516.626C248.059 516.046 247.421 515.601 246.609 515.292C245.836 514.983 244.85 514.828 243.651 514.828C242.027 514.828 240.538 514.944 239.185 515.176C237.832 515.408 236.73 515.679 235.879 515.988L235.009 510.304C235.898 509.995 237.194 509.685 238.895 509.376C240.596 509.067 242.414 508.912 244.347 508.912ZM290.119 539.072C288.766 539.42 287.007 539.768 284.841 540.116C282.676 540.503 280.298 540.696 277.707 540.696C275.271 540.696 273.222 540.348 271.559 539.652C269.935 538.956 268.621 537.989 267.615 536.752C266.649 535.515 265.953 534.045 265.527 532.344C265.102 530.604 264.889 528.709 264.889 526.66V509.666H271.907V525.558C271.907 528.806 272.371 531.126 273.299 532.518C274.266 533.91 275.929 534.606 278.287 534.606C279.138 534.606 280.027 534.567 280.955 534.49C281.922 534.413 282.637 534.316 283.101 534.2V509.666H290.119V539.072ZM309.608 540.58C307.52 540.541 305.78 540.309 304.388 539.884C303.035 539.459 301.952 538.859 301.14 538.086C300.328 537.274 299.748 536.288 299.4 535.128C299.091 533.929 298.936 532.576 298.936 531.068V496.152L305.954 494.992V529.734C305.954 530.585 306.012 531.3 306.128 531.88C306.283 532.46 306.534 532.963 306.882 533.388C307.23 533.775 307.694 534.084 308.274 534.316C308.893 534.509 309.666 534.664 310.594 534.78L309.608 540.58ZM315.923 501.662L322.941 500.502V509.666H333.729V515.524H322.941V527.878C322.941 530.314 323.327 532.054 324.101 533.098C324.874 534.142 326.189 534.664 328.045 534.664C329.321 534.664 330.442 534.529 331.409 534.258C332.414 533.987 333.207 533.736 333.787 533.504L334.947 539.072C334.135 539.42 333.071 539.768 331.757 540.116C330.442 540.503 328.895 540.696 327.117 540.696C324.951 540.696 323.134 540.406 321.665 539.826C320.234 539.246 319.093 538.415 318.243 537.332C317.392 536.211 316.793 534.877 316.445 533.33C316.097 531.745 315.923 529.947 315.923 527.936V501.662ZM344.399 522.658C344.399 517.902 343.684 513.455 342.253 509.318C340.822 505.142 338.831 501.314 336.279 497.834L341.209 494.586C344.341 498.337 346.816 502.609 348.633 507.404C350.45 512.16 351.359 517.245 351.359 522.658C351.359 528.071 350.45 533.175 348.633 537.97C346.816 542.726 344.341 546.979 341.209 550.73L336.279 547.482C338.831 544.041 340.822 540.232 342.253 536.056C343.684 531.88 344.399 527.414 344.399 522.658Z" fill="#60195E"/>
<path d="M1534.78 104.862C1534.78 102.619 1535.13 100.531 1535.83 98.598C1536.52 96.626 1537.51 94.9247 1538.79 93.494C1540.1 92.0633 1541.69 90.942 1543.54 90.13C1545.4 89.318 1547.49 88.912 1549.81 88.912C1552.67 88.912 1555.37 89.434 1557.93 90.478L1556.42 96.22C1555.61 95.872 1554.68 95.582 1553.63 95.35C1552.63 95.118 1551.55 95.002 1550.39 95.002C1547.64 95.002 1545.55 95.872 1544.12 97.612C1542.69 99.3133 1541.98 101.73 1541.98 104.862C1541.98 107.878 1542.65 110.275 1544.01 112.054C1545.36 113.794 1547.64 114.664 1550.85 114.664C1552.05 114.664 1553.23 114.548 1554.39 114.316C1555.55 114.084 1556.55 113.794 1557.4 113.446L1558.39 119.246C1557.62 119.633 1556.44 119.981 1554.85 120.29C1553.31 120.599 1551.7 120.754 1550.04 120.754C1547.45 120.754 1545.19 120.367 1543.25 119.594C1541.36 118.782 1539.77 117.68 1538.5 116.288C1537.26 114.857 1536.33 113.175 1535.71 111.242C1535.09 109.27 1534.78 107.143 1534.78 104.862ZM1590.63 104.804C1590.63 107.201 1590.29 109.386 1589.59 111.358C1588.89 113.33 1587.91 115.012 1586.63 116.404C1585.36 117.796 1583.81 118.879 1581.99 119.652C1580.21 120.425 1578.24 120.812 1576.08 120.812C1573.91 120.812 1571.94 120.425 1570.16 119.652C1568.38 118.879 1566.85 117.796 1565.58 116.404C1564.3 115.012 1563.3 113.33 1562.56 111.358C1561.87 109.386 1561.52 107.201 1561.52 104.804C1561.52 102.407 1561.87 100.241 1562.56 98.308C1563.3 96.336 1564.3 94.654 1565.58 93.262C1566.89 91.87 1568.44 90.8067 1570.22 90.072C1572 89.2987 1573.95 88.912 1576.08 88.912C1578.2 88.912 1580.16 89.2987 1581.93 90.072C1583.75 90.8067 1585.3 91.87 1586.57 93.262C1587.85 94.654 1588.84 96.336 1589.53 98.308C1590.27 100.241 1590.63 102.407 1590.63 104.804ZM1583.44 104.804C1583.44 101.788 1582.79 99.41 1581.47 97.67C1580.19 95.8913 1578.4 95.002 1576.08 95.002C1573.76 95.002 1571.94 95.8913 1570.62 97.67C1569.35 99.41 1568.71 101.788 1568.71 104.804C1568.71 107.859 1569.35 110.275 1570.62 112.054C1571.94 113.833 1573.76 114.722 1576.08 114.722C1578.4 114.722 1580.19 113.833 1581.47 112.054C1582.79 110.275 1583.44 107.859 1583.44 104.804ZM1608.42 120.58C1606.33 120.541 1604.59 120.309 1603.2 119.884C1601.85 119.459 1600.76 118.859 1599.95 118.086C1599.14 117.274 1598.56 116.288 1598.21 115.128C1597.9 113.929 1597.75 112.576 1597.75 111.068V76.152L1604.77 74.992V109.734C1604.77 110.585 1604.82 111.3 1604.94 111.88C1605.1 112.46 1605.35 112.963 1605.69 113.388C1606.04 113.775 1606.51 114.084 1607.09 114.316C1607.71 114.509 1608.48 114.664 1609.41 114.78L1608.42 120.58ZM1639.97 119.072C1638.61 119.42 1636.85 119.768 1634.69 120.116C1632.52 120.503 1630.14 120.696 1627.55 120.696C1625.12 120.696 1623.07 120.348 1621.41 119.652C1619.78 118.956 1618.47 117.989 1617.46 116.752C1616.49 115.515 1615.8 114.045 1615.37 112.344C1614.95 110.604 1614.74 108.709 1614.74 106.66V89.666H1621.75V105.558C1621.75 108.806 1622.22 111.126 1623.15 112.518C1624.11 113.91 1625.77 114.606 1628.13 114.606C1628.98 114.606 1629.87 114.567 1630.8 114.49C1631.77 114.413 1632.48 114.316 1632.95 114.2V89.666H1639.97V119.072ZM1666.18 104.05C1666.18 100.879 1665.78 98.598 1664.96 97.206C1664.19 95.7753 1662.72 95.06 1660.56 95.06C1659.78 95.06 1658.93 95.118 1658 95.234C1657.08 95.35 1656.38 95.4467 1655.92 95.524V120H1648.9V90.652C1650.25 90.2653 1652.01 89.898 1654.18 89.55C1656.38 89.202 1658.7 89.028 1661.14 89.028C1663.22 89.028 1664.92 89.2987 1666.24 89.84C1667.59 90.3813 1668.71 91.0967 1669.6 91.986C1670.03 91.6767 1670.57 91.348 1671.23 91C1671.88 90.652 1672.62 90.3427 1673.43 90.072C1674.24 89.7627 1675.09 89.5113 1675.98 89.318C1676.91 89.1247 1677.84 89.028 1678.77 89.028C1681.13 89.028 1683.06 89.376 1684.57 90.072C1686.11 90.7293 1687.31 91.6767 1688.16 92.914C1689.05 94.1127 1689.65 95.582 1689.96 97.322C1690.31 99.0233 1690.48 100.899 1690.48 102.948V120H1683.47V104.05C1683.47 100.879 1683.08 98.598 1682.31 97.206C1681.53 95.7753 1680.04 95.06 1677.84 95.06C1676.72 95.06 1675.65 95.2533 1674.65 95.64C1673.64 95.988 1672.89 96.336 1672.39 96.684C1672.7 97.6507 1672.91 98.6753 1673.03 99.758C1673.14 100.841 1673.2 102.001 1673.2 103.238V120H1666.18V104.05ZM1699.08 90.652C1700.43 90.2653 1702.19 89.898 1704.36 89.55C1706.52 89.202 1708.92 89.028 1711.55 89.028C1714.03 89.028 1716.09 89.376 1717.76 90.072C1719.42 90.7293 1720.73 91.6767 1721.7 92.914C1722.71 94.1127 1723.4 95.582 1723.79 97.322C1724.21 99.0233 1724.43 100.899 1724.43 102.948V120H1717.41V104.05C1717.41 102.426 1717.29 101.053 1717.06 99.932C1716.87 98.772 1716.52 97.844 1716.02 97.148C1715.55 96.4133 1714.9 95.8913 1714.05 95.582C1713.23 95.234 1712.23 95.06 1711.03 95.06C1710.14 95.06 1709.21 95.118 1708.25 95.234C1707.28 95.35 1706.56 95.4467 1706.1 95.524V120H1699.08V90.652Z" fill="#60195E"/>
<path d="M1933.78 104.862C1933.78 102.619 1934.13 100.531 1934.83 98.598C1935.52 96.626 1936.51 94.9247 1937.79 93.494C1939.1 92.0633 1940.69 90.942 1942.54 90.13C1944.4 89.318 1946.49 88.912 1948.81 88.912C1951.67 88.912 1954.37 89.434 1956.93 90.478L1955.42 96.22C1954.61 95.872 1953.68 95.582 1952.63 95.35C1951.63 95.118 1950.55 95.002 1949.39 95.002C1946.64 95.002 1944.55 95.872 1943.12 97.612C1941.69 99.3133 1940.98 101.73 1940.98 104.862C1940.98 107.878 1941.65 110.275 1943.01 112.054C1944.36 113.794 1946.64 114.664 1949.85 114.664C1951.05 114.664 1952.23 114.548 1953.39 114.316C1954.55 114.084 1955.55 113.794 1956.4 113.446L1957.39 119.246C1956.62 119.633 1955.44 119.981 1953.85 120.29C1952.31 120.599 1950.7 120.754 1949.04 120.754C1946.45 120.754 1944.19 120.367 1942.25 119.594C1940.36 118.782 1938.77 117.68 1937.5 116.288C1936.26 114.857 1935.33 113.175 1934.71 111.242C1934.09 109.27 1933.78 107.143 1933.78 104.862ZM1989.63 104.804C1989.63 107.201 1989.29 109.386 1988.59 111.358C1987.89 113.33 1986.91 115.012 1985.63 116.404C1984.36 117.796 1982.81 118.879 1980.99 119.652C1979.21 120.425 1977.24 120.812 1975.08 120.812C1972.91 120.812 1970.94 120.425 1969.16 119.652C1967.38 118.879 1965.85 117.796 1964.58 116.404C1963.3 115.012 1962.3 113.33 1961.56 111.358C1960.87 109.386 1960.52 107.201 1960.52 104.804C1960.52 102.407 1960.87 100.241 1961.56 98.308C1962.3 96.336 1963.3 94.654 1964.58 93.262C1965.89 91.87 1967.44 90.8067 1969.22 90.072C1971 89.2987 1972.95 88.912 1975.08 88.912C1977.2 88.912 1979.16 89.2987 1980.93 90.072C1982.75 90.8067 1984.3 91.87 1985.57 93.262C1986.85 94.654 1987.84 96.336 1988.53 98.308C1989.27 100.241 1989.63 102.407 1989.63 104.804ZM1982.44 104.804C1982.44 101.788 1981.79 99.41 1980.47 97.67C1979.19 95.8913 1977.4 95.002 1975.08 95.002C1972.76 95.002 1970.94 95.8913 1969.62 97.67C1968.35 99.41 1967.71 101.788 1967.71 104.804C1967.71 107.859 1968.35 110.275 1969.62 112.054C1970.94 113.833 1972.76 114.722 1975.08 114.722C1977.4 114.722 1979.19 113.833 1980.47 112.054C1981.79 110.275 1982.44 107.859 1982.44 104.804ZM2007.42 120.58C2005.33 120.541 2003.59 120.309 2002.2 119.884C2000.85 119.459 1999.76 118.859 1998.95 118.086C1998.14 117.274 1997.56 116.288 1997.21 115.128C1996.9 113.929 1996.75 112.576 1996.75 111.068V76.152L2003.77 74.992V109.734C2003.77 110.585 2003.82 111.3 2003.94 111.88C2004.1 112.46 2004.35 112.963 2004.69 113.388C2005.04 113.775 2005.51 114.084 2006.09 114.316C2006.71 114.509 2007.48 114.664 2008.41 114.78L2007.42 120.58ZM2038.97 119.072C2037.61 119.42 2035.85 119.768 2033.69 120.116C2031.52 120.503 2029.14 120.696 2026.55 120.696C2024.12 120.696 2022.07 120.348 2020.41 119.652C2018.78 118.956 2017.47 117.989 2016.46 116.752C2015.49 115.515 2014.8 114.045 2014.37 112.344C2013.95 110.604 2013.74 108.709 2013.74 106.66V89.666H2020.75V105.558C2020.75 108.806 2021.22 111.126 2022.15 112.518C2023.11 113.91 2024.77 114.606 2027.13 114.606C2027.98 114.606 2028.87 114.567 2029.8 114.49C2030.77 114.413 2031.48 114.316 2031.95 114.2V89.666H2038.97V119.072ZM2065.18 104.05C2065.18 100.879 2064.78 98.598 2063.96 97.206C2063.19 95.7753 2061.72 95.06 2059.56 95.06C2058.78 95.06 2057.93 95.118 2057 95.234C2056.08 95.35 2055.38 95.4467 2054.92 95.524V120H2047.9V90.652C2049.25 90.2653 2051.01 89.898 2053.18 89.55C2055.38 89.202 2057.7 89.028 2060.14 89.028C2062.22 89.028 2063.92 89.2987 2065.24 89.84C2066.59 90.3813 2067.71 91.0967 2068.6 91.986C2069.03 91.6767 2069.57 91.348 2070.23 91C2070.88 90.652 2071.62 90.3427 2072.43 90.072C2073.24 89.7627 2074.09 89.5113 2074.98 89.318C2075.91 89.1247 2076.84 89.028 2077.77 89.028C2080.13 89.028 2082.06 89.376 2083.57 90.072C2085.11 90.7293 2086.31 91.6767 2087.16 92.914C2088.05 94.1127 2088.65 95.582 2088.96 97.322C2089.31 99.0233 2089.48 100.899 2089.48 102.948V120H2082.47V104.05C2082.47 100.879 2082.08 98.598 2081.31 97.206C2080.53 95.7753 2079.04 95.06 2076.84 95.06C2075.72 95.06 2074.65 95.2533 2073.65 95.64C2072.64 95.988 2071.89 96.336 2071.39 96.684C2071.7 97.6507 2071.91 98.6753 2072.03 99.758C2072.14 100.841 2072.2 102.001 2072.2 103.238V120H2065.18V104.05ZM2098.08 90.652C2099.43 90.2653 2101.19 89.898 2103.36 89.55C2105.52 89.202 2107.92 89.028 2110.55 89.028C2113.03 89.028 2115.09 89.376 2116.76 90.072C2118.42 90.7293 2119.73 91.6767 2120.7 92.914C2121.71 94.1127 2122.4 95.582 2122.79 97.322C2123.21 99.0233 2123.43 100.899 2123.43 102.948V120H2116.41V104.05C2116.41 102.426 2116.29 101.053 2116.06 99.932C2115.87 98.772 2115.52 97.844 2115.02 97.148C2114.55 96.4133 2113.9 95.8913 2113.05 95.582C2112.23 95.234 2111.23 95.06 2110.03 95.06C2109.14 95.06 2108.21 95.118 2107.25 95.234C2106.28 95.35 2105.56 95.4467 2105.1 95.524V120H2098.08V90.652ZM2128.88 100.222H2144.48V106.66H2128.88V100.222ZM2167.59 95.988C2167.01 95.7947 2166.2 95.6013 2165.15 95.408C2164.15 95.176 2162.97 95.06 2161.61 95.06C2160.84 95.06 2160.01 95.1373 2159.12 95.292C2158.27 95.4467 2157.67 95.582 2157.32 95.698V120H2150.3V91.116C2151.66 90.6133 2153.34 90.1493 2155.35 89.724C2157.4 89.26 2159.66 89.028 2162.14 89.028C2162.6 89.028 2163.14 89.0667 2163.76 89.144C2164.38 89.1827 2165 89.26 2165.62 89.376C2166.23 89.4533 2166.83 89.5693 2167.41 89.724C2167.99 89.84 2168.46 89.956 2168.81 90.072L2167.59 95.988ZM2172.01 104.978C2172.01 102.31 2172.4 99.9707 2173.17 97.96C2173.99 95.9493 2175.05 94.2867 2176.36 92.972C2177.68 91.6187 2179.19 90.6133 2180.89 89.956C2182.59 89.26 2184.33 88.912 2186.11 88.912C2190.28 88.912 2193.53 90.2073 2195.85 92.798C2198.21 95.3887 2199.39 99.2553 2199.39 104.398C2199.39 104.785 2199.37 105.229 2199.33 105.732C2199.33 106.196 2199.31 106.621 2199.27 107.008H2179.26C2179.46 109.444 2180.31 111.339 2181.82 112.692C2183.36 114.007 2185.59 114.664 2188.49 114.664C2190.19 114.664 2191.73 114.509 2193.13 114.2C2194.56 113.891 2195.68 113.562 2196.49 113.214L2197.42 118.956C2197.03 119.149 2196.49 119.362 2195.79 119.594C2195.14 119.787 2194.36 119.961 2193.47 120.116C2192.62 120.309 2191.7 120.464 2190.69 120.58C2189.69 120.696 2188.66 120.754 2187.62 120.754C2184.95 120.754 2182.63 120.367 2180.66 119.594C2178.68 118.782 2177.06 117.68 2175.78 116.288C2174.51 114.857 2173.56 113.195 2172.94 111.3C2172.32 109.367 2172.01 107.259 2172.01 104.978ZM2192.37 101.846C2192.37 100.879 2192.24 99.9707 2191.97 99.12C2191.7 98.2307 2191.29 97.4767 2190.75 96.858C2190.25 96.2007 2189.61 95.698 2188.83 95.35C2188.1 94.9633 2187.21 94.77 2186.17 94.77C2185.08 94.77 2184.14 94.9827 2183.32 95.408C2182.51 95.7947 2181.82 96.3167 2181.24 96.974C2180.7 97.6313 2180.27 98.3853 2179.96 99.236C2179.65 100.087 2179.44 100.957 2179.32 101.846H2192.37ZM2214.6 120C2212.67 116.017 2210.68 111.455 2208.63 106.312C2206.62 101.131 2204.78 95.582 2203.12 89.666H2210.6C2211.03 91.3673 2211.51 93.204 2212.05 95.176C2212.63 97.1093 2213.23 99.062 2213.85 101.034C2214.51 102.967 2215.16 104.862 2215.82 106.718C2216.52 108.535 2217.16 110.179 2217.74 111.648C2218.32 110.179 2218.93 108.535 2219.59 106.718C2220.25 104.862 2220.89 102.967 2221.51 101.034C2222.16 99.062 2222.78 97.1093 2223.36 95.176C2223.94 93.204 2224.44 91.3673 2224.87 89.666H2232.12C2230.46 95.582 2228.6 101.131 2226.55 106.312C2224.54 111.455 2222.57 116.017 2220.64 120H2214.6ZM2235 104.978C2235 102.31 2235.39 99.9707 2236.16 97.96C2236.97 95.9493 2238.03 94.2867 2239.35 92.972C2240.66 91.6187 2242.17 90.6133 2243.87 89.956C2245.57 89.26 2247.31 88.912 2249.09 88.912C2253.27 88.912 2256.52 90.2073 2258.84 92.798C2261.2 95.3887 2262.37 99.2553 2262.37 104.398C2262.37 104.785 2262.36 105.229 2262.32 105.732C2262.32 106.196 2262.3 106.621 2262.26 107.008H2242.25C2242.44 109.444 2243.29 111.339 2244.8 112.692C2246.35 114.007 2248.57 114.664 2251.47 114.664C2253.17 114.664 2254.72 114.509 2256.11 114.2C2257.54 113.891 2258.66 113.562 2259.47 113.214L2260.4 118.956C2260.02 119.149 2259.47 119.362 2258.78 119.594C2258.12 119.787 2257.35 119.961 2256.46 120.116C2255.61 120.309 2254.68 120.464 2253.67 120.58C2252.67 120.696 2251.64 120.754 2250.6 120.754C2247.93 120.754 2245.61 120.367 2243.64 119.594C2241.67 118.782 2240.04 117.68 2238.77 116.288C2237.49 114.857 2236.55 113.195 2235.93 111.3C2235.31 109.367 2235 107.259 2235 104.978ZM2255.36 101.846C2255.36 100.879 2255.22 99.9707 2254.95 99.12C2254.68 98.2307 2254.27 97.4767 2253.73 96.858C2253.23 96.2007 2252.59 95.698 2251.82 95.35C2251.08 94.9633 2250.19 94.77 2249.15 94.77C2248.07 94.77 2247.12 94.9827 2246.31 95.408C2245.5 95.7947 2244.8 96.3167 2244.22 96.974C2243.68 97.6313 2243.25 98.3853 2242.94 99.236C2242.64 100.087 2242.42 100.957 2242.31 101.846H2255.36ZM2287.1 95.988C2286.52 95.7947 2285.71 95.6013 2284.66 95.408C2283.66 95.176 2282.48 95.06 2281.13 95.06C2280.35 95.06 2279.52 95.1373 2278.63 95.292C2277.78 95.4467 2277.18 95.582 2276.83 95.698V120H2269.82V91.116C2271.17 90.6133 2272.85 90.1493 2274.86 89.724C2276.91 89.26 2279.17 89.028 2281.65 89.028C2282.11 89.028 2282.65 89.0667 2283.27 89.144C2283.89 89.1827 2284.51 89.26 2285.13 89.376C2285.75 89.4533 2286.35 89.5693 2286.93 89.724C2287.51 89.84 2287.97 89.956 2288.32 90.072L2287.1 95.988ZM2300.81 114.954C2302.66 114.954 2304.02 114.741 2304.87 114.316C2305.72 113.852 2306.14 113.079 2306.14 111.996C2306.14 110.991 2305.68 110.159 2304.75 109.502C2303.86 108.845 2302.37 108.129 2300.28 107.356C2299.01 106.892 2297.83 106.409 2296.75 105.906C2295.7 105.365 2294.79 104.746 2294.02 104.05C2293.25 103.354 2292.63 102.523 2292.16 101.556C2291.74 100.551 2291.53 99.3327 2291.53 97.902C2291.53 95.118 2292.55 92.9333 2294.6 91.348C2296.65 89.724 2299.43 88.912 2302.95 88.912C2304.73 88.912 2306.43 89.086 2308.06 89.434C2309.68 89.7433 2310.9 90.0527 2311.71 90.362L2310.43 96.046C2309.66 95.698 2308.67 95.3887 2307.48 95.118C2306.28 94.8087 2304.89 94.654 2303.3 94.654C2301.87 94.654 2300.71 94.9053 2299.82 95.408C2298.93 95.872 2298.49 96.6067 2298.49 97.612C2298.49 98.1147 2298.56 98.5593 2298.72 98.946C2298.91 99.3327 2299.22 99.7 2299.65 100.048C2300.07 100.357 2300.63 100.686 2301.33 101.034C2302.02 101.343 2302.87 101.672 2303.88 102.02C2305.54 102.639 2306.95 103.257 2308.11 103.876C2309.27 104.456 2310.22 105.133 2310.96 105.906C2311.73 106.641 2312.29 107.491 2312.64 108.458C2312.99 109.425 2313.16 110.585 2313.16 111.938C2313.16 114.838 2312.08 117.042 2309.91 118.55C2307.79 120.019 2304.73 120.754 2300.75 120.754C2298.08 120.754 2295.93 120.522 2294.31 120.058C2292.69 119.633 2291.55 119.285 2290.89 119.014L2292.11 113.156C2293.15 113.581 2294.39 113.987 2295.82 114.374C2297.29 114.761 2298.95 114.954 2300.81 114.954ZM2318.03 104.978C2318.03 102.31 2318.42 99.9707 2319.19 97.96C2320.01 95.9493 2321.07 94.2867 2322.38 92.972C2323.7 91.6187 2325.21 90.6133 2326.91 89.956C2328.61 89.26 2330.35 88.912 2332.13 88.912C2336.3 88.912 2339.55 90.2073 2341.87 92.798C2344.23 95.3887 2345.41 99.2553 2345.41 104.398C2345.41 104.785 2345.39 105.229 2345.35 105.732C2345.35 106.196 2345.33 106.621 2345.29 107.008H2325.28C2325.48 109.444 2326.33 111.339 2327.84 112.692C2329.38 114.007 2331.61 114.664 2334.51 114.664C2336.21 114.664 2337.75 114.509 2339.15 114.2C2340.58 113.891 2341.7 113.562 2342.51 113.214L2343.44 118.956C2343.05 119.149 2342.51 119.362 2341.81 119.594C2341.16 119.787 2340.38 119.961 2339.49 120.116C2338.64 120.309 2337.72 120.464 2336.71 120.58C2335.7 120.696 2334.68 120.754 2333.64 120.754C2330.97 120.754 2328.65 120.367 2326.68 119.594C2324.7 118.782 2323.08 117.68 2321.8 116.288C2320.53 114.857 2319.58 113.195 2318.96 111.3C2318.34 109.367 2318.03 107.259 2318.03 104.978ZM2338.39 101.846C2338.39 100.879 2338.26 99.9707 2337.99 99.12C2337.72 98.2307 2337.31 97.4767 2336.77 96.858C2336.27 96.2007 2335.63 95.698 2334.85 95.35C2334.12 94.9633 2333.23 94.77 2332.19 94.77C2331.1 94.77 2330.16 94.9827 2329.34 95.408C2328.53 95.7947 2327.84 96.3167 2327.26 96.974C2326.71 97.6313 2326.29 98.3853 2325.98 99.236C2325.67 100.087 2325.46 100.957 2325.34 101.846H2338.39Z" fill="#60195E"/>
<path d="M24.75 905.988C24.17 905.795 23.358 905.601 22.314 905.408C21.3087 905.176 20.1293 905.06 18.776 905.06C18.0027 905.06 17.1713 905.137 16.282 905.292C15.4313 905.447 14.832 905.582 14.484 905.698V930H7.466V901.116C8.81933 900.613 10.5013 900.149 12.512 899.724C14.5613 899.26 16.8233 899.028 19.298 899.028C19.762 899.028 20.3033 899.067 20.922 899.144C21.5407 899.183 22.1593 899.26 22.778 899.376C23.3967 899.453 23.996 899.569 24.576 899.724C25.156 899.84 25.62 899.956 25.968 900.072L24.75 905.988ZM58.2926 914.804C58.2926 917.201 57.9446 919.386 57.2486 921.358C56.5526 923.33 55.5666 925.012 54.2906 926.404C53.0146 927.796 51.4679 928.879 49.6506 929.652C47.8719 930.425 45.8999 930.812 43.7346 930.812C41.5692 930.812 39.5972 930.425 37.8186 929.652C36.0399 928.879 34.5126 927.796 33.2366 926.404C31.9606 925.012 30.9552 923.33 30.2206 921.358C29.5246 919.386 29.1766 917.201 29.1766 914.804C29.1766 912.407 29.5246 910.241 30.2206 908.308C30.9552 906.336 31.9606 904.654 33.2366 903.262C34.5512 901.87 36.0979 900.807 37.8766 900.072C39.6552 899.299 41.6079 898.912 43.7346 898.912C45.8612 898.912 47.8139 899.299 49.5926 900.072C51.4099 900.807 52.9566 901.87 54.2326 903.262C55.5086 904.654 56.4946 906.336 57.1906 908.308C57.9252 910.241 58.2926 912.407 58.2926 914.804ZM51.1006 914.804C51.1006 911.788 50.4432 909.41 49.1286 907.67C47.8526 905.891 46.0546 905.002 43.7346 905.002C41.4146 905.002 39.5972 905.891 38.2826 907.67C37.0066 909.41 36.3686 911.788 36.3686 914.804C36.3686 917.859 37.0066 920.275 38.2826 922.054C39.5972 923.833 41.4146 924.722 43.7346 924.722C46.0546 924.722 47.8526 923.833 49.1286 922.054C50.4432 920.275 51.1006 917.859 51.1006 914.804ZM82.9956 910.918C82.1063 914.321 81.1396 917.646 80.0956 920.894C79.0903 924.103 78.0849 927.139 77.0796 930H71.3376C70.5643 928.221 69.7523 926.191 68.9016 923.91C68.0509 921.629 67.2003 919.193 66.3496 916.602C65.4989 914.011 64.6483 911.285 63.7976 908.424C62.9469 905.563 62.1156 902.643 61.3036 899.666H68.7276C69.0756 901.29 69.4816 903.049 69.9456 904.944C70.4096 906.8 70.8929 908.714 71.3956 910.686C71.8983 912.619 72.4203 914.514 72.9616 916.37C73.5029 918.226 74.0443 919.927 74.5856 921.474C75.1656 919.695 75.7263 917.859 76.2676 915.964C76.8476 914.069 77.3889 912.175 77.8916 910.28C78.3943 908.385 78.8583 906.549 79.2836 904.77C79.7476 902.953 80.1536 901.251 80.5016 899.666H85.8956C86.2436 901.251 86.6303 902.953 87.0556 904.77C87.4809 906.549 87.9256 908.385 88.3896 910.28C88.8923 912.175 89.4143 914.069 89.9556 915.964C90.5356 917.859 91.1156 919.695 91.6956 921.474C92.1983 919.927 92.7203 918.226 93.2616 916.37C93.8029 914.514 94.3249 912.619 94.8276 910.686C95.3689 908.714 95.8716 906.8 96.3356 904.944C96.7996 903.049 97.2056 901.29 97.5536 899.666H104.804C103.992 902.643 103.16 905.563 102.31 908.424C101.459 911.285 100.608 914.011 99.7576 916.602C98.9069 919.193 98.0563 921.629 97.2056 923.91C96.3549 926.191 95.5236 928.221 94.7116 930H89.0276C88.0223 927.139 86.9783 924.103 85.8956 920.894C84.8516 917.646 83.8849 914.321 82.9956 910.918ZM107.023 910.222H122.625V916.66H107.023V910.222ZM145.734 905.988C145.154 905.795 144.342 905.601 143.298 905.408C142.293 905.176 141.114 905.06 139.76 905.06C138.987 905.06 138.156 905.137 137.266 905.292C136.416 905.447 135.816 905.582 135.468 905.698V930H128.45V901.116C129.804 900.613 131.486 900.149 133.496 899.724C135.546 899.26 137.808 899.028 140.282 899.028C140.746 899.028 141.288 899.067 141.906 899.144C142.525 899.183 143.144 899.26 143.762 899.376C144.381 899.453 144.98 899.569 145.56 899.724C146.14 899.84 146.604 899.956 146.952 900.072L145.734 905.988ZM150.161 914.978C150.161 912.31 150.548 909.971 151.321 907.96C152.133 905.949 153.196 904.287 154.511 902.972C155.826 901.619 157.334 900.613 159.035 899.956C160.736 899.26 162.476 898.912 164.255 898.912C168.431 898.912 171.679 900.207 173.999 902.798C176.358 905.389 177.537 909.255 177.537 914.398C177.537 914.785 177.518 915.229 177.479 915.732C177.479 916.196 177.46 916.621 177.421 917.008H157.411C157.604 919.444 158.455 921.339 159.963 922.692C161.51 924.007 163.733 924.664 166.633 924.664C168.334 924.664 169.881 924.509 171.273 924.2C172.704 923.891 173.825 923.562 174.637 923.214L175.565 928.956C175.178 929.149 174.637 929.362 173.941 929.594C173.284 929.787 172.51 929.961 171.621 930.116C170.77 930.309 169.842 930.464 168.837 930.58C167.832 930.696 166.807 930.754 165.763 930.754C163.095 930.754 160.775 930.367 158.803 929.594C156.831 928.782 155.207 927.68 153.931 926.288C152.655 924.857 151.708 923.195 151.089 921.3C150.47 919.367 150.161 917.259 150.161 914.978ZM170.519 911.846C170.519 910.879 170.384 909.971 170.113 909.12C169.842 908.231 169.436 907.477 168.895 906.858C168.392 906.201 167.754 905.698 166.981 905.35C166.246 904.963 165.357 904.77 164.313 904.77C163.23 904.77 162.283 904.983 161.471 905.408C160.659 905.795 159.963 906.317 159.383 906.974C158.842 907.631 158.416 908.385 158.107 909.236C157.798 910.087 157.585 910.957 157.469 911.846H170.519ZM192.75 930C190.816 926.017 188.825 921.455 186.776 916.312C184.765 911.131 182.928 905.582 181.266 899.666H188.748C189.173 901.367 189.656 903.204 190.198 905.176C190.778 907.109 191.377 909.062 191.996 911.034C192.653 912.967 193.31 914.862 193.968 916.718C194.664 918.535 195.302 920.179 195.882 921.648C196.462 920.179 197.08 918.535 197.738 916.718C198.395 914.862 199.033 912.967 199.652 911.034C200.309 909.062 200.928 907.109 201.508 905.176C202.088 903.204 202.59 901.367 203.016 899.666H210.266C208.603 905.582 206.747 911.131 204.698 916.312C202.687 921.455 200.715 926.017 198.782 930H192.75ZM213.145 914.978C213.145 912.31 213.532 909.971 214.305 907.96C215.117 905.949 216.181 904.287 217.495 902.972C218.81 901.619 220.318 900.613 222.019 899.956C223.721 899.26 225.461 898.912 227.239 898.912C231.415 898.912 234.663 900.207 236.983 902.798C239.342 905.389 240.521 909.255 240.521 914.398C240.521 914.785 240.502 915.229 240.463 915.732C240.463 916.196 240.444 916.621 240.405 917.008H220.395C220.589 919.444 221.439 921.339 222.947 922.692C224.494 924.007 226.717 924.664 229.617 924.664C231.319 924.664 232.865 924.509 234.257 924.2C235.688 923.891 236.809 923.562 237.621 923.214L238.549 928.956C238.163 929.149 237.621 929.362 236.925 929.594C236.268 929.787 235.495 929.961 234.605 930.116C233.755 930.309 232.827 930.464 231.821 930.58C230.816 930.696 229.791 930.754 228.747 930.754C226.079 930.754 223.759 930.367 221.787 929.594C219.815 928.782 218.191 927.68 216.915 926.288C215.639 924.857 214.692 923.195 214.073 921.3C213.455 919.367 213.145 917.259 213.145 914.978ZM233.503 911.846C233.503 910.879 233.368 909.971 233.097 909.12C232.827 908.231 232.421 907.477 231.879 906.858C231.377 906.201 230.739 905.698 229.965 905.35C229.231 904.963 228.341 904.77 227.297 904.77C226.215 904.77 225.267 904.983 224.455 905.408C223.643 905.795 222.947 906.317 222.367 906.974C221.826 907.631 221.401 908.385 221.091 909.236C220.782 910.087 220.569 910.957 220.453 911.846H233.503ZM265.246 905.988C264.666 905.795 263.854 905.601 262.81 905.408C261.805 905.176 260.625 905.06 259.272 905.06C258.499 905.06 257.667 905.137 256.778 905.292C255.927 905.447 255.328 905.582 254.98 905.698V930H247.962V901.116C249.315 900.613 250.997 900.149 253.008 899.724C255.057 899.26 257.319 899.028 259.794 899.028C260.258 899.028 260.799 899.067 261.418 899.144C262.037 899.183 262.655 899.26 263.274 899.376C263.893 899.453 264.492 899.569 265.072 899.724C265.652 899.84 266.116 899.956 266.464 900.072L265.246 905.988ZM278.953 924.954C280.809 924.954 282.162 924.741 283.013 924.316C283.863 923.852 284.289 923.079 284.289 921.996C284.289 920.991 283.825 920.159 282.897 919.502C282.007 918.845 280.519 918.129 278.431 917.356C277.155 916.892 275.975 916.409 274.893 915.906C273.849 915.365 272.94 914.746 272.167 914.05C271.393 913.354 270.775 912.523 270.311 911.556C269.885 910.551 269.673 909.333 269.673 907.902C269.673 905.118 270.697 902.933 272.747 901.348C274.796 899.724 277.58 898.912 281.099 898.912C282.877 898.912 284.579 899.086 286.203 899.434C287.827 899.743 289.045 900.053 289.857 900.362L288.581 906.046C287.807 905.698 286.821 905.389 285.623 905.118C284.424 904.809 283.032 904.654 281.447 904.654C280.016 904.654 278.856 904.905 277.967 905.408C277.077 905.872 276.633 906.607 276.633 907.612C276.633 908.115 276.71 908.559 276.865 908.946C277.058 909.333 277.367 909.7 277.793 910.048C278.218 910.357 278.779 910.686 279.475 911.034C280.171 911.343 281.021 911.672 282.027 912.02C283.689 912.639 285.101 913.257 286.261 913.876C287.421 914.456 288.368 915.133 289.103 915.906C289.876 916.641 290.437 917.491 290.785 918.458C291.133 919.425 291.307 920.585 291.307 921.938C291.307 924.838 290.224 927.042 288.059 928.55C285.932 930.019 282.877 930.754 278.895 930.754C276.227 930.754 274.081 930.522 272.457 930.058C270.833 929.633 269.692 929.285 269.035 929.014L270.253 923.156C271.297 923.581 272.534 923.987 273.965 924.374C275.434 924.761 277.097 924.954 278.953 924.954ZM296.18 914.978C296.18 912.31 296.567 909.971 297.34 907.96C298.152 905.949 299.216 904.287 300.53 902.972C301.845 901.619 303.353 900.613 305.054 899.956C306.756 899.26 308.496 898.912 310.274 898.912C314.45 898.912 317.698 900.207 320.018 902.798C322.377 905.389 323.556 909.255 323.556 914.398C323.556 914.785 323.537 915.229 323.498 915.732C323.498 916.196 323.479 916.621 323.44 917.008H303.43C303.624 919.444 304.474 921.339 305.982 922.692C307.529 924.007 309.752 924.664 312.652 924.664C314.354 924.664 315.9 924.509 317.292 924.2C318.723 923.891 319.844 923.562 320.656 923.214L321.584 928.956C321.198 929.149 320.656 929.362 319.96 929.594C319.303 929.787 318.53 929.961 317.64 930.116C316.79 930.309 315.862 930.464 314.856 930.58C313.851 930.696 312.826 930.754 311.782 930.754C309.114 930.754 306.794 930.367 304.822 929.594C302.85 928.782 301.226 927.68 299.95 926.288C298.674 924.857 297.727 923.195 297.108 921.3C296.49 919.367 296.18 917.259 296.18 914.978ZM316.538 911.846C316.538 910.879 316.403 909.971 316.132 909.12C315.862 908.231 315.456 907.477 314.914 906.858C314.412 906.201 313.774 905.698 313 905.35C312.266 904.963 311.376 904.77 310.332 904.77C309.25 904.77 308.302 904.983 307.49 905.408C306.678 905.795 305.982 906.317 305.402 906.974C304.861 907.631 304.436 908.385 304.126 909.236C303.817 910.087 303.604 910.957 303.488 911.846H316.538Z" fill="#60195E"/>
<line x1="3" y1="163.5" x2="1124" y2="163.5" stroke="#60195E" stroke-width="13"/>
<line x1="3" y1="163.5" x2="1124" y2="163.5" stroke="black" stroke-opacity="0.2" stroke-width="13"/>
</svg>
