<svg width="2645" height="1435" viewBox="0 0 2645 1435" fill="none" xmlns="http://www.w3.org/2000/svg">
<path d="M131 596.5H1202C1211.66 596.5 1219.5 604.335 1219.5 614V793.963C1219.5 803.628 1211.66 811.463 1202 811.463H131C121.335 811.463 113.5 803.628 113.5 793.963V614C113.5 604.335 121.335 596.5 131 596.5Z" fill="#C4C4C4" stroke="#C4C4C4" stroke-width="5"/>
<path d="M1036.95 618.869H1175.9C1185.57 618.869 1193.4 626.704 1193.4 636.369V771.594C1193.4 781.259 1185.57 789.094 1175.9 789.094H1036.95C1027.28 789.094 1019.45 781.259 1019.45 771.594V636.369C1019.45 626.704 1027.28 618.869 1036.95 618.869Z" fill="#E6E6E6" stroke="#60195E" stroke-width="5"/>
<path d="M816.987 618.869H955.94C965.605 618.869 973.44 626.704 973.44 636.369V771.594C973.44 781.259 965.605 789.094 955.94 789.094H816.987C807.322 789.094 799.487 781.259 799.487 771.594V636.369C799.487 626.704 807.322 618.869 816.987 618.869Z" fill="#E6E6E6" stroke="#60195E" stroke-width="5"/>
<path d="M377.06 618.869H516.013C525.678 618.869 533.513 626.704 533.513 636.369V771.594C533.513 781.259 525.678 789.094 516.013 789.094H377.06C367.395 789.094 359.56 781.259 359.56 771.594V636.369C359.56 626.704 367.395 618.869 377.06 618.869Z" fill="#E6E6E6" stroke="#60195E" stroke-width="5"/>
<path d="M597.023 618.869H735.976C745.641 618.869 753.476 626.704 753.476 636.369V771.594C753.476 781.259 745.641 789.094 735.976 789.094H597.023C587.358 789.094 579.523 781.259 579.523 771.594V636.369C579.523 626.704 587.358 618.869 597.023 618.869Z" fill="#E6E6E6" stroke="#60195E" stroke-width="5"/>
<path d="M157.097 618.869H296.05C305.715 618.869 313.55 626.704 313.55 636.369V771.594C313.55 781.259 305.715 789.094 296.05 789.094H157.097C147.432 789.094 139.597 781.259 139.597 771.594V636.369C139.597 626.704 147.432 618.869 157.097 618.869Z" fill="#E6E6E6" stroke="#60195E" stroke-width="5"/>
<path d="M1139.79 706.896C1141.74 704.943 1141.74 701.777 1139.79 699.825L1107.97 668.005C1106.01 666.052 1102.85 666.052 1100.9 668.005C1098.94 669.957 1098.94 673.123 1100.9 675.076L1129.18 703.36L1100.9 731.644C1098.94 733.597 1098.94 736.763 1100.9 738.716C1102.85 740.668 1106.01 740.668 1107.97 738.716L1139.79 706.896ZM201.719 708.36L1136.25 708.36V698.36L201.719 698.36V708.36Z" fill="#FF0000"/>
<path d="M2362.46 254L2362.46 1325C2362.46 1334.66 2354.63 1342.5 2344.96 1342.5L2165 1342.5C2155.34 1342.5 2147.5 1334.66 2147.5 1325L2147.5 254C2147.5 244.335 2155.34 236.5 2165 236.5L2344.96 236.5C2354.63 236.5 2362.46 244.335 2362.46 254Z" fill="#C4C4C4" stroke="#C4C4C4" stroke-width="5"/>
<path d="M2340.09 1159.95L2340.09 1298.9C2340.09 1308.57 2332.26 1316.4 2322.59 1316.4L2187.37 1316.4C2177.7 1316.4 2169.87 1308.57 2169.87 1298.9L2169.87 1159.95C2169.87 1150.28 2177.7 1142.45 2187.37 1142.45L2322.59 1142.45C2332.26 1142.45 2340.09 1150.28 2340.09 1159.95Z" fill="#E6E6E6" stroke="#60195E" stroke-width="5"/>
<path d="M2340.09 939.987L2340.09 1078.94C2340.09 1088.6 2332.26 1096.44 2322.59 1096.44L2187.37 1096.44C2177.7 1096.44 2169.87 1088.6 2169.87 1078.94L2169.87 939.987C2169.87 930.322 2177.7 922.487 2187.37 922.487L2322.59 922.487C2332.26 922.487 2340.09 930.322 2340.09 939.987Z" fill="#E6E6E6" stroke="#60195E" stroke-width="5"/>
<path d="M2340.09 500.06L2340.09 639.013C2340.09 648.678 2332.26 656.513 2322.59 656.513L2187.37 656.513C2177.7 656.513 2169.87 648.678 2169.87 639.013L2169.87 500.06C2169.87 490.395 2177.7 482.56 2187.37 482.56L2322.59 482.56C2332.26 482.56 2340.09 490.395 2340.09 500.06Z" fill="#E6E6E6" stroke="#60195E" stroke-width="5"/>
<path d="M2340.09 720.023L2340.09 858.976C2340.09 868.641 2332.26 876.476 2322.59 876.476L2187.37 876.476C2177.7 876.476 2169.87 868.641 2169.87 858.976L2169.87 720.023C2169.87 710.358 2177.7 702.523 2187.37 702.523L2322.59 702.523C2332.26 702.523 2340.09 710.358 2340.09 720.023Z" fill="#E6E6E6" stroke="#60195E" stroke-width="5"/>
<path d="M2340.09 280.097L2340.09 419.05C2340.09 428.715 2332.26 436.55 2322.59 436.55L2187.37 436.55C2177.7 436.55 2169.87 428.715 2169.87 419.05L2169.87 280.097C2169.87 270.432 2177.7 262.597 2187.37 262.597L2322.59 262.597C2332.26 262.597 2340.09 270.432 2340.09 280.097Z" fill="#E6E6E6" stroke="#60195E" stroke-width="5"/>
<path d="M2259.14 321.184C2257.18 319.231 2254.02 319.231 2252.06 321.184L2220.24 353.004C2218.29 354.956 2218.29 358.122 2220.24 360.075C2222.2 362.027 2225.36 362.027 2227.32 360.075L2255.6 331.79L2283.88 360.075C2285.84 362.027 2289 362.027 2290.96 360.075C2292.91 358.122 2292.91 354.956 2290.96 353.004L2259.14 321.184ZM2260.6 1259.25L2260.6 324.719L2250.6 324.719L2250.6 1259.25L2260.6 1259.25Z" fill="#FF0000"/>
<path d="M131 1051.5H1202C1211.66 1051.5 1219.5 1059.34 1219.5 1069V1248.96C1219.5 1258.63 1211.66 1266.46 1202 1266.46H131C121.335 1266.46 113.5 1258.63 113.5 1248.96V1069C113.5 1059.34 121.335 1051.5 131 1051.5Z" fill="#C4C4C4" stroke="#C4C4C4" stroke-width="5"/>
<path d="M1036.95 1073.87H1175.9C1185.57 1073.87 1193.4 1081.7 1193.4 1091.37V1226.59C1193.4 1236.26 1185.57 1244.09 1175.9 1244.09H1036.95C1027.28 1244.09 1019.45 1236.26 1019.45 1226.59V1091.37C1019.45 1081.7 1027.28 1073.87 1036.95 1073.87Z" fill="#E6E6E6" stroke="#60195E" stroke-width="5"/>
<path d="M816.987 1073.87H955.94C965.605 1073.87 973.44 1081.7 973.44 1091.37V1226.59C973.44 1236.26 965.605 1244.09 955.94 1244.09H816.987C807.322 1244.09 799.487 1236.26 799.487 1226.59V1091.37C799.487 1081.7 807.322 1073.87 816.987 1073.87Z" fill="#E6E6E6" stroke="#60195E" stroke-width="5"/>
<path d="M377.06 1073.87H516.013C525.678 1073.87 533.513 1081.7 533.513 1091.37V1226.59C533.513 1236.26 525.678 1244.09 516.013 1244.09H377.06C367.395 1244.09 359.56 1236.26 359.56 1226.59V1091.37C359.56 1081.7 367.395 1073.87 377.06 1073.87Z" fill="#E6E6E6" stroke="#60195E" stroke-width="5"/>
<path d="M597.023 1073.87H735.976C745.641 1073.87 753.476 1081.7 753.476 1091.37V1226.59C753.476 1236.26 745.641 1244.09 735.976 1244.09H597.023C587.358 1244.09 579.523 1236.26 579.523 1226.59V1091.37C579.523 1081.7 587.358 1073.87 597.023 1073.87Z" fill="#E6E6E6" stroke="#60195E" stroke-width="5"/>
<path d="M157.097 1073.87H296.05C305.715 1073.87 313.55 1081.7 313.55 1091.37V1226.59C313.55 1236.26 305.715 1244.09 296.05 1244.09H157.097C147.432 1244.09 139.597 1236.26 139.597 1226.59V1091.37C139.597 1081.7 147.432 1073.87 157.097 1073.87Z" fill="#E6E6E6" stroke="#60195E" stroke-width="5"/>
<path d="M198.183 1154.82C196.231 1156.78 196.231 1159.94 198.183 1161.9L230.003 1193.72C231.956 1195.67 235.122 1195.67 237.074 1193.72C239.027 1191.76 239.027 1188.6 237.074 1186.64L208.79 1158.36L237.074 1130.08C239.027 1128.12 239.027 1124.96 237.074 1123C235.122 1121.05 231.956 1121.05 230.003 1123L198.183 1154.82ZM1136.25 1153.36L201.719 1153.36L201.719 1163.36L1136.25 1163.36L1136.25 1153.36Z" fill="#FF0000"/>
<path d="M1852.5 254L1852.5 1325C1852.5 1334.66 1844.66 1342.5 1835 1342.5L1655.04 1342.5C1645.37 1342.5 1637.54 1334.66 1637.54 1325L1637.54 254C1637.54 244.335 1645.37 236.5 1655.04 236.5L1835 236.5C1844.66 236.5 1852.5 244.335 1852.5 254Z" fill="#C4C4C4" stroke="#C4C4C4" stroke-width="5"/>
<path d="M1830.13 1159.95L1830.13 1298.9C1830.13 1308.57 1822.3 1316.4 1812.63 1316.4L1677.41 1316.4C1667.74 1316.4 1659.91 1308.57 1659.91 1298.9L1659.91 1159.95C1659.91 1150.28 1667.74 1142.45 1677.41 1142.45L1812.63 1142.45C1822.3 1142.45 1830.13 1150.28 1830.13 1159.95Z" fill="#E6E6E6" stroke="#60195E" stroke-width="5"/>
<path d="M1830.13 939.987L1830.13 1078.94C1830.13 1088.6 1822.3 1096.44 1812.63 1096.44L1677.41 1096.44C1667.74 1096.44 1659.91 1088.6 1659.91 1078.94L1659.91 939.987C1659.91 930.322 1667.74 922.487 1677.41 922.487L1812.63 922.487C1822.3 922.487 1830.13 930.322 1830.13 939.987Z" fill="#E6E6E6" stroke="#60195E" stroke-width="5"/>
<path d="M1830.13 500.06L1830.13 639.013C1830.13 648.678 1822.3 656.513 1812.63 656.513L1677.41 656.513C1667.74 656.513 1659.91 648.678 1659.91 639.013L1659.91 500.06C1659.91 490.395 1667.74 482.56 1677.41 482.56L1812.63 482.56C1822.3 482.56 1830.13 490.395 1830.13 500.06Z" fill="#E6E6E6" stroke="#60195E" stroke-width="5"/>
<path d="M1830.13 720.023L1830.13 858.976C1830.13 868.641 1822.3 876.476 1812.63 876.476L1677.41 876.476C1667.74 876.476 1659.91 868.641 1659.91 858.976L1659.91 720.023C1659.91 710.358 1667.74 702.523 1677.41 702.523L1812.63 702.523C1822.3 702.523 1830.13 710.358 1830.13 720.023Z" fill="#E6E6E6" stroke="#60195E" stroke-width="5"/>
<path d="M1830.13 280.097L1830.13 419.05C1830.13 428.715 1822.3 436.55 1812.63 436.55L1677.41 436.55C1667.74 436.55 1659.91 428.715 1659.91 419.05L1659.91 280.097C1659.91 270.432 1667.74 262.597 1677.41 262.597L1812.63 262.597C1822.3 262.597 1830.13 270.432 1830.13 280.097Z" fill="#E6E6E6" stroke="#60195E" stroke-width="5"/>
<path d="M1742.1 1262.79C1744.06 1264.74 1747.22 1264.74 1749.17 1262.79L1780.99 1230.97C1782.95 1229.01 1782.95 1225.85 1780.99 1223.9C1779.04 1221.94 1775.88 1221.94 1773.92 1223.9L1745.64 1252.18L1717.36 1223.9C1715.4 1221.94 1712.24 1221.94 1710.28 1223.9C1708.33 1225.85 1708.33 1229.01 1710.28 1230.97L1742.1 1262.79ZM1740.64 324.719L1740.64 1259.25L1750.64 1259.25L1750.64 324.719L1740.64 324.719Z" fill="#FF0000"/>
<path d="M127.856 174.226C127.856 179.453 129.097 183.569 131.58 186.574C134.063 189.514 137.493 190.984 141.87 190.984C143.765 190.984 145.365 190.919 146.672 190.788C148.044 190.592 149.155 190.396 150.004 190.2V160.8C148.959 160.081 147.554 159.428 145.79 158.84C144.091 158.187 142.262 157.86 140.302 157.86C135.99 157.86 132.821 159.33 130.796 162.27C128.836 165.21 127.856 169.195 127.856 174.226ZM161.862 198.432C159.51 199.151 156.537 199.804 152.944 200.392C149.416 200.98 145.692 201.274 141.772 201.274C137.721 201.274 134.095 200.653 130.894 199.412C127.693 198.171 124.949 196.407 122.662 194.12C120.441 191.768 118.709 188.959 117.468 185.692C116.292 182.36 115.704 178.636 115.704 174.52C115.704 170.469 116.194 166.811 117.174 163.544C118.219 160.212 119.722 157.37 121.682 155.018C123.642 152.666 126.027 150.869 128.836 149.628C131.645 148.321 134.879 147.668 138.538 147.668C141.021 147.668 143.209 147.962 145.104 148.55C146.999 149.138 148.632 149.791 150.004 150.51V125.912L161.862 123.952V198.432ZM188.881 200H177.023V148.746H188.881V200ZM190.155 133.752C190.155 135.973 189.436 137.737 187.999 139.044C186.562 140.351 184.863 141.004 182.903 141.004C180.878 141.004 179.146 140.351 177.709 139.044C176.272 137.737 175.553 135.973 175.553 133.752C175.553 131.465 176.272 129.669 177.709 128.362C179.146 127.055 180.878 126.402 182.903 126.402C184.863 126.402 186.562 127.055 187.999 128.362C189.436 129.669 190.155 131.465 190.155 133.752ZM233.213 159.428C232.233 159.101 230.861 158.775 229.097 158.448C227.398 158.056 225.406 157.86 223.119 157.86C221.812 157.86 220.408 157.991 218.905 158.252C217.468 158.513 216.455 158.742 215.867 158.938V200H204.009V151.196C206.296 150.347 209.138 149.563 212.535 148.844C215.998 148.06 219.82 147.668 224.001 147.668C224.785 147.668 225.7 147.733 226.745 147.864C227.79 147.929 228.836 148.06 229.881 148.256C230.926 148.387 231.939 148.583 232.919 148.844C233.899 149.04 234.683 149.236 235.271 149.432L233.213 159.428ZM240.692 174.618C240.692 170.11 241.346 166.157 242.652 162.76C244.024 159.363 245.821 156.553 248.042 154.332C250.264 152.045 252.812 150.347 255.686 149.236C258.561 148.06 261.501 147.472 264.506 147.472C271.562 147.472 277.05 149.661 280.97 154.038C284.956 158.415 286.948 164.949 286.948 173.638C286.948 174.291 286.916 175.043 286.85 175.892C286.85 176.676 286.818 177.395 286.752 178.048H252.942C253.269 182.164 254.706 185.365 257.254 187.652C259.868 189.873 263.624 190.984 268.524 190.984C271.399 190.984 274.012 190.723 276.364 190.2C278.782 189.677 280.676 189.122 282.048 188.534L283.616 198.236C282.963 198.563 282.048 198.922 280.872 199.314C279.762 199.641 278.455 199.935 276.952 200.196C275.515 200.523 273.947 200.784 272.248 200.98C270.55 201.176 268.818 201.274 267.054 201.274C262.546 201.274 258.626 200.621 255.294 199.314C251.962 197.942 249.218 196.08 247.062 193.728C244.906 191.311 243.306 188.501 242.26 185.3C241.215 182.033 240.692 178.473 240.692 174.618ZM275.09 169.326C275.09 167.693 274.862 166.157 274.404 164.72C273.947 163.217 273.261 161.943 272.346 160.898C271.497 159.787 270.419 158.938 269.112 158.35C267.871 157.697 266.368 157.37 264.604 157.37C262.775 157.37 261.174 157.729 259.802 158.448C258.43 159.101 257.254 159.983 256.274 161.094C255.36 162.205 254.641 163.479 254.118 164.916C253.596 166.353 253.236 167.823 253.04 169.326H275.09ZM296.679 174.422C296.679 170.633 297.267 167.105 298.443 163.838C299.619 160.506 301.285 157.631 303.441 155.214C305.662 152.797 308.341 150.902 311.477 149.53C314.613 148.158 318.141 147.472 322.061 147.472C326.895 147.472 331.469 148.354 335.781 150.118L333.233 159.82C331.861 159.232 330.293 158.742 328.529 158.35C326.83 157.958 325.001 157.762 323.041 157.762C318.402 157.762 314.874 159.232 312.457 162.172C310.039 165.047 308.831 169.13 308.831 174.422C308.831 179.518 309.974 183.569 312.261 186.574C314.547 189.514 318.402 190.984 323.825 190.984C325.85 190.984 327.843 190.788 329.803 190.396C331.763 190.004 333.461 189.514 334.899 188.926L336.565 198.726C335.258 199.379 333.265 199.967 330.587 200.49C327.973 201.013 325.262 201.274 322.453 201.274C318.075 201.274 314.253 200.621 310.987 199.314C307.785 197.942 305.107 196.08 302.951 193.728C300.86 191.311 299.292 188.469 298.247 185.202C297.201 181.87 296.679 178.277 296.679 174.422ZM345.157 135.222L357.015 133.262V148.746H375.243V158.644H357.015V179.518C357.015 183.634 357.669 186.574 358.975 188.338C360.282 190.102 362.503 190.984 365.639 190.984C367.795 190.984 369.69 190.755 371.323 190.298C373.022 189.841 374.361 189.416 375.341 189.024L377.301 198.432C375.929 199.02 374.133 199.608 371.911 200.196C369.69 200.849 367.077 201.176 364.071 201.176C360.413 201.176 357.342 200.686 354.859 199.706C352.442 198.726 350.515 197.321 349.077 195.492C347.64 193.597 346.627 191.343 346.039 188.73C345.451 186.051 345.157 183.013 345.157 179.616V135.222ZM398.662 200H386.804V148.746H398.662V200ZM399.936 133.752C399.936 135.973 399.217 137.737 397.78 139.044C396.343 140.351 394.644 141.004 392.684 141.004C390.659 141.004 388.927 140.351 387.49 139.044C386.053 137.737 385.334 135.973 385.334 133.752C385.334 131.465 386.053 129.669 387.49 128.362C388.927 127.055 390.659 126.402 392.684 126.402C394.644 126.402 396.343 127.055 397.78 128.362C399.217 129.669 399.936 131.465 399.936 133.752ZM460.144 174.324C460.144 178.375 459.556 182.066 458.38 185.398C457.204 188.73 455.538 191.572 453.382 193.924C451.226 196.276 448.613 198.105 445.542 199.412C442.537 200.719 439.205 201.372 435.546 201.372C431.887 201.372 428.555 200.719 425.55 199.412C422.545 198.105 419.964 196.276 417.808 193.924C415.652 191.572 413.953 188.73 412.712 185.398C411.536 182.066 410.948 178.375 410.948 174.324C410.948 170.273 411.536 166.615 412.712 163.348C413.953 160.016 415.652 157.174 417.808 154.822C420.029 152.47 422.643 150.673 425.648 149.432C428.653 148.125 431.953 147.472 435.546 147.472C439.139 147.472 442.439 148.125 445.444 149.432C448.515 150.673 451.128 152.47 453.284 154.822C455.44 157.174 457.106 160.016 458.282 163.348C459.523 166.615 460.144 170.273 460.144 174.324ZM447.992 174.324C447.992 169.228 446.881 165.21 444.66 162.27C442.504 159.265 439.466 157.762 435.546 157.762C431.626 157.762 428.555 159.265 426.334 162.27C424.178 165.21 423.1 169.228 423.1 174.324C423.1 179.485 424.178 183.569 426.334 186.574C428.555 189.579 431.626 191.082 435.546 191.082C439.466 191.082 442.504 189.579 444.66 186.574C446.881 183.569 447.992 179.485 447.992 174.324ZM472.36 150.412C474.647 149.759 477.62 149.138 481.278 148.55C484.937 147.962 488.988 147.668 493.43 147.668C497.612 147.668 501.107 148.256 503.916 149.432C506.726 150.543 508.947 152.143 510.58 154.234C512.279 156.259 513.455 158.742 514.108 161.682C514.827 164.557 515.186 167.725 515.186 171.188V200H503.328V173.05C503.328 170.306 503.132 167.987 502.74 166.092C502.414 164.132 501.826 162.564 500.976 161.388C500.192 160.147 499.082 159.265 497.644 158.742C496.272 158.154 494.574 157.86 492.548 157.86C491.046 157.86 489.478 157.958 487.844 158.154C486.211 158.35 485.002 158.513 484.218 158.644V200H472.36V150.412Z" fill="#60195E"/>
<path d="M112.544 269.696L120.288 268.416V278.528H132.192V284.992H120.288V298.624C120.288 301.312 120.715 303.232 121.568 304.384C122.421 305.536 123.872 306.112 125.92 306.112C127.328 306.112 128.565 305.963 129.632 305.664C130.741 305.365 131.616 305.088 132.256 304.832L133.536 310.976C132.64 311.36 131.467 311.744 130.016 312.128C128.565 312.555 126.859 312.768 124.896 312.768C122.507 312.768 120.501 312.448 118.88 311.808C117.301 311.168 116.043 310.251 115.104 309.056C114.165 307.819 113.504 306.347 113.12 304.64C112.736 302.891 112.544 300.907 112.544 298.688V269.696ZM167.006 278.528C163.55 291.243 159.539 302.763 154.974 313.088C154.121 315.008 153.246 316.651 152.35 318.016C151.454 319.381 150.451 320.512 149.342 321.408C148.233 322.304 146.995 322.944 145.63 323.328C144.265 323.755 142.686 323.968 140.894 323.968C139.699 323.968 138.505 323.84 137.31 323.584C136.158 323.328 135.283 323.051 134.686 322.752L136.094 316.544C137.63 317.141 139.145 317.44 140.638 317.44C142.643 317.44 144.201 316.949 145.31 315.968C146.462 315.029 147.465 313.557 148.318 311.552C145.886 306.859 143.539 301.739 141.278 296.192C139.059 290.645 137.075 284.757 135.326 278.528H143.582C144.009 280.32 144.521 282.261 145.118 284.352C145.758 286.443 146.441 288.576 147.166 290.752C147.891 292.885 148.659 295.019 149.47 297.152C150.281 299.285 151.091 301.269 151.902 303.104C153.267 299.307 154.547 295.275 155.742 291.008C156.937 286.699 158.025 282.539 159.006 278.528H167.006ZM195.074 295.424C195.074 291.968 194.284 289.28 192.706 287.36C191.17 285.44 188.674 284.48 185.218 284.48C184.492 284.48 183.724 284.523 182.914 284.608C182.146 284.651 181.378 284.779 180.61 284.992V304.128C181.292 304.597 182.188 305.045 183.298 305.472C184.45 305.856 185.666 306.048 186.946 306.048C189.762 306.048 191.81 305.088 193.09 303.168C194.412 301.248 195.074 298.667 195.074 295.424ZM203.01 295.296C203.01 297.856 202.668 300.203 201.986 302.336C201.346 304.469 200.407 306.304 199.17 307.84C197.932 309.376 196.375 310.571 194.498 311.424C192.663 312.277 190.572 312.704 188.226 312.704C186.647 312.704 185.196 312.512 183.874 312.128C182.551 311.744 181.463 311.317 180.61 310.848V323.84H172.866V279.616C174.444 279.189 176.386 278.784 178.69 278.4C180.994 278.016 183.426 277.824 185.986 277.824C188.631 277.824 190.999 278.229 193.09 279.04C195.18 279.851 196.951 281.024 198.402 282.56C199.895 284.053 201.026 285.888 201.794 288.064C202.604 290.197 203.01 292.608 203.01 295.296ZM209.135 295.424C209.135 292.48 209.561 289.899 210.415 287.68C211.311 285.461 212.484 283.627 213.935 282.176C215.385 280.683 217.049 279.573 218.927 278.848C220.804 278.08 222.724 277.696 224.687 277.696C229.295 277.696 232.879 279.125 235.439 281.984C238.041 284.843 239.343 289.109 239.343 294.784C239.343 295.211 239.321 295.701 239.279 296.256C239.279 296.768 239.257 297.237 239.215 297.664H217.135C217.348 300.352 218.287 302.443 219.951 303.936C221.657 305.387 224.111 306.112 227.311 306.112C229.188 306.112 230.895 305.941 232.431 305.6C234.009 305.259 235.247 304.896 236.143 304.512L237.167 310.848C236.74 311.061 236.143 311.296 235.375 311.552C234.649 311.765 233.796 311.957 232.815 312.128C231.876 312.341 230.852 312.512 229.743 312.64C228.633 312.768 227.503 312.832 226.351 312.832C223.407 312.832 220.847 312.405 218.671 311.552C216.495 310.656 214.703 309.44 213.295 307.904C211.887 306.325 210.841 304.491 210.159 302.4C209.476 300.267 209.135 297.941 209.135 295.424ZM231.599 291.968C231.599 290.901 231.449 289.899 231.151 288.96C230.852 287.979 230.404 287.147 229.807 286.464C229.252 285.739 228.548 285.184 227.695 284.8C226.884 284.373 225.903 284.16 224.751 284.16C223.556 284.16 222.511 284.395 221.615 284.864C220.719 285.291 219.951 285.867 219.311 286.592C218.713 287.317 218.244 288.149 217.903 289.088C217.561 290.027 217.327 290.987 217.199 291.968H231.599ZM256.257 283.84C256.257 285.333 255.745 286.549 254.721 287.488C253.74 288.427 252.545 288.896 251.137 288.896C249.686 288.896 248.47 288.427 247.489 287.488C246.508 286.549 246.017 285.333 246.017 283.84C246.017 282.347 246.508 281.131 247.489 280.192C248.47 279.211 249.686 278.72 251.137 278.72C252.545 278.72 253.74 279.211 254.721 280.192C255.745 281.131 256.257 282.347 256.257 283.84ZM256.257 307.776C256.257 309.269 255.745 310.485 254.721 311.424C253.74 312.363 252.545 312.832 251.137 312.832C249.686 312.832 248.47 312.363 247.489 311.424C246.508 310.485 246.017 309.269 246.017 307.776C246.017 306.283 246.508 305.067 247.489 304.128C248.47 303.147 249.686 302.656 251.137 302.656C252.545 302.656 253.74 303.147 254.721 304.128C255.745 305.067 256.257 306.283 256.257 307.776ZM293.251 262.336C294.872 262.336 296.237 262.464 297.347 262.72C298.499 262.976 299.395 263.232 300.035 263.488L298.819 269.76C298.221 269.547 297.496 269.355 296.643 269.184C295.832 269.013 294.936 268.928 293.955 268.928C291.395 268.928 289.624 269.611 288.643 270.976C287.704 272.341 287.235 274.112 287.235 276.288V278.528H299.523V284.992H287.235V312H279.491V276.16C279.491 271.808 280.621 268.416 282.883 265.984C285.144 263.552 288.6 262.336 293.251 262.336ZM317.123 312.64C314.819 312.597 312.899 312.341 311.363 311.872C309.869 311.403 308.675 310.741 307.779 309.888C306.883 308.992 306.243 307.904 305.859 306.624C305.517 305.301 305.347 303.808 305.347 302.144V263.616L313.091 262.336V300.672C313.091 301.611 313.155 302.4 313.283 303.04C313.453 303.68 313.731 304.235 314.115 304.704C314.499 305.131 315.011 305.472 315.651 305.728C316.333 305.941 317.187 306.112 318.211 306.24L317.123 312.64ZM322.635 295.424C322.635 292.48 323.061 289.899 323.915 287.68C324.811 285.461 325.984 283.627 327.435 282.176C328.885 280.683 330.549 279.573 332.427 278.848C334.304 278.08 336.224 277.696 338.187 277.696C342.795 277.696 346.379 279.125 348.939 281.984C351.541 284.843 352.843 289.109 352.843 294.784C352.843 295.211 352.821 295.701 352.779 296.256C352.779 296.768 352.757 297.237 352.715 297.664H330.635C330.848 300.352 331.787 302.443 333.451 303.936C335.157 305.387 337.611 306.112 340.811 306.112C342.688 306.112 344.395 305.941 345.931 305.6C347.509 305.259 348.747 304.896 349.643 304.512L350.667 310.848C350.24 311.061 349.643 311.296 348.875 311.552C348.149 311.765 347.296 311.957 346.315 312.128C345.376 312.341 344.352 312.512 343.243 312.64C342.133 312.768 341.003 312.832 339.851 312.832C336.907 312.832 334.347 312.405 332.171 311.552C329.995 310.656 328.203 309.44 326.795 307.904C325.387 306.325 324.341 304.491 323.659 302.4C322.976 300.267 322.635 297.941 322.635 295.424ZM345.099 291.968C345.099 290.901 344.949 289.899 344.651 288.96C344.352 287.979 343.904 287.147 343.307 286.464C342.752 285.739 342.048 285.184 341.195 284.8C340.384 284.373 339.403 284.16 338.251 284.16C337.056 284.16 336.011 284.395 335.115 284.864C334.219 285.291 333.451 285.867 332.811 286.592C332.213 287.317 331.744 288.149 331.403 289.088C331.061 290.027 330.827 290.987 330.699 291.968H345.099ZM373.085 289.472L380.189 278.528H388.317L377.309 294.336C379.613 297.323 381.81 300.352 383.901 303.424C386.034 306.453 387.784 309.312 389.149 312H380.765C380.381 311.189 379.869 310.272 379.229 309.248C378.632 308.181 377.97 307.093 377.245 305.984C376.562 304.832 375.837 303.701 375.069 302.592C374.301 301.483 373.554 300.437 372.829 299.456C371.336 301.376 369.864 303.509 368.413 305.856C367.005 308.16 365.832 310.208 364.893 312H356.957C357.597 310.72 358.365 309.355 359.261 307.904C360.157 306.453 361.117 304.981 362.141 303.488C363.165 301.952 364.21 300.437 365.277 298.944C366.386 297.408 367.474 295.957 368.541 294.592L357.469 278.528H365.981L373.085 289.472Z" fill="#60195E"/>
<path d="M114.072 369.424C114.072 366.48 114.499 363.899 115.352 361.68C116.248 359.461 117.421 357.627 118.872 356.176C120.323 354.683 121.987 353.573 123.864 352.848C125.741 352.08 127.661 351.696 129.624 351.696C134.232 351.696 137.816 353.125 140.376 355.984C142.979 358.843 144.28 363.109 144.28 368.784C144.28 369.211 144.259 369.701 144.216 370.256C144.216 370.768 144.195 371.237 144.152 371.664H122.072C122.285 374.352 123.224 376.443 124.888 377.936C126.595 379.387 129.048 380.112 132.248 380.112C134.125 380.112 135.832 379.941 137.368 379.6C138.947 379.259 140.184 378.896 141.08 378.512L142.104 384.848C141.677 385.061 141.08 385.296 140.312 385.552C139.587 385.765 138.733 385.957 137.752 386.128C136.813 386.341 135.789 386.512 134.68 386.64C133.571 386.768 132.44 386.832 131.288 386.832C128.344 386.832 125.784 386.405 123.608 385.552C121.432 384.656 119.64 383.44 118.232 381.904C116.824 380.325 115.779 378.491 115.096 376.4C114.413 374.267 114.072 371.941 114.072 369.424ZM136.536 365.968C136.536 364.901 136.387 363.899 136.088 362.96C135.789 361.979 135.341 361.147 134.744 360.464C134.189 359.739 133.485 359.184 132.632 358.8C131.821 358.373 130.84 358.16 129.688 358.16C128.493 358.16 127.448 358.395 126.552 358.864C125.656 359.291 124.888 359.867 124.248 360.592C123.651 361.317 123.181 362.149 122.84 363.088C122.499 364.027 122.264 364.987 122.136 365.968H136.536ZM158.571 369.424C158.571 372.667 159.211 375.248 160.491 377.168C161.813 379.088 163.883 380.048 166.699 380.048C167.979 380.048 169.173 379.856 170.283 379.472C171.435 379.045 172.352 378.597 173.035 378.128V358.992C172.48 358.864 171.776 358.757 170.923 358.672C170.112 358.544 169.045 358.48 167.723 358.48C164.864 358.48 162.624 359.461 161.003 361.424C159.381 363.344 158.571 366.011 158.571 369.424ZM150.635 369.296C150.635 366.651 151.019 364.261 151.786 362.128C152.597 359.952 153.728 358.117 155.179 356.624C156.672 355.088 158.464 353.915 160.555 353.104C162.645 352.251 165.013 351.824 167.659 351.824C170.304 351.824 172.779 352.016 175.083 352.4C177.387 352.784 179.285 353.189 180.779 353.616V397.84H173.035V384.848C172.139 385.317 171.029 385.744 169.707 386.128C168.427 386.512 166.997 386.704 165.419 386.704C163.029 386.704 160.917 386.299 159.083 385.488C157.248 384.635 155.712 383.44 154.475 381.904C153.237 380.368 152.277 378.533 151.595 376.4C150.955 374.267 150.635 371.899 150.635 369.296ZM218.072 384.976C216.578 385.36 214.637 385.744 212.248 386.128C209.858 386.555 207.234 386.768 204.376 386.768C201.688 386.768 199.426 386.384 197.592 385.616C195.8 384.848 194.349 383.781 193.24 382.416C192.173 381.051 191.405 379.429 190.936 377.552C190.466 375.632 190.232 373.541 190.232 371.28V352.528H197.976V370.064C197.976 373.648 198.488 376.208 199.512 377.744C200.578 379.28 202.413 380.048 205.016 380.048C205.954 380.048 206.936 380.005 207.96 379.92C209.026 379.835 209.816 379.728 210.328 379.6V352.528H218.072V384.976ZM235.736 386H227.992V352.528H235.736V386ZM236.568 342.736C236.568 344.187 236.099 345.339 235.16 346.192C234.221 347.045 233.112 347.472 231.832 347.472C230.509 347.472 229.379 347.045 228.44 346.192C227.501 345.339 227.032 344.187 227.032 342.736C227.032 341.243 227.501 340.069 228.44 339.216C229.379 338.363 230.509 337.936 231.832 337.936C233.112 337.936 234.221 338.363 235.16 339.216C236.099 340.069 236.568 341.243 236.568 342.736ZM254.192 386C252.058 381.605 249.861 376.571 247.6 370.896C245.381 365.179 243.354 359.056 241.52 352.528H249.776C250.245 354.405 250.778 356.432 251.376 358.608C252.016 360.741 252.677 362.896 253.36 365.072C254.085 367.205 254.81 369.296 255.536 371.344C256.304 373.349 257.008 375.163 257.648 376.784C258.288 375.163 258.97 373.349 259.696 371.344C260.421 369.296 261.125 367.205 261.808 365.072C262.533 362.896 263.216 360.741 263.856 358.608C264.496 356.432 265.05 354.405 265.52 352.528H273.52C271.685 359.056 269.637 365.179 267.376 370.896C265.157 376.571 262.981 381.605 260.848 386H254.192ZM291.079 380.56C293.468 380.56 295.282 380.432 296.519 380.176V371.6C296.092 371.472 295.474 371.344 294.663 371.216C293.852 371.088 292.956 371.024 291.975 371.024C291.122 371.024 290.247 371.088 289.351 371.216C288.498 371.344 287.708 371.579 286.983 371.92C286.3 372.261 285.746 372.752 285.319 373.392C284.892 373.989 284.679 374.757 284.679 375.696C284.679 377.531 285.255 378.811 286.407 379.536C287.559 380.219 289.116 380.56 291.079 380.56ZM290.439 351.696C292.999 351.696 295.154 352.016 296.903 352.656C298.652 353.296 300.039 354.192 301.063 355.344C302.13 356.496 302.876 357.904 303.303 359.568C303.772 361.189 304.007 362.981 304.007 364.944V385.232C302.812 385.488 300.999 385.787 298.567 386.128C296.178 386.512 293.468 386.704 290.439 386.704C288.434 386.704 286.599 386.512 284.935 386.128C283.271 385.744 281.842 385.125 280.647 384.272C279.495 383.419 278.578 382.309 277.895 380.944C277.255 379.579 276.935 377.893 276.935 375.888C276.935 373.968 277.298 372.347 278.023 371.024C278.791 369.701 279.815 368.635 281.095 367.824C282.375 366.971 283.847 366.373 285.511 366.032C287.218 365.648 288.988 365.456 290.823 365.456C291.676 365.456 292.572 365.52 293.511 365.648C294.45 365.733 295.452 365.904 296.519 366.16V364.88C296.519 363.984 296.412 363.131 296.199 362.32C295.986 361.509 295.602 360.805 295.047 360.208C294.535 359.568 293.831 359.077 292.935 358.736C292.082 358.395 290.994 358.224 289.671 358.224C287.879 358.224 286.236 358.352 284.743 358.608C283.25 358.864 282.034 359.163 281.095 359.504L280.135 353.232C281.116 352.891 282.546 352.549 284.423 352.208C286.3 351.867 288.306 351.696 290.439 351.696ZM325.139 386.64C322.835 386.597 320.915 386.341 319.379 385.872C317.885 385.403 316.691 384.741 315.795 383.888C314.899 382.992 314.259 381.904 313.875 380.624C313.533 379.301 313.363 377.808 313.363 376.144V337.616L321.107 336.336V374.672C321.107 375.611 321.171 376.4 321.299 377.04C321.469 377.68 321.747 378.235 322.131 378.704C322.515 379.131 323.027 379.472 323.667 379.728C324.349 379.941 325.203 380.112 326.227 380.24L325.139 386.64ZM340.299 386H332.555V352.528H340.299V386ZM341.131 342.736C341.131 344.187 340.661 345.339 339.723 346.192C338.784 347.045 337.675 347.472 336.395 347.472C335.072 347.472 333.941 347.045 333.003 346.192C332.064 345.339 331.595 344.187 331.595 342.736C331.595 341.243 332.064 340.069 333.003 339.216C333.941 338.363 335.072 337.936 336.395 337.936C337.675 337.936 338.784 338.363 339.723 339.216C340.661 340.069 341.131 341.243 341.131 342.736ZM348.322 369.424C348.322 366.48 348.749 363.899 349.602 361.68C350.498 359.461 351.671 357.627 353.122 356.176C354.573 354.683 356.237 353.573 358.114 352.848C359.991 352.08 361.911 351.696 363.874 351.696C368.482 351.696 372.066 353.125 374.626 355.984C377.229 358.843 378.53 363.109 378.53 368.784C378.53 369.211 378.509 369.701 378.466 370.256C378.466 370.768 378.445 371.237 378.402 371.664H356.322C356.535 374.352 357.474 376.443 359.138 377.936C360.845 379.387 363.298 380.112 366.498 380.112C368.375 380.112 370.082 379.941 371.618 379.6C373.197 379.259 374.434 378.896 375.33 378.512L376.354 384.848C375.927 385.061 375.33 385.296 374.562 385.552C373.837 385.765 372.983 385.957 372.002 386.128C371.063 386.341 370.039 386.512 368.93 386.64C367.821 386.768 366.69 386.832 365.538 386.832C362.594 386.832 360.034 386.405 357.858 385.552C355.682 384.656 353.89 383.44 352.482 381.904C351.074 380.325 350.029 378.491 349.346 376.4C348.663 374.267 348.322 371.941 348.322 369.424ZM370.786 365.968C370.786 364.901 370.637 363.899 370.338 362.96C370.039 361.979 369.591 361.147 368.994 360.464C368.439 359.739 367.735 359.184 366.882 358.8C366.071 358.373 365.09 358.16 363.938 358.16C362.743 358.16 361.698 358.395 360.802 358.864C359.906 359.291 359.138 359.867 358.498 360.592C357.901 361.317 357.431 362.149 357.09 363.088C356.749 364.027 356.514 364.987 356.386 365.968H370.786ZM386.741 353.616C388.234 353.189 390.175 352.784 392.565 352.4C394.954 352.016 397.599 351.824 400.501 351.824C403.231 351.824 405.514 352.208 407.349 352.976C409.183 353.701 410.634 354.747 411.701 356.112C412.81 357.435 413.578 359.056 414.005 360.976C414.474 362.853 414.708 364.923 414.708 367.184V386H406.965V368.4C406.965 366.608 406.837 365.093 406.581 363.856C406.367 362.576 405.983 361.552 405.429 360.784C404.917 359.973 404.191 359.397 403.253 359.056C402.357 358.672 401.247 358.48 399.925 358.48C398.943 358.48 397.919 358.544 396.853 358.672C395.786 358.8 394.997 358.907 394.485 358.992V386H386.741V353.616ZM423.794 343.696L431.538 342.416V352.528H443.442V358.992H431.538V372.624C431.538 375.312 431.965 377.232 432.818 378.384C433.671 379.536 435.122 380.112 437.17 380.112C438.578 380.112 439.815 379.963 440.882 379.664C441.991 379.365 442.866 379.088 443.506 378.832L444.786 384.976C443.89 385.36 442.717 385.744 441.266 386.128C439.815 386.555 438.109 386.768 436.146 386.768C433.757 386.768 431.751 386.448 430.13 385.808C428.551 385.168 427.293 384.251 426.354 383.056C425.415 381.819 424.754 380.347 424.37 378.64C423.986 376.891 423.794 374.907 423.794 372.688V343.696ZM464.01 369.296C464.01 366.821 464.394 364.517 465.161 362.384C465.93 360.208 467.018 358.331 468.426 356.752C469.876 355.173 471.626 353.936 473.674 353.04C475.722 352.144 478.026 351.696 480.586 351.696C483.743 351.696 486.73 352.272 489.546 353.424L487.882 359.76C486.986 359.376 485.962 359.056 484.81 358.8C483.7 358.544 482.506 358.416 481.226 358.416C478.196 358.416 475.892 359.376 474.314 361.296C472.735 363.173 471.946 365.84 471.946 369.296C471.946 372.624 472.692 375.269 474.186 377.232C475.679 379.152 478.196 380.112 481.738 380.112C483.06 380.112 484.362 379.984 485.642 379.728C486.922 379.472 488.031 379.152 488.97 378.768L490.058 385.168C489.204 385.595 487.903 385.979 486.154 386.32C484.447 386.661 482.676 386.832 480.842 386.832C477.983 386.832 475.487 386.405 473.354 385.552C471.263 384.656 469.514 383.44 468.106 381.904C466.74 380.325 465.716 378.469 465.034 376.336C464.351 374.16 464.01 371.813 464.01 369.296ZM504.437 380.432C506.485 380.432 507.978 380.197 508.917 379.728C509.856 379.216 510.325 378.363 510.325 377.168C510.325 376.059 509.813 375.141 508.789 374.416C507.808 373.691 506.165 372.901 503.861 372.048C502.453 371.536 501.152 371.003 499.957 370.448C498.805 369.851 497.802 369.168 496.949 368.4C496.096 367.632 495.413 366.715 494.901 365.648C494.432 364.539 494.197 363.195 494.197 361.616C494.197 358.544 495.328 356.133 497.589 354.384C499.85 352.592 502.922 351.696 506.805 351.696C508.768 351.696 510.645 351.888 512.437 352.272C514.229 352.613 515.573 352.955 516.469 353.296L515.061 359.568C514.208 359.184 513.12 358.843 511.797 358.544C510.474 358.203 508.938 358.032 507.189 358.032C505.61 358.032 504.33 358.309 503.349 358.864C502.368 359.376 501.877 360.187 501.877 361.296C501.877 361.851 501.962 362.341 502.133 362.768C502.346 363.195 502.688 363.6 503.157 363.984C503.626 364.325 504.245 364.688 505.013 365.072C505.781 365.413 506.72 365.776 507.829 366.16C509.664 366.843 511.221 367.525 512.501 368.208C513.781 368.848 514.826 369.595 515.637 370.448C516.49 371.259 517.109 372.197 517.493 373.264C517.877 374.331 518.069 375.611 518.069 377.104C518.069 380.304 516.874 382.736 514.485 384.4C512.138 386.021 508.768 386.832 504.373 386.832C501.429 386.832 499.061 386.576 497.269 386.064C495.477 385.595 494.218 385.211 493.493 384.912L494.837 378.448C495.989 378.917 497.354 379.365 498.933 379.792C500.554 380.219 502.389 380.432 504.437 380.432ZM533.687 380.432C535.735 380.432 537.228 380.197 538.167 379.728C539.106 379.216 539.575 378.363 539.575 377.168C539.575 376.059 539.063 375.141 538.039 374.416C537.058 373.691 535.415 372.901 533.111 372.048C531.703 371.536 530.402 371.003 529.207 370.448C528.055 369.851 527.052 369.168 526.199 368.4C525.346 367.632 524.663 366.715 524.151 365.648C523.682 364.539 523.447 363.195 523.447 361.616C523.447 358.544 524.578 356.133 526.839 354.384C529.1 352.592 532.172 351.696 536.055 351.696C538.018 351.696 539.895 351.888 541.687 352.272C543.479 352.613 544.823 352.955 545.719 353.296L544.311 359.568C543.458 359.184 542.37 358.843 541.047 358.544C539.724 358.203 538.188 358.032 536.439 358.032C534.86 358.032 533.58 358.309 532.599 358.864C531.618 359.376 531.127 360.187 531.127 361.296C531.127 361.851 531.212 362.341 531.383 362.768C531.596 363.195 531.938 363.6 532.407 363.984C532.876 364.325 533.495 364.688 534.263 365.072C535.031 365.413 535.97 365.776 537.079 366.16C538.914 366.843 540.471 367.525 541.751 368.208C543.031 368.848 544.076 369.595 544.887 370.448C545.74 371.259 546.359 372.197 546.743 373.264C547.127 374.331 547.319 375.611 547.319 377.104C547.319 380.304 546.124 382.736 543.735 384.4C541.388 386.021 538.018 386.832 533.623 386.832C530.679 386.832 528.311 386.576 526.519 386.064C524.727 385.595 523.468 385.211 522.743 384.912L524.087 378.448C525.239 378.917 526.604 379.365 528.183 379.792C529.804 380.219 531.639 380.432 533.687 380.432ZM563.257 357.84C563.257 359.333 562.745 360.549 561.721 361.488C560.74 362.427 559.545 362.896 558.137 362.896C556.686 362.896 555.47 362.427 554.489 361.488C553.508 360.549 553.017 359.333 553.017 357.84C553.017 356.347 553.508 355.131 554.489 354.192C555.47 353.211 556.686 352.72 558.137 352.72C559.545 352.72 560.74 353.211 561.721 354.192C562.745 355.131 563.257 356.347 563.257 357.84ZM563.257 381.776C563.257 383.269 562.745 384.485 561.721 385.424C560.74 386.363 559.545 386.832 558.137 386.832C556.686 386.832 555.47 386.363 554.489 385.424C553.508 384.485 553.017 383.269 553.017 381.776C553.017 380.283 553.508 379.067 554.489 378.128C555.47 377.147 556.686 376.656 558.137 376.656C559.545 376.656 560.74 377.147 561.721 378.128C562.745 379.067 563.257 380.283 563.257 381.776ZM600.251 336.336C601.872 336.336 603.237 336.464 604.347 336.72C605.499 336.976 606.395 337.232 607.035 337.488L605.819 343.76C605.221 343.547 604.496 343.355 603.643 343.184C602.832 343.013 601.936 342.928 600.955 342.928C598.395 342.928 596.624 343.611 595.643 344.976C594.704 346.341 594.235 348.112 594.235 350.288V352.528H606.523V358.992H594.235V386H586.491V350.16C586.491 345.808 587.621 342.416 589.883 339.984C592.144 337.552 595.6 336.336 600.251 336.336ZM624.123 386.64C621.819 386.597 619.899 386.341 618.363 385.872C616.869 385.403 615.675 384.741 614.779 383.888C613.883 382.992 613.243 381.904 612.859 380.624C612.517 379.301 612.347 377.808 612.347 376.144V337.616L620.091 336.336V374.672C620.091 375.611 620.155 376.4 620.283 377.04C620.453 377.68 620.731 378.235 621.115 378.704C621.499 379.131 622.011 379.472 622.651 379.728C623.333 379.941 624.187 380.112 625.211 380.24L624.123 386.64ZM629.635 369.424C629.635 366.48 630.061 363.899 630.915 361.68C631.811 359.461 632.984 357.627 634.435 356.176C635.885 354.683 637.549 353.573 639.427 352.848C641.304 352.08 643.224 351.696 645.187 351.696C649.795 351.696 653.379 353.125 655.939 355.984C658.541 358.843 659.843 363.109 659.843 368.784C659.843 369.211 659.821 369.701 659.779 370.256C659.779 370.768 659.757 371.237 659.715 371.664H637.635C637.848 374.352 638.787 376.443 640.451 377.936C642.157 379.387 644.611 380.112 647.811 380.112C649.688 380.112 651.395 379.941 652.931 379.6C654.509 379.259 655.747 378.896 656.643 378.512L657.667 384.848C657.24 385.061 656.643 385.296 655.875 385.552C655.149 385.765 654.296 385.957 653.315 386.128C652.376 386.341 651.352 386.512 650.243 386.64C649.133 386.768 648.003 386.832 646.851 386.832C643.907 386.832 641.347 386.405 639.171 385.552C636.995 384.656 635.203 383.44 633.795 381.904C632.387 380.325 631.341 378.491 630.659 376.4C629.976 374.267 629.635 371.941 629.635 369.424ZM652.099 365.968C652.099 364.901 651.949 363.899 651.651 362.96C651.352 361.979 650.904 361.147 650.307 360.464C649.752 359.739 649.048 359.184 648.195 358.8C647.384 358.373 646.403 358.16 645.251 358.16C644.056 358.16 643.011 358.395 642.115 358.864C641.219 359.291 640.451 359.867 639.811 360.592C639.213 361.317 638.744 362.149 638.403 363.088C638.061 364.027 637.827 364.987 637.699 365.968H652.099ZM680.085 363.472L687.189 352.528H695.317L684.309 368.336C686.613 371.323 688.81 374.352 690.901 377.424C693.034 380.453 694.784 383.312 696.149 386H687.765C687.381 385.189 686.869 384.272 686.229 383.248C685.632 382.181 684.97 381.093 684.245 379.984C683.562 378.832 682.837 377.701 682.069 376.592C681.301 375.483 680.554 374.437 679.829 373.456C678.336 375.376 676.864 377.509 675.413 379.856C674.005 382.16 672.832 384.208 671.893 386H663.957C664.597 384.72 665.365 383.355 666.261 381.904C667.157 380.453 668.117 378.981 669.141 377.488C670.165 375.952 671.21 374.437 672.277 372.944C673.386 371.408 674.474 369.957 675.541 368.592L664.469 352.528H672.981L680.085 363.472ZM698.472 364.176H715.688V371.28H698.472V364.176ZM728.196 369.168C728.196 372.581 729.006 375.269 730.628 377.232C732.249 379.152 734.489 380.112 737.348 380.112C738.585 380.112 739.63 380.069 740.484 379.984C741.38 379.856 742.105 379.728 742.66 379.6V360.4C741.977 359.931 741.06 359.504 739.908 359.12C738.798 358.693 737.604 358.48 736.324 358.48C733.508 358.48 731.438 359.44 730.116 361.36C728.836 363.28 728.196 365.883 728.196 369.168ZM750.404 384.976C748.868 385.445 746.926 385.872 744.58 386.256C742.276 386.64 739.844 386.832 737.284 386.832C734.638 386.832 732.27 386.427 730.18 385.616C728.089 384.805 726.297 383.653 724.804 382.16C723.353 380.624 722.222 378.789 721.411 376.656C720.644 374.48 720.26 372.048 720.26 369.36C720.26 366.715 720.58 364.325 721.22 362.192C721.902 360.016 722.884 358.16 724.164 356.624C725.444 355.088 727.001 353.915 728.836 353.104C730.67 352.251 732.782 351.824 735.172 351.824C736.793 351.824 738.222 352.016 739.46 352.4C740.697 352.784 741.764 353.211 742.66 353.68V337.616L750.404 336.336V384.976ZM768.049 386H760.305V352.528H768.049V386ZM768.881 342.736C768.881 344.187 768.411 345.339 767.473 346.192C766.534 347.045 765.425 347.472 764.145 347.472C762.822 347.472 761.691 347.045 760.753 346.192C759.814 345.339 759.345 344.187 759.345 342.736C759.345 341.243 759.814 340.069 760.753 339.216C761.691 338.363 762.822 337.936 764.145 337.936C765.425 337.936 766.534 338.363 767.473 339.216C768.411 340.069 768.881 341.243 768.881 342.736ZM797 359.504C796.36 359.291 795.464 359.077 794.312 358.864C793.203 358.608 791.901 358.48 790.408 358.48C789.555 358.48 788.637 358.565 787.656 358.736C786.717 358.907 786.056 359.056 785.672 359.184V386H777.928V354.128C779.421 353.573 781.277 353.061 783.496 352.592C785.757 352.08 788.253 351.824 790.984 351.824C791.496 351.824 792.093 351.867 792.776 351.952C793.459 351.995 794.141 352.08 794.824 352.208C795.507 352.293 796.168 352.421 796.808 352.592C797.448 352.72 797.96 352.848 798.344 352.976L797 359.504ZM801.885 369.424C801.885 366.48 802.311 363.899 803.165 361.68C804.061 359.461 805.234 357.627 806.685 356.176C808.135 354.683 809.799 353.573 811.677 352.848C813.554 352.08 815.474 351.696 817.437 351.696C822.045 351.696 825.629 353.125 828.189 355.984C830.791 358.843 832.093 363.109 832.093 368.784C832.093 369.211 832.071 369.701 832.029 370.256C832.029 370.768 832.007 371.237 831.965 371.664H809.885C810.098 374.352 811.037 376.443 812.701 377.936C814.407 379.387 816.861 380.112 820.061 380.112C821.938 380.112 823.645 379.941 825.181 379.6C826.759 379.259 827.997 378.896 828.893 378.512L829.917 384.848C829.49 385.061 828.893 385.296 828.125 385.552C827.399 385.765 826.546 385.957 825.565 386.128C824.626 386.341 823.602 386.512 822.493 386.64C821.383 386.768 820.253 386.832 819.101 386.832C816.157 386.832 813.597 386.405 811.421 385.552C809.245 384.656 807.453 383.44 806.045 381.904C804.637 380.325 803.591 378.491 802.909 376.4C802.226 374.267 801.885 371.941 801.885 369.424ZM824.349 365.968C824.349 364.901 824.199 363.899 823.901 362.96C823.602 361.979 823.154 361.147 822.557 360.464C822.002 359.739 821.298 359.184 820.445 358.8C819.634 358.373 818.653 358.16 817.501 358.16C816.306 358.16 815.261 358.395 814.365 358.864C813.469 359.291 812.701 359.867 812.061 360.592C811.463 361.317 810.994 362.149 810.653 363.088C810.311 364.027 810.077 364.987 809.949 365.968H824.349ZM838.447 369.296C838.447 366.821 838.831 364.517 839.599 362.384C840.367 360.208 841.455 358.331 842.863 356.752C844.314 355.173 846.063 353.936 848.111 353.04C850.159 352.144 852.463 351.696 855.023 351.696C858.18 351.696 861.167 352.272 863.983 353.424L862.319 359.76C861.423 359.376 860.399 359.056 859.247 358.8C858.138 358.544 856.943 358.416 855.663 358.416C852.634 358.416 850.33 359.376 848.751 361.296C847.172 363.173 846.383 365.84 846.383 369.296C846.383 372.624 847.13 375.269 848.623 377.232C850.116 379.152 852.634 380.112 856.175 380.112C857.498 380.112 858.799 379.984 860.079 379.728C861.359 379.472 862.468 379.152 863.407 378.768L864.495 385.168C863.642 385.595 862.34 385.979 860.591 386.32C858.884 386.661 857.114 386.832 855.279 386.832C852.42 386.832 849.924 386.405 847.791 385.552C845.7 384.656 843.951 383.44 842.543 381.904C841.178 380.325 840.154 378.469 839.471 376.336C838.788 374.16 838.447 371.813 838.447 369.296ZM870.107 343.696L877.851 342.416V352.528H889.755V358.992H877.851V372.624C877.851 375.312 878.277 377.232 879.131 378.384C879.984 379.536 881.435 380.112 883.483 380.112C884.891 380.112 886.128 379.963 887.195 379.664C888.304 379.365 889.179 379.088 889.819 378.832L891.099 384.976C890.203 385.36 889.029 385.744 887.579 386.128C886.128 386.555 884.421 386.768 882.458 386.768C880.069 386.768 878.064 386.448 876.443 385.808C874.864 385.168 873.605 384.251 872.667 383.056C871.728 381.819 871.067 380.347 870.683 378.64C870.299 376.891 870.107 374.907 870.107 372.688V343.696ZM905.049 386H897.305V352.528H905.049V386ZM905.881 342.736C905.881 344.187 905.411 345.339 904.473 346.192C903.534 347.045 902.425 347.472 901.145 347.472C899.822 347.472 898.691 347.045 897.753 346.192C896.814 345.339 896.345 344.187 896.345 342.736C896.345 341.243 896.814 340.069 897.753 339.216C898.691 338.363 899.822 337.936 901.145 337.936C902.425 337.936 903.534 338.363 904.473 339.216C905.411 340.069 905.881 341.243 905.881 342.736ZM945.2 369.232C945.2 371.877 944.816 374.288 944.048 376.464C943.28 378.64 942.192 380.496 940.784 382.032C939.376 383.568 937.669 384.763 935.664 385.616C933.701 386.469 931.525 386.896 929.136 386.896C926.747 386.896 924.571 386.469 922.608 385.616C920.645 384.763 918.96 383.568 917.552 382.032C916.144 380.496 915.035 378.64 914.224 376.464C913.456 374.288 913.072 371.877 913.072 369.232C913.072 366.587 913.456 364.197 914.224 362.064C915.035 359.888 916.144 358.032 917.552 356.496C919.003 354.96 920.709 353.787 922.672 352.976C924.635 352.123 926.789 351.696 929.136 351.696C931.483 351.696 933.637 352.123 935.6 352.976C937.605 353.787 939.312 354.96 940.72 356.496C942.128 358.032 943.216 359.888 943.984 362.064C944.795 364.197 945.2 366.587 945.2 369.232ZM937.264 369.232C937.264 365.904 936.539 363.28 935.088 361.36C933.68 359.397 931.696 358.416 929.136 358.416C926.576 358.416 924.571 359.397 923.12 361.36C921.712 363.28 921.008 365.904 921.008 369.232C921.008 372.603 921.712 375.269 923.12 377.232C924.571 379.195 926.576 380.176 929.136 380.176C931.696 380.176 933.68 379.195 935.088 377.232C936.539 375.269 937.264 372.603 937.264 369.232ZM953.178 353.616C954.671 353.189 956.613 352.784 959.002 352.4C961.391 352.016 964.037 351.824 966.938 351.824C969.669 351.824 971.951 352.208 973.786 352.976C975.621 353.701 977.071 354.747 978.138 356.112C979.247 357.435 980.015 359.056 980.442 360.976C980.911 362.853 981.146 364.923 981.146 367.184V386H973.402V368.4C973.402 366.608 973.274 365.093 973.018 363.856C972.805 362.576 972.421 361.552 971.866 360.784C971.354 359.973 970.629 359.397 969.69 359.056C968.794 358.672 967.685 358.48 966.362 358.48C965.381 358.48 964.357 358.544 963.29 358.672C962.223 358.8 961.434 358.907 960.922 358.992V386H953.178V353.616Z" fill="#60195E"/>
<path d="M132.75 520.988C132.17 520.795 131.358 520.601 130.314 520.408C129.309 520.176 128.129 520.06 126.776 520.06C126.003 520.06 125.171 520.137 124.282 520.292C123.431 520.447 122.832 520.582 122.484 520.698V545H115.466V516.116C116.819 515.613 118.501 515.149 120.512 514.724C122.561 514.26 124.823 514.028 127.298 514.028C127.762 514.028 128.303 514.067 128.922 514.144C129.541 514.183 130.159 514.26 130.778 514.376C131.397 514.453 131.996 514.569 132.576 514.724C133.156 514.84 133.62 514.956 133.968 515.072L132.75 520.988ZM166.293 529.804C166.293 532.201 165.945 534.386 165.249 536.358C164.553 538.33 163.567 540.012 162.291 541.404C161.015 542.796 159.468 543.879 157.651 544.652C155.872 545.425 153.9 545.812 151.735 545.812C149.569 545.812 147.597 545.425 145.819 544.652C144.04 543.879 142.513 542.796 141.237 541.404C139.961 540.012 138.955 538.33 138.221 536.358C137.525 534.386 137.177 532.201 137.177 529.804C137.177 527.407 137.525 525.241 138.221 523.308C138.955 521.336 139.961 519.654 141.237 518.262C142.551 516.87 144.098 515.807 145.877 515.072C147.655 514.299 149.608 513.912 151.735 513.912C153.861 513.912 155.814 514.299 157.593 515.072C159.41 515.807 160.957 516.87 162.233 518.262C163.509 519.654 164.495 521.336 165.191 523.308C165.925 525.241 166.293 527.407 166.293 529.804ZM159.101 529.804C159.101 526.788 158.443 524.41 157.129 522.67C155.853 520.891 154.055 520.002 151.735 520.002C149.415 520.002 147.597 520.891 146.283 522.67C145.007 524.41 144.369 526.788 144.369 529.804C144.369 532.859 145.007 535.275 146.283 537.054C147.597 538.833 149.415 539.722 151.735 539.722C154.055 539.722 155.853 538.833 157.129 537.054C158.443 535.275 159.101 532.859 159.101 529.804ZM190.996 525.918C190.106 529.321 189.14 532.646 188.096 535.894C187.09 539.103 186.085 542.139 185.08 545H179.338C178.564 543.221 177.752 541.191 176.902 538.91C176.051 536.629 175.2 534.193 174.35 531.602C173.499 529.011 172.648 526.285 171.798 523.424C170.947 520.563 170.116 517.643 169.304 514.666H176.728C177.076 516.29 177.482 518.049 177.946 519.944C178.41 521.8 178.893 523.714 179.396 525.686C179.898 527.619 180.42 529.514 180.962 531.37C181.503 533.226 182.044 534.927 182.586 536.474C183.166 534.695 183.726 532.859 184.268 530.964C184.848 529.069 185.389 527.175 185.892 525.28C186.394 523.385 186.858 521.549 187.284 519.77C187.748 517.953 188.154 516.251 188.502 514.666H193.896C194.244 516.251 194.63 517.953 195.056 519.77C195.481 521.549 195.926 523.385 196.39 525.28C196.892 527.175 197.414 529.069 197.956 530.964C198.536 532.859 199.116 534.695 199.696 536.474C200.198 534.927 200.72 533.226 201.262 531.37C201.803 529.514 202.325 527.619 202.828 525.686C203.369 523.714 203.872 521.8 204.336 519.944C204.8 518.049 205.206 516.29 205.554 514.666H212.804C211.992 517.643 211.16 520.563 210.31 523.424C209.459 526.285 208.608 529.011 207.758 531.602C206.907 534.193 206.056 536.629 205.206 538.91C204.355 541.191 203.524 543.221 202.712 545H197.028C196.022 542.139 194.978 539.103 193.896 535.894C192.852 532.646 191.885 529.321 190.996 525.918Z" fill="#60195E"/>
<path d="M1642.78 174.862C1642.78 172.619 1643.13 170.531 1643.83 168.598C1644.52 166.626 1645.51 164.925 1646.79 163.494C1648.1 162.063 1649.69 160.942 1651.54 160.13C1653.4 159.318 1655.49 158.912 1657.81 158.912C1660.67 158.912 1663.37 159.434 1665.93 160.478L1664.42 166.22C1663.61 165.872 1662.68 165.582 1661.63 165.35C1660.63 165.118 1659.55 165.002 1658.39 165.002C1655.64 165.002 1653.55 165.872 1652.12 167.612C1650.69 169.313 1649.98 171.73 1649.98 174.862C1649.98 177.878 1650.65 180.275 1652.01 182.054C1653.36 183.794 1655.64 184.664 1658.85 184.664C1660.05 184.664 1661.23 184.548 1662.39 184.316C1663.55 184.084 1664.55 183.794 1665.4 183.446L1666.39 189.246C1665.62 189.633 1664.44 189.981 1662.85 190.29C1661.31 190.599 1659.7 190.754 1658.04 190.754C1655.45 190.754 1653.19 190.367 1651.25 189.594C1649.36 188.782 1647.77 187.68 1646.5 186.288C1645.26 184.857 1644.33 183.175 1643.71 181.242C1643.09 179.27 1642.78 177.143 1642.78 174.862ZM1698.63 174.804C1698.63 177.201 1698.29 179.386 1697.59 181.358C1696.89 183.33 1695.91 185.012 1694.63 186.404C1693.36 187.796 1691.81 188.879 1689.99 189.652C1688.21 190.425 1686.24 190.812 1684.08 190.812C1681.91 190.812 1679.94 190.425 1678.16 189.652C1676.38 188.879 1674.85 187.796 1673.58 186.404C1672.3 185.012 1671.3 183.33 1670.56 181.358C1669.87 179.386 1669.52 177.201 1669.52 174.804C1669.52 172.407 1669.87 170.241 1670.56 168.308C1671.3 166.336 1672.3 164.654 1673.58 163.262C1674.89 161.87 1676.44 160.807 1678.22 160.072C1680 159.299 1681.95 158.912 1684.08 158.912C1686.2 158.912 1688.16 159.299 1689.93 160.072C1691.75 160.807 1693.3 161.87 1694.57 163.262C1695.85 164.654 1696.84 166.336 1697.53 168.308C1698.27 170.241 1698.63 172.407 1698.63 174.804ZM1691.44 174.804C1691.44 171.788 1690.79 169.41 1689.47 167.67C1688.19 165.891 1686.4 165.002 1684.08 165.002C1681.76 165.002 1679.94 165.891 1678.62 167.67C1677.35 169.41 1676.71 171.788 1676.71 174.804C1676.71 177.859 1677.35 180.275 1678.62 182.054C1679.94 183.833 1681.76 184.722 1684.08 184.722C1686.4 184.722 1688.19 183.833 1689.47 182.054C1690.79 180.275 1691.44 177.859 1691.44 174.804ZM1716.42 190.58C1714.33 190.541 1712.59 190.309 1711.2 189.884C1709.85 189.459 1708.76 188.859 1707.95 188.086C1707.14 187.274 1706.56 186.288 1706.21 185.128C1705.9 183.929 1705.75 182.576 1705.75 181.068V146.152L1712.77 144.992V179.734C1712.77 180.585 1712.82 181.3 1712.94 181.88C1713.1 182.46 1713.35 182.963 1713.69 183.388C1714.04 183.775 1714.51 184.084 1715.09 184.316C1715.71 184.509 1716.48 184.664 1717.41 184.78L1716.42 190.58ZM1747.97 189.072C1746.61 189.42 1744.85 189.768 1742.69 190.116C1740.52 190.503 1738.14 190.696 1735.55 190.696C1733.12 190.696 1731.07 190.348 1729.41 189.652C1727.78 188.956 1726.47 187.989 1725.46 186.752C1724.49 185.515 1723.8 184.045 1723.37 182.344C1722.95 180.604 1722.74 178.709 1722.74 176.66V159.666H1729.75V175.558C1729.75 178.806 1730.22 181.126 1731.15 182.518C1732.11 183.91 1733.77 184.606 1736.13 184.606C1736.98 184.606 1737.87 184.567 1738.8 184.49C1739.77 184.413 1740.48 184.316 1740.95 184.2V159.666H1747.97V189.072ZM1774.18 174.05C1774.18 170.879 1773.78 168.598 1772.96 167.206C1772.19 165.775 1770.72 165.06 1768.56 165.06C1767.78 165.06 1766.93 165.118 1766 165.234C1765.08 165.35 1764.38 165.447 1763.92 165.524V190H1756.9V160.652C1758.25 160.265 1760.01 159.898 1762.18 159.55C1764.38 159.202 1766.7 159.028 1769.14 159.028C1771.22 159.028 1772.92 159.299 1774.24 159.84C1775.59 160.381 1776.71 161.097 1777.6 161.986C1778.03 161.677 1778.57 161.348 1779.23 161C1779.88 160.652 1780.62 160.343 1781.43 160.072C1782.24 159.763 1783.09 159.511 1783.98 159.318C1784.91 159.125 1785.84 159.028 1786.77 159.028C1789.13 159.028 1791.06 159.376 1792.57 160.072C1794.11 160.729 1795.31 161.677 1796.16 162.914C1797.05 164.113 1797.65 165.582 1797.96 167.322C1798.31 169.023 1798.48 170.899 1798.48 172.948V190H1791.47V174.05C1791.47 170.879 1791.08 168.598 1790.31 167.206C1789.53 165.775 1788.04 165.06 1785.84 165.06C1784.72 165.06 1783.65 165.253 1782.65 165.64C1781.64 165.988 1780.89 166.336 1780.39 166.684C1780.7 167.651 1780.91 168.675 1781.03 169.758C1781.14 170.841 1781.2 172.001 1781.2 173.238V190H1774.18V174.05ZM1807.08 160.652C1808.43 160.265 1810.19 159.898 1812.36 159.55C1814.52 159.202 1816.92 159.028 1819.55 159.028C1822.03 159.028 1824.09 159.376 1825.76 160.072C1827.42 160.729 1828.73 161.677 1829.7 162.914C1830.71 164.113 1831.4 165.582 1831.79 167.322C1832.21 169.023 1832.43 170.899 1832.43 172.948V190H1825.41V174.05C1825.41 172.426 1825.29 171.053 1825.06 169.932C1824.87 168.772 1824.52 167.844 1824.02 167.148C1823.55 166.413 1822.9 165.891 1822.05 165.582C1821.23 165.234 1820.23 165.06 1819.03 165.06C1818.14 165.06 1817.21 165.118 1816.25 165.234C1815.28 165.35 1814.56 165.447 1814.1 165.524V190H1807.08V160.652Z" fill="#60195E"/>
<path d="M2041.78 174.862C2041.78 172.619 2042.13 170.531 2042.83 168.598C2043.52 166.626 2044.51 164.925 2045.79 163.494C2047.1 162.063 2048.69 160.942 2050.54 160.13C2052.4 159.318 2054.49 158.912 2056.81 158.912C2059.67 158.912 2062.37 159.434 2064.93 160.478L2063.42 166.22C2062.61 165.872 2061.68 165.582 2060.63 165.35C2059.63 165.118 2058.55 165.002 2057.39 165.002C2054.64 165.002 2052.55 165.872 2051.12 167.612C2049.69 169.313 2048.98 171.73 2048.98 174.862C2048.98 177.878 2049.65 180.275 2051.01 182.054C2052.36 183.794 2054.64 184.664 2057.85 184.664C2059.05 184.664 2060.23 184.548 2061.39 184.316C2062.55 184.084 2063.55 183.794 2064.4 183.446L2065.39 189.246C2064.62 189.633 2063.44 189.981 2061.85 190.29C2060.31 190.599 2058.7 190.754 2057.04 190.754C2054.45 190.754 2052.19 190.367 2050.25 189.594C2048.36 188.782 2046.77 187.68 2045.5 186.288C2044.26 184.857 2043.33 183.175 2042.71 181.242C2042.09 179.27 2041.78 177.143 2041.78 174.862ZM2097.63 174.804C2097.63 177.201 2097.29 179.386 2096.59 181.358C2095.89 183.33 2094.91 185.012 2093.63 186.404C2092.36 187.796 2090.81 188.879 2088.99 189.652C2087.21 190.425 2085.24 190.812 2083.08 190.812C2080.91 190.812 2078.94 190.425 2077.16 189.652C2075.38 188.879 2073.85 187.796 2072.58 186.404C2071.3 185.012 2070.3 183.33 2069.56 181.358C2068.87 179.386 2068.52 177.201 2068.52 174.804C2068.52 172.407 2068.87 170.241 2069.56 168.308C2070.3 166.336 2071.3 164.654 2072.58 163.262C2073.89 161.87 2075.44 160.807 2077.22 160.072C2079 159.299 2080.95 158.912 2083.08 158.912C2085.2 158.912 2087.16 159.299 2088.93 160.072C2090.75 160.807 2092.3 161.87 2093.57 163.262C2094.85 164.654 2095.84 166.336 2096.53 168.308C2097.27 170.241 2097.63 172.407 2097.63 174.804ZM2090.44 174.804C2090.44 171.788 2089.79 169.41 2088.47 167.67C2087.19 165.891 2085.4 165.002 2083.08 165.002C2080.76 165.002 2078.94 165.891 2077.62 167.67C2076.35 169.41 2075.71 171.788 2075.71 174.804C2075.71 177.859 2076.35 180.275 2077.62 182.054C2078.94 183.833 2080.76 184.722 2083.08 184.722C2085.4 184.722 2087.19 183.833 2088.47 182.054C2089.79 180.275 2090.44 177.859 2090.44 174.804ZM2115.42 190.58C2113.33 190.541 2111.59 190.309 2110.2 189.884C2108.85 189.459 2107.76 188.859 2106.95 188.086C2106.14 187.274 2105.56 186.288 2105.21 185.128C2104.9 183.929 2104.75 182.576 2104.75 181.068V146.152L2111.77 144.992V179.734C2111.77 180.585 2111.82 181.3 2111.94 181.88C2112.1 182.46 2112.35 182.963 2112.69 183.388C2113.04 183.775 2113.51 184.084 2114.09 184.316C2114.71 184.509 2115.48 184.664 2116.41 184.78L2115.42 190.58ZM2146.97 189.072C2145.61 189.42 2143.85 189.768 2141.69 190.116C2139.52 190.503 2137.14 190.696 2134.55 190.696C2132.12 190.696 2130.07 190.348 2128.41 189.652C2126.78 188.956 2125.47 187.989 2124.46 186.752C2123.49 185.515 2122.8 184.045 2122.37 182.344C2121.95 180.604 2121.74 178.709 2121.74 176.66V159.666H2128.75V175.558C2128.75 178.806 2129.22 181.126 2130.15 182.518C2131.11 183.91 2132.77 184.606 2135.13 184.606C2135.98 184.606 2136.87 184.567 2137.8 184.49C2138.77 184.413 2139.48 184.316 2139.95 184.2V159.666H2146.97V189.072ZM2173.18 174.05C2173.18 170.879 2172.78 168.598 2171.96 167.206C2171.19 165.775 2169.72 165.06 2167.56 165.06C2166.78 165.06 2165.93 165.118 2165 165.234C2164.08 165.35 2163.38 165.447 2162.92 165.524V190H2155.9V160.652C2157.25 160.265 2159.01 159.898 2161.18 159.55C2163.38 159.202 2165.7 159.028 2168.14 159.028C2170.22 159.028 2171.92 159.299 2173.24 159.84C2174.59 160.381 2175.71 161.097 2176.6 161.986C2177.03 161.677 2177.57 161.348 2178.23 161C2178.88 160.652 2179.62 160.343 2180.43 160.072C2181.24 159.763 2182.09 159.511 2182.98 159.318C2183.91 159.125 2184.84 159.028 2185.77 159.028C2188.13 159.028 2190.06 159.376 2191.57 160.072C2193.11 160.729 2194.31 161.677 2195.16 162.914C2196.05 164.113 2196.65 165.582 2196.96 167.322C2197.31 169.023 2197.48 170.899 2197.48 172.948V190H2190.47V174.05C2190.47 170.879 2190.08 168.598 2189.31 167.206C2188.53 165.775 2187.04 165.06 2184.84 165.06C2183.72 165.06 2182.65 165.253 2181.65 165.64C2180.64 165.988 2179.89 166.336 2179.39 166.684C2179.7 167.651 2179.91 168.675 2180.03 169.758C2180.14 170.841 2180.2 172.001 2180.2 173.238V190H2173.18V174.05ZM2206.08 160.652C2207.43 160.265 2209.19 159.898 2211.36 159.55C2213.52 159.202 2215.92 159.028 2218.55 159.028C2221.03 159.028 2223.09 159.376 2224.76 160.072C2226.42 160.729 2227.73 161.677 2228.7 162.914C2229.71 164.113 2230.4 165.582 2230.79 167.322C2231.21 169.023 2231.43 170.899 2231.43 172.948V190H2224.41V174.05C2224.41 172.426 2224.29 171.053 2224.06 169.932C2223.87 168.772 2223.52 167.844 2223.02 167.148C2222.55 166.413 2221.9 165.891 2221.05 165.582C2220.23 165.234 2219.23 165.06 2218.03 165.06C2217.14 165.06 2216.21 165.118 2215.25 165.234C2214.28 165.35 2213.56 165.447 2213.1 165.524V190H2206.08V160.652ZM2236.88 170.222H2252.48V176.66H2236.88V170.222ZM2275.59 165.988C2275.01 165.795 2274.2 165.601 2273.15 165.408C2272.15 165.176 2270.97 165.06 2269.61 165.06C2268.84 165.06 2268.01 165.137 2267.12 165.292C2266.27 165.447 2265.67 165.582 2265.32 165.698V190H2258.3V161.116C2259.66 160.613 2261.34 160.149 2263.35 159.724C2265.4 159.26 2267.66 159.028 2270.14 159.028C2270.6 159.028 2271.14 159.067 2271.76 159.144C2272.38 159.183 2273 159.26 2273.62 159.376C2274.23 159.453 2274.83 159.569 2275.41 159.724C2275.99 159.84 2276.46 159.956 2276.81 160.072L2275.59 165.988ZM2280.01 174.978C2280.01 172.31 2280.4 169.971 2281.17 167.96C2281.99 165.949 2283.05 164.287 2284.36 162.972C2285.68 161.619 2287.19 160.613 2288.89 159.956C2290.59 159.26 2292.33 158.912 2294.11 158.912C2298.28 158.912 2301.53 160.207 2303.85 162.798C2306.21 165.389 2307.39 169.255 2307.39 174.398C2307.39 174.785 2307.37 175.229 2307.33 175.732C2307.33 176.196 2307.31 176.621 2307.27 177.008H2287.26C2287.46 179.444 2288.31 181.339 2289.82 182.692C2291.36 184.007 2293.59 184.664 2296.49 184.664C2298.19 184.664 2299.73 184.509 2301.13 184.2C2302.56 183.891 2303.68 183.562 2304.49 183.214L2305.42 188.956C2305.03 189.149 2304.49 189.362 2303.79 189.594C2303.14 189.787 2302.36 189.961 2301.47 190.116C2300.62 190.309 2299.7 190.464 2298.69 190.58C2297.69 190.696 2296.66 190.754 2295.62 190.754C2292.95 190.754 2290.63 190.367 2288.66 189.594C2286.68 188.782 2285.06 187.68 2283.78 186.288C2282.51 184.857 2281.56 183.195 2280.94 181.3C2280.32 179.367 2280.01 177.259 2280.01 174.978ZM2300.37 171.846C2300.37 170.879 2300.24 169.971 2299.97 169.12C2299.7 168.231 2299.29 167.477 2298.75 166.858C2298.25 166.201 2297.61 165.698 2296.83 165.35C2296.1 164.963 2295.21 164.77 2294.17 164.77C2293.08 164.77 2292.14 164.983 2291.32 165.408C2290.51 165.795 2289.82 166.317 2289.24 166.974C2288.7 167.631 2288.27 168.385 2287.96 169.236C2287.65 170.087 2287.44 170.957 2287.32 171.846H2300.37ZM2322.6 190C2320.67 186.017 2318.68 181.455 2316.63 176.312C2314.62 171.131 2312.78 165.582 2311.12 159.666H2318.6C2319.03 161.367 2319.51 163.204 2320.05 165.176C2320.63 167.109 2321.23 169.062 2321.85 171.034C2322.51 172.967 2323.16 174.862 2323.82 176.718C2324.52 178.535 2325.16 180.179 2325.74 181.648C2326.32 180.179 2326.93 178.535 2327.59 176.718C2328.25 174.862 2328.89 172.967 2329.51 171.034C2330.16 169.062 2330.78 167.109 2331.36 165.176C2331.94 163.204 2332.44 161.367 2332.87 159.666H2340.12C2338.46 165.582 2336.6 171.131 2334.55 176.312C2332.54 181.455 2330.57 186.017 2328.64 190H2322.6ZM2343 174.978C2343 172.31 2343.39 169.971 2344.16 167.96C2344.97 165.949 2346.03 164.287 2347.35 162.972C2348.66 161.619 2350.17 160.613 2351.87 159.956C2353.57 159.26 2355.31 158.912 2357.09 158.912C2361.27 158.912 2364.52 160.207 2366.84 162.798C2369.2 165.389 2370.37 169.255 2370.37 174.398C2370.37 174.785 2370.36 175.229 2370.32 175.732C2370.32 176.196 2370.3 176.621 2370.26 177.008H2350.25C2350.44 179.444 2351.29 181.339 2352.8 182.692C2354.35 184.007 2356.57 184.664 2359.47 184.664C2361.17 184.664 2362.72 184.509 2364.11 184.2C2365.54 183.891 2366.66 183.562 2367.47 183.214L2368.4 188.956C2368.02 189.149 2367.47 189.362 2366.78 189.594C2366.12 189.787 2365.35 189.961 2364.46 190.116C2363.61 190.309 2362.68 190.464 2361.67 190.58C2360.67 190.696 2359.64 190.754 2358.6 190.754C2355.93 190.754 2353.61 190.367 2351.64 189.594C2349.67 188.782 2348.04 187.68 2346.77 186.288C2345.49 184.857 2344.55 183.195 2343.93 181.3C2343.31 179.367 2343 177.259 2343 174.978ZM2363.36 171.846C2363.36 170.879 2363.22 169.971 2362.95 169.12C2362.68 168.231 2362.27 167.477 2361.73 166.858C2361.23 166.201 2360.59 165.698 2359.82 165.35C2359.08 164.963 2358.19 164.77 2357.15 164.77C2356.07 164.77 2355.12 164.983 2354.31 165.408C2353.5 165.795 2352.8 166.317 2352.22 166.974C2351.68 167.631 2351.25 168.385 2350.94 169.236C2350.64 170.087 2350.42 170.957 2350.31 171.846H2363.36ZM2395.1 165.988C2394.52 165.795 2393.71 165.601 2392.66 165.408C2391.66 165.176 2390.48 165.06 2389.13 165.06C2388.35 165.06 2387.52 165.137 2386.63 165.292C2385.78 165.447 2385.18 165.582 2384.83 165.698V190H2377.82V161.116C2379.17 160.613 2380.85 160.149 2382.86 159.724C2384.91 159.26 2387.17 159.028 2389.65 159.028C2390.11 159.028 2390.65 159.067 2391.27 159.144C2391.89 159.183 2392.51 159.26 2393.13 159.376C2393.75 159.453 2394.35 159.569 2394.93 159.724C2395.51 159.84 2395.97 159.956 2396.32 160.072L2395.1 165.988ZM2408.81 184.954C2410.66 184.954 2412.02 184.741 2412.87 184.316C2413.72 183.852 2414.14 183.079 2414.14 181.996C2414.14 180.991 2413.68 180.159 2412.75 179.502C2411.86 178.845 2410.37 178.129 2408.28 177.356C2407.01 176.892 2405.83 176.409 2404.75 175.906C2403.7 175.365 2402.79 174.746 2402.02 174.05C2401.25 173.354 2400.63 172.523 2400.16 171.556C2399.74 170.551 2399.53 169.333 2399.53 167.902C2399.53 165.118 2400.55 162.933 2402.6 161.348C2404.65 159.724 2407.43 158.912 2410.95 158.912C2412.73 158.912 2414.43 159.086 2416.06 159.434C2417.68 159.743 2418.9 160.053 2419.71 160.362L2418.43 166.046C2417.66 165.698 2416.67 165.389 2415.48 165.118C2414.28 164.809 2412.89 164.654 2411.3 164.654C2409.87 164.654 2408.71 164.905 2407.82 165.408C2406.93 165.872 2406.49 166.607 2406.49 167.612C2406.49 168.115 2406.56 168.559 2406.72 168.946C2406.91 169.333 2407.22 169.7 2407.65 170.048C2408.07 170.357 2408.63 170.686 2409.33 171.034C2410.02 171.343 2410.87 171.672 2411.88 172.02C2413.54 172.639 2414.95 173.257 2416.11 173.876C2417.27 174.456 2418.22 175.133 2418.96 175.906C2419.73 176.641 2420.29 177.491 2420.64 178.458C2420.99 179.425 2421.16 180.585 2421.16 181.938C2421.16 184.838 2420.08 187.042 2417.91 188.55C2415.79 190.019 2412.73 190.754 2408.75 190.754C2406.08 190.754 2403.93 190.522 2402.31 190.058C2400.69 189.633 2399.55 189.285 2398.89 189.014L2400.11 183.156C2401.15 183.581 2402.39 183.987 2403.82 184.374C2405.29 184.761 2406.95 184.954 2408.81 184.954ZM2426.03 174.978C2426.03 172.31 2426.42 169.971 2427.19 167.96C2428.01 165.949 2429.07 164.287 2430.38 162.972C2431.7 161.619 2433.21 160.613 2434.91 159.956C2436.61 159.26 2438.35 158.912 2440.13 158.912C2444.3 158.912 2447.55 160.207 2449.87 162.798C2452.23 165.389 2453.41 169.255 2453.41 174.398C2453.41 174.785 2453.39 175.229 2453.35 175.732C2453.35 176.196 2453.33 176.621 2453.29 177.008H2433.28C2433.48 179.444 2434.33 181.339 2435.84 182.692C2437.38 184.007 2439.61 184.664 2442.51 184.664C2444.21 184.664 2445.75 184.509 2447.15 184.2C2448.58 183.891 2449.7 183.562 2450.51 183.214L2451.44 188.956C2451.05 189.149 2450.51 189.362 2449.81 189.594C2449.16 189.787 2448.38 189.961 2447.49 190.116C2446.64 190.309 2445.72 190.464 2444.71 190.58C2443.7 190.696 2442.68 190.754 2441.64 190.754C2438.97 190.754 2436.65 190.367 2434.68 189.594C2432.7 188.782 2431.08 187.68 2429.8 186.288C2428.53 184.857 2427.58 183.195 2426.96 181.3C2426.34 179.367 2426.03 177.259 2426.03 174.978ZM2446.39 171.846C2446.39 170.879 2446.26 169.971 2445.99 169.12C2445.72 168.231 2445.31 167.477 2444.77 166.858C2444.27 166.201 2443.63 165.698 2442.85 165.35C2442.12 164.963 2441.23 164.77 2440.19 164.77C2439.1 164.77 2438.16 164.983 2437.34 165.408C2436.53 165.795 2435.84 166.317 2435.26 166.974C2434.71 167.631 2434.29 168.385 2433.98 169.236C2433.67 170.087 2433.46 170.957 2433.34 171.846H2446.39Z" fill="#60195E"/>
<path d="M132.75 975.988C132.17 975.795 131.358 975.601 130.314 975.408C129.309 975.176 128.129 975.06 126.776 975.06C126.003 975.06 125.171 975.137 124.282 975.292C123.431 975.447 122.832 975.582 122.484 975.698V1000H115.466V971.116C116.819 970.613 118.501 970.149 120.512 969.724C122.561 969.26 124.823 969.028 127.298 969.028C127.762 969.028 128.303 969.067 128.922 969.144C129.541 969.183 130.159 969.26 130.778 969.376C131.397 969.453 131.996 969.569 132.576 969.724C133.156 969.84 133.62 969.956 133.968 970.072L132.75 975.988ZM166.293 984.804C166.293 987.201 165.945 989.386 165.249 991.358C164.553 993.33 163.567 995.012 162.291 996.404C161.015 997.796 159.468 998.879 157.651 999.652C155.872 1000.43 153.9 1000.81 151.735 1000.81C149.569 1000.81 147.597 1000.43 145.819 999.652C144.04 998.879 142.513 997.796 141.237 996.404C139.961 995.012 138.955 993.33 138.221 991.358C137.525 989.386 137.177 987.201 137.177 984.804C137.177 982.407 137.525 980.241 138.221 978.308C138.955 976.336 139.961 974.654 141.237 973.262C142.551 971.87 144.098 970.807 145.877 970.072C147.655 969.299 149.608 968.912 151.735 968.912C153.861 968.912 155.814 969.299 157.593 970.072C159.41 970.807 160.957 971.87 162.233 973.262C163.509 974.654 164.495 976.336 165.191 978.308C165.925 980.241 166.293 982.407 166.293 984.804ZM159.101 984.804C159.101 981.788 158.443 979.41 157.129 977.67C155.853 975.891 154.055 975.002 151.735 975.002C149.415 975.002 147.597 975.891 146.283 977.67C145.007 979.41 144.369 981.788 144.369 984.804C144.369 987.859 145.007 990.275 146.283 992.054C147.597 993.833 149.415 994.722 151.735 994.722C154.055 994.722 155.853 993.833 157.129 992.054C158.443 990.275 159.101 987.859 159.101 984.804ZM190.996 980.918C190.106 984.321 189.14 987.646 188.096 990.894C187.09 994.103 186.085 997.139 185.08 1000H179.338C178.564 998.221 177.752 996.191 176.902 993.91C176.051 991.629 175.2 989.193 174.35 986.602C173.499 984.011 172.648 981.285 171.798 978.424C170.947 975.563 170.116 972.643 169.304 969.666H176.728C177.076 971.29 177.482 973.049 177.946 974.944C178.41 976.8 178.893 978.714 179.396 980.686C179.898 982.619 180.42 984.514 180.962 986.37C181.503 988.226 182.044 989.927 182.586 991.474C183.166 989.695 183.726 987.859 184.268 985.964C184.848 984.069 185.389 982.175 185.892 980.28C186.394 978.385 186.858 976.549 187.284 974.77C187.748 972.953 188.154 971.251 188.502 969.666H193.896C194.244 971.251 194.63 972.953 195.056 974.77C195.481 976.549 195.926 978.385 196.39 980.28C196.892 982.175 197.414 984.069 197.956 985.964C198.536 987.859 199.116 989.695 199.696 991.474C200.198 989.927 200.72 988.226 201.262 986.37C201.803 984.514 202.325 982.619 202.828 980.686C203.369 978.714 203.872 976.8 204.336 974.944C204.8 973.049 205.206 971.29 205.554 969.666H212.804C211.992 972.643 211.16 975.563 210.31 978.424C209.459 981.285 208.608 984.011 207.758 986.602C206.907 989.193 206.056 991.629 205.206 993.91C204.355 996.191 203.524 998.221 202.712 1000H197.028C196.022 997.139 194.978 994.103 193.896 990.894C192.852 987.646 191.885 984.321 190.996 980.918ZM215.023 980.222H230.625V986.66H215.023V980.222ZM253.734 975.988C253.154 975.795 252.342 975.601 251.298 975.408C250.293 975.176 249.114 975.06 247.76 975.06C246.987 975.06 246.156 975.137 245.266 975.292C244.416 975.447 243.816 975.582 243.468 975.698V1000H236.45V971.116C237.804 970.613 239.486 970.149 241.496 969.724C243.546 969.26 245.808 969.028 248.282 969.028C248.746 969.028 249.288 969.067 249.906 969.144C250.525 969.183 251.144 969.26 251.762 969.376C252.381 969.453 252.98 969.569 253.56 969.724C254.14 969.84 254.604 969.956 254.952 970.072L253.734 975.988ZM258.161 984.978C258.161 982.31 258.548 979.971 259.321 977.96C260.133 975.949 261.196 974.287 262.511 972.972C263.826 971.619 265.334 970.613 267.035 969.956C268.736 969.26 270.476 968.912 272.255 968.912C276.431 968.912 279.679 970.207 281.999 972.798C284.358 975.389 285.537 979.255 285.537 984.398C285.537 984.785 285.518 985.229 285.479 985.732C285.479 986.196 285.46 986.621 285.421 987.008H265.411C265.604 989.444 266.455 991.339 267.963 992.692C269.51 994.007 271.733 994.664 274.633 994.664C276.334 994.664 277.881 994.509 279.273 994.2C280.704 993.891 281.825 993.562 282.637 993.214L283.565 998.956C283.178 999.149 282.637 999.362 281.941 999.594C281.284 999.787 280.51 999.961 279.621 1000.12C278.77 1000.31 277.842 1000.46 276.837 1000.58C275.832 1000.7 274.807 1000.75 273.763 1000.75C271.095 1000.75 268.775 1000.37 266.803 999.594C264.831 998.782 263.207 997.68 261.931 996.288C260.655 994.857 259.708 993.195 259.089 991.3C258.47 989.367 258.161 987.259 258.161 984.978ZM278.519 981.846C278.519 980.879 278.384 979.971 278.113 979.12C277.842 978.231 277.436 977.477 276.895 976.858C276.392 976.201 275.754 975.698 274.981 975.35C274.246 974.963 273.357 974.77 272.313 974.77C271.23 974.77 270.283 974.983 269.471 975.408C268.659 975.795 267.963 976.317 267.383 976.974C266.842 977.631 266.416 978.385 266.107 979.236C265.798 980.087 265.585 980.957 265.469 981.846H278.519ZM300.75 1000C298.816 996.017 296.825 991.455 294.776 986.312C292.765 981.131 290.928 975.582 289.266 969.666H296.748C297.173 971.367 297.656 973.204 298.198 975.176C298.778 977.109 299.377 979.062 299.996 981.034C300.653 982.967 301.31 984.862 301.968 986.718C302.664 988.535 303.302 990.179 303.882 991.648C304.462 990.179 305.08 988.535 305.738 986.718C306.395 984.862 307.033 982.967 307.652 981.034C308.309 979.062 308.928 977.109 309.508 975.176C310.088 973.204 310.59 971.367 311.016 969.666H318.266C316.603 975.582 314.747 981.131 312.698 986.312C310.687 991.455 308.715 996.017 306.782 1000H300.75ZM321.145 984.978C321.145 982.31 321.532 979.971 322.305 977.96C323.117 975.949 324.181 974.287 325.495 972.972C326.81 971.619 328.318 970.613 330.019 969.956C331.721 969.26 333.461 968.912 335.239 968.912C339.415 968.912 342.663 970.207 344.983 972.798C347.342 975.389 348.521 979.255 348.521 984.398C348.521 984.785 348.502 985.229 348.463 985.732C348.463 986.196 348.444 986.621 348.405 987.008H328.395C328.589 989.444 329.439 991.339 330.947 992.692C332.494 994.007 334.717 994.664 337.617 994.664C339.319 994.664 340.865 994.509 342.257 994.2C343.688 993.891 344.809 993.562 345.621 993.214L346.549 998.956C346.163 999.149 345.621 999.362 344.925 999.594C344.268 999.787 343.495 999.961 342.605 1000.12C341.755 1000.31 340.827 1000.46 339.821 1000.58C338.816 1000.7 337.791 1000.75 336.747 1000.75C334.079 1000.75 331.759 1000.37 329.787 999.594C327.815 998.782 326.191 997.68 324.915 996.288C323.639 994.857 322.692 993.195 322.073 991.3C321.455 989.367 321.145 987.259 321.145 984.978ZM341.503 981.846C341.503 980.879 341.368 979.971 341.097 979.12C340.827 978.231 340.421 977.477 339.879 976.858C339.377 976.201 338.739 975.698 337.965 975.35C337.231 974.963 336.341 974.77 335.297 974.77C334.215 974.77 333.267 974.983 332.455 975.408C331.643 975.795 330.947 976.317 330.367 976.974C329.826 977.631 329.401 978.385 329.091 979.236C328.782 980.087 328.569 980.957 328.453 981.846H341.503ZM373.246 975.988C372.666 975.795 371.854 975.601 370.81 975.408C369.805 975.176 368.625 975.06 367.272 975.06C366.499 975.06 365.667 975.137 364.778 975.292C363.927 975.447 363.328 975.582 362.98 975.698V1000H355.962V971.116C357.315 970.613 358.997 970.149 361.008 969.724C363.057 969.26 365.319 969.028 367.794 969.028C368.258 969.028 368.799 969.067 369.418 969.144C370.037 969.183 370.655 969.26 371.274 969.376C371.893 969.453 372.492 969.569 373.072 969.724C373.652 969.84 374.116 969.956 374.464 970.072L373.246 975.988ZM386.953 994.954C388.809 994.954 390.162 994.741 391.013 994.316C391.863 993.852 392.289 993.079 392.289 991.996C392.289 990.991 391.825 990.159 390.897 989.502C390.007 988.845 388.519 988.129 386.431 987.356C385.155 986.892 383.975 986.409 382.893 985.906C381.849 985.365 380.94 984.746 380.167 984.05C379.393 983.354 378.775 982.523 378.311 981.556C377.885 980.551 377.673 979.333 377.673 977.902C377.673 975.118 378.697 972.933 380.747 971.348C382.796 969.724 385.58 968.912 389.099 968.912C390.877 968.912 392.579 969.086 394.203 969.434C395.827 969.743 397.045 970.053 397.857 970.362L396.581 976.046C395.807 975.698 394.821 975.389 393.623 975.118C392.424 974.809 391.032 974.654 389.447 974.654C388.016 974.654 386.856 974.905 385.967 975.408C385.077 975.872 384.633 976.607 384.633 977.612C384.633 978.115 384.71 978.559 384.865 978.946C385.058 979.333 385.367 979.7 385.793 980.048C386.218 980.357 386.779 980.686 387.475 981.034C388.171 981.343 389.021 981.672 390.027 982.02C391.689 982.639 393.101 983.257 394.261 983.876C395.421 984.456 396.368 985.133 397.103 985.906C397.876 986.641 398.437 987.491 398.785 988.458C399.133 989.425 399.307 990.585 399.307 991.938C399.307 994.838 398.224 997.042 396.059 998.55C393.932 1000.02 390.877 1000.75 386.895 1000.75C384.227 1000.75 382.081 1000.52 380.457 1000.06C378.833 999.633 377.692 999.285 377.035 999.014L378.253 993.156C379.297 993.581 380.534 993.987 381.965 994.374C383.434 994.761 385.097 994.954 386.953 994.954ZM404.18 984.978C404.18 982.31 404.567 979.971 405.34 977.96C406.152 975.949 407.216 974.287 408.53 972.972C409.845 971.619 411.353 970.613 413.054 969.956C414.756 969.26 416.496 968.912 418.274 968.912C422.45 968.912 425.698 970.207 428.018 972.798C430.377 975.389 431.556 979.255 431.556 984.398C431.556 984.785 431.537 985.229 431.498 985.732C431.498 986.196 431.479 986.621 431.44 987.008H411.43C411.624 989.444 412.474 991.339 413.982 992.692C415.529 994.007 417.752 994.664 420.652 994.664C422.354 994.664 423.9 994.509 425.292 994.2C426.723 993.891 427.844 993.562 428.656 993.214L429.584 998.956C429.198 999.149 428.656 999.362 427.96 999.594C427.303 999.787 426.53 999.961 425.64 1000.12C424.79 1000.31 423.862 1000.46 422.856 1000.58C421.851 1000.7 420.826 1000.75 419.782 1000.75C417.114 1000.75 414.794 1000.37 412.822 999.594C410.85 998.782 409.226 997.68 407.95 996.288C406.674 994.857 405.727 993.195 405.108 991.3C404.49 989.367 404.18 987.259 404.18 984.978ZM424.538 981.846C424.538 980.879 424.403 979.971 424.132 979.12C423.862 978.231 423.456 977.477 422.914 976.858C422.412 976.201 421.774 975.698 421 975.35C420.266 974.963 419.376 974.77 418.332 974.77C417.25 974.77 416.302 974.983 415.49 975.408C414.678 975.795 413.982 976.317 413.402 976.974C412.861 977.631 412.436 978.385 412.126 979.236C411.817 980.087 411.604 980.957 411.488 981.846H424.538Z" fill="#60195E"/>
<line x1="111" y1="233.5" x2="1232" y2="233.5" stroke="#60195E" stroke-width="13"/>
<line x1="111" y1="233.5" x2="1232" y2="233.5" stroke="black" stroke-opacity="0.2" stroke-width="13"/>
</svg>
