<svg width="2419" height="1227" viewBox="0 0 2419 1227" fill="none" xmlns="http://www.w3.org/2000/svg">
<g clip-path="url(#clip0_20_349)">
<path d="M1328 306.5H2399C2408.66 306.5 2416.5 314.335 2416.5 324V503.963C2416.5 513.628 2408.66 521.463 2399 521.463H1328C1318.34 521.463 1310.5 513.628 1310.5 503.963V324C1310.5 314.335 1318.34 306.5 1328 306.5Z" fill="#C4C4C4" stroke="#C4C4C4" stroke-width="5"/>
<path d="M2271 327.5H2373C2382.66 327.5 2390.5 335.335 2390.5 345V481C2390.5 490.665 2382.66 498.5 2373 498.5H2271C2261.34 498.5 2253.5 490.665 2253.5 481V345C2253.5 335.335 2261.34 327.5 2271 327.5Z" fill="#E6E6E6" stroke="#60195E" stroke-width="5"/>
<path d="M2118 328.5H2220C2229.66 328.5 2237.5 336.335 2237.5 346V482C2237.5 491.665 2229.66 499.5 2220 499.5H2118C2108.34 499.5 2100.5 491.665 2100.5 482V346C2100.5 336.335 2108.34 328.5 2118 328.5Z" fill="#E6E6E6" stroke="#60195E" stroke-width="5"/>
<path d="M1965 328.5H2067C2076.66 328.5 2084.5 336.335 2084.5 346V481C2084.5 490.665 2076.66 498.5 2067 498.5H1965C1955.34 498.5 1947.5 490.665 1947.5 481V346C1947.5 336.335 1955.34 328.5 1965 328.5Z" fill="#E6E6E6" stroke="#60195E" stroke-width="5"/>
<path d="M1507 328.5H1609C1618.66 328.5 1626.5 336.335 1626.5 346V482C1626.5 491.665 1618.66 499.5 1609 499.5H1507C1497.34 499.5 1489.5 491.665 1489.5 482V346C1489.5 336.335 1497.34 328.5 1507 328.5Z" fill="#E6E6E6" stroke="#60195E" stroke-width="5"/>
<path d="M1813 328.5H1914C1923.66 328.5 1931.5 336.335 1931.5 346V482C1931.5 491.665 1923.66 499.5 1914 499.5H1813C1803.34 499.5 1795.5 491.665 1795.5 482V346C1795.5 336.335 1803.34 328.5 1813 328.5Z" fill="#E6E6E6" stroke="#60195E" stroke-width="5"/>
<path d="M1660 328.5H1762C1771.66 328.5 1779.5 336.335 1779.5 346V481C1779.5 490.665 1771.66 498.5 1762 498.5H1660C1650.34 498.5 1642.5 490.665 1642.5 481V346C1642.5 336.335 1650.34 328.5 1660 328.5Z" fill="#E6E6E6" stroke="#60195E" stroke-width="5"/>
<path d="M1354 328.5H1456C1465.66 328.5 1473.5 336.335 1473.5 346V482C1473.5 491.665 1465.66 499.5 1456 499.5H1354C1344.34 499.5 1336.5 491.665 1336.5 482V346C1336.5 336.335 1344.34 328.5 1354 328.5Z" fill="#E6E6E6" stroke="#60195E" stroke-width="5"/>
<path d="M1411.07 436H1405.44V398.673L1394.15 402.82V397.734L1410.19 391.71H1411.07V436Z" fill="#60195E"/>
<path d="M1571.54 436H1542.66V431.974L1557.92 415.021C1560.18 412.457 1561.74 410.379 1562.58 408.784C1563.45 407.17 1563.88 405.505 1563.88 403.789C1563.88 401.488 1563.19 399.601 1561.8 398.128C1560.4 396.655 1558.55 395.918 1556.23 395.918C1553.44 395.918 1551.27 396.715 1549.72 398.31C1548.18 399.884 1547.42 402.084 1547.42 404.909H1541.82C1541.82 400.853 1543.12 397.573 1545.72 395.07C1548.34 392.568 1551.85 391.316 1556.23 391.316C1560.32 391.316 1563.56 392.396 1565.94 394.556C1568.32 396.695 1569.52 399.551 1569.52 403.123C1569.52 407.462 1566.75 412.629 1561.22 418.623L1549.41 431.429H1571.54V436Z" fill="#60195E"/>
<path d="M1703.81 411.236H1708.01C1710.66 411.196 1712.74 410.5 1714.25 409.147C1715.76 407.795 1716.52 405.969 1716.52 403.668C1716.52 398.501 1713.95 395.918 1708.8 395.918C1706.38 395.918 1704.44 396.614 1702.99 398.007C1701.56 399.379 1700.84 401.206 1700.84 403.486H1695.24C1695.24 399.995 1696.51 397.099 1699.05 394.798C1701.62 392.477 1704.87 391.316 1708.8 391.316C1712.96 391.316 1716.22 392.416 1718.58 394.616C1720.94 396.816 1722.12 399.874 1722.12 403.789C1722.12 405.706 1721.5 407.563 1720.25 409.359C1719.01 411.156 1717.33 412.498 1715.19 413.386C1717.61 414.153 1719.48 415.424 1720.79 417.2C1722.12 418.976 1722.79 421.146 1722.79 423.709C1722.79 427.665 1721.5 430.803 1718.91 433.124C1716.33 435.445 1712.97 436.605 1708.83 436.605C1704.69 436.605 1701.32 435.485 1698.72 433.245C1696.14 431.005 1694.85 428.048 1694.85 424.375H1700.48C1700.48 426.696 1701.23 428.553 1702.75 429.945C1704.26 431.338 1706.29 432.034 1708.83 432.034C1711.54 432.034 1713.61 431.328 1715.04 429.915C1716.47 428.502 1717.19 426.474 1717.19 423.83C1717.19 421.267 1716.4 419.299 1714.83 417.927C1713.25 416.554 1710.98 415.848 1708.01 415.808H1703.81V411.236Z" fill="#60195E"/>
<path d="M1876.31 421.196H1882.42V425.768H1876.31V436H1870.68V425.768H1850.6V422.468L1870.34 391.922H1876.31V421.196ZM1856.96 421.196H1870.68V399.581L1870.01 400.792L1856.96 421.196Z" fill="#60195E"/>
<path d="M2003.24 413.9L2005.48 391.922H2028.06V397.099H2010.23L2008.9 409.117C2011.06 407.846 2013.51 407.21 2016.25 407.21C2020.27 407.21 2023.46 408.542 2025.82 411.206C2028.18 413.85 2029.36 417.432 2029.36 421.953C2029.36 426.494 2028.13 430.076 2025.67 432.7C2023.23 435.304 2019.81 436.605 2015.41 436.605C2011.51 436.605 2008.33 435.526 2005.87 433.366C2003.41 431.207 2002.01 428.22 2001.66 424.405H2006.96C2007.3 426.928 2008.2 428.835 2009.65 430.127C2011.11 431.398 2013.02 432.034 2015.41 432.034C2018.01 432.034 2020.05 431.146 2021.52 429.37C2023.01 427.594 2023.76 425.142 2023.76 422.014C2023.76 419.067 2022.95 416.706 2021.34 414.93C2019.75 413.133 2017.62 412.235 2014.95 412.235C2012.51 412.235 2010.59 412.77 2009.2 413.84L2007.72 415.051L2003.24 413.9Z" fill="#60195E"/>
<path d="M2175.64 391.892V396.645H2174.61C2170.25 396.725 2166.78 398.017 2164.2 400.52C2161.61 403.022 2160.12 406.544 2159.72 411.085C2162.04 408.421 2165.21 407.089 2169.22 407.089C2173.06 407.089 2176.12 408.441 2178.4 411.146C2180.7 413.85 2181.85 417.341 2181.85 421.62C2181.85 426.161 2180.61 429.794 2178.12 432.519C2175.66 435.243 2172.35 436.605 2168.19 436.605C2163.98 436.605 2160.56 434.991 2157.93 431.762C2155.31 428.512 2154 424.335 2154 419.229V417.079C2154 408.966 2155.72 402.77 2159.17 398.491C2162.64 394.192 2167.8 391.993 2174.64 391.892H2175.64ZM2168.29 411.751C2166.37 411.751 2164.6 412.326 2162.99 413.477C2161.37 414.627 2160.25 416.07 2159.63 417.806V419.864C2159.63 423.497 2160.44 426.424 2162.08 428.644C2163.71 430.864 2165.75 431.974 2168.19 431.974C2170.72 431.974 2172.69 431.045 2174.13 429.188C2175.58 427.332 2176.31 424.9 2176.31 421.893C2176.31 418.865 2175.57 416.423 2174.1 414.566C2172.64 412.689 2170.71 411.751 2168.29 411.751Z" fill="#60195E"/>
<path d="M2335.12 395.07L2316.87 436H2310.99L2329.19 396.523H2305.33V391.922H2335.12V395.07Z" fill="#60195E"/>
<path d="M17 710.5H1088C1097.67 710.5 1105.5 718.335 1105.5 728V1105C1105.5 1114.66 1097.67 1122.5 1088 1122.5H17C7.33501 1122.5 -0.5 1114.66 -0.5 1105V728C-0.5 718.335 7.33502 710.5 17 710.5Z" fill="#C4C4C4" stroke="#C4C4C4" stroke-width="5"/>
<path d="M922.95 732.869H1061.9C1071.57 732.869 1079.4 740.704 1079.4 750.369V885.594C1079.4 895.259 1071.57 903.094 1061.9 903.094H922.95C913.285 903.094 905.45 895.259 905.45 885.594V750.369C905.45 740.704 913.285 732.869 922.95 732.869Z" fill="#E6E6E6" stroke="#60195E" stroke-width="5"/>
<path d="M702.987 732.869H841.94C851.605 732.869 859.44 740.704 859.44 750.369V885.594C859.44 895.259 851.605 903.094 841.94 903.094H702.987C693.322 903.094 685.487 895.259 685.487 885.594V750.369C685.487 740.704 693.322 732.869 702.987 732.869Z" fill="#E6E6E6" stroke="#60195E" stroke-width="5"/>
<path d="M262.963 930.5H401.916C411.581 930.5 419.416 938.335 419.416 948V1083.22C419.416 1092.89 411.581 1100.72 401.916 1100.72H262.963C253.298 1100.72 245.463 1092.89 245.463 1083.22V948C245.463 938.335 253.298 930.5 262.963 930.5Z" fill="#E6E6E6" stroke="#60195E" stroke-width="5"/>
<path d="M43 930.5H181.953C191.618 930.5 199.453 938.335 199.453 948V1083.22C199.453 1092.89 191.618 1100.72 181.953 1100.72H43C33.335 1100.72 25.5 1092.89 25.5 1083.22V948C25.5 938.335 33.335 930.5 43 930.5Z" fill="#E6E6E6" stroke="#60195E" stroke-width="5"/>
<path d="M263.06 732.869H402.013C411.678 732.869 419.513 740.704 419.513 750.369V885.594C419.513 895.259 411.678 903.094 402.013 903.094H263.06C253.395 903.094 245.56 895.259 245.56 885.594V750.369C245.56 740.704 253.395 732.869 263.06 732.869Z" fill="#E6E6E6" stroke="#60195E" stroke-width="5"/>
<path d="M483.023 732.869H621.976C631.641 732.869 639.476 740.704 639.476 750.369V885.594C639.476 895.259 631.641 903.094 621.976 903.094H483.023C473.358 903.094 465.523 895.259 465.523 885.594V750.369C465.523 740.704 473.358 732.869 483.023 732.869Z" fill="#E6E6E6" stroke="#60195E" stroke-width="5"/>
<path d="M43.0972 732.869H182.05C191.715 732.869 199.55 740.704 199.55 750.369V885.594C199.55 895.259 191.715 903.094 182.05 903.094H43.0972C33.4322 903.094 25.5972 895.259 25.5972 885.594V750.369C25.5972 740.704 33.4322 732.869 43.0972 732.869Z" fill="#E6E6E6" stroke="#60195E" stroke-width="5"/>
<path d="M116.069 843H110.438V805.673L99.1465 809.82V804.734L115.191 798.71H116.069V843Z" fill="#60195E"/>
<path d="M346.544 843H317.663V838.974L332.921 822.021C335.181 819.457 336.735 817.379 337.583 815.784C338.451 814.17 338.885 812.505 338.885 810.789C338.885 808.488 338.188 806.601 336.796 805.128C335.403 803.655 333.547 802.918 331.226 802.918C328.44 802.918 326.271 803.715 324.717 805.31C323.183 806.884 322.416 809.084 322.416 811.909H316.815C316.815 807.853 318.117 804.573 320.721 802.07C323.344 799.568 326.846 798.316 331.226 798.316C335.323 798.316 338.562 799.396 340.943 801.556C343.325 803.695 344.516 806.551 344.516 810.123C344.516 814.462 341.751 819.629 336.221 825.623L324.414 838.429H346.544V843Z" fill="#60195E"/>
<path d="M544.807 818.236H549.015C551.659 818.196 553.737 817.5 555.251 816.147C556.765 814.795 557.521 812.969 557.521 810.668C557.521 805.501 554.948 802.918 549.802 802.918C547.38 802.918 545.442 803.614 543.989 805.007C542.556 806.379 541.84 808.206 541.84 810.486H536.239C536.239 806.995 537.511 804.099 540.054 801.798C542.617 799.477 545.866 798.316 549.802 798.316C553.959 798.316 557.219 799.416 559.58 801.616C561.941 803.816 563.122 806.874 563.122 810.789C563.122 812.706 562.496 814.563 561.245 816.359C560.014 818.156 558.329 819.498 556.189 820.386C558.611 821.153 560.478 822.424 561.79 824.2C563.122 825.976 563.788 828.146 563.788 830.709C563.788 834.665 562.496 837.803 559.913 840.124C557.33 842.445 553.969 843.605 549.832 843.605C545.695 843.605 542.324 842.485 539.721 840.245C537.137 838.005 535.846 835.048 535.846 831.375H541.477C541.477 833.696 542.233 835.553 543.747 836.945C545.261 838.338 547.289 839.034 549.832 839.034C552.536 839.034 554.605 838.328 556.038 836.915C557.471 835.502 558.188 833.474 558.188 830.83C558.188 828.267 557.4 826.299 555.826 824.927C554.252 823.554 551.981 822.848 549.015 822.808H544.807V818.236Z" fill="#60195E"/>
<path d="M780.307 828.196H786.422V832.768H780.307V843H774.676V832.768H754.604V829.468L774.343 798.922H780.307V828.196ZM760.962 828.196H774.676V806.581L774.01 807.792L760.962 828.196Z" fill="#60195E"/>
<path d="M979.236 824.9L981.477 802.922H1004.06V808.099H986.229L984.897 820.117C987.057 818.846 989.509 818.21 992.254 818.21C996.27 818.21 999.459 819.542 1001.82 822.206C1004.18 824.85 1005.36 828.432 1005.36 832.953C1005.36 837.494 1004.13 841.076 1001.67 843.7C999.227 846.304 995.806 847.605 991.406 847.605C987.511 847.605 984.332 846.526 981.87 844.366C979.408 842.207 978.005 839.22 977.662 835.405H982.96C983.303 837.928 984.201 839.835 985.654 841.127C987.107 842.398 989.025 843.034 991.406 843.034C994.01 843.034 996.048 842.146 997.521 840.37C999.015 838.594 999.762 836.142 999.762 833.014C999.762 830.067 998.954 827.706 997.34 825.93C995.745 824.133 993.616 823.235 990.952 823.235C988.51 823.235 986.593 823.77 985.2 824.84L983.717 826.051L979.236 824.9Z" fill="#60195E"/>
<path d="M118.642 996.892V1001.64H117.612C113.253 1001.73 109.782 1003.02 107.198 1005.52C104.615 1008.02 103.121 1011.54 102.718 1016.08C105.039 1013.42 108.207 1012.09 112.224 1012.09C116.058 1012.09 119.116 1013.44 121.396 1016.15C123.697 1018.85 124.848 1022.34 124.848 1026.62C124.848 1031.16 123.606 1034.79 121.124 1037.52C118.662 1040.24 115.352 1041.61 111.194 1041.61C106.976 1041.61 103.555 1039.99 100.932 1036.76C98.3079 1033.51 96.9961 1029.33 96.9961 1024.23V1022.08C96.9961 1013.97 98.7217 1007.77 102.173 1003.49C105.644 999.192 110.801 996.993 117.643 996.892H118.642ZM111.285 1016.75C109.368 1016.75 107.602 1017.33 105.987 1018.48C104.373 1019.63 103.253 1021.07 102.627 1022.81V1024.86C102.627 1028.5 103.444 1031.42 105.079 1033.64C106.714 1035.86 108.752 1036.97 111.194 1036.97C113.717 1036.97 115.695 1036.05 117.128 1034.19C118.581 1032.33 119.308 1029.9 119.308 1026.89C119.308 1023.87 118.571 1021.42 117.098 1019.57C115.645 1017.69 113.707 1016.75 111.285 1016.75Z" fill="#60195E"/>
<path d="M346.12 1000.07L327.865 1041H321.992L340.187 1001.52H316.331V996.922H346.12V1000.07Z" fill="#60195E"/>
<path d="M1328 710.5H2399C2408.67 710.5 2416.5 718.335 2416.5 728V1105C2416.5 1114.66 2408.67 1122.5 2399 1122.5H1328C1318.34 1122.5 1310.5 1114.66 1310.5 1105V728C1310.5 718.335 1318.34 710.5 1328 710.5Z" fill="#C4C4C4" stroke="#C4C4C4" stroke-width="5"/>
<path d="M2233.93 930.5H2372.88C2382.54 930.5 2390.38 938.335 2390.38 948V1083.22C2390.38 1092.89 2382.54 1100.72 2372.88 1100.72H2233.93C2224.26 1100.72 2216.43 1092.89 2216.43 1083.22V948C2216.43 938.335 2224.26 930.5 2233.93 930.5Z" fill="#E6E6E6" stroke="#60195E" stroke-width="5"/>
<path d="M2013.96 930.5H2152.92C2162.58 930.5 2170.42 938.335 2170.42 948V1083.22C2170.42 1092.89 2162.58 1100.72 2152.92 1100.72H2013.96C2004.3 1100.72 1996.46 1092.89 1996.46 1083.22V948C1996.46 938.335 2004.3 930.5 2013.96 930.5Z" fill="#E6E6E6" stroke="#60195E" stroke-width="5"/>
<path d="M1573.96 930.5H1712.92C1722.58 930.5 1730.42 938.335 1730.42 948V1083.22C1730.42 1092.89 1722.58 1100.72 1712.92 1100.72H1573.96C1564.3 1100.72 1556.46 1092.89 1556.46 1083.22V948C1556.46 938.335 1564.3 930.5 1573.96 930.5Z" fill="#E6E6E6" stroke="#60195E" stroke-width="5"/>
<path d="M1354 930.5H1492.95C1502.62 930.5 1510.45 938.335 1510.45 948V1083.22C1510.45 1092.89 1502.62 1100.72 1492.95 1100.72H1354C1344.34 1100.72 1336.5 1092.89 1336.5 1083.22V948C1336.5 938.335 1344.34 930.5 1354 930.5Z" fill="#E6E6E6" stroke="#60195E" stroke-width="5"/>
<path d="M1574.06 732.869H1713.01C1722.68 732.869 1730.51 740.704 1730.51 750.369V885.594C1730.51 895.259 1722.68 903.094 1713.01 903.094H1574.06C1564.4 903.094 1556.56 895.259 1556.56 885.594V750.369C1556.56 740.704 1564.4 732.869 1574.06 732.869Z" fill="#E6E6E6" stroke="#60195E" stroke-width="5"/>
<path d="M1794 930.5H1932.95C1942.62 930.5 1950.45 938.335 1950.45 948V1083.22C1950.45 1092.89 1942.62 1100.72 1932.95 1100.72H1794C1784.34 1100.72 1776.5 1092.89 1776.5 1083.22V948C1776.5 938.335 1784.34 930.5 1794 930.5Z" fill="#E6E6E6" stroke="#60195E" stroke-width="5"/>
<path d="M1354.1 732.869H1493.05C1502.72 732.869 1510.55 740.704 1510.55 750.369V885.594C1510.55 895.259 1502.72 903.094 1493.05 903.094H1354.1C1344.43 903.094 1336.6 895.259 1336.6 885.594V750.369C1336.6 740.704 1344.43 732.869 1354.1 732.869Z" fill="#E6E6E6" stroke="#60195E" stroke-width="5"/>
<path d="M1428.64 794.892V799.645H1427.61C1423.25 799.725 1419.78 801.017 1417.2 803.52C1414.61 806.022 1413.12 809.544 1412.72 814.085C1415.04 811.421 1418.21 810.089 1422.22 810.089C1426.06 810.089 1429.12 811.441 1431.4 814.146C1433.7 816.85 1434.85 820.341 1434.85 824.62C1434.85 829.161 1433.61 832.794 1431.12 835.519C1428.66 838.243 1425.35 839.605 1421.19 839.605C1416.98 839.605 1413.56 837.991 1410.93 834.762C1408.31 831.512 1407 827.335 1407 822.229V820.079C1407 811.966 1408.72 805.77 1412.17 801.491C1415.64 797.192 1420.8 794.993 1427.64 794.892H1428.64ZM1421.29 814.751C1419.37 814.751 1417.6 815.326 1415.99 816.477C1414.37 817.627 1413.25 819.07 1412.63 820.806V822.864C1412.63 826.497 1413.44 829.424 1415.08 831.644C1416.71 833.864 1418.75 834.974 1421.19 834.974C1423.72 834.974 1425.69 834.045 1427.13 832.188C1428.58 830.332 1429.31 827.9 1429.31 824.893C1429.31 821.865 1428.57 819.423 1427.1 817.566C1425.64 815.689 1423.71 814.751 1421.29 814.751Z" fill="#60195E"/>
<path d="M1656.12 798.07L1637.87 839H1631.99L1650.19 799.523H1626.33V794.922H1656.12V798.07Z" fill="#60195E"/>
<path d="M1426.07 1039H1420.44V1001.67L1409.15 1005.82V1000.73L1425.19 994.71H1426.07V1039Z" fill="#60195E"/>
<path d="M1656.54 1039H1627.66V1034.97L1642.92 1018.02C1645.18 1015.46 1646.74 1013.38 1647.58 1011.78C1648.45 1010.17 1648.88 1008.5 1648.88 1006.79C1648.88 1004.49 1648.19 1002.6 1646.8 1001.13C1645.4 999.655 1643.55 998.918 1641.23 998.918C1638.44 998.918 1636.27 999.715 1634.72 1001.31C1633.18 1002.88 1632.42 1005.08 1632.42 1007.91H1626.82C1626.82 1003.85 1628.12 1000.57 1630.72 998.07C1633.34 995.568 1636.85 994.316 1641.23 994.316C1645.32 994.316 1648.56 995.396 1650.94 997.556C1653.32 999.695 1654.52 1002.55 1654.52 1006.12C1654.52 1010.46 1651.75 1015.63 1646.22 1021.62L1634.41 1034.43H1656.54V1039Z" fill="#60195E"/>
<path d="M1854.81 1014.24H1859.01C1861.66 1014.2 1863.74 1013.5 1865.25 1012.15C1866.76 1010.8 1867.52 1008.97 1867.52 1006.67C1867.52 1001.5 1864.95 998.918 1859.8 998.918C1857.38 998.918 1855.44 999.614 1853.99 1001.01C1852.56 1002.38 1851.84 1004.21 1851.84 1006.49H1846.24C1846.24 1002.99 1847.51 1000.1 1850.05 997.798C1852.62 995.477 1855.87 994.316 1859.8 994.316C1863.96 994.316 1867.22 995.416 1869.58 997.616C1871.94 999.816 1873.12 1002.87 1873.12 1006.79C1873.12 1008.71 1872.5 1010.56 1871.25 1012.36C1870.01 1014.16 1868.33 1015.5 1866.19 1016.39C1868.61 1017.15 1870.48 1018.42 1871.79 1020.2C1873.12 1021.98 1873.79 1024.15 1873.79 1026.71C1873.79 1030.66 1872.5 1033.8 1869.91 1036.12C1867.33 1038.44 1863.97 1039.61 1859.83 1039.61C1855.69 1039.61 1852.32 1038.49 1849.72 1036.25C1847.14 1034 1845.85 1031.05 1845.85 1027.38H1851.48C1851.48 1029.7 1852.23 1031.55 1853.75 1032.95C1855.26 1034.34 1857.29 1035.03 1859.83 1035.03C1862.54 1035.03 1864.61 1034.33 1866.04 1032.92C1867.47 1031.5 1868.19 1029.47 1868.19 1026.83C1868.19 1024.27 1867.4 1022.3 1865.83 1020.93C1864.25 1019.55 1861.98 1018.85 1859.01 1018.81H1854.81V1014.24Z" fill="#60195E"/>
<path d="M2090.31 1024.2H2096.42V1028.77H2090.31V1039H2084.68V1028.77H2064.6V1025.47L2084.34 994.922H2090.31V1024.2ZM2070.96 1024.2H2084.68V1002.58L2084.01 1003.79L2070.96 1024.2Z" fill="#60195E"/>
<path d="M2289.24 1020.9L2291.48 998.922H2314.06V1004.1H2296.23L2294.9 1016.12C2297.06 1014.85 2299.51 1014.21 2302.25 1014.21C2306.27 1014.21 2309.46 1015.54 2311.82 1018.21C2314.18 1020.85 2315.36 1024.43 2315.36 1028.95C2315.36 1033.49 2314.13 1037.08 2311.67 1039.7C2309.23 1042.3 2305.81 1043.61 2301.41 1043.61C2297.51 1043.61 2294.33 1042.53 2291.87 1040.37C2289.41 1038.21 2288.01 1035.22 2287.66 1031.41H2292.96C2293.3 1033.93 2294.2 1035.84 2295.65 1037.13C2297.11 1038.4 2299.02 1039.03 2301.41 1039.03C2304.01 1039.03 2306.05 1038.15 2307.52 1036.37C2309.01 1034.59 2309.76 1032.14 2309.76 1029.01C2309.76 1026.07 2308.95 1023.71 2307.34 1021.93C2305.75 1020.13 2303.62 1019.24 2300.95 1019.24C2298.51 1019.24 2296.59 1019.77 2295.2 1020.84L2293.72 1022.05L2289.24 1020.9Z" fill="#60195E"/>
<path d="M38.122 167.758C36.6193 173.507 34.986 179.126 33.222 184.614C31.5233 190.037 29.8247 195.165 28.126 200H18.424C17.1173 196.995 15.7453 193.565 14.308 189.71C12.8707 185.855 11.4333 181.739 9.996 177.362C8.55867 172.985 7.12133 168.379 5.684 163.544C4.24667 158.709 2.842 153.777 1.47 148.746H14.014C14.602 151.49 15.288 154.463 16.072 157.664C16.856 160.8 17.6727 164.034 18.522 167.366C19.3713 170.633 20.2533 173.834 21.168 176.97C22.0827 180.106 22.9973 182.981 23.912 185.594C24.892 182.589 25.8393 179.485 26.754 176.284C27.734 173.083 28.6487 169.881 29.498 166.68C30.3473 163.479 31.1313 160.375 31.85 157.37C32.634 154.299 33.32 151.425 33.908 148.746H43.022C43.61 151.425 44.2633 154.299 44.982 157.37C45.7007 160.375 46.452 163.479 47.236 166.68C48.0853 169.881 48.9673 173.083 49.882 176.284C50.862 179.485 51.842 182.589 52.822 185.594C53.6713 182.981 54.5533 180.106 55.468 176.97C56.3827 173.834 57.2647 170.633 58.114 167.366C59.0287 164.034 59.878 160.8 60.662 157.664C61.446 154.463 62.132 151.49 62.72 148.746H74.97C73.598 153.777 72.1933 158.709 70.756 163.544C69.3187 168.379 67.8813 172.985 66.444 177.362C65.0067 181.739 63.5693 185.855 62.132 189.71C60.6947 193.565 59.29 196.995 57.918 200H48.314C46.6153 195.165 44.8513 190.037 43.022 184.614C41.258 179.126 39.6247 173.507 38.122 167.758ZM113.217 159.428C112.237 159.101 110.865 158.775 109.101 158.448C107.402 158.056 105.409 157.86 103.123 157.86C101.816 157.86 100.411 157.991 98.9088 158.252C97.4715 158.513 96.4588 158.742 95.8708 158.938V200H84.0128V151.196C86.2995 150.347 89.1415 149.563 92.5388 148.844C96.0015 148.06 99.8235 147.668 104.005 147.668C104.789 147.668 105.703 147.733 106.749 147.864C107.794 147.929 108.839 148.06 109.885 148.256C110.93 148.387 111.943 148.583 112.923 148.844C113.903 149.04 114.687 149.236 115.275 149.432L113.217 159.428ZM141.57 191.67C145.229 191.67 148.006 191.474 149.9 191.082V177.95C149.247 177.754 148.3 177.558 147.058 177.362C145.817 177.166 144.445 177.068 142.942 177.068C141.636 177.068 140.296 177.166 138.924 177.362C137.618 177.558 136.409 177.917 135.298 178.44C134.253 178.963 133.404 179.714 132.75 180.694C132.097 181.609 131.77 182.785 131.77 184.222C131.77 187.031 132.652 188.991 134.416 190.102C136.18 191.147 138.565 191.67 141.57 191.67ZM140.59 147.472C144.51 147.472 147.81 147.962 150.488 148.942C153.167 149.922 155.29 151.294 156.858 153.058C158.492 154.822 159.635 156.978 160.288 159.526C161.007 162.009 161.366 164.753 161.366 167.758V198.824C159.537 199.216 156.76 199.673 153.036 200.196C149.378 200.784 145.229 201.078 140.59 201.078C137.52 201.078 134.71 200.784 132.162 200.196C129.614 199.608 127.426 198.661 125.596 197.354C123.832 196.047 122.428 194.349 121.382 192.258C120.402 190.167 119.912 187.587 119.912 184.516C119.912 181.576 120.468 179.093 121.578 177.068C122.754 175.043 124.322 173.409 126.282 172.168C128.242 170.861 130.496 169.947 133.044 169.424C135.658 168.836 138.369 168.542 141.178 168.542C142.485 168.542 143.857 168.64 145.294 168.836C146.732 168.967 148.267 169.228 149.9 169.62V167.66C149.9 166.288 149.737 164.981 149.41 163.74C149.084 162.499 148.496 161.421 147.646 160.506C146.862 159.526 145.784 158.775 144.412 158.252C143.106 157.729 141.44 157.468 139.414 157.468C136.67 157.468 134.155 157.664 131.868 158.056C129.582 158.448 127.72 158.905 126.282 159.428L124.812 149.824C126.315 149.301 128.504 148.779 131.378 148.256C134.253 147.733 137.324 147.472 140.59 147.472ZM209.894 174.618C209.894 169.326 208.685 165.21 206.268 162.27C203.916 159.33 200.094 157.86 194.802 157.86C193.691 157.86 192.515 157.925 191.274 158.056C190.098 158.121 188.922 158.317 187.746 158.644V187.946C188.791 188.665 190.163 189.351 191.862 190.004C193.626 190.592 195.488 190.886 197.448 190.886C201.76 190.886 204.896 189.416 206.856 186.476C208.881 183.536 209.894 179.583 209.894 174.618ZM222.046 174.422C222.046 178.342 221.523 181.935 220.478 185.202C219.498 188.469 218.06 191.278 216.166 193.63C214.271 195.982 211.886 197.811 209.012 199.118C206.202 200.425 203.001 201.078 199.408 201.078C196.99 201.078 194.769 200.784 192.744 200.196C190.718 199.608 189.052 198.955 187.746 198.236V218.13H175.888V150.412C178.305 149.759 181.278 149.138 184.806 148.55C188.334 147.962 192.058 147.668 195.978 147.668C200.028 147.668 203.654 148.289 206.856 149.53C210.057 150.771 212.768 152.568 214.99 154.92C217.276 157.207 219.008 160.016 220.184 163.348C221.425 166.615 222.046 170.306 222.046 174.422Z" fill="#60195E"/>
<path d="M1.544 269.696L9.288 268.416V278.528H21.192V284.992H9.288V298.624C9.288 301.312 9.71467 303.232 10.568 304.384C11.4213 305.536 12.872 306.112 14.92 306.112C16.328 306.112 17.5653 305.963 18.632 305.664C19.7413 305.365 20.616 305.088 21.256 304.832L22.536 310.976C21.64 311.36 20.4667 311.744 19.016 312.128C17.5653 312.555 15.8587 312.768 13.896 312.768C11.5067 312.768 9.50133 312.448 7.88 311.808C6.30133 311.168 5.04267 310.251 4.104 309.056C3.16533 307.819 2.504 306.347 2.12 304.64C1.736 302.891 1.544 300.907 1.544 298.688V269.696ZM56.006 278.528C52.55 291.243 48.5393 302.763 43.974 313.088C43.1207 315.008 42.246 316.651 41.35 318.016C40.454 319.381 39.4513 320.512 38.342 321.408C37.2327 322.304 35.9953 322.944 34.63 323.328C33.2647 323.755 31.686 323.968 29.894 323.968C28.6993 323.968 27.5047 323.84 26.31 323.584C25.158 323.328 24.2833 323.051 23.686 322.752L25.094 316.544C26.63 317.141 28.1447 317.44 29.638 317.44C31.6433 317.44 33.2007 316.949 34.31 315.968C35.462 315.029 36.4647 313.557 37.318 311.552C34.886 306.859 32.5393 301.739 30.278 296.192C28.0593 290.645 26.0753 284.757 24.326 278.528H32.582C33.0087 280.32 33.5207 282.261 34.118 284.352C34.758 286.443 35.4407 288.576 36.166 290.752C36.8913 292.885 37.6593 295.019 38.47 297.152C39.2807 299.285 40.0913 301.269 40.902 303.104C42.2673 299.307 43.5473 295.275 44.742 291.008C45.9367 286.699 47.0247 282.539 48.006 278.528H56.006ZM84.0735 295.424C84.0735 291.968 83.2842 289.28 81.7055 287.36C80.1695 285.44 77.6735 284.48 74.2175 284.48C73.4922 284.48 72.7242 284.523 71.9135 284.608C71.1455 284.651 70.3775 284.779 69.6095 284.992V304.128C70.2922 304.597 71.1882 305.045 72.2975 305.472C73.4495 305.856 74.6655 306.048 75.9455 306.048C78.7615 306.048 80.8095 305.088 82.0895 303.168C83.4122 301.248 84.0735 298.667 84.0735 295.424ZM92.0095 295.296C92.0095 297.856 91.6682 300.203 90.9855 302.336C90.3455 304.469 89.4068 306.304 88.1695 307.84C86.9322 309.376 85.3748 310.571 83.4975 311.424C81.6628 312.277 79.5722 312.704 77.2255 312.704C75.6468 312.704 74.1962 312.512 72.8735 312.128C71.5508 311.744 70.4628 311.317 69.6095 310.848V323.84H61.8655V279.616C63.4442 279.189 65.3855 278.784 67.6895 278.4C69.9935 278.016 72.4255 277.824 74.9855 277.824C77.6308 277.824 79.9988 278.229 82.0895 279.04C84.1802 279.851 85.9508 281.024 87.4015 282.56C88.8948 284.053 90.0255 285.888 90.7935 288.064C91.6042 290.197 92.0095 292.608 92.0095 295.296ZM98.1345 295.424C98.1345 292.48 98.5612 289.899 99.4145 287.68C100.311 285.461 101.484 283.627 102.935 282.176C104.385 280.683 106.049 279.573 107.927 278.848C109.804 278.08 111.724 277.696 113.687 277.696C118.295 277.696 121.879 279.125 124.439 281.984C127.041 284.843 128.343 289.109 128.343 294.784C128.343 295.211 128.321 295.701 128.279 296.256C128.279 296.768 128.257 297.237 128.215 297.664H106.135C106.348 300.352 107.287 302.443 108.951 303.936C110.657 305.387 113.111 306.112 116.311 306.112C118.188 306.112 119.895 305.941 121.431 305.6C123.009 305.259 124.247 304.896 125.143 304.512L126.167 310.848C125.74 311.061 125.143 311.296 124.375 311.552C123.649 311.765 122.796 311.957 121.815 312.128C120.876 312.341 119.852 312.512 118.743 312.64C117.633 312.768 116.503 312.832 115.351 312.832C112.407 312.832 109.847 312.405 107.671 311.552C105.495 310.656 103.703 309.44 102.295 307.904C100.887 306.325 99.8412 304.491 99.1585 302.4C98.4758 300.267 98.1345 297.941 98.1345 295.424ZM120.599 291.968C120.599 290.901 120.449 289.899 120.151 288.96C119.852 287.979 119.404 287.147 118.807 286.464C118.252 285.739 117.548 285.184 116.695 284.8C115.884 284.373 114.903 284.16 113.751 284.16C112.556 284.16 111.511 284.395 110.615 284.864C109.719 285.291 108.951 285.867 108.311 286.592C107.713 287.317 107.244 288.149 106.903 289.088C106.561 290.027 106.327 290.987 106.199 291.968H120.599ZM145.257 283.84C145.257 285.333 144.745 286.549 143.721 287.488C142.74 288.427 141.545 288.896 140.137 288.896C138.686 288.896 137.47 288.427 136.489 287.488C135.508 286.549 135.017 285.333 135.017 283.84C135.017 282.347 135.508 281.131 136.489 280.192C137.47 279.211 138.686 278.72 140.137 278.72C141.545 278.72 142.74 279.211 143.721 280.192C144.745 281.131 145.257 282.347 145.257 283.84ZM145.257 307.776C145.257 309.269 144.745 310.485 143.721 311.424C142.74 312.363 141.545 312.832 140.137 312.832C138.686 312.832 137.47 312.363 136.489 311.424C135.508 310.485 135.017 309.269 135.017 307.776C135.017 306.283 135.508 305.067 136.489 304.128C137.47 303.147 138.686 302.656 140.137 302.656C141.545 302.656 142.74 303.147 143.721 304.128C144.745 305.067 145.257 306.283 145.257 307.776ZM182.251 262.336C183.872 262.336 185.237 262.464 186.347 262.72C187.499 262.976 188.395 263.232 189.035 263.488L187.819 269.76C187.221 269.547 186.496 269.355 185.643 269.184C184.832 269.013 183.936 268.928 182.955 268.928C180.395 268.928 178.624 269.611 177.643 270.976C176.704 272.341 176.235 274.112 176.235 276.288V278.528H188.523V284.992H176.235V312H168.491V276.16C168.491 271.808 169.621 268.416 171.883 265.984C174.144 263.552 177.6 262.336 182.251 262.336ZM206.123 312.64C203.819 312.597 201.899 312.341 200.363 311.872C198.869 311.403 197.675 310.741 196.779 309.888C195.883 308.992 195.243 307.904 194.859 306.624C194.517 305.301 194.347 303.808 194.347 302.144V263.616L202.091 262.336V300.672C202.091 301.611 202.155 302.4 202.283 303.04C202.453 303.68 202.731 304.235 203.115 304.704C203.499 305.131 204.011 305.472 204.651 305.728C205.333 305.941 206.187 306.112 207.211 306.24L206.123 312.64ZM211.635 295.424C211.635 292.48 212.061 289.899 212.915 287.68C213.811 285.461 214.984 283.627 216.435 282.176C217.885 280.683 219.549 279.573 221.427 278.848C223.304 278.08 225.224 277.696 227.187 277.696C231.795 277.696 235.379 279.125 237.939 281.984C240.541 284.843 241.843 289.109 241.843 294.784C241.843 295.211 241.821 295.701 241.779 296.256C241.779 296.768 241.757 297.237 241.715 297.664H219.635C219.848 300.352 220.787 302.443 222.451 303.936C224.157 305.387 226.611 306.112 229.811 306.112C231.688 306.112 233.395 305.941 234.931 305.6C236.509 305.259 237.747 304.896 238.643 304.512L239.667 310.848C239.24 311.061 238.643 311.296 237.875 311.552C237.149 311.765 236.296 311.957 235.315 312.128C234.376 312.341 233.352 312.512 232.243 312.64C231.133 312.768 230.003 312.832 228.851 312.832C225.907 312.832 223.347 312.405 221.171 311.552C218.995 310.656 217.203 309.44 215.795 307.904C214.387 306.325 213.341 304.491 212.659 302.4C211.976 300.267 211.635 297.941 211.635 295.424ZM234.099 291.968C234.099 290.901 233.949 289.899 233.651 288.96C233.352 287.979 232.904 287.147 232.307 286.464C231.752 285.739 231.048 285.184 230.195 284.8C229.384 284.373 228.403 284.16 227.251 284.16C226.056 284.16 225.011 284.395 224.115 284.864C223.219 285.291 222.451 285.867 221.811 286.592C221.213 287.317 220.744 288.149 220.403 289.088C220.061 290.027 219.827 290.987 219.699 291.968H234.099ZM262.085 289.472L269.189 278.528H277.317L266.309 294.336C268.613 297.323 270.81 300.352 272.901 303.424C275.034 306.453 276.784 309.312 278.149 312H269.765C269.381 311.189 268.869 310.272 268.229 309.248C267.632 308.181 266.97 307.093 266.245 305.984C265.562 304.832 264.837 303.701 264.069 302.592C263.301 301.483 262.554 300.437 261.829 299.456C260.336 301.376 258.864 303.509 257.413 305.856C256.005 308.16 254.832 310.208 253.893 312H245.957C246.597 310.72 247.365 309.355 248.261 307.904C249.157 306.453 250.117 304.981 251.141 303.488C252.165 301.952 253.21 300.437 254.277 298.944C255.386 297.408 256.474 295.957 257.541 294.592L246.469 278.528H254.981L262.085 289.472Z" fill="#60195E"/>
<path d="M3.072 369.424C3.072 366.48 3.49867 363.899 4.352 361.68C5.248 359.461 6.42133 357.627 7.872 356.176C9.32267 354.683 10.9867 353.573 12.864 352.848C14.7413 352.08 16.6613 351.696 18.624 351.696C23.232 351.696 26.816 353.125 29.376 355.984C31.9787 358.843 33.28 363.109 33.28 368.784C33.28 369.211 33.2587 369.701 33.216 370.256C33.216 370.768 33.1947 371.237 33.152 371.664H11.072C11.2853 374.352 12.224 376.443 13.888 377.936C15.5947 379.387 18.048 380.112 21.248 380.112C23.1253 380.112 24.832 379.941 26.368 379.6C27.9467 379.259 29.184 378.896 30.08 378.512L31.104 384.848C30.6773 385.061 30.08 385.296 29.312 385.552C28.5867 385.765 27.7333 385.957 26.752 386.128C25.8133 386.341 24.7893 386.512 23.68 386.64C22.5707 386.768 21.44 386.832 20.288 386.832C17.344 386.832 14.784 386.405 12.608 385.552C10.432 384.656 8.64 383.44 7.232 381.904C5.824 380.325 4.77867 378.491 4.096 376.4C3.41333 374.267 3.072 371.941 3.072 369.424ZM25.536 365.968C25.536 364.901 25.3867 363.899 25.088 362.96C24.7893 361.979 24.3413 361.147 23.744 360.464C23.1893 359.739 22.4853 359.184 21.632 358.8C20.8213 358.373 19.84 358.16 18.688 358.16C17.4933 358.16 16.448 358.395 15.552 358.864C14.656 359.291 13.888 359.867 13.248 360.592C12.6507 361.317 12.1813 362.149 11.84 363.088C11.4987 364.027 11.264 364.987 11.136 365.968H25.536ZM47.5705 369.424C47.5705 372.667 48.2105 375.248 49.4905 377.168C50.8132 379.088 52.8825 380.048 55.6985 380.048C56.9785 380.048 58.1732 379.856 59.2825 379.472C60.4345 379.045 61.3518 378.597 62.0345 378.128V358.992C61.4798 358.864 60.7758 358.757 59.9225 358.672C59.1118 358.544 58.0452 358.48 56.7225 358.48C53.8638 358.48 51.6238 359.461 50.0025 361.424C48.3812 363.344 47.5705 366.011 47.5705 369.424ZM39.6345 369.296C39.6345 366.651 40.0185 364.261 40.7865 362.128C41.5972 359.952 42.7278 358.117 44.1785 356.624C45.6718 355.088 47.4638 353.915 49.5545 353.104C51.6452 352.251 54.0132 351.824 56.6585 351.824C59.3038 351.824 61.7785 352.016 64.0825 352.4C66.3865 352.784 68.2852 353.189 69.7785 353.616V397.84H62.0345V384.848C61.1385 385.317 60.0292 385.744 58.7065 386.128C57.4265 386.512 55.9972 386.704 54.4185 386.704C52.0292 386.704 49.9172 386.299 48.0825 385.488C46.2478 384.635 44.7118 383.44 43.4745 381.904C42.2372 380.368 41.2772 378.533 40.5945 376.4C39.9545 374.267 39.6345 371.899 39.6345 369.296ZM107.072 384.976C105.578 385.36 103.637 385.744 101.248 386.128C98.8582 386.555 96.2342 386.768 93.3755 386.768C90.6875 386.768 88.4262 386.384 86.5915 385.616C84.7995 384.848 83.3488 383.781 82.2395 382.416C81.1728 381.051 80.4048 379.429 79.9355 377.552C79.4662 375.632 79.2315 373.541 79.2315 371.28V352.528H86.9755V370.064C86.9755 373.648 87.4875 376.208 88.5115 377.744C89.5782 379.28 91.4128 380.048 94.0155 380.048C94.9542 380.048 95.9355 380.005 96.9595 379.92C98.0262 379.835 98.8155 379.728 99.3275 379.6V352.528H107.072V384.976ZM124.736 386H116.992V352.528H124.736V386ZM125.568 342.736C125.568 344.187 125.099 345.339 124.16 346.192C123.221 347.045 122.112 347.472 120.832 347.472C119.509 347.472 118.379 347.045 117.44 346.192C116.501 345.339 116.032 344.187 116.032 342.736C116.032 341.243 116.501 340.069 117.44 339.216C118.379 338.363 119.509 337.936 120.832 337.936C122.112 337.936 123.221 338.363 124.16 339.216C125.099 340.069 125.568 341.243 125.568 342.736ZM143.192 386C141.058 381.605 138.861 376.571 136.6 370.896C134.381 365.179 132.354 359.056 130.52 352.528H138.776C139.245 354.405 139.778 356.432 140.376 358.608C141.016 360.741 141.677 362.896 142.36 365.072C143.085 367.205 143.81 369.296 144.536 371.344C145.304 373.349 146.008 375.163 146.648 376.784C147.288 375.163 147.97 373.349 148.696 371.344C149.421 369.296 150.125 367.205 150.808 365.072C151.533 362.896 152.216 360.741 152.856 358.608C153.496 356.432 154.05 354.405 154.52 352.528H162.52C160.685 359.056 158.637 365.179 156.376 370.896C154.157 376.571 151.981 381.605 149.848 386H143.192ZM180.079 380.56C182.468 380.56 184.282 380.432 185.519 380.176V371.6C185.092 371.472 184.474 371.344 183.663 371.216C182.852 371.088 181.956 371.024 180.975 371.024C180.122 371.024 179.247 371.088 178.351 371.216C177.498 371.344 176.708 371.579 175.983 371.92C175.3 372.261 174.746 372.752 174.319 373.392C173.892 373.989 173.679 374.757 173.679 375.696C173.679 377.531 174.255 378.811 175.407 379.536C176.559 380.219 178.116 380.56 180.079 380.56ZM179.439 351.696C181.999 351.696 184.154 352.016 185.903 352.656C187.652 353.296 189.039 354.192 190.063 355.344C191.13 356.496 191.876 357.904 192.303 359.568C192.772 361.189 193.007 362.981 193.007 364.944V385.232C191.812 385.488 189.999 385.787 187.567 386.128C185.178 386.512 182.468 386.704 179.439 386.704C177.434 386.704 175.599 386.512 173.935 386.128C172.271 385.744 170.842 385.125 169.647 384.272C168.495 383.419 167.578 382.309 166.895 380.944C166.255 379.579 165.935 377.893 165.935 375.888C165.935 373.968 166.298 372.347 167.023 371.024C167.791 369.701 168.815 368.635 170.095 367.824C171.375 366.971 172.847 366.373 174.511 366.032C176.218 365.648 177.988 365.456 179.823 365.456C180.676 365.456 181.572 365.52 182.511 365.648C183.45 365.733 184.452 365.904 185.519 366.16V364.88C185.519 363.984 185.412 363.131 185.199 362.32C184.986 361.509 184.602 360.805 184.047 360.208C183.535 359.568 182.831 359.077 181.935 358.736C181.082 358.395 179.994 358.224 178.671 358.224C176.879 358.224 175.236 358.352 173.743 358.608C172.25 358.864 171.034 359.163 170.095 359.504L169.135 353.232C170.116 352.891 171.546 352.549 173.423 352.208C175.3 351.867 177.306 351.696 179.439 351.696ZM214.139 386.64C211.835 386.597 209.915 386.341 208.379 385.872C206.885 385.403 205.691 384.741 204.795 383.888C203.899 382.992 203.259 381.904 202.875 380.624C202.533 379.301 202.363 377.808 202.363 376.144V337.616L210.107 336.336V374.672C210.107 375.611 210.171 376.4 210.299 377.04C210.469 377.68 210.747 378.235 211.131 378.704C211.515 379.131 212.027 379.472 212.667 379.728C213.349 379.941 214.203 380.112 215.227 380.24L214.139 386.64ZM219.635 369.424C219.635 366.48 220.061 363.899 220.915 361.68C221.811 359.461 222.984 357.627 224.435 356.176C225.885 354.683 227.549 353.573 229.427 352.848C231.304 352.08 233.224 351.696 235.187 351.696C239.795 351.696 243.379 353.125 245.939 355.984C248.541 358.843 249.843 363.109 249.843 368.784C249.843 369.211 249.821 369.701 249.779 370.256C249.779 370.768 249.757 371.237 249.715 371.664H227.635C227.848 374.352 228.787 376.443 230.451 377.936C232.157 379.387 234.611 380.112 237.811 380.112C239.688 380.112 241.395 379.941 242.931 379.6C244.509 379.259 245.747 378.896 246.643 378.512L247.667 384.848C247.24 385.061 246.643 385.296 245.875 385.552C245.149 385.765 244.296 385.957 243.315 386.128C242.376 386.341 241.352 386.512 240.243 386.64C239.133 386.768 238.003 386.832 236.851 386.832C233.907 386.832 231.347 386.405 229.171 385.552C226.995 384.656 225.203 383.44 223.795 381.904C222.387 380.325 221.341 378.491 220.659 376.4C219.976 374.267 219.635 371.941 219.635 369.424ZM242.099 365.968C242.099 364.901 241.949 363.899 241.651 362.96C241.352 361.979 240.904 361.147 240.307 360.464C239.752 359.739 239.048 359.184 238.195 358.8C237.384 358.373 236.403 358.16 235.251 358.16C234.056 358.16 233.011 358.395 232.115 358.864C231.219 359.291 230.451 359.867 229.811 360.592C229.213 361.317 228.744 362.149 228.403 363.088C228.061 364.027 227.827 364.987 227.699 365.968H242.099ZM258.053 353.616C259.546 353.189 261.488 352.784 263.877 352.4C266.266 352.016 268.912 351.824 271.813 351.824C274.544 351.824 276.826 352.208 278.661 352.976C280.496 353.701 281.946 354.747 283.013 356.112C284.122 357.435 284.89 359.056 285.317 360.976C285.786 362.853 286.021 364.923 286.021 367.184V386H278.277V368.4C278.277 366.608 278.149 365.093 277.893 363.856C277.68 362.576 277.296 361.552 276.741 360.784C276.229 359.973 275.504 359.397 274.565 359.056C273.669 358.672 272.56 358.48 271.237 358.48C270.256 358.48 269.232 358.544 268.165 358.672C267.098 358.8 266.309 358.907 265.797 358.992V386H258.053V353.616ZM295.107 343.696L302.851 342.416V352.528H314.755V358.992H302.851V372.624C302.851 375.312 303.277 377.232 304.131 378.384C304.984 379.536 306.435 380.112 308.483 380.112C309.891 380.112 311.128 379.963 312.195 379.664C313.304 379.365 314.179 379.088 314.819 378.832L316.099 384.976C315.203 385.36 314.029 385.744 312.579 386.128C311.128 386.555 309.421 386.768 307.458 386.768C305.069 386.768 303.064 386.448 301.443 385.808C299.864 385.168 298.605 384.251 297.667 383.056C296.728 381.819 296.067 380.347 295.683 378.64C295.299 376.891 295.107 374.907 295.107 372.688V343.696ZM335.322 369.296C335.322 366.821 335.706 364.517 336.474 362.384C337.242 360.208 338.33 358.331 339.738 356.752C341.189 355.173 342.938 353.936 344.986 353.04C347.034 352.144 349.338 351.696 351.898 351.696C355.055 351.696 358.042 352.272 360.858 353.424L359.194 359.76C358.298 359.376 357.274 359.056 356.122 358.8C355.013 358.544 353.818 358.416 352.538 358.416C349.509 358.416 347.205 359.376 345.626 361.296C344.047 363.173 343.258 365.84 343.258 369.296C343.258 372.624 344.005 375.269 345.498 377.232C346.991 379.152 349.509 380.112 353.05 380.112C354.373 380.112 355.674 379.984 356.954 379.728C358.234 379.472 359.343 379.152 360.282 378.768L361.37 385.168C360.517 385.595 359.215 385.979 357.466 386.32C355.759 386.661 353.989 386.832 352.154 386.832C349.295 386.832 346.799 386.405 344.666 385.552C342.575 384.656 340.826 383.44 339.418 381.904C338.053 380.325 337.029 378.469 336.346 376.336C335.663 374.16 335.322 371.813 335.322 369.296ZM375.75 380.432C377.798 380.432 379.291 380.197 380.23 379.728C381.168 379.216 381.638 378.363 381.638 377.168C381.638 376.059 381.126 375.141 380.102 374.416C379.12 373.691 377.478 372.901 375.174 372.048C373.766 371.536 372.464 371.003 371.27 370.448C370.118 369.851 369.115 369.168 368.262 368.4C367.408 367.632 366.726 366.715 366.214 365.648C365.744 364.539 365.51 363.195 365.51 361.616C365.51 358.544 366.64 356.133 368.902 354.384C371.163 352.592 374.235 351.696 378.118 351.696C380.08 351.696 381.958 351.888 383.75 352.272C385.542 352.613 386.886 352.955 387.782 353.296L386.374 359.568C385.52 359.184 384.432 358.843 383.11 358.544C381.787 358.203 380.251 358.032 378.502 358.032C376.923 358.032 375.643 358.309 374.662 358.864C373.68 359.376 373.19 360.187 373.19 361.296C373.19 361.851 373.275 362.341 373.446 362.768C373.659 363.195 374 363.6 374.47 363.984C374.939 364.325 375.558 364.688 376.326 365.072C377.094 365.413 378.032 365.776 379.142 366.16C380.976 366.843 382.534 367.525 383.814 368.208C385.094 368.848 386.139 369.595 386.95 370.448C387.803 371.259 388.422 372.197 388.806 373.264C389.19 374.331 389.382 375.611 389.382 377.104C389.382 380.304 388.187 382.736 385.798 384.4C383.451 386.021 380.08 386.832 375.686 386.832C372.742 386.832 370.374 386.576 368.582 386.064C366.79 385.595 365.531 385.211 364.806 384.912L366.15 378.448C367.302 378.917 368.667 379.365 370.246 379.792C371.867 380.219 373.702 380.432 375.75 380.432ZM405 380.432C407.048 380.432 408.541 380.197 409.48 379.728C410.418 379.216 410.888 378.363 410.888 377.168C410.888 376.059 410.376 375.141 409.352 374.416C408.37 373.691 406.728 372.901 404.424 372.048C403.016 371.536 401.714 371.003 400.52 370.448C399.368 369.851 398.365 369.168 397.512 368.4C396.658 367.632 395.976 366.715 395.464 365.648C394.994 364.539 394.76 363.195 394.76 361.616C394.76 358.544 395.89 356.133 398.152 354.384C400.413 352.592 403.485 351.696 407.368 351.696C409.33 351.696 411.208 351.888 413 352.272C414.792 352.613 416.136 352.955 417.032 353.296L415.624 359.568C414.77 359.184 413.682 358.843 412.36 358.544C411.037 358.203 409.501 358.032 407.752 358.032C406.173 358.032 404.893 358.309 403.912 358.864C402.93 359.376 402.44 360.187 402.44 361.296C402.44 361.851 402.525 362.341 402.696 362.768C402.909 363.195 403.25 363.6 403.72 363.984C404.189 364.325 404.808 364.688 405.576 365.072C406.344 365.413 407.282 365.776 408.392 366.16C410.226 366.843 411.784 367.525 413.064 368.208C414.344 368.848 415.389 369.595 416.2 370.448C417.053 371.259 417.672 372.197 418.056 373.264C418.44 374.331 418.632 375.611 418.632 377.104C418.632 380.304 417.437 382.736 415.048 384.4C412.701 386.021 409.33 386.832 404.936 386.832C401.992 386.832 399.624 386.576 397.832 386.064C396.04 385.595 394.781 385.211 394.056 384.912L395.4 378.448C396.552 378.917 397.917 379.365 399.496 379.792C401.117 380.219 402.952 380.432 405 380.432ZM434.57 357.84C434.57 359.333 434.058 360.549 433.034 361.488C432.052 362.427 430.858 362.896 429.45 362.896C427.999 362.896 426.783 362.427 425.802 361.488C424.82 360.549 424.33 359.333 424.33 357.84C424.33 356.347 424.82 355.131 425.802 354.192C426.783 353.211 427.999 352.72 429.45 352.72C430.858 352.72 432.052 353.211 433.034 354.192C434.058 355.131 434.57 356.347 434.57 357.84ZM434.57 381.776C434.57 383.269 434.058 384.485 433.034 385.424C432.052 386.363 430.858 386.832 429.45 386.832C427.999 386.832 426.783 386.363 425.802 385.424C424.82 384.485 424.33 383.269 424.33 381.776C424.33 380.283 424.82 379.067 425.802 378.128C426.783 377.147 427.999 376.656 429.45 376.656C430.858 376.656 432.052 377.147 433.034 378.128C434.058 379.067 434.57 380.283 434.57 381.776ZM471.563 336.336C473.184 336.336 474.55 336.464 475.659 336.72C476.811 336.976 477.707 337.232 478.347 337.488L477.131 343.76C476.534 343.547 475.808 343.355 474.955 343.184C474.144 343.013 473.248 342.928 472.267 342.928C469.707 342.928 467.936 343.611 466.955 344.976C466.016 346.341 465.547 348.112 465.547 350.288V352.528H477.835V358.992H465.547V386H457.803V350.16C457.803 345.808 458.934 342.416 461.195 339.984C463.456 337.552 466.912 336.336 471.563 336.336ZM495.435 386.64C493.131 386.597 491.211 386.341 489.675 385.872C488.182 385.403 486.987 384.741 486.091 383.888C485.195 382.992 484.555 381.904 484.171 380.624C483.83 379.301 483.659 377.808 483.659 376.144V337.616L491.403 336.336V374.672C491.403 375.611 491.467 376.4 491.595 377.04C491.766 377.68 492.043 378.235 492.427 378.704C492.811 379.131 493.323 379.472 493.963 379.728C494.646 379.941 495.499 380.112 496.523 380.24L495.435 386.64ZM500.947 369.424C500.947 366.48 501.374 363.899 502.227 361.68C503.123 359.461 504.296 357.627 505.747 356.176C507.198 354.683 508.862 353.573 510.739 352.848C512.616 352.08 514.536 351.696 516.499 351.696C521.107 351.696 524.691 353.125 527.251 355.984C529.854 358.843 531.155 363.109 531.155 368.784C531.155 369.211 531.134 369.701 531.091 370.256C531.091 370.768 531.07 371.237 531.027 371.664H508.947C509.16 374.352 510.099 376.443 511.763 377.936C513.47 379.387 515.923 380.112 519.123 380.112C521 380.112 522.707 379.941 524.243 379.6C525.822 379.259 527.059 378.896 527.955 378.512L528.979 384.848C528.552 385.061 527.955 385.296 527.187 385.552C526.462 385.765 525.608 385.957 524.627 386.128C523.688 386.341 522.664 386.512 521.555 386.64C520.446 386.768 519.315 386.832 518.163 386.832C515.219 386.832 512.659 386.405 510.483 385.552C508.307 384.656 506.515 383.44 505.107 381.904C503.699 380.325 502.654 378.491 501.971 376.4C501.288 374.267 500.947 371.941 500.947 369.424ZM523.411 365.968C523.411 364.901 523.262 363.899 522.963 362.96C522.664 361.979 522.216 361.147 521.619 360.464C521.064 359.739 520.36 359.184 519.507 358.8C518.696 358.373 517.715 358.16 516.563 358.16C515.368 358.16 514.323 358.395 513.427 358.864C512.531 359.291 511.763 359.867 511.123 360.592C510.526 361.317 510.056 362.149 509.715 363.088C509.374 364.027 509.139 364.987 509.011 365.968H523.411ZM551.398 363.472L558.502 352.528H566.63L555.622 368.336C557.926 371.323 560.123 374.352 562.214 377.424C564.347 380.453 566.096 383.312 567.462 386H559.078C558.694 385.189 558.182 384.272 557.542 383.248C556.944 382.181 556.283 381.093 555.558 379.984C554.875 378.832 554.15 377.701 553.382 376.592C552.614 375.483 551.867 374.437 551.142 373.456C549.648 375.376 548.176 377.509 546.726 379.856C545.318 382.16 544.144 384.208 543.206 386H535.27C535.91 384.72 536.678 383.355 537.574 381.904C538.47 380.453 539.43 378.981 540.454 377.488C541.478 375.952 542.523 374.437 543.59 372.944C544.699 371.408 545.787 369.957 546.854 368.592L535.782 352.528H544.294L551.398 363.472ZM569.785 364.176H587.001V371.28H569.785V364.176ZM613.396 364.944C612.415 368.699 611.348 372.368 610.196 375.952C609.087 379.493 607.977 382.843 606.868 386H600.532C599.679 384.037 598.783 381.797 597.844 379.28C596.905 376.763 595.967 374.075 595.028 371.216C594.089 368.357 593.151 365.349 592.212 362.192C591.273 359.035 590.356 355.813 589.46 352.528H597.652C598.036 354.32 598.484 356.261 598.996 358.352C599.508 360.4 600.041 362.512 600.596 364.688C601.151 366.821 601.727 368.912 602.324 370.96C602.921 373.008 603.519 374.885 604.116 376.592C604.756 374.629 605.375 372.603 605.972 370.512C606.612 368.421 607.209 366.331 607.764 364.24C608.319 362.149 608.831 360.123 609.3 358.16C609.812 356.155 610.26 354.277 610.644 352.528H616.596C616.98 354.277 617.407 356.155 617.876 358.16C618.345 360.123 618.836 362.149 619.348 364.24C619.903 366.331 620.479 368.421 621.076 370.512C621.716 372.603 622.356 374.629 622.996 376.592C623.551 374.885 624.127 373.008 624.724 370.96C625.321 368.912 625.897 366.821 626.452 364.688C627.049 362.512 627.604 360.4 628.116 358.352C628.628 356.261 629.076 354.32 629.46 352.528H637.46C636.564 355.813 635.647 359.035 634.708 362.192C633.769 365.349 632.831 368.357 631.892 371.216C630.953 374.075 630.015 376.763 629.076 379.28C628.137 381.797 627.22 384.037 626.324 386H620.052C618.943 382.843 617.791 379.493 616.596 375.952C615.444 372.368 614.377 368.699 613.396 364.944ZM662.438 359.504C661.798 359.291 660.902 359.077 659.75 358.864C658.64 358.608 657.339 358.48 655.846 358.48C654.992 358.48 654.075 358.565 653.094 358.736C652.155 358.907 651.494 359.056 651.11 359.184V386H643.366V354.128C644.859 353.573 646.715 353.061 648.934 352.592C651.195 352.08 653.691 351.824 656.422 351.824C656.934 351.824 657.531 351.867 658.214 351.952C658.896 351.995 659.579 352.08 660.262 352.208C660.944 352.293 661.606 352.421 662.246 352.592C662.886 352.72 663.398 352.848 663.782 352.976L662.438 359.504ZM680.954 380.56C683.343 380.56 685.157 380.432 686.394 380.176V371.6C685.967 371.472 685.349 371.344 684.538 371.216C683.727 371.088 682.831 371.024 681.85 371.024C680.997 371.024 680.122 371.088 679.226 371.216C678.373 371.344 677.583 371.579 676.858 371.92C676.175 372.261 675.621 372.752 675.194 373.392C674.767 373.989 674.554 374.757 674.554 375.696C674.554 377.531 675.13 378.811 676.282 379.536C677.434 380.219 678.991 380.56 680.954 380.56ZM680.314 351.696C682.874 351.696 685.029 352.016 686.778 352.656C688.527 353.296 689.914 354.192 690.938 355.344C692.005 356.496 692.751 357.904 693.178 359.568C693.647 361.189 693.882 362.981 693.882 364.944V385.232C692.687 385.488 690.874 385.787 688.442 386.128C686.053 386.512 683.343 386.704 680.314 386.704C678.309 386.704 676.474 386.512 674.81 386.128C673.146 385.744 671.717 385.125 670.522 384.272C669.37 383.419 668.453 382.309 667.77 380.944C667.13 379.579 666.81 377.893 666.81 375.888C666.81 373.968 667.173 372.347 667.898 371.024C668.666 369.701 669.69 368.635 670.97 367.824C672.25 366.971 673.722 366.373 675.386 366.032C677.093 365.648 678.863 365.456 680.698 365.456C681.551 365.456 682.447 365.52 683.386 365.648C684.325 365.733 685.327 365.904 686.394 366.16V364.88C686.394 363.984 686.287 363.131 686.074 362.32C685.861 361.509 685.477 360.805 684.922 360.208C684.41 359.568 683.706 359.077 682.81 358.736C681.957 358.395 680.869 358.224 679.546 358.224C677.754 358.224 676.111 358.352 674.618 358.608C673.125 358.864 671.909 359.163 670.97 359.504L670.01 353.232C670.991 352.891 672.421 352.549 674.298 352.208C676.175 351.867 678.181 351.696 680.314 351.696ZM725.574 369.424C725.574 365.968 724.784 363.28 723.206 361.36C721.67 359.44 719.174 358.48 715.718 358.48C714.992 358.48 714.224 358.523 713.414 358.608C712.646 358.651 711.878 358.779 711.11 358.992V378.128C711.792 378.597 712.688 379.045 713.798 379.472C714.95 379.856 716.166 380.048 717.446 380.048C720.262 380.048 722.31 379.088 723.59 377.168C724.912 375.248 725.574 372.667 725.574 369.424ZM733.51 369.296C733.51 371.856 733.168 374.203 732.486 376.336C731.846 378.469 730.907 380.304 729.67 381.84C728.432 383.376 726.875 384.571 724.998 385.424C723.163 386.277 721.072 386.704 718.726 386.704C717.147 386.704 715.696 386.512 714.374 386.128C713.051 385.744 711.963 385.317 711.11 384.848V397.84H703.366V353.616C704.944 353.189 706.886 352.784 709.19 352.4C711.494 352.016 713.926 351.824 716.486 351.824C719.131 351.824 721.499 352.229 723.59 353.04C725.68 353.851 727.451 355.024 728.902 356.56C730.395 358.053 731.526 359.888 732.294 362.064C733.104 364.197 733.51 366.608 733.51 369.296Z" fill="#60195E"/>
<path d="M1312.47 225.652C1313.82 225.265 1315.58 224.898 1317.74 224.55C1319.91 224.202 1322.31 224.028 1324.94 224.028C1327.41 224.028 1329.48 224.376 1331.14 225.072C1332.8 225.729 1334.12 226.677 1335.09 227.914C1336.09 229.113 1336.79 230.582 1337.17 232.322C1337.6 234.023 1337.81 235.899 1337.81 237.948V255H1330.79V239.05C1330.79 237.426 1330.68 236.053 1330.45 234.932C1330.25 233.772 1329.9 232.844 1329.4 232.148C1328.94 231.413 1328.28 230.891 1327.43 230.582C1326.62 230.234 1325.61 230.06 1324.41 230.06C1323.52 230.06 1322.6 230.118 1321.63 230.234C1320.66 230.35 1319.95 230.447 1319.48 230.524V255H1312.47V225.652ZM1373.83 239.804C1373.83 242.201 1373.48 244.386 1372.78 246.358C1372.09 248.33 1371.1 250.012 1369.83 251.404C1368.55 252.796 1367 253.879 1365.19 254.652C1363.41 255.425 1361.44 255.812 1359.27 255.812C1357.1 255.812 1355.13 255.425 1353.35 254.652C1351.58 253.879 1350.05 252.796 1348.77 251.404C1347.5 250.012 1346.49 248.33 1345.76 246.358C1345.06 244.386 1344.71 242.201 1344.71 239.804C1344.71 237.407 1345.06 235.241 1345.76 233.308C1346.49 231.336 1347.5 229.654 1348.77 228.262C1350.09 226.87 1351.63 225.807 1353.41 225.072C1355.19 224.299 1357.14 223.912 1359.27 223.912C1361.4 223.912 1363.35 224.299 1365.13 225.072C1366.95 225.807 1368.49 226.87 1369.77 228.262C1371.04 229.654 1372.03 231.336 1372.73 233.308C1373.46 235.241 1373.83 237.407 1373.83 239.804ZM1366.64 239.804C1366.64 236.788 1365.98 234.41 1364.66 232.67C1363.39 230.891 1361.59 230.002 1359.27 230.002C1356.95 230.002 1355.13 230.891 1353.82 232.67C1352.54 234.41 1351.9 236.788 1351.9 239.804C1351.9 242.859 1352.54 245.275 1353.82 247.054C1355.13 248.833 1356.95 249.722 1359.27 249.722C1361.59 249.722 1363.39 248.833 1364.66 247.054C1365.98 245.275 1366.64 242.859 1366.64 239.804ZM1398.53 235.918C1397.64 239.321 1396.67 242.646 1395.63 245.894C1394.63 249.103 1393.62 252.139 1392.61 255H1386.87C1386.1 253.221 1385.29 251.191 1384.44 248.91C1383.59 246.629 1382.74 244.193 1381.88 241.602C1381.03 239.011 1380.18 236.285 1379.33 233.424C1378.48 230.563 1377.65 227.643 1376.84 224.666H1384.26C1384.61 226.29 1385.02 228.049 1385.48 229.944C1385.94 231.8 1386.43 233.714 1386.93 235.686C1387.43 237.619 1387.96 239.514 1388.5 241.37C1389.04 243.226 1389.58 244.927 1390.12 246.474C1390.7 244.695 1391.26 242.859 1391.8 240.964C1392.38 239.069 1392.92 237.175 1393.43 235.28C1393.93 233.385 1394.39 231.549 1394.82 229.77C1395.28 227.953 1395.69 226.251 1396.04 224.666H1401.43C1401.78 226.251 1402.17 227.953 1402.59 229.77C1403.02 231.549 1403.46 233.385 1403.92 235.28C1404.43 237.175 1404.95 239.069 1405.49 240.964C1406.07 242.859 1406.65 244.695 1407.23 246.474C1407.73 244.927 1408.26 243.226 1408.8 241.37C1409.34 239.514 1409.86 237.619 1410.36 235.686C1410.9 233.714 1411.41 231.8 1411.87 229.944C1412.33 228.049 1412.74 226.29 1413.09 224.666H1420.34C1419.53 227.643 1418.7 230.563 1417.84 233.424C1416.99 236.285 1416.14 239.011 1415.29 241.602C1414.44 244.193 1413.59 246.629 1412.74 248.91C1411.89 251.191 1411.06 253.221 1410.25 255H1404.56C1403.56 252.139 1402.51 249.103 1401.43 245.894C1400.39 242.646 1399.42 239.321 1398.53 235.918ZM1442.97 230.988C1442.39 230.795 1441.58 230.601 1440.54 230.408C1439.53 230.176 1438.35 230.06 1437 230.06C1436.23 230.06 1435.4 230.137 1434.51 230.292C1433.66 230.447 1433.06 230.582 1432.71 230.698V255H1425.69V226.116C1427.04 225.613 1428.73 225.149 1430.74 224.724C1432.79 224.26 1435.05 224.028 1437.52 224.028C1437.99 224.028 1438.53 224.067 1439.15 224.144C1439.77 224.183 1440.38 224.26 1441 224.376C1441.62 224.453 1442.22 224.569 1442.8 224.724C1443.38 224.84 1443.84 224.956 1444.19 225.072L1442.97 230.988ZM1459.76 250.07C1461.92 250.07 1463.56 249.954 1464.69 249.722V241.95C1464.3 241.834 1463.74 241.718 1463 241.602C1462.27 241.486 1461.46 241.428 1460.57 241.428C1459.79 241.428 1459 241.486 1458.19 241.602C1457.42 241.718 1456.7 241.931 1456.04 242.24C1455.42 242.549 1454.92 242.994 1454.54 243.574C1454.15 244.115 1453.96 244.811 1453.96 245.662C1453.96 247.325 1454.48 248.485 1455.52 249.142C1456.57 249.761 1457.98 250.07 1459.76 250.07ZM1459.18 223.912C1461.5 223.912 1463.45 224.202 1465.03 224.782C1466.62 225.362 1467.88 226.174 1468.8 227.218C1469.77 228.262 1470.45 229.538 1470.83 231.046C1471.26 232.515 1471.47 234.139 1471.47 235.918V254.304C1470.39 254.536 1468.75 254.807 1466.54 255.116C1464.38 255.464 1461.92 255.638 1459.18 255.638C1457.36 255.638 1455.7 255.464 1454.19 255.116C1452.68 254.768 1451.38 254.207 1450.3 253.434C1449.26 252.661 1448.43 251.655 1447.81 250.418C1447.23 249.181 1446.94 247.653 1446.94 245.836C1446.94 244.096 1447.27 242.627 1447.92 241.428C1448.62 240.229 1449.55 239.263 1450.71 238.528C1451.87 237.755 1453.2 237.213 1454.71 236.904C1456.26 236.556 1457.86 236.382 1459.52 236.382C1460.3 236.382 1461.11 236.44 1461.96 236.556C1462.81 236.633 1463.72 236.788 1464.69 237.02V235.86C1464.69 235.048 1464.59 234.275 1464.4 233.54C1464.2 232.805 1463.85 232.167 1463.35 231.626C1462.89 231.046 1462.25 230.601 1461.44 230.292C1460.66 229.983 1459.68 229.828 1458.48 229.828C1456.86 229.828 1455.37 229.944 1454.01 230.176C1452.66 230.408 1451.56 230.679 1450.71 230.988L1449.84 225.304C1450.73 224.995 1452.02 224.685 1453.72 224.376C1455.42 224.067 1457.24 223.912 1459.18 223.912ZM1500.19 239.978C1500.19 236.846 1499.48 234.41 1498.05 232.67C1496.65 230.93 1494.39 230.06 1491.26 230.06C1490.6 230.06 1489.91 230.099 1489.17 230.176C1488.48 230.215 1487.78 230.331 1487.08 230.524V247.866C1487.7 248.291 1488.51 248.697 1489.52 249.084C1490.56 249.432 1491.67 249.606 1492.83 249.606C1495.38 249.606 1497.23 248.736 1498.39 246.996C1499.59 245.256 1500.19 242.917 1500.19 239.978ZM1507.38 239.862C1507.38 242.182 1507.07 244.309 1506.46 246.242C1505.88 248.175 1505.02 249.838 1503.9 251.23C1502.78 252.622 1501.37 253.705 1499.67 254.478C1498.01 255.251 1496.11 255.638 1493.99 255.638C1492.55 255.638 1491.24 255.464 1490.04 255.116C1488.84 254.768 1487.86 254.381 1487.08 253.956V265.73H1480.07V225.652C1481.5 225.265 1483.26 224.898 1485.34 224.55C1487.43 224.202 1489.64 224.028 1491.96 224.028C1494.35 224.028 1496.5 224.395 1498.39 225.13C1500.29 225.865 1501.89 226.928 1503.21 228.32C1504.56 229.673 1505.59 231.336 1506.28 233.308C1507.02 235.241 1507.38 237.426 1507.38 239.862ZM1535 237.658C1535 242.414 1535.71 246.88 1537.14 251.056C1538.57 255.232 1540.57 259.041 1543.12 262.482L1538.19 265.73C1535.06 261.979 1532.58 257.726 1530.76 252.97C1528.95 248.175 1528.04 243.071 1528.04 237.658C1528.04 232.245 1528.95 227.16 1530.76 222.404C1532.58 217.609 1535.06 213.337 1538.19 209.586L1543.12 212.834C1540.57 216.314 1538.57 220.142 1537.14 224.318C1535.71 228.455 1535 232.902 1535 237.658ZM1553.32 239.746C1553.32 242.839 1554.05 245.275 1555.52 247.054C1556.99 248.794 1559.02 249.664 1561.61 249.664C1562.73 249.664 1563.68 249.625 1564.45 249.548C1565.27 249.432 1565.92 249.316 1566.43 249.2V231.8C1565.81 231.375 1564.98 230.988 1563.93 230.64C1562.93 230.253 1561.84 230.06 1560.68 230.06C1558.13 230.06 1556.26 230.93 1555.06 232.67C1553.9 234.41 1553.32 236.769 1553.32 239.746ZM1573.44 254.072C1572.05 254.497 1570.29 254.884 1568.17 255.232C1566.08 255.58 1563.87 255.754 1561.55 255.754C1559.16 255.754 1557.01 255.387 1555.12 254.652C1553.22 253.917 1551.6 252.873 1550.24 251.52C1548.93 250.128 1547.9 248.465 1547.17 246.532C1546.47 244.56 1546.13 242.356 1546.13 239.92C1546.13 237.523 1546.42 235.357 1547 233.424C1547.61 231.452 1548.5 229.77 1549.66 228.378C1550.82 226.986 1552.24 225.923 1553.9 225.188C1555.56 224.415 1557.47 224.028 1559.64 224.028C1561.11 224.028 1562.4 224.202 1563.53 224.55C1564.65 224.898 1565.61 225.285 1566.43 225.71V211.152L1573.44 209.992V254.072ZM1580.68 239.978C1580.68 237.31 1581.06 234.971 1581.84 232.96C1582.65 230.949 1583.71 229.287 1585.03 227.972C1586.34 226.619 1587.85 225.613 1589.55 224.956C1591.25 224.26 1592.99 223.912 1594.77 223.912C1598.95 223.912 1602.19 225.207 1604.51 227.798C1606.87 230.389 1608.05 234.255 1608.05 239.398C1608.05 239.785 1608.03 240.229 1607.99 240.732C1607.99 241.196 1607.98 241.621 1607.94 242.008H1587.93C1588.12 244.444 1588.97 246.339 1590.48 247.692C1592.03 249.007 1594.25 249.664 1597.15 249.664C1598.85 249.664 1600.4 249.509 1601.79 249.2C1603.22 248.891 1604.34 248.562 1605.15 248.214L1606.08 253.956C1605.69 254.149 1605.15 254.362 1604.46 254.594C1603.8 254.787 1603.03 254.961 1602.14 255.116C1601.29 255.309 1600.36 255.464 1599.35 255.58C1598.35 255.696 1597.32 255.754 1596.28 255.754C1593.61 255.754 1591.29 255.367 1589.32 254.594C1587.35 253.782 1585.72 252.68 1584.45 251.288C1583.17 249.857 1582.22 248.195 1581.6 246.3C1580.99 244.367 1580.68 242.259 1580.68 239.978ZM1601.03 236.846C1601.03 235.879 1600.9 234.971 1600.63 234.12C1600.36 233.231 1599.95 232.477 1599.41 231.858C1598.91 231.201 1598.27 230.698 1597.5 230.35C1596.76 229.963 1595.87 229.77 1594.83 229.77C1593.75 229.77 1592.8 229.983 1591.99 230.408C1591.17 230.795 1590.48 231.317 1589.9 231.974C1589.36 232.631 1588.93 233.385 1588.62 234.236C1588.31 235.087 1588.1 235.957 1587.98 236.846H1601.03ZM1627.85 209.992C1629.47 209.992 1630.9 210.147 1632.14 210.456C1633.38 210.727 1634.3 210.978 1634.92 211.21L1633.59 217.01C1632.93 216.701 1632.16 216.449 1631.27 216.256C1630.42 216.063 1629.49 215.966 1628.49 215.966C1627.36 215.966 1626.42 216.14 1625.64 216.488C1624.87 216.797 1624.25 217.242 1623.79 217.822C1623.32 218.402 1622.99 219.117 1622.8 219.968C1622.61 220.78 1622.51 221.669 1622.51 222.636V224.666H1633.53V230.524H1622.51V255H1615.49V222.52C1615.49 218.615 1616.52 215.56 1618.57 213.356C1620.62 211.113 1623.71 209.992 1627.85 209.992ZM1649.39 250.07C1651.55 250.07 1653.2 249.954 1654.32 249.722V241.95C1653.93 241.834 1653.37 241.718 1652.64 241.602C1651.9 241.486 1651.09 241.428 1650.2 241.428C1649.43 241.428 1648.63 241.486 1647.82 241.602C1647.05 241.718 1646.33 241.931 1645.68 242.24C1645.06 242.549 1644.55 242.994 1644.17 243.574C1643.78 244.115 1643.59 244.811 1643.59 245.662C1643.59 247.325 1644.11 248.485 1645.15 249.142C1646.2 249.761 1647.61 250.07 1649.39 250.07ZM1648.81 223.912C1651.13 223.912 1653.08 224.202 1654.67 224.782C1656.25 225.362 1657.51 226.174 1658.44 227.218C1659.4 228.262 1660.08 229.538 1660.47 231.046C1660.89 232.515 1661.1 234.139 1661.1 235.918V254.304C1660.02 254.536 1658.38 254.807 1656.17 255.116C1654.01 255.464 1651.55 255.638 1648.81 255.638C1646.99 255.638 1645.33 255.464 1643.82 255.116C1642.31 254.768 1641.02 254.207 1639.93 253.434C1638.89 252.661 1638.06 251.655 1637.44 250.418C1636.86 249.181 1636.57 247.653 1636.57 245.836C1636.57 244.096 1636.9 242.627 1637.56 241.428C1638.25 240.229 1639.18 239.263 1640.34 238.528C1641.5 237.755 1642.83 237.213 1644.34 236.904C1645.89 236.556 1647.49 236.382 1649.16 236.382C1649.93 236.382 1650.74 236.44 1651.59 236.556C1652.44 236.633 1653.35 236.788 1654.32 237.02V235.86C1654.32 235.048 1654.22 234.275 1654.03 233.54C1653.83 232.805 1653.49 232.167 1652.98 231.626C1652.52 231.046 1651.88 230.601 1651.07 230.292C1650.3 229.983 1649.31 229.828 1648.11 229.828C1646.49 229.828 1645 229.944 1643.65 230.176C1642.29 230.408 1641.19 230.679 1640.34 230.988L1639.47 225.304C1640.36 224.995 1641.65 224.685 1643.36 224.376C1645.06 224.067 1646.87 223.912 1648.81 223.912ZM1694.58 254.072C1693.23 254.42 1691.47 254.768 1689.3 255.116C1687.14 255.503 1684.76 255.696 1682.17 255.696C1679.73 255.696 1677.68 255.348 1676.02 254.652C1674.4 253.956 1673.08 252.989 1672.08 251.752C1671.11 250.515 1670.41 249.045 1669.99 247.344C1669.56 245.604 1669.35 243.709 1669.35 241.66V224.666H1676.37V240.558C1676.37 243.806 1676.83 246.126 1677.76 247.518C1678.73 248.91 1680.39 249.606 1682.75 249.606C1683.6 249.606 1684.49 249.567 1685.42 249.49C1686.38 249.413 1687.1 249.316 1687.56 249.2V224.666H1694.58V254.072ZM1714.07 255.58C1711.98 255.541 1710.24 255.309 1708.85 254.884C1707.5 254.459 1706.41 253.859 1705.6 253.086C1704.79 252.274 1704.21 251.288 1703.86 250.128C1703.55 248.929 1703.4 247.576 1703.4 246.068V211.152L1710.41 209.992V244.734C1710.41 245.585 1710.47 246.3 1710.59 246.88C1710.74 247.46 1710.99 247.963 1711.34 248.388C1711.69 248.775 1712.15 249.084 1712.73 249.316C1713.35 249.509 1714.13 249.664 1715.05 249.78L1714.07 255.58ZM1720.38 216.662L1727.4 215.502V224.666H1738.19V230.524H1727.4V242.878C1727.4 245.314 1727.79 247.054 1728.56 248.098C1729.33 249.142 1730.65 249.664 1732.51 249.664C1733.78 249.664 1734.9 249.529 1735.87 249.258C1736.87 248.987 1737.67 248.736 1738.25 248.504L1739.41 254.072C1738.6 254.42 1737.53 254.768 1736.22 255.116C1734.9 255.503 1733.36 255.696 1731.58 255.696C1729.41 255.696 1727.59 255.406 1726.13 254.826C1724.69 254.246 1723.55 253.415 1722.7 252.332C1721.85 251.211 1721.25 249.877 1720.91 248.33C1720.56 246.745 1720.38 244.947 1720.38 242.936V216.662ZM1748.86 237.658C1748.86 232.902 1748.14 228.455 1746.71 224.318C1745.28 220.142 1743.29 216.314 1740.74 212.834L1745.67 209.586C1748.8 213.337 1751.28 217.609 1753.09 222.404C1754.91 227.16 1755.82 232.245 1755.82 237.658C1755.82 243.071 1754.91 248.175 1753.09 252.97C1751.28 257.726 1748.8 261.979 1745.67 265.73L1740.74 262.482C1743.29 259.041 1745.28 255.232 1746.71 251.056C1748.14 246.88 1748.86 242.414 1748.86 237.658Z" fill="#60195E"/>
<path d="M19.562 663.918C18.6727 667.321 17.706 670.646 16.662 673.894C15.6567 677.103 14.6513 680.139 13.646 683H7.904C7.13067 681.221 6.31867 679.191 5.468 676.91C4.61733 674.629 3.76667 672.193 2.916 669.602C2.06533 667.011 1.21467 664.285 0.364 661.424C-0.486667 658.563 -1.318 655.643 -2.13 652.666H5.294C5.642 654.29 6.048 656.049 6.512 657.944C6.976 659.8 7.45933 661.714 7.962 663.686C8.46467 665.619 8.98667 667.514 9.528 669.37C10.0693 671.226 10.6107 672.927 11.152 674.474C11.732 672.695 12.2927 670.859 12.834 668.964C13.414 667.069 13.9553 665.175 14.458 663.28C14.9607 661.385 15.4247 659.549 15.85 657.77C16.314 655.953 16.72 654.251 17.068 652.666H22.462C22.81 654.251 23.1967 655.953 23.622 657.77C24.0473 659.549 24.492 661.385 24.956 663.28C25.4587 665.175 25.9807 667.069 26.522 668.964C27.102 670.859 27.682 672.695 28.262 674.474C28.7647 672.927 29.2867 671.226 29.828 669.37C30.3693 667.514 30.8913 665.619 31.394 663.686C31.9353 661.714 32.438 659.8 32.902 657.944C33.366 656.049 33.772 654.29 34.12 652.666H41.37C40.558 655.643 39.7267 658.563 38.876 661.424C38.0253 664.285 37.1747 667.011 36.324 669.602C35.4733 672.193 34.6227 674.629 33.772 676.91C32.9213 679.191 32.09 681.221 31.278 683H25.594C24.5887 680.139 23.5447 677.103 22.462 673.894C21.418 670.646 20.4513 667.321 19.562 663.918ZM64.0059 658.988C63.4259 658.795 62.6139 658.601 61.5699 658.408C60.5645 658.176 59.3852 658.06 58.0319 658.06C57.2585 658.06 56.4272 658.137 55.5379 658.292C54.6872 658.447 54.0879 658.582 53.7399 658.698V683H46.7219V654.116C48.0752 653.613 49.7572 653.149 51.7679 652.724C53.8172 652.26 56.0792 652.028 58.5539 652.028C59.0179 652.028 59.5592 652.067 60.1779 652.144C60.7965 652.183 61.4152 652.26 62.0339 652.376C62.6525 652.453 63.2519 652.569 63.8319 652.724C64.4119 652.84 64.8759 652.956 65.2239 653.072L64.0059 658.988ZM80.7864 678.07C82.9518 678.07 84.5951 677.954 85.7164 677.722V669.95C85.3298 669.834 84.7691 669.718 84.0344 669.602C83.2998 669.486 82.4878 669.428 81.5984 669.428C80.8251 669.428 80.0324 669.486 79.2204 669.602C78.4471 669.718 77.7318 669.931 77.0744 670.24C76.4558 670.549 75.9531 670.994 75.5664 671.574C75.1798 672.115 74.9864 672.811 74.9864 673.662C74.9864 675.325 75.5084 676.485 76.5524 677.142C77.5964 677.761 79.0078 678.07 80.7864 678.07ZM80.2064 651.912C82.5264 651.912 84.4791 652.202 86.0644 652.782C87.6498 653.362 88.9064 654.174 89.8344 655.218C90.8011 656.262 91.4778 657.538 91.8644 659.046C92.2898 660.515 92.5024 662.139 92.5024 663.918V682.304C91.4198 682.536 89.7764 682.807 87.5724 683.116C85.4071 683.464 82.9518 683.638 80.2064 683.638C78.3891 683.638 76.7264 683.464 75.2184 683.116C73.7104 682.768 72.4151 682.207 71.3324 681.434C70.2884 680.661 69.4571 679.655 68.8384 678.418C68.2584 677.181 67.9684 675.653 67.9684 673.836C67.9684 672.096 68.2971 670.627 68.9544 669.428C69.6504 668.229 70.5784 667.263 71.7384 666.528C72.8984 665.755 74.2324 665.213 75.7404 664.904C77.2871 664.556 78.8918 664.382 80.5544 664.382C81.3278 664.382 82.1398 664.44 82.9904 664.556C83.8411 664.633 84.7498 664.788 85.7164 665.02V663.86C85.7164 663.048 85.6198 662.275 85.4264 661.54C85.2331 660.805 84.8851 660.167 84.3824 659.626C83.9184 659.046 83.2804 658.601 82.4684 658.292C81.6951 657.983 80.7091 657.828 79.5104 657.828C77.8864 657.828 76.3978 657.944 75.0444 658.176C73.6911 658.408 72.5891 658.679 71.7384 658.988L70.8684 653.304C71.7578 652.995 73.0531 652.685 74.7544 652.376C76.4558 652.067 78.2731 651.912 80.2064 651.912ZM121.223 667.978C121.223 664.846 120.508 662.41 119.077 660.67C117.685 658.93 115.423 658.06 112.291 658.06C111.634 658.06 110.938 658.099 110.203 658.176C109.507 658.215 108.811 658.331 108.115 658.524V675.866C108.734 676.291 109.546 676.697 110.551 677.084C111.595 677.432 112.697 677.606 113.857 677.606C116.409 677.606 118.265 676.736 119.425 674.996C120.624 673.256 121.223 670.917 121.223 667.978ZM128.415 667.862C128.415 670.182 128.106 672.309 127.487 674.242C126.907 676.175 126.056 677.838 124.935 679.23C123.814 680.622 122.402 681.705 120.701 682.478C119.038 683.251 117.144 683.638 115.017 683.638C113.586 683.638 112.272 683.464 111.073 683.116C109.874 682.768 108.888 682.381 108.115 681.956V693.73H101.097V653.652C102.528 653.265 104.287 652.898 106.375 652.55C108.463 652.202 110.667 652.028 112.987 652.028C115.384 652.028 117.53 652.395 119.425 653.13C121.32 653.865 122.924 654.928 124.239 656.32C125.592 657.673 126.617 659.336 127.313 661.308C128.048 663.241 128.415 665.426 128.415 667.862Z" fill="#60195E"/>
<path d="M1330.56 667.918C1329.67 671.321 1328.71 674.646 1327.66 677.894C1326.66 681.103 1325.65 684.139 1324.65 687H1318.9C1318.13 685.221 1317.32 683.191 1316.47 680.91C1315.62 678.629 1314.77 676.193 1313.92 673.602C1313.07 671.011 1312.21 668.285 1311.36 665.424C1310.51 662.563 1309.68 659.643 1308.87 656.666H1316.29C1316.64 658.29 1317.05 660.049 1317.51 661.944C1317.98 663.8 1318.46 665.714 1318.96 667.686C1319.46 669.619 1319.99 671.514 1320.53 673.37C1321.07 675.226 1321.61 676.927 1322.15 678.474C1322.73 676.695 1323.29 674.859 1323.83 672.964C1324.41 671.069 1324.96 669.175 1325.46 667.28C1325.96 665.385 1326.42 663.549 1326.85 661.77C1327.31 659.953 1327.72 658.251 1328.07 656.666H1333.46C1333.81 658.251 1334.2 659.953 1334.62 661.77C1335.05 663.549 1335.49 665.385 1335.96 667.28C1336.46 669.175 1336.98 671.069 1337.52 672.964C1338.1 674.859 1338.68 676.695 1339.26 678.474C1339.76 676.927 1340.29 675.226 1340.83 673.37C1341.37 671.514 1341.89 669.619 1342.39 667.686C1342.94 665.714 1343.44 663.8 1343.9 661.944C1344.37 660.049 1344.77 658.29 1345.12 656.666H1352.37C1351.56 659.643 1350.73 662.563 1349.88 665.424C1349.03 668.285 1348.17 671.011 1347.32 673.602C1346.47 676.193 1345.62 678.629 1344.77 680.91C1343.92 683.191 1343.09 685.221 1342.28 687H1336.59C1335.59 684.139 1334.54 681.103 1333.46 677.894C1332.42 674.646 1331.45 671.321 1330.56 667.918ZM1375.01 662.988C1374.43 662.795 1373.61 662.601 1372.57 662.408C1371.56 662.176 1370.39 662.06 1369.03 662.06C1368.26 662.06 1367.43 662.137 1366.54 662.292C1365.69 662.447 1365.09 662.582 1364.74 662.698V687H1357.72V658.116C1359.08 657.613 1360.76 657.149 1362.77 656.724C1364.82 656.26 1367.08 656.028 1369.55 656.028C1370.02 656.028 1370.56 656.067 1371.18 656.144C1371.8 656.183 1372.42 656.26 1373.03 656.376C1373.65 656.453 1374.25 656.569 1374.83 656.724C1375.41 656.84 1375.88 656.956 1376.22 657.072L1375.01 662.988ZM1391.79 682.07C1393.95 682.07 1395.6 681.954 1396.72 681.722V673.95C1396.33 673.834 1395.77 673.718 1395.03 673.602C1394.3 673.486 1393.49 673.428 1392.6 673.428C1391.83 673.428 1391.03 673.486 1390.22 673.602C1389.45 673.718 1388.73 673.931 1388.07 674.24C1387.46 674.549 1386.95 674.994 1386.57 675.574C1386.18 676.115 1385.99 676.811 1385.99 677.662C1385.99 679.325 1386.51 680.485 1387.55 681.142C1388.6 681.761 1390.01 682.07 1391.79 682.07ZM1391.21 655.912C1393.53 655.912 1395.48 656.202 1397.06 656.782C1398.65 657.362 1399.91 658.174 1400.83 659.218C1401.8 660.262 1402.48 661.538 1402.86 663.046C1403.29 664.515 1403.5 666.139 1403.5 667.918V686.304C1402.42 686.536 1400.78 686.807 1398.57 687.116C1396.41 687.464 1393.95 687.638 1391.21 687.638C1389.39 687.638 1387.73 687.464 1386.22 687.116C1384.71 686.768 1383.42 686.207 1382.33 685.434C1381.29 684.661 1380.46 683.655 1379.84 682.418C1379.26 681.181 1378.97 679.653 1378.97 677.836C1378.97 676.096 1379.3 674.627 1379.95 673.428C1380.65 672.229 1381.58 671.263 1382.74 670.528C1383.9 669.755 1385.23 669.213 1386.74 668.904C1388.29 668.556 1389.89 668.382 1391.55 668.382C1392.33 668.382 1393.14 668.44 1393.99 668.556C1394.84 668.633 1395.75 668.788 1396.72 669.02V667.86C1396.72 667.048 1396.62 666.275 1396.43 665.54C1396.23 664.805 1395.89 664.167 1395.38 663.626C1394.92 663.046 1394.28 662.601 1393.47 662.292C1392.7 661.983 1391.71 661.828 1390.51 661.828C1388.89 661.828 1387.4 661.944 1386.04 662.176C1384.69 662.408 1383.59 662.679 1382.74 662.988L1381.87 657.304C1382.76 656.995 1384.05 656.685 1385.75 656.376C1387.46 656.067 1389.27 655.912 1391.21 655.912ZM1432.22 671.978C1432.22 668.846 1431.51 666.41 1430.08 664.67C1428.68 662.93 1426.42 662.06 1423.29 662.06C1422.63 662.06 1421.94 662.099 1421.2 662.176C1420.51 662.215 1419.81 662.331 1419.11 662.524V679.866C1419.73 680.291 1420.55 680.697 1421.55 681.084C1422.59 681.432 1423.7 681.606 1424.86 681.606C1427.41 681.606 1429.26 680.736 1430.42 678.996C1431.62 677.256 1432.22 674.917 1432.22 671.978ZM1439.41 671.862C1439.41 674.182 1439.11 676.309 1438.49 678.242C1437.91 680.175 1437.06 681.838 1435.93 683.23C1434.81 684.622 1433.4 685.705 1431.7 686.478C1430.04 687.251 1428.14 687.638 1426.02 687.638C1424.59 687.638 1423.27 687.464 1422.07 687.116C1420.87 686.768 1419.89 686.381 1419.11 685.956V697.73H1412.1V657.652C1413.53 657.265 1415.29 656.898 1417.37 656.55C1419.46 656.202 1421.67 656.028 1423.99 656.028C1426.38 656.028 1428.53 656.395 1430.42 657.13C1432.32 657.865 1433.92 658.928 1435.24 660.32C1436.59 661.673 1437.62 663.336 1438.31 665.308C1439.05 667.241 1439.41 669.426 1439.41 671.862ZM1443.52 667.222H1459.12V673.66H1443.52V667.222ZM1482.23 662.988C1481.65 662.795 1480.83 662.601 1479.79 662.408C1478.79 662.176 1477.61 662.06 1476.25 662.06C1475.48 662.06 1474.65 662.137 1473.76 662.292C1472.91 662.447 1472.31 662.582 1471.96 662.698V687H1464.94V658.116C1466.3 657.613 1467.98 657.149 1469.99 656.724C1472.04 656.26 1474.3 656.028 1476.77 656.028C1477.24 656.028 1477.78 656.067 1478.4 656.144C1479.02 656.183 1479.64 656.26 1480.25 656.376C1480.87 656.453 1481.47 656.569 1482.05 656.724C1482.63 656.84 1483.1 656.956 1483.44 657.072L1482.23 662.988ZM1486.65 671.978C1486.65 669.31 1487.04 666.971 1487.81 664.96C1488.63 662.949 1489.69 661.287 1491 659.972C1492.32 658.619 1493.83 657.613 1495.53 656.956C1497.23 656.26 1498.97 655.912 1500.75 655.912C1504.92 655.912 1508.17 657.207 1510.49 659.798C1512.85 662.389 1514.03 666.255 1514.03 671.398C1514.03 671.785 1514.01 672.229 1513.97 672.732C1513.97 673.196 1513.95 673.621 1513.91 674.008H1493.9C1494.1 676.444 1494.95 678.339 1496.46 679.692C1498 681.007 1500.23 681.664 1503.13 681.664C1504.83 681.664 1506.37 681.509 1507.77 681.2C1509.2 680.891 1510.32 680.562 1511.13 680.214L1512.06 685.956C1511.67 686.149 1511.13 686.362 1510.43 686.594C1509.78 686.787 1509 686.961 1508.11 687.116C1507.26 687.309 1506.33 687.464 1505.33 687.58C1504.32 687.696 1503.3 687.754 1502.26 687.754C1499.59 687.754 1497.27 687.367 1495.3 686.594C1493.32 685.782 1491.7 684.68 1490.42 683.288C1489.15 681.857 1488.2 680.195 1487.58 678.3C1486.96 676.367 1486.65 674.259 1486.65 671.978ZM1507.01 668.846C1507.01 667.879 1506.88 666.971 1506.61 666.12C1506.33 665.231 1505.93 664.477 1505.39 663.858C1504.88 663.201 1504.25 662.698 1503.47 662.35C1502.74 661.963 1501.85 661.77 1500.81 661.77C1499.72 661.77 1498.78 661.983 1497.96 662.408C1497.15 662.795 1496.46 663.317 1495.88 663.974C1495.33 664.631 1494.91 665.385 1494.6 666.236C1494.29 667.087 1494.08 667.957 1493.96 668.846H1507.01ZM1529.24 687C1527.31 683.017 1525.32 678.455 1523.27 673.312C1521.26 668.131 1519.42 662.582 1517.76 656.666H1525.24C1525.67 658.367 1526.15 660.204 1526.69 662.176C1527.27 664.109 1527.87 666.062 1528.49 668.034C1529.15 669.967 1529.8 671.862 1530.46 673.718C1531.16 675.535 1531.79 677.179 1532.37 678.648C1532.95 677.179 1533.57 675.535 1534.23 673.718C1534.89 671.862 1535.53 669.967 1536.14 668.034C1536.8 666.062 1537.42 664.109 1538 662.176C1538.58 660.204 1539.08 658.367 1539.51 656.666H1546.76C1545.1 662.582 1543.24 668.131 1541.19 673.312C1539.18 678.455 1537.21 683.017 1535.27 687H1529.24ZM1549.64 671.978C1549.64 669.31 1550.02 666.971 1550.8 664.96C1551.61 662.949 1552.67 661.287 1553.99 659.972C1555.3 658.619 1556.81 657.613 1558.51 656.956C1560.21 656.26 1561.95 655.912 1563.73 655.912C1567.91 655.912 1571.16 657.207 1573.48 659.798C1575.83 662.389 1577.01 666.255 1577.01 671.398C1577.01 671.785 1576.99 672.229 1576.96 672.732C1576.96 673.196 1576.94 673.621 1576.9 674.008H1556.89C1557.08 676.444 1557.93 678.339 1559.44 679.692C1560.99 681.007 1563.21 681.664 1566.11 681.664C1567.81 681.664 1569.36 681.509 1570.75 681.2C1572.18 680.891 1573.3 680.562 1574.11 680.214L1575.04 685.956C1574.65 686.149 1574.11 686.362 1573.42 686.594C1572.76 686.787 1571.99 686.961 1571.1 687.116C1570.25 687.309 1569.32 687.464 1568.31 687.58C1567.31 687.696 1566.28 687.754 1565.24 687.754C1562.57 687.754 1560.25 687.367 1558.28 686.594C1556.31 685.782 1554.68 684.68 1553.41 683.288C1552.13 681.857 1551.18 680.195 1550.57 678.3C1549.95 676.367 1549.64 674.259 1549.64 671.978ZM1570 668.846C1570 667.879 1569.86 666.971 1569.59 666.12C1569.32 665.231 1568.91 664.477 1568.37 663.858C1567.87 663.201 1567.23 662.698 1566.46 662.35C1565.72 661.963 1564.83 661.77 1563.79 661.77C1562.71 661.77 1561.76 661.983 1560.95 662.408C1560.14 662.795 1559.44 663.317 1558.86 663.974C1558.32 664.631 1557.89 665.385 1557.58 666.236C1557.27 667.087 1557.06 667.957 1556.95 668.846H1570ZM1601.74 662.988C1601.16 662.795 1600.35 662.601 1599.3 662.408C1598.3 662.176 1597.12 662.06 1595.76 662.06C1594.99 662.06 1594.16 662.137 1593.27 662.292C1592.42 662.447 1591.82 662.582 1591.47 662.698V687H1584.45V658.116C1585.81 657.613 1587.49 657.149 1589.5 656.724C1591.55 656.26 1593.81 656.028 1596.29 656.028C1596.75 656.028 1597.29 656.067 1597.91 656.144C1598.53 656.183 1599.15 656.26 1599.77 656.376C1600.38 656.453 1600.98 656.569 1601.56 656.724C1602.14 656.84 1602.61 656.956 1602.96 657.072L1601.74 662.988ZM1615.44 681.954C1617.3 681.954 1618.65 681.741 1619.5 681.316C1620.36 680.852 1620.78 680.079 1620.78 678.996C1620.78 677.991 1620.32 677.159 1619.39 676.502C1618.5 675.845 1617.01 675.129 1614.92 674.356C1613.65 673.892 1612.47 673.409 1611.38 672.906C1610.34 672.365 1609.43 671.746 1608.66 671.05C1607.89 670.354 1607.27 669.523 1606.8 668.556C1606.38 667.551 1606.16 666.333 1606.16 664.902C1606.16 662.118 1607.19 659.933 1609.24 658.348C1611.29 656.724 1614.07 655.912 1617.59 655.912C1619.37 655.912 1621.07 656.086 1622.69 656.434C1624.32 656.743 1625.54 657.053 1626.35 657.362L1625.07 663.046C1624.3 662.698 1623.31 662.389 1622.11 662.118C1620.92 661.809 1619.52 661.654 1617.94 661.654C1616.51 661.654 1615.35 661.905 1614.46 662.408C1613.57 662.872 1613.12 663.607 1613.12 664.612C1613.12 665.115 1613.2 665.559 1613.36 665.946C1613.55 666.333 1613.86 666.7 1614.28 667.048C1614.71 667.357 1615.27 667.686 1615.97 668.034C1616.66 668.343 1617.51 668.672 1618.52 669.02C1620.18 669.639 1621.59 670.257 1622.75 670.876C1623.91 671.456 1624.86 672.133 1625.59 672.906C1626.37 673.641 1626.93 674.491 1627.28 675.458C1627.62 676.425 1627.8 677.585 1627.8 678.938C1627.8 681.838 1626.72 684.042 1624.55 685.55C1622.42 687.019 1619.37 687.754 1615.39 687.754C1612.72 687.754 1610.57 687.522 1608.95 687.058C1607.32 686.633 1606.18 686.285 1605.53 686.014L1606.74 680.156C1607.79 680.581 1609.03 680.987 1610.46 681.374C1611.93 681.761 1613.59 681.954 1615.44 681.954ZM1632.67 671.978C1632.67 669.31 1633.06 666.971 1633.83 664.96C1634.64 662.949 1635.71 661.287 1637.02 659.972C1638.34 658.619 1639.85 657.613 1641.55 656.956C1643.25 656.26 1644.99 655.912 1646.77 655.912C1650.94 655.912 1654.19 657.207 1656.51 659.798C1658.87 662.389 1660.05 666.255 1660.05 671.398C1660.05 671.785 1660.03 672.229 1659.99 672.732C1659.99 673.196 1659.97 673.621 1659.93 674.008H1639.92C1640.12 676.444 1640.97 678.339 1642.47 679.692C1644.02 681.007 1646.24 681.664 1649.14 681.664C1650.85 681.664 1652.39 681.509 1653.78 681.2C1655.22 680.891 1656.34 680.562 1657.15 680.214L1658.08 685.956C1657.69 686.149 1657.15 686.362 1656.45 686.594C1655.8 686.787 1655.02 686.961 1654.13 687.116C1653.28 687.309 1652.35 687.464 1651.35 687.58C1650.34 687.696 1649.32 687.754 1648.27 687.754C1645.61 687.754 1643.29 687.367 1641.31 686.594C1639.34 685.782 1637.72 684.68 1636.44 683.288C1635.17 681.857 1634.22 680.195 1633.6 678.3C1632.98 676.367 1632.67 674.259 1632.67 671.978ZM1653.03 668.846C1653.03 667.879 1652.9 666.971 1652.62 666.12C1652.35 665.231 1651.95 664.477 1651.41 663.858C1650.9 663.201 1650.27 662.698 1649.49 662.35C1648.76 661.963 1647.87 661.77 1646.82 661.77C1645.74 661.77 1644.79 661.983 1643.98 662.408C1643.17 662.795 1642.47 663.317 1641.89 663.974C1641.35 664.631 1640.93 665.385 1640.62 666.236C1640.31 667.087 1640.1 667.957 1639.98 668.846H1653.03Z" fill="#60195E"/>
<line x1="-5.68248e-07" y1="233.5" x2="1121" y2="233.5" stroke="#60195E" stroke-width="13"/>
<line x1="-5.68248e-07" y1="233.5" x2="1121" y2="233.5" stroke="black" stroke-opacity="0.2" stroke-width="13"/>
</g>
<defs>
<clipPath id="clip0_20_349">
<rect width="2419" height="1227" fill="white"/>
</clipPath>
</defs>
</svg>
