<svg width="2645" height="1227" viewBox="0 0 2645 1227" fill="none" xmlns="http://www.w3.org/2000/svg">
<rect width="2645" height="1227" fill="white"/>
<path d="M1421.5 324C1421.5 314.335 1429.34 306.5 1439 306.5H2510C2519.66 306.5 2527.5 314.335 2527.5 324V503.963C2527.5 513.628 2519.66 521.463 2510 521.463H1439C1429.34 521.463 1421.5 513.628 1421.5 503.963V324Z" fill="#C4C4C4" stroke="#C4C4C4" stroke-width="5"/>
<path d="M2364.5 345C2364.5 335.335 2372.34 327.5 2382 327.5H2484C2493.66 327.5 2501.5 335.335 2501.5 345V481C2501.5 490.665 2493.66 498.5 2484 498.5H2382C2372.34 498.5 2364.5 490.665 2364.5 481V345Z" fill="#E6E6E6" stroke="#60195E" stroke-width="5"/>
<path d="M2211.5 346C2211.5 336.335 2219.34 328.5 2229 328.5H2331C2340.66 328.5 2348.5 336.335 2348.5 346V482C2348.5 491.665 2340.66 499.5 2331 499.5H2229C2219.34 499.5 2211.5 491.665 2211.5 482V346Z" fill="#E6E6E6" stroke="#60195E" stroke-width="5"/>
<path d="M2058.5 346C2058.5 336.335 2066.34 328.5 2076 328.5H2178C2187.66 328.5 2195.5 336.335 2195.5 346V481C2195.5 490.665 2187.66 498.5 2178 498.5H2076C2066.34 498.5 2058.5 490.665 2058.5 481V346Z" fill="#E6E6E6" stroke="#60195E" stroke-width="5"/>
<path d="M1600.5 346C1600.5 336.335 1608.34 328.5 1618 328.5H1720C1729.66 328.5 1737.5 336.335 1737.5 346V482C1737.5 491.665 1729.66 499.5 1720 499.5H1618C1608.34 499.5 1600.5 491.665 1600.5 482V346Z" fill="#E6E6E6" stroke="#60195E" stroke-width="5"/>
<path d="M1906.5 346C1906.5 336.335 1914.34 328.5 1924 328.5H2025C2034.66 328.5 2042.5 336.335 2042.5 346V482C2042.5 491.665 2034.66 499.5 2025 499.5H1924C1914.34 499.5 1906.5 491.665 1906.5 482V346Z" fill="#E6E6E6" stroke="#60195E" stroke-width="5"/>
<path d="M1753.5 346C1753.5 336.335 1761.34 328.5 1771 328.5H1873C1882.66 328.5 1890.5 336.335 1890.5 346V481C1890.5 490.665 1882.66 498.5 1873 498.5H1771C1761.34 498.5 1753.5 490.665 1753.5 481V346Z" fill="#E6E6E6" stroke="#60195E" stroke-width="5"/>
<path d="M1447.5 346C1447.5 336.335 1455.34 328.5 1465 328.5H1567C1576.66 328.5 1584.5 336.335 1584.5 346V482C1584.5 491.665 1576.66 499.5 1567 499.5H1465C1455.34 499.5 1447.5 491.665 1447.5 482V346Z" fill="#E6E6E6" stroke="#60195E" stroke-width="5"/>
<path d="M1522.07 436H1516.44V398.673L1505.15 402.82V397.734L1521.19 391.71H1522.07V436Z" fill="#60195E"/>
<path d="M1682.54 436H1653.66V431.974L1668.92 415.021C1671.18 412.457 1672.74 410.379 1673.58 408.784C1674.45 407.17 1674.88 405.505 1674.88 403.789C1674.88 401.488 1674.19 399.601 1672.8 398.128C1671.4 396.655 1669.55 395.918 1667.23 395.918C1664.44 395.918 1662.27 396.715 1660.72 398.31C1659.18 399.884 1658.42 402.084 1658.42 404.909H1652.82C1652.82 400.853 1654.12 397.573 1656.72 395.07C1659.34 392.568 1662.85 391.316 1667.23 391.316C1671.32 391.316 1674.56 392.396 1676.94 394.556C1679.32 396.695 1680.52 399.551 1680.52 403.123C1680.52 407.462 1677.75 412.629 1672.22 418.623L1660.41 431.429H1682.54V436Z" fill="#60195E"/>
<path d="M1814.81 411.236H1819.01C1821.66 411.196 1823.74 410.5 1825.25 409.147C1826.76 407.795 1827.52 405.969 1827.52 403.668C1827.52 398.501 1824.95 395.918 1819.8 395.918C1817.38 395.918 1815.44 396.614 1813.99 398.007C1812.56 399.379 1811.84 401.206 1811.84 403.486H1806.24C1806.24 399.995 1807.51 397.099 1810.05 394.798C1812.62 392.477 1815.87 391.316 1819.8 391.316C1823.96 391.316 1827.22 392.416 1829.58 394.616C1831.94 396.816 1833.12 399.874 1833.12 403.789C1833.12 405.706 1832.5 407.563 1831.25 409.359C1830.01 411.156 1828.33 412.498 1826.19 413.386C1828.61 414.153 1830.48 415.424 1831.79 417.2C1833.12 418.976 1833.79 421.146 1833.79 423.709C1833.79 427.665 1832.5 430.803 1829.91 433.124C1827.33 435.445 1823.97 436.605 1819.83 436.605C1815.69 436.605 1812.32 435.485 1809.72 433.245C1807.14 431.005 1805.85 428.048 1805.85 424.375H1811.48C1811.48 426.696 1812.23 428.553 1813.75 429.945C1815.26 431.338 1817.29 432.034 1819.83 432.034C1822.54 432.034 1824.61 431.328 1826.04 429.915C1827.47 428.502 1828.19 426.474 1828.19 423.83C1828.19 421.267 1827.4 419.299 1825.83 417.927C1824.25 416.554 1821.98 415.848 1819.01 415.808H1814.81V411.236Z" fill="#60195E"/>
<path d="M1987.31 421.196H1993.42V425.768H1987.31V436H1981.68V425.768H1961.6V422.468L1981.34 391.922H1987.31V421.196ZM1967.96 421.196H1981.68V399.581L1981.01 400.792L1967.96 421.196Z" fill="#60195E"/>
<path d="M2114.24 413.9L2116.48 391.922H2139.06V397.099H2121.23L2119.9 409.117C2122.06 407.846 2124.51 407.21 2127.25 407.21C2131.27 407.21 2134.46 408.542 2136.82 411.206C2139.18 413.85 2140.36 417.432 2140.36 421.953C2140.36 426.494 2139.13 430.076 2136.67 432.7C2134.23 435.304 2130.81 436.605 2126.41 436.605C2122.51 436.605 2119.33 435.526 2116.87 433.366C2114.41 431.207 2113.01 428.22 2112.66 424.405H2117.96C2118.3 426.928 2119.2 428.835 2120.65 430.127C2122.11 431.398 2124.02 432.034 2126.41 432.034C2129.01 432.034 2131.05 431.146 2132.52 429.37C2134.01 427.594 2134.76 425.142 2134.76 422.014C2134.76 419.067 2133.95 416.706 2132.34 414.93C2130.75 413.133 2128.62 412.235 2125.95 412.235C2123.51 412.235 2121.59 412.77 2120.2 413.84L2118.72 415.051L2114.24 413.9Z" fill="#60195E"/>
<path d="M2286.64 391.892V396.645H2285.61C2281.25 396.725 2277.78 398.017 2275.2 400.52C2272.61 403.022 2271.12 406.544 2270.72 411.085C2273.04 408.421 2276.21 407.089 2280.22 407.089C2284.06 407.089 2287.12 408.441 2289.4 411.146C2291.7 413.85 2292.85 417.341 2292.85 421.62C2292.85 426.161 2291.61 429.794 2289.12 432.519C2286.66 435.243 2283.35 436.605 2279.19 436.605C2274.98 436.605 2271.56 434.991 2268.93 431.762C2266.31 428.512 2265 424.335 2265 419.229V417.079C2265 408.966 2266.72 402.77 2270.17 398.491C2273.64 394.192 2278.8 391.993 2285.64 391.892H2286.64ZM2279.29 411.751C2277.37 411.751 2275.6 412.326 2273.99 413.477C2272.37 414.627 2271.25 416.07 2270.63 417.806V419.864C2270.63 423.497 2271.44 426.424 2273.08 428.644C2274.71 430.864 2276.75 431.974 2279.19 431.974C2281.72 431.974 2283.69 431.045 2285.13 429.188C2286.58 427.332 2287.31 424.9 2287.31 421.893C2287.31 418.865 2286.57 416.423 2285.1 414.566C2283.64 412.689 2281.71 411.751 2279.29 411.751Z" fill="#60195E"/>
<path d="M2446.12 395.07L2427.87 436H2421.99L2440.19 396.523H2416.33V391.922H2446.12V395.07Z" fill="#60195E"/>
<path d="M110.5 728C110.5 718.335 118.335 710.5 128 710.5H1199C1208.66 710.5 1216.5 718.335 1216.5 728V1105C1216.5 1114.66 1208.66 1122.5 1199 1122.5H128C118.335 1122.5 110.5 1114.66 110.5 1105V728Z" fill="#C4C4C4" stroke="#C4C4C4" stroke-width="5"/>
<path d="M1016.45 750.369C1016.45 740.704 1024.28 732.869 1033.95 732.869H1172.9C1182.57 732.869 1190.4 740.704 1190.4 750.369V885.594C1190.4 895.259 1182.57 903.094 1172.9 903.094H1033.95C1024.28 903.094 1016.45 895.259 1016.45 885.594V750.369Z" fill="#E6E6E6" stroke="#60195E" stroke-width="5"/>
<path d="M796.487 750.369C796.487 740.704 804.322 732.869 813.987 732.869H952.94C962.605 732.869 970.44 740.704 970.44 750.369V885.594C970.44 895.259 962.605 903.094 952.94 903.094H813.987C804.322 903.094 796.487 895.259 796.487 885.594V750.369Z" fill="#E6E6E6" stroke="#60195E" stroke-width="5"/>
<path d="M356.463 948C356.463 938.335 364.298 930.5 373.963 930.5H512.916C522.581 930.5 530.416 938.335 530.416 948V1083.22C530.416 1092.89 522.581 1100.72 512.916 1100.72H373.963C364.298 1100.72 356.463 1092.89 356.463 1083.22V948Z" fill="#E6E6E6" stroke="#60195E" stroke-width="5"/>
<path d="M136.5 948C136.5 938.335 144.335 930.5 154 930.5H292.953C302.618 930.5 310.453 938.335 310.453 948V1083.22C310.453 1092.89 302.618 1100.72 292.953 1100.72H154C144.335 1100.72 136.5 1092.89 136.5 1083.22V948Z" fill="#E6E6E6" stroke="#60195E" stroke-width="5"/>
<path d="M356.56 750.369C356.56 740.704 364.395 732.869 374.06 732.869H513.013C522.678 732.869 530.513 740.704 530.513 750.369V885.594C530.513 895.259 522.678 903.094 513.013 903.094H374.06C364.395 903.094 356.56 895.259 356.56 885.594V750.369Z" fill="#E6E6E6" stroke="#60195E" stroke-width="5"/>
<path d="M576.523 750.369C576.523 740.704 584.358 732.869 594.023 732.869H732.976C742.641 732.869 750.476 740.704 750.476 750.369V885.594C750.476 895.259 742.641 903.094 732.976 903.094H594.023C584.358 903.094 576.523 895.259 576.523 885.594V750.369Z" fill="#E6E6E6" stroke="#60195E" stroke-width="5"/>
<path d="M136.597 750.369C136.597 740.704 144.432 732.869 154.097 732.869H293.05C302.715 732.869 310.55 740.704 310.55 750.369V885.594C310.55 895.259 302.715 903.094 293.05 903.094H154.097C144.432 903.094 136.597 895.259 136.597 885.594V750.369Z" fill="#E6E6E6" stroke="#60195E" stroke-width="5"/>
<path d="M227.069 843H221.438V805.673L210.146 809.82V804.734L226.191 798.71H227.069V843Z" fill="#60195E"/>
<path d="M457.544 843H428.663V838.974L443.921 822.021C446.181 819.457 447.735 817.379 448.583 815.784C449.451 814.17 449.885 812.505 449.885 810.789C449.885 808.488 449.188 806.601 447.796 805.128C446.403 803.655 444.547 802.918 442.226 802.918C439.44 802.918 437.271 803.715 435.717 805.31C434.183 806.884 433.416 809.084 433.416 811.909H427.815C427.815 807.853 429.117 804.573 431.721 802.07C434.344 799.568 437.846 798.316 442.226 798.316C446.323 798.316 449.562 799.396 451.943 801.556C454.325 803.695 455.516 806.551 455.516 810.123C455.516 814.462 452.751 819.629 447.221 825.623L435.414 838.429H457.544V843Z" fill="#60195E"/>
<path d="M655.807 818.236H660.015C662.659 818.196 664.737 817.5 666.251 816.147C667.765 814.795 668.521 812.969 668.521 810.668C668.521 805.501 665.948 802.918 660.802 802.918C658.38 802.918 656.442 803.614 654.989 805.007C653.556 806.379 652.84 808.206 652.84 810.486H647.239C647.239 806.995 648.511 804.099 651.054 801.798C653.617 799.477 656.866 798.316 660.802 798.316C664.959 798.316 668.219 799.416 670.58 801.616C672.941 803.816 674.122 806.874 674.122 810.789C674.122 812.706 673.496 814.563 672.245 816.359C671.014 818.156 669.329 819.498 667.189 820.386C669.611 821.153 671.478 822.424 672.79 824.2C674.122 825.976 674.788 828.146 674.788 830.709C674.788 834.665 673.496 837.803 670.913 840.124C668.33 842.445 664.969 843.605 660.832 843.605C656.695 843.605 653.324 842.485 650.721 840.245C648.137 838.005 646.846 835.048 646.846 831.375H652.477C652.477 833.696 653.233 835.553 654.747 836.945C656.261 838.338 658.289 839.034 660.832 839.034C663.536 839.034 665.605 838.328 667.038 836.915C668.471 835.502 669.188 833.474 669.188 830.83C669.188 828.267 668.4 826.299 666.826 824.927C665.252 823.554 662.981 822.848 660.015 822.808H655.807V818.236Z" fill="#60195E"/>
<path d="M891.307 828.196H897.422V832.768H891.307V843H885.676V832.768H865.604V829.468L885.343 798.922H891.307V828.196ZM871.962 828.196H885.676V806.581L885.01 807.792L871.962 828.196Z" fill="#60195E"/>
<path d="M1090.24 824.9L1092.48 802.922H1115.06V808.099H1097.23L1095.9 820.117C1098.06 818.846 1100.51 818.21 1103.25 818.21C1107.27 818.21 1110.46 819.542 1112.82 822.206C1115.18 824.85 1116.36 828.432 1116.36 832.953C1116.36 837.494 1115.13 841.076 1112.67 843.7C1110.23 846.304 1106.81 847.605 1102.41 847.605C1098.51 847.605 1095.33 846.526 1092.87 844.366C1090.41 842.207 1089.01 839.22 1088.66 835.405H1093.96C1094.3 837.928 1095.2 839.835 1096.65 841.127C1098.11 842.398 1100.02 843.034 1102.41 843.034C1105.01 843.034 1107.05 842.146 1108.52 840.37C1110.01 838.594 1110.76 836.142 1110.76 833.014C1110.76 830.067 1109.95 827.706 1108.34 825.93C1106.75 824.133 1104.62 823.235 1101.95 823.235C1099.51 823.235 1097.59 823.77 1096.2 824.84L1094.72 826.051L1090.24 824.9Z" fill="#60195E"/>
<path d="M229.642 996.892V1001.64H228.612C224.253 1001.73 220.782 1003.02 218.198 1005.52C215.615 1008.02 214.121 1011.54 213.718 1016.08C216.039 1013.42 219.207 1012.09 223.224 1012.09C227.058 1012.09 230.116 1013.44 232.396 1016.15C234.697 1018.85 235.848 1022.34 235.848 1026.62C235.848 1031.16 234.606 1034.79 232.124 1037.52C229.662 1040.24 226.352 1041.61 222.194 1041.61C217.976 1041.61 214.555 1039.99 211.932 1036.76C209.308 1033.51 207.996 1029.33 207.996 1024.23V1022.08C207.996 1013.97 209.722 1007.77 213.173 1003.49C216.644 999.192 221.801 996.993 228.643 996.892H229.642ZM222.285 1016.75C220.368 1016.75 218.602 1017.33 216.987 1018.48C215.373 1019.63 214.253 1021.07 213.627 1022.81V1024.86C213.627 1028.5 214.444 1031.42 216.079 1033.64C217.714 1035.86 219.752 1036.97 222.194 1036.97C224.717 1036.97 226.695 1036.05 228.128 1034.19C229.581 1032.33 230.308 1029.9 230.308 1026.89C230.308 1023.87 229.571 1021.42 228.098 1019.57C226.645 1017.69 224.707 1016.75 222.285 1016.75Z" fill="#60195E"/>
<path d="M457.12 1000.07L438.865 1041H432.992L451.187 1001.52H427.331V996.922H457.12V1000.07Z" fill="#60195E"/>
<path d="M1421.5 728C1421.5 718.335 1429.34 710.5 1439 710.5H2510C2519.66 710.5 2527.5 718.335 2527.5 728V1105C2527.5 1114.66 2519.66 1122.5 2510 1122.5H1439C1429.34 1122.5 1421.5 1114.66 1421.5 1105V728Z" fill="#C4C4C4" stroke="#C4C4C4" stroke-width="5"/>
<path d="M2327.43 948C2327.43 938.335 2335.26 930.5 2344.93 930.5H2483.88C2493.54 930.5 2501.38 938.335 2501.38 948V1083.22C2501.38 1092.89 2493.54 1100.72 2483.88 1100.72H2344.93C2335.26 1100.72 2327.43 1092.89 2327.43 1083.22V948Z" fill="#E6E6E6" stroke="#60195E" stroke-width="5"/>
<path d="M2107.46 948C2107.46 938.335 2115.3 930.5 2124.96 930.5H2263.92C2273.58 930.5 2281.42 938.335 2281.42 948V1083.22C2281.42 1092.89 2273.58 1100.72 2263.92 1100.72H2124.96C2115.3 1100.72 2107.46 1092.89 2107.46 1083.22V948Z" fill="#E6E6E6" stroke="#60195E" stroke-width="5"/>
<path d="M1667.46 948C1667.46 938.335 1675.3 930.5 1684.96 930.5H1823.92C1833.58 930.5 1841.42 938.335 1841.42 948V1083.22C1841.42 1092.89 1833.58 1100.72 1823.92 1100.72H1684.96C1675.3 1100.72 1667.46 1092.89 1667.46 1083.22V948Z" fill="#E6E6E6" stroke="#60195E" stroke-width="5"/>
<path d="M1447.5 948C1447.5 938.335 1455.34 930.5 1465 930.5H1603.95C1613.62 930.5 1621.45 938.335 1621.45 948V1083.22C1621.45 1092.89 1613.62 1100.72 1603.95 1100.72H1465C1455.34 1100.72 1447.5 1092.89 1447.5 1083.22V948Z" fill="#E6E6E6" stroke="#60195E" stroke-width="5"/>
<path d="M1667.56 750.369C1667.56 740.704 1675.4 732.869 1685.06 732.869H1824.01C1833.68 732.869 1841.51 740.704 1841.51 750.369V885.594C1841.51 895.259 1833.68 903.094 1824.01 903.094H1685.06C1675.4 903.094 1667.56 895.259 1667.56 885.594V750.369Z" fill="#E6E6E6" stroke="#60195E" stroke-width="5"/>
<path d="M1887.5 948C1887.5 938.335 1895.34 930.5 1905 930.5H2043.95C2053.62 930.5 2061.45 938.335 2061.45 948V1083.22C2061.45 1092.89 2053.62 1100.72 2043.95 1100.72H1905C1895.34 1100.72 1887.5 1092.89 1887.5 1083.22V948Z" fill="#E6E6E6" stroke="#60195E" stroke-width="5"/>
<path d="M1447.6 750.369C1447.6 740.704 1455.43 732.869 1465.1 732.869H1604.05C1613.72 732.869 1621.55 740.704 1621.55 750.369V885.594C1621.55 895.259 1613.72 903.094 1604.05 903.094H1465.1C1455.43 903.094 1447.6 895.259 1447.6 885.594V750.369Z" fill="#E6E6E6" stroke="#60195E" stroke-width="5"/>
<path d="M1539.64 794.892V799.645H1538.61C1534.25 799.725 1530.78 801.017 1528.2 803.52C1525.61 806.022 1524.12 809.544 1523.72 814.085C1526.04 811.421 1529.21 810.089 1533.22 810.089C1537.06 810.089 1540.12 811.441 1542.4 814.146C1544.7 816.85 1545.85 820.341 1545.85 824.62C1545.85 829.161 1544.61 832.794 1542.12 835.519C1539.66 838.243 1536.35 839.605 1532.19 839.605C1527.98 839.605 1524.56 837.991 1521.93 834.762C1519.31 831.512 1518 827.335 1518 822.229V820.079C1518 811.966 1519.72 805.77 1523.17 801.491C1526.64 797.192 1531.8 794.993 1538.64 794.892H1539.64ZM1532.29 814.751C1530.37 814.751 1528.6 815.326 1526.99 816.477C1525.37 817.627 1524.25 819.07 1523.63 820.806V822.864C1523.63 826.497 1524.44 829.424 1526.08 831.644C1527.71 833.864 1529.75 834.974 1532.19 834.974C1534.72 834.974 1536.69 834.045 1538.13 832.188C1539.58 830.332 1540.31 827.9 1540.31 824.893C1540.31 821.865 1539.57 819.423 1538.1 817.566C1536.64 815.689 1534.71 814.751 1532.29 814.751Z" fill="#60195E"/>
<path d="M1767.12 798.07L1748.87 839H1742.99L1761.19 799.523H1737.33V794.922H1767.12V798.07Z" fill="#60195E"/>
<path d="M1537.07 1039H1531.44V1001.67L1520.15 1005.82V1000.73L1536.19 994.71H1537.07V1039Z" fill="#60195E"/>
<path d="M1767.54 1039H1738.66V1034.97L1753.92 1018.02C1756.18 1015.46 1757.74 1013.38 1758.58 1011.78C1759.45 1010.17 1759.88 1008.5 1759.88 1006.79C1759.88 1004.49 1759.19 1002.6 1757.8 1001.13C1756.4 999.655 1754.55 998.918 1752.23 998.918C1749.44 998.918 1747.27 999.715 1745.72 1001.31C1744.18 1002.88 1743.42 1005.08 1743.42 1007.91H1737.82C1737.82 1003.85 1739.12 1000.57 1741.72 998.07C1744.34 995.568 1747.85 994.316 1752.23 994.316C1756.32 994.316 1759.56 995.396 1761.94 997.556C1764.32 999.695 1765.52 1002.55 1765.52 1006.12C1765.52 1010.46 1762.75 1015.63 1757.22 1021.62L1745.41 1034.43H1767.54V1039Z" fill="#60195E"/>
<path d="M1965.81 1014.24H1970.01C1972.66 1014.2 1974.74 1013.5 1976.25 1012.15C1977.76 1010.8 1978.52 1008.97 1978.52 1006.67C1978.52 1001.5 1975.95 998.918 1970.8 998.918C1968.38 998.918 1966.44 999.614 1964.99 1001.01C1963.56 1002.38 1962.84 1004.21 1962.84 1006.49H1957.24C1957.24 1002.99 1958.51 1000.1 1961.05 997.798C1963.62 995.477 1966.87 994.316 1970.8 994.316C1974.96 994.316 1978.22 995.416 1980.58 997.616C1982.94 999.816 1984.12 1002.87 1984.12 1006.79C1984.12 1008.71 1983.5 1010.56 1982.25 1012.36C1981.01 1014.16 1979.33 1015.5 1977.19 1016.39C1979.61 1017.15 1981.48 1018.42 1982.79 1020.2C1984.12 1021.98 1984.79 1024.15 1984.79 1026.71C1984.79 1030.66 1983.5 1033.8 1980.91 1036.12C1978.33 1038.44 1974.97 1039.61 1970.83 1039.61C1966.69 1039.61 1963.32 1038.49 1960.72 1036.25C1958.14 1034 1956.85 1031.05 1956.85 1027.38H1962.48C1962.48 1029.7 1963.23 1031.55 1964.75 1032.95C1966.26 1034.34 1968.29 1035.03 1970.83 1035.03C1973.54 1035.03 1975.61 1034.33 1977.04 1032.92C1978.47 1031.5 1979.19 1029.47 1979.19 1026.83C1979.19 1024.27 1978.4 1022.3 1976.83 1020.93C1975.25 1019.55 1972.98 1018.85 1970.01 1018.81H1965.81V1014.24Z" fill="#60195E"/>
<path d="M2201.31 1024.2H2207.42V1028.77H2201.31V1039H2195.68V1028.77H2175.6V1025.47L2195.34 994.922H2201.31V1024.2ZM2181.96 1024.2H2195.68V1002.58L2195.01 1003.79L2181.96 1024.2Z" fill="#60195E"/>
<path d="M2400.24 1020.9L2402.48 998.922H2425.06V1004.1H2407.23L2405.9 1016.12C2408.06 1014.85 2410.51 1014.21 2413.25 1014.21C2417.27 1014.21 2420.46 1015.54 2422.82 1018.21C2425.18 1020.85 2426.36 1024.43 2426.36 1028.95C2426.36 1033.49 2425.13 1037.08 2422.67 1039.7C2420.23 1042.3 2416.81 1043.61 2412.41 1043.61C2408.51 1043.61 2405.33 1042.53 2402.87 1040.37C2400.41 1038.21 2399.01 1035.22 2398.66 1031.41H2403.96C2404.3 1033.93 2405.2 1035.84 2406.65 1037.13C2408.11 1038.4 2410.02 1039.03 2412.41 1039.03C2415.01 1039.03 2417.05 1038.15 2418.52 1036.37C2420.01 1034.59 2420.76 1032.14 2420.76 1029.01C2420.76 1026.07 2419.95 1023.71 2418.34 1021.93C2416.75 1020.13 2414.62 1019.24 2411.95 1019.24C2409.51 1019.24 2407.59 1019.77 2406.2 1020.84L2404.72 1022.05L2400.24 1020.9Z" fill="#60195E"/>
<path d="M149.122 167.758C147.619 173.507 145.986 179.126 144.222 184.614C142.523 190.037 140.825 195.165 139.126 200H129.424C128.117 196.995 126.745 193.565 125.308 189.71C123.871 185.855 122.433 181.739 120.996 177.362C119.559 172.985 118.121 168.379 116.684 163.544C115.247 158.709 113.842 153.777 112.47 148.746H125.014C125.602 151.49 126.288 154.463 127.072 157.664C127.856 160.8 128.673 164.034 129.522 167.366C130.371 170.633 131.253 173.834 132.168 176.97C133.083 180.106 133.997 182.981 134.912 185.594C135.892 182.589 136.839 179.485 137.754 176.284C138.734 173.083 139.649 169.881 140.498 166.68C141.347 163.479 142.131 160.375 142.85 157.37C143.634 154.299 144.32 151.425 144.908 148.746H154.022C154.61 151.425 155.263 154.299 155.982 157.37C156.701 160.375 157.452 163.479 158.236 166.68C159.085 169.881 159.967 173.083 160.882 176.284C161.862 179.485 162.842 182.589 163.822 185.594C164.671 182.981 165.553 180.106 166.468 176.97C167.383 173.834 168.265 170.633 169.114 167.366C170.029 164.034 170.878 160.8 171.662 157.664C172.446 154.463 173.132 151.49 173.72 148.746H185.97C184.598 153.777 183.193 158.709 181.756 163.544C180.319 168.379 178.881 172.985 177.444 177.362C176.007 181.739 174.569 185.855 173.132 189.71C171.695 193.565 170.29 196.995 168.918 200H159.314C157.615 195.165 155.851 190.037 154.022 184.614C152.258 179.126 150.625 173.507 149.122 167.758ZM224.217 159.428C223.237 159.101 221.865 158.775 220.101 158.448C218.402 158.056 216.409 157.86 214.123 157.86C212.816 157.86 211.411 157.991 209.909 158.252C208.471 158.513 207.459 158.742 206.871 158.938V200H195.013V151.196C197.299 150.347 200.141 149.563 203.539 148.844C207.001 148.06 210.823 147.668 215.005 147.668C215.789 147.668 216.703 147.733 217.749 147.864C218.794 147.929 219.839 148.06 220.885 148.256C221.93 148.387 222.943 148.583 223.923 148.844C224.903 149.04 225.687 149.236 226.275 149.432L224.217 159.428ZM252.57 191.67C256.229 191.67 259.006 191.474 260.9 191.082V177.95C260.247 177.754 259.3 177.558 258.058 177.362C256.817 177.166 255.445 177.068 253.942 177.068C252.636 177.068 251.296 177.166 249.924 177.362C248.618 177.558 247.409 177.917 246.298 178.44C245.253 178.963 244.404 179.714 243.75 180.694C243.097 181.609 242.77 182.785 242.77 184.222C242.77 187.031 243.652 188.991 245.416 190.102C247.18 191.147 249.565 191.67 252.57 191.67ZM251.59 147.472C255.51 147.472 258.81 147.962 261.488 148.942C264.167 149.922 266.29 151.294 267.858 153.058C269.492 154.822 270.635 156.978 271.288 159.526C272.007 162.009 272.366 164.753 272.366 167.758V198.824C270.537 199.216 267.76 199.673 264.036 200.196C260.378 200.784 256.229 201.078 251.59 201.078C248.52 201.078 245.71 200.784 243.162 200.196C240.614 199.608 238.426 198.661 236.596 197.354C234.832 196.047 233.428 194.349 232.382 192.258C231.402 190.167 230.912 187.587 230.912 184.516C230.912 181.576 231.468 179.093 232.578 177.068C233.754 175.043 235.322 173.409 237.282 172.168C239.242 170.861 241.496 169.947 244.044 169.424C246.658 168.836 249.369 168.542 252.178 168.542C253.485 168.542 254.857 168.64 256.294 168.836C257.732 168.967 259.267 169.228 260.9 169.62V167.66C260.9 166.288 260.737 164.981 260.41 163.74C260.084 162.499 259.496 161.421 258.646 160.506C257.862 159.526 256.784 158.775 255.412 158.252C254.106 157.729 252.44 157.468 250.414 157.468C247.67 157.468 245.155 157.664 242.868 158.056C240.582 158.448 238.72 158.905 237.282 159.428L235.812 149.824C237.315 149.301 239.504 148.779 242.378 148.256C245.253 147.733 248.324 147.472 251.59 147.472ZM320.894 174.618C320.894 169.326 319.685 165.21 317.268 162.27C314.916 159.33 311.094 157.86 305.802 157.86C304.691 157.86 303.515 157.925 302.274 158.056C301.098 158.121 299.922 158.317 298.746 158.644V187.946C299.791 188.665 301.163 189.351 302.862 190.004C304.626 190.592 306.488 190.886 308.448 190.886C312.76 190.886 315.896 189.416 317.856 186.476C319.881 183.536 320.894 179.583 320.894 174.618ZM333.046 174.422C333.046 178.342 332.523 181.935 331.478 185.202C330.498 188.469 329.06 191.278 327.166 193.63C325.271 195.982 322.886 197.811 320.012 199.118C317.202 200.425 314.001 201.078 310.408 201.078C307.99 201.078 305.769 200.784 303.744 200.196C301.718 199.608 300.052 198.955 298.746 198.236V218.13H286.888V150.412C289.305 149.759 292.278 149.138 295.806 148.55C299.334 147.962 303.058 147.668 306.978 147.668C311.028 147.668 314.654 148.289 317.856 149.53C321.057 150.771 323.768 152.568 325.99 154.92C328.276 157.207 330.008 160.016 331.184 163.348C332.425 166.615 333.046 170.306 333.046 174.422Z" fill="#60195E"/>
<path d="M112.544 269.696L120.288 268.416V278.528H132.192V284.992H120.288V298.624C120.288 301.312 120.715 303.232 121.568 304.384C122.421 305.536 123.872 306.112 125.92 306.112C127.328 306.112 128.565 305.963 129.632 305.664C130.741 305.365 131.616 305.088 132.256 304.832L133.536 310.976C132.64 311.36 131.467 311.744 130.016 312.128C128.565 312.555 126.859 312.768 124.896 312.768C122.507 312.768 120.501 312.448 118.88 311.808C117.301 311.168 116.043 310.251 115.104 309.056C114.165 307.819 113.504 306.347 113.12 304.64C112.736 302.891 112.544 300.907 112.544 298.688V269.696ZM167.006 278.528C163.55 291.243 159.539 302.763 154.974 313.088C154.121 315.008 153.246 316.651 152.35 318.016C151.454 319.381 150.451 320.512 149.342 321.408C148.233 322.304 146.995 322.944 145.63 323.328C144.265 323.755 142.686 323.968 140.894 323.968C139.699 323.968 138.505 323.84 137.31 323.584C136.158 323.328 135.283 323.051 134.686 322.752L136.094 316.544C137.63 317.141 139.145 317.44 140.638 317.44C142.643 317.44 144.201 316.949 145.31 315.968C146.462 315.029 147.465 313.557 148.318 311.552C145.886 306.859 143.539 301.739 141.278 296.192C139.059 290.645 137.075 284.757 135.326 278.528H143.582C144.009 280.32 144.521 282.261 145.118 284.352C145.758 286.443 146.441 288.576 147.166 290.752C147.891 292.885 148.659 295.019 149.47 297.152C150.281 299.285 151.091 301.269 151.902 303.104C153.267 299.307 154.547 295.275 155.742 291.008C156.937 286.699 158.025 282.539 159.006 278.528H167.006ZM195.074 295.424C195.074 291.968 194.284 289.28 192.706 287.36C191.17 285.44 188.674 284.48 185.218 284.48C184.492 284.48 183.724 284.523 182.914 284.608C182.146 284.651 181.378 284.779 180.61 284.992V304.128C181.292 304.597 182.188 305.045 183.298 305.472C184.45 305.856 185.666 306.048 186.946 306.048C189.762 306.048 191.81 305.088 193.09 303.168C194.412 301.248 195.074 298.667 195.074 295.424ZM203.01 295.296C203.01 297.856 202.668 300.203 201.986 302.336C201.346 304.469 200.407 306.304 199.17 307.84C197.932 309.376 196.375 310.571 194.498 311.424C192.663 312.277 190.572 312.704 188.226 312.704C186.647 312.704 185.196 312.512 183.874 312.128C182.551 311.744 181.463 311.317 180.61 310.848V323.84H172.866V279.616C174.444 279.189 176.386 278.784 178.69 278.4C180.994 278.016 183.426 277.824 185.986 277.824C188.631 277.824 190.999 278.229 193.09 279.04C195.18 279.851 196.951 281.024 198.402 282.56C199.895 284.053 201.026 285.888 201.794 288.064C202.604 290.197 203.01 292.608 203.01 295.296ZM209.135 295.424C209.135 292.48 209.561 289.899 210.415 287.68C211.311 285.461 212.484 283.627 213.935 282.176C215.385 280.683 217.049 279.573 218.927 278.848C220.804 278.08 222.724 277.696 224.687 277.696C229.295 277.696 232.879 279.125 235.439 281.984C238.041 284.843 239.343 289.109 239.343 294.784C239.343 295.211 239.321 295.701 239.279 296.256C239.279 296.768 239.257 297.237 239.215 297.664H217.135C217.348 300.352 218.287 302.443 219.951 303.936C221.657 305.387 224.111 306.112 227.311 306.112C229.188 306.112 230.895 305.941 232.431 305.6C234.009 305.259 235.247 304.896 236.143 304.512L237.167 310.848C236.74 311.061 236.143 311.296 235.375 311.552C234.649 311.765 233.796 311.957 232.815 312.128C231.876 312.341 230.852 312.512 229.743 312.64C228.633 312.768 227.503 312.832 226.351 312.832C223.407 312.832 220.847 312.405 218.671 311.552C216.495 310.656 214.703 309.44 213.295 307.904C211.887 306.325 210.841 304.491 210.159 302.4C209.476 300.267 209.135 297.941 209.135 295.424ZM231.599 291.968C231.599 290.901 231.449 289.899 231.151 288.96C230.852 287.979 230.404 287.147 229.807 286.464C229.252 285.739 228.548 285.184 227.695 284.8C226.884 284.373 225.903 284.16 224.751 284.16C223.556 284.16 222.511 284.395 221.615 284.864C220.719 285.291 219.951 285.867 219.311 286.592C218.713 287.317 218.244 288.149 217.903 289.088C217.561 290.027 217.327 290.987 217.199 291.968H231.599ZM256.257 283.84C256.257 285.333 255.745 286.549 254.721 287.488C253.74 288.427 252.545 288.896 251.137 288.896C249.686 288.896 248.47 288.427 247.489 287.488C246.508 286.549 246.017 285.333 246.017 283.84C246.017 282.347 246.508 281.131 247.489 280.192C248.47 279.211 249.686 278.72 251.137 278.72C252.545 278.72 253.74 279.211 254.721 280.192C255.745 281.131 256.257 282.347 256.257 283.84ZM256.257 307.776C256.257 309.269 255.745 310.485 254.721 311.424C253.74 312.363 252.545 312.832 251.137 312.832C249.686 312.832 248.47 312.363 247.489 311.424C246.508 310.485 246.017 309.269 246.017 307.776C246.017 306.283 246.508 305.067 247.489 304.128C248.47 303.147 249.686 302.656 251.137 302.656C252.545 302.656 253.74 303.147 254.721 304.128C255.745 305.067 256.257 306.283 256.257 307.776ZM293.251 262.336C294.872 262.336 296.237 262.464 297.347 262.72C298.499 262.976 299.395 263.232 300.035 263.488L298.819 269.76C298.221 269.547 297.496 269.355 296.643 269.184C295.832 269.013 294.936 268.928 293.955 268.928C291.395 268.928 289.624 269.611 288.643 270.976C287.704 272.341 287.235 274.112 287.235 276.288V278.528H299.523V284.992H287.235V312H279.491V276.16C279.491 271.808 280.621 268.416 282.883 265.984C285.144 263.552 288.6 262.336 293.251 262.336ZM317.123 312.64C314.819 312.597 312.899 312.341 311.363 311.872C309.869 311.403 308.675 310.741 307.779 309.888C306.883 308.992 306.243 307.904 305.859 306.624C305.517 305.301 305.347 303.808 305.347 302.144V263.616L313.091 262.336V300.672C313.091 301.611 313.155 302.4 313.283 303.04C313.453 303.68 313.731 304.235 314.115 304.704C314.499 305.131 315.011 305.472 315.651 305.728C316.333 305.941 317.187 306.112 318.211 306.24L317.123 312.64ZM322.635 295.424C322.635 292.48 323.061 289.899 323.915 287.68C324.811 285.461 325.984 283.627 327.435 282.176C328.885 280.683 330.549 279.573 332.427 278.848C334.304 278.08 336.224 277.696 338.187 277.696C342.795 277.696 346.379 279.125 348.939 281.984C351.541 284.843 352.843 289.109 352.843 294.784C352.843 295.211 352.821 295.701 352.779 296.256C352.779 296.768 352.757 297.237 352.715 297.664H330.635C330.848 300.352 331.787 302.443 333.451 303.936C335.157 305.387 337.611 306.112 340.811 306.112C342.688 306.112 344.395 305.941 345.931 305.6C347.509 305.259 348.747 304.896 349.643 304.512L350.667 310.848C350.24 311.061 349.643 311.296 348.875 311.552C348.149 311.765 347.296 311.957 346.315 312.128C345.376 312.341 344.352 312.512 343.243 312.64C342.133 312.768 341.003 312.832 339.851 312.832C336.907 312.832 334.347 312.405 332.171 311.552C329.995 310.656 328.203 309.44 326.795 307.904C325.387 306.325 324.341 304.491 323.659 302.4C322.976 300.267 322.635 297.941 322.635 295.424ZM345.099 291.968C345.099 290.901 344.949 289.899 344.651 288.96C344.352 287.979 343.904 287.147 343.307 286.464C342.752 285.739 342.048 285.184 341.195 284.8C340.384 284.373 339.403 284.16 338.251 284.16C337.056 284.16 336.011 284.395 335.115 284.864C334.219 285.291 333.451 285.867 332.811 286.592C332.213 287.317 331.744 288.149 331.403 289.088C331.061 290.027 330.827 290.987 330.699 291.968H345.099ZM373.085 289.472L380.189 278.528H388.317L377.309 294.336C379.613 297.323 381.81 300.352 383.901 303.424C386.034 306.453 387.784 309.312 389.149 312H380.765C380.381 311.189 379.869 310.272 379.229 309.248C378.632 308.181 377.97 307.093 377.245 305.984C376.562 304.832 375.837 303.701 375.069 302.592C374.301 301.483 373.554 300.437 372.829 299.456C371.336 301.376 369.864 303.509 368.413 305.856C367.005 308.16 365.832 310.208 364.893 312H356.957C357.597 310.72 358.365 309.355 359.261 307.904C360.157 306.453 361.117 304.981 362.141 303.488C363.165 301.952 364.21 300.437 365.277 298.944C366.386 297.408 367.474 295.957 368.541 294.592L357.469 278.528H365.981L373.085 289.472Z" fill="#60195E"/>
<path d="M114.072 369.424C114.072 366.48 114.499 363.899 115.352 361.68C116.248 359.461 117.421 357.627 118.872 356.176C120.323 354.683 121.987 353.573 123.864 352.848C125.741 352.08 127.661 351.696 129.624 351.696C134.232 351.696 137.816 353.125 140.376 355.984C142.979 358.843 144.28 363.109 144.28 368.784C144.28 369.211 144.259 369.701 144.216 370.256C144.216 370.768 144.195 371.237 144.152 371.664H122.072C122.285 374.352 123.224 376.443 124.888 377.936C126.595 379.387 129.048 380.112 132.248 380.112C134.125 380.112 135.832 379.941 137.368 379.6C138.947 379.259 140.184 378.896 141.08 378.512L142.104 384.848C141.677 385.061 141.08 385.296 140.312 385.552C139.587 385.765 138.733 385.957 137.752 386.128C136.813 386.341 135.789 386.512 134.68 386.64C133.571 386.768 132.44 386.832 131.288 386.832C128.344 386.832 125.784 386.405 123.608 385.552C121.432 384.656 119.64 383.44 118.232 381.904C116.824 380.325 115.779 378.491 115.096 376.4C114.413 374.267 114.072 371.941 114.072 369.424ZM136.536 365.968C136.536 364.901 136.387 363.899 136.088 362.96C135.789 361.979 135.341 361.147 134.744 360.464C134.189 359.739 133.485 359.184 132.632 358.8C131.821 358.373 130.84 358.16 129.688 358.16C128.493 358.16 127.448 358.395 126.552 358.864C125.656 359.291 124.888 359.867 124.248 360.592C123.651 361.317 123.181 362.149 122.84 363.088C122.499 364.027 122.264 364.987 122.136 365.968H136.536ZM158.571 369.424C158.571 372.667 159.211 375.248 160.491 377.168C161.813 379.088 163.883 380.048 166.699 380.048C167.979 380.048 169.173 379.856 170.283 379.472C171.435 379.045 172.352 378.597 173.035 378.128V358.992C172.48 358.864 171.776 358.757 170.923 358.672C170.112 358.544 169.045 358.48 167.723 358.48C164.864 358.48 162.624 359.461 161.003 361.424C159.381 363.344 158.571 366.011 158.571 369.424ZM150.635 369.296C150.635 366.651 151.019 364.261 151.786 362.128C152.597 359.952 153.728 358.117 155.179 356.624C156.672 355.088 158.464 353.915 160.555 353.104C162.645 352.251 165.013 351.824 167.659 351.824C170.304 351.824 172.779 352.016 175.083 352.4C177.387 352.784 179.285 353.189 180.779 353.616V397.84H173.035V384.848C172.139 385.317 171.029 385.744 169.707 386.128C168.427 386.512 166.997 386.704 165.419 386.704C163.029 386.704 160.917 386.299 159.083 385.488C157.248 384.635 155.712 383.44 154.475 381.904C153.237 380.368 152.277 378.533 151.595 376.4C150.955 374.267 150.635 371.899 150.635 369.296ZM218.072 384.976C216.578 385.36 214.637 385.744 212.248 386.128C209.858 386.555 207.234 386.768 204.376 386.768C201.688 386.768 199.426 386.384 197.592 385.616C195.8 384.848 194.349 383.781 193.24 382.416C192.173 381.051 191.405 379.429 190.936 377.552C190.466 375.632 190.232 373.541 190.232 371.28V352.528H197.976V370.064C197.976 373.648 198.488 376.208 199.512 377.744C200.578 379.28 202.413 380.048 205.016 380.048C205.954 380.048 206.936 380.005 207.96 379.92C209.026 379.835 209.816 379.728 210.328 379.6V352.528H218.072V384.976ZM235.736 386H227.992V352.528H235.736V386ZM236.568 342.736C236.568 344.187 236.099 345.339 235.16 346.192C234.221 347.045 233.112 347.472 231.832 347.472C230.509 347.472 229.379 347.045 228.44 346.192C227.501 345.339 227.032 344.187 227.032 342.736C227.032 341.243 227.501 340.069 228.44 339.216C229.379 338.363 230.509 337.936 231.832 337.936C233.112 337.936 234.221 338.363 235.16 339.216C236.099 340.069 236.568 341.243 236.568 342.736ZM254.192 386C252.058 381.605 249.861 376.571 247.6 370.896C245.381 365.179 243.354 359.056 241.52 352.528H249.776C250.245 354.405 250.778 356.432 251.376 358.608C252.016 360.741 252.677 362.896 253.36 365.072C254.085 367.205 254.81 369.296 255.536 371.344C256.304 373.349 257.008 375.163 257.648 376.784C258.288 375.163 258.97 373.349 259.696 371.344C260.421 369.296 261.125 367.205 261.808 365.072C262.533 362.896 263.216 360.741 263.856 358.608C264.496 356.432 265.05 354.405 265.52 352.528H273.52C271.685 359.056 269.637 365.179 267.376 370.896C265.157 376.571 262.981 381.605 260.848 386H254.192ZM291.079 380.56C293.468 380.56 295.282 380.432 296.519 380.176V371.6C296.092 371.472 295.474 371.344 294.663 371.216C293.852 371.088 292.956 371.024 291.975 371.024C291.122 371.024 290.247 371.088 289.351 371.216C288.498 371.344 287.708 371.579 286.983 371.92C286.3 372.261 285.746 372.752 285.319 373.392C284.892 373.989 284.679 374.757 284.679 375.696C284.679 377.531 285.255 378.811 286.407 379.536C287.559 380.219 289.116 380.56 291.079 380.56ZM290.439 351.696C292.999 351.696 295.154 352.016 296.903 352.656C298.652 353.296 300.039 354.192 301.063 355.344C302.13 356.496 302.876 357.904 303.303 359.568C303.772 361.189 304.007 362.981 304.007 364.944V385.232C302.812 385.488 300.999 385.787 298.567 386.128C296.178 386.512 293.468 386.704 290.439 386.704C288.434 386.704 286.599 386.512 284.935 386.128C283.271 385.744 281.842 385.125 280.647 384.272C279.495 383.419 278.578 382.309 277.895 380.944C277.255 379.579 276.935 377.893 276.935 375.888C276.935 373.968 277.298 372.347 278.023 371.024C278.791 369.701 279.815 368.635 281.095 367.824C282.375 366.971 283.847 366.373 285.511 366.032C287.218 365.648 288.988 365.456 290.823 365.456C291.676 365.456 292.572 365.52 293.511 365.648C294.45 365.733 295.452 365.904 296.519 366.16V364.88C296.519 363.984 296.412 363.131 296.199 362.32C295.986 361.509 295.602 360.805 295.047 360.208C294.535 359.568 293.831 359.077 292.935 358.736C292.082 358.395 290.994 358.224 289.671 358.224C287.879 358.224 286.236 358.352 284.743 358.608C283.25 358.864 282.034 359.163 281.095 359.504L280.135 353.232C281.116 352.891 282.546 352.549 284.423 352.208C286.3 351.867 288.306 351.696 290.439 351.696ZM325.139 386.64C322.835 386.597 320.915 386.341 319.379 385.872C317.885 385.403 316.691 384.741 315.795 383.888C314.899 382.992 314.259 381.904 313.875 380.624C313.533 379.301 313.363 377.808 313.363 376.144V337.616L321.107 336.336V374.672C321.107 375.611 321.171 376.4 321.299 377.04C321.469 377.68 321.747 378.235 322.131 378.704C322.515 379.131 323.027 379.472 323.667 379.728C324.349 379.941 325.203 380.112 326.227 380.24L325.139 386.64ZM330.635 369.424C330.635 366.48 331.061 363.899 331.915 361.68C332.811 359.461 333.984 357.627 335.435 356.176C336.885 354.683 338.549 353.573 340.427 352.848C342.304 352.08 344.224 351.696 346.187 351.696C350.795 351.696 354.379 353.125 356.939 355.984C359.541 358.843 360.843 363.109 360.843 368.784C360.843 369.211 360.821 369.701 360.779 370.256C360.779 370.768 360.757 371.237 360.715 371.664H338.635C338.848 374.352 339.787 376.443 341.451 377.936C343.157 379.387 345.611 380.112 348.811 380.112C350.688 380.112 352.395 379.941 353.931 379.6C355.509 379.259 356.747 378.896 357.643 378.512L358.667 384.848C358.24 385.061 357.643 385.296 356.875 385.552C356.149 385.765 355.296 385.957 354.315 386.128C353.376 386.341 352.352 386.512 351.243 386.64C350.133 386.768 349.003 386.832 347.851 386.832C344.907 386.832 342.347 386.405 340.171 385.552C337.995 384.656 336.203 383.44 334.795 381.904C333.387 380.325 332.341 378.491 331.659 376.4C330.976 374.267 330.635 371.941 330.635 369.424ZM353.099 365.968C353.099 364.901 352.949 363.899 352.651 362.96C352.352 361.979 351.904 361.147 351.307 360.464C350.752 359.739 350.048 359.184 349.195 358.8C348.384 358.373 347.403 358.16 346.251 358.16C345.056 358.16 344.011 358.395 343.115 358.864C342.219 359.291 341.451 359.867 340.811 360.592C340.213 361.317 339.744 362.149 339.403 363.088C339.061 364.027 338.827 364.987 338.699 365.968H353.099ZM369.053 353.616C370.546 353.189 372.488 352.784 374.877 352.4C377.266 352.016 379.912 351.824 382.813 351.824C385.544 351.824 387.826 352.208 389.661 352.976C391.496 353.701 392.946 354.747 394.013 356.112C395.122 357.435 395.89 359.056 396.317 360.976C396.786 362.853 397.021 364.923 397.021 367.184V386H389.277V368.4C389.277 366.608 389.149 365.093 388.893 363.856C388.68 362.576 388.296 361.552 387.741 360.784C387.229 359.973 386.504 359.397 385.565 359.056C384.669 358.672 383.56 358.48 382.237 358.48C381.256 358.48 380.232 358.544 379.165 358.672C378.098 358.8 377.309 358.907 376.797 358.992V386H369.053V353.616ZM406.107 343.696L413.851 342.416V352.528H425.755V358.992H413.851V372.624C413.851 375.312 414.277 377.232 415.131 378.384C415.984 379.536 417.435 380.112 419.483 380.112C420.891 380.112 422.128 379.963 423.195 379.664C424.304 379.365 425.179 379.088 425.819 378.832L427.099 384.976C426.203 385.36 425.029 385.744 423.579 386.128C422.128 386.555 420.421 386.768 418.458 386.768C416.069 386.768 414.064 386.448 412.443 385.808C410.864 385.168 409.605 384.251 408.667 383.056C407.728 381.819 407.067 380.347 406.683 378.64C406.299 376.891 406.107 374.907 406.107 372.688V343.696ZM446.322 369.296C446.322 366.821 446.706 364.517 447.474 362.384C448.242 360.208 449.33 358.331 450.738 356.752C452.189 355.173 453.938 353.936 455.986 353.04C458.034 352.144 460.338 351.696 462.898 351.696C466.055 351.696 469.042 352.272 471.858 353.424L470.194 359.76C469.298 359.376 468.274 359.056 467.122 358.8C466.013 358.544 464.818 358.416 463.538 358.416C460.509 358.416 458.205 359.376 456.626 361.296C455.047 363.173 454.258 365.84 454.258 369.296C454.258 372.624 455.005 375.269 456.498 377.232C457.991 379.152 460.509 380.112 464.05 380.112C465.373 380.112 466.674 379.984 467.954 379.728C469.234 379.472 470.343 379.152 471.282 378.768L472.37 385.168C471.517 385.595 470.215 385.979 468.466 386.32C466.759 386.661 464.989 386.832 463.154 386.832C460.295 386.832 457.799 386.405 455.666 385.552C453.575 384.656 451.826 383.44 450.418 381.904C449.053 380.325 448.029 378.469 447.346 376.336C446.663 374.16 446.322 371.813 446.322 369.296ZM486.75 380.432C488.798 380.432 490.291 380.197 491.23 379.728C492.168 379.216 492.638 378.363 492.638 377.168C492.638 376.059 492.126 375.141 491.102 374.416C490.12 373.691 488.478 372.901 486.174 372.048C484.766 371.536 483.464 371.003 482.27 370.448C481.118 369.851 480.115 369.168 479.262 368.4C478.408 367.632 477.726 366.715 477.214 365.648C476.744 364.539 476.51 363.195 476.51 361.616C476.51 358.544 477.64 356.133 479.902 354.384C482.163 352.592 485.235 351.696 489.118 351.696C491.08 351.696 492.958 351.888 494.75 352.272C496.542 352.613 497.886 352.955 498.782 353.296L497.374 359.568C496.52 359.184 495.432 358.843 494.11 358.544C492.787 358.203 491.251 358.032 489.502 358.032C487.923 358.032 486.643 358.309 485.662 358.864C484.68 359.376 484.19 360.187 484.19 361.296C484.19 361.851 484.275 362.341 484.446 362.768C484.659 363.195 485 363.6 485.47 363.984C485.939 364.325 486.558 364.688 487.326 365.072C488.094 365.413 489.032 365.776 490.142 366.16C491.976 366.843 493.534 367.525 494.814 368.208C496.094 368.848 497.139 369.595 497.95 370.448C498.803 371.259 499.422 372.197 499.806 373.264C500.19 374.331 500.382 375.611 500.382 377.104C500.382 380.304 499.187 382.736 496.798 384.4C494.451 386.021 491.08 386.832 486.686 386.832C483.742 386.832 481.374 386.576 479.582 386.064C477.79 385.595 476.531 385.211 475.806 384.912L477.15 378.448C478.302 378.917 479.667 379.365 481.246 379.792C482.867 380.219 484.702 380.432 486.75 380.432ZM516 380.432C518.048 380.432 519.541 380.197 520.48 379.728C521.418 379.216 521.888 378.363 521.888 377.168C521.888 376.059 521.376 375.141 520.352 374.416C519.37 373.691 517.728 372.901 515.424 372.048C514.016 371.536 512.714 371.003 511.52 370.448C510.368 369.851 509.365 369.168 508.512 368.4C507.658 367.632 506.976 366.715 506.464 365.648C505.994 364.539 505.76 363.195 505.76 361.616C505.76 358.544 506.89 356.133 509.152 354.384C511.413 352.592 514.485 351.696 518.368 351.696C520.33 351.696 522.208 351.888 524 352.272C525.792 352.613 527.136 352.955 528.032 353.296L526.624 359.568C525.77 359.184 524.682 358.843 523.36 358.544C522.037 358.203 520.501 358.032 518.752 358.032C517.173 358.032 515.893 358.309 514.912 358.864C513.93 359.376 513.44 360.187 513.44 361.296C513.44 361.851 513.525 362.341 513.696 362.768C513.909 363.195 514.25 363.6 514.72 363.984C515.189 364.325 515.808 364.688 516.576 365.072C517.344 365.413 518.282 365.776 519.392 366.16C521.226 366.843 522.784 367.525 524.064 368.208C525.344 368.848 526.389 369.595 527.2 370.448C528.053 371.259 528.672 372.197 529.056 373.264C529.44 374.331 529.632 375.611 529.632 377.104C529.632 380.304 528.437 382.736 526.048 384.4C523.701 386.021 520.33 386.832 515.936 386.832C512.992 386.832 510.624 386.576 508.832 386.064C507.04 385.595 505.781 385.211 505.056 384.912L506.4 378.448C507.552 378.917 508.917 379.365 510.496 379.792C512.117 380.219 513.952 380.432 516 380.432ZM545.57 357.84C545.57 359.333 545.058 360.549 544.034 361.488C543.052 362.427 541.858 362.896 540.45 362.896C538.999 362.896 537.783 362.427 536.802 361.488C535.82 360.549 535.33 359.333 535.33 357.84C535.33 356.347 535.82 355.131 536.802 354.192C537.783 353.211 538.999 352.72 540.45 352.72C541.858 352.72 543.052 353.211 544.034 354.192C545.058 355.131 545.57 356.347 545.57 357.84ZM545.57 381.776C545.57 383.269 545.058 384.485 544.034 385.424C543.052 386.363 541.858 386.832 540.45 386.832C538.999 386.832 537.783 386.363 536.802 385.424C535.82 384.485 535.33 383.269 535.33 381.776C535.33 380.283 535.82 379.067 536.802 378.128C537.783 377.147 538.999 376.656 540.45 376.656C541.858 376.656 543.052 377.147 544.034 378.128C545.058 379.067 545.57 380.283 545.57 381.776ZM582.563 336.336C584.184 336.336 585.55 336.464 586.659 336.72C587.811 336.976 588.707 337.232 589.347 337.488L588.131 343.76C587.534 343.547 586.808 343.355 585.955 343.184C585.144 343.013 584.248 342.928 583.267 342.928C580.707 342.928 578.936 343.611 577.955 344.976C577.016 346.341 576.547 348.112 576.547 350.288V352.528H588.835V358.992H576.547V386H568.803V350.16C568.803 345.808 569.934 342.416 572.195 339.984C574.456 337.552 577.912 336.336 582.563 336.336ZM606.435 386.64C604.131 386.597 602.211 386.341 600.675 385.872C599.182 385.403 597.987 384.741 597.091 383.888C596.195 382.992 595.555 381.904 595.171 380.624C594.83 379.301 594.659 377.808 594.659 376.144V337.616L602.403 336.336V374.672C602.403 375.611 602.467 376.4 602.595 377.04C602.766 377.68 603.043 378.235 603.427 378.704C603.811 379.131 604.323 379.472 604.963 379.728C605.646 379.941 606.499 380.112 607.523 380.24L606.435 386.64ZM611.947 369.424C611.947 366.48 612.374 363.899 613.227 361.68C614.123 359.461 615.296 357.627 616.747 356.176C618.198 354.683 619.862 353.573 621.739 352.848C623.616 352.08 625.536 351.696 627.499 351.696C632.107 351.696 635.691 353.125 638.251 355.984C640.854 358.843 642.155 363.109 642.155 368.784C642.155 369.211 642.134 369.701 642.091 370.256C642.091 370.768 642.07 371.237 642.027 371.664H619.947C620.16 374.352 621.099 376.443 622.763 377.936C624.47 379.387 626.923 380.112 630.123 380.112C632 380.112 633.707 379.941 635.243 379.6C636.822 379.259 638.059 378.896 638.955 378.512L639.979 384.848C639.552 385.061 638.955 385.296 638.187 385.552C637.462 385.765 636.608 385.957 635.627 386.128C634.688 386.341 633.664 386.512 632.555 386.64C631.446 386.768 630.315 386.832 629.163 386.832C626.219 386.832 623.659 386.405 621.483 385.552C619.307 384.656 617.515 383.44 616.107 381.904C614.699 380.325 613.654 378.491 612.971 376.4C612.288 374.267 611.947 371.941 611.947 369.424ZM634.411 365.968C634.411 364.901 634.262 363.899 633.963 362.96C633.664 361.979 633.216 361.147 632.619 360.464C632.064 359.739 631.36 359.184 630.507 358.8C629.696 358.373 628.715 358.16 627.563 358.16C626.368 358.16 625.323 358.395 624.427 358.864C623.531 359.291 622.763 359.867 622.123 360.592C621.526 361.317 621.056 362.149 620.715 363.088C620.374 364.027 620.139 364.987 620.011 365.968H634.411ZM662.398 363.472L669.502 352.528H677.63L666.622 368.336C668.926 371.323 671.123 374.352 673.214 377.424C675.347 380.453 677.096 383.312 678.462 386H670.078C669.694 385.189 669.182 384.272 668.542 383.248C667.944 382.181 667.283 381.093 666.558 379.984C665.875 378.832 665.15 377.701 664.382 376.592C663.614 375.483 662.867 374.437 662.142 373.456C660.648 375.376 659.176 377.509 657.726 379.856C656.318 382.16 655.144 384.208 654.206 386H646.27C646.91 384.72 647.678 383.355 648.574 381.904C649.47 380.453 650.43 378.981 651.454 377.488C652.478 375.952 653.523 374.437 654.59 372.944C655.699 371.408 656.787 369.957 657.854 368.592L646.782 352.528H655.294L662.398 363.472ZM680.785 364.176H698.001V371.28H680.785V364.176ZM724.396 364.944C723.415 368.699 722.348 372.368 721.196 375.952C720.087 379.493 718.977 382.843 717.868 386H711.532C710.679 384.037 709.783 381.797 708.844 379.28C707.905 376.763 706.967 374.075 706.028 371.216C705.089 368.357 704.151 365.349 703.212 362.192C702.273 359.035 701.356 355.813 700.46 352.528H708.652C709.036 354.32 709.484 356.261 709.996 358.352C710.508 360.4 711.041 362.512 711.596 364.688C712.151 366.821 712.727 368.912 713.324 370.96C713.921 373.008 714.519 374.885 715.116 376.592C715.756 374.629 716.375 372.603 716.972 370.512C717.612 368.421 718.209 366.331 718.764 364.24C719.319 362.149 719.831 360.123 720.3 358.16C720.812 356.155 721.26 354.277 721.644 352.528H727.596C727.98 354.277 728.407 356.155 728.876 358.16C729.345 360.123 729.836 362.149 730.348 364.24C730.903 366.331 731.479 368.421 732.076 370.512C732.716 372.603 733.356 374.629 733.996 376.592C734.551 374.885 735.127 373.008 735.724 370.96C736.321 368.912 736.897 366.821 737.452 364.688C738.049 362.512 738.604 360.4 739.116 358.352C739.628 356.261 740.076 354.32 740.46 352.528H748.46C747.564 355.813 746.647 359.035 745.708 362.192C744.769 365.349 743.831 368.357 742.892 371.216C741.953 374.075 741.015 376.763 740.076 379.28C739.137 381.797 738.22 384.037 737.324 386H731.052C729.943 382.843 728.791 379.493 727.596 375.952C726.444 372.368 725.377 368.699 724.396 364.944ZM773.438 359.504C772.798 359.291 771.902 359.077 770.75 358.864C769.64 358.608 768.339 358.48 766.846 358.48C765.992 358.48 765.075 358.565 764.094 358.736C763.155 358.907 762.494 359.056 762.11 359.184V386H754.366V354.128C755.859 353.573 757.715 353.061 759.934 352.592C762.195 352.08 764.691 351.824 767.422 351.824C767.934 351.824 768.531 351.867 769.214 351.952C769.896 351.995 770.579 352.08 771.262 352.208C771.944 352.293 772.606 352.421 773.246 352.592C773.886 352.72 774.398 352.848 774.782 352.976L773.438 359.504ZM791.954 380.56C794.343 380.56 796.157 380.432 797.394 380.176V371.6C796.967 371.472 796.349 371.344 795.538 371.216C794.727 371.088 793.831 371.024 792.85 371.024C791.997 371.024 791.122 371.088 790.226 371.216C789.373 371.344 788.583 371.579 787.858 371.92C787.175 372.261 786.621 372.752 786.194 373.392C785.767 373.989 785.554 374.757 785.554 375.696C785.554 377.531 786.13 378.811 787.282 379.536C788.434 380.219 789.991 380.56 791.954 380.56ZM791.314 351.696C793.874 351.696 796.029 352.016 797.778 352.656C799.527 353.296 800.914 354.192 801.938 355.344C803.005 356.496 803.751 357.904 804.178 359.568C804.647 361.189 804.882 362.981 804.882 364.944V385.232C803.687 385.488 801.874 385.787 799.442 386.128C797.053 386.512 794.343 386.704 791.314 386.704C789.309 386.704 787.474 386.512 785.81 386.128C784.146 385.744 782.717 385.125 781.522 384.272C780.37 383.419 779.453 382.309 778.77 380.944C778.13 379.579 777.81 377.893 777.81 375.888C777.81 373.968 778.173 372.347 778.898 371.024C779.666 369.701 780.69 368.635 781.97 367.824C783.25 366.971 784.722 366.373 786.386 366.032C788.093 365.648 789.863 365.456 791.698 365.456C792.551 365.456 793.447 365.52 794.386 365.648C795.325 365.733 796.327 365.904 797.394 366.16V364.88C797.394 363.984 797.287 363.131 797.074 362.32C796.861 361.509 796.477 360.805 795.922 360.208C795.41 359.568 794.706 359.077 793.81 358.736C792.957 358.395 791.869 358.224 790.546 358.224C788.754 358.224 787.111 358.352 785.618 358.608C784.125 358.864 782.909 359.163 781.97 359.504L781.01 353.232C781.991 352.891 783.421 352.549 785.298 352.208C787.175 351.867 789.181 351.696 791.314 351.696ZM836.574 369.424C836.574 365.968 835.784 363.28 834.206 361.36C832.67 359.44 830.174 358.48 826.718 358.48C825.992 358.48 825.224 358.523 824.414 358.608C823.646 358.651 822.878 358.779 822.11 358.992V378.128C822.792 378.597 823.688 379.045 824.798 379.472C825.95 379.856 827.166 380.048 828.446 380.048C831.262 380.048 833.31 379.088 834.59 377.168C835.912 375.248 836.574 372.667 836.574 369.424ZM844.51 369.296C844.51 371.856 844.168 374.203 843.486 376.336C842.846 378.469 841.907 380.304 840.67 381.84C839.432 383.376 837.875 384.571 835.998 385.424C834.163 386.277 832.072 386.704 829.726 386.704C828.147 386.704 826.696 386.512 825.374 386.128C824.051 385.744 822.963 385.317 822.11 384.848V397.84H814.366V353.616C815.944 353.189 817.886 352.784 820.19 352.4C822.494 352.016 824.926 351.824 827.486 351.824C830.131 351.824 832.499 352.229 834.59 353.04C836.68 353.851 838.451 355.024 839.902 356.56C841.395 358.053 842.526 359.888 843.294 362.064C844.104 364.197 844.51 366.608 844.51 369.296Z" fill="#60195E"/>
<path d="M1423.47 225.652C1424.82 225.265 1426.58 224.898 1428.74 224.55C1430.91 224.202 1433.31 224.028 1435.94 224.028C1438.41 224.028 1440.48 224.376 1442.14 225.072C1443.8 225.729 1445.12 226.677 1446.09 227.914C1447.09 229.113 1447.79 230.582 1448.17 232.322C1448.6 234.023 1448.81 235.899 1448.81 237.948V255H1441.79V239.05C1441.79 237.426 1441.68 236.053 1441.45 234.932C1441.25 233.772 1440.9 232.844 1440.4 232.148C1439.94 231.413 1439.28 230.891 1438.43 230.582C1437.62 230.234 1436.61 230.06 1435.41 230.06C1434.52 230.06 1433.6 230.118 1432.63 230.234C1431.66 230.35 1430.95 230.447 1430.48 230.524V255H1423.47V225.652ZM1484.83 239.804C1484.83 242.201 1484.48 244.386 1483.78 246.358C1483.09 248.33 1482.1 250.012 1480.83 251.404C1479.55 252.796 1478 253.879 1476.19 254.652C1474.41 255.425 1472.44 255.812 1470.27 255.812C1468.1 255.812 1466.13 255.425 1464.35 254.652C1462.58 253.879 1461.05 252.796 1459.77 251.404C1458.5 250.012 1457.49 248.33 1456.76 246.358C1456.06 244.386 1455.71 242.201 1455.71 239.804C1455.71 237.407 1456.06 235.241 1456.76 233.308C1457.49 231.336 1458.5 229.654 1459.77 228.262C1461.09 226.87 1462.63 225.807 1464.41 225.072C1466.19 224.299 1468.14 223.912 1470.27 223.912C1472.4 223.912 1474.35 224.299 1476.13 225.072C1477.95 225.807 1479.49 226.87 1480.77 228.262C1482.04 229.654 1483.03 231.336 1483.73 233.308C1484.46 235.241 1484.83 237.407 1484.83 239.804ZM1477.64 239.804C1477.64 236.788 1476.98 234.41 1475.66 232.67C1474.39 230.891 1472.59 230.002 1470.27 230.002C1467.95 230.002 1466.13 230.891 1464.82 232.67C1463.54 234.41 1462.9 236.788 1462.9 239.804C1462.9 242.859 1463.54 245.275 1464.82 247.054C1466.13 248.833 1467.95 249.722 1470.27 249.722C1472.59 249.722 1474.39 248.833 1475.66 247.054C1476.98 245.275 1477.64 242.859 1477.64 239.804ZM1509.53 235.918C1508.64 239.321 1507.67 242.646 1506.63 245.894C1505.63 249.103 1504.62 252.139 1503.61 255H1497.87C1497.1 253.221 1496.29 251.191 1495.44 248.91C1494.59 246.629 1493.74 244.193 1492.88 241.602C1492.03 239.011 1491.18 236.285 1490.33 233.424C1489.48 230.563 1488.65 227.643 1487.84 224.666H1495.26C1495.61 226.29 1496.02 228.049 1496.48 229.944C1496.94 231.8 1497.43 233.714 1497.93 235.686C1498.43 237.619 1498.96 239.514 1499.5 241.37C1500.04 243.226 1500.58 244.927 1501.12 246.474C1501.7 244.695 1502.26 242.859 1502.8 240.964C1503.38 239.069 1503.92 237.175 1504.43 235.28C1504.93 233.385 1505.39 231.549 1505.82 229.77C1506.28 227.953 1506.69 226.251 1507.04 224.666H1512.43C1512.78 226.251 1513.17 227.953 1513.59 229.77C1514.02 231.549 1514.46 233.385 1514.92 235.28C1515.43 237.175 1515.95 239.069 1516.49 240.964C1517.07 242.859 1517.65 244.695 1518.23 246.474C1518.73 244.927 1519.26 243.226 1519.8 241.37C1520.34 239.514 1520.86 237.619 1521.36 235.686C1521.9 233.714 1522.41 231.8 1522.87 229.944C1523.33 228.049 1523.74 226.29 1524.09 224.666H1531.34C1530.53 227.643 1529.7 230.563 1528.84 233.424C1527.99 236.285 1527.14 239.011 1526.29 241.602C1525.44 244.193 1524.59 246.629 1523.74 248.91C1522.89 251.191 1522.06 253.221 1521.25 255H1515.56C1514.56 252.139 1513.51 249.103 1512.43 245.894C1511.39 242.646 1510.42 239.321 1509.53 235.918ZM1553.97 230.988C1553.39 230.795 1552.58 230.601 1551.54 230.408C1550.53 230.176 1549.35 230.06 1548 230.06C1547.23 230.06 1546.4 230.137 1545.51 230.292C1544.66 230.447 1544.06 230.582 1543.71 230.698V255H1536.69V226.116C1538.04 225.613 1539.73 225.149 1541.74 224.724C1543.79 224.26 1546.05 224.028 1548.52 224.028C1548.99 224.028 1549.53 224.067 1550.15 224.144C1550.77 224.183 1551.38 224.26 1552 224.376C1552.62 224.453 1553.22 224.569 1553.8 224.724C1554.38 224.84 1554.84 224.956 1555.19 225.072L1553.97 230.988ZM1570.76 250.07C1572.92 250.07 1574.56 249.954 1575.69 249.722V241.95C1575.3 241.834 1574.74 241.718 1574 241.602C1573.27 241.486 1572.46 241.428 1571.57 241.428C1570.79 241.428 1570 241.486 1569.19 241.602C1568.42 241.718 1567.7 241.931 1567.04 242.24C1566.42 242.549 1565.92 242.994 1565.54 243.574C1565.15 244.115 1564.96 244.811 1564.96 245.662C1564.96 247.325 1565.48 248.485 1566.52 249.142C1567.57 249.761 1568.98 250.07 1570.76 250.07ZM1570.18 223.912C1572.5 223.912 1574.45 224.202 1576.03 224.782C1577.62 225.362 1578.88 226.174 1579.8 227.218C1580.77 228.262 1581.45 229.538 1581.83 231.046C1582.26 232.515 1582.47 234.139 1582.47 235.918V254.304C1581.39 254.536 1579.75 254.807 1577.54 255.116C1575.38 255.464 1572.92 255.638 1570.18 255.638C1568.36 255.638 1566.7 255.464 1565.19 255.116C1563.68 254.768 1562.38 254.207 1561.3 253.434C1560.26 252.661 1559.43 251.655 1558.81 250.418C1558.23 249.181 1557.94 247.653 1557.94 245.836C1557.94 244.096 1558.27 242.627 1558.92 241.428C1559.62 240.229 1560.55 239.263 1561.71 238.528C1562.87 237.755 1564.2 237.213 1565.71 236.904C1567.26 236.556 1568.86 236.382 1570.52 236.382C1571.3 236.382 1572.11 236.44 1572.96 236.556C1573.81 236.633 1574.72 236.788 1575.69 237.02V235.86C1575.69 235.048 1575.59 234.275 1575.4 233.54C1575.2 232.805 1574.85 232.167 1574.35 231.626C1573.89 231.046 1573.25 230.601 1572.44 230.292C1571.66 229.983 1570.68 229.828 1569.48 229.828C1567.86 229.828 1566.37 229.944 1565.01 230.176C1563.66 230.408 1562.56 230.679 1561.71 230.988L1560.84 225.304C1561.73 224.995 1563.02 224.685 1564.72 224.376C1566.42 224.067 1568.24 223.912 1570.18 223.912ZM1611.19 239.978C1611.19 236.846 1610.48 234.41 1609.05 232.67C1607.65 230.93 1605.39 230.06 1602.26 230.06C1601.6 230.06 1600.91 230.099 1600.17 230.176C1599.48 230.215 1598.78 230.331 1598.08 230.524V247.866C1598.7 248.291 1599.51 248.697 1600.52 249.084C1601.56 249.432 1602.67 249.606 1603.83 249.606C1606.38 249.606 1608.23 248.736 1609.39 246.996C1610.59 245.256 1611.19 242.917 1611.19 239.978ZM1618.38 239.862C1618.38 242.182 1618.07 244.309 1617.46 246.242C1616.88 248.175 1616.02 249.838 1614.9 251.23C1613.78 252.622 1612.37 253.705 1610.67 254.478C1609.01 255.251 1607.11 255.638 1604.99 255.638C1603.55 255.638 1602.24 255.464 1601.04 255.116C1599.84 254.768 1598.86 254.381 1598.08 253.956V265.73H1591.07V225.652C1592.5 225.265 1594.26 224.898 1596.34 224.55C1598.43 224.202 1600.64 224.028 1602.96 224.028C1605.35 224.028 1607.5 224.395 1609.39 225.13C1611.29 225.865 1612.89 226.928 1614.21 228.32C1615.56 229.673 1616.59 231.336 1617.28 233.308C1618.02 235.241 1618.38 237.426 1618.38 239.862ZM1646 237.658C1646 242.414 1646.71 246.88 1648.14 251.056C1649.57 255.232 1651.57 259.041 1654.12 262.482L1649.19 265.73C1646.06 261.979 1643.58 257.726 1641.76 252.97C1639.95 248.175 1639.04 243.071 1639.04 237.658C1639.04 232.245 1639.95 227.16 1641.76 222.404C1643.58 217.609 1646.06 213.337 1649.19 209.586L1654.12 212.834C1651.57 216.314 1649.57 220.142 1648.14 224.318C1646.71 228.455 1646 232.902 1646 237.658ZM1664.32 239.746C1664.32 242.839 1665.05 245.275 1666.52 247.054C1667.99 248.794 1670.02 249.664 1672.61 249.664C1673.73 249.664 1674.68 249.625 1675.45 249.548C1676.27 249.432 1676.92 249.316 1677.43 249.2V231.8C1676.81 231.375 1675.98 230.988 1674.93 230.64C1673.93 230.253 1672.84 230.06 1671.68 230.06C1669.13 230.06 1667.26 230.93 1666.06 232.67C1664.9 234.41 1664.32 236.769 1664.32 239.746ZM1684.44 254.072C1683.05 254.497 1681.29 254.884 1679.17 255.232C1677.08 255.58 1674.87 255.754 1672.55 255.754C1670.16 255.754 1668.01 255.387 1666.12 254.652C1664.22 253.917 1662.6 252.873 1661.24 251.52C1659.93 250.128 1658.9 248.465 1658.17 246.532C1657.47 244.56 1657.13 242.356 1657.13 239.92C1657.13 237.523 1657.42 235.357 1658 233.424C1658.61 231.452 1659.5 229.77 1660.66 228.378C1661.82 226.986 1663.24 225.923 1664.9 225.188C1666.56 224.415 1668.47 224.028 1670.64 224.028C1672.11 224.028 1673.4 224.202 1674.53 224.55C1675.65 224.898 1676.61 225.285 1677.43 225.71V211.152L1684.44 209.992V254.072ZM1691.68 239.978C1691.68 237.31 1692.06 234.971 1692.84 232.96C1693.65 230.949 1694.71 229.287 1696.03 227.972C1697.34 226.619 1698.85 225.613 1700.55 224.956C1702.25 224.26 1703.99 223.912 1705.77 223.912C1709.95 223.912 1713.19 225.207 1715.51 227.798C1717.87 230.389 1719.05 234.255 1719.05 239.398C1719.05 239.785 1719.03 240.229 1718.99 240.732C1718.99 241.196 1718.98 241.621 1718.94 242.008H1698.93C1699.12 244.444 1699.97 246.339 1701.48 247.692C1703.03 249.007 1705.25 249.664 1708.15 249.664C1709.85 249.664 1711.4 249.509 1712.79 249.2C1714.22 248.891 1715.34 248.562 1716.15 248.214L1717.08 253.956C1716.69 254.149 1716.15 254.362 1715.46 254.594C1714.8 254.787 1714.03 254.961 1713.14 255.116C1712.29 255.309 1711.36 255.464 1710.35 255.58C1709.35 255.696 1708.32 255.754 1707.28 255.754C1704.61 255.754 1702.29 255.367 1700.32 254.594C1698.35 253.782 1696.72 252.68 1695.45 251.288C1694.17 249.857 1693.22 248.195 1692.6 246.3C1691.99 244.367 1691.68 242.259 1691.68 239.978ZM1712.03 236.846C1712.03 235.879 1711.9 234.971 1711.63 234.12C1711.36 233.231 1710.95 232.477 1710.41 231.858C1709.91 231.201 1709.27 230.698 1708.5 230.35C1707.76 229.963 1706.87 229.77 1705.83 229.77C1704.75 229.77 1703.8 229.983 1702.99 230.408C1702.17 230.795 1701.48 231.317 1700.9 231.974C1700.36 232.631 1699.93 233.385 1699.62 234.236C1699.31 235.087 1699.1 235.957 1698.98 236.846H1712.03ZM1738.85 209.992C1740.47 209.992 1741.9 210.147 1743.14 210.456C1744.38 210.727 1745.3 210.978 1745.92 211.21L1744.59 217.01C1743.93 216.701 1743.16 216.449 1742.27 216.256C1741.42 216.063 1740.49 215.966 1739.49 215.966C1738.36 215.966 1737.42 216.14 1736.64 216.488C1735.87 216.797 1735.25 217.242 1734.79 217.822C1734.32 218.402 1733.99 219.117 1733.8 219.968C1733.61 220.78 1733.51 221.669 1733.51 222.636V224.666H1744.53V230.524H1733.51V255H1726.49V222.52C1726.49 218.615 1727.52 215.56 1729.57 213.356C1731.62 211.113 1734.71 209.992 1738.85 209.992ZM1760.39 250.07C1762.55 250.07 1764.2 249.954 1765.32 249.722V241.95C1764.93 241.834 1764.37 241.718 1763.64 241.602C1762.9 241.486 1762.09 241.428 1761.2 241.428C1760.43 241.428 1759.63 241.486 1758.82 241.602C1758.05 241.718 1757.33 241.931 1756.68 242.24C1756.06 242.549 1755.55 242.994 1755.17 243.574C1754.78 244.115 1754.59 244.811 1754.59 245.662C1754.59 247.325 1755.11 248.485 1756.15 249.142C1757.2 249.761 1758.61 250.07 1760.39 250.07ZM1759.81 223.912C1762.13 223.912 1764.08 224.202 1765.67 224.782C1767.25 225.362 1768.51 226.174 1769.44 227.218C1770.4 228.262 1771.08 229.538 1771.47 231.046C1771.89 232.515 1772.1 234.139 1772.1 235.918V254.304C1771.02 254.536 1769.38 254.807 1767.17 255.116C1765.01 255.464 1762.55 255.638 1759.81 255.638C1757.99 255.638 1756.33 255.464 1754.82 255.116C1753.31 254.768 1752.02 254.207 1750.93 253.434C1749.89 252.661 1749.06 251.655 1748.44 250.418C1747.86 249.181 1747.57 247.653 1747.57 245.836C1747.57 244.096 1747.9 242.627 1748.56 241.428C1749.25 240.229 1750.18 239.263 1751.34 238.528C1752.5 237.755 1753.83 237.213 1755.34 236.904C1756.89 236.556 1758.49 236.382 1760.16 236.382C1760.93 236.382 1761.74 236.44 1762.59 236.556C1763.44 236.633 1764.35 236.788 1765.32 237.02V235.86C1765.32 235.048 1765.22 234.275 1765.03 233.54C1764.83 232.805 1764.49 232.167 1763.98 231.626C1763.52 231.046 1762.88 230.601 1762.07 230.292C1761.3 229.983 1760.31 229.828 1759.11 229.828C1757.49 229.828 1756 229.944 1754.65 230.176C1753.29 230.408 1752.19 230.679 1751.34 230.988L1750.47 225.304C1751.36 224.995 1752.65 224.685 1754.36 224.376C1756.06 224.067 1757.87 223.912 1759.81 223.912ZM1805.58 254.072C1804.23 254.42 1802.47 254.768 1800.3 255.116C1798.14 255.503 1795.76 255.696 1793.17 255.696C1790.73 255.696 1788.68 255.348 1787.02 254.652C1785.4 253.956 1784.08 252.989 1783.08 251.752C1782.11 250.515 1781.41 249.045 1780.99 247.344C1780.56 245.604 1780.35 243.709 1780.35 241.66V224.666H1787.37V240.558C1787.37 243.806 1787.83 246.126 1788.76 247.518C1789.73 248.91 1791.39 249.606 1793.75 249.606C1794.6 249.606 1795.49 249.567 1796.42 249.49C1797.38 249.413 1798.1 249.316 1798.56 249.2V224.666H1805.58V254.072ZM1825.07 255.58C1822.98 255.541 1821.24 255.309 1819.85 254.884C1818.5 254.459 1817.41 253.859 1816.6 253.086C1815.79 252.274 1815.21 251.288 1814.86 250.128C1814.55 248.929 1814.4 247.576 1814.4 246.068V211.152L1821.41 209.992V244.734C1821.41 245.585 1821.47 246.3 1821.59 246.88C1821.74 247.46 1821.99 247.963 1822.34 248.388C1822.69 248.775 1823.15 249.084 1823.73 249.316C1824.35 249.509 1825.13 249.664 1826.05 249.78L1825.07 255.58ZM1831.38 216.662L1838.4 215.502V224.666H1849.19V230.524H1838.4V242.878C1838.4 245.314 1838.79 247.054 1839.56 248.098C1840.33 249.142 1841.65 249.664 1843.51 249.664C1844.78 249.664 1845.9 249.529 1846.87 249.258C1847.87 248.987 1848.67 248.736 1849.25 248.504L1850.41 254.072C1849.6 254.42 1848.53 254.768 1847.22 255.116C1845.9 255.503 1844.36 255.696 1842.58 255.696C1840.41 255.696 1838.59 255.406 1837.13 254.826C1835.69 254.246 1834.55 253.415 1833.7 252.332C1832.85 251.211 1832.25 249.877 1831.91 248.33C1831.56 246.745 1831.38 244.947 1831.38 242.936V216.662ZM1859.86 237.658C1859.86 232.902 1859.14 228.455 1857.71 224.318C1856.28 220.142 1854.29 216.314 1851.74 212.834L1856.67 209.586C1859.8 213.337 1862.28 217.609 1864.09 222.404C1865.91 227.16 1866.82 232.245 1866.82 237.658C1866.82 243.071 1865.91 248.175 1864.09 252.97C1862.28 257.726 1859.8 261.979 1856.67 265.73L1851.74 262.482C1854.29 259.041 1856.28 255.232 1857.71 251.056C1859.14 246.88 1859.86 242.414 1859.86 237.658Z" fill="#60195E"/>
<path d="M130.562 663.918C129.673 667.321 128.706 670.646 127.662 673.894C126.657 677.103 125.651 680.139 124.646 683H118.904C118.131 681.221 117.319 679.191 116.468 676.91C115.617 674.629 114.767 672.193 113.916 669.602C113.065 667.011 112.215 664.285 111.364 661.424C110.513 658.563 109.682 655.643 108.87 652.666H116.294C116.642 654.29 117.048 656.049 117.512 657.944C117.976 659.8 118.459 661.714 118.962 663.686C119.465 665.619 119.987 667.514 120.528 669.37C121.069 671.226 121.611 672.927 122.152 674.474C122.732 672.695 123.293 670.859 123.834 668.964C124.414 667.069 124.955 665.175 125.458 663.28C125.961 661.385 126.425 659.549 126.85 657.77C127.314 655.953 127.72 654.251 128.068 652.666H133.462C133.81 654.251 134.197 655.953 134.622 657.77C135.047 659.549 135.492 661.385 135.956 663.28C136.459 665.175 136.981 667.069 137.522 668.964C138.102 670.859 138.682 672.695 139.262 674.474C139.765 672.927 140.287 671.226 140.828 669.37C141.369 667.514 141.891 665.619 142.394 663.686C142.935 661.714 143.438 659.8 143.902 657.944C144.366 656.049 144.772 654.29 145.12 652.666H152.37C151.558 655.643 150.727 658.563 149.876 661.424C149.025 664.285 148.175 667.011 147.324 669.602C146.473 672.193 145.623 674.629 144.772 676.91C143.921 679.191 143.09 681.221 142.278 683H136.594C135.589 680.139 134.545 677.103 133.462 673.894C132.418 670.646 131.451 667.321 130.562 663.918ZM175.006 658.988C174.426 658.795 173.614 658.601 172.57 658.408C171.565 658.176 170.385 658.06 169.032 658.06C168.259 658.06 167.427 658.137 166.538 658.292C165.687 658.447 165.088 658.582 164.74 658.698V683H157.722V654.116C159.075 653.613 160.757 653.149 162.768 652.724C164.817 652.26 167.079 652.028 169.554 652.028C170.018 652.028 170.559 652.067 171.178 652.144C171.797 652.183 172.415 652.26 173.034 652.376C173.653 652.453 174.252 652.569 174.832 652.724C175.412 652.84 175.876 652.956 176.224 653.072L175.006 658.988ZM191.786 678.07C193.952 678.07 195.595 677.954 196.716 677.722V669.95C196.33 669.834 195.769 669.718 195.034 669.602C194.3 669.486 193.488 669.428 192.598 669.428C191.825 669.428 191.032 669.486 190.22 669.602C189.447 669.718 188.732 669.931 188.074 670.24C187.456 670.549 186.953 670.994 186.566 671.574C186.18 672.115 185.986 672.811 185.986 673.662C185.986 675.325 186.508 676.485 187.552 677.142C188.596 677.761 190.008 678.07 191.786 678.07ZM191.206 651.912C193.526 651.912 195.479 652.202 197.064 652.782C198.65 653.362 199.906 654.174 200.834 655.218C201.801 656.262 202.478 657.538 202.864 659.046C203.29 660.515 203.502 662.139 203.502 663.918V682.304C202.42 682.536 200.776 682.807 198.572 683.116C196.407 683.464 193.952 683.638 191.206 683.638C189.389 683.638 187.726 683.464 186.218 683.116C184.71 682.768 183.415 682.207 182.332 681.434C181.288 680.661 180.457 679.655 179.838 678.418C179.258 677.181 178.968 675.653 178.968 673.836C178.968 672.096 179.297 670.627 179.954 669.428C180.65 668.229 181.578 667.263 182.738 666.528C183.898 665.755 185.232 665.213 186.74 664.904C188.287 664.556 189.892 664.382 191.554 664.382C192.328 664.382 193.14 664.44 193.99 664.556C194.841 664.633 195.75 664.788 196.716 665.02V663.86C196.716 663.048 196.62 662.275 196.426 661.54C196.233 660.805 195.885 660.167 195.382 659.626C194.918 659.046 194.28 658.601 193.468 658.292C192.695 657.983 191.709 657.828 190.51 657.828C188.886 657.828 187.398 657.944 186.044 658.176C184.691 658.408 183.589 658.679 182.738 658.988L181.868 653.304C182.758 652.995 184.053 652.685 185.754 652.376C187.456 652.067 189.273 651.912 191.206 651.912ZM232.223 667.978C232.223 664.846 231.508 662.41 230.077 660.67C228.685 658.93 226.423 658.06 223.291 658.06C222.634 658.06 221.938 658.099 221.203 658.176C220.507 658.215 219.811 658.331 219.115 658.524V675.866C219.734 676.291 220.546 676.697 221.551 677.084C222.595 677.432 223.697 677.606 224.857 677.606C227.409 677.606 229.265 676.736 230.425 674.996C231.624 673.256 232.223 670.917 232.223 667.978ZM239.415 667.862C239.415 670.182 239.106 672.309 238.487 674.242C237.907 676.175 237.056 677.838 235.935 679.23C234.814 680.622 233.402 681.705 231.701 682.478C230.038 683.251 228.144 683.638 226.017 683.638C224.586 683.638 223.272 683.464 222.073 683.116C220.874 682.768 219.888 682.381 219.115 681.956V693.73H212.097V653.652C213.528 653.265 215.287 652.898 217.375 652.55C219.463 652.202 221.667 652.028 223.987 652.028C226.384 652.028 228.53 652.395 230.425 653.13C232.32 653.865 233.924 654.928 235.239 656.32C236.592 657.673 237.617 659.336 238.313 661.308C239.048 663.241 239.415 665.426 239.415 667.862Z" fill="#60195E"/>
<path d="M1441.56 667.918C1440.67 671.321 1439.71 674.646 1438.66 677.894C1437.66 681.103 1436.65 684.139 1435.65 687H1429.9C1429.13 685.221 1428.32 683.191 1427.47 680.91C1426.62 678.629 1425.77 676.193 1424.92 673.602C1424.07 671.011 1423.21 668.285 1422.36 665.424C1421.51 662.563 1420.68 659.643 1419.87 656.666H1427.29C1427.64 658.29 1428.05 660.049 1428.51 661.944C1428.98 663.8 1429.46 665.714 1429.96 667.686C1430.46 669.619 1430.99 671.514 1431.53 673.37C1432.07 675.226 1432.61 676.927 1433.15 678.474C1433.73 676.695 1434.29 674.859 1434.83 672.964C1435.41 671.069 1435.96 669.175 1436.46 667.28C1436.96 665.385 1437.42 663.549 1437.85 661.77C1438.31 659.953 1438.72 658.251 1439.07 656.666H1444.46C1444.81 658.251 1445.2 659.953 1445.62 661.77C1446.05 663.549 1446.49 665.385 1446.96 667.28C1447.46 669.175 1447.98 671.069 1448.52 672.964C1449.1 674.859 1449.68 676.695 1450.26 678.474C1450.76 676.927 1451.29 675.226 1451.83 673.37C1452.37 671.514 1452.89 669.619 1453.39 667.686C1453.94 665.714 1454.44 663.8 1454.9 661.944C1455.37 660.049 1455.77 658.29 1456.12 656.666H1463.37C1462.56 659.643 1461.73 662.563 1460.88 665.424C1460.03 668.285 1459.17 671.011 1458.32 673.602C1457.47 676.193 1456.62 678.629 1455.77 680.91C1454.92 683.191 1454.09 685.221 1453.28 687H1447.59C1446.59 684.139 1445.54 681.103 1444.46 677.894C1443.42 674.646 1442.45 671.321 1441.56 667.918ZM1486.01 662.988C1485.43 662.795 1484.61 662.601 1483.57 662.408C1482.56 662.176 1481.39 662.06 1480.03 662.06C1479.26 662.06 1478.43 662.137 1477.54 662.292C1476.69 662.447 1476.09 662.582 1475.74 662.698V687H1468.72V658.116C1470.08 657.613 1471.76 657.149 1473.77 656.724C1475.82 656.26 1478.08 656.028 1480.55 656.028C1481.02 656.028 1481.56 656.067 1482.18 656.144C1482.8 656.183 1483.42 656.26 1484.03 656.376C1484.65 656.453 1485.25 656.569 1485.83 656.724C1486.41 656.84 1486.88 656.956 1487.22 657.072L1486.01 662.988ZM1502.79 682.07C1504.95 682.07 1506.6 681.954 1507.72 681.722V673.95C1507.33 673.834 1506.77 673.718 1506.03 673.602C1505.3 673.486 1504.49 673.428 1503.6 673.428C1502.83 673.428 1502.03 673.486 1501.22 673.602C1500.45 673.718 1499.73 673.931 1499.07 674.24C1498.46 674.549 1497.95 674.994 1497.57 675.574C1497.18 676.115 1496.99 676.811 1496.99 677.662C1496.99 679.325 1497.51 680.485 1498.55 681.142C1499.6 681.761 1501.01 682.07 1502.79 682.07ZM1502.21 655.912C1504.53 655.912 1506.48 656.202 1508.06 656.782C1509.65 657.362 1510.91 658.174 1511.83 659.218C1512.8 660.262 1513.48 661.538 1513.86 663.046C1514.29 664.515 1514.5 666.139 1514.5 667.918V686.304C1513.42 686.536 1511.78 686.807 1509.57 687.116C1507.41 687.464 1504.95 687.638 1502.21 687.638C1500.39 687.638 1498.73 687.464 1497.22 687.116C1495.71 686.768 1494.42 686.207 1493.33 685.434C1492.29 684.661 1491.46 683.655 1490.84 682.418C1490.26 681.181 1489.97 679.653 1489.97 677.836C1489.97 676.096 1490.3 674.627 1490.95 673.428C1491.65 672.229 1492.58 671.263 1493.74 670.528C1494.9 669.755 1496.23 669.213 1497.74 668.904C1499.29 668.556 1500.89 668.382 1502.55 668.382C1503.33 668.382 1504.14 668.44 1504.99 668.556C1505.84 668.633 1506.75 668.788 1507.72 669.02V667.86C1507.72 667.048 1507.62 666.275 1507.43 665.54C1507.23 664.805 1506.89 664.167 1506.38 663.626C1505.92 663.046 1505.28 662.601 1504.47 662.292C1503.7 661.983 1502.71 661.828 1501.51 661.828C1499.89 661.828 1498.4 661.944 1497.04 662.176C1495.69 662.408 1494.59 662.679 1493.74 662.988L1492.87 657.304C1493.76 656.995 1495.05 656.685 1496.75 656.376C1498.46 656.067 1500.27 655.912 1502.21 655.912ZM1543.22 671.978C1543.22 668.846 1542.51 666.41 1541.08 664.67C1539.68 662.93 1537.42 662.06 1534.29 662.06C1533.63 662.06 1532.94 662.099 1532.2 662.176C1531.51 662.215 1530.81 662.331 1530.11 662.524V679.866C1530.73 680.291 1531.55 680.697 1532.55 681.084C1533.59 681.432 1534.7 681.606 1535.86 681.606C1538.41 681.606 1540.26 680.736 1541.42 678.996C1542.62 677.256 1543.22 674.917 1543.22 671.978ZM1550.41 671.862C1550.41 674.182 1550.11 676.309 1549.49 678.242C1548.91 680.175 1548.06 681.838 1546.93 683.23C1545.81 684.622 1544.4 685.705 1542.7 686.478C1541.04 687.251 1539.14 687.638 1537.02 687.638C1535.59 687.638 1534.27 687.464 1533.07 687.116C1531.87 686.768 1530.89 686.381 1530.11 685.956V697.73H1523.1V657.652C1524.53 657.265 1526.29 656.898 1528.37 656.55C1530.46 656.202 1532.67 656.028 1534.99 656.028C1537.38 656.028 1539.53 656.395 1541.42 657.13C1543.32 657.865 1544.92 658.928 1546.24 660.32C1547.59 661.673 1548.62 663.336 1549.31 665.308C1550.05 667.241 1550.41 669.426 1550.41 671.862ZM1554.52 667.222H1570.12V673.66H1554.52V667.222ZM1593.23 662.988C1592.65 662.795 1591.83 662.601 1590.79 662.408C1589.79 662.176 1588.61 662.06 1587.25 662.06C1586.48 662.06 1585.65 662.137 1584.76 662.292C1583.91 662.447 1583.31 662.582 1582.96 662.698V687H1575.94V658.116C1577.3 657.613 1578.98 657.149 1580.99 656.724C1583.04 656.26 1585.3 656.028 1587.77 656.028C1588.24 656.028 1588.78 656.067 1589.4 656.144C1590.02 656.183 1590.64 656.26 1591.25 656.376C1591.87 656.453 1592.47 656.569 1593.05 656.724C1593.63 656.84 1594.1 656.956 1594.44 657.072L1593.23 662.988ZM1597.65 671.978C1597.65 669.31 1598.04 666.971 1598.81 664.96C1599.63 662.949 1600.69 661.287 1602 659.972C1603.32 658.619 1604.83 657.613 1606.53 656.956C1608.23 656.26 1609.97 655.912 1611.75 655.912C1615.92 655.912 1619.17 657.207 1621.49 659.798C1623.85 662.389 1625.03 666.255 1625.03 671.398C1625.03 671.785 1625.01 672.229 1624.97 672.732C1624.97 673.196 1624.95 673.621 1624.91 674.008H1604.9C1605.1 676.444 1605.95 678.339 1607.46 679.692C1609 681.007 1611.23 681.664 1614.13 681.664C1615.83 681.664 1617.37 681.509 1618.77 681.2C1620.2 680.891 1621.32 680.562 1622.13 680.214L1623.06 685.956C1622.67 686.149 1622.13 686.362 1621.43 686.594C1620.78 686.787 1620 686.961 1619.11 687.116C1618.26 687.309 1617.33 687.464 1616.33 687.58C1615.32 687.696 1614.3 687.754 1613.26 687.754C1610.59 687.754 1608.27 687.367 1606.3 686.594C1604.32 685.782 1602.7 684.68 1601.42 683.288C1600.15 681.857 1599.2 680.195 1598.58 678.3C1597.96 676.367 1597.65 674.259 1597.65 671.978ZM1618.01 668.846C1618.01 667.879 1617.88 666.971 1617.61 666.12C1617.33 665.231 1616.93 664.477 1616.39 663.858C1615.88 663.201 1615.25 662.698 1614.47 662.35C1613.74 661.963 1612.85 661.77 1611.81 661.77C1610.72 661.77 1609.78 661.983 1608.96 662.408C1608.15 662.795 1607.46 663.317 1606.88 663.974C1606.33 664.631 1605.91 665.385 1605.6 666.236C1605.29 667.087 1605.08 667.957 1604.96 668.846H1618.01ZM1640.24 687C1638.31 683.017 1636.32 678.455 1634.27 673.312C1632.26 668.131 1630.42 662.582 1628.76 656.666H1636.24C1636.67 658.367 1637.15 660.204 1637.69 662.176C1638.27 664.109 1638.87 666.062 1639.49 668.034C1640.15 669.967 1640.8 671.862 1641.46 673.718C1642.16 675.535 1642.79 677.179 1643.37 678.648C1643.95 677.179 1644.57 675.535 1645.23 673.718C1645.89 671.862 1646.53 669.967 1647.14 668.034C1647.8 666.062 1648.42 664.109 1649 662.176C1649.58 660.204 1650.08 658.367 1650.51 656.666H1657.76C1656.1 662.582 1654.24 668.131 1652.19 673.312C1650.18 678.455 1648.21 683.017 1646.27 687H1640.24ZM1660.64 671.978C1660.64 669.31 1661.02 666.971 1661.8 664.96C1662.61 662.949 1663.67 661.287 1664.99 659.972C1666.3 658.619 1667.81 657.613 1669.51 656.956C1671.21 656.26 1672.95 655.912 1674.73 655.912C1678.91 655.912 1682.16 657.207 1684.48 659.798C1686.83 662.389 1688.01 666.255 1688.01 671.398C1688.01 671.785 1687.99 672.229 1687.96 672.732C1687.96 673.196 1687.94 673.621 1687.9 674.008H1667.89C1668.08 676.444 1668.93 678.339 1670.44 679.692C1671.99 681.007 1674.21 681.664 1677.11 681.664C1678.81 681.664 1680.36 681.509 1681.75 681.2C1683.18 680.891 1684.3 680.562 1685.11 680.214L1686.04 685.956C1685.65 686.149 1685.11 686.362 1684.42 686.594C1683.76 686.787 1682.99 686.961 1682.1 687.116C1681.25 687.309 1680.32 687.464 1679.31 687.58C1678.31 687.696 1677.28 687.754 1676.24 687.754C1673.57 687.754 1671.25 687.367 1669.28 686.594C1667.31 685.782 1665.68 684.68 1664.41 683.288C1663.13 681.857 1662.18 680.195 1661.57 678.3C1660.95 676.367 1660.64 674.259 1660.64 671.978ZM1681 668.846C1681 667.879 1680.86 666.971 1680.59 666.12C1680.32 665.231 1679.91 664.477 1679.37 663.858C1678.87 663.201 1678.23 662.698 1677.46 662.35C1676.72 661.963 1675.83 661.77 1674.79 661.77C1673.71 661.77 1672.76 661.983 1671.95 662.408C1671.14 662.795 1670.44 663.317 1669.86 663.974C1669.32 664.631 1668.89 665.385 1668.58 666.236C1668.27 667.087 1668.06 667.957 1667.95 668.846H1681ZM1712.74 662.988C1712.16 662.795 1711.35 662.601 1710.3 662.408C1709.3 662.176 1708.12 662.06 1706.76 662.06C1705.99 662.06 1705.16 662.137 1704.27 662.292C1703.42 662.447 1702.82 662.582 1702.47 662.698V687H1695.45V658.116C1696.81 657.613 1698.49 657.149 1700.5 656.724C1702.55 656.26 1704.81 656.028 1707.29 656.028C1707.75 656.028 1708.29 656.067 1708.91 656.144C1709.53 656.183 1710.15 656.26 1710.77 656.376C1711.38 656.453 1711.98 656.569 1712.56 656.724C1713.14 656.84 1713.61 656.956 1713.96 657.072L1712.74 662.988ZM1726.44 681.954C1728.3 681.954 1729.65 681.741 1730.5 681.316C1731.36 680.852 1731.78 680.079 1731.78 678.996C1731.78 677.991 1731.32 677.159 1730.39 676.502C1729.5 675.845 1728.01 675.129 1725.92 674.356C1724.65 673.892 1723.47 673.409 1722.38 672.906C1721.34 672.365 1720.43 671.746 1719.66 671.05C1718.89 670.354 1718.27 669.523 1717.8 668.556C1717.38 667.551 1717.16 666.333 1717.16 664.902C1717.16 662.118 1718.19 659.933 1720.24 658.348C1722.29 656.724 1725.07 655.912 1728.59 655.912C1730.37 655.912 1732.07 656.086 1733.69 656.434C1735.32 656.743 1736.54 657.053 1737.35 657.362L1736.07 663.046C1735.3 662.698 1734.31 662.389 1733.11 662.118C1731.92 661.809 1730.52 661.654 1728.94 661.654C1727.51 661.654 1726.35 661.905 1725.46 662.408C1724.57 662.872 1724.12 663.607 1724.12 664.612C1724.12 665.115 1724.2 665.559 1724.36 665.946C1724.55 666.333 1724.86 666.7 1725.28 667.048C1725.71 667.357 1726.27 667.686 1726.97 668.034C1727.66 668.343 1728.51 668.672 1729.52 669.02C1731.18 669.639 1732.59 670.257 1733.75 670.876C1734.91 671.456 1735.86 672.133 1736.59 672.906C1737.37 673.641 1737.93 674.491 1738.28 675.458C1738.62 676.425 1738.8 677.585 1738.8 678.938C1738.8 681.838 1737.72 684.042 1735.55 685.55C1733.42 687.019 1730.37 687.754 1726.39 687.754C1723.72 687.754 1721.57 687.522 1719.95 687.058C1718.32 686.633 1717.18 686.285 1716.53 686.014L1717.74 680.156C1718.79 680.581 1720.03 680.987 1721.46 681.374C1722.93 681.761 1724.59 681.954 1726.44 681.954ZM1743.67 671.978C1743.67 669.31 1744.06 666.971 1744.83 664.96C1745.64 662.949 1746.71 661.287 1748.02 659.972C1749.34 658.619 1750.85 657.613 1752.55 656.956C1754.25 656.26 1755.99 655.912 1757.77 655.912C1761.94 655.912 1765.19 657.207 1767.51 659.798C1769.87 662.389 1771.05 666.255 1771.05 671.398C1771.05 671.785 1771.03 672.229 1770.99 672.732C1770.99 673.196 1770.97 673.621 1770.93 674.008H1750.92C1751.12 676.444 1751.97 678.339 1753.47 679.692C1755.02 681.007 1757.24 681.664 1760.14 681.664C1761.85 681.664 1763.39 681.509 1764.78 681.2C1766.22 680.891 1767.34 680.562 1768.15 680.214L1769.08 685.956C1768.69 686.149 1768.15 686.362 1767.45 686.594C1766.8 686.787 1766.02 686.961 1765.13 687.116C1764.28 687.309 1763.35 687.464 1762.35 687.58C1761.34 687.696 1760.32 687.754 1759.27 687.754C1756.61 687.754 1754.29 687.367 1752.31 686.594C1750.34 685.782 1748.72 684.68 1747.44 683.288C1746.17 681.857 1745.22 680.195 1744.6 678.3C1743.98 676.367 1743.67 674.259 1743.67 671.978ZM1764.03 668.846C1764.03 667.879 1763.9 666.971 1763.62 666.12C1763.35 665.231 1762.95 664.477 1762.41 663.858C1761.9 663.201 1761.27 662.698 1760.49 662.35C1759.76 661.963 1758.87 661.77 1757.82 661.77C1756.74 661.77 1755.79 661.983 1754.98 662.408C1754.17 662.795 1753.47 663.317 1752.89 663.974C1752.35 664.631 1751.93 665.385 1751.62 666.236C1751.31 667.087 1751.1 667.957 1750.98 668.846H1764.03Z" fill="#60195E"/>
<line x1="111" y1="233.5" x2="1232" y2="233.5" stroke="#60195E" stroke-width="13"/>
<line x1="111" y1="233.5" x2="1232" y2="233.5" stroke="black" stroke-opacity="0.2" stroke-width="13"/>
</svg>
