<svg width="2645" height="1085" viewBox="0 0 2645 1085" fill="none" xmlns="http://www.w3.org/2000/svg">
<rect width="2645" height="1085" fill="white"/>
<path d="M1421.5 215C1421.5 205.335 1429.34 197.5 1439 197.5H2510C2519.66 197.5 2527.5 205.335 2527.5 215V394.963C2527.5 404.628 2519.66 412.463 2510 412.463H1439C1429.34 412.463 1421.5 404.628 1421.5 394.963V215Z" fill="#C4C4C4" stroke="#C4C4C4" stroke-width="5"/>
<path d="M1757.5 236C1757.5 226.335 1765.34 218.5 1775 218.5H2129C2138.67 218.5 2146.5 226.335 2146.5 236V372C2146.5 381.665 2138.67 389.5 2129 389.5H1775C1765.34 389.5 1757.5 381.665 1757.5 372V236Z" fill="#E6E6E6" stroke="#60195E" stroke-width="5"/>
<path d="M2252.5 237C2252.5 227.335 2260.34 219.5 2270 219.5H2439C2448.66 219.5 2456.5 227.335 2456.5 237V372C2456.5 381.665 2448.66 389.5 2439 389.5H2270C2260.34 389.5 2252.5 381.665 2252.5 372V237Z" fill="#E6E6E6" stroke="#60195E" stroke-width="5"/>
<path d="M1447.5 237C1447.5 227.335 1455.34 219.5 1465 219.5H1634C1643.66 219.5 1651.5 227.335 1651.5 237V373C1651.5 382.665 1643.66 390.5 1634 390.5H1465C1455.34 390.5 1447.5 382.665 1447.5 373V237Z" fill="#E6E6E6" stroke="#60195E" stroke-width="5"/>
<path d="M110.5 619C110.5 609.335 118.335 601.5 128 601.5H1199C1208.66 601.5 1216.5 609.335 1216.5 619V996C1216.5 1005.66 1208.66 1013.5 1199 1013.5H128C118.335 1013.5 110.5 1005.66 110.5 996V619Z" fill="#C4C4C4" stroke="#C4C4C4" stroke-width="5"/>
<path d="M387 622.5H946C955.665 622.5 963.5 630.335 963.5 640V776C963.5 785.665 955.665 793.5 946 793.5H387C377.335 793.5 369.5 785.665 369.5 776V640C369.5 630.335 377.335 622.5 387 622.5Z" fill="#E6E6E6" stroke="#60195E" stroke-width="5"/>
<path d="M989.5 640C989.5 630.335 997.335 622.5 1007 622.5H1176C1185.66 622.5 1193.5 630.335 1193.5 640V775C1193.5 784.665 1185.66 792.5 1176 792.5H1007C997.335 792.5 989.5 784.665 989.5 775V640Z" fill="#E6E6E6" stroke="#60195E" stroke-width="5"/>
<path d="M136.5 641C136.5 631.335 144.335 623.5 154 623.5H323C332.665 623.5 340.5 631.335 340.5 641V777C340.5 786.665 332.665 794.5 323 794.5H154C144.335 794.5 136.5 786.665 136.5 777V641Z" fill="#E6E6E6" stroke="#60195E" stroke-width="5"/>
<path d="M387 820.5H946C955.665 820.5 963.5 828.335 963.5 838V974C963.5 983.665 955.665 991.5 946 991.5H387C377.335 991.5 369.5 983.665 369.5 974V838C369.5 828.335 377.335 820.5 387 820.5Z" fill="#E6E6E6" stroke="#60195E" stroke-width="5"/>
<path d="M989.5 838C989.5 828.335 997.335 820.5 1007 820.5H1176C1185.66 820.5 1193.5 828.335 1193.5 838V973C1193.5 982.665 1185.66 990.5 1176 990.5H1007C997.335 990.5 989.5 982.665 989.5 973V838Z" fill="#E6E6E6" stroke="#60195E" stroke-width="5"/>
<path d="M136.5 839C136.5 829.335 144.335 821.5 154 821.5H323C332.665 821.5 340.5 829.335 340.5 839V975C340.5 984.665 332.665 992.5 323 992.5H154C144.335 992.5 136.5 984.665 136.5 975V839Z" fill="#E6E6E6" stroke="#60195E" stroke-width="5"/>
<path d="M1420.5 619C1420.5 609.335 1428.34 601.5 1438 601.5H2509C2518.66 601.5 2526.5 609.335 2526.5 619V996C2526.5 1005.66 2518.66 1013.5 2509 1013.5H1438C1428.34 1013.5 1420.5 1005.66 1420.5 996V619Z" fill="#C4C4C4" stroke="#C4C4C4" stroke-width="5"/>
<path d="M1757.5 640C1757.5 630.335 1765.34 622.5 1775 622.5H2129C2138.67 622.5 2146.5 630.335 2146.5 640V776C2146.5 785.665 2138.66 793.5 2129 793.5H1775C1765.34 793.5 1757.5 785.665 1757.5 776V640Z" fill="#E6E6E6" stroke="#60195E" stroke-width="5"/>
<path d="M2252.5 640C2252.5 630.335 2260.34 622.5 2270 622.5H2439C2448.66 622.5 2456.5 630.335 2456.5 640V775C2456.5 784.665 2448.66 792.5 2439 792.5H2270C2260.34 792.5 2252.5 784.665 2252.5 775V640Z" fill="#E6E6E6" stroke="#60195E" stroke-width="5"/>
<path d="M1446.5 641C1446.5 631.335 1454.34 623.5 1464 623.5H1633C1642.66 623.5 1650.5 631.335 1650.5 641V777C1650.5 786.665 1642.66 794.5 1633 794.5H1464C1454.34 794.5 1446.5 786.665 1446.5 777V641Z" fill="#E6E6E6" stroke="#60195E" stroke-width="5"/>
<path d="M1757.5 838C1757.5 828.335 1765.34 820.5 1775 820.5H2129C2138.67 820.5 2146.5 828.335 2146.5 838V974C2146.5 983.665 2138.67 991.5 2129 991.5H1775C1765.34 991.5 1757.5 983.665 1757.5 974V838Z" fill="#E6E6E6" stroke="#60195E" stroke-width="5"/>
<path d="M2252.5 838C2252.5 828.335 2260.34 820.5 2270 820.5H2439C2448.66 820.5 2456.5 828.335 2456.5 838V973C2456.5 982.665 2448.66 990.5 2439 990.5H2270C2260.34 990.5 2252.5 982.665 2252.5 973V838Z" fill="#E6E6E6" stroke="#60195E" stroke-width="5"/>
<path d="M1446.5 839C1446.5 829.335 1454.34 821.5 1464 821.5H1633C1642.66 821.5 1650.5 829.335 1650.5 839V975C1650.5 984.665 1642.66 992.5 1633 992.5H1464C1454.34 992.5 1446.5 984.665 1446.5 975V839Z" fill="#E6E6E6" stroke="#60195E" stroke-width="5"/>
<path d="M127.856 173.05C127.856 178.081 128.934 181.772 131.09 184.124C133.311 186.411 136.153 187.554 139.616 187.554C141.511 187.554 143.275 187.293 144.908 186.77C146.607 186.247 147.979 185.627 149.024 184.908V158.35C148.175 158.154 147.129 157.991 145.888 157.86C144.647 157.664 143.079 157.566 141.184 157.566C136.872 157.566 133.573 159.003 131.286 161.878C128.999 164.687 127.856 168.411 127.856 173.05ZM160.882 194.806C160.882 202.973 158.791 208.951 154.61 212.74C150.494 216.529 144.157 218.424 135.598 218.424C132.462 218.424 129.391 218.163 126.386 217.64C123.446 217.117 120.767 216.431 118.35 215.582L120.506 205.488C122.531 206.337 124.818 207.023 127.366 207.546C129.979 208.069 132.789 208.33 135.794 208.33C140.563 208.33 143.961 207.35 145.986 205.39C148.011 203.43 149.024 200.523 149.024 196.668V194.708C147.848 195.296 146.28 195.884 144.32 196.472C142.425 197.06 140.237 197.354 137.754 197.354C134.487 197.354 131.482 196.831 128.738 195.786C126.059 194.741 123.74 193.205 121.78 191.18C119.885 189.155 118.383 186.639 117.272 183.634C116.227 180.563 115.704 177.035 115.704 173.05C115.704 169.326 116.259 165.896 117.37 162.76C118.546 159.624 120.212 156.945 122.368 154.724C124.589 152.503 127.268 150.771 130.404 149.53C133.54 148.289 137.101 147.668 141.086 147.668C144.941 147.668 148.599 147.962 152.062 148.55C155.525 149.138 158.465 149.759 160.882 150.412V194.806ZM194 191.67C197.659 191.67 200.435 191.474 202.33 191.082V177.95C201.677 177.754 200.729 177.558 199.488 177.362C198.247 177.166 196.875 177.068 195.372 177.068C194.065 177.068 192.726 177.166 191.354 177.362C190.047 177.558 188.839 177.917 187.728 178.44C186.683 178.963 185.833 179.714 185.18 180.694C184.527 181.609 184.2 182.785 184.2 184.222C184.2 187.031 185.082 188.991 186.846 190.102C188.61 191.147 190.995 191.67 194 191.67ZM193.02 147.472C196.94 147.472 200.239 147.962 202.918 148.942C205.597 149.922 207.72 151.294 209.288 153.058C210.921 154.822 212.065 156.978 212.718 159.526C213.437 162.009 213.796 164.753 213.796 167.758V198.824C211.967 199.216 209.19 199.673 205.466 200.196C201.807 200.784 197.659 201.078 193.02 201.078C189.949 201.078 187.14 200.784 184.592 200.196C182.044 199.608 179.855 198.661 178.026 197.354C176.262 196.047 174.857 194.349 173.812 192.258C172.832 190.167 172.342 187.587 172.342 184.516C172.342 181.576 172.897 179.093 174.008 177.068C175.184 175.043 176.752 173.409 178.712 172.168C180.672 170.861 182.926 169.947 185.474 169.424C188.087 168.836 190.799 168.542 193.608 168.542C194.915 168.542 196.287 168.64 197.724 168.836C199.161 168.967 200.697 169.228 202.33 169.62V167.66C202.33 166.288 202.167 164.981 201.84 163.74C201.513 162.499 200.925 161.421 200.076 160.506C199.292 159.526 198.214 158.775 196.842 158.252C195.535 157.729 193.869 157.468 191.844 157.468C189.1 157.468 186.585 157.664 184.298 158.056C182.011 158.448 180.149 158.905 178.712 159.428L177.242 149.824C178.745 149.301 180.933 148.779 183.808 148.256C186.683 147.733 189.753 147.472 193.02 147.472ZM262.323 174.618C262.323 169.326 261.115 165.21 258.697 162.27C256.345 159.33 252.523 157.86 247.231 157.86C246.121 157.86 244.945 157.925 243.703 158.056C242.527 158.121 241.351 158.317 240.175 158.644V187.946C241.221 188.665 242.593 189.351 244.291 190.004C246.055 190.592 247.917 190.886 249.877 190.886C254.189 190.886 257.325 189.416 259.285 186.476C261.311 183.536 262.323 179.583 262.323 174.618ZM274.475 174.422C274.475 178.342 273.953 181.935 272.907 185.202C271.927 188.469 270.49 191.278 268.595 193.63C266.701 195.982 264.316 197.811 261.441 199.118C258.632 200.425 255.431 201.078 251.837 201.078C249.42 201.078 247.199 200.784 245.173 200.196C243.148 199.608 241.482 198.955 240.175 198.236V218.13H228.317V150.412C230.735 149.759 233.707 149.138 237.235 148.55C240.763 147.962 244.487 147.668 248.407 147.668C252.458 147.668 256.084 148.289 259.285 149.53C262.487 150.771 265.198 152.568 267.419 154.92C269.706 157.207 271.437 160.016 272.613 163.348C273.855 166.615 274.475 170.306 274.475 174.422Z" fill="#60195E"/>
<path d="M112.544 269.696L120.288 268.416V278.528H132.192V284.992H120.288V298.624C120.288 301.312 120.715 303.232 121.568 304.384C122.421 305.536 123.872 306.112 125.92 306.112C127.328 306.112 128.565 305.963 129.632 305.664C130.741 305.365 131.616 305.088 132.256 304.832L133.536 310.976C132.64 311.36 131.467 311.744 130.016 312.128C128.565 312.555 126.859 312.768 124.896 312.768C122.507 312.768 120.501 312.448 118.88 311.808C117.301 311.168 116.043 310.251 115.104 309.056C114.165 307.819 113.504 306.347 113.12 304.64C112.736 302.891 112.544 300.907 112.544 298.688V269.696ZM167.006 278.528C163.55 291.243 159.539 302.763 154.974 313.088C154.121 315.008 153.246 316.651 152.35 318.016C151.454 319.381 150.451 320.512 149.342 321.408C148.233 322.304 146.995 322.944 145.63 323.328C144.265 323.755 142.686 323.968 140.894 323.968C139.699 323.968 138.505 323.84 137.31 323.584C136.158 323.328 135.283 323.051 134.686 322.752L136.094 316.544C137.63 317.141 139.145 317.44 140.638 317.44C142.643 317.44 144.201 316.949 145.31 315.968C146.462 315.029 147.465 313.557 148.318 311.552C145.886 306.859 143.539 301.739 141.278 296.192C139.059 290.645 137.075 284.757 135.326 278.528H143.582C144.009 280.32 144.521 282.261 145.118 284.352C145.758 286.443 146.441 288.576 147.166 290.752C147.891 292.885 148.659 295.019 149.47 297.152C150.281 299.285 151.091 301.269 151.902 303.104C153.267 299.307 154.547 295.275 155.742 291.008C156.937 286.699 158.025 282.539 159.006 278.528H167.006ZM195.074 295.424C195.074 291.968 194.284 289.28 192.706 287.36C191.17 285.44 188.674 284.48 185.218 284.48C184.492 284.48 183.724 284.523 182.914 284.608C182.146 284.651 181.378 284.779 180.61 284.992V304.128C181.292 304.597 182.188 305.045 183.298 305.472C184.45 305.856 185.666 306.048 186.946 306.048C189.762 306.048 191.81 305.088 193.09 303.168C194.412 301.248 195.074 298.667 195.074 295.424ZM203.01 295.296C203.01 297.856 202.668 300.203 201.986 302.336C201.346 304.469 200.407 306.304 199.17 307.84C197.932 309.376 196.375 310.571 194.498 311.424C192.663 312.277 190.572 312.704 188.226 312.704C186.647 312.704 185.196 312.512 183.874 312.128C182.551 311.744 181.463 311.317 180.61 310.848V323.84H172.866V279.616C174.444 279.189 176.386 278.784 178.69 278.4C180.994 278.016 183.426 277.824 185.986 277.824C188.631 277.824 190.999 278.229 193.09 279.04C195.18 279.851 196.951 281.024 198.402 282.56C199.895 284.053 201.026 285.888 201.794 288.064C202.604 290.197 203.01 292.608 203.01 295.296ZM209.135 295.424C209.135 292.48 209.561 289.899 210.415 287.68C211.311 285.461 212.484 283.627 213.935 282.176C215.385 280.683 217.049 279.573 218.927 278.848C220.804 278.08 222.724 277.696 224.687 277.696C229.295 277.696 232.879 279.125 235.439 281.984C238.041 284.843 239.343 289.109 239.343 294.784C239.343 295.211 239.321 295.701 239.279 296.256C239.279 296.768 239.257 297.237 239.215 297.664H217.135C217.348 300.352 218.287 302.443 219.951 303.936C221.657 305.387 224.111 306.112 227.311 306.112C229.188 306.112 230.895 305.941 232.431 305.6C234.009 305.259 235.247 304.896 236.143 304.512L237.167 310.848C236.74 311.061 236.143 311.296 235.375 311.552C234.649 311.765 233.796 311.957 232.815 312.128C231.876 312.341 230.852 312.512 229.743 312.64C228.633 312.768 227.503 312.832 226.351 312.832C223.407 312.832 220.847 312.405 218.671 311.552C216.495 310.656 214.703 309.44 213.295 307.904C211.887 306.325 210.841 304.491 210.159 302.4C209.476 300.267 209.135 297.941 209.135 295.424ZM231.599 291.968C231.599 290.901 231.449 289.899 231.151 288.96C230.852 287.979 230.404 287.147 229.807 286.464C229.252 285.739 228.548 285.184 227.695 284.8C226.884 284.373 225.903 284.16 224.751 284.16C223.556 284.16 222.511 284.395 221.615 284.864C220.719 285.291 219.951 285.867 219.311 286.592C218.713 287.317 218.244 288.149 217.903 289.088C217.561 290.027 217.327 290.987 217.199 291.968H231.599ZM256.257 283.84C256.257 285.333 255.745 286.549 254.721 287.488C253.74 288.427 252.545 288.896 251.137 288.896C249.686 288.896 248.47 288.427 247.489 287.488C246.508 286.549 246.017 285.333 246.017 283.84C246.017 282.347 246.508 281.131 247.489 280.192C248.47 279.211 249.686 278.72 251.137 278.72C252.545 278.72 253.74 279.211 254.721 280.192C255.745 281.131 256.257 282.347 256.257 283.84ZM256.257 307.776C256.257 309.269 255.745 310.485 254.721 311.424C253.74 312.363 252.545 312.832 251.137 312.832C249.686 312.832 248.47 312.363 247.489 311.424C246.508 310.485 246.017 309.269 246.017 307.776C246.017 306.283 246.508 305.067 247.489 304.128C248.47 303.147 249.686 302.656 251.137 302.656C252.545 302.656 253.74 303.147 254.721 304.128C255.745 305.067 256.257 306.283 256.257 307.776ZM293.251 262.336C294.872 262.336 296.237 262.464 297.347 262.72C298.499 262.976 299.395 263.232 300.035 263.488L298.819 269.76C298.221 269.547 297.496 269.355 296.643 269.184C295.832 269.013 294.936 268.928 293.955 268.928C291.395 268.928 289.624 269.611 288.643 270.976C287.704 272.341 287.235 274.112 287.235 276.288V278.528H299.523V284.992H287.235V312H279.491V276.16C279.491 271.808 280.621 268.416 282.883 265.984C285.144 263.552 288.6 262.336 293.251 262.336ZM317.123 312.64C314.819 312.597 312.899 312.341 311.363 311.872C309.869 311.403 308.675 310.741 307.779 309.888C306.883 308.992 306.243 307.904 305.859 306.624C305.517 305.301 305.347 303.808 305.347 302.144V263.616L313.091 262.336V300.672C313.091 301.611 313.155 302.4 313.283 303.04C313.453 303.68 313.731 304.235 314.115 304.704C314.499 305.131 315.011 305.472 315.651 305.728C316.333 305.941 317.187 306.112 318.211 306.24L317.123 312.64ZM322.635 295.424C322.635 292.48 323.061 289.899 323.915 287.68C324.811 285.461 325.984 283.627 327.435 282.176C328.885 280.683 330.549 279.573 332.427 278.848C334.304 278.08 336.224 277.696 338.187 277.696C342.795 277.696 346.379 279.125 348.939 281.984C351.541 284.843 352.843 289.109 352.843 294.784C352.843 295.211 352.821 295.701 352.779 296.256C352.779 296.768 352.757 297.237 352.715 297.664H330.635C330.848 300.352 331.787 302.443 333.451 303.936C335.157 305.387 337.611 306.112 340.811 306.112C342.688 306.112 344.395 305.941 345.931 305.6C347.509 305.259 348.747 304.896 349.643 304.512L350.667 310.848C350.24 311.061 349.643 311.296 348.875 311.552C348.149 311.765 347.296 311.957 346.315 312.128C345.376 312.341 344.352 312.512 343.243 312.64C342.133 312.768 341.003 312.832 339.851 312.832C336.907 312.832 334.347 312.405 332.171 311.552C329.995 310.656 328.203 309.44 326.795 307.904C325.387 306.325 324.341 304.491 323.659 302.4C322.976 300.267 322.635 297.941 322.635 295.424ZM345.099 291.968C345.099 290.901 344.949 289.899 344.651 288.96C344.352 287.979 343.904 287.147 343.307 286.464C342.752 285.739 342.048 285.184 341.195 284.8C340.384 284.373 339.403 284.16 338.251 284.16C337.056 284.16 336.011 284.395 335.115 284.864C334.219 285.291 333.451 285.867 332.811 286.592C332.213 287.317 331.744 288.149 331.403 289.088C331.061 290.027 330.827 290.987 330.699 291.968H345.099ZM373.085 289.472L380.189 278.528H388.317L377.309 294.336C379.613 297.323 381.81 300.352 383.901 303.424C386.034 306.453 387.784 309.312 389.149 312H380.765C380.381 311.189 379.869 310.272 379.229 309.248C378.632 308.181 377.97 307.093 377.245 305.984C376.562 304.832 375.837 303.701 375.069 302.592C374.301 301.483 373.554 300.437 372.829 299.456C371.336 301.376 369.864 303.509 368.413 305.856C367.005 308.16 365.832 310.208 364.893 312H356.957C357.597 310.72 358.365 309.355 359.261 307.904C360.157 306.453 361.117 304.981 362.141 303.488C363.165 301.952 364.21 300.437 365.277 298.944C366.386 297.408 367.474 295.957 368.541 294.592L357.469 278.528H365.981L373.085 289.472ZM411.146 323.84H403.209L424.842 261.888H432.65L411.146 323.84ZM457.508 294.4C457.508 297.685 458.212 300.096 459.62 301.632C461.071 303.125 462.927 303.872 465.188 303.872C466.425 303.872 467.577 303.701 468.644 303.36C469.753 303.019 470.649 302.613 471.332 302.144V284.8C470.777 284.672 470.095 284.565 469.284 284.48C468.473 284.352 467.449 284.288 466.212 284.288C463.396 284.288 461.241 285.227 459.748 287.104C458.255 288.939 457.508 291.371 457.508 294.4ZM479.076 308.608C479.076 313.941 477.711 317.845 474.98 320.32C472.292 322.795 468.153 324.032 462.564 324.032C460.516 324.032 458.511 323.861 456.548 323.52C454.628 323.179 452.879 322.731 451.3 322.176L452.708 315.584C454.031 316.139 455.524 316.587 457.188 316.928C458.895 317.269 460.729 317.44 462.692 317.44C465.807 317.44 468.025 316.8 469.348 315.52C470.671 314.24 471.332 312.341 471.332 309.824V308.544C470.564 308.928 469.54 309.312 468.26 309.696C467.023 310.08 465.593 310.272 463.972 310.272C461.839 310.272 459.876 309.931 458.084 309.248C456.335 308.565 454.82 307.563 453.54 306.24C452.303 304.917 451.321 303.275 450.596 301.312C449.913 299.307 449.572 297.003 449.572 294.4C449.572 291.968 449.935 289.728 450.66 287.68C451.428 285.632 452.516 283.883 453.924 282.432C455.375 280.981 457.124 279.851 459.172 279.04C461.22 278.229 463.545 277.824 466.148 277.824C468.665 277.824 471.055 278.016 473.316 278.4C475.577 278.784 477.497 279.189 479.076 279.616V308.608ZM508 285.504C507.36 285.291 506.464 285.077 505.312 284.864C504.203 284.608 502.901 284.48 501.408 284.48C500.555 284.48 499.637 284.565 498.656 284.736C497.717 284.907 497.056 285.056 496.672 285.184V312H488.928V280.128C490.421 279.573 492.277 279.061 494.496 278.592C496.757 278.08 499.253 277.824 501.984 277.824C502.496 277.824 503.093 277.867 503.776 277.952C504.459 277.995 505.141 278.08 505.824 278.208C506.507 278.293 507.168 278.421 507.808 278.592C508.448 278.72 508.96 278.848 509.344 278.976L508 285.504ZM522.549 312H514.805V278.528H522.549V312ZM523.381 268.736C523.381 270.187 522.911 271.339 521.973 272.192C521.034 273.045 519.925 273.472 518.645 273.472C517.322 273.472 516.191 273.045 515.253 272.192C514.314 271.339 513.845 270.187 513.845 268.736C513.845 267.243 514.314 266.069 515.253 265.216C516.191 264.363 517.322 263.936 518.645 263.936C519.925 263.936 521.034 264.363 521.973 265.216C522.911 266.069 523.381 267.243 523.381 268.736ZM538.508 295.168C538.508 298.581 539.319 301.269 540.94 303.232C542.561 305.152 544.801 306.112 547.66 306.112C548.897 306.112 549.943 306.069 550.796 305.984C551.692 305.856 552.417 305.728 552.972 305.6V286.4C552.289 285.931 551.372 285.504 550.22 285.12C549.111 284.693 547.916 284.48 546.636 284.48C543.82 284.48 541.751 285.44 540.428 287.36C539.148 289.28 538.508 291.883 538.508 295.168ZM560.716 310.976C559.18 311.445 557.239 311.872 554.892 312.256C552.588 312.64 550.156 312.832 547.596 312.832C544.951 312.832 542.583 312.427 540.492 311.616C538.401 310.805 536.609 309.653 535.116 308.16C533.665 306.624 532.535 304.789 531.724 302.656C530.956 300.48 530.572 298.048 530.572 295.36C530.572 292.715 530.892 290.325 531.532 288.192C532.215 286.016 533.196 284.16 534.476 282.624C535.756 281.088 537.313 279.915 539.148 279.104C540.983 278.251 543.095 277.824 545.484 277.824C547.105 277.824 548.535 278.016 549.772 278.4C551.009 278.784 552.076 279.211 552.972 279.68V263.616L560.716 262.336V310.976Z" fill="#60195E"/>
<path d="M114.072 369.424C114.072 366.48 114.499 363.899 115.352 361.68C116.248 359.461 117.421 357.627 118.872 356.176C120.323 354.683 121.987 353.573 123.864 352.848C125.741 352.08 127.661 351.696 129.624 351.696C134.232 351.696 137.816 353.125 140.376 355.984C142.979 358.843 144.28 363.109 144.28 368.784C144.28 369.211 144.259 369.701 144.216 370.256C144.216 370.768 144.195 371.237 144.152 371.664H122.072C122.285 374.352 123.224 376.443 124.888 377.936C126.595 379.387 129.048 380.112 132.248 380.112C134.125 380.112 135.832 379.941 137.368 379.6C138.947 379.259 140.184 378.896 141.08 378.512L142.104 384.848C141.677 385.061 141.08 385.296 140.312 385.552C139.587 385.765 138.733 385.957 137.752 386.128C136.813 386.341 135.789 386.512 134.68 386.64C133.571 386.768 132.44 386.832 131.288 386.832C128.344 386.832 125.784 386.405 123.608 385.552C121.432 384.656 119.64 383.44 118.232 381.904C116.824 380.325 115.779 378.491 115.096 376.4C114.413 374.267 114.072 371.941 114.072 369.424ZM136.536 365.968C136.536 364.901 136.387 363.899 136.088 362.96C135.789 361.979 135.341 361.147 134.744 360.464C134.189 359.739 133.485 359.184 132.632 358.8C131.821 358.373 130.84 358.16 129.688 358.16C128.493 358.16 127.448 358.395 126.552 358.864C125.656 359.291 124.888 359.867 124.248 360.592C123.651 361.317 123.181 362.149 122.84 363.088C122.499 364.027 122.264 364.987 122.136 365.968H136.536ZM158.571 369.424C158.571 372.667 159.211 375.248 160.491 377.168C161.813 379.088 163.883 380.048 166.699 380.048C167.979 380.048 169.173 379.856 170.283 379.472C171.435 379.045 172.352 378.597 173.035 378.128V358.992C172.48 358.864 171.776 358.757 170.923 358.672C170.112 358.544 169.045 358.48 167.723 358.48C164.864 358.48 162.624 359.461 161.003 361.424C159.381 363.344 158.571 366.011 158.571 369.424ZM150.635 369.296C150.635 366.651 151.019 364.261 151.786 362.128C152.597 359.952 153.728 358.117 155.179 356.624C156.672 355.088 158.464 353.915 160.555 353.104C162.645 352.251 165.013 351.824 167.659 351.824C170.304 351.824 172.779 352.016 175.083 352.4C177.387 352.784 179.285 353.189 180.779 353.616V397.84H173.035V384.848C172.139 385.317 171.029 385.744 169.707 386.128C168.427 386.512 166.997 386.704 165.419 386.704C163.029 386.704 160.917 386.299 159.083 385.488C157.248 384.635 155.712 383.44 154.475 381.904C153.237 380.368 152.277 378.533 151.595 376.4C150.955 374.267 150.635 371.899 150.635 369.296ZM218.072 384.976C216.578 385.36 214.637 385.744 212.248 386.128C209.858 386.555 207.234 386.768 204.376 386.768C201.688 386.768 199.426 386.384 197.592 385.616C195.8 384.848 194.349 383.781 193.24 382.416C192.173 381.051 191.405 379.429 190.936 377.552C190.466 375.632 190.232 373.541 190.232 371.28V352.528H197.976V370.064C197.976 373.648 198.488 376.208 199.512 377.744C200.578 379.28 202.413 380.048 205.016 380.048C205.954 380.048 206.936 380.005 207.96 379.92C209.026 379.835 209.816 379.728 210.328 379.6V352.528H218.072V384.976ZM235.736 386H227.992V352.528H235.736V386ZM236.568 342.736C236.568 344.187 236.099 345.339 235.16 346.192C234.221 347.045 233.112 347.472 231.832 347.472C230.509 347.472 229.379 347.045 228.44 346.192C227.501 345.339 227.032 344.187 227.032 342.736C227.032 341.243 227.501 340.069 228.44 339.216C229.379 338.363 230.509 337.936 231.832 337.936C233.112 337.936 234.221 338.363 235.16 339.216C236.099 340.069 236.568 341.243 236.568 342.736ZM254.192 386C252.058 381.605 249.861 376.571 247.6 370.896C245.381 365.179 243.354 359.056 241.52 352.528H249.776C250.245 354.405 250.778 356.432 251.376 358.608C252.016 360.741 252.677 362.896 253.36 365.072C254.085 367.205 254.81 369.296 255.536 371.344C256.304 373.349 257.008 375.163 257.648 376.784C258.288 375.163 258.97 373.349 259.696 371.344C260.421 369.296 261.125 367.205 261.808 365.072C262.533 362.896 263.216 360.741 263.856 358.608C264.496 356.432 265.05 354.405 265.52 352.528H273.52C271.685 359.056 269.637 365.179 267.376 370.896C265.157 376.571 262.981 381.605 260.848 386H254.192ZM291.079 380.56C293.468 380.56 295.282 380.432 296.519 380.176V371.6C296.092 371.472 295.474 371.344 294.663 371.216C293.852 371.088 292.956 371.024 291.975 371.024C291.122 371.024 290.247 371.088 289.351 371.216C288.498 371.344 287.708 371.579 286.983 371.92C286.3 372.261 285.746 372.752 285.319 373.392C284.892 373.989 284.679 374.757 284.679 375.696C284.679 377.531 285.255 378.811 286.407 379.536C287.559 380.219 289.116 380.56 291.079 380.56ZM290.439 351.696C292.999 351.696 295.154 352.016 296.903 352.656C298.652 353.296 300.039 354.192 301.063 355.344C302.13 356.496 302.876 357.904 303.303 359.568C303.772 361.189 304.007 362.981 304.007 364.944V385.232C302.812 385.488 300.999 385.787 298.567 386.128C296.178 386.512 293.468 386.704 290.439 386.704C288.434 386.704 286.599 386.512 284.935 386.128C283.271 385.744 281.842 385.125 280.647 384.272C279.495 383.419 278.578 382.309 277.895 380.944C277.255 379.579 276.935 377.893 276.935 375.888C276.935 373.968 277.298 372.347 278.023 371.024C278.791 369.701 279.815 368.635 281.095 367.824C282.375 366.971 283.847 366.373 285.511 366.032C287.218 365.648 288.988 365.456 290.823 365.456C291.676 365.456 292.572 365.52 293.511 365.648C294.45 365.733 295.452 365.904 296.519 366.16V364.88C296.519 363.984 296.412 363.131 296.199 362.32C295.986 361.509 295.602 360.805 295.047 360.208C294.535 359.568 293.831 359.077 292.935 358.736C292.082 358.395 290.994 358.224 289.671 358.224C287.879 358.224 286.236 358.352 284.743 358.608C283.25 358.864 282.034 359.163 281.095 359.504L280.135 353.232C281.116 352.891 282.546 352.549 284.423 352.208C286.3 351.867 288.306 351.696 290.439 351.696ZM325.139 386.64C322.835 386.597 320.915 386.341 319.379 385.872C317.885 385.403 316.691 384.741 315.795 383.888C314.899 382.992 314.259 381.904 313.875 380.624C313.533 379.301 313.363 377.808 313.363 376.144V337.616L321.107 336.336V374.672C321.107 375.611 321.171 376.4 321.299 377.04C321.469 377.68 321.747 378.235 322.131 378.704C322.515 379.131 323.027 379.472 323.667 379.728C324.349 379.941 325.203 380.112 326.227 380.24L325.139 386.64ZM330.635 369.424C330.635 366.48 331.061 363.899 331.915 361.68C332.811 359.461 333.984 357.627 335.435 356.176C336.885 354.683 338.549 353.573 340.427 352.848C342.304 352.08 344.224 351.696 346.187 351.696C350.795 351.696 354.379 353.125 356.939 355.984C359.541 358.843 360.843 363.109 360.843 368.784C360.843 369.211 360.821 369.701 360.779 370.256C360.779 370.768 360.757 371.237 360.715 371.664H338.635C338.848 374.352 339.787 376.443 341.451 377.936C343.157 379.387 345.611 380.112 348.811 380.112C350.688 380.112 352.395 379.941 353.931 379.6C355.509 379.259 356.747 378.896 357.643 378.512L358.667 384.848C358.24 385.061 357.643 385.296 356.875 385.552C356.149 385.765 355.296 385.957 354.315 386.128C353.376 386.341 352.352 386.512 351.243 386.64C350.133 386.768 349.003 386.832 347.851 386.832C344.907 386.832 342.347 386.405 340.171 385.552C337.995 384.656 336.203 383.44 334.795 381.904C333.387 380.325 332.341 378.491 331.659 376.4C330.976 374.267 330.635 371.941 330.635 369.424ZM353.099 365.968C353.099 364.901 352.949 363.899 352.651 362.96C352.352 361.979 351.904 361.147 351.307 360.464C350.752 359.739 350.048 359.184 349.195 358.8C348.384 358.373 347.403 358.16 346.251 358.16C345.056 358.16 344.011 358.395 343.115 358.864C342.219 359.291 341.451 359.867 340.811 360.592C340.213 361.317 339.744 362.149 339.403 363.088C339.061 364.027 338.827 364.987 338.699 365.968H353.099ZM369.053 353.616C370.546 353.189 372.488 352.784 374.877 352.4C377.266 352.016 379.912 351.824 382.813 351.824C385.544 351.824 387.826 352.208 389.661 352.976C391.496 353.701 392.946 354.747 394.013 356.112C395.122 357.435 395.89 359.056 396.317 360.976C396.786 362.853 397.021 364.923 397.021 367.184V386H389.277V368.4C389.277 366.608 389.149 365.093 388.893 363.856C388.68 362.576 388.296 361.552 387.741 360.784C387.229 359.973 386.504 359.397 385.565 359.056C384.669 358.672 383.56 358.48 382.237 358.48C381.256 358.48 380.232 358.544 379.165 358.672C378.098 358.8 377.309 358.907 376.797 358.992V386H369.053V353.616ZM406.107 343.696L413.851 342.416V352.528H425.755V358.992H413.851V372.624C413.851 375.312 414.277 377.232 415.131 378.384C415.984 379.536 417.435 380.112 419.483 380.112C420.891 380.112 422.128 379.963 423.195 379.664C424.304 379.365 425.179 379.088 425.819 378.832L427.099 384.976C426.203 385.36 425.029 385.744 423.579 386.128C422.128 386.555 420.421 386.768 418.458 386.768C416.069 386.768 414.064 386.448 412.443 385.808C410.864 385.168 409.605 384.251 408.667 383.056C407.728 381.819 407.067 380.347 406.683 378.64C406.299 376.891 406.107 374.907 406.107 372.688V343.696ZM446.322 369.296C446.322 366.821 446.706 364.517 447.474 362.384C448.242 360.208 449.33 358.331 450.738 356.752C452.189 355.173 453.938 353.936 455.986 353.04C458.034 352.144 460.338 351.696 462.898 351.696C466.055 351.696 469.042 352.272 471.858 353.424L470.194 359.76C469.298 359.376 468.274 359.056 467.122 358.8C466.013 358.544 464.818 358.416 463.538 358.416C460.509 358.416 458.205 359.376 456.626 361.296C455.047 363.173 454.258 365.84 454.258 369.296C454.258 372.624 455.005 375.269 456.498 377.232C457.991 379.152 460.509 380.112 464.05 380.112C465.373 380.112 466.674 379.984 467.954 379.728C469.234 379.472 470.343 379.152 471.282 378.768L472.37 385.168C471.517 385.595 470.215 385.979 468.466 386.32C466.759 386.661 464.989 386.832 463.154 386.832C460.295 386.832 457.799 386.405 455.666 385.552C453.575 384.656 451.826 383.44 450.418 381.904C449.053 380.325 448.029 378.469 447.346 376.336C446.663 374.16 446.322 371.813 446.322 369.296ZM486.75 380.432C488.798 380.432 490.291 380.197 491.23 379.728C492.168 379.216 492.638 378.363 492.638 377.168C492.638 376.059 492.126 375.141 491.102 374.416C490.12 373.691 488.478 372.901 486.174 372.048C484.766 371.536 483.464 371.003 482.27 370.448C481.118 369.851 480.115 369.168 479.262 368.4C478.408 367.632 477.726 366.715 477.214 365.648C476.744 364.539 476.51 363.195 476.51 361.616C476.51 358.544 477.64 356.133 479.902 354.384C482.163 352.592 485.235 351.696 489.118 351.696C491.08 351.696 492.958 351.888 494.75 352.272C496.542 352.613 497.886 352.955 498.782 353.296L497.374 359.568C496.52 359.184 495.432 358.843 494.11 358.544C492.787 358.203 491.251 358.032 489.502 358.032C487.923 358.032 486.643 358.309 485.662 358.864C484.68 359.376 484.19 360.187 484.19 361.296C484.19 361.851 484.275 362.341 484.446 362.768C484.659 363.195 485 363.6 485.47 363.984C485.939 364.325 486.558 364.688 487.326 365.072C488.094 365.413 489.032 365.776 490.142 366.16C491.976 366.843 493.534 367.525 494.814 368.208C496.094 368.848 497.139 369.595 497.95 370.448C498.803 371.259 499.422 372.197 499.806 373.264C500.19 374.331 500.382 375.611 500.382 377.104C500.382 380.304 499.187 382.736 496.798 384.4C494.451 386.021 491.08 386.832 486.686 386.832C483.742 386.832 481.374 386.576 479.582 386.064C477.79 385.595 476.531 385.211 475.806 384.912L477.15 378.448C478.302 378.917 479.667 379.365 481.246 379.792C482.867 380.219 484.702 380.432 486.75 380.432ZM516 380.432C518.048 380.432 519.541 380.197 520.48 379.728C521.418 379.216 521.888 378.363 521.888 377.168C521.888 376.059 521.376 375.141 520.352 374.416C519.37 373.691 517.728 372.901 515.424 372.048C514.016 371.536 512.714 371.003 511.52 370.448C510.368 369.851 509.365 369.168 508.512 368.4C507.658 367.632 506.976 366.715 506.464 365.648C505.994 364.539 505.76 363.195 505.76 361.616C505.76 358.544 506.89 356.133 509.152 354.384C511.413 352.592 514.485 351.696 518.368 351.696C520.33 351.696 522.208 351.888 524 352.272C525.792 352.613 527.136 352.955 528.032 353.296L526.624 359.568C525.77 359.184 524.682 358.843 523.36 358.544C522.037 358.203 520.501 358.032 518.752 358.032C517.173 358.032 515.893 358.309 514.912 358.864C513.93 359.376 513.44 360.187 513.44 361.296C513.44 361.851 513.525 362.341 513.696 362.768C513.909 363.195 514.25 363.6 514.72 363.984C515.189 364.325 515.808 364.688 516.576 365.072C517.344 365.413 518.282 365.776 519.392 366.16C521.226 366.843 522.784 367.525 524.064 368.208C525.344 368.848 526.389 369.595 527.2 370.448C528.053 371.259 528.672 372.197 529.056 373.264C529.44 374.331 529.632 375.611 529.632 377.104C529.632 380.304 528.437 382.736 526.048 384.4C523.701 386.021 520.33 386.832 515.936 386.832C512.992 386.832 510.624 386.576 508.832 386.064C507.04 385.595 505.781 385.211 505.056 384.912L506.4 378.448C507.552 378.917 508.917 379.365 510.496 379.792C512.117 380.219 513.952 380.432 516 380.432ZM545.57 357.84C545.57 359.333 545.058 360.549 544.034 361.488C543.052 362.427 541.858 362.896 540.45 362.896C538.999 362.896 537.783 362.427 536.802 361.488C535.82 360.549 535.33 359.333 535.33 357.84C535.33 356.347 535.82 355.131 536.802 354.192C537.783 353.211 538.999 352.72 540.45 352.72C541.858 352.72 543.052 353.211 544.034 354.192C545.058 355.131 545.57 356.347 545.57 357.84ZM545.57 381.776C545.57 383.269 545.058 384.485 544.034 385.424C543.052 386.363 541.858 386.832 540.45 386.832C538.999 386.832 537.783 386.363 536.802 385.424C535.82 384.485 535.33 383.269 535.33 381.776C535.33 380.283 535.82 379.067 536.802 378.128C537.783 377.147 538.999 376.656 540.45 376.656C541.858 376.656 543.052 377.147 544.034 378.128C545.058 379.067 545.57 380.283 545.57 381.776ZM574.883 368.4C574.883 371.685 575.587 374.096 576.995 375.632C578.446 377.125 580.302 377.872 582.563 377.872C583.8 377.872 584.952 377.701 586.019 377.36C587.128 377.019 588.024 376.613 588.707 376.144V358.8C588.152 358.672 587.47 358.565 586.659 358.48C585.848 358.352 584.824 358.288 583.587 358.288C580.771 358.288 578.616 359.227 577.123 361.104C575.63 362.939 574.883 365.371 574.883 368.4ZM596.451 382.608C596.451 387.941 595.086 391.845 592.355 394.32C589.667 396.795 585.528 398.032 579.939 398.032C577.891 398.032 575.886 397.861 573.923 397.52C572.003 397.179 570.254 396.731 568.675 396.176L570.083 389.584C571.406 390.139 572.899 390.587 574.563 390.928C576.27 391.269 578.104 391.44 580.067 391.44C583.182 391.44 585.4 390.8 586.723 389.52C588.046 388.24 588.707 386.341 588.707 383.824V382.544C587.939 382.928 586.915 383.312 585.635 383.696C584.398 384.08 582.968 384.272 581.347 384.272C579.214 384.272 577.251 383.931 575.459 383.248C573.71 382.565 572.195 381.563 570.915 380.24C569.678 378.917 568.696 377.275 567.971 375.312C567.288 373.307 566.947 371.003 566.947 368.4C566.947 365.968 567.31 363.728 568.035 361.68C568.803 359.632 569.891 357.883 571.299 356.432C572.75 354.981 574.499 353.851 576.547 353.04C578.595 352.229 580.92 351.824 583.523 351.824C586.04 351.824 588.43 352.016 590.691 352.4C592.952 352.784 594.872 353.189 596.451 353.616V382.608ZM618.079 380.56C620.468 380.56 622.282 380.432 623.519 380.176V371.6C623.092 371.472 622.474 371.344 621.663 371.216C620.852 371.088 619.956 371.024 618.975 371.024C618.122 371.024 617.247 371.088 616.351 371.216C615.498 371.344 614.708 371.579 613.983 371.92C613.3 372.261 612.746 372.752 612.319 373.392C611.892 373.989 611.679 374.757 611.679 375.696C611.679 377.531 612.255 378.811 613.407 379.536C614.559 380.219 616.116 380.56 618.079 380.56ZM617.439 351.696C619.999 351.696 622.154 352.016 623.903 352.656C625.652 353.296 627.039 354.192 628.063 355.344C629.13 356.496 629.876 357.904 630.303 359.568C630.772 361.189 631.007 362.981 631.007 364.944V385.232C629.812 385.488 627.999 385.787 625.567 386.128C623.178 386.512 620.468 386.704 617.439 386.704C615.434 386.704 613.599 386.512 611.935 386.128C610.271 385.744 608.842 385.125 607.647 384.272C606.495 383.419 605.578 382.309 604.895 380.944C604.255 379.579 603.935 377.893 603.935 375.888C603.935 373.968 604.298 372.347 605.023 371.024C605.791 369.701 606.815 368.635 608.095 367.824C609.375 366.971 610.847 366.373 612.511 366.032C614.218 365.648 615.988 365.456 617.823 365.456C618.676 365.456 619.572 365.52 620.511 365.648C621.45 365.733 622.452 365.904 623.519 366.16V364.88C623.519 363.984 623.412 363.131 623.199 362.32C622.986 361.509 622.602 360.805 622.047 360.208C621.535 359.568 620.831 359.077 619.935 358.736C619.082 358.395 617.994 358.224 616.671 358.224C614.879 358.224 613.236 358.352 611.743 358.608C610.25 358.864 609.034 359.163 608.095 359.504L607.135 353.232C608.116 352.891 609.546 352.549 611.423 352.208C613.3 351.867 615.306 351.696 617.439 351.696ZM662.699 369.424C662.699 365.968 661.909 363.28 660.331 361.36C658.795 359.44 656.299 358.48 652.843 358.48C652.117 358.48 651.349 358.523 650.539 358.608C649.771 358.651 649.003 358.779 648.235 358.992V378.128C648.917 378.597 649.813 379.045 650.923 379.472C652.075 379.856 653.291 380.048 654.571 380.048C657.387 380.048 659.435 379.088 660.715 377.168C662.037 375.248 662.699 372.667 662.699 369.424ZM670.635 369.296C670.635 371.856 670.293 374.203 669.611 376.336C668.971 378.469 668.032 380.304 666.795 381.84C665.557 383.376 664 384.571 662.123 385.424C660.288 386.277 658.197 386.704 655.851 386.704C654.272 386.704 652.821 386.512 651.499 386.128C650.176 385.744 649.088 385.317 648.235 384.848V397.84H640.491V353.616C642.069 353.189 644.011 352.784 646.315 352.4C648.619 352.016 651.051 351.824 653.611 351.824C656.256 351.824 658.624 352.229 660.715 353.04C662.805 353.851 664.576 355.024 666.027 356.56C667.52 358.053 668.651 359.888 669.419 362.064C670.229 364.197 670.635 366.608 670.635 369.296ZM697.01 373.143C697.01 376.669 697.54 379.98 698.601 383.076C699.662 386.172 701.138 388.996 703.03 391.547L699.375 393.955C697.053 391.174 695.218 388.021 693.871 384.495C692.524 380.94 691.85 377.156 691.85 373.143C691.85 369.13 692.524 365.36 693.871 361.834C695.218 358.279 697.053 355.112 699.375 352.331L703.03 354.739C701.138 357.319 699.662 360.157 698.601 363.253C697.54 366.32 697.01 369.617 697.01 373.143ZM719.321 368.198C718.891 368.055 718.289 367.911 717.515 367.768C716.77 367.596 715.896 367.51 714.892 367.51C714.319 367.51 713.703 367.567 713.043 367.682C712.413 367.797 711.968 367.897 711.71 367.983V386H706.507V364.586C707.511 364.213 708.758 363.869 710.248 363.554C711.768 363.21 713.445 363.038 715.279 363.038C715.623 363.038 716.025 363.067 716.483 363.124C716.942 363.153 717.401 363.21 717.859 363.296C718.318 363.353 718.762 363.439 719.192 363.554C719.622 363.64 719.966 363.726 720.224 363.812L719.321 368.198ZM744.189 374.734C744.189 376.511 743.931 378.131 743.415 379.593C742.899 381.055 742.168 382.302 741.222 383.334C740.276 384.366 739.129 385.169 737.782 385.742C736.463 386.315 735.001 386.602 733.396 386.602C731.791 386.602 730.329 386.315 729.01 385.742C727.691 385.169 726.559 384.366 725.613 383.334C724.667 382.302 723.922 381.055 723.377 379.593C722.861 378.131 722.603 376.511 722.603 374.734C722.603 372.957 722.861 371.351 723.377 369.918C723.922 368.456 724.667 367.209 725.613 366.177C726.588 365.145 727.734 364.357 729.053 363.812C730.372 363.239 731.819 362.952 733.396 362.952C734.973 362.952 736.42 363.239 737.739 363.812C739.086 364.357 740.233 365.145 741.179 366.177C742.125 367.209 742.856 368.456 743.372 369.918C743.917 371.351 744.189 372.957 744.189 374.734ZM738.857 374.734C738.857 372.498 738.37 370.735 737.395 369.445C736.449 368.126 735.116 367.467 733.396 367.467C731.676 367.467 730.329 368.126 729.354 369.445C728.408 370.735 727.935 372.498 727.935 374.734C727.935 376.999 728.408 378.79 729.354 380.109C730.329 381.428 731.676 382.087 733.396 382.087C735.116 382.087 736.449 381.428 737.395 380.109C738.37 378.79 738.857 376.999 738.857 374.734ZM762.503 371.853C761.844 374.376 761.127 376.841 760.353 379.249C759.608 381.628 758.863 383.879 758.117 386H753.86C753.287 384.681 752.685 383.176 752.054 381.485C751.424 379.794 750.793 377.988 750.162 376.067C749.532 374.146 748.901 372.125 748.27 370.004C747.64 367.883 747.023 365.718 746.421 363.511H751.925C752.183 364.715 752.484 366.019 752.828 367.424C753.172 368.8 753.531 370.219 753.903 371.681C754.276 373.114 754.663 374.519 755.064 375.895C755.466 377.271 755.867 378.532 756.268 379.679C756.698 378.36 757.114 376.999 757.515 375.594C757.945 374.189 758.347 372.785 758.719 371.38C759.092 369.975 759.436 368.614 759.751 367.295C760.095 365.948 760.396 364.686 760.654 363.511H764.653C764.911 364.686 765.198 365.948 765.513 367.295C765.829 368.614 766.158 369.975 766.502 371.38C766.875 372.785 767.262 374.189 767.663 375.594C768.093 376.999 768.523 378.36 768.953 379.679C769.326 378.532 769.713 377.271 770.114 375.895C770.516 374.519 770.903 373.114 771.275 371.681C771.677 370.219 772.049 368.8 772.393 367.424C772.737 366.019 773.038 364.715 773.296 363.511H778.671C778.069 365.718 777.453 367.883 776.822 370.004C776.192 372.125 775.561 374.146 774.93 376.067C774.3 377.988 773.669 379.794 773.038 381.485C772.408 383.176 771.791 384.681 771.189 386H766.975C766.23 383.879 765.456 381.628 764.653 379.249C763.879 376.841 763.163 374.376 762.503 371.853ZM780.317 371.337H791.884V376.11H780.317V371.337ZM800.288 374.175C800.288 376.382 800.761 378.002 801.707 379.034C802.681 380.037 803.928 380.539 805.448 380.539C806.279 380.539 807.053 380.424 807.77 380.195C808.515 379.966 809.117 379.693 809.576 379.378V367.725C809.203 367.639 808.744 367.567 808.2 367.51C807.655 367.424 806.967 367.381 806.136 367.381C804.244 367.381 802.796 368.012 801.793 369.273C800.789 370.506 800.288 372.14 800.288 374.175ZM814.779 383.721C814.779 387.304 813.861 389.927 812.027 391.59C810.221 393.253 807.44 394.084 803.685 394.084C802.309 394.084 800.961 393.969 799.643 393.74C798.353 393.511 797.177 393.21 796.117 392.837L797.063 388.408C797.951 388.781 798.955 389.082 800.073 389.311C801.219 389.54 802.452 389.655 803.771 389.655C805.863 389.655 807.354 389.225 808.243 388.365C809.131 387.505 809.576 386.229 809.576 384.538V383.678C809.06 383.936 808.372 384.194 807.512 384.452C806.68 384.71 805.72 384.839 804.631 384.839C803.197 384.839 801.879 384.61 800.675 384.151C799.499 383.692 798.482 383.019 797.622 382.13C796.79 381.241 796.131 380.138 795.644 378.819C795.185 377.472 794.956 375.924 794.956 374.175C794.956 372.541 795.199 371.036 795.687 369.66C796.203 368.284 796.934 367.109 797.88 366.134C798.854 365.159 800.03 364.4 801.406 363.855C802.782 363.31 804.344 363.038 806.093 363.038C807.784 363.038 809.389 363.167 810.909 363.425C812.428 363.683 813.718 363.955 814.779 364.242V383.721ZM829.31 382.345C830.915 382.345 832.134 382.259 832.965 382.087V376.325C832.678 376.239 832.263 376.153 831.718 376.067C831.173 375.981 830.571 375.938 829.912 375.938C829.339 375.938 828.751 375.981 828.149 376.067C827.576 376.153 827.045 376.311 826.558 376.54C826.099 376.769 825.727 377.099 825.44 377.529C825.153 377.93 825.01 378.446 825.01 379.077C825.01 380.31 825.397 381.17 826.171 381.657C826.945 382.116 827.991 382.345 829.31 382.345ZM828.88 362.952C830.6 362.952 832.048 363.167 833.223 363.597C834.398 364.027 835.33 364.629 836.018 365.403C836.735 366.177 837.236 367.123 837.523 368.241C837.838 369.33 837.996 370.534 837.996 371.853V385.484C837.193 385.656 835.975 385.857 834.341 386.086C832.736 386.344 830.915 386.473 828.88 386.473C827.533 386.473 826.3 386.344 825.182 386.086C824.064 385.828 823.104 385.412 822.301 384.839C821.527 384.266 820.911 383.52 820.452 382.603C820.022 381.686 819.807 380.553 819.807 379.206C819.807 377.916 820.051 376.827 820.538 375.938C821.054 375.049 821.742 374.333 822.602 373.788C823.462 373.215 824.451 372.813 825.569 372.584C826.716 372.326 827.905 372.197 829.138 372.197C829.711 372.197 830.313 372.24 830.944 372.326C831.575 372.383 832.248 372.498 832.965 372.67V371.81C832.965 371.208 832.893 370.635 832.75 370.09C832.607 369.545 832.349 369.072 831.976 368.671C831.632 368.241 831.159 367.911 830.557 367.682C829.984 367.453 829.253 367.338 828.364 367.338C827.16 367.338 826.056 367.424 825.053 367.596C824.05 367.768 823.233 367.969 822.602 368.198L821.957 363.984C822.616 363.755 823.577 363.525 824.838 363.296C826.099 363.067 827.447 362.952 828.88 362.952ZM859.289 374.863C859.289 372.541 858.758 370.735 857.698 369.445C856.666 368.155 854.989 367.51 852.667 367.51C852.179 367.51 851.663 367.539 851.119 367.596C850.603 367.625 850.087 367.711 849.571 367.854V380.711C850.029 381.026 850.631 381.327 851.377 381.614C852.151 381.872 852.968 382.001 853.828 382.001C855.72 382.001 857.096 381.356 857.956 380.066C858.844 378.776 859.289 377.042 859.289 374.863ZM864.621 374.777C864.621 376.497 864.391 378.074 863.933 379.507C863.503 380.94 862.872 382.173 862.041 383.205C861.209 384.237 860.163 385.04 858.902 385.613C857.669 386.186 856.264 386.473 854.688 386.473C853.627 386.473 852.652 386.344 851.764 386.086C850.875 385.828 850.144 385.541 849.571 385.226V393.955H844.368V364.242C845.428 363.955 846.733 363.683 848.281 363.425C849.829 363.167 851.463 363.038 853.183 363.038C854.96 363.038 856.551 363.31 857.956 363.855C859.36 364.4 860.55 365.188 861.525 366.22C862.528 367.223 863.288 368.456 863.804 369.918C864.348 371.351 864.621 372.971 864.621 374.777ZM880.879 393.955H875.547L890.081 352.331H895.327L880.879 393.955ZM906.697 374.777C906.697 373.114 906.955 371.566 907.471 370.133C907.987 368.671 908.718 367.41 909.664 366.349C910.638 365.288 911.814 364.457 913.19 363.855C914.566 363.253 916.114 362.952 917.834 362.952C919.955 362.952 921.962 363.339 923.854 364.113L922.736 368.37C922.134 368.112 921.446 367.897 920.672 367.725C919.926 367.553 919.124 367.467 918.264 367.467C916.228 367.467 914.68 368.112 913.62 369.402C912.559 370.663 912.029 372.455 912.029 374.777C912.029 377.013 912.53 378.79 913.534 380.109C914.537 381.399 916.228 382.044 918.608 382.044C919.496 382.044 920.371 381.958 921.231 381.786C922.091 381.614 922.836 381.399 923.467 381.141L924.198 385.441C923.624 385.728 922.75 385.986 921.575 386.215C920.428 386.444 919.238 386.559 918.006 386.559C916.085 386.559 914.408 386.272 912.975 385.699C911.57 385.097 910.395 384.28 909.449 383.248C908.531 382.187 907.843 380.94 907.385 379.507C906.926 378.045 906.697 376.468 906.697 374.777ZM948.103 374.734C948.103 376.511 947.845 378.131 947.329 379.593C946.813 381.055 946.082 382.302 945.136 383.334C944.19 384.366 943.043 385.169 941.696 385.742C940.377 386.315 938.915 386.602 937.31 386.602C935.705 386.602 934.243 386.315 932.924 385.742C931.605 385.169 930.473 384.366 929.527 383.334C928.581 382.302 927.836 381.055 927.291 379.593C926.775 378.131 926.517 376.511 926.517 374.734C926.517 372.957 926.775 371.351 927.291 369.918C927.836 368.456 928.581 367.209 929.527 366.177C930.502 365.145 931.648 364.357 932.967 363.812C934.286 363.239 935.733 362.952 937.31 362.952C938.887 362.952 940.334 363.239 941.653 363.812C943 364.357 944.147 365.145 945.093 366.177C946.039 367.209 946.77 368.456 947.286 369.918C947.831 371.351 948.103 372.957 948.103 374.734ZM942.771 374.734C942.771 372.498 942.284 370.735 941.309 369.445C940.363 368.126 939.03 367.467 937.31 367.467C935.59 367.467 934.243 368.126 933.268 369.445C932.322 370.735 931.849 372.498 931.849 374.734C931.849 376.999 932.322 378.79 933.268 380.109C934.243 381.428 935.59 382.087 937.31 382.087C939.03 382.087 940.363 381.428 941.309 380.109C942.284 378.79 942.771 376.999 942.771 374.734ZM961.289 386.43C959.741 386.401 958.451 386.229 957.419 385.914C956.416 385.599 955.613 385.154 955.011 384.581C954.409 383.979 953.979 383.248 953.721 382.388C953.492 381.499 953.377 380.496 953.377 379.378V353.492L958.58 352.632V378.389C958.58 379.02 958.623 379.55 958.709 379.98C958.824 380.41 959.01 380.783 959.268 381.098C959.526 381.385 959.87 381.614 960.3 381.786C960.759 381.929 961.332 382.044 962.02 382.13L961.289 386.43ZM984.676 385.312C983.673 385.57 982.368 385.828 980.763 386.086C979.158 386.373 977.395 386.516 975.474 386.516C973.668 386.516 972.149 386.258 970.916 385.742C969.712 385.226 968.737 384.509 967.992 383.592C967.275 382.675 966.759 381.585 966.444 380.324C966.129 379.034 965.971 377.629 965.971 376.11V363.511H971.174V375.293C971.174 377.701 971.518 379.421 972.206 380.453C972.923 381.485 974.155 382.001 975.904 382.001C976.535 382.001 977.194 381.972 977.882 381.915C978.599 381.858 979.129 381.786 979.473 381.7V363.511H984.676V385.312ZM1004.11 374.175C1004.11 371.824 1003.81 370.133 1003.21 369.101C1002.64 368.04 1001.55 367.51 999.941 367.51C999.368 367.51 998.737 367.553 998.049 367.639C997.361 367.725 996.845 367.797 996.501 367.854V386H991.298V364.242C992.302 363.955 993.606 363.683 995.211 363.425C996.845 363.167 998.565 363.038 1000.37 363.038C1001.92 363.038 1003.18 363.239 1004.16 363.64C1005.16 364.041 1005.99 364.572 1006.65 365.231C1006.96 365.002 1007.37 364.758 1007.85 364.5C1008.34 364.242 1008.89 364.013 1009.49 363.812C1010.09 363.583 1010.72 363.396 1011.38 363.253C1012.07 363.11 1012.76 363.038 1013.44 363.038C1015.19 363.038 1016.63 363.296 1017.74 363.812C1018.89 364.299 1019.78 365.002 1020.41 365.919C1021.07 366.808 1021.51 367.897 1021.74 369.187C1022 370.448 1022.13 371.839 1022.13 373.358V386H1016.93V374.175C1016.93 371.824 1016.64 370.133 1016.07 369.101C1015.49 368.04 1014.39 367.51 1012.76 367.51C1011.92 367.51 1011.14 367.653 1010.39 367.94C1009.64 368.198 1009.09 368.456 1008.71 368.714C1008.94 369.431 1009.1 370.19 1009.19 370.993C1009.27 371.796 1009.32 372.656 1009.32 373.573V386H1004.11V374.175ZM1028.5 364.242C1029.51 363.955 1030.81 363.683 1032.42 363.425C1034.02 363.167 1035.8 363.038 1037.75 363.038C1039.58 363.038 1041.12 363.296 1042.35 363.812C1043.58 364.299 1044.56 365.002 1045.27 365.919C1046.02 366.808 1046.53 367.897 1046.82 369.187C1047.14 370.448 1047.29 371.839 1047.29 373.358V386H1042.09V374.175C1042.09 372.971 1042.01 371.953 1041.83 371.122C1041.69 370.262 1041.43 369.574 1041.06 369.058C1040.72 368.513 1040.23 368.126 1039.6 367.897C1039 367.639 1038.25 367.51 1037.36 367.51C1036.7 367.51 1036.01 367.553 1035.3 367.639C1034.58 367.725 1034.05 367.797 1033.71 367.854V386H1028.5V364.242ZM1051.33 371.337H1062.9V376.11H1051.33V371.337ZM1071.31 374.175C1071.31 376.382 1071.78 378.002 1072.72 379.034C1073.7 380.037 1074.95 380.539 1076.47 380.539C1077.3 380.539 1078.07 380.424 1078.79 380.195C1079.53 379.966 1080.13 379.693 1080.59 379.378V367.725C1080.22 367.639 1079.76 367.567 1079.22 367.51C1078.67 367.424 1077.98 367.381 1077.15 367.381C1075.26 367.381 1073.81 368.012 1072.81 369.273C1071.81 370.506 1071.31 372.14 1071.31 374.175ZM1085.8 383.721C1085.8 387.304 1084.88 389.927 1083.04 391.59C1081.24 393.253 1078.46 394.084 1074.7 394.084C1073.33 394.084 1071.98 393.969 1070.66 393.74C1069.37 393.511 1068.19 393.21 1067.13 392.837L1068.08 388.408C1068.97 388.781 1069.97 389.082 1071.09 389.311C1072.24 389.54 1073.47 389.655 1074.79 389.655C1076.88 389.655 1078.37 389.225 1079.26 388.365C1080.15 387.505 1080.59 386.229 1080.59 384.538V383.678C1080.08 383.936 1079.39 384.194 1078.53 384.452C1077.7 384.71 1076.74 384.839 1075.65 384.839C1074.21 384.839 1072.9 384.61 1071.69 384.151C1070.52 383.692 1069.5 383.019 1068.64 382.13C1067.81 381.241 1067.15 380.138 1066.66 378.819C1066.2 377.472 1065.97 375.924 1065.97 374.175C1065.97 372.541 1066.22 371.036 1066.7 369.66C1067.22 368.284 1067.95 367.109 1068.9 366.134C1069.87 365.159 1071.05 364.4 1072.42 363.855C1073.8 363.31 1075.36 363.038 1077.11 363.038C1078.8 363.038 1080.41 363.167 1081.93 363.425C1083.45 363.683 1084.74 363.955 1085.8 364.242V383.721ZM1100.33 382.345C1101.93 382.345 1103.15 382.259 1103.98 382.087V376.325C1103.7 376.239 1103.28 376.153 1102.74 376.067C1102.19 375.981 1101.59 375.938 1100.93 375.938C1100.36 375.938 1099.77 375.981 1099.17 376.067C1098.59 376.153 1098.06 376.311 1097.58 376.54C1097.12 376.769 1096.74 377.099 1096.46 377.529C1096.17 377.93 1096.03 378.446 1096.03 379.077C1096.03 380.31 1096.41 381.17 1097.19 381.657C1097.96 382.116 1099.01 382.345 1100.33 382.345ZM1099.9 362.952C1101.62 362.952 1103.07 363.167 1104.24 363.597C1105.42 364.027 1106.35 364.629 1107.04 365.403C1107.75 366.177 1108.25 367.123 1108.54 368.241C1108.86 369.33 1109.01 370.534 1109.01 371.853V385.484C1108.21 385.656 1106.99 385.857 1105.36 386.086C1103.75 386.344 1101.93 386.473 1099.9 386.473C1098.55 386.473 1097.32 386.344 1096.2 386.086C1095.08 385.828 1094.12 385.412 1093.32 384.839C1092.54 384.266 1091.93 383.52 1091.47 382.603C1091.04 381.686 1090.82 380.553 1090.82 379.206C1090.82 377.916 1091.07 376.827 1091.56 375.938C1092.07 375.049 1092.76 374.333 1093.62 373.788C1094.48 373.215 1095.47 372.813 1096.59 372.584C1097.73 372.326 1098.92 372.197 1100.16 372.197C1100.73 372.197 1101.33 372.24 1101.96 372.326C1102.59 372.383 1103.27 372.498 1103.98 372.67V371.81C1103.98 371.208 1103.91 370.635 1103.77 370.09C1103.62 369.545 1103.37 369.072 1102.99 368.671C1102.65 368.241 1102.18 367.911 1101.57 367.682C1101 367.453 1100.27 367.338 1099.38 367.338C1098.18 367.338 1097.07 367.424 1096.07 367.596C1095.07 367.768 1094.25 367.969 1093.62 368.198L1092.97 363.984C1093.63 363.755 1094.59 363.525 1095.86 363.296C1097.12 363.067 1098.46 362.952 1099.9 362.952ZM1130.31 374.863C1130.31 372.541 1129.78 370.735 1128.72 369.445C1127.68 368.155 1126.01 367.51 1123.68 367.51C1123.2 367.51 1122.68 367.539 1122.14 367.596C1121.62 367.625 1121.1 367.711 1120.59 367.854V380.711C1121.05 381.026 1121.65 381.327 1122.39 381.614C1123.17 381.872 1123.99 382.001 1124.85 382.001C1126.74 382.001 1128.11 381.356 1128.97 380.066C1129.86 378.776 1130.31 377.042 1130.31 374.863ZM1135.64 374.777C1135.64 376.497 1135.41 378.074 1134.95 379.507C1134.52 380.94 1133.89 382.173 1133.06 383.205C1132.23 384.237 1131.18 385.04 1129.92 385.613C1128.69 386.186 1127.28 386.473 1125.71 386.473C1124.64 386.473 1123.67 386.344 1122.78 386.086C1121.89 385.828 1121.16 385.541 1120.59 385.226V393.955H1115.39V364.242C1116.45 363.955 1117.75 363.683 1119.3 363.425C1120.85 363.167 1122.48 363.038 1124.2 363.038C1125.98 363.038 1127.57 363.31 1128.97 363.855C1130.38 364.4 1131.57 365.188 1132.54 366.22C1133.55 367.223 1134.31 368.456 1134.82 369.918C1135.37 371.351 1135.64 372.971 1135.64 374.777ZM1142.83 373.143C1142.83 369.617 1142.3 366.32 1141.24 363.253C1140.18 360.157 1138.7 357.319 1136.81 354.739L1140.47 352.331C1142.79 355.112 1144.62 358.279 1145.97 361.834C1147.32 365.36 1147.99 369.13 1147.99 373.143C1147.99 377.156 1147.32 380.94 1145.97 384.495C1144.62 388.021 1142.79 391.174 1140.47 393.955L1136.81 391.547C1138.7 388.996 1140.18 386.172 1141.24 383.076C1142.3 379.98 1142.83 376.669 1142.83 373.143Z" fill="#60195E"/>
<path d="M1428.98 130.05C1428.98 133.027 1429.61 135.212 1430.89 136.604C1432.2 137.957 1433.89 138.634 1435.94 138.634C1437.06 138.634 1438.1 138.479 1439.07 138.17C1440.07 137.861 1440.89 137.493 1441.5 137.068V121.35C1441 121.234 1440.38 121.137 1439.65 121.06C1438.91 120.944 1437.99 120.886 1436.86 120.886C1434.31 120.886 1432.36 121.737 1431.01 123.438C1429.65 125.101 1428.98 127.305 1428.98 130.05ZM1448.52 142.926C1448.52 147.759 1447.28 151.297 1444.81 153.54C1442.37 155.783 1438.62 156.904 1433.56 156.904C1431.7 156.904 1429.88 156.749 1428.11 156.44C1426.37 156.131 1424.78 155.725 1423.35 155.222L1424.63 149.248C1425.82 149.751 1427.18 150.157 1428.69 150.466C1430.23 150.775 1431.9 150.93 1433.67 150.93C1436.5 150.93 1438.51 150.35 1439.71 149.19C1440.9 148.03 1441.5 146.309 1441.5 144.028V142.868C1440.81 143.216 1439.88 143.564 1438.72 143.912C1437.6 144.26 1436.3 144.434 1434.83 144.434C1432.9 144.434 1431.12 144.125 1429.5 143.506C1427.91 142.887 1426.54 141.979 1425.38 140.78C1424.26 139.581 1423.37 138.093 1422.71 136.314C1422.09 134.497 1421.78 132.409 1421.78 130.05C1421.78 127.846 1422.11 125.816 1422.77 123.96C1423.47 122.104 1424.45 120.519 1425.73 119.204C1427.04 117.889 1428.63 116.865 1430.48 116.13C1432.34 115.395 1434.45 115.028 1436.81 115.028C1439.09 115.028 1441.25 115.202 1443.3 115.55C1445.35 115.898 1447.09 116.265 1448.52 116.652V142.926ZM1468.12 141.07C1470.29 141.07 1471.93 140.954 1473.05 140.722V132.95C1472.67 132.834 1472.11 132.718 1471.37 132.602C1470.64 132.486 1469.82 132.428 1468.93 132.428C1468.16 132.428 1467.37 132.486 1466.56 132.602C1465.78 132.718 1465.07 132.931 1464.41 133.24C1463.79 133.549 1463.29 133.994 1462.9 134.574C1462.52 135.115 1462.32 135.811 1462.32 136.662C1462.32 138.325 1462.84 139.485 1463.89 140.142C1464.93 140.761 1466.34 141.07 1468.12 141.07ZM1467.54 114.912C1469.86 114.912 1471.82 115.202 1473.4 115.782C1474.99 116.362 1476.24 117.174 1477.17 118.218C1478.14 119.262 1478.81 120.538 1479.2 122.046C1479.63 123.515 1479.84 125.139 1479.84 126.918V145.304C1478.76 145.536 1477.11 145.807 1474.91 146.116C1472.74 146.464 1470.29 146.638 1467.54 146.638C1465.73 146.638 1464.06 146.464 1462.55 146.116C1461.05 145.768 1459.75 145.207 1458.67 144.434C1457.62 143.661 1456.79 142.655 1456.17 141.418C1455.59 140.181 1455.3 138.653 1455.3 136.836C1455.3 135.096 1455.63 133.627 1456.29 132.428C1456.99 131.229 1457.91 130.263 1459.07 129.528C1460.23 128.755 1461.57 128.213 1463.08 127.904C1464.62 127.556 1466.23 127.382 1467.89 127.382C1468.66 127.382 1469.48 127.44 1470.33 127.556C1471.18 127.633 1472.09 127.788 1473.05 128.02V126.86C1473.05 126.048 1472.96 125.275 1472.76 124.54C1472.57 123.805 1472.22 123.167 1471.72 122.626C1471.25 122.046 1470.62 121.601 1469.8 121.292C1469.03 120.983 1468.05 120.828 1466.85 120.828C1465.22 120.828 1463.73 120.944 1462.38 121.176C1461.03 121.408 1459.93 121.679 1459.07 121.988L1458.2 116.304C1459.09 115.995 1460.39 115.685 1462.09 115.376C1463.79 115.067 1465.61 114.912 1467.54 114.912ZM1508.56 130.978C1508.56 127.846 1507.84 125.41 1506.41 123.67C1505.02 121.93 1502.76 121.06 1499.63 121.06C1498.97 121.06 1498.27 121.099 1497.54 121.176C1496.84 121.215 1496.15 121.331 1495.45 121.524V138.866C1496.07 139.291 1496.88 139.697 1497.89 140.084C1498.93 140.432 1500.03 140.606 1501.19 140.606C1503.74 140.606 1505.6 139.736 1506.76 137.996C1507.96 136.256 1508.56 133.917 1508.56 130.978ZM1515.75 130.862C1515.75 133.182 1515.44 135.309 1514.82 137.242C1514.24 139.175 1513.39 140.838 1512.27 142.23C1511.15 143.622 1509.74 144.705 1508.04 145.478C1506.37 146.251 1504.48 146.638 1502.35 146.638C1500.92 146.638 1499.61 146.464 1498.41 146.116C1497.21 145.768 1496.22 145.381 1495.45 144.956V156.73H1488.43V116.652C1489.86 116.265 1491.62 115.898 1493.71 115.55C1495.8 115.202 1498 115.028 1500.32 115.028C1502.72 115.028 1504.87 115.395 1506.76 116.13C1508.66 116.865 1510.26 117.928 1511.57 119.32C1512.93 120.673 1513.95 122.336 1514.65 124.308C1515.38 126.241 1515.75 128.426 1515.75 130.862ZM1530.87 120.48C1530.87 121.833 1530.41 122.935 1529.48 123.786C1528.59 124.637 1527.51 125.062 1526.23 125.062C1524.92 125.062 1523.81 124.637 1522.93 123.786C1522.04 122.935 1521.59 121.833 1521.59 120.48C1521.59 119.127 1522.04 118.025 1522.93 117.174C1523.81 116.285 1524.92 115.84 1526.23 115.84C1527.51 115.84 1528.59 116.285 1529.48 117.174C1530.41 118.025 1530.87 119.127 1530.87 120.48ZM1530.87 142.172C1530.87 143.525 1530.41 144.627 1529.48 145.478C1528.59 146.329 1527.51 146.754 1526.23 146.754C1524.92 146.754 1523.81 146.329 1522.93 145.478C1522.04 144.627 1521.59 143.525 1521.59 142.172C1521.59 140.819 1522.04 139.717 1522.93 138.866C1523.81 137.977 1524.92 137.532 1526.23 137.532C1527.51 137.532 1528.59 137.977 1529.48 138.866C1530.41 139.717 1530.87 140.819 1530.87 142.172ZM1561.15 146.87C1560.1 146.87 1559.02 146.793 1557.9 146.638C1556.82 146.522 1555.77 146.348 1554.77 146.116C1553.8 145.923 1552.91 145.71 1552.1 145.478C1551.29 145.207 1550.67 144.956 1550.24 144.724L1551.64 138.75C1552.45 139.137 1553.63 139.581 1555.17 140.084C1556.72 140.548 1558.64 140.78 1560.92 140.78C1563.97 140.78 1566.18 140.2 1567.53 139.04C1568.88 137.841 1569.56 136.256 1569.56 134.284C1569.56 133.008 1569.29 131.945 1568.75 131.094C1568.24 130.243 1567.53 129.567 1566.6 129.064C1565.71 128.523 1564.67 128.155 1563.47 127.962C1562.31 127.73 1561.07 127.614 1559.76 127.614H1557.38V121.93H1560.28C1561.17 121.93 1562.06 121.853 1562.95 121.698C1563.87 121.505 1564.71 121.195 1565.44 120.77C1566.18 120.306 1566.77 119.707 1567.24 118.972C1567.7 118.237 1567.93 117.29 1567.93 116.13C1567.93 115.202 1567.76 114.409 1567.41 113.752C1567.06 113.095 1566.6 112.553 1566.02 112.128C1565.48 111.703 1564.84 111.393 1564.11 111.2C1563.37 111.007 1562.6 110.91 1561.79 110.91C1560.05 110.91 1558.5 111.181 1557.15 111.722C1555.79 112.225 1554.59 112.805 1553.55 113.462L1551 108.242C1551.54 107.894 1552.2 107.527 1552.97 107.14C1553.74 106.753 1554.59 106.386 1555.52 106.038C1556.49 105.69 1557.51 105.419 1558.6 105.226C1559.68 104.994 1560.82 104.878 1562.02 104.878C1564.26 104.878 1566.19 105.149 1567.82 105.69C1569.44 106.231 1570.78 107.005 1571.82 108.01C1572.9 108.977 1573.7 110.137 1574.2 111.49C1574.74 112.805 1575.01 114.255 1575.01 115.84C1575.01 117.696 1574.49 119.359 1573.44 120.828C1572.44 122.297 1571.12 123.419 1569.5 124.192C1571.59 124.927 1573.31 126.145 1574.66 127.846C1576.05 129.547 1576.75 131.732 1576.75 134.4C1576.75 136.179 1576.44 137.841 1575.82 139.388C1575.2 140.896 1574.26 142.211 1572.98 143.332C1571.7 144.415 1570.08 145.285 1568.11 145.942C1566.18 146.561 1563.86 146.87 1561.15 146.87ZM1610.88 125.874C1610.88 132.641 1609.64 137.841 1607.16 141.476C1604.69 145.072 1601.27 146.87 1596.9 146.87C1592.53 146.87 1589.11 145.072 1586.63 141.476C1584.16 137.841 1582.92 132.641 1582.92 125.874C1582.92 122.51 1583.23 119.533 1583.85 116.942C1584.51 114.313 1585.43 112.109 1586.63 110.33C1587.87 108.551 1589.34 107.198 1591.04 106.27C1592.78 105.342 1594.73 104.878 1596.9 104.878C1601.27 104.878 1604.69 106.695 1607.16 110.33C1609.64 113.926 1610.88 119.107 1610.88 125.874ZM1603.63 125.874C1603.63 123.786 1603.51 121.833 1603.28 120.016C1603.05 118.199 1602.66 116.633 1602.12 115.318C1601.62 113.965 1600.94 112.901 1600.09 112.128C1599.24 111.355 1598.17 110.968 1596.9 110.968C1595.62 110.968 1594.54 111.355 1593.65 112.128C1592.8 112.901 1592.1 113.965 1591.56 115.318C1591.06 116.633 1590.69 118.199 1590.46 120.016C1590.27 121.833 1590.17 123.786 1590.17 125.874C1590.17 127.962 1590.27 129.915 1590.46 131.732C1590.69 133.549 1591.06 135.135 1591.56 136.488C1592.1 137.803 1592.8 138.847 1593.65 139.62C1594.54 140.393 1595.62 140.78 1596.9 140.78C1598.17 140.78 1599.24 140.393 1600.09 139.62C1600.94 138.847 1601.62 137.803 1602.12 136.488C1602.66 135.135 1603.05 133.549 1603.28 131.732C1603.51 129.915 1603.63 127.962 1603.63 125.874ZM1637.98 130.978C1637.98 127.846 1637.27 125.41 1635.84 123.67C1634.44 121.93 1632.18 121.06 1629.05 121.06C1628.39 121.06 1627.7 121.099 1626.96 121.176C1626.27 121.215 1625.57 121.331 1624.87 121.524V138.866C1625.49 139.291 1626.31 139.697 1627.31 140.084C1628.35 140.432 1629.46 140.606 1630.62 140.606C1633.17 140.606 1635.02 139.736 1636.18 137.996C1637.38 136.256 1637.98 133.917 1637.98 130.978ZM1645.17 130.862C1645.17 133.182 1644.87 135.309 1644.25 137.242C1643.67 139.175 1642.82 140.838 1641.69 142.23C1640.57 143.622 1639.16 144.705 1637.46 145.478C1635.8 146.251 1633.9 146.638 1631.78 146.638C1630.35 146.638 1629.03 146.464 1627.83 146.116C1626.63 145.768 1625.65 145.381 1624.87 144.956V156.73H1617.86V116.652C1619.29 116.265 1621.05 115.898 1623.13 115.55C1625.22 115.202 1627.43 115.028 1629.75 115.028C1632.14 115.028 1634.29 115.395 1636.18 116.13C1638.08 116.865 1639.68 117.928 1641 119.32C1642.35 120.673 1643.38 122.336 1644.07 124.308C1644.81 126.241 1645.17 128.426 1645.17 130.862ZM1662.46 125.584L1668.9 115.666H1676.27L1666.29 129.992C1668.38 132.699 1670.37 135.444 1672.26 138.228C1674.2 140.973 1675.78 143.564 1677.02 146H1669.42C1669.07 145.265 1668.61 144.434 1668.03 143.506C1667.49 142.539 1666.89 141.553 1666.23 140.548C1665.61 139.504 1664.96 138.479 1664.26 137.474C1663.56 136.469 1662.89 135.521 1662.23 134.632C1660.88 136.372 1659.54 138.305 1658.23 140.432C1656.95 142.52 1655.89 144.376 1655.04 146H1647.85C1648.43 144.84 1649.12 143.603 1649.93 142.288C1650.75 140.973 1651.62 139.639 1652.54 138.286C1653.47 136.894 1654.42 135.521 1655.39 134.168C1656.39 132.776 1657.38 131.461 1658.34 130.224L1648.31 115.666H1656.02L1662.46 125.584Z" fill="#60195E"/>
<path d="M117.976 558.05C117.976 561.027 118.614 563.212 119.89 564.604C121.205 565.957 122.887 566.634 124.936 566.634C126.057 566.634 127.101 566.479 128.068 566.17C129.073 565.861 129.885 565.493 130.504 565.068V549.35C130.001 549.234 129.383 549.137 128.648 549.06C127.913 548.944 126.985 548.886 125.864 548.886C123.312 548.886 121.359 549.737 120.006 551.438C118.653 553.101 117.976 555.305 117.976 558.05ZM137.522 570.926C137.522 575.759 136.285 579.297 133.81 581.54C131.374 583.783 127.623 584.904 122.558 584.904C120.702 584.904 118.885 584.749 117.106 584.44C115.366 584.131 113.781 583.725 112.35 583.222L113.626 577.248C114.825 577.751 116.178 578.157 117.686 578.466C119.233 578.775 120.895 578.93 122.674 578.93C125.497 578.93 127.507 578.35 128.706 577.19C129.905 576.03 130.504 574.309 130.504 572.028V570.868C129.808 571.216 128.88 571.564 127.72 571.912C126.599 572.26 125.303 572.434 123.834 572.434C121.901 572.434 120.122 572.125 118.498 571.506C116.913 570.887 115.54 569.979 114.38 568.78C113.259 567.581 112.369 566.093 111.712 564.314C111.093 562.497 110.784 560.409 110.784 558.05C110.784 555.846 111.113 553.816 111.77 551.96C112.466 550.104 113.452 548.519 114.728 547.204C116.043 545.889 117.628 544.865 119.484 544.13C121.34 543.395 123.447 543.028 125.806 543.028C128.087 543.028 130.253 543.202 132.302 543.55C134.351 543.898 136.091 544.265 137.522 544.652V570.926ZM157.122 569.07C159.288 569.07 160.931 568.954 162.052 568.722V560.95C161.666 560.834 161.105 560.718 160.37 560.602C159.636 560.486 158.824 560.428 157.934 560.428C157.161 560.428 156.368 560.486 155.556 560.602C154.783 560.718 154.068 560.931 153.41 561.24C152.792 561.549 152.289 561.994 151.902 562.574C151.516 563.115 151.322 563.811 151.322 564.662C151.322 566.325 151.844 567.485 152.888 568.142C153.932 568.761 155.344 569.07 157.122 569.07ZM156.542 542.912C158.862 542.912 160.815 543.202 162.4 543.782C163.986 544.362 165.242 545.174 166.17 546.218C167.137 547.262 167.814 548.538 168.2 550.046C168.626 551.515 168.838 553.139 168.838 554.918V573.304C167.756 573.536 166.112 573.807 163.908 574.116C161.743 574.464 159.288 574.638 156.542 574.638C154.725 574.638 153.062 574.464 151.554 574.116C150.046 573.768 148.751 573.207 147.668 572.434C146.624 571.661 145.793 570.655 145.174 569.418C144.594 568.181 144.304 566.653 144.304 564.836C144.304 563.096 144.633 561.627 145.29 560.428C145.986 559.229 146.914 558.263 148.074 557.528C149.234 556.755 150.568 556.213 152.076 555.904C153.623 555.556 155.228 555.382 156.89 555.382C157.664 555.382 158.476 555.44 159.326 555.556C160.177 555.633 161.086 555.788 162.052 556.02V554.86C162.052 554.048 161.956 553.275 161.762 552.54C161.569 551.805 161.221 551.167 160.718 550.626C160.254 550.046 159.616 549.601 158.804 549.292C158.031 548.983 157.045 548.828 155.846 548.828C154.222 548.828 152.734 548.944 151.38 549.176C150.027 549.408 148.925 549.679 148.074 549.988L147.204 544.304C148.094 543.995 149.389 543.685 151.09 543.376C152.792 543.067 154.609 542.912 156.542 542.912ZM197.559 558.978C197.559 555.846 196.843 553.41 195.413 551.67C194.021 549.93 191.759 549.06 188.627 549.06C187.969 549.06 187.273 549.099 186.539 549.176C185.843 549.215 185.147 549.331 184.451 549.524V566.866C185.069 567.291 185.881 567.697 186.887 568.084C187.931 568.432 189.033 568.606 190.193 568.606C192.745 568.606 194.601 567.736 195.761 565.996C196.959 564.256 197.559 561.917 197.559 558.978ZM204.751 558.862C204.751 561.182 204.441 563.309 203.823 565.242C203.243 567.175 202.392 568.838 201.271 570.23C200.149 571.622 198.738 572.705 197.037 573.478C195.374 574.251 193.479 574.638 191.353 574.638C189.922 574.638 188.607 574.464 187.409 574.116C186.21 573.768 185.224 573.381 184.451 572.956V584.73H177.433V544.652C178.863 544.265 180.623 543.898 182.711 543.55C184.799 543.202 187.003 543.028 189.323 543.028C191.72 543.028 193.866 543.395 195.761 544.13C197.655 544.865 199.26 545.928 200.575 547.32C201.928 548.673 202.953 550.336 203.649 552.308C204.383 554.241 204.751 556.426 204.751 558.862ZM219.872 548.48C219.872 549.833 219.408 550.935 218.48 551.786C217.59 552.637 216.508 553.062 215.232 553.062C213.917 553.062 212.815 552.637 211.926 551.786C211.036 550.935 210.592 549.833 210.592 548.48C210.592 547.127 211.036 546.025 211.926 545.174C212.815 544.285 213.917 543.84 215.232 543.84C216.508 543.84 217.59 544.285 218.48 545.174C219.408 546.025 219.872 547.127 219.872 548.48ZM219.872 570.172C219.872 571.525 219.408 572.627 218.48 573.478C217.59 574.329 216.508 574.754 215.232 574.754C213.917 574.754 212.815 574.329 211.926 573.478C211.036 572.627 210.592 571.525 210.592 570.172C210.592 568.819 211.036 567.717 211.926 566.866C212.815 565.977 213.917 565.532 215.232 565.532C216.508 565.532 217.59 565.977 218.48 566.866C219.408 567.717 219.872 568.819 219.872 570.172ZM241.681 542.158C243.924 541.269 246.166 540.128 248.409 538.736C250.69 537.344 252.701 535.701 254.441 533.806H259.371V574H252.353V543.202C251.309 544.014 249.994 544.807 248.409 545.58C246.824 546.353 245.296 546.991 243.827 547.494L241.681 542.158ZM299.876 553.874C299.876 560.641 298.638 565.841 296.164 569.476C293.689 573.072 290.267 574.87 285.898 574.87C281.528 574.87 278.106 573.072 275.632 569.476C273.157 565.841 271.92 560.641 271.92 553.874C271.92 550.51 272.229 547.533 272.848 544.942C273.505 542.313 274.433 540.109 275.632 538.33C276.869 536.551 278.338 535.198 280.04 534.27C281.78 533.342 283.732 532.878 285.898 532.878C290.267 532.878 293.689 534.695 296.164 538.33C298.638 541.926 299.876 547.107 299.876 553.874ZM292.626 553.874C292.626 551.786 292.51 549.833 292.278 548.016C292.046 546.199 291.659 544.633 291.118 543.318C290.615 541.965 289.938 540.901 289.088 540.128C288.237 539.355 287.174 538.968 285.898 538.968C284.622 538.968 283.539 539.355 282.65 540.128C281.799 540.901 281.103 541.965 280.562 543.318C280.059 544.633 279.692 546.199 279.46 548.016C279.266 549.833 279.17 551.786 279.17 553.874C279.17 555.962 279.266 557.915 279.46 559.732C279.692 561.549 280.059 563.135 280.562 564.488C281.103 565.803 281.799 566.847 282.65 567.62C283.539 568.393 284.622 568.78 285.898 568.78C287.174 568.78 288.237 568.393 289.088 567.62C289.938 566.847 290.615 565.803 291.118 564.488C291.659 563.135 292.046 561.549 292.278 559.732C292.51 557.915 292.626 555.962 292.626 553.874ZM326.983 558.978C326.983 555.846 326.267 553.41 324.837 551.67C323.445 549.93 321.183 549.06 318.051 549.06C317.393 549.06 316.697 549.099 315.963 549.176C315.267 549.215 314.571 549.331 313.875 549.524V566.866C314.493 567.291 315.305 567.697 316.311 568.084C317.355 568.432 318.457 568.606 319.617 568.606C322.169 568.606 324.025 567.736 325.185 565.996C326.383 564.256 326.983 561.917 326.983 558.978ZM334.175 558.862C334.175 561.182 333.865 563.309 333.247 565.242C332.667 567.175 331.816 568.838 330.695 570.23C329.573 571.622 328.162 572.705 326.461 573.478C324.798 574.251 322.903 574.638 320.777 574.638C319.346 574.638 318.031 574.464 316.833 574.116C315.634 573.768 314.648 573.381 313.875 572.956V584.73H306.857V544.652C308.287 544.265 310.047 543.898 312.135 543.55C314.223 543.202 316.427 543.028 318.747 543.028C321.144 543.028 323.29 543.395 325.185 544.13C327.079 544.865 328.684 545.928 329.999 547.32C331.352 548.673 332.377 550.336 333.073 552.308C333.807 554.241 334.175 556.426 334.175 558.862ZM351.462 553.584L357.9 543.666H365.266L355.29 557.992C357.378 560.699 359.369 563.444 361.264 566.228C363.197 568.973 364.782 571.564 366.02 574H358.422C358.074 573.265 357.61 572.434 357.03 571.506C356.488 570.539 355.889 569.553 355.232 568.548C354.613 567.504 353.956 566.479 353.26 565.474C352.564 564.469 351.887 563.521 351.23 562.632C349.876 564.372 348.542 566.305 347.228 568.432C345.952 570.52 344.888 572.376 344.038 574H336.846C337.426 572.84 338.122 571.603 338.934 570.288C339.746 568.973 340.616 567.639 341.544 566.286C342.472 564.894 343.419 563.521 344.386 562.168C345.391 560.776 346.377 559.461 347.344 558.224L337.31 543.666H345.024L351.462 553.584Z" fill="#60195E"/>
<path d="M1428.98 562.05C1428.98 565.027 1429.61 567.212 1430.89 568.604C1432.2 569.957 1433.89 570.634 1435.94 570.634C1437.06 570.634 1438.1 570.479 1439.07 570.17C1440.07 569.861 1440.89 569.493 1441.5 569.068V553.35C1441 553.234 1440.38 553.137 1439.65 553.06C1438.91 552.944 1437.99 552.886 1436.86 552.886C1434.31 552.886 1432.36 553.737 1431.01 555.438C1429.65 557.101 1428.98 559.305 1428.98 562.05ZM1448.52 574.926C1448.52 579.759 1447.28 583.297 1444.81 585.54C1442.37 587.783 1438.62 588.904 1433.56 588.904C1431.7 588.904 1429.88 588.749 1428.11 588.44C1426.37 588.131 1424.78 587.725 1423.35 587.222L1424.63 581.248C1425.82 581.751 1427.18 582.157 1428.69 582.466C1430.23 582.775 1431.9 582.93 1433.67 582.93C1436.5 582.93 1438.51 582.35 1439.71 581.19C1440.9 580.03 1441.5 578.309 1441.5 576.028V574.868C1440.81 575.216 1439.88 575.564 1438.72 575.912C1437.6 576.26 1436.3 576.434 1434.83 576.434C1432.9 576.434 1431.12 576.125 1429.5 575.506C1427.91 574.887 1426.54 573.979 1425.38 572.78C1424.26 571.581 1423.37 570.093 1422.71 568.314C1422.09 566.497 1421.78 564.409 1421.78 562.05C1421.78 559.846 1422.11 557.816 1422.77 555.96C1423.47 554.104 1424.45 552.519 1425.73 551.204C1427.04 549.889 1428.63 548.865 1430.48 548.13C1432.34 547.395 1434.45 547.028 1436.81 547.028C1439.09 547.028 1441.25 547.202 1443.3 547.55C1445.35 547.898 1447.09 548.265 1448.52 548.652V574.926ZM1468.12 573.07C1470.29 573.07 1471.93 572.954 1473.05 572.722V564.95C1472.67 564.834 1472.11 564.718 1471.37 564.602C1470.64 564.486 1469.82 564.428 1468.93 564.428C1468.16 564.428 1467.37 564.486 1466.56 564.602C1465.78 564.718 1465.07 564.931 1464.41 565.24C1463.79 565.549 1463.29 565.994 1462.9 566.574C1462.52 567.115 1462.32 567.811 1462.32 568.662C1462.32 570.325 1462.84 571.485 1463.89 572.142C1464.93 572.761 1466.34 573.07 1468.12 573.07ZM1467.54 546.912C1469.86 546.912 1471.82 547.202 1473.4 547.782C1474.99 548.362 1476.24 549.174 1477.17 550.218C1478.14 551.262 1478.81 552.538 1479.2 554.046C1479.63 555.515 1479.84 557.139 1479.84 558.918V577.304C1478.76 577.536 1477.11 577.807 1474.91 578.116C1472.74 578.464 1470.29 578.638 1467.54 578.638C1465.73 578.638 1464.06 578.464 1462.55 578.116C1461.05 577.768 1459.75 577.207 1458.67 576.434C1457.62 575.661 1456.79 574.655 1456.17 573.418C1455.59 572.181 1455.3 570.653 1455.3 568.836C1455.3 567.096 1455.63 565.627 1456.29 564.428C1456.99 563.229 1457.91 562.263 1459.07 561.528C1460.23 560.755 1461.57 560.213 1463.08 559.904C1464.62 559.556 1466.23 559.382 1467.89 559.382C1468.66 559.382 1469.48 559.44 1470.33 559.556C1471.18 559.633 1472.09 559.788 1473.05 560.02V558.86C1473.05 558.048 1472.96 557.275 1472.76 556.54C1472.57 555.805 1472.22 555.167 1471.72 554.626C1471.25 554.046 1470.62 553.601 1469.8 553.292C1469.03 552.983 1468.05 552.828 1466.85 552.828C1465.22 552.828 1463.73 552.944 1462.38 553.176C1461.03 553.408 1459.93 553.679 1459.07 553.988L1458.2 548.304C1459.09 547.995 1460.39 547.685 1462.09 547.376C1463.79 547.067 1465.61 546.912 1467.54 546.912ZM1508.56 562.978C1508.56 559.846 1507.84 557.41 1506.41 555.67C1505.02 553.93 1502.76 553.06 1499.63 553.06C1498.97 553.06 1498.27 553.099 1497.54 553.176C1496.84 553.215 1496.15 553.331 1495.45 553.524V570.866C1496.07 571.291 1496.88 571.697 1497.89 572.084C1498.93 572.432 1500.03 572.606 1501.19 572.606C1503.74 572.606 1505.6 571.736 1506.76 569.996C1507.96 568.256 1508.56 565.917 1508.56 562.978ZM1515.75 562.862C1515.75 565.182 1515.44 567.309 1514.82 569.242C1514.24 571.175 1513.39 572.838 1512.27 574.23C1511.15 575.622 1509.74 576.705 1508.04 577.478C1506.37 578.251 1504.48 578.638 1502.35 578.638C1500.92 578.638 1499.61 578.464 1498.41 578.116C1497.21 577.768 1496.22 577.381 1495.45 576.956V588.73H1488.43V548.652C1489.86 548.265 1491.62 547.898 1493.71 547.55C1495.8 547.202 1498 547.028 1500.32 547.028C1502.72 547.028 1504.87 547.395 1506.76 548.13C1508.66 548.865 1510.26 549.928 1511.57 551.32C1512.93 552.673 1513.95 554.336 1514.65 556.308C1515.38 558.241 1515.75 560.426 1515.75 562.862ZM1530.87 552.48C1530.87 553.833 1530.41 554.935 1529.48 555.786C1528.59 556.637 1527.51 557.062 1526.23 557.062C1524.92 557.062 1523.81 556.637 1522.93 555.786C1522.04 554.935 1521.59 553.833 1521.59 552.48C1521.59 551.127 1522.04 550.025 1522.93 549.174C1523.81 548.285 1524.92 547.84 1526.23 547.84C1527.51 547.84 1528.59 548.285 1529.48 549.174C1530.41 550.025 1530.87 551.127 1530.87 552.48ZM1530.87 574.172C1530.87 575.525 1530.41 576.627 1529.48 577.478C1528.59 578.329 1527.51 578.754 1526.23 578.754C1524.92 578.754 1523.81 578.329 1522.93 577.478C1522.04 576.627 1521.59 575.525 1521.59 574.172C1521.59 572.819 1522.04 571.717 1522.93 570.866C1523.81 569.977 1524.92 569.532 1526.23 569.532C1527.51 569.532 1528.59 569.977 1529.48 570.866C1530.41 571.717 1530.87 572.819 1530.87 574.172ZM1552.68 546.158C1554.92 545.269 1557.17 544.128 1559.41 542.736C1561.69 541.344 1563.7 539.701 1565.44 537.806H1570.37V578H1563.35V547.202C1562.31 548.014 1560.99 548.807 1559.41 549.58C1557.82 550.353 1556.3 550.991 1554.83 551.494L1552.68 546.158ZM1610.88 557.874C1610.88 564.641 1609.64 569.841 1607.16 573.476C1604.69 577.072 1601.27 578.87 1596.9 578.87C1592.53 578.87 1589.11 577.072 1586.63 573.476C1584.16 569.841 1582.92 564.641 1582.92 557.874C1582.92 554.51 1583.23 551.533 1583.85 548.942C1584.51 546.313 1585.43 544.109 1586.63 542.33C1587.87 540.551 1589.34 539.198 1591.04 538.27C1592.78 537.342 1594.73 536.878 1596.9 536.878C1601.27 536.878 1604.69 538.695 1607.16 542.33C1609.64 545.926 1610.88 551.107 1610.88 557.874ZM1603.63 557.874C1603.63 555.786 1603.51 553.833 1603.28 552.016C1603.05 550.199 1602.66 548.633 1602.12 547.318C1601.62 545.965 1600.94 544.901 1600.09 544.128C1599.24 543.355 1598.17 542.968 1596.9 542.968C1595.62 542.968 1594.54 543.355 1593.65 544.128C1592.8 544.901 1592.1 545.965 1591.56 547.318C1591.06 548.633 1590.69 550.199 1590.46 552.016C1590.27 553.833 1590.17 555.786 1590.17 557.874C1590.17 559.962 1590.27 561.915 1590.46 563.732C1590.69 565.549 1591.06 567.135 1591.56 568.488C1592.1 569.803 1592.8 570.847 1593.65 571.62C1594.54 572.393 1595.62 572.78 1596.9 572.78C1598.17 572.78 1599.24 572.393 1600.09 571.62C1600.94 570.847 1601.62 569.803 1602.12 568.488C1602.66 567.135 1603.05 565.549 1603.28 563.732C1603.51 561.915 1603.63 559.962 1603.63 557.874ZM1637.98 562.978C1637.98 559.846 1637.27 557.41 1635.84 555.67C1634.44 553.93 1632.18 553.06 1629.05 553.06C1628.39 553.06 1627.7 553.099 1626.96 553.176C1626.27 553.215 1625.57 553.331 1624.87 553.524V570.866C1625.49 571.291 1626.31 571.697 1627.31 572.084C1628.35 572.432 1629.46 572.606 1630.62 572.606C1633.17 572.606 1635.02 571.736 1636.18 569.996C1637.38 568.256 1637.98 565.917 1637.98 562.978ZM1645.17 562.862C1645.17 565.182 1644.87 567.309 1644.25 569.242C1643.67 571.175 1642.82 572.838 1641.69 574.23C1640.57 575.622 1639.16 576.705 1637.46 577.478C1635.8 578.251 1633.9 578.638 1631.78 578.638C1630.35 578.638 1629.03 578.464 1627.83 578.116C1626.63 577.768 1625.65 577.381 1624.87 576.956V588.73H1617.86V548.652C1619.29 548.265 1621.05 547.898 1623.13 547.55C1625.22 547.202 1627.43 547.028 1629.75 547.028C1632.14 547.028 1634.29 547.395 1636.18 548.13C1638.08 548.865 1639.68 549.928 1641 551.32C1642.35 552.673 1643.38 554.336 1644.07 556.308C1644.81 558.241 1645.17 560.426 1645.17 562.862ZM1662.46 557.584L1668.9 547.666H1676.27L1666.29 561.992C1668.38 564.699 1670.37 567.444 1672.26 570.228C1674.2 572.973 1675.78 575.564 1677.02 578H1669.42C1669.07 577.265 1668.61 576.434 1668.03 575.506C1667.49 574.539 1666.89 573.553 1666.23 572.548C1665.61 571.504 1664.96 570.479 1664.26 569.474C1663.56 568.469 1662.89 567.521 1662.23 566.632C1660.88 568.372 1659.54 570.305 1658.23 572.432C1656.95 574.52 1655.89 576.376 1655.04 578H1647.85C1648.43 576.84 1649.12 575.603 1649.93 574.288C1650.75 572.973 1651.62 571.639 1652.54 570.286C1653.47 568.894 1654.42 567.521 1655.39 566.168C1656.39 564.776 1657.38 563.461 1658.34 562.224L1648.31 547.666H1656.02L1662.46 557.584ZM1705.02 578.87C1703.97 578.87 1702.89 578.793 1701.77 578.638C1700.69 578.522 1699.64 578.348 1698.64 578.116C1697.67 577.923 1696.78 577.71 1695.97 577.478C1695.16 577.207 1694.54 576.956 1694.11 576.724L1695.5 570.75C1696.32 571.137 1697.5 571.581 1699.04 572.084C1700.59 572.548 1702.5 572.78 1704.78 572.78C1707.84 572.78 1710.04 572.2 1711.4 571.04C1712.75 569.841 1713.43 568.256 1713.43 566.284C1713.43 565.008 1713.16 563.945 1712.61 563.094C1712.11 562.243 1711.4 561.567 1710.47 561.064C1709.58 560.523 1708.53 560.155 1707.34 559.962C1706.18 559.73 1704.94 559.614 1703.62 559.614H1701.25V553.93H1704.15C1705.04 553.93 1705.92 553.853 1706.81 553.698C1707.74 553.505 1708.57 553.195 1709.31 552.77C1710.04 552.306 1710.64 551.707 1711.11 550.972C1711.57 550.237 1711.8 549.29 1711.8 548.13C1711.8 547.202 1711.63 546.409 1711.28 545.752C1710.93 545.095 1710.47 544.553 1709.89 544.128C1709.35 543.703 1708.71 543.393 1707.97 543.2C1707.24 543.007 1706.47 542.91 1705.65 542.91C1703.91 542.91 1702.37 543.181 1701.01 543.722C1699.66 544.225 1698.46 544.805 1697.42 545.462L1694.87 540.242C1695.41 539.894 1696.06 539.527 1696.84 539.14C1697.61 538.753 1698.46 538.386 1699.39 538.038C1700.36 537.69 1701.38 537.419 1702.46 537.226C1703.55 536.994 1704.69 536.878 1705.89 536.878C1708.13 536.878 1710.06 537.149 1711.69 537.69C1713.31 538.231 1714.64 539.005 1715.69 540.01C1716.77 540.977 1717.56 542.137 1718.07 543.49C1718.61 544.805 1718.88 546.255 1718.88 547.84C1718.88 549.696 1718.36 551.359 1717.31 552.828C1716.31 554.297 1714.99 555.419 1713.37 556.192C1715.46 556.927 1717.18 558.145 1718.53 559.846C1719.92 561.547 1720.62 563.732 1720.62 566.4C1720.62 568.179 1720.31 569.841 1719.69 571.388C1719.07 572.896 1718.12 574.211 1716.85 575.332C1715.57 576.415 1713.95 577.285 1711.98 577.942C1710.04 578.561 1707.72 578.87 1705.02 578.87ZM1754.74 557.874C1754.74 564.641 1753.51 569.841 1751.03 573.476C1748.56 577.072 1745.13 578.87 1740.76 578.87C1736.4 578.87 1732.97 577.072 1730.5 573.476C1728.02 569.841 1726.79 564.641 1726.79 557.874C1726.79 554.51 1727.1 551.533 1727.71 548.942C1728.37 546.313 1729.3 544.109 1730.5 542.33C1731.74 540.551 1733.21 539.198 1734.91 538.27C1736.65 537.342 1738.6 536.878 1740.76 536.878C1745.13 536.878 1748.56 538.695 1751.03 542.33C1753.51 545.926 1754.74 551.107 1754.74 557.874ZM1747.49 557.874C1747.49 555.786 1747.38 553.833 1747.14 552.016C1746.91 550.199 1746.53 548.633 1745.98 547.318C1745.48 545.965 1744.81 544.901 1743.95 544.128C1743.1 543.355 1742.04 542.968 1740.76 542.968C1739.49 542.968 1738.41 543.355 1737.52 544.128C1736.67 544.901 1735.97 545.965 1735.43 547.318C1734.93 548.633 1734.56 550.199 1734.33 552.016C1734.13 553.833 1734.04 555.786 1734.04 557.874C1734.04 559.962 1734.13 561.915 1734.33 563.732C1734.56 565.549 1734.93 567.135 1735.43 568.488C1735.97 569.803 1736.67 570.847 1737.52 571.62C1738.41 572.393 1739.49 572.78 1740.76 572.78C1742.04 572.78 1743.1 572.393 1743.95 571.62C1744.81 570.847 1745.48 569.803 1745.98 568.488C1746.53 567.135 1746.91 565.549 1747.14 563.732C1747.38 561.915 1747.49 559.962 1747.49 557.874ZM1781.85 562.978C1781.85 559.846 1781.13 557.41 1779.7 555.67C1778.31 553.93 1776.05 553.06 1772.92 553.06C1772.26 553.06 1771.56 553.099 1770.83 553.176C1770.13 553.215 1769.44 553.331 1768.74 553.524V570.866C1769.36 571.291 1770.17 571.697 1771.18 572.084C1772.22 572.432 1773.32 572.606 1774.48 572.606C1777.04 572.606 1778.89 571.736 1780.05 569.996C1781.25 568.256 1781.85 565.917 1781.85 562.978ZM1789.04 562.862C1789.04 565.182 1788.73 567.309 1788.11 569.242C1787.53 571.175 1786.68 572.838 1785.56 574.23C1784.44 575.622 1783.03 576.705 1781.33 577.478C1779.67 578.251 1777.77 578.638 1775.64 578.638C1774.21 578.638 1772.9 578.464 1771.7 578.116C1770.5 577.768 1769.52 577.381 1768.74 576.956V588.73H1761.72V548.652C1763.15 548.265 1764.91 547.898 1767 547.55C1769.09 547.202 1771.29 547.028 1773.61 547.028C1776.01 547.028 1778.16 547.395 1780.05 548.13C1781.95 548.865 1783.55 549.928 1784.87 551.32C1786.22 552.673 1787.24 554.336 1787.94 556.308C1788.67 558.241 1789.04 560.426 1789.04 562.862ZM1806.33 557.584L1812.77 547.666H1820.13L1810.16 561.992C1812.24 564.699 1814.24 567.444 1816.13 570.228C1818.06 572.973 1819.65 575.564 1820.89 578H1813.29C1812.94 577.265 1812.48 576.434 1811.9 575.506C1811.36 574.539 1810.76 573.553 1810.1 572.548C1809.48 571.504 1808.82 570.479 1808.13 569.474C1807.43 568.469 1806.75 567.521 1806.1 566.632C1804.74 568.372 1803.41 570.305 1802.09 572.432C1800.82 574.52 1799.76 576.376 1798.9 578H1791.71C1792.29 576.84 1792.99 575.603 1793.8 574.288C1794.61 572.973 1795.48 571.639 1796.41 570.286C1797.34 568.894 1798.29 567.521 1799.25 566.168C1800.26 564.776 1801.24 563.461 1802.21 562.224L1792.18 547.666H1799.89L1806.33 557.584Z" fill="#60195E"/>
<line x1="111" y1="233.5" x2="1232" y2="233.5" stroke="#60195E" stroke-width="13"/>
<line x1="111" y1="233.5" x2="1232" y2="233.5" stroke="black" stroke-opacity="0.2" stroke-width="13"/>
</svg>
