<svg width="1890" height="626" viewBox="0 0 1890 626" fill="none" xmlns="http://www.w3.org/2000/svg">
<path d="M20 622C17.8232 622 15.7575 621.567 13.8765 620.787L12.3443 624.482C7.45546 622.455 3.54494 618.545 1.51762 613.656L5.21252 612.124C4.43251 610.243 4 608.177 4 606V597.861H0V581.583H4V565.306H0V549.028H4V532.75H0V516.472H4V500.194H0V483.917H4V467.639H0V451.361H4V435.083H0V418.806H4V402.528H0V386.25H4V369.972H0V353.694H4V337.417H0V321.139H4V304.861H0V288.583H4V272.306H0V256.028H4V239.75H0V223.472H4V207.195H0V190.917H4V174.639H0V158.361H4V142.083H0V125.806H4V109.528H0V93.2501H4V76.9723H0V60.6946H4V44.4168H0V28.139H4V20C4 17.8232 4.43251 15.7574 5.21251 13.8764L1.51761 12.3442C3.54492 7.45543 7.45544 3.54491 12.3442 1.51761L13.8765 5.21251C15.7574 4.43251 17.8232 4 20 4H28.0025V0H44.0075V4H60.0126V0H76.0176V4H92.0227V0H108.028V4H124.033V0H140.038V4H156.043V0H172.048V4H188.053V0H204.058V4H220.063V0H236.068V4H252.073V0H268.078V4H284.083V0H300.088V4H316.093V0H332.098V4H348.103V0H364.108V4H380.113V0H396.118V4H412.123V0H428.128V4H444.133V0H460.138V4H476.143V0H492.148V4H508.154V0H524.159V4H540.164V0H556.169V4H572.174V0H588.179V4H604.184V0H620.189V4H636.194V0H652.199V4H668.204V0H684.209V4H700.214V0H716.219V4H732.224V0H748.229V4H764.234V0H780.239V4H796.244V0H812.249V4H828.254V0H844.259V4H860.264V0H876.269V4H892.274V0H908.279V4H924.284V0H940.289V4H956.294V0H972.299V4H988.304V0H1004.31V4H1020.31V0H1036.32V4H1052.32V0H1068.33V4H1084.33V0H1100.34V4H1116.34V0H1132.35V4H1148.35V0H1164.36V4H1180.36V0H1196.37V4H1212.37V0H1228.38V4H1244.38V0H1260.39V4H1276.39V0H1292.4V4H1308.4V0H1324.41V4H1340.41V0H1356.42V4H1372.42V0H1388.43V4H1404.43V0H1420.44V4H1436.44V0H1452.45V4H1468.45V0H1484.46V4H1500.46V0H1516.47V4H1532.47V0H1548.48V4H1564.48V0H1580.49V4H1596.49V0H1612.5V4H1628.5V0H1644.51V4H1660.51V0H1676.52V4H1692.52V0H1708.53V4H1724.53V0H1740.54V4H1756.54V0H1772.55V4H1788.55V0H1804.56V4H1820.56V0H1836.57V4H1844.57C1846.75 4 1848.82 4.43251 1850.7 5.21252L1852.23 1.5176C1857.12 3.5449 1861.03 7.45542 1863.06 12.3442L1859.36 13.8765C1860.14 15.7574 1860.57 17.8232 1860.57 20V28.1389H1864.57V44.4167H1860.57V60.6944H1864.57V76.9722H1860.57V93.25H1864.57V109.528H1860.57V125.806H1864.57V142.083H1860.57V158.361H1864.57V174.639H1860.57V190.917H1864.57V207.194H1860.57V223.472H1864.57V239.75H1860.57V256.028H1864.57V272.306H1860.57V288.583H1864.57V304.861H1860.57V321.139H1864.57V337.417H1860.57V353.694H1864.57V369.972H1860.57V386.25H1864.57V402.528H1860.57V418.805H1864.57V435.083H1860.57V451.361H1864.57V467.639H1860.57V483.917H1864.57V500.194H1860.57V516.472H1864.57V532.75H1860.57V549.028H1864.57V565.305H1860.57V581.583H1864.57V597.861H1860.57V606C1860.57 608.177 1860.14 610.243 1859.36 612.124L1863.06 613.656C1861.03 618.545 1857.12 622.455 1852.23 624.482L1850.7 620.787C1848.82 621.568 1846.75 622 1844.57 622H1836.57V626H1820.57V622H1804.56V626H1788.56V622H1772.55V626H1756.55V622H1740.54V626H1724.54V622H1708.53V626H1692.53V622H1676.52V626H1660.52V622H1644.51V626H1628.51V622H1612.5V626H1596.5V622H1580.49V626H1564.49V622H1548.48V626H1532.48V622H1516.47V626H1500.47V622H1484.46V626H1468.46V622H1452.45V626H1436.45V622H1420.44V626H1404.44V622H1388.43V626H1372.43V622H1356.42V626H1340.42V622H1324.41V626H1308.41V622H1292.4V626H1276.4V622H1260.39V626H1244.39V622H1228.38V626H1212.38V622H1196.37V626H1180.37V622H1164.36V626H1148.35V622H1132.35V626H1116.34V622H1100.34V626H1084.34V622H1068.33V626H1052.33V622H1036.32V626H1020.32V622H1004.31V626H988.305V622H972.3V626H956.295V622H940.29V626H924.285V622H908.28V626H892.275V622H876.27V626H860.265V622H844.26V626H828.255V622H812.25V626H796.245V622H780.24V626H764.235V622H748.23V626H732.225V622H716.22V626H700.215V622H684.21V626H668.205V622H652.2V626H636.195V622H620.19V626H604.185V622H588.18V626H572.175V622H556.17V626H540.165V622H524.16V626H508.155V622H492.15V626H476.145V622H460.14V626H444.135V622H428.13V626H412.125V622H396.12V626H380.115V622H364.11V626H348.105V622H332.1V626H316.095V622H300.09V626H284.085V622H268.08V626H252.075V622H236.07V626H220.065V622H204.06V626H188.055V622H172.05V626H156.045V622H140.04V626H124.035V622H108.03V626H92.0247V622H76.0197V626H60.0146V622H44.0097V626H28.0047V622H20Z" fill="#C4C4C4" stroke="#C4C4C4" stroke-width="8" stroke-dasharray="16 16"/>
<line x1="1864.57" y1="205.393" x2="-5.61568e-07" y2="205.392" stroke="black" stroke-opacity="0.6" stroke-width="8" stroke-dasharray="16 3"/>
<line x1="1864.57" y1="442.934" x2="-5.61568e-07" y2="442.934" stroke="black" stroke-opacity="0.6" stroke-width="8" stroke-dasharray="16 3"/>
<line x1="485.133" y1="626" x2="485.133" y2="-1.74846e-07" stroke="black" stroke-opacity="0.6" stroke-width="8" stroke-dasharray="16 3"/>
<line x1="978.753" y1="626" x2="978.753" y2="-1.74846e-07" stroke="black" stroke-opacity="0.6" stroke-width="8" stroke-dasharray="16 3"/>
<line x1="1467.89" y1="626" x2="1467.89" y2="-1.74846e-07" stroke="black" stroke-opacity="0.6" stroke-width="8" stroke-dasharray="16 3"/>
<rect x="983" y="210" width="882" height="416" fill="#60195E" fill-opacity="0.54"/>
<rect x="489" width="974" height="439" fill="#2B6019" fill-opacity="0.54"/>
<path d="M529.542 75H522.524V44.666H529.542V75ZM530.296 35.792C530.296 37.1067 529.871 38.1507 529.02 38.924C528.169 39.6973 527.164 40.084 526.004 40.084C524.805 40.084 523.781 39.6973 522.93 38.924C522.079 38.1507 521.654 37.1067 521.654 35.792C521.654 34.4387 522.079 33.3753 522.93 32.602C523.781 31.8287 524.805 31.442 526.004 31.442C527.164 31.442 528.169 31.8287 529.02 32.602C529.871 33.3753 530.296 34.4387 530.296 35.792ZM538.147 36.662L545.165 35.502V44.666H555.953V50.524H545.165V62.878C545.165 65.314 545.552 67.054 546.325 68.098C547.099 69.142 548.413 69.664 550.269 69.664C551.545 69.664 552.667 69.5287 553.633 69.258C554.639 68.9873 555.431 68.736 556.011 68.504L557.171 74.072C556.359 74.42 555.296 74.768 553.981 75.116C552.667 75.5027 551.12 75.696 549.341 75.696C547.176 75.696 545.359 75.406 543.889 74.826C542.459 74.246 541.318 73.4147 540.467 72.332C539.617 71.2107 539.017 69.8767 538.669 68.33C538.321 66.7447 538.147 64.9467 538.147 62.936V36.662ZM560.546 59.978C560.546 57.31 560.932 54.9707 561.706 52.96C562.518 50.9493 563.581 49.2867 564.896 47.972C566.21 46.6187 567.718 45.6133 569.42 44.956C571.121 44.26 572.861 43.912 574.64 43.912C578.816 43.912 582.064 45.2073 584.384 47.798C586.742 50.3887 587.922 54.2553 587.922 59.398C587.922 59.7847 587.902 60.2293 587.864 60.732C587.864 61.196 587.844 61.6213 587.806 62.008H567.796C567.989 64.444 568.84 66.3387 570.348 67.692C571.894 69.0067 574.118 69.664 577.018 69.664C578.719 69.664 580.266 69.5093 581.658 69.2C583.088 68.8907 584.21 68.562 585.022 68.214L585.95 73.956C585.563 74.1493 585.022 74.362 584.326 74.594C583.668 74.7873 582.895 74.9613 582.006 75.116C581.155 75.3093 580.227 75.464 579.222 75.58C578.216 75.696 577.192 75.754 576.148 75.754C573.48 75.754 571.16 75.3673 569.188 74.594C567.216 73.782 565.592 72.68 564.316 71.288C563.04 69.8573 562.092 68.1947 561.474 66.3C560.855 64.3667 560.546 62.2593 560.546 59.978ZM580.904 56.846C580.904 55.8793 580.768 54.9707 580.498 54.12C580.227 53.2307 579.821 52.4767 579.28 51.858C578.777 51.2007 578.139 50.698 577.366 50.35C576.631 49.9633 575.742 49.77 574.698 49.77C573.615 49.77 572.668 49.9827 571.856 50.408C571.044 50.7947 570.348 51.3167 569.768 51.974C569.226 52.6313 568.801 53.3853 568.492 54.236C568.182 55.0867 567.97 55.9567 567.854 56.846H580.904ZM612.646 59.05C612.646 55.8793 612.24 53.598 611.428 52.206C610.655 50.7753 609.186 50.06 607.02 50.06C606.247 50.06 605.396 50.118 604.468 50.234C603.54 50.35 602.844 50.4467 602.38 50.524V75H595.362V45.652C596.716 45.2653 598.475 44.898 600.64 44.55C602.844 44.202 605.164 44.028 607.6 44.028C609.688 44.028 611.39 44.2987 612.704 44.84C614.058 45.3813 615.179 46.0967 616.068 46.986C616.494 46.6767 617.035 46.348 617.692 46C618.35 45.652 619.084 45.3427 619.896 45.072C620.708 44.7627 621.559 44.5113 622.448 44.318C623.376 44.1247 624.304 44.028 625.232 44.028C627.591 44.028 629.524 44.376 631.032 45.072C632.579 45.7293 633.778 46.6767 634.628 47.914C635.518 49.1127 636.117 50.582 636.426 52.322C636.774 54.0233 636.948 55.8987 636.948 57.948V75H629.93V59.05C629.93 55.8793 629.544 53.598 628.77 52.206C627.997 50.7753 626.508 50.06 624.304 50.06C623.183 50.06 622.12 50.2533 621.114 50.64C620.109 50.988 619.355 51.336 618.852 51.684C619.162 52.6507 619.374 53.6753 619.49 54.758C619.606 55.8407 619.664 57.0007 619.664 58.238V75H612.646V59.05ZM642.414 55.222H658.016V61.66H642.414V55.222ZM664.595 43.158C666.838 42.2687 669.08 41.128 671.323 39.736C673.604 38.344 675.615 36.7007 677.355 34.806H682.285V75H675.267V44.202C674.223 45.014 672.908 45.8067 671.323 46.58C669.738 47.3533 668.21 47.9913 666.741 48.494L664.595 43.158Z" fill="#0E3519"/>
<path d="M1007.54 610H1000.52V579.666H1007.54V610ZM1008.3 570.792C1008.3 572.107 1007.87 573.151 1007.02 573.924C1006.17 574.697 1005.16 575.084 1004 575.084C1002.81 575.084 1001.78 574.697 1000.93 573.924C1000.08 573.151 999.654 572.107 999.654 570.792C999.654 569.439 1000.08 568.375 1000.93 567.602C1001.78 566.829 1002.81 566.442 1004 566.442C1005.16 566.442 1006.17 566.829 1007.02 567.602C1007.87 568.375 1008.3 569.439 1008.3 570.792ZM1016.15 571.662L1023.17 570.502V579.666H1033.95V585.524H1023.17V597.878C1023.17 600.314 1023.55 602.054 1024.33 603.098C1025.1 604.142 1026.41 604.664 1028.27 604.664C1029.55 604.664 1030.67 604.529 1031.63 604.258C1032.64 603.987 1033.43 603.736 1034.01 603.504L1035.17 609.072C1034.36 609.42 1033.3 609.768 1031.98 610.116C1030.67 610.503 1029.12 610.696 1027.34 610.696C1025.18 610.696 1023.36 610.406 1021.89 609.826C1020.46 609.246 1019.32 608.415 1018.47 607.332C1017.62 606.211 1017.02 604.877 1016.67 603.33C1016.32 601.745 1016.15 599.947 1016.15 597.936V571.662ZM1038.55 594.978C1038.55 592.31 1038.93 589.971 1039.71 587.96C1040.52 585.949 1041.58 584.287 1042.9 582.972C1044.21 581.619 1045.72 580.613 1047.42 579.956C1049.12 579.26 1050.86 578.912 1052.64 578.912C1056.82 578.912 1060.06 580.207 1062.38 582.798C1064.74 585.389 1065.92 589.255 1065.92 594.398C1065.92 594.785 1065.9 595.229 1065.86 595.732C1065.86 596.196 1065.84 596.621 1065.81 597.008H1045.8C1045.99 599.444 1046.84 601.339 1048.35 602.692C1049.89 604.007 1052.12 604.664 1055.02 604.664C1056.72 604.664 1058.27 604.509 1059.66 604.2C1061.09 603.891 1062.21 603.562 1063.02 603.214L1063.95 608.956C1063.56 609.149 1063.02 609.362 1062.33 609.594C1061.67 609.787 1060.9 609.961 1060.01 610.116C1059.16 610.309 1058.23 610.464 1057.22 610.58C1056.22 610.696 1055.19 610.754 1054.15 610.754C1051.48 610.754 1049.16 610.367 1047.19 609.594C1045.22 608.782 1043.59 607.68 1042.32 606.288C1041.04 604.857 1040.09 603.195 1039.47 601.3C1038.86 599.367 1038.55 597.259 1038.55 594.978ZM1058.9 591.846C1058.9 590.879 1058.77 589.971 1058.5 589.12C1058.23 588.231 1057.82 587.477 1057.28 586.858C1056.78 586.201 1056.14 585.698 1055.37 585.35C1054.63 584.963 1053.74 584.77 1052.7 584.77C1051.62 584.77 1050.67 584.983 1049.86 585.408C1049.04 585.795 1048.35 586.317 1047.77 586.974C1047.23 587.631 1046.8 588.385 1046.49 589.236C1046.18 590.087 1045.97 590.957 1045.85 591.846H1058.9ZM1090.65 594.05C1090.65 590.879 1090.24 588.598 1089.43 587.206C1088.66 585.775 1087.19 585.06 1085.02 585.06C1084.25 585.06 1083.4 585.118 1082.47 585.234C1081.54 585.35 1080.84 585.447 1080.38 585.524V610H1073.36V580.652C1074.72 580.265 1076.48 579.898 1078.64 579.55C1080.84 579.202 1083.16 579.028 1085.6 579.028C1087.69 579.028 1089.39 579.299 1090.7 579.84C1092.06 580.381 1093.18 581.097 1094.07 581.986C1094.49 581.677 1095.04 581.348 1095.69 581C1096.35 580.652 1097.08 580.343 1097.9 580.072C1098.71 579.763 1099.56 579.511 1100.45 579.318C1101.38 579.125 1102.3 579.028 1103.23 579.028C1105.59 579.028 1107.52 579.376 1109.03 580.072C1110.58 580.729 1111.78 581.677 1112.63 582.914C1113.52 584.113 1114.12 585.582 1114.43 587.322C1114.77 589.023 1114.95 590.899 1114.95 592.948V610H1107.93V594.05C1107.93 590.879 1107.54 588.598 1106.77 587.206C1106 585.775 1104.51 585.06 1102.3 585.06C1101.18 585.06 1100.12 585.253 1099.11 585.64C1098.11 585.988 1097.36 586.336 1096.85 586.684C1097.16 587.651 1097.37 588.675 1097.49 589.758C1097.61 590.841 1097.66 592.001 1097.66 593.238V610H1090.65V594.05ZM1120.41 590.222H1136.02V596.66H1120.41V590.222ZM1165.27 580.246C1165.27 581.638 1164.98 583.011 1164.4 584.364C1163.82 585.679 1163.07 586.974 1162.14 588.25C1161.25 589.487 1160.23 590.705 1159.07 591.904C1157.91 593.064 1156.75 594.205 1155.59 595.326C1154.97 595.906 1154.27 596.602 1153.5 597.414C1152.73 598.226 1151.99 599.038 1151.3 599.85C1150.6 600.662 1150 601.455 1149.5 602.228C1148.99 602.963 1148.72 603.581 1148.69 604.084H1166.55V610H1140.97C1140.93 609.691 1140.91 609.323 1140.91 608.898C1140.91 608.434 1140.91 608.086 1140.91 607.854C1140.91 605.998 1141.2 604.297 1141.78 602.75C1142.4 601.165 1143.19 599.695 1144.16 598.342C1145.13 596.989 1146.21 595.713 1147.41 594.514C1148.61 593.315 1149.81 592.136 1151.01 590.976C1151.93 590.087 1152.82 589.217 1153.67 588.366C1154.52 587.515 1155.26 586.684 1155.88 585.872C1156.53 585.021 1157.06 584.171 1157.44 583.32C1157.83 582.431 1158.02 581.522 1158.02 580.594C1158.02 578.583 1157.44 577.153 1156.28 576.302C1155.12 575.451 1153.71 575.026 1152.05 575.026C1150.97 575.026 1149.96 575.181 1149.03 575.49C1148.11 575.799 1147.27 576.167 1146.54 576.592C1145.84 577.017 1145.22 577.462 1144.68 577.926C1144.14 578.351 1143.74 578.699 1143.47 578.97L1139.99 574.04C1141.61 572.493 1143.5 571.256 1145.67 570.328C1147.87 569.361 1150.23 568.878 1152.75 568.878C1157.04 568.878 1160.19 569.903 1162.2 571.952C1164.25 573.963 1165.27 576.727 1165.27 580.246Z" fill="#60195E"/>
</svg>
