<svg width="2645" height="1435" viewBox="0 0 2645 1435" fill="none" xmlns="http://www.w3.org/2000/svg">
<rect width="2645" height="1435" fill="white"/>
<path d="M131 1038.5H1202C1211.67 1038.5 1219.5 1046.34 1219.5 1056V1235.96C1219.5 1245.63 1211.67 1253.46 1202 1253.46H131C121.335 1253.46 113.5 1245.63 113.5 1235.96V1056C113.5 1046.34 121.335 1038.5 131 1038.5Z" fill="#C4C4C4" stroke="#C4C4C4" stroke-width="5"/>
<path d="M521 1060.5H820C829.665 1060.5 837.5 1068.34 837.5 1078V1214C837.5 1223.66 829.665 1231.5 820 1231.5H521C511.335 1231.5 503.5 1223.66 503.5 1214V1078C503.5 1068.34 511.335 1060.5 521 1060.5Z" fill="#E6E6E6" stroke="#60195E" stroke-width="5"/>
<path d="M886 1060.5H1184C1193.66 1060.5 1201.5 1068.34 1201.5 1078V1214C1201.5 1223.66 1193.66 1231.5 1184 1231.5H886C876.335 1231.5 868.5 1223.66 868.5 1214V1078C868.5 1068.34 876.335 1060.5 886 1060.5Z" fill="#E6E6E6" stroke="#60195E" stroke-width="5"/>
<path d="M157 1060.5H455C464.665 1060.5 472.5 1068.34 472.5 1078V1214C472.5 1223.66 464.665 1231.5 455 1231.5H157C147.335 1231.5 139.5 1223.66 139.5 1214V1078C139.5 1068.34 147.335 1060.5 157 1060.5Z" fill="#E6E6E6" stroke="#60195E" stroke-width="5"/>
<path d="M309.069 1128.68V1173H303.469V1135.67L292.177 1139.79V1134.73L308.191 1128.68H309.069Z" fill="#60195E"/>
<path d="M674.069 1126.68V1171H668.469V1133.67L657.177 1137.79V1132.73L673.191 1126.68H674.069Z" fill="#60195E"/>
<path d="M1038.07 1171H1032.44V1133.67L1021.15 1137.82V1132.73L1037.19 1126.71H1038.07V1171Z" fill="#60195E"/>
<path d="M131 661.5H1202C1211.67 661.5 1219.5 669.335 1219.5 679V858.963C1219.5 868.628 1211.67 876.463 1202 876.463H131C121.335 876.463 113.5 868.628 113.5 858.963V679C113.5 669.335 121.335 661.5 131 661.5Z" fill="#C4C4C4" stroke="#C4C4C4" stroke-width="5"/>
<path d="M521 683.5H820C829.665 683.5 837.5 691.335 837.5 701V837C837.5 846.665 829.665 854.5 820 854.5H521C511.335 854.5 503.5 846.665 503.5 837V701C503.5 691.335 511.335 683.5 521 683.5Z" fill="#E6E6E6" stroke="#60195E" stroke-width="5"/>
<path d="M886 683.5H1184C1193.66 683.5 1201.5 691.335 1201.5 701V837C1201.5 846.665 1193.66 854.5 1184 854.5H886C876.335 854.5 868.5 846.665 868.5 837V701C868.5 691.335 876.335 683.5 886 683.5Z" fill="#E6E6E6" stroke="#60195E" stroke-width="5"/>
<path d="M157 683.5H455C464.665 683.5 472.5 691.335 472.5 701V837C472.5 846.665 464.665 854.5 455 854.5H157C147.335 854.5 139.5 846.665 139.5 837V701C139.5 691.335 147.335 683.5 157 683.5Z" fill="#E6E6E6" stroke="#60195E" stroke-width="5"/>
<path d="M309.069 751.68V796H303.469V758.673L292.177 762.79V757.734L308.191 751.68H309.069Z" fill="#60195E"/>
<path d="M674.069 749.68V794H668.469V756.673L657.177 760.79V755.734L673.191 749.68H674.069Z" fill="#60195E"/>
<path d="M1038.07 794H1032.44V756.673L1021.15 760.82V755.734L1037.19 749.71H1038.07V794Z" fill="#60195E"/>
<path d="M1431 661.5H2502C2511.67 661.5 2519.5 669.335 2519.5 679V858.963C2519.5 868.628 2511.67 876.463 2502 876.463H1431C1421.34 876.463 1413.5 868.628 1413.5 858.963V679C1413.5 669.335 1421.34 661.5 1431 661.5Z" fill="#C4C4C4" stroke="#C4C4C4" stroke-width="5"/>
<path d="M2099 683.5H2476C2485.66 683.5 2493.5 691.335 2493.5 701V836C2493.5 845.665 2485.66 853.5 2476 853.5H2099C2089.34 853.5 2081.5 845.665 2081.5 836V701C2081.5 691.335 2089.34 683.5 2099 683.5Z" fill="#E6E6E6" stroke="#60195E" stroke-width="5"/>
<path d="M1457 683.5H1832C1841.66 683.5 1849.5 691.335 1849.5 701V837C1849.5 846.665 1841.66 854.5 1832 854.5H1457C1447.34 854.5 1439.5 846.665 1439.5 837V701C1439.5 691.335 1447.34 683.5 1457 683.5Z" fill="#E6E6E6" stroke="#60195E" stroke-width="5"/>
<path d="M1894 683.5H2032.95C2042.62 683.5 2050.45 691.335 2050.45 701V836.225C2050.45 845.89 2042.62 853.725 2032.95 853.725H1894C1884.34 853.725 1876.5 845.89 1876.5 836.225V701C1876.5 691.335 1884.34 683.5 1894 683.5Z" fill="#E6E6E6" stroke="#60195E" stroke-width="5"/>
<path d="M1647.07 794H1641.44V756.673L1630.15 760.82V755.734L1646.19 749.71H1647.07V794Z" fill="#60195E"/>
<path d="M1958.81 769.236H1963.01C1965.66 769.196 1967.74 768.5 1969.25 767.147C1970.76 765.795 1971.52 763.969 1971.52 761.668C1971.52 756.501 1968.95 753.918 1963.8 753.918C1961.38 753.918 1959.44 754.614 1957.99 756.007C1956.56 757.379 1955.84 759.206 1955.84 761.486H1950.24C1950.24 757.995 1951.51 755.099 1954.05 752.798C1956.62 750.477 1959.87 749.316 1963.8 749.316C1967.96 749.316 1971.22 750.416 1973.58 752.616C1975.94 754.816 1977.12 757.874 1977.12 761.789C1977.12 763.706 1976.5 765.563 1975.25 767.359C1974.01 769.156 1972.33 770.498 1970.19 771.386C1972.61 772.153 1974.48 773.424 1975.79 775.2C1977.12 776.976 1977.79 779.146 1977.79 781.709C1977.79 785.665 1976.5 788.803 1973.91 791.124C1971.33 793.445 1967.97 794.605 1963.83 794.605C1959.69 794.605 1956.32 793.485 1953.72 791.245C1951.14 789.005 1949.85 786.048 1949.85 782.375H1955.48C1955.48 784.696 1956.23 786.553 1957.75 787.945C1959.26 789.338 1961.29 790.034 1963.83 790.034C1966.54 790.034 1968.61 789.328 1970.04 787.915C1971.47 786.502 1972.19 784.474 1972.19 781.83C1972.19 779.267 1971.4 777.299 1969.83 775.927C1968.25 774.554 1965.98 773.848 1963.01 773.808H1958.81V769.236Z" fill="#60195E"/>
<path d="M2290.07 794H2284.44V756.673L2273.15 760.82V755.734L2289.19 749.71H2290.07V794Z" fill="#60195E"/>
<path d="M1428 1038.5H2499C2508.67 1038.5 2516.5 1046.34 2516.5 1056V1235.96C2516.5 1245.63 2508.67 1253.46 2499 1253.46H1428C1418.34 1253.46 1410.5 1245.63 1410.5 1235.96V1056C1410.5 1046.34 1418.34 1038.5 1428 1038.5Z" fill="#C4C4C4" stroke="#C4C4C4" stroke-width="5"/>
<path d="M1460 1062.5H1728C1737.66 1062.5 1745.5 1070.34 1745.5 1080V1215C1745.5 1224.66 1737.66 1232.5 1728 1232.5H1460C1450.34 1232.5 1442.5 1224.66 1442.5 1215V1080C1442.5 1070.34 1450.34 1062.5 1460 1062.5Z" fill="#E6E6E6" stroke="#60195E" stroke-width="5"/>
<path d="M1990 1061.5H2277C2286.67 1061.5 2294.5 1069.34 2294.5 1079V1214C2294.5 1223.66 2286.66 1231.5 2277 1231.5H1990C1980.34 1231.5 1972.5 1223.66 1972.5 1214V1079C1972.5 1069.34 1980.34 1061.5 1990 1061.5Z" fill="#E6E6E6" stroke="#60195E" stroke-width="5"/>
<path d="M1788 1060.5H1926.95C1936.62 1060.5 1944.45 1068.34 1944.45 1078V1213.22C1944.45 1222.89 1936.62 1230.72 1926.95 1230.72H1788C1778.34 1230.72 1770.5 1222.89 1770.5 1213.22V1078C1770.5 1068.34 1778.34 1060.5 1788 1060.5Z" fill="#E6E6E6" stroke="#60195E" stroke-width="5"/>
<path d="M2337 1059.5H2475.95C2485.62 1059.5 2493.45 1067.34 2493.45 1077V1212.22C2493.45 1221.89 2485.62 1229.72 2475.95 1229.72H2337C2327.34 1229.72 2319.5 1221.89 2319.5 1212.22V1077C2319.5 1067.34 2327.34 1059.5 2337 1059.5Z" fill="#E6E6E6" stroke="#60195E" stroke-width="5"/>
<path d="M1597.07 1173H1591.44V1135.67L1580.15 1139.82V1134.73L1596.19 1128.71H1597.07V1173Z" fill="#60195E"/>
<path d="M2146.07 1172H2140.44V1134.67L2129.15 1138.82V1133.73L2145.19 1127.71H2146.07V1172Z" fill="#60195E"/>
<path d="M1874.54 1171H1845.66V1166.97L1860.92 1150.02C1863.18 1147.46 1864.74 1145.38 1865.58 1143.78C1866.45 1142.17 1866.88 1140.5 1866.88 1138.79C1866.88 1136.49 1866.19 1134.6 1864.8 1133.13C1863.4 1131.65 1861.55 1130.92 1859.23 1130.92C1856.44 1130.92 1854.27 1131.72 1852.72 1133.31C1851.18 1134.88 1850.42 1137.08 1850.42 1139.91H1844.82C1844.82 1135.85 1846.12 1132.57 1848.72 1130.07C1851.34 1127.57 1854.85 1126.32 1859.23 1126.32C1863.32 1126.32 1866.56 1127.4 1868.94 1129.56C1871.32 1131.69 1872.52 1134.55 1872.52 1138.12C1872.52 1142.46 1869.75 1147.63 1864.22 1153.62L1852.41 1166.43H1874.54V1171Z" fill="#60195E"/>
<path d="M2423.54 1170H2394.66V1165.97L2409.92 1149.02C2412.18 1146.46 2413.74 1144.38 2414.58 1142.78C2415.45 1141.17 2415.88 1139.5 2415.88 1137.79C2415.88 1135.49 2415.19 1133.6 2413.8 1132.13C2412.4 1130.65 2410.55 1129.92 2408.23 1129.92C2405.44 1129.92 2403.27 1130.72 2401.72 1132.31C2400.18 1133.88 2399.42 1136.08 2399.42 1138.91H2393.82C2393.82 1134.85 2395.12 1131.57 2397.72 1129.07C2400.34 1126.57 2403.85 1125.32 2408.23 1125.32C2412.32 1125.32 2415.56 1126.4 2417.94 1128.56C2420.32 1130.69 2421.52 1133.55 2421.52 1137.12C2421.52 1141.46 2418.75 1146.63 2413.22 1152.62L2401.41 1165.43H2423.54V1170Z" fill="#60195E"/>
<path d="M131.384 191.474C134.52 191.474 136.807 191.115 138.244 190.396C139.681 189.612 140.4 188.305 140.4 186.476C140.4 184.777 139.616 183.373 138.048 182.262C136.545 181.151 134.03 179.943 130.502 178.636C128.346 177.852 126.353 177.035 124.524 176.186C122.76 175.271 121.225 174.226 119.918 173.05C118.611 171.874 117.566 170.469 116.782 168.836C116.063 167.137 115.704 165.079 115.704 162.662C115.704 157.958 117.435 154.267 120.898 151.588C124.361 148.844 129.065 147.472 135.01 147.472C138.015 147.472 140.89 147.766 143.634 148.354C146.378 148.877 148.436 149.399 149.808 149.922L147.652 159.526C146.345 158.938 144.679 158.415 142.654 157.958C140.629 157.435 138.277 157.174 135.598 157.174C133.181 157.174 131.221 157.599 129.718 158.448C128.215 159.232 127.464 160.473 127.464 162.172C127.464 163.021 127.595 163.773 127.856 164.426C128.183 165.079 128.705 165.7 129.424 166.288C130.143 166.811 131.09 167.366 132.266 167.954C133.442 168.477 134.879 169.032 136.578 169.62C139.387 170.665 141.772 171.711 143.732 172.756C145.692 173.736 147.293 174.879 148.534 176.186C149.841 177.427 150.788 178.865 151.376 180.498C151.964 182.131 152.258 184.091 152.258 186.378C152.258 191.278 150.429 195.002 146.77 197.55C143.177 200.033 138.015 201.274 131.286 201.274C126.778 201.274 123.152 200.882 120.408 200.098C117.664 199.379 115.737 198.791 114.626 198.334L116.684 188.436C118.448 189.155 120.539 189.841 122.956 190.494C125.439 191.147 128.248 191.474 131.384 191.474ZM163.335 200V125.912L175.193 123.952V149.334C176.5 148.877 178.002 148.485 179.701 148.158C181.465 147.831 183.196 147.668 184.895 147.668C189.011 147.668 192.408 148.256 195.087 149.432C197.831 150.543 200.02 152.143 201.653 154.234C203.286 156.259 204.43 158.709 205.083 161.584C205.802 164.459 206.161 167.66 206.161 171.188V200H194.303V173.05C194.303 170.306 194.107 167.987 193.715 166.092C193.388 164.132 192.8 162.564 191.951 161.388C191.167 160.147 190.089 159.265 188.717 158.742C187.345 158.154 185.646 157.86 183.621 157.86C182.053 157.86 180.452 158.023 178.819 158.35C177.186 158.677 175.977 158.971 175.193 159.232V200H163.335ZM249.578 159.428C248.598 159.101 247.226 158.775 245.462 158.448C243.763 158.056 241.771 157.86 239.484 157.86C238.177 157.86 236.773 157.991 235.27 158.252C233.833 158.513 232.82 158.742 232.232 158.938V200H220.374V151.196C222.661 150.347 225.503 149.563 228.9 148.844C232.363 148.06 236.185 147.668 240.366 147.668C241.15 147.668 242.065 147.733 243.11 147.864C244.155 147.929 245.201 148.06 246.246 148.256C247.291 148.387 248.304 148.583 249.284 148.844C250.264 149.04 251.048 149.236 251.636 149.432L249.578 159.428ZM271.856 200H259.998V148.746H271.856V200ZM273.13 133.752C273.13 135.973 272.411 137.737 270.974 139.044C269.536 140.351 267.838 141.004 265.878 141.004C263.852 141.004 262.121 140.351 260.684 139.044C259.246 137.737 258.528 135.973 258.528 133.752C258.528 131.465 259.246 129.669 260.684 128.362C262.121 127.055 263.852 126.402 265.878 126.402C267.838 126.402 269.536 127.055 270.974 128.362C272.411 129.669 273.13 131.465 273.13 133.752ZM286.984 150.412C289.27 149.759 292.243 149.138 295.902 148.55C299.56 147.962 303.611 147.668 308.054 147.668C312.235 147.668 315.73 148.256 318.54 149.432C321.349 150.543 323.57 152.143 325.204 154.234C326.902 156.259 328.078 158.742 328.732 161.682C329.45 164.557 329.809 167.725 329.809 171.188V200H317.952V173.05C317.952 170.306 317.756 167.987 317.364 166.092C317.037 164.132 316.449 162.564 315.6 161.388C314.816 160.147 313.705 159.265 312.268 158.742C310.896 158.154 309.197 157.86 307.172 157.86C305.669 157.86 304.101 157.958 302.468 158.154C300.834 158.35 299.626 158.513 298.842 158.644V200H286.984V150.412ZM356.168 168.738C357.67 167.17 359.271 165.504 360.97 163.74C362.668 161.911 364.334 160.114 365.968 158.35C367.601 156.521 369.136 154.789 370.574 153.156C372.076 151.457 373.35 149.987 374.396 148.746H388.41C385.143 152.405 381.68 156.194 378.022 160.114C374.428 164.034 370.802 167.856 367.144 171.58C369.104 173.213 371.162 175.206 373.318 177.558C375.474 179.845 377.564 182.295 379.59 184.908C381.615 187.521 383.51 190.135 385.274 192.748C387.038 195.361 388.508 197.779 389.684 200H375.964C374.788 197.975 373.416 195.851 371.848 193.63C370.345 191.409 368.712 189.253 366.948 187.162C365.184 185.071 363.387 183.111 361.558 181.282C359.728 179.387 357.932 177.787 356.168 176.48V200H344.31V125.912L356.168 123.952V168.738Z" fill="#60195E"/>
<path d="M112.544 269.696L120.288 268.416V278.528H132.192V284.992H120.288V298.624C120.288 301.312 120.715 303.232 121.568 304.384C122.421 305.536 123.872 306.112 125.92 306.112C127.328 306.112 128.565 305.963 129.632 305.664C130.741 305.365 131.616 305.088 132.256 304.832L133.536 310.976C132.64 311.36 131.467 311.744 130.016 312.128C128.565 312.555 126.859 312.768 124.896 312.768C122.507 312.768 120.501 312.448 118.88 311.808C117.301 311.168 116.043 310.251 115.104 309.056C114.165 307.819 113.504 306.347 113.12 304.64C112.736 302.891 112.544 300.907 112.544 298.688V269.696ZM167.006 278.528C163.55 291.243 159.539 302.763 154.974 313.088C154.121 315.008 153.246 316.651 152.35 318.016C151.454 319.381 150.451 320.512 149.342 321.408C148.233 322.304 146.995 322.944 145.63 323.328C144.265 323.755 142.686 323.968 140.894 323.968C139.699 323.968 138.505 323.84 137.31 323.584C136.158 323.328 135.283 323.051 134.686 322.752L136.094 316.544C137.63 317.141 139.145 317.44 140.638 317.44C142.643 317.44 144.201 316.949 145.31 315.968C146.462 315.029 147.465 313.557 148.318 311.552C145.886 306.859 143.539 301.739 141.278 296.192C139.059 290.645 137.075 284.757 135.326 278.528H143.582C144.009 280.32 144.521 282.261 145.118 284.352C145.758 286.443 146.441 288.576 147.166 290.752C147.891 292.885 148.659 295.019 149.47 297.152C150.281 299.285 151.091 301.269 151.902 303.104C153.267 299.307 154.547 295.275 155.742 291.008C156.937 286.699 158.025 282.539 159.006 278.528H167.006ZM195.074 295.424C195.074 291.968 194.284 289.28 192.706 287.36C191.17 285.44 188.674 284.48 185.218 284.48C184.492 284.48 183.724 284.523 182.914 284.608C182.146 284.651 181.378 284.779 180.61 284.992V304.128C181.292 304.597 182.188 305.045 183.298 305.472C184.45 305.856 185.666 306.048 186.946 306.048C189.762 306.048 191.81 305.088 193.09 303.168C194.412 301.248 195.074 298.667 195.074 295.424ZM203.01 295.296C203.01 297.856 202.668 300.203 201.986 302.336C201.346 304.469 200.407 306.304 199.17 307.84C197.932 309.376 196.375 310.571 194.498 311.424C192.663 312.277 190.572 312.704 188.226 312.704C186.647 312.704 185.196 312.512 183.874 312.128C182.551 311.744 181.463 311.317 180.61 310.848V323.84H172.866V279.616C174.444 279.189 176.386 278.784 178.69 278.4C180.994 278.016 183.426 277.824 185.986 277.824C188.631 277.824 190.999 278.229 193.09 279.04C195.18 279.851 196.951 281.024 198.402 282.56C199.895 284.053 201.026 285.888 201.794 288.064C202.604 290.197 203.01 292.608 203.01 295.296ZM209.135 295.424C209.135 292.48 209.561 289.899 210.415 287.68C211.311 285.461 212.484 283.627 213.935 282.176C215.385 280.683 217.049 279.573 218.927 278.848C220.804 278.08 222.724 277.696 224.687 277.696C229.295 277.696 232.879 279.125 235.439 281.984C238.041 284.843 239.343 289.109 239.343 294.784C239.343 295.211 239.321 295.701 239.279 296.256C239.279 296.768 239.257 297.237 239.215 297.664H217.135C217.348 300.352 218.287 302.443 219.951 303.936C221.657 305.387 224.111 306.112 227.311 306.112C229.188 306.112 230.895 305.941 232.431 305.6C234.009 305.259 235.247 304.896 236.143 304.512L237.167 310.848C236.74 311.061 236.143 311.296 235.375 311.552C234.649 311.765 233.796 311.957 232.815 312.128C231.876 312.341 230.852 312.512 229.743 312.64C228.633 312.768 227.503 312.832 226.351 312.832C223.407 312.832 220.847 312.405 218.671 311.552C216.495 310.656 214.703 309.44 213.295 307.904C211.887 306.325 210.841 304.491 210.159 302.4C209.476 300.267 209.135 297.941 209.135 295.424ZM231.599 291.968C231.599 290.901 231.449 289.899 231.151 288.96C230.852 287.979 230.404 287.147 229.807 286.464C229.252 285.739 228.548 285.184 227.695 284.8C226.884 284.373 225.903 284.16 224.751 284.16C223.556 284.16 222.511 284.395 221.615 284.864C220.719 285.291 219.951 285.867 219.311 286.592C218.713 287.317 218.244 288.149 217.903 289.088C217.561 290.027 217.327 290.987 217.199 291.968H231.599ZM256.257 283.84C256.257 285.333 255.745 286.549 254.721 287.488C253.74 288.427 252.545 288.896 251.137 288.896C249.686 288.896 248.47 288.427 247.489 287.488C246.508 286.549 246.017 285.333 246.017 283.84C246.017 282.347 246.508 281.131 247.489 280.192C248.47 279.211 249.686 278.72 251.137 278.72C252.545 278.72 253.74 279.211 254.721 280.192C255.745 281.131 256.257 282.347 256.257 283.84ZM256.257 307.776C256.257 309.269 255.745 310.485 254.721 311.424C253.74 312.363 252.545 312.832 251.137 312.832C249.686 312.832 248.47 312.363 247.489 311.424C246.508 310.485 246.017 309.269 246.017 307.776C246.017 306.283 246.508 305.067 247.489 304.128C248.47 303.147 249.686 302.656 251.137 302.656C252.545 302.656 253.74 303.147 254.721 304.128C255.745 305.067 256.257 306.283 256.257 307.776ZM293.251 262.336C294.872 262.336 296.237 262.464 297.347 262.72C298.499 262.976 299.395 263.232 300.035 263.488L298.819 269.76C298.221 269.547 297.496 269.355 296.643 269.184C295.832 269.013 294.936 268.928 293.955 268.928C291.395 268.928 289.624 269.611 288.643 270.976C287.704 272.341 287.235 274.112 287.235 276.288V278.528H299.523V284.992H287.235V312H279.491V276.16C279.491 271.808 280.621 268.416 282.883 265.984C285.144 263.552 288.6 262.336 293.251 262.336ZM317.123 312.64C314.819 312.597 312.899 312.341 311.363 311.872C309.869 311.403 308.675 310.741 307.779 309.888C306.883 308.992 306.243 307.904 305.859 306.624C305.517 305.301 305.347 303.808 305.347 302.144V263.616L313.091 262.336V300.672C313.091 301.611 313.155 302.4 313.283 303.04C313.453 303.68 313.731 304.235 314.115 304.704C314.499 305.131 315.011 305.472 315.651 305.728C316.333 305.941 317.187 306.112 318.211 306.24L317.123 312.64ZM322.635 295.424C322.635 292.48 323.061 289.899 323.915 287.68C324.811 285.461 325.984 283.627 327.435 282.176C328.885 280.683 330.549 279.573 332.427 278.848C334.304 278.08 336.224 277.696 338.187 277.696C342.795 277.696 346.379 279.125 348.939 281.984C351.541 284.843 352.843 289.109 352.843 294.784C352.843 295.211 352.821 295.701 352.779 296.256C352.779 296.768 352.757 297.237 352.715 297.664H330.635C330.848 300.352 331.787 302.443 333.451 303.936C335.157 305.387 337.611 306.112 340.811 306.112C342.688 306.112 344.395 305.941 345.931 305.6C347.509 305.259 348.747 304.896 349.643 304.512L350.667 310.848C350.24 311.061 349.643 311.296 348.875 311.552C348.149 311.765 347.296 311.957 346.315 312.128C345.376 312.341 344.352 312.512 343.243 312.64C342.133 312.768 341.003 312.832 339.851 312.832C336.907 312.832 334.347 312.405 332.171 311.552C329.995 310.656 328.203 309.44 326.795 307.904C325.387 306.325 324.341 304.491 323.659 302.4C322.976 300.267 322.635 297.941 322.635 295.424ZM345.099 291.968C345.099 290.901 344.949 289.899 344.651 288.96C344.352 287.979 343.904 287.147 343.307 286.464C342.752 285.739 342.048 285.184 341.195 284.8C340.384 284.373 339.403 284.16 338.251 284.16C337.056 284.16 336.011 284.395 335.115 284.864C334.219 285.291 333.451 285.867 332.811 286.592C332.213 287.317 331.744 288.149 331.403 289.088C331.061 290.027 330.827 290.987 330.699 291.968H345.099ZM373.085 289.472L380.189 278.528H388.317L377.309 294.336C379.613 297.323 381.81 300.352 383.901 303.424C386.034 306.453 387.784 309.312 389.149 312H380.765C380.381 311.189 379.869 310.272 379.229 309.248C378.632 308.181 377.97 307.093 377.245 305.984C376.562 304.832 375.837 303.701 375.069 302.592C374.301 301.483 373.554 300.437 372.829 299.456C371.336 301.376 369.864 303.509 368.413 305.856C367.005 308.16 365.832 310.208 364.893 312H356.957C357.597 310.72 358.365 309.355 359.261 307.904C360.157 306.453 361.117 304.981 362.141 303.488C363.165 301.952 364.21 300.437 365.277 298.944C366.386 297.408 367.474 295.957 368.541 294.592L357.469 278.528H365.981L373.085 289.472Z" fill="#60195E"/>
<path d="M114.072 369.424C114.072 366.48 114.499 363.899 115.352 361.68C116.248 359.461 117.421 357.627 118.872 356.176C120.323 354.683 121.987 353.573 123.864 352.848C125.741 352.08 127.661 351.696 129.624 351.696C134.232 351.696 137.816 353.125 140.376 355.984C142.979 358.843 144.28 363.109 144.28 368.784C144.28 369.211 144.259 369.701 144.216 370.256C144.216 370.768 144.195 371.237 144.152 371.664H122.072C122.285 374.352 123.224 376.443 124.888 377.936C126.595 379.387 129.048 380.112 132.248 380.112C134.125 380.112 135.832 379.941 137.368 379.6C138.947 379.259 140.184 378.896 141.08 378.512L142.104 384.848C141.677 385.061 141.08 385.296 140.312 385.552C139.587 385.765 138.733 385.957 137.752 386.128C136.813 386.341 135.789 386.512 134.68 386.64C133.571 386.768 132.44 386.832 131.288 386.832C128.344 386.832 125.784 386.405 123.608 385.552C121.432 384.656 119.64 383.44 118.232 381.904C116.824 380.325 115.779 378.491 115.096 376.4C114.413 374.267 114.072 371.941 114.072 369.424ZM136.536 365.968C136.536 364.901 136.387 363.899 136.088 362.96C135.789 361.979 135.341 361.147 134.744 360.464C134.189 359.739 133.485 359.184 132.632 358.8C131.821 358.373 130.84 358.16 129.688 358.16C128.493 358.16 127.448 358.395 126.552 358.864C125.656 359.291 124.888 359.867 124.248 360.592C123.651 361.317 123.181 362.149 122.84 363.088C122.499 364.027 122.264 364.987 122.136 365.968H136.536ZM158.571 369.424C158.571 372.667 159.211 375.248 160.491 377.168C161.813 379.088 163.883 380.048 166.699 380.048C167.979 380.048 169.173 379.856 170.283 379.472C171.435 379.045 172.352 378.597 173.035 378.128V358.992C172.48 358.864 171.776 358.757 170.923 358.672C170.112 358.544 169.045 358.48 167.723 358.48C164.864 358.48 162.624 359.461 161.003 361.424C159.381 363.344 158.571 366.011 158.571 369.424ZM150.635 369.296C150.635 366.651 151.019 364.261 151.786 362.128C152.597 359.952 153.728 358.117 155.179 356.624C156.672 355.088 158.464 353.915 160.555 353.104C162.645 352.251 165.013 351.824 167.659 351.824C170.304 351.824 172.779 352.016 175.083 352.4C177.387 352.784 179.285 353.189 180.779 353.616V397.84H173.035V384.848C172.139 385.317 171.029 385.744 169.707 386.128C168.427 386.512 166.997 386.704 165.419 386.704C163.029 386.704 160.917 386.299 159.083 385.488C157.248 384.635 155.712 383.44 154.475 381.904C153.237 380.368 152.277 378.533 151.595 376.4C150.955 374.267 150.635 371.899 150.635 369.296ZM218.072 384.976C216.578 385.36 214.637 385.744 212.248 386.128C209.858 386.555 207.234 386.768 204.376 386.768C201.688 386.768 199.426 386.384 197.592 385.616C195.8 384.848 194.349 383.781 193.24 382.416C192.173 381.051 191.405 379.429 190.936 377.552C190.466 375.632 190.232 373.541 190.232 371.28V352.528H197.976V370.064C197.976 373.648 198.488 376.208 199.512 377.744C200.578 379.28 202.413 380.048 205.016 380.048C205.954 380.048 206.936 380.005 207.96 379.92C209.026 379.835 209.816 379.728 210.328 379.6V352.528H218.072V384.976ZM235.736 386H227.992V352.528H235.736V386ZM236.568 342.736C236.568 344.187 236.099 345.339 235.16 346.192C234.221 347.045 233.112 347.472 231.832 347.472C230.509 347.472 229.379 347.045 228.44 346.192C227.501 345.339 227.032 344.187 227.032 342.736C227.032 341.243 227.501 340.069 228.44 339.216C229.379 338.363 230.509 337.936 231.832 337.936C233.112 337.936 234.221 338.363 235.16 339.216C236.099 340.069 236.568 341.243 236.568 342.736ZM254.192 386C252.058 381.605 249.861 376.571 247.6 370.896C245.381 365.179 243.354 359.056 241.52 352.528H249.776C250.245 354.405 250.778 356.432 251.376 358.608C252.016 360.741 252.677 362.896 253.36 365.072C254.085 367.205 254.81 369.296 255.536 371.344C256.304 373.349 257.008 375.163 257.648 376.784C258.288 375.163 258.97 373.349 259.696 371.344C260.421 369.296 261.125 367.205 261.808 365.072C262.533 362.896 263.216 360.741 263.856 358.608C264.496 356.432 265.05 354.405 265.52 352.528H273.52C271.685 359.056 269.637 365.179 267.376 370.896C265.157 376.571 262.981 381.605 260.848 386H254.192ZM291.079 380.56C293.468 380.56 295.282 380.432 296.519 380.176V371.6C296.092 371.472 295.474 371.344 294.663 371.216C293.852 371.088 292.956 371.024 291.975 371.024C291.122 371.024 290.247 371.088 289.351 371.216C288.498 371.344 287.708 371.579 286.983 371.92C286.3 372.261 285.746 372.752 285.319 373.392C284.892 373.989 284.679 374.757 284.679 375.696C284.679 377.531 285.255 378.811 286.407 379.536C287.559 380.219 289.116 380.56 291.079 380.56ZM290.439 351.696C292.999 351.696 295.154 352.016 296.903 352.656C298.652 353.296 300.039 354.192 301.063 355.344C302.13 356.496 302.876 357.904 303.303 359.568C303.772 361.189 304.007 362.981 304.007 364.944V385.232C302.812 385.488 300.999 385.787 298.567 386.128C296.178 386.512 293.468 386.704 290.439 386.704C288.434 386.704 286.599 386.512 284.935 386.128C283.271 385.744 281.842 385.125 280.647 384.272C279.495 383.419 278.578 382.309 277.895 380.944C277.255 379.579 276.935 377.893 276.935 375.888C276.935 373.968 277.298 372.347 278.023 371.024C278.791 369.701 279.815 368.635 281.095 367.824C282.375 366.971 283.847 366.373 285.511 366.032C287.218 365.648 288.988 365.456 290.823 365.456C291.676 365.456 292.572 365.52 293.511 365.648C294.45 365.733 295.452 365.904 296.519 366.16V364.88C296.519 363.984 296.412 363.131 296.199 362.32C295.986 361.509 295.602 360.805 295.047 360.208C294.535 359.568 293.831 359.077 292.935 358.736C292.082 358.395 290.994 358.224 289.671 358.224C287.879 358.224 286.236 358.352 284.743 358.608C283.25 358.864 282.034 359.163 281.095 359.504L280.135 353.232C281.116 352.891 282.546 352.549 284.423 352.208C286.3 351.867 288.306 351.696 290.439 351.696ZM325.139 386.64C322.835 386.597 320.915 386.341 319.379 385.872C317.885 385.403 316.691 384.741 315.795 383.888C314.899 382.992 314.259 381.904 313.875 380.624C313.533 379.301 313.363 377.808 313.363 376.144V337.616L321.107 336.336V374.672C321.107 375.611 321.171 376.4 321.299 377.04C321.469 377.68 321.747 378.235 322.131 378.704C322.515 379.131 323.027 379.472 323.667 379.728C324.349 379.941 325.203 380.112 326.227 380.24L325.139 386.64ZM330.635 369.424C330.635 366.48 331.061 363.899 331.915 361.68C332.811 359.461 333.984 357.627 335.435 356.176C336.885 354.683 338.549 353.573 340.427 352.848C342.304 352.08 344.224 351.696 346.187 351.696C350.795 351.696 354.379 353.125 356.939 355.984C359.541 358.843 360.843 363.109 360.843 368.784C360.843 369.211 360.821 369.701 360.779 370.256C360.779 370.768 360.757 371.237 360.715 371.664H338.635C338.848 374.352 339.787 376.443 341.451 377.936C343.157 379.387 345.611 380.112 348.811 380.112C350.688 380.112 352.395 379.941 353.931 379.6C355.509 379.259 356.747 378.896 357.643 378.512L358.667 384.848C358.24 385.061 357.643 385.296 356.875 385.552C356.149 385.765 355.296 385.957 354.315 386.128C353.376 386.341 352.352 386.512 351.243 386.64C350.133 386.768 349.003 386.832 347.851 386.832C344.907 386.832 342.347 386.405 340.171 385.552C337.995 384.656 336.203 383.44 334.795 381.904C333.387 380.325 332.341 378.491 331.659 376.4C330.976 374.267 330.635 371.941 330.635 369.424ZM353.099 365.968C353.099 364.901 352.949 363.899 352.651 362.96C352.352 361.979 351.904 361.147 351.307 360.464C350.752 359.739 350.048 359.184 349.195 358.8C348.384 358.373 347.403 358.16 346.251 358.16C345.056 358.16 344.011 358.395 343.115 358.864C342.219 359.291 341.451 359.867 340.811 360.592C340.213 361.317 339.744 362.149 339.403 363.088C339.061 364.027 338.827 364.987 338.699 365.968H353.099ZM369.053 353.616C370.546 353.189 372.488 352.784 374.877 352.4C377.266 352.016 379.912 351.824 382.813 351.824C385.544 351.824 387.826 352.208 389.661 352.976C391.496 353.701 392.946 354.747 394.013 356.112C395.122 357.435 395.89 359.056 396.317 360.976C396.786 362.853 397.021 364.923 397.021 367.184V386H389.277V368.4C389.277 366.608 389.149 365.093 388.893 363.856C388.68 362.576 388.296 361.552 387.741 360.784C387.229 359.973 386.504 359.397 385.565 359.056C384.669 358.672 383.56 358.48 382.237 358.48C381.256 358.48 380.232 358.544 379.165 358.672C378.098 358.8 377.309 358.907 376.797 358.992V386H369.053V353.616ZM406.107 343.696L413.851 342.416V352.528H425.755V358.992H413.851V372.624C413.851 375.312 414.277 377.232 415.131 378.384C415.984 379.536 417.435 380.112 419.483 380.112C420.891 380.112 422.128 379.963 423.195 379.664C424.304 379.365 425.179 379.088 425.819 378.832L427.099 384.976C426.203 385.36 425.029 385.744 423.579 386.128C422.128 386.555 420.421 386.768 418.458 386.768C416.069 386.768 414.064 386.448 412.443 385.808C410.864 385.168 409.605 384.251 408.667 383.056C407.728 381.819 407.067 380.347 406.683 378.64C406.299 376.891 406.107 374.907 406.107 372.688V343.696ZM446.322 369.296C446.322 366.821 446.706 364.517 447.474 362.384C448.242 360.208 449.33 358.331 450.738 356.752C452.189 355.173 453.938 353.936 455.986 353.04C458.034 352.144 460.338 351.696 462.898 351.696C466.055 351.696 469.042 352.272 471.858 353.424L470.194 359.76C469.298 359.376 468.274 359.056 467.122 358.8C466.013 358.544 464.818 358.416 463.538 358.416C460.509 358.416 458.205 359.376 456.626 361.296C455.047 363.173 454.258 365.84 454.258 369.296C454.258 372.624 455.005 375.269 456.498 377.232C457.991 379.152 460.509 380.112 464.05 380.112C465.373 380.112 466.674 379.984 467.954 379.728C469.234 379.472 470.343 379.152 471.282 378.768L472.37 385.168C471.517 385.595 470.215 385.979 468.466 386.32C466.759 386.661 464.989 386.832 463.154 386.832C460.295 386.832 457.799 386.405 455.666 385.552C453.575 384.656 451.826 383.44 450.418 381.904C449.053 380.325 448.029 378.469 447.346 376.336C446.663 374.16 446.322 371.813 446.322 369.296ZM486.75 380.432C488.798 380.432 490.291 380.197 491.23 379.728C492.168 379.216 492.638 378.363 492.638 377.168C492.638 376.059 492.126 375.141 491.102 374.416C490.12 373.691 488.478 372.901 486.174 372.048C484.766 371.536 483.464 371.003 482.27 370.448C481.118 369.851 480.115 369.168 479.262 368.4C478.408 367.632 477.726 366.715 477.214 365.648C476.744 364.539 476.51 363.195 476.51 361.616C476.51 358.544 477.64 356.133 479.902 354.384C482.163 352.592 485.235 351.696 489.118 351.696C491.08 351.696 492.958 351.888 494.75 352.272C496.542 352.613 497.886 352.955 498.782 353.296L497.374 359.568C496.52 359.184 495.432 358.843 494.11 358.544C492.787 358.203 491.251 358.032 489.502 358.032C487.923 358.032 486.643 358.309 485.662 358.864C484.68 359.376 484.19 360.187 484.19 361.296C484.19 361.851 484.275 362.341 484.446 362.768C484.659 363.195 485 363.6 485.47 363.984C485.939 364.325 486.558 364.688 487.326 365.072C488.094 365.413 489.032 365.776 490.142 366.16C491.976 366.843 493.534 367.525 494.814 368.208C496.094 368.848 497.139 369.595 497.95 370.448C498.803 371.259 499.422 372.197 499.806 373.264C500.19 374.331 500.382 375.611 500.382 377.104C500.382 380.304 499.187 382.736 496.798 384.4C494.451 386.021 491.08 386.832 486.686 386.832C483.742 386.832 481.374 386.576 479.582 386.064C477.79 385.595 476.531 385.211 475.806 384.912L477.15 378.448C478.302 378.917 479.667 379.365 481.246 379.792C482.867 380.219 484.702 380.432 486.75 380.432ZM516 380.432C518.048 380.432 519.541 380.197 520.48 379.728C521.418 379.216 521.888 378.363 521.888 377.168C521.888 376.059 521.376 375.141 520.352 374.416C519.37 373.691 517.728 372.901 515.424 372.048C514.016 371.536 512.714 371.003 511.52 370.448C510.368 369.851 509.365 369.168 508.512 368.4C507.658 367.632 506.976 366.715 506.464 365.648C505.994 364.539 505.76 363.195 505.76 361.616C505.76 358.544 506.89 356.133 509.152 354.384C511.413 352.592 514.485 351.696 518.368 351.696C520.33 351.696 522.208 351.888 524 352.272C525.792 352.613 527.136 352.955 528.032 353.296L526.624 359.568C525.77 359.184 524.682 358.843 523.36 358.544C522.037 358.203 520.501 358.032 518.752 358.032C517.173 358.032 515.893 358.309 514.912 358.864C513.93 359.376 513.44 360.187 513.44 361.296C513.44 361.851 513.525 362.341 513.696 362.768C513.909 363.195 514.25 363.6 514.72 363.984C515.189 364.325 515.808 364.688 516.576 365.072C517.344 365.413 518.282 365.776 519.392 366.16C521.226 366.843 522.784 367.525 524.064 368.208C525.344 368.848 526.389 369.595 527.2 370.448C528.053 371.259 528.672 372.197 529.056 373.264C529.44 374.331 529.632 375.611 529.632 377.104C529.632 380.304 528.437 382.736 526.048 384.4C523.701 386.021 520.33 386.832 515.936 386.832C512.992 386.832 510.624 386.576 508.832 386.064C507.04 385.595 505.781 385.211 505.056 384.912L506.4 378.448C507.552 378.917 508.917 379.365 510.496 379.792C512.117 380.219 513.952 380.432 516 380.432ZM545.57 357.84C545.57 359.333 545.058 360.549 544.034 361.488C543.052 362.427 541.858 362.896 540.45 362.896C538.999 362.896 537.783 362.427 536.802 361.488C535.82 360.549 535.33 359.333 535.33 357.84C535.33 356.347 535.82 355.131 536.802 354.192C537.783 353.211 538.999 352.72 540.45 352.72C541.858 352.72 543.052 353.211 544.034 354.192C545.058 355.131 545.57 356.347 545.57 357.84ZM545.57 381.776C545.57 383.269 545.058 384.485 544.034 385.424C543.052 386.363 541.858 386.832 540.45 386.832C538.999 386.832 537.783 386.363 536.802 385.424C535.82 384.485 535.33 383.269 535.33 381.776C535.33 380.283 535.82 379.067 536.802 378.128C537.783 377.147 538.999 376.656 540.45 376.656C541.858 376.656 543.052 377.147 544.034 378.128C545.058 379.067 545.57 380.283 545.57 381.776ZM582.563 336.336C584.184 336.336 585.55 336.464 586.659 336.72C587.811 336.976 588.707 337.232 589.347 337.488L588.131 343.76C587.534 343.547 586.808 343.355 585.955 343.184C585.144 343.013 584.248 342.928 583.267 342.928C580.707 342.928 578.936 343.611 577.955 344.976C577.016 346.341 576.547 348.112 576.547 350.288V352.528H588.835V358.992H576.547V386H568.803V350.16C568.803 345.808 569.934 342.416 572.195 339.984C574.456 337.552 577.912 336.336 582.563 336.336ZM606.435 386.64C604.131 386.597 602.211 386.341 600.675 385.872C599.182 385.403 597.987 384.741 597.091 383.888C596.195 382.992 595.555 381.904 595.171 380.624C594.83 379.301 594.659 377.808 594.659 376.144V337.616L602.403 336.336V374.672C602.403 375.611 602.467 376.4 602.595 377.04C602.766 377.68 603.043 378.235 603.427 378.704C603.811 379.131 604.323 379.472 604.963 379.728C605.646 379.941 606.499 380.112 607.523 380.24L606.435 386.64ZM611.947 369.424C611.947 366.48 612.374 363.899 613.227 361.68C614.123 359.461 615.296 357.627 616.747 356.176C618.198 354.683 619.862 353.573 621.739 352.848C623.616 352.08 625.536 351.696 627.499 351.696C632.107 351.696 635.691 353.125 638.251 355.984C640.854 358.843 642.155 363.109 642.155 368.784C642.155 369.211 642.134 369.701 642.091 370.256C642.091 370.768 642.07 371.237 642.027 371.664H619.947C620.16 374.352 621.099 376.443 622.763 377.936C624.47 379.387 626.923 380.112 630.123 380.112C632 380.112 633.707 379.941 635.243 379.6C636.822 379.259 638.059 378.896 638.955 378.512L639.979 384.848C639.552 385.061 638.955 385.296 638.187 385.552C637.462 385.765 636.608 385.957 635.627 386.128C634.688 386.341 633.664 386.512 632.555 386.64C631.446 386.768 630.315 386.832 629.163 386.832C626.219 386.832 623.659 386.405 621.483 385.552C619.307 384.656 617.515 383.44 616.107 381.904C614.699 380.325 613.654 378.491 612.971 376.4C612.288 374.267 611.947 371.941 611.947 369.424ZM634.411 365.968C634.411 364.901 634.262 363.899 633.963 362.96C633.664 361.979 633.216 361.147 632.619 360.464C632.064 359.739 631.36 359.184 630.507 358.8C629.696 358.373 628.715 358.16 627.563 358.16C626.368 358.16 625.323 358.395 624.427 358.864C623.531 359.291 622.763 359.867 622.123 360.592C621.526 361.317 621.056 362.149 620.715 363.088C620.374 364.027 620.139 364.987 620.011 365.968H634.411ZM662.398 363.472L669.502 352.528H677.63L666.622 368.336C668.926 371.323 671.123 374.352 673.214 377.424C675.347 380.453 677.096 383.312 678.462 386H670.078C669.694 385.189 669.182 384.272 668.542 383.248C667.944 382.181 667.283 381.093 666.558 379.984C665.875 378.832 665.15 377.701 664.382 376.592C663.614 375.483 662.867 374.437 662.142 373.456C660.648 375.376 659.176 377.509 657.726 379.856C656.318 382.16 655.144 384.208 654.206 386H646.27C646.91 384.72 647.678 383.355 648.574 381.904C649.47 380.453 650.43 378.981 651.454 377.488C652.478 375.952 653.523 374.437 654.59 372.944C655.699 371.408 656.787 369.957 657.854 368.592L646.782 352.528H655.294L662.398 363.472ZM680.785 364.176H698.001V371.28H680.785V364.176ZM712.812 380.432C714.86 380.432 716.353 380.197 717.292 379.728C718.231 379.216 718.7 378.363 718.7 377.168C718.7 376.059 718.188 375.141 717.164 374.416C716.183 373.691 714.54 372.901 712.236 372.048C710.828 371.536 709.527 371.003 708.332 370.448C707.18 369.851 706.177 369.168 705.324 368.4C704.471 367.632 703.788 366.715 703.276 365.648C702.807 364.539 702.572 363.195 702.572 361.616C702.572 358.544 703.703 356.133 705.964 354.384C708.225 352.592 711.297 351.696 715.18 351.696C717.143 351.696 719.02 351.888 720.812 352.272C722.604 352.613 723.948 352.955 724.844 353.296L723.436 359.568C722.583 359.184 721.495 358.843 720.172 358.544C718.849 358.203 717.313 358.032 715.564 358.032C713.985 358.032 712.705 358.309 711.724 358.864C710.743 359.376 710.252 360.187 710.252 361.296C710.252 361.851 710.337 362.341 710.508 362.768C710.721 363.195 711.063 363.6 711.532 363.984C712.001 364.325 712.62 364.688 713.388 365.072C714.156 365.413 715.095 365.776 716.204 366.16C718.039 366.843 719.596 367.525 720.876 368.208C722.156 368.848 723.201 369.595 724.012 370.448C724.865 371.259 725.484 372.197 725.868 373.264C726.252 374.331 726.444 375.611 726.444 377.104C726.444 380.304 725.249 382.736 722.86 384.4C720.513 386.021 717.143 386.832 712.748 386.832C709.804 386.832 707.436 386.576 705.644 386.064C703.852 385.595 702.593 385.211 701.868 384.912L703.212 378.448C704.364 378.917 705.729 379.365 707.308 379.792C708.929 380.219 710.764 380.432 712.812 380.432ZM733.678 386V337.616L741.422 336.336V352.912C742.275 352.613 743.257 352.357 744.366 352.144C745.518 351.931 746.649 351.824 747.758 351.824C750.446 351.824 752.665 352.208 754.414 352.976C756.206 353.701 757.635 354.747 758.702 356.112C759.769 357.435 760.515 359.035 760.942 360.912C761.411 362.789 761.646 364.88 761.646 367.184V386H753.902V368.4C753.902 366.608 753.774 365.093 753.518 363.856C753.305 362.576 752.921 361.552 752.366 360.784C751.854 359.973 751.15 359.397 750.254 359.056C749.358 358.672 748.249 358.48 746.926 358.48C745.902 358.48 744.857 358.587 743.79 358.8C742.723 359.013 741.934 359.205 741.422 359.376V386H733.678ZM790 359.504C789.36 359.291 788.464 359.077 787.312 358.864C786.203 358.608 784.901 358.48 783.408 358.48C782.555 358.48 781.637 358.565 780.656 358.736C779.717 358.907 779.056 359.056 778.672 359.184V386H770.928V354.128C772.421 353.573 774.277 353.061 776.496 352.592C778.757 352.08 781.253 351.824 783.984 351.824C784.496 351.824 785.093 351.867 785.776 351.952C786.459 351.995 787.141 352.08 787.824 352.208C788.507 352.293 789.168 352.421 789.808 352.592C790.448 352.72 790.96 352.848 791.344 352.976L790 359.504ZM804.549 386H796.805V352.528H804.549V386ZM805.381 342.736C805.381 344.187 804.911 345.339 803.973 346.192C803.034 347.045 801.925 347.472 800.645 347.472C799.322 347.472 798.191 347.045 797.253 346.192C796.314 345.339 795.845 344.187 795.845 342.736C795.845 341.243 796.314 340.069 797.253 339.216C798.191 338.363 799.322 337.936 800.645 337.936C801.925 337.936 803.034 338.363 803.973 339.216C804.911 340.069 805.381 341.243 805.381 342.736ZM814.428 353.616C815.921 353.189 817.863 352.784 820.252 352.4C822.641 352.016 825.287 351.824 828.188 351.824C830.919 351.824 833.201 352.208 835.036 352.976C836.871 353.701 838.321 354.747 839.388 356.112C840.497 357.435 841.265 359.056 841.692 360.976C842.161 362.853 842.396 364.923 842.396 367.184V386H834.652V368.4C834.652 366.608 834.524 365.093 834.268 363.856C834.055 362.576 833.671 361.552 833.116 360.784C832.604 359.973 831.879 359.397 830.94 359.056C830.044 358.672 828.935 358.48 827.612 358.48C826.631 358.48 825.607 358.544 824.54 358.672C823.473 358.8 822.684 358.907 822.172 358.992V386H814.428V353.616ZM859.61 365.584C860.591 364.56 861.636 363.472 862.746 362.32C863.855 361.125 864.943 359.952 866.01 358.8C867.076 357.605 868.079 356.475 869.018 355.408C869.999 354.299 870.831 353.339 871.514 352.528H880.666C878.532 354.917 876.271 357.392 873.882 359.952C871.535 362.512 869.167 365.008 866.778 367.44C868.058 368.507 869.402 369.808 870.81 371.344C872.218 372.837 873.583 374.437 874.906 376.144C876.228 377.851 877.466 379.557 878.618 381.264C879.77 382.971 880.73 384.549 881.498 386H872.538C871.77 384.677 870.874 383.291 869.85 381.84C868.868 380.389 867.802 378.981 866.65 377.616C865.498 376.251 864.324 374.971 863.13 373.776C861.935 372.539 860.762 371.493 859.61 370.64V386H851.866V337.616L859.61 336.336V365.584Z" fill="#60195E"/>
<path d="M142.9 610C141.585 607.796 140.116 605.437 138.492 602.924C136.868 600.372 135.186 597.82 133.446 595.268C131.706 592.677 129.927 590.183 128.11 587.786C126.331 585.35 124.63 583.165 123.006 581.232V610H115.814V569.806H121.788C123.335 571.43 124.997 573.363 126.776 575.606C128.555 577.81 130.333 580.111 132.112 582.508C133.929 584.905 135.669 587.322 137.332 589.758C139.033 592.155 140.541 594.398 141.856 596.486V569.806H149.106V610H142.9ZM174.234 610.87C171.488 610.87 169.13 610.483 167.158 609.71C165.186 608.898 163.542 607.777 162.228 606.346C160.952 604.915 160.004 603.233 159.386 601.3C158.767 599.367 158.458 597.24 158.458 594.92V569.806H165.824V594.224C165.824 596.041 166.017 597.607 166.404 598.922C166.829 600.198 167.409 601.242 168.144 602.054C168.917 602.866 169.806 603.465 170.812 603.852C171.856 604.239 173.016 604.432 174.292 604.432C175.568 604.432 176.728 604.239 177.772 603.852C178.816 603.465 179.705 602.866 180.44 602.054C181.213 601.242 181.793 600.198 182.18 598.922C182.605 597.607 182.818 596.041 182.818 594.224V569.806H190.184V594.92C190.184 597.24 189.855 599.367 189.198 601.3C188.579 603.233 187.612 604.915 186.298 606.346C185.022 607.777 183.378 608.898 181.368 609.71C179.357 610.483 176.979 610.87 174.234 610.87ZM224.933 603.678V610H199.529V569.806H206.837V603.678H224.933ZM255.915 603.678V610H230.511V569.806H237.819V603.678H255.915ZM281.527 592.658C281.527 597.414 282.242 601.88 283.673 606.056C285.103 610.232 287.095 614.041 289.647 617.482L284.717 620.73C281.585 616.979 279.11 612.726 277.293 607.97C275.475 603.175 274.567 598.071 274.567 592.658C274.567 587.245 275.475 582.16 277.293 577.404C279.11 572.609 281.585 568.337 284.717 564.586L289.647 567.834C287.095 571.314 285.103 575.142 283.673 579.318C282.242 583.455 281.527 587.902 281.527 592.658ZM299.847 594.746C299.847 597.839 300.582 600.275 302.051 602.054C303.52 603.794 305.55 604.664 308.141 604.664C309.262 604.664 310.21 604.625 310.983 604.548C311.795 604.432 312.452 604.316 312.955 604.2V586.8C312.336 586.375 311.505 585.988 310.461 585.64C309.456 585.253 308.373 585.06 307.213 585.06C304.661 585.06 302.786 585.93 301.587 587.67C300.427 589.41 299.847 591.769 299.847 594.746ZM319.973 609.072C318.581 609.497 316.822 609.884 314.695 610.232C312.607 610.58 310.403 610.754 308.083 610.754C305.686 610.754 303.54 610.387 301.645 609.652C299.75 608.917 298.126 607.873 296.773 606.52C295.458 605.128 294.434 603.465 293.699 601.532C293.003 599.56 292.655 597.356 292.655 594.92C292.655 592.523 292.945 590.357 293.525 588.424C294.144 586.452 295.033 584.77 296.193 583.378C297.353 581.986 298.764 580.923 300.427 580.188C302.09 579.415 304.004 579.028 306.169 579.028C307.638 579.028 308.934 579.202 310.055 579.55C311.176 579.898 312.143 580.285 312.955 580.71V566.152L319.973 564.992V609.072ZM327.206 594.978C327.206 592.31 327.593 589.971 328.366 587.96C329.178 585.949 330.241 584.287 331.556 582.972C332.871 581.619 334.379 580.613 336.08 579.956C337.781 579.26 339.521 578.912 341.3 578.912C345.476 578.912 348.724 580.207 351.044 582.798C353.403 585.389 354.582 589.255 354.582 594.398C354.582 594.785 354.563 595.229 354.524 595.732C354.524 596.196 354.505 596.621 354.466 597.008H334.456C334.649 599.444 335.5 601.339 337.008 602.692C338.555 604.007 340.778 604.664 343.678 604.664C345.379 604.664 346.926 604.509 348.318 604.2C349.749 603.891 350.87 603.562 351.682 603.214L352.61 608.956C352.223 609.149 351.682 609.362 350.986 609.594C350.329 609.787 349.555 609.961 348.666 610.116C347.815 610.309 346.887 610.464 345.882 610.58C344.877 610.696 343.852 610.754 342.808 610.754C340.14 610.754 337.82 610.367 335.848 609.594C333.876 608.782 332.252 607.68 330.976 606.288C329.7 604.857 328.753 603.195 328.134 601.3C327.515 599.367 327.206 597.259 327.206 594.978ZM347.564 591.846C347.564 590.879 347.429 589.971 347.158 589.12C346.887 588.231 346.481 587.477 345.94 586.858C345.437 586.201 344.799 585.698 344.026 585.35C343.291 584.963 342.402 584.77 341.358 584.77C340.275 584.77 339.328 584.983 338.516 585.408C337.704 585.795 337.008 586.317 336.428 586.974C335.887 587.631 335.461 588.385 335.152 589.236C334.843 590.087 334.63 590.957 334.514 591.846H347.564ZM374.377 564.992C376.001 564.992 377.431 565.147 378.669 565.456C379.906 565.727 380.834 565.978 381.453 566.21L380.119 572.01C379.461 571.701 378.688 571.449 377.799 571.256C376.948 571.063 376.02 570.966 375.015 570.966C373.893 570.966 372.946 571.14 372.173 571.488C371.399 571.797 370.781 572.242 370.317 572.822C369.853 573.402 369.524 574.117 369.331 574.968C369.137 575.78 369.041 576.669 369.041 577.636V579.666H380.061V585.524H369.041V610H362.023V577.52C362.023 573.615 363.047 570.56 365.097 568.356C367.146 566.113 370.239 564.992 374.377 564.992ZM395.917 605.07C398.083 605.07 399.726 604.954 400.847 604.722V596.95C400.461 596.834 399.9 596.718 399.165 596.602C398.431 596.486 397.619 596.428 396.729 596.428C395.956 596.428 395.163 596.486 394.351 596.602C393.578 596.718 392.863 596.931 392.205 597.24C391.587 597.549 391.084 597.994 390.697 598.574C390.311 599.115 390.117 599.811 390.117 600.662C390.117 602.325 390.639 603.485 391.683 604.142C392.727 604.761 394.139 605.07 395.917 605.07ZM395.337 578.912C397.657 578.912 399.61 579.202 401.195 579.782C402.781 580.362 404.037 581.174 404.965 582.218C405.932 583.262 406.609 584.538 406.995 586.046C407.421 587.515 407.633 589.139 407.633 590.918V609.304C406.551 609.536 404.907 609.807 402.703 610.116C400.538 610.464 398.083 610.638 395.337 610.638C393.52 610.638 391.857 610.464 390.349 610.116C388.841 609.768 387.546 609.207 386.463 608.434C385.419 607.661 384.588 606.655 383.969 605.418C383.389 604.181 383.099 602.653 383.099 600.836C383.099 599.096 383.428 597.627 384.085 596.428C384.781 595.229 385.709 594.263 386.869 593.528C388.029 592.755 389.363 592.213 390.871 591.904C392.418 591.556 394.023 591.382 395.685 591.382C396.459 591.382 397.271 591.44 398.121 591.556C398.972 591.633 399.881 591.788 400.847 592.02V590.86C400.847 590.048 400.751 589.275 400.557 588.54C400.364 587.805 400.016 587.167 399.513 586.626C399.049 586.046 398.411 585.601 397.599 585.292C396.826 584.983 395.84 584.828 394.641 584.828C393.017 584.828 391.529 584.944 390.175 585.176C388.822 585.408 387.72 585.679 386.869 585.988L385.999 580.304C386.889 579.995 388.184 579.685 389.885 579.376C391.587 579.067 393.404 578.912 395.337 578.912ZM441.11 609.072C439.756 609.42 437.997 609.768 435.832 610.116C433.666 610.503 431.288 610.696 428.698 610.696C426.262 610.696 424.212 610.348 422.55 609.652C420.926 608.956 419.611 607.989 418.606 606.752C417.639 605.515 416.943 604.045 416.518 602.344C416.092 600.604 415.88 598.709 415.88 596.66V579.666H422.898V595.558C422.898 598.806 423.362 601.126 424.29 602.518C425.256 603.91 426.919 604.606 429.278 604.606C430.128 604.606 431.018 604.567 431.946 604.49C432.912 604.413 433.628 604.316 434.092 604.2V579.666H441.11V609.072ZM460.598 610.58C458.51 610.541 456.77 610.309 455.378 609.884C454.025 609.459 452.942 608.859 452.13 608.086C451.318 607.274 450.738 606.288 450.39 605.128C450.081 603.929 449.926 602.576 449.926 601.068V566.152L456.944 564.992V599.734C456.944 600.585 457.002 601.3 457.118 601.88C457.273 602.46 457.524 602.963 457.872 603.388C458.22 603.775 458.684 604.084 459.264 604.316C459.883 604.509 460.656 604.664 461.584 604.78L460.598 610.58ZM466.913 571.662L473.931 570.502V579.666H484.719V585.524H473.931V597.878C473.931 600.314 474.318 602.054 475.091 603.098C475.864 604.142 477.179 604.664 479.035 604.664C480.311 604.664 481.432 604.529 482.399 604.258C483.404 603.987 484.197 603.736 484.777 603.504L485.937 609.072C485.125 609.42 484.062 609.768 482.747 610.116C481.432 610.503 479.886 610.696 478.107 610.696C475.942 610.696 474.124 610.406 472.655 609.826C471.224 609.246 470.084 608.415 469.233 607.332C468.382 606.211 467.783 604.877 467.435 603.33C467.087 601.745 466.913 599.947 466.913 597.936V571.662ZM501.908 590.222H517.51V596.66H501.908V590.222ZM549.226 564.992C550.85 564.992 552.281 565.147 553.518 565.456C554.756 565.727 555.684 565.978 556.302 566.21L554.968 572.01C554.311 571.701 553.538 571.449 552.648 571.256C551.798 571.063 550.87 570.966 549.864 570.966C548.743 570.966 547.796 571.14 547.022 571.488C546.249 571.797 545.63 572.242 545.166 572.822C544.702 573.402 544.374 574.117 544.18 574.968C543.987 575.78 543.89 576.669 543.89 577.636V579.666H554.91V585.524H543.89V610H536.872V577.52C536.872 573.615 537.897 570.56 539.946 568.356C541.996 566.113 545.089 564.992 549.226 564.992ZM570.767 605.07C572.932 605.07 574.576 604.954 575.697 604.722V596.95C575.31 596.834 574.75 596.718 574.015 596.602C573.28 596.486 572.468 596.428 571.579 596.428C570.806 596.428 570.013 596.486 569.201 596.602C568.428 596.718 567.712 596.931 567.055 597.24C566.436 597.549 565.934 597.994 565.547 598.574C565.16 599.115 564.967 599.811 564.967 600.662C564.967 602.325 565.489 603.485 566.533 604.142C567.577 604.761 568.988 605.07 570.767 605.07ZM570.187 578.912C572.507 578.912 574.46 579.202 576.045 579.782C577.63 580.362 578.887 581.174 579.815 582.218C580.782 583.262 581.458 584.538 581.845 586.046C582.27 587.515 582.483 589.139 582.483 590.918V609.304C581.4 609.536 579.757 609.807 577.553 610.116C575.388 610.464 572.932 610.638 570.187 610.638C568.37 610.638 566.707 610.464 565.199 610.116C563.691 609.768 562.396 609.207 561.313 608.434C560.269 607.661 559.438 606.655 558.819 605.418C558.239 604.181 557.949 602.653 557.949 600.836C557.949 599.096 558.278 597.627 558.935 596.428C559.631 595.229 560.559 594.263 561.719 593.528C562.879 592.755 564.213 592.213 565.721 591.904C567.268 591.556 568.872 591.382 570.535 591.382C571.308 591.382 572.12 591.44 572.971 591.556C573.822 591.633 574.73 591.788 575.697 592.02V590.86C575.697 590.048 575.6 589.275 575.407 588.54C575.214 587.805 574.866 587.167 574.363 586.626C573.899 586.046 573.261 585.601 572.449 585.292C571.676 584.983 570.69 584.828 569.491 584.828C567.867 584.828 566.378 584.944 565.025 585.176C563.672 585.408 562.57 585.679 561.719 585.988L560.849 580.304C561.738 579.995 563.034 579.685 564.735 579.376C566.436 579.067 568.254 578.912 570.187 578.912ZM601.633 610.58C599.545 610.541 597.805 610.309 596.413 609.884C595.06 609.459 593.977 608.859 593.165 608.086C592.353 607.274 591.773 606.288 591.425 605.128C591.116 603.929 590.961 602.576 590.961 601.068V566.152L597.979 564.992V599.734C597.979 600.585 598.037 601.3 598.153 601.88C598.308 602.46 598.559 602.963 598.907 603.388C599.255 603.775 599.719 604.084 600.299 604.316C600.918 604.509 601.691 604.664 602.619 604.78L601.633 610.58ZM618.852 610.58C616.764 610.541 615.024 610.309 613.632 609.884C612.279 609.459 611.196 608.859 610.384 608.086C609.572 607.274 608.992 606.288 608.644 605.128C608.335 603.929 608.18 602.576 608.18 601.068V566.152L615.198 564.992V599.734C615.198 600.585 615.256 601.3 615.372 601.88C615.527 602.46 615.778 602.963 616.126 603.388C616.474 603.775 616.938 604.084 617.518 604.316C618.137 604.509 618.91 604.664 619.838 604.78L618.852 610.58ZM633.113 604.954C634.969 604.954 636.322 604.741 637.173 604.316C638.023 603.852 638.449 603.079 638.449 601.996C638.449 600.991 637.985 600.159 637.057 599.502C636.167 598.845 634.679 598.129 632.591 597.356C631.315 596.892 630.135 596.409 629.053 595.906C628.009 595.365 627.1 594.746 626.327 594.05C625.553 593.354 624.935 592.523 624.471 591.556C624.045 590.551 623.833 589.333 623.833 587.902C623.833 585.118 624.857 582.933 626.907 581.348C628.956 579.724 631.74 578.912 635.259 578.912C637.037 578.912 638.739 579.086 640.363 579.434C641.987 579.743 643.205 580.053 644.017 580.362L642.741 586.046C641.967 585.698 640.981 585.389 639.783 585.118C638.584 584.809 637.192 584.654 635.607 584.654C634.176 584.654 633.016 584.905 632.127 585.408C631.237 585.872 630.793 586.607 630.793 587.612C630.793 588.115 630.87 588.559 631.025 588.946C631.218 589.333 631.527 589.7 631.953 590.048C632.378 590.357 632.939 590.686 633.635 591.034C634.331 591.343 635.181 591.672 636.187 592.02C637.849 592.639 639.261 593.257 640.421 593.876C641.581 594.456 642.528 595.133 643.263 595.906C644.036 596.641 644.597 597.491 644.945 598.458C645.293 599.425 645.467 600.585 645.467 601.938C645.467 604.838 644.384 607.042 642.219 608.55C640.092 610.019 637.037 610.754 633.055 610.754C630.387 610.754 628.241 610.522 626.617 610.058C624.993 609.633 623.852 609.285 623.195 609.014L624.413 603.156C625.457 603.581 626.694 603.987 628.125 604.374C629.594 604.761 631.257 604.954 633.113 604.954ZM685.686 594.746C685.686 591.769 685.086 589.41 683.888 587.67C682.728 585.93 680.872 585.06 678.32 585.06C677.16 585.06 676.058 585.234 675.014 585.582C674.008 585.93 673.196 586.317 672.578 586.742V604.2C673.08 604.316 673.718 604.432 674.492 604.548C675.304 604.625 676.27 604.664 677.392 604.664C679.982 604.664 682.012 603.794 683.482 602.054C684.951 600.275 685.686 597.839 685.686 594.746ZM692.878 594.862C692.878 597.298 692.51 599.502 691.776 601.474C691.08 603.407 690.055 605.07 688.702 606.462C687.387 607.854 685.782 608.917 683.888 609.652C681.993 610.387 679.847 610.754 677.45 610.754C675.13 610.754 672.906 610.58 670.78 610.232C668.692 609.884 666.952 609.497 665.56 609.072V566.152L672.578 564.992V580.71C673.39 580.285 674.376 579.898 675.536 579.55C676.734 579.202 678.049 579.028 679.48 579.028C681.606 579.028 683.501 579.415 685.164 580.188C686.865 580.923 688.276 581.986 689.398 583.378C690.519 584.77 691.37 586.452 691.95 588.424C692.568 590.357 692.878 592.503 692.878 594.862ZM710.783 605.07C712.948 605.07 714.591 604.954 715.713 604.722V596.95C715.326 596.834 714.765 596.718 714.031 596.602C713.296 596.486 712.484 596.428 711.595 596.428C710.821 596.428 710.029 596.486 709.217 596.602C708.443 596.718 707.728 596.931 707.071 597.24C706.452 597.549 705.949 597.994 705.563 598.574C705.176 599.115 704.983 599.811 704.983 600.662C704.983 602.325 705.505 603.485 706.549 604.142C707.593 604.761 709.004 605.07 710.783 605.07ZM710.203 578.912C712.523 578.912 714.475 579.202 716.061 579.782C717.646 580.362 718.903 581.174 719.831 582.218C720.797 583.262 721.474 584.538 721.861 586.046C722.286 587.515 722.499 589.139 722.499 590.918V609.304C721.416 609.536 719.773 609.807 717.569 610.116C715.403 610.464 712.948 610.638 710.203 610.638C708.385 610.638 706.723 610.464 705.215 610.116C703.707 609.768 702.411 609.207 701.329 608.434C700.285 607.661 699.453 606.655 698.835 605.418C698.255 604.181 697.965 602.653 697.965 600.836C697.965 599.096 698.293 597.627 698.951 596.428C699.647 595.229 700.575 594.263 701.735 593.528C702.895 592.755 704.229 592.213 705.737 591.904C707.283 591.556 708.888 591.382 710.551 591.382C711.324 591.382 712.136 591.44 712.987 591.556C713.837 591.633 714.746 591.788 715.713 592.02V590.86C715.713 590.048 715.616 589.275 715.423 588.54C715.229 587.805 714.881 587.167 714.379 586.626C713.915 586.046 713.277 585.601 712.465 585.292C711.691 584.983 710.705 584.828 709.507 584.828C707.883 584.828 706.394 584.944 705.041 585.176C703.687 585.408 702.585 585.679 701.735 585.988L700.865 580.304C701.754 579.995 703.049 579.685 704.751 579.376C706.452 579.067 708.269 578.912 710.203 578.912ZM729.411 594.862C729.411 592.619 729.759 590.531 730.455 588.598C731.151 586.626 732.137 584.925 733.413 583.494C734.728 582.063 736.313 580.942 738.169 580.13C740.025 579.318 742.113 578.912 744.433 578.912C747.294 578.912 750.001 579.434 752.553 580.478L751.045 586.22C750.233 585.872 749.305 585.582 748.261 585.35C747.256 585.118 746.173 585.002 745.013 585.002C742.268 585.002 740.18 585.872 738.749 587.612C737.318 589.313 736.603 591.73 736.603 594.862C736.603 597.878 737.28 600.275 738.633 602.054C739.986 603.794 742.268 604.664 745.477 604.664C746.676 604.664 747.855 604.548 749.015 604.316C750.175 604.084 751.18 603.794 752.031 603.446L753.017 609.246C752.244 609.633 751.064 609.981 749.479 610.29C747.932 610.599 746.328 610.754 744.665 610.754C742.074 610.754 739.812 610.367 737.879 609.594C735.984 608.782 734.399 607.68 733.123 606.288C731.886 604.857 730.958 603.175 730.339 601.242C729.72 599.27 729.411 597.143 729.411 594.862ZM765.468 591.498C766.358 590.57 767.305 589.584 768.31 588.54C769.316 587.457 770.302 586.394 771.268 585.35C772.235 584.267 773.144 583.243 773.994 582.276C774.884 581.271 775.638 580.401 776.256 579.666H784.55C782.617 581.831 780.568 584.074 778.402 586.394C776.276 588.714 774.13 590.976 771.964 593.18C773.124 594.147 774.342 595.326 775.618 596.718C776.894 598.071 778.132 599.521 779.33 601.068C780.529 602.615 781.65 604.161 782.694 605.708C783.738 607.255 784.608 608.685 785.304 610H777.184C776.488 608.801 775.676 607.545 774.748 606.23C773.859 604.915 772.892 603.639 771.848 602.402C770.804 601.165 769.741 600.005 768.658 598.922C767.576 597.801 766.512 596.853 765.468 596.08V610H758.45V566.152L765.468 564.992V591.498ZM803.585 571.662L810.603 570.502V579.666H821.391V585.524H810.603V597.878C810.603 600.314 810.989 602.054 811.763 603.098C812.536 604.142 813.851 604.664 815.707 604.664C816.983 604.664 818.104 604.529 819.071 604.258C820.076 603.987 820.869 603.736 821.449 603.504L822.609 609.072C821.797 609.42 820.733 609.768 819.419 610.116C818.104 610.503 816.557 610.696 814.779 610.696C812.613 610.696 810.796 610.406 809.327 609.826C807.896 609.246 806.755 608.415 805.905 607.332C805.054 606.211 804.455 604.877 804.107 603.33C803.759 601.745 803.585 599.947 803.585 597.936V571.662ZM854.929 594.804C854.929 597.201 854.581 599.386 853.885 601.358C853.189 603.33 852.203 605.012 850.927 606.404C849.651 607.796 848.105 608.879 846.287 609.652C844.509 610.425 842.537 610.812 840.371 610.812C838.206 610.812 836.234 610.425 834.455 609.652C832.677 608.879 831.149 607.796 829.873 606.404C828.597 605.012 827.592 603.33 826.857 601.358C826.161 599.386 825.813 597.201 825.813 594.804C825.813 592.407 826.161 590.241 826.857 588.308C827.592 586.336 828.597 584.654 829.873 583.262C831.188 581.87 832.735 580.807 834.513 580.072C836.292 579.299 838.245 578.912 840.371 578.912C842.498 578.912 844.451 579.299 846.229 580.072C848.047 580.807 849.593 581.87 850.869 583.262C852.145 584.654 853.131 586.336 853.827 588.308C854.562 590.241 854.929 592.407 854.929 594.804ZM847.737 594.804C847.737 591.788 847.08 589.41 845.765 587.67C844.489 585.891 842.691 585.002 840.371 585.002C838.051 585.002 836.234 585.891 834.919 587.67C833.643 589.41 833.005 591.788 833.005 594.804C833.005 597.859 833.643 600.275 834.919 602.054C836.234 603.833 838.051 604.722 840.371 604.722C842.691 604.722 844.489 603.833 845.765 602.054C847.08 600.275 847.737 597.859 847.737 594.804ZM888.166 564.992C889.636 564.992 890.873 565.108 891.878 565.34C892.922 565.572 893.734 565.804 894.314 566.036L893.212 571.72C892.671 571.527 892.014 571.353 891.24 571.198C890.506 571.043 889.694 570.966 888.804 570.966C886.484 570.966 884.88 571.585 883.99 572.822C883.14 574.059 882.714 575.664 882.714 577.636V579.666H893.85V585.524H882.714V610H875.696V577.52C875.696 573.576 876.721 570.502 878.77 568.298C880.82 566.094 883.952 564.992 888.166 564.992ZM909.8 610.58C907.712 610.541 905.972 610.309 904.58 609.884C903.227 609.459 902.144 608.859 901.332 608.086C900.52 607.274 899.94 606.288 899.592 605.128C899.283 603.929 899.128 602.576 899.128 601.068V566.152L906.146 564.992V599.734C906.146 600.585 906.204 601.3 906.32 601.88C906.475 602.46 906.726 602.963 907.074 603.388C907.422 603.775 907.886 604.084 908.466 604.316C909.085 604.509 909.858 604.664 910.786 604.78L909.8 610.58ZM914.796 594.978C914.796 592.31 915.182 589.971 915.956 587.96C916.768 585.949 917.831 584.287 919.146 582.972C920.46 581.619 921.968 580.613 923.67 579.956C925.371 579.26 927.111 578.912 928.89 578.912C933.066 578.912 936.314 580.207 938.634 582.798C940.992 585.389 942.172 589.255 942.172 594.398C942.172 594.785 942.152 595.229 942.114 595.732C942.114 596.196 942.094 596.621 942.056 597.008H922.046C922.239 599.444 923.09 601.339 924.598 602.692C926.144 604.007 928.368 604.664 931.268 604.664C932.969 604.664 934.516 604.509 935.908 604.2C937.338 603.891 938.46 603.562 939.272 603.214L940.2 608.956C939.813 609.149 939.272 609.362 938.576 609.594C937.918 609.787 937.145 609.961 936.256 610.116C935.405 610.309 934.477 610.464 933.472 610.58C932.466 610.696 931.442 610.754 930.398 610.754C927.73 610.754 925.41 610.367 923.438 609.594C921.466 608.782 919.842 607.68 918.566 606.288C917.29 604.857 916.342 603.195 915.724 601.3C915.105 599.367 914.796 597.259 914.796 594.978ZM935.154 591.846C935.154 590.879 935.018 589.971 934.748 589.12C934.477 588.231 934.071 587.477 933.53 586.858C933.027 586.201 932.389 585.698 931.616 585.35C930.881 584.963 929.992 584.77 928.948 584.77C927.865 584.77 926.918 584.983 926.106 585.408C925.294 585.795 924.598 586.317 924.018 586.974C923.476 587.631 923.051 588.385 922.742 589.236C922.432 590.087 922.22 590.957 922.104 591.846H935.154ZM960.516 589.584L966.954 579.666H974.32L964.344 593.992C966.432 596.699 968.424 599.444 970.318 602.228C972.252 604.973 973.837 607.564 975.074 610H967.476C967.128 609.265 966.664 608.434 966.084 607.506C965.543 606.539 964.944 605.553 964.286 604.548C963.668 603.504 963.01 602.479 962.314 601.474C961.618 600.469 960.942 599.521 960.284 598.632C958.931 600.372 957.597 602.305 956.282 604.432C955.006 606.52 953.943 608.376 953.092 610H945.9C946.48 608.84 947.176 607.603 947.988 606.288C948.8 604.973 949.67 603.639 950.598 602.286C951.526 600.894 952.474 599.521 953.44 598.168C954.446 596.776 955.432 595.461 956.398 594.224L946.364 579.666H954.078L960.516 589.584ZM1001.62 610C999.687 606.017 997.696 601.455 995.647 596.312C993.636 591.131 991.799 585.582 990.137 579.666H997.619C998.044 581.367 998.527 583.204 999.069 585.176C999.649 587.109 1000.25 589.062 1000.87 591.034C1001.52 592.967 1002.18 594.862 1002.84 596.718C1003.53 598.535 1004.17 600.179 1004.75 601.648C1005.33 600.179 1005.95 598.535 1006.61 596.718C1007.27 594.862 1007.9 592.967 1008.52 591.034C1009.18 589.062 1009.8 587.109 1010.38 585.176C1010.96 583.204 1011.46 581.367 1011.89 579.666H1019.14C1017.47 585.582 1015.62 591.131 1013.57 596.312C1011.56 601.455 1009.59 606.017 1007.65 610H1001.62ZM1035.05 605.07C1037.22 605.07 1038.86 604.954 1039.98 604.722V596.95C1039.59 596.834 1039.03 596.718 1038.3 596.602C1037.56 596.486 1036.75 596.428 1035.86 596.428C1035.09 596.428 1034.3 596.486 1033.48 596.602C1032.71 596.718 1032 596.931 1031.34 597.24C1030.72 597.549 1030.22 597.994 1029.83 598.574C1029.44 599.115 1029.25 599.811 1029.25 600.662C1029.25 602.325 1029.77 603.485 1030.82 604.142C1031.86 604.761 1033.27 605.07 1035.05 605.07ZM1034.47 578.912C1036.79 578.912 1038.74 579.202 1040.33 579.782C1041.91 580.362 1043.17 581.174 1044.1 582.218C1045.06 583.262 1045.74 584.538 1046.13 586.046C1046.55 587.515 1046.77 589.139 1046.77 590.918V609.304C1045.68 609.536 1044.04 609.807 1041.84 610.116C1039.67 610.464 1037.22 610.638 1034.47 610.638C1032.65 610.638 1030.99 610.464 1029.48 610.116C1027.97 609.768 1026.68 609.207 1025.6 608.434C1024.55 607.661 1023.72 606.655 1023.1 605.418C1022.52 604.181 1022.23 602.653 1022.23 600.836C1022.23 599.096 1022.56 597.627 1023.22 596.428C1023.91 595.229 1024.84 594.263 1026 593.528C1027.16 592.755 1028.5 592.213 1030 591.904C1031.55 591.556 1033.16 591.382 1034.82 591.382C1035.59 591.382 1036.4 591.44 1037.25 591.556C1038.1 591.633 1039.01 591.788 1039.98 592.02V590.86C1039.98 590.048 1039.88 589.275 1039.69 588.54C1039.5 587.805 1039.15 587.167 1038.65 586.626C1038.18 586.046 1037.54 585.601 1036.73 585.292C1035.96 584.983 1034.97 584.828 1033.77 584.828C1032.15 584.828 1030.66 584.944 1029.31 585.176C1027.95 585.408 1026.85 585.679 1026 585.988L1025.13 580.304C1026.02 579.995 1027.32 579.685 1029.02 579.376C1030.72 579.067 1032.54 578.912 1034.47 578.912ZM1065.92 610.58C1063.83 610.541 1062.09 610.309 1060.7 609.884C1059.34 609.459 1058.26 608.859 1057.45 608.086C1056.64 607.274 1056.06 606.288 1055.71 605.128C1055.4 603.929 1055.24 602.576 1055.24 601.068V566.152L1062.26 564.992V599.734C1062.26 600.585 1062.32 601.3 1062.44 601.88C1062.59 602.46 1062.84 602.963 1063.19 603.388C1063.54 603.775 1064 604.084 1064.58 604.316C1065.2 604.509 1065.97 604.664 1066.9 604.78L1065.92 610.58ZM1097.46 609.072C1096.11 609.42 1094.35 609.768 1092.18 610.116C1090.02 610.503 1087.64 610.696 1085.05 610.696C1082.61 610.696 1080.56 610.348 1078.9 609.652C1077.28 608.956 1075.96 607.989 1074.96 606.752C1073.99 605.515 1073.29 604.045 1072.87 602.344C1072.44 600.604 1072.23 598.709 1072.23 596.66V579.666H1079.25V595.558C1079.25 598.806 1079.71 601.126 1080.64 602.518C1081.61 603.91 1083.27 604.606 1085.63 604.606C1086.48 604.606 1087.37 604.567 1088.3 604.49C1089.26 604.413 1089.98 604.316 1090.44 604.2V579.666H1097.46V609.072ZM1104.71 594.978C1104.71 592.31 1105.1 589.971 1105.87 587.96C1106.68 585.949 1107.75 584.287 1109.06 582.972C1110.38 581.619 1111.88 580.613 1113.59 579.956C1115.29 579.26 1117.03 578.912 1118.81 578.912C1122.98 578.912 1126.23 580.207 1128.55 582.798C1130.91 585.389 1132.09 589.255 1132.09 594.398C1132.09 594.785 1132.07 595.229 1132.03 595.732C1132.03 596.196 1132.01 596.621 1131.97 597.008H1111.96C1112.16 599.444 1113.01 601.339 1114.51 602.692C1116.06 604.007 1118.28 604.664 1121.18 604.664C1122.89 604.664 1124.43 604.509 1125.82 604.2C1127.25 603.891 1128.38 603.562 1129.19 603.214L1130.12 608.956C1129.73 609.149 1129.19 609.362 1128.49 609.594C1127.83 609.787 1127.06 609.961 1126.17 610.116C1125.32 610.309 1124.39 610.464 1123.39 610.58C1122.38 610.696 1121.36 610.754 1120.31 610.754C1117.65 610.754 1115.33 610.367 1113.35 609.594C1111.38 608.782 1109.76 607.68 1108.48 606.288C1107.21 604.857 1106.26 603.195 1105.64 601.3C1105.02 599.367 1104.71 597.259 1104.71 594.978ZM1125.07 591.846C1125.07 590.879 1124.93 589.971 1124.66 589.12C1124.39 588.231 1123.99 587.477 1123.45 586.858C1122.94 586.201 1122.31 585.698 1121.53 585.35C1120.8 584.963 1119.91 584.77 1118.86 584.77C1117.78 584.77 1116.83 584.983 1116.02 585.408C1115.21 585.795 1114.51 586.317 1113.93 586.974C1113.39 587.631 1112.97 588.385 1112.66 589.236C1112.35 590.087 1112.14 590.957 1112.02 591.846H1125.07ZM1143.41 592.658C1143.41 587.902 1142.7 583.455 1141.27 579.318C1139.84 575.142 1137.85 571.314 1135.29 567.834L1140.22 564.586C1143.36 568.337 1145.83 572.609 1147.65 577.404C1149.47 582.16 1150.37 587.245 1150.37 592.658C1150.37 598.071 1149.47 603.175 1147.65 607.97C1145.83 612.726 1143.36 616.979 1140.22 620.73L1135.29 617.482C1137.85 614.041 1139.84 610.232 1141.27 606.056C1142.7 601.88 1143.41 597.414 1143.41 592.658Z" fill="#60195E"/>
<path d="M113.784 971.862C113.784 969.619 114.132 967.531 114.828 965.598C115.524 963.626 116.51 961.925 117.786 960.494C119.101 959.063 120.686 957.942 122.542 957.13C124.398 956.318 126.486 955.912 128.806 955.912C131.667 955.912 134.374 956.434 136.926 957.478L135.418 963.22C134.606 962.872 133.678 962.582 132.634 962.35C131.629 962.118 130.546 962.002 129.386 962.002C126.641 962.002 124.553 962.872 123.122 964.612C121.691 966.313 120.976 968.73 120.976 971.862C120.976 974.878 121.653 977.275 123.006 979.054C124.359 980.794 126.641 981.664 129.85 981.664C131.049 981.664 132.228 981.548 133.388 981.316C134.548 981.084 135.553 980.794 136.404 980.446L137.39 986.246C136.617 986.633 135.437 986.981 133.852 987.29C132.305 987.599 130.701 987.754 129.038 987.754C126.447 987.754 124.185 987.367 122.252 986.594C120.357 985.782 118.772 984.68 117.496 983.288C116.259 981.857 115.331 980.175 114.712 978.242C114.093 976.27 113.784 974.143 113.784 971.862ZM149.667 969.658C149.667 974.414 150.383 978.88 151.813 983.056C153.244 987.232 155.235 991.041 157.787 994.482L152.857 997.73C149.725 993.979 147.251 989.726 145.433 984.97C143.616 980.175 142.707 975.071 142.707 969.658C142.707 964.245 143.616 959.16 145.433 954.404C147.251 949.609 149.725 945.337 152.857 941.586L157.787 944.834C155.235 948.314 153.244 952.142 151.813 956.318C150.383 960.455 149.667 964.902 149.667 969.658ZM163.232 955.158C165.474 954.269 167.717 953.128 169.96 951.736C172.241 950.344 174.252 948.701 175.992 946.806H180.922V987H173.904V956.202C172.86 957.014 171.545 957.807 169.96 958.58C168.374 959.353 166.847 959.991 165.378 960.494L163.232 955.158ZM199.329 969.658C199.329 964.902 198.613 960.455 197.183 956.318C195.752 952.142 193.761 948.314 191.209 944.834L196.139 941.586C199.271 945.337 201.745 949.609 203.563 954.404C205.38 959.16 206.289 964.245 206.289 969.658C206.289 975.071 205.38 980.175 203.563 984.97C201.745 989.726 199.271 993.979 196.139 997.73L191.209 994.482C193.761 991.041 195.752 987.232 197.183 983.056C198.613 978.88 199.329 974.414 199.329 969.658Z" fill="#60195E"/>
<path d="M1413.78 594.862C1413.78 592.619 1414.13 590.531 1414.83 588.598C1415.52 586.626 1416.51 584.925 1417.79 583.494C1419.1 582.063 1420.69 580.942 1422.54 580.13C1424.4 579.318 1426.49 578.912 1428.81 578.912C1431.67 578.912 1434.37 579.434 1436.93 580.478L1435.42 586.22C1434.61 585.872 1433.68 585.582 1432.63 585.35C1431.63 585.118 1430.55 585.002 1429.39 585.002C1426.64 585.002 1424.55 585.872 1423.12 587.612C1421.69 589.313 1420.98 591.73 1420.98 594.862C1420.98 597.878 1421.65 600.275 1423.01 602.054C1424.36 603.794 1426.64 604.664 1429.85 604.664C1431.05 604.664 1432.23 604.548 1433.39 604.316C1434.55 604.084 1435.55 603.794 1436.4 603.446L1437.39 609.246C1436.62 609.633 1435.44 609.981 1433.85 610.29C1432.31 610.599 1430.7 610.754 1429.04 610.754C1426.45 610.754 1424.19 610.367 1422.25 609.594C1420.36 608.782 1418.77 607.68 1417.5 606.288C1416.26 604.857 1415.33 603.175 1414.71 601.242C1414.09 599.27 1413.78 597.143 1413.78 594.862ZM1449.67 592.658C1449.67 597.414 1450.38 601.88 1451.81 606.056C1453.24 610.232 1455.24 614.041 1457.79 617.482L1452.86 620.73C1449.73 616.979 1447.25 612.726 1445.43 607.97C1443.62 603.175 1442.71 598.071 1442.71 592.658C1442.71 587.245 1443.62 582.16 1445.43 577.404C1447.25 572.609 1449.73 568.337 1452.86 564.586L1457.79 567.834C1455.24 571.314 1453.24 575.142 1451.81 579.318C1450.38 583.455 1449.67 587.902 1449.67 592.658ZM1471.7 610.87C1470.66 610.87 1469.57 610.793 1468.45 610.638C1467.37 610.522 1466.33 610.348 1465.32 610.116C1464.35 609.923 1463.46 609.71 1462.65 609.478C1461.84 609.207 1461.22 608.956 1460.8 608.724L1462.19 602.75C1463 603.137 1464.18 603.581 1465.73 604.084C1467.27 604.548 1469.19 604.78 1471.47 604.78C1474.52 604.78 1476.73 604.2 1478.08 603.04C1479.43 601.841 1480.11 600.256 1480.11 598.284C1480.11 597.008 1479.84 595.945 1479.3 595.094C1478.8 594.243 1478.08 593.567 1477.15 593.064C1476.26 592.523 1475.22 592.155 1474.02 591.962C1472.86 591.73 1471.62 591.614 1470.31 591.614H1467.93V585.93H1470.83C1471.72 585.93 1472.61 585.853 1473.5 585.698C1474.43 585.505 1475.26 585.195 1475.99 584.77C1476.73 584.306 1477.33 583.707 1477.79 582.972C1478.25 582.237 1478.49 581.29 1478.49 580.13C1478.49 579.202 1478.31 578.409 1477.96 577.752C1477.62 577.095 1477.15 576.553 1476.57 576.128C1476.03 575.703 1475.39 575.393 1474.66 575.2C1473.92 575.007 1473.15 574.91 1472.34 574.91C1470.6 574.91 1469.05 575.181 1467.7 575.722C1466.34 576.225 1465.15 576.805 1464.1 577.462L1461.55 572.242C1462.09 571.894 1462.75 571.527 1463.52 571.14C1464.3 570.753 1465.15 570.386 1466.07 570.038C1467.04 569.69 1468.07 569.419 1469.15 569.226C1470.23 568.994 1471.37 568.878 1472.57 568.878C1474.81 568.878 1476.75 569.149 1478.37 569.69C1479.99 570.231 1481.33 571.005 1482.37 572.01C1483.45 572.977 1484.25 574.137 1484.75 575.49C1485.29 576.805 1485.56 578.255 1485.56 579.84C1485.56 581.696 1485.04 583.359 1484 584.828C1482.99 586.297 1481.68 587.419 1480.05 588.192C1482.14 588.927 1483.86 590.145 1485.21 591.846C1486.61 593.547 1487.3 595.732 1487.3 598.4C1487.3 600.179 1486.99 601.841 1486.37 603.388C1485.76 604.896 1484.81 606.211 1483.53 607.332C1482.26 608.415 1480.63 609.285 1478.66 609.942C1476.73 610.561 1474.41 610.87 1471.7 610.87ZM1502.69 602.286C1502.77 602.943 1502.81 603.427 1502.81 603.736C1502.81 604.045 1502.81 604.355 1502.81 604.664C1502.81 607.061 1502.42 609.536 1501.65 612.088C1500.91 614.64 1499.87 617.057 1498.52 619.338L1493.01 617.83C1493.93 615.587 1494.55 613.383 1494.86 611.218C1495.21 609.091 1495.38 607.216 1495.38 605.592C1495.38 605.128 1495.37 604.548 1495.33 603.852C1495.33 603.156 1495.31 602.634 1495.27 602.286H1502.69ZM1525.25 578.158C1527.5 577.269 1529.74 576.128 1531.98 574.736C1534.26 573.344 1536.27 571.701 1538.01 569.806H1542.94V610H1535.93V579.202C1534.88 580.014 1533.57 580.807 1531.98 581.58C1530.4 582.353 1528.87 582.991 1527.4 583.494L1525.25 578.158ZM1564.71 602.286C1564.79 602.943 1564.83 603.427 1564.83 603.736C1564.83 604.045 1564.83 604.355 1564.83 604.664C1564.83 607.061 1564.44 609.536 1563.67 612.088C1562.94 614.64 1561.89 617.057 1560.54 619.338L1555.03 617.83C1555.96 615.587 1556.57 613.383 1556.88 611.218C1557.23 609.091 1557.41 607.216 1557.41 605.592C1557.41 605.128 1557.39 604.548 1557.35 603.852C1557.35 603.156 1557.33 602.634 1557.29 602.286H1564.71ZM1595.74 610.87C1594.7 610.87 1593.62 610.793 1592.49 610.638C1591.41 610.522 1590.37 610.348 1589.36 610.116C1588.4 609.923 1587.51 609.71 1586.69 609.478C1585.88 609.207 1585.26 608.956 1584.84 608.724L1586.23 602.75C1587.04 603.137 1588.22 603.581 1589.77 604.084C1591.32 604.548 1593.23 604.78 1595.51 604.78C1598.57 604.78 1600.77 604.2 1602.12 603.04C1603.48 601.841 1604.15 600.256 1604.15 598.284C1604.15 597.008 1603.88 595.945 1603.34 595.094C1602.84 594.243 1602.12 593.567 1601.19 593.064C1600.31 592.523 1599.26 592.155 1598.06 591.962C1596.9 591.73 1595.67 591.614 1594.35 591.614H1591.97V585.93H1594.87C1595.76 585.93 1596.65 585.853 1597.54 585.698C1598.47 585.505 1599.3 585.195 1600.03 584.77C1600.77 584.306 1601.37 583.707 1601.83 582.972C1602.3 582.237 1602.53 581.29 1602.53 580.13C1602.53 579.202 1602.35 578.409 1602.01 577.752C1601.66 577.095 1601.19 576.553 1600.61 576.128C1600.07 575.703 1599.44 575.393 1598.7 575.2C1597.97 575.007 1597.19 574.91 1596.38 574.91C1594.64 574.91 1593.09 575.181 1591.74 575.722C1590.39 576.225 1589.19 576.805 1588.14 577.462L1585.59 572.242C1586.13 571.894 1586.79 571.527 1587.56 571.14C1588.34 570.753 1589.19 570.386 1590.12 570.038C1591.08 569.69 1592.11 569.419 1593.19 569.226C1594.27 568.994 1595.41 568.878 1596.61 568.878C1598.86 568.878 1600.79 569.149 1602.41 569.69C1604.04 570.231 1605.37 571.005 1606.41 572.01C1607.5 572.977 1608.29 574.137 1608.79 575.49C1609.33 576.805 1609.6 578.255 1609.6 579.84C1609.6 581.696 1609.08 583.359 1608.04 584.828C1607.03 586.297 1605.72 587.419 1604.09 588.192C1606.18 588.927 1607.9 590.145 1609.26 591.846C1610.65 593.547 1611.34 595.732 1611.34 598.4C1611.34 600.179 1611.04 601.841 1610.42 603.388C1609.8 604.896 1608.85 606.211 1607.57 607.332C1606.3 608.415 1604.67 609.285 1602.7 609.942C1600.77 610.561 1598.45 610.87 1595.74 610.87ZM1623.37 592.658C1623.37 587.902 1622.66 583.455 1621.23 579.318C1619.79 575.142 1617.8 571.314 1615.25 567.834L1620.18 564.586C1623.31 568.337 1625.79 572.609 1627.61 577.404C1629.42 582.16 1630.33 587.245 1630.33 592.658C1630.33 598.071 1629.42 603.175 1627.61 607.97C1625.79 612.726 1623.31 616.979 1620.18 620.73L1615.25 617.482C1617.8 614.041 1619.79 610.232 1621.23 606.056C1622.66 601.88 1623.37 597.414 1623.37 592.658Z" fill="#60195E"/>
<path d="M1410.78 971.862C1410.78 969.619 1411.13 967.531 1411.83 965.598C1412.52 963.626 1413.51 961.925 1414.79 960.494C1416.1 959.063 1417.69 957.942 1419.54 957.13C1421.4 956.318 1423.49 955.912 1425.81 955.912C1428.67 955.912 1431.37 956.434 1433.93 957.478L1432.42 963.22C1431.61 962.872 1430.68 962.582 1429.63 962.35C1428.63 962.118 1427.55 962.002 1426.39 962.002C1423.64 962.002 1421.55 962.872 1420.12 964.612C1418.69 966.313 1417.98 968.73 1417.98 971.862C1417.98 974.878 1418.65 977.275 1420.01 979.054C1421.36 980.794 1423.64 981.664 1426.85 981.664C1428.05 981.664 1429.23 981.548 1430.39 981.316C1431.55 981.084 1432.55 980.794 1433.4 980.446L1434.39 986.246C1433.62 986.633 1432.44 986.981 1430.85 987.29C1429.31 987.599 1427.7 987.754 1426.04 987.754C1423.45 987.754 1421.19 987.367 1419.25 986.594C1417.36 985.782 1415.77 984.68 1414.5 983.288C1413.26 981.857 1412.33 980.175 1411.71 978.242C1411.09 976.27 1410.78 974.143 1410.78 971.862ZM1446.67 969.658C1446.67 974.414 1447.38 978.88 1448.81 983.056C1450.24 987.232 1452.24 991.041 1454.79 994.482L1449.86 997.73C1446.73 993.979 1444.25 989.726 1442.43 984.97C1440.62 980.175 1439.71 975.071 1439.71 969.658C1439.71 964.245 1440.62 959.16 1442.43 954.404C1444.25 949.609 1446.73 945.337 1449.86 941.586L1454.79 944.834C1452.24 948.314 1450.24 952.142 1448.81 956.318C1447.38 960.455 1446.67 964.902 1446.67 969.658ZM1482.91 957.246C1482.91 958.638 1482.62 960.011 1482.04 961.364C1481.46 962.679 1480.71 963.974 1479.78 965.25C1478.89 966.487 1477.86 967.705 1476.7 968.904C1475.54 970.064 1474.38 971.205 1473.22 972.326C1472.61 972.906 1471.91 973.602 1471.14 974.414C1470.36 975.226 1469.63 976.038 1468.93 976.85C1468.24 977.662 1467.64 978.455 1467.13 979.228C1466.63 979.963 1466.36 980.581 1466.32 981.084H1484.19V987H1458.61C1458.57 986.691 1458.55 986.323 1458.55 985.898C1458.55 985.434 1458.55 985.086 1458.55 984.854C1458.55 982.998 1458.84 981.297 1459.42 979.75C1460.04 978.165 1460.83 976.695 1461.8 975.342C1462.76 973.989 1463.85 972.713 1465.05 971.514C1466.24 970.315 1467.44 969.136 1468.64 967.976C1469.57 967.087 1470.46 966.217 1471.31 965.366C1472.16 964.515 1472.9 963.684 1473.51 962.872C1474.17 962.021 1474.69 961.171 1475.08 960.32C1475.47 959.431 1475.66 958.522 1475.66 957.594C1475.66 955.583 1475.08 954.153 1473.92 953.302C1472.76 952.451 1471.35 952.026 1469.69 952.026C1468.6 952.026 1467.6 952.181 1466.67 952.49C1465.74 952.799 1464.91 953.167 1464.18 953.592C1463.48 954.017 1462.86 954.462 1462.32 954.926C1461.78 955.351 1461.37 955.699 1461.1 955.97L1457.62 951.04C1459.25 949.493 1461.14 948.256 1463.31 947.328C1465.51 946.361 1467.87 945.878 1470.38 945.878C1474.67 945.878 1477.83 946.903 1479.84 948.952C1481.89 950.963 1482.91 953.727 1482.91 957.246ZM1499.69 979.286C1499.77 979.943 1499.81 980.427 1499.81 980.736C1499.81 981.045 1499.81 981.355 1499.81 981.664C1499.81 984.061 1499.42 986.536 1498.65 989.088C1497.91 991.64 1496.87 994.057 1495.52 996.338L1490.01 994.83C1490.93 992.587 1491.55 990.383 1491.86 988.218C1492.21 986.091 1492.38 984.216 1492.38 982.592C1492.38 982.128 1492.37 981.548 1492.33 980.852C1492.33 980.156 1492.31 979.634 1492.27 979.286H1499.69ZM1522.25 955.158C1524.5 954.269 1526.74 953.128 1528.98 951.736C1531.26 950.344 1533.27 948.701 1535.01 946.806H1539.94V987H1532.93V956.202C1531.88 957.014 1530.57 957.807 1528.98 958.58C1527.4 959.353 1525.87 959.991 1524.4 960.494L1522.25 955.158ZM1558.35 969.658C1558.35 964.902 1557.63 960.455 1556.2 956.318C1554.77 952.142 1552.78 948.314 1550.23 944.834L1555.16 941.586C1558.29 945.337 1560.77 949.609 1562.58 954.404C1564.4 959.16 1565.31 964.245 1565.31 969.658C1565.31 975.071 1564.4 980.175 1562.58 984.97C1560.77 989.726 1558.29 993.979 1555.16 997.73L1550.23 994.482C1552.78 991.041 1554.77 987.232 1556.2 983.056C1557.63 978.88 1558.35 974.414 1558.35 969.658Z" fill="#60195E"/>
<line x1="111" y1="233.5" x2="1232" y2="233.5" stroke="#60195E" stroke-width="13"/>
<line x1="111" y1="233.5" x2="1232" y2="233.5" stroke="black" stroke-opacity="0.2" stroke-width="13"/>
</svg>
