<svg width="2432" height="1085" viewBox="0 0 2432 1085" fill="none" xmlns="http://www.w3.org/2000/svg">
<g clip-path="url(#clip0_37_2)">
<path d="M1328 197.5H2399C2408.66 197.5 2416.5 205.335 2416.5 215V394.963C2416.5 404.628 2408.66 412.463 2399 412.463H1328C1318.34 412.463 1310.5 404.628 1310.5 394.963V215C1310.5 205.335 1318.34 197.5 1328 197.5Z" fill="#C4C4C4" stroke="#C4C4C4" stroke-width="5"/>
<path d="M1664 218.5H2018C2027.67 218.5 2035.5 226.335 2035.5 236V372C2035.5 381.665 2027.67 389.5 2018 389.5H1664C1654.34 389.5 1646.5 381.665 1646.5 372V236C1646.5 226.335 1654.34 218.5 1664 218.5Z" fill="#E6E6E6" stroke="#60195E" stroke-width="5"/>
<path d="M2159 219.5H2328C2337.66 219.5 2345.5 227.335 2345.5 237V372C2345.5 381.665 2337.66 389.5 2328 389.5H2159C2149.34 389.5 2141.5 381.665 2141.5 372V237C2141.5 227.335 2149.34 219.5 2159 219.5Z" fill="#E6E6E6" stroke="#60195E" stroke-width="5"/>
<path d="M1354 219.5H1523C1532.66 219.5 1540.5 227.335 1540.5 237V373C1540.5 382.665 1532.66 390.5 1523 390.5H1354C1344.34 390.5 1336.5 382.665 1336.5 373V237C1336.5 227.335 1344.34 219.5 1354 219.5Z" fill="#E6E6E6" stroke="#60195E" stroke-width="5"/>
<path d="M17 601.5H1088C1097.66 601.5 1105.5 609.335 1105.5 619V996C1105.5 1005.66 1097.66 1013.5 1088 1013.5H17C7.33501 1013.5 -0.5 1005.66 -0.5 996V619C-0.5 609.335 7.33502 601.5 17 601.5Z" fill="#C4C4C4" stroke="#C4C4C4" stroke-width="5"/>
<path d="M276 622.5H835C844.665 622.5 852.5 630.335 852.5 640V776C852.5 785.665 844.665 793.5 835 793.5H276C266.335 793.5 258.5 785.665 258.5 776V640C258.5 630.335 266.335 622.5 276 622.5Z" fill="#E6E6E6" stroke="#60195E" stroke-width="5"/>
<path d="M896 622.5H1065C1074.66 622.5 1082.5 630.335 1082.5 640V775C1082.5 784.665 1074.66 792.5 1065 792.5H896C886.335 792.5 878.5 784.665 878.5 775V640C878.5 630.335 886.335 622.5 896 622.5Z" fill="#E6E6E6" stroke="#60195E" stroke-width="5"/>
<path d="M43 623.5H212C221.665 623.5 229.5 631.335 229.5 641V777C229.5 786.665 221.665 794.5 212 794.5H43C33.335 794.5 25.5 786.665 25.5 777V641C25.5 631.335 33.335 623.5 43 623.5Z" fill="#E6E6E6" stroke="#60195E" stroke-width="5"/>
<path d="M276 820.5H835C844.665 820.5 852.5 828.335 852.5 838V974C852.5 983.665 844.665 991.5 835 991.5H276C266.335 991.5 258.5 983.665 258.5 974V838C258.5 828.335 266.335 820.5 276 820.5Z" fill="#E6E6E6" stroke="#60195E" stroke-width="5"/>
<path d="M896 820.5H1065C1074.66 820.5 1082.5 828.335 1082.5 838V973C1082.5 982.665 1074.66 990.5 1065 990.5H896C886.335 990.5 878.5 982.665 878.5 973V838C878.5 828.335 886.335 820.5 896 820.5Z" fill="#E6E6E6" stroke="#60195E" stroke-width="5"/>
<path d="M43 821.5H212C221.665 821.5 229.5 829.335 229.5 839V975C229.5 984.665 221.665 992.5 212 992.5H43C33.335 992.5 25.5 984.665 25.5 975V839C25.5 829.335 33.335 821.5 43 821.5Z" fill="#E6E6E6" stroke="#60195E" stroke-width="5"/>
<path d="M1327 601.5H2398C2407.66 601.5 2415.5 609.335 2415.5 619V996C2415.5 1005.66 2407.66 1013.5 2398 1013.5H1327C1317.34 1013.5 1309.5 1005.66 1309.5 996V619C1309.5 609.335 1317.34 601.5 1327 601.5Z" fill="#C4C4C4" stroke="#C4C4C4" stroke-width="5"/>
<path d="M1664 622.5H2018C2027.66 622.5 2035.5 630.335 2035.5 640V776C2035.5 785.665 2027.66 793.5 2018 793.5H1664C1654.34 793.5 1646.5 785.665 1646.5 776V640C1646.5 630.335 1654.34 622.5 1664 622.5Z" fill="#E6E6E6" stroke="#60195E" stroke-width="5"/>
<path d="M2159 622.5H2328C2337.66 622.5 2345.5 630.335 2345.5 640V775C2345.5 784.665 2337.66 792.5 2328 792.5H2159C2149.34 792.5 2141.5 784.665 2141.5 775V640C2141.5 630.335 2149.34 622.5 2159 622.5Z" fill="#E6E6E6" stroke="#60195E" stroke-width="5"/>
<path d="M1353 623.5H1522C1531.66 623.5 1539.5 631.335 1539.5 641V777C1539.5 786.665 1531.66 794.5 1522 794.5H1353C1343.34 794.5 1335.5 786.665 1335.5 777V641C1335.5 631.335 1343.34 623.5 1353 623.5Z" fill="#E6E6E6" stroke="#60195E" stroke-width="5"/>
<path d="M1664 820.5H2018C2027.67 820.5 2035.5 828.335 2035.5 838V974C2035.5 983.665 2027.67 991.5 2018 991.5H1664C1654.34 991.5 1646.5 983.665 1646.5 974V838C1646.5 828.335 1654.34 820.5 1664 820.5Z" fill="#E6E6E6" stroke="#60195E" stroke-width="5"/>
<path d="M2159 820.5H2328C2337.66 820.5 2345.5 828.335 2345.5 838V973C2345.5 982.665 2337.66 990.5 2328 990.5H2159C2149.34 990.5 2141.5 982.665 2141.5 973V838C2141.5 828.335 2149.34 820.5 2159 820.5Z" fill="#E6E6E6" stroke="#60195E" stroke-width="5"/>
<path d="M1353 821.5H1522C1531.66 821.5 1539.5 829.335 1539.5 839V975C1539.5 984.665 1531.66 992.5 1522 992.5H1353C1343.34 992.5 1335.5 984.665 1335.5 975V839C1335.5 829.335 1343.34 821.5 1353 821.5Z" fill="#E6E6E6" stroke="#60195E" stroke-width="5"/>
<path d="M16.856 173.05C16.856 178.081 17.934 181.772 20.09 184.124C22.3113 186.411 25.1533 187.554 28.616 187.554C30.5107 187.554 32.2747 187.293 33.908 186.77C35.6067 186.247 36.9787 185.627 38.024 184.908V158.35C37.1747 158.154 36.1293 157.991 34.888 157.86C33.6467 157.664 32.0787 157.566 30.184 157.566C25.872 157.566 22.5727 159.003 20.286 161.878C17.9993 164.687 16.856 168.411 16.856 173.05ZM49.882 194.806C49.882 202.973 47.7913 208.951 43.61 212.74C39.494 216.529 33.1567 218.424 24.598 218.424C21.462 218.424 18.3913 218.163 15.386 217.64C12.446 217.117 9.76733 216.431 7.35 215.582L9.506 205.488C11.5313 206.337 13.818 207.023 16.366 207.546C18.9793 208.069 21.7887 208.33 24.794 208.33C29.5633 208.33 32.9607 207.35 34.986 205.39C37.0113 203.43 38.024 200.523 38.024 196.668V194.708C36.848 195.296 35.28 195.884 33.32 196.472C31.4253 197.06 29.2367 197.354 26.754 197.354C23.4873 197.354 20.482 196.831 17.738 195.786C15.0593 194.741 12.74 193.205 10.78 191.18C8.88533 189.155 7.38267 186.639 6.272 183.634C5.22667 180.563 4.704 177.035 4.704 173.05C4.704 169.326 5.25933 165.896 6.37 162.76C7.546 159.624 9.212 156.945 11.368 154.724C13.5893 152.503 16.268 150.771 19.404 149.53C22.54 148.289 26.1007 147.668 30.086 147.668C33.9407 147.668 37.5993 147.962 41.062 148.55C44.5247 149.138 47.4647 149.759 49.882 150.412V194.806ZM82.9999 191.67C86.6585 191.67 89.4352 191.474 91.3299 191.082V177.95C90.6765 177.754 89.7292 177.558 88.4879 177.362C87.2465 177.166 85.8745 177.068 84.3719 177.068C83.0652 177.068 81.7259 177.166 80.3539 177.362C79.0472 177.558 77.8385 177.917 76.7279 178.44C75.6825 178.963 74.8332 179.714 74.1799 180.694C73.5265 181.609 73.1999 182.785 73.1999 184.222C73.1999 187.031 74.0819 188.991 75.8459 190.102C77.6099 191.147 79.9945 191.67 82.9999 191.67ZM82.0199 147.472C85.9399 147.472 89.2392 147.962 91.9179 148.942C94.5965 149.922 96.7199 151.294 98.2879 153.058C99.9212 154.822 101.065 156.978 101.718 159.526C102.437 162.009 102.796 164.753 102.796 167.758V198.824C100.967 199.216 98.1899 199.673 94.4659 200.196C90.8072 200.784 86.6585 201.078 82.0199 201.078C78.9492 201.078 76.1399 200.784 73.5919 200.196C71.0439 199.608 68.8552 198.661 67.0259 197.354C65.2619 196.047 63.8572 194.349 62.8119 192.258C61.8319 190.167 61.3419 187.587 61.3419 184.516C61.3419 181.576 61.8972 179.093 63.0079 177.068C64.1839 175.043 65.7519 173.409 67.7119 172.168C69.6719 170.861 71.9259 169.947 74.4739 169.424C77.0872 168.836 79.7985 168.542 82.6079 168.542C83.9145 168.542 85.2865 168.64 86.7239 168.836C88.1612 168.967 89.6965 169.228 91.3299 169.62V167.66C91.3299 166.288 91.1665 164.981 90.8399 163.74C90.5132 162.499 89.9252 161.421 89.0759 160.506C88.2919 159.526 87.2139 158.775 85.8419 158.252C84.5352 157.729 82.8692 157.468 80.8439 157.468C78.0999 157.468 75.5845 157.664 73.2979 158.056C71.0112 158.448 69.1492 158.905 67.7119 159.428L66.2419 149.824C67.7445 149.301 69.9332 148.779 72.8079 148.256C75.6825 147.733 78.7532 147.472 82.0199 147.472ZM151.323 174.618C151.323 169.326 150.115 165.21 147.697 162.27C145.345 159.33 141.523 157.86 136.231 157.86C135.121 157.86 133.945 157.925 132.703 158.056C131.527 158.121 130.351 158.317 129.175 158.644V187.946C130.221 188.665 131.593 189.351 133.291 190.004C135.055 190.592 136.917 190.886 138.877 190.886C143.189 190.886 146.325 189.416 148.285 186.476C150.311 183.536 151.323 179.583 151.323 174.618ZM163.475 174.422C163.475 178.342 162.953 181.935 161.907 185.202C160.927 188.469 159.49 191.278 157.595 193.63C155.701 195.982 153.316 197.811 150.441 199.118C147.632 200.425 144.431 201.078 140.837 201.078C138.42 201.078 136.199 200.784 134.173 200.196C132.148 199.608 130.482 198.955 129.175 198.236V218.13H117.317V150.412C119.735 149.759 122.707 149.138 126.235 148.55C129.763 147.962 133.487 147.668 137.407 147.668C141.458 147.668 145.084 148.289 148.285 149.53C151.487 150.771 154.198 152.568 156.419 154.92C158.706 157.207 160.437 160.016 161.613 163.348C162.855 166.615 163.475 170.306 163.475 174.422Z" fill="#60195E"/>
<path d="M1.544 269.696L9.288 268.416V278.528H21.192V284.992H9.288V298.624C9.288 301.312 9.71467 303.232 10.568 304.384C11.4213 305.536 12.872 306.112 14.92 306.112C16.328 306.112 17.5653 305.963 18.632 305.664C19.7413 305.365 20.616 305.088 21.256 304.832L22.536 310.976C21.64 311.36 20.4667 311.744 19.016 312.128C17.5653 312.555 15.8587 312.768 13.896 312.768C11.5067 312.768 9.50133 312.448 7.88 311.808C6.30133 311.168 5.04267 310.251 4.104 309.056C3.16533 307.819 2.504 306.347 2.12 304.64C1.736 302.891 1.544 300.907 1.544 298.688V269.696ZM56.006 278.528C52.55 291.243 48.5393 302.763 43.974 313.088C43.1207 315.008 42.246 316.651 41.35 318.016C40.454 319.381 39.4513 320.512 38.342 321.408C37.2327 322.304 35.9953 322.944 34.63 323.328C33.2647 323.755 31.686 323.968 29.894 323.968C28.6993 323.968 27.5047 323.84 26.31 323.584C25.158 323.328 24.2833 323.051 23.686 322.752L25.094 316.544C26.63 317.141 28.1447 317.44 29.638 317.44C31.6433 317.44 33.2007 316.949 34.31 315.968C35.462 315.029 36.4647 313.557 37.318 311.552C34.886 306.859 32.5393 301.739 30.278 296.192C28.0593 290.645 26.0753 284.757 24.326 278.528H32.582C33.0087 280.32 33.5207 282.261 34.118 284.352C34.758 286.443 35.4407 288.576 36.166 290.752C36.8913 292.885 37.6593 295.019 38.47 297.152C39.2807 299.285 40.0913 301.269 40.902 303.104C42.2673 299.307 43.5473 295.275 44.742 291.008C45.9367 286.699 47.0247 282.539 48.006 278.528H56.006ZM84.0735 295.424C84.0735 291.968 83.2842 289.28 81.7055 287.36C80.1695 285.44 77.6735 284.48 74.2175 284.48C73.4922 284.48 72.7242 284.523 71.9135 284.608C71.1455 284.651 70.3775 284.779 69.6095 284.992V304.128C70.2922 304.597 71.1882 305.045 72.2975 305.472C73.4495 305.856 74.6655 306.048 75.9455 306.048C78.7615 306.048 80.8095 305.088 82.0895 303.168C83.4122 301.248 84.0735 298.667 84.0735 295.424ZM92.0095 295.296C92.0095 297.856 91.6682 300.203 90.9855 302.336C90.3455 304.469 89.4068 306.304 88.1695 307.84C86.9322 309.376 85.3748 310.571 83.4975 311.424C81.6628 312.277 79.5722 312.704 77.2255 312.704C75.6468 312.704 74.1962 312.512 72.8735 312.128C71.5508 311.744 70.4628 311.317 69.6095 310.848V323.84H61.8655V279.616C63.4442 279.189 65.3855 278.784 67.6895 278.4C69.9935 278.016 72.4255 277.824 74.9855 277.824C77.6308 277.824 79.9988 278.229 82.0895 279.04C84.1802 279.851 85.9508 281.024 87.4015 282.56C88.8948 284.053 90.0255 285.888 90.7935 288.064C91.6042 290.197 92.0095 292.608 92.0095 295.296ZM98.1345 295.424C98.1345 292.48 98.5612 289.899 99.4145 287.68C100.311 285.461 101.484 283.627 102.935 282.176C104.385 280.683 106.049 279.573 107.927 278.848C109.804 278.08 111.724 277.696 113.687 277.696C118.295 277.696 121.879 279.125 124.439 281.984C127.041 284.843 128.343 289.109 128.343 294.784C128.343 295.211 128.321 295.701 128.279 296.256C128.279 296.768 128.257 297.237 128.215 297.664H106.135C106.348 300.352 107.287 302.443 108.951 303.936C110.657 305.387 113.111 306.112 116.311 306.112C118.188 306.112 119.895 305.941 121.431 305.6C123.009 305.259 124.247 304.896 125.143 304.512L126.167 310.848C125.74 311.061 125.143 311.296 124.375 311.552C123.649 311.765 122.796 311.957 121.815 312.128C120.876 312.341 119.852 312.512 118.743 312.64C117.633 312.768 116.503 312.832 115.351 312.832C112.407 312.832 109.847 312.405 107.671 311.552C105.495 310.656 103.703 309.44 102.295 307.904C100.887 306.325 99.8412 304.491 99.1585 302.4C98.4758 300.267 98.1345 297.941 98.1345 295.424ZM120.599 291.968C120.599 290.901 120.449 289.899 120.151 288.96C119.852 287.979 119.404 287.147 118.807 286.464C118.252 285.739 117.548 285.184 116.695 284.8C115.884 284.373 114.903 284.16 113.751 284.16C112.556 284.16 111.511 284.395 110.615 284.864C109.719 285.291 108.951 285.867 108.311 286.592C107.713 287.317 107.244 288.149 106.903 289.088C106.561 290.027 106.327 290.987 106.199 291.968H120.599ZM145.257 283.84C145.257 285.333 144.745 286.549 143.721 287.488C142.74 288.427 141.545 288.896 140.137 288.896C138.686 288.896 137.47 288.427 136.489 287.488C135.508 286.549 135.017 285.333 135.017 283.84C135.017 282.347 135.508 281.131 136.489 280.192C137.47 279.211 138.686 278.72 140.137 278.72C141.545 278.72 142.74 279.211 143.721 280.192C144.745 281.131 145.257 282.347 145.257 283.84ZM145.257 307.776C145.257 309.269 144.745 310.485 143.721 311.424C142.74 312.363 141.545 312.832 140.137 312.832C138.686 312.832 137.47 312.363 136.489 311.424C135.508 310.485 135.017 309.269 135.017 307.776C135.017 306.283 135.508 305.067 136.489 304.128C137.47 303.147 138.686 302.656 140.137 302.656C141.545 302.656 142.74 303.147 143.721 304.128C144.745 305.067 145.257 306.283 145.257 307.776ZM182.251 262.336C183.872 262.336 185.237 262.464 186.347 262.72C187.499 262.976 188.395 263.232 189.035 263.488L187.819 269.76C187.221 269.547 186.496 269.355 185.643 269.184C184.832 269.013 183.936 268.928 182.955 268.928C180.395 268.928 178.624 269.611 177.643 270.976C176.704 272.341 176.235 274.112 176.235 276.288V278.528H188.523V284.992H176.235V312H168.491V276.16C168.491 271.808 169.621 268.416 171.883 265.984C174.144 263.552 177.6 262.336 182.251 262.336ZM206.123 312.64C203.819 312.597 201.899 312.341 200.363 311.872C198.869 311.403 197.675 310.741 196.779 309.888C195.883 308.992 195.243 307.904 194.859 306.624C194.517 305.301 194.347 303.808 194.347 302.144V263.616L202.091 262.336V300.672C202.091 301.611 202.155 302.4 202.283 303.04C202.453 303.68 202.731 304.235 203.115 304.704C203.499 305.131 204.011 305.472 204.651 305.728C205.333 305.941 206.187 306.112 207.211 306.24L206.123 312.64ZM211.635 295.424C211.635 292.48 212.061 289.899 212.915 287.68C213.811 285.461 214.984 283.627 216.435 282.176C217.885 280.683 219.549 279.573 221.427 278.848C223.304 278.08 225.224 277.696 227.187 277.696C231.795 277.696 235.379 279.125 237.939 281.984C240.541 284.843 241.843 289.109 241.843 294.784C241.843 295.211 241.821 295.701 241.779 296.256C241.779 296.768 241.757 297.237 241.715 297.664H219.635C219.848 300.352 220.787 302.443 222.451 303.936C224.157 305.387 226.611 306.112 229.811 306.112C231.688 306.112 233.395 305.941 234.931 305.6C236.509 305.259 237.747 304.896 238.643 304.512L239.667 310.848C239.24 311.061 238.643 311.296 237.875 311.552C237.149 311.765 236.296 311.957 235.315 312.128C234.376 312.341 233.352 312.512 232.243 312.64C231.133 312.768 230.003 312.832 228.851 312.832C225.907 312.832 223.347 312.405 221.171 311.552C218.995 310.656 217.203 309.44 215.795 307.904C214.387 306.325 213.341 304.491 212.659 302.4C211.976 300.267 211.635 297.941 211.635 295.424ZM234.099 291.968C234.099 290.901 233.949 289.899 233.651 288.96C233.352 287.979 232.904 287.147 232.307 286.464C231.752 285.739 231.048 285.184 230.195 284.8C229.384 284.373 228.403 284.16 227.251 284.16C226.056 284.16 225.011 284.395 224.115 284.864C223.219 285.291 222.451 285.867 221.811 286.592C221.213 287.317 220.744 288.149 220.403 289.088C220.061 290.027 219.827 290.987 219.699 291.968H234.099ZM262.085 289.472L269.189 278.528H277.317L266.309 294.336C268.613 297.323 270.81 300.352 272.901 303.424C275.034 306.453 276.784 309.312 278.149 312H269.765C269.381 311.189 268.869 310.272 268.229 309.248C267.632 308.181 266.97 307.093 266.245 305.984C265.562 304.832 264.837 303.701 264.069 302.592C263.301 301.483 262.554 300.437 261.829 299.456C260.336 301.376 258.864 303.509 257.413 305.856C256.005 308.16 254.832 310.208 253.893 312H245.957C246.597 310.72 247.365 309.355 248.261 307.904C249.157 306.453 250.117 304.981 251.141 303.488C252.165 301.952 253.21 300.437 254.277 298.944C255.386 297.408 256.474 295.957 257.541 294.592L246.469 278.528H254.981L262.085 289.472ZM300.146 323.84H292.209L313.842 261.888H321.65L300.146 323.84ZM346.508 294.4C346.508 297.685 347.212 300.096 348.62 301.632C350.071 303.125 351.927 303.872 354.188 303.872C355.425 303.872 356.577 303.701 357.644 303.36C358.753 303.019 359.649 302.613 360.332 302.144V284.8C359.777 284.672 359.095 284.565 358.284 284.48C357.473 284.352 356.449 284.288 355.212 284.288C352.396 284.288 350.241 285.227 348.748 287.104C347.255 288.939 346.508 291.371 346.508 294.4ZM368.076 308.608C368.076 313.941 366.711 317.845 363.98 320.32C361.292 322.795 357.153 324.032 351.564 324.032C349.516 324.032 347.511 323.861 345.548 323.52C343.628 323.179 341.879 322.731 340.3 322.176L341.708 315.584C343.031 316.139 344.524 316.587 346.188 316.928C347.895 317.269 349.729 317.44 351.692 317.44C354.807 317.44 357.025 316.8 358.348 315.52C359.671 314.24 360.332 312.341 360.332 309.824V308.544C359.564 308.928 358.54 309.312 357.26 309.696C356.023 310.08 354.593 310.272 352.972 310.272C350.839 310.272 348.876 309.931 347.084 309.248C345.335 308.565 343.82 307.563 342.54 306.24C341.303 304.917 340.321 303.275 339.596 301.312C338.913 299.307 338.572 297.003 338.572 294.4C338.572 291.968 338.935 289.728 339.66 287.68C340.428 285.632 341.516 283.883 342.924 282.432C344.375 280.981 346.124 279.851 348.172 279.04C350.22 278.229 352.545 277.824 355.148 277.824C357.665 277.824 360.055 278.016 362.316 278.4C364.577 278.784 366.497 279.189 368.076 279.616V308.608ZM397 285.504C396.36 285.291 395.464 285.077 394.312 284.864C393.203 284.608 391.901 284.48 390.408 284.48C389.555 284.48 388.637 284.565 387.656 284.736C386.717 284.907 386.056 285.056 385.672 285.184V312H377.928V280.128C379.421 279.573 381.277 279.061 383.496 278.592C385.757 278.08 388.253 277.824 390.984 277.824C391.496 277.824 392.093 277.867 392.776 277.952C393.459 277.995 394.141 278.08 394.824 278.208C395.507 278.293 396.168 278.421 396.808 278.592C397.448 278.72 397.96 278.848 398.344 278.976L397 285.504ZM411.549 312H403.805V278.528H411.549V312ZM412.381 268.736C412.381 270.187 411.911 271.339 410.973 272.192C410.034 273.045 408.925 273.472 407.645 273.472C406.322 273.472 405.191 273.045 404.253 272.192C403.314 271.339 402.845 270.187 402.845 268.736C402.845 267.243 403.314 266.069 404.253 265.216C405.191 264.363 406.322 263.936 407.645 263.936C408.925 263.936 410.034 264.363 410.973 265.216C411.911 266.069 412.381 267.243 412.381 268.736ZM427.508 295.168C427.508 298.581 428.319 301.269 429.94 303.232C431.561 305.152 433.801 306.112 436.66 306.112C437.897 306.112 438.943 306.069 439.796 305.984C440.692 305.856 441.417 305.728 441.972 305.6V286.4C441.289 285.931 440.372 285.504 439.22 285.12C438.111 284.693 436.916 284.48 435.636 284.48C432.82 284.48 430.751 285.44 429.428 287.36C428.148 289.28 427.508 291.883 427.508 295.168ZM449.716 310.976C448.18 311.445 446.239 311.872 443.892 312.256C441.588 312.64 439.156 312.832 436.596 312.832C433.951 312.832 431.583 312.427 429.492 311.616C427.401 310.805 425.609 309.653 424.116 308.16C422.665 306.624 421.535 304.789 420.724 302.656C419.956 300.48 419.572 298.048 419.572 295.36C419.572 292.715 419.892 290.325 420.532 288.192C421.215 286.016 422.196 284.16 423.476 282.624C424.756 281.088 426.313 279.915 428.148 279.104C429.983 278.251 432.095 277.824 434.484 277.824C436.105 277.824 437.535 278.016 438.772 278.4C440.009 278.784 441.076 279.211 441.972 279.68V263.616L449.716 262.336V310.976Z" fill="#60195E"/>
<path d="M3.072 369.424C3.072 366.48 3.49867 363.899 4.352 361.68C5.248 359.461 6.42133 357.627 7.872 356.176C9.32267 354.683 10.9867 353.573 12.864 352.848C14.7413 352.08 16.6613 351.696 18.624 351.696C23.232 351.696 26.816 353.125 29.376 355.984C31.9787 358.843 33.28 363.109 33.28 368.784C33.28 369.211 33.2587 369.701 33.216 370.256C33.216 370.768 33.1947 371.237 33.152 371.664H11.072C11.2853 374.352 12.224 376.443 13.888 377.936C15.5947 379.387 18.048 380.112 21.248 380.112C23.1253 380.112 24.832 379.941 26.368 379.6C27.9467 379.259 29.184 378.896 30.08 378.512L31.104 384.848C30.6773 385.061 30.08 385.296 29.312 385.552C28.5867 385.765 27.7333 385.957 26.752 386.128C25.8133 386.341 24.7893 386.512 23.68 386.64C22.5707 386.768 21.44 386.832 20.288 386.832C17.344 386.832 14.784 386.405 12.608 385.552C10.432 384.656 8.64 383.44 7.232 381.904C5.824 380.325 4.77867 378.491 4.096 376.4C3.41333 374.267 3.072 371.941 3.072 369.424ZM25.536 365.968C25.536 364.901 25.3867 363.899 25.088 362.96C24.7893 361.979 24.3413 361.147 23.744 360.464C23.1893 359.739 22.4853 359.184 21.632 358.8C20.8213 358.373 19.84 358.16 18.688 358.16C17.4933 358.16 16.448 358.395 15.552 358.864C14.656 359.291 13.888 359.867 13.248 360.592C12.6507 361.317 12.1813 362.149 11.84 363.088C11.4987 364.027 11.264 364.987 11.136 365.968H25.536ZM47.5705 369.424C47.5705 372.667 48.2105 375.248 49.4905 377.168C50.8132 379.088 52.8825 380.048 55.6985 380.048C56.9785 380.048 58.1732 379.856 59.2825 379.472C60.4345 379.045 61.3518 378.597 62.0345 378.128V358.992C61.4798 358.864 60.7758 358.757 59.9225 358.672C59.1118 358.544 58.0452 358.48 56.7225 358.48C53.8638 358.48 51.6238 359.461 50.0025 361.424C48.3812 363.344 47.5705 366.011 47.5705 369.424ZM39.6345 369.296C39.6345 366.651 40.0185 364.261 40.7865 362.128C41.5972 359.952 42.7278 358.117 44.1785 356.624C45.6718 355.088 47.4638 353.915 49.5545 353.104C51.6452 352.251 54.0132 351.824 56.6585 351.824C59.3038 351.824 61.7785 352.016 64.0825 352.4C66.3865 352.784 68.2852 353.189 69.7785 353.616V397.84H62.0345V384.848C61.1385 385.317 60.0292 385.744 58.7065 386.128C57.4265 386.512 55.9972 386.704 54.4185 386.704C52.0292 386.704 49.9172 386.299 48.0825 385.488C46.2478 384.635 44.7118 383.44 43.4745 381.904C42.2372 380.368 41.2772 378.533 40.5945 376.4C39.9545 374.267 39.6345 371.899 39.6345 369.296ZM107.072 384.976C105.578 385.36 103.637 385.744 101.248 386.128C98.8582 386.555 96.2342 386.768 93.3755 386.768C90.6875 386.768 88.4262 386.384 86.5915 385.616C84.7995 384.848 83.3488 383.781 82.2395 382.416C81.1728 381.051 80.4048 379.429 79.9355 377.552C79.4662 375.632 79.2315 373.541 79.2315 371.28V352.528H86.9755V370.064C86.9755 373.648 87.4875 376.208 88.5115 377.744C89.5782 379.28 91.4128 380.048 94.0155 380.048C94.9542 380.048 95.9355 380.005 96.9595 379.92C98.0262 379.835 98.8155 379.728 99.3275 379.6V352.528H107.072V384.976ZM124.736 386H116.992V352.528H124.736V386ZM125.568 342.736C125.568 344.187 125.099 345.339 124.16 346.192C123.221 347.045 122.112 347.472 120.832 347.472C119.509 347.472 118.379 347.045 117.44 346.192C116.501 345.339 116.032 344.187 116.032 342.736C116.032 341.243 116.501 340.069 117.44 339.216C118.379 338.363 119.509 337.936 120.832 337.936C122.112 337.936 123.221 338.363 124.16 339.216C125.099 340.069 125.568 341.243 125.568 342.736ZM143.192 386C141.058 381.605 138.861 376.571 136.6 370.896C134.381 365.179 132.354 359.056 130.52 352.528H138.776C139.245 354.405 139.778 356.432 140.376 358.608C141.016 360.741 141.677 362.896 142.36 365.072C143.085 367.205 143.81 369.296 144.536 371.344C145.304 373.349 146.008 375.163 146.648 376.784C147.288 375.163 147.97 373.349 148.696 371.344C149.421 369.296 150.125 367.205 150.808 365.072C151.533 362.896 152.216 360.741 152.856 358.608C153.496 356.432 154.05 354.405 154.52 352.528H162.52C160.685 359.056 158.637 365.179 156.376 370.896C154.157 376.571 151.981 381.605 149.848 386H143.192ZM180.079 380.56C182.468 380.56 184.282 380.432 185.519 380.176V371.6C185.092 371.472 184.474 371.344 183.663 371.216C182.852 371.088 181.956 371.024 180.975 371.024C180.122 371.024 179.247 371.088 178.351 371.216C177.498 371.344 176.708 371.579 175.983 371.92C175.3 372.261 174.746 372.752 174.319 373.392C173.892 373.989 173.679 374.757 173.679 375.696C173.679 377.531 174.255 378.811 175.407 379.536C176.559 380.219 178.116 380.56 180.079 380.56ZM179.439 351.696C181.999 351.696 184.154 352.016 185.903 352.656C187.652 353.296 189.039 354.192 190.063 355.344C191.13 356.496 191.876 357.904 192.303 359.568C192.772 361.189 193.007 362.981 193.007 364.944V385.232C191.812 385.488 189.999 385.787 187.567 386.128C185.178 386.512 182.468 386.704 179.439 386.704C177.434 386.704 175.599 386.512 173.935 386.128C172.271 385.744 170.842 385.125 169.647 384.272C168.495 383.419 167.578 382.309 166.895 380.944C166.255 379.579 165.935 377.893 165.935 375.888C165.935 373.968 166.298 372.347 167.023 371.024C167.791 369.701 168.815 368.635 170.095 367.824C171.375 366.971 172.847 366.373 174.511 366.032C176.218 365.648 177.988 365.456 179.823 365.456C180.676 365.456 181.572 365.52 182.511 365.648C183.45 365.733 184.452 365.904 185.519 366.16V364.88C185.519 363.984 185.412 363.131 185.199 362.32C184.986 361.509 184.602 360.805 184.047 360.208C183.535 359.568 182.831 359.077 181.935 358.736C181.082 358.395 179.994 358.224 178.671 358.224C176.879 358.224 175.236 358.352 173.743 358.608C172.25 358.864 171.034 359.163 170.095 359.504L169.135 353.232C170.116 352.891 171.546 352.549 173.423 352.208C175.3 351.867 177.306 351.696 179.439 351.696ZM214.139 386.64C211.835 386.597 209.915 386.341 208.379 385.872C206.885 385.403 205.691 384.741 204.795 383.888C203.899 382.992 203.259 381.904 202.875 380.624C202.533 379.301 202.363 377.808 202.363 376.144V337.616L210.107 336.336V374.672C210.107 375.611 210.171 376.4 210.299 377.04C210.469 377.68 210.747 378.235 211.131 378.704C211.515 379.131 212.027 379.472 212.667 379.728C213.349 379.941 214.203 380.112 215.227 380.24L214.139 386.64ZM219.635 369.424C219.635 366.48 220.061 363.899 220.915 361.68C221.811 359.461 222.984 357.627 224.435 356.176C225.885 354.683 227.549 353.573 229.427 352.848C231.304 352.08 233.224 351.696 235.187 351.696C239.795 351.696 243.379 353.125 245.939 355.984C248.541 358.843 249.843 363.109 249.843 368.784C249.843 369.211 249.821 369.701 249.779 370.256C249.779 370.768 249.757 371.237 249.715 371.664H227.635C227.848 374.352 228.787 376.443 230.451 377.936C232.157 379.387 234.611 380.112 237.811 380.112C239.688 380.112 241.395 379.941 242.931 379.6C244.509 379.259 245.747 378.896 246.643 378.512L247.667 384.848C247.24 385.061 246.643 385.296 245.875 385.552C245.149 385.765 244.296 385.957 243.315 386.128C242.376 386.341 241.352 386.512 240.243 386.64C239.133 386.768 238.003 386.832 236.851 386.832C233.907 386.832 231.347 386.405 229.171 385.552C226.995 384.656 225.203 383.44 223.795 381.904C222.387 380.325 221.341 378.491 220.659 376.4C219.976 374.267 219.635 371.941 219.635 369.424ZM242.099 365.968C242.099 364.901 241.949 363.899 241.651 362.96C241.352 361.979 240.904 361.147 240.307 360.464C239.752 359.739 239.048 359.184 238.195 358.8C237.384 358.373 236.403 358.16 235.251 358.16C234.056 358.16 233.011 358.395 232.115 358.864C231.219 359.291 230.451 359.867 229.811 360.592C229.213 361.317 228.744 362.149 228.403 363.088C228.061 364.027 227.827 364.987 227.699 365.968H242.099ZM258.053 353.616C259.546 353.189 261.488 352.784 263.877 352.4C266.266 352.016 268.912 351.824 271.813 351.824C274.544 351.824 276.826 352.208 278.661 352.976C280.496 353.701 281.946 354.747 283.013 356.112C284.122 357.435 284.89 359.056 285.317 360.976C285.786 362.853 286.021 364.923 286.021 367.184V386H278.277V368.4C278.277 366.608 278.149 365.093 277.893 363.856C277.68 362.576 277.296 361.552 276.741 360.784C276.229 359.973 275.504 359.397 274.565 359.056C273.669 358.672 272.56 358.48 271.237 358.48C270.256 358.48 269.232 358.544 268.165 358.672C267.098 358.8 266.309 358.907 265.797 358.992V386H258.053V353.616ZM295.107 343.696L302.851 342.416V352.528H314.755V358.992H302.851V372.624C302.851 375.312 303.277 377.232 304.131 378.384C304.984 379.536 306.435 380.112 308.483 380.112C309.891 380.112 311.128 379.963 312.195 379.664C313.304 379.365 314.179 379.088 314.819 378.832L316.099 384.976C315.203 385.36 314.029 385.744 312.579 386.128C311.128 386.555 309.421 386.768 307.458 386.768C305.069 386.768 303.064 386.448 301.443 385.808C299.864 385.168 298.605 384.251 297.667 383.056C296.728 381.819 296.067 380.347 295.683 378.64C295.299 376.891 295.107 374.907 295.107 372.688V343.696ZM335.322 369.296C335.322 366.821 335.706 364.517 336.474 362.384C337.242 360.208 338.33 358.331 339.738 356.752C341.189 355.173 342.938 353.936 344.986 353.04C347.034 352.144 349.338 351.696 351.898 351.696C355.055 351.696 358.042 352.272 360.858 353.424L359.194 359.76C358.298 359.376 357.274 359.056 356.122 358.8C355.013 358.544 353.818 358.416 352.538 358.416C349.509 358.416 347.205 359.376 345.626 361.296C344.047 363.173 343.258 365.84 343.258 369.296C343.258 372.624 344.005 375.269 345.498 377.232C346.991 379.152 349.509 380.112 353.05 380.112C354.373 380.112 355.674 379.984 356.954 379.728C358.234 379.472 359.343 379.152 360.282 378.768L361.37 385.168C360.517 385.595 359.215 385.979 357.466 386.32C355.759 386.661 353.989 386.832 352.154 386.832C349.295 386.832 346.799 386.405 344.666 385.552C342.575 384.656 340.826 383.44 339.418 381.904C338.053 380.325 337.029 378.469 336.346 376.336C335.663 374.16 335.322 371.813 335.322 369.296ZM375.75 380.432C377.798 380.432 379.291 380.197 380.23 379.728C381.168 379.216 381.638 378.363 381.638 377.168C381.638 376.059 381.126 375.141 380.102 374.416C379.12 373.691 377.478 372.901 375.174 372.048C373.766 371.536 372.464 371.003 371.27 370.448C370.118 369.851 369.115 369.168 368.262 368.4C367.408 367.632 366.726 366.715 366.214 365.648C365.744 364.539 365.51 363.195 365.51 361.616C365.51 358.544 366.64 356.133 368.902 354.384C371.163 352.592 374.235 351.696 378.118 351.696C380.08 351.696 381.958 351.888 383.75 352.272C385.542 352.613 386.886 352.955 387.782 353.296L386.374 359.568C385.52 359.184 384.432 358.843 383.11 358.544C381.787 358.203 380.251 358.032 378.502 358.032C376.923 358.032 375.643 358.309 374.662 358.864C373.68 359.376 373.19 360.187 373.19 361.296C373.19 361.851 373.275 362.341 373.446 362.768C373.659 363.195 374 363.6 374.47 363.984C374.939 364.325 375.558 364.688 376.326 365.072C377.094 365.413 378.032 365.776 379.142 366.16C380.976 366.843 382.534 367.525 383.814 368.208C385.094 368.848 386.139 369.595 386.95 370.448C387.803 371.259 388.422 372.197 388.806 373.264C389.19 374.331 389.382 375.611 389.382 377.104C389.382 380.304 388.187 382.736 385.798 384.4C383.451 386.021 380.08 386.832 375.686 386.832C372.742 386.832 370.374 386.576 368.582 386.064C366.79 385.595 365.531 385.211 364.806 384.912L366.15 378.448C367.302 378.917 368.667 379.365 370.246 379.792C371.867 380.219 373.702 380.432 375.75 380.432ZM405 380.432C407.048 380.432 408.541 380.197 409.48 379.728C410.418 379.216 410.888 378.363 410.888 377.168C410.888 376.059 410.376 375.141 409.352 374.416C408.37 373.691 406.728 372.901 404.424 372.048C403.016 371.536 401.714 371.003 400.52 370.448C399.368 369.851 398.365 369.168 397.512 368.4C396.658 367.632 395.976 366.715 395.464 365.648C394.994 364.539 394.76 363.195 394.76 361.616C394.76 358.544 395.89 356.133 398.152 354.384C400.413 352.592 403.485 351.696 407.368 351.696C409.33 351.696 411.208 351.888 413 352.272C414.792 352.613 416.136 352.955 417.032 353.296L415.624 359.568C414.77 359.184 413.682 358.843 412.36 358.544C411.037 358.203 409.501 358.032 407.752 358.032C406.173 358.032 404.893 358.309 403.912 358.864C402.93 359.376 402.44 360.187 402.44 361.296C402.44 361.851 402.525 362.341 402.696 362.768C402.909 363.195 403.25 363.6 403.72 363.984C404.189 364.325 404.808 364.688 405.576 365.072C406.344 365.413 407.282 365.776 408.392 366.16C410.226 366.843 411.784 367.525 413.064 368.208C414.344 368.848 415.389 369.595 416.2 370.448C417.053 371.259 417.672 372.197 418.056 373.264C418.44 374.331 418.632 375.611 418.632 377.104C418.632 380.304 417.437 382.736 415.048 384.4C412.701 386.021 409.33 386.832 404.936 386.832C401.992 386.832 399.624 386.576 397.832 386.064C396.04 385.595 394.781 385.211 394.056 384.912L395.4 378.448C396.552 378.917 397.917 379.365 399.496 379.792C401.117 380.219 402.952 380.432 405 380.432ZM434.57 357.84C434.57 359.333 434.058 360.549 433.034 361.488C432.052 362.427 430.858 362.896 429.45 362.896C427.999 362.896 426.783 362.427 425.802 361.488C424.82 360.549 424.33 359.333 424.33 357.84C424.33 356.347 424.82 355.131 425.802 354.192C426.783 353.211 427.999 352.72 429.45 352.72C430.858 352.72 432.052 353.211 433.034 354.192C434.058 355.131 434.57 356.347 434.57 357.84ZM434.57 381.776C434.57 383.269 434.058 384.485 433.034 385.424C432.052 386.363 430.858 386.832 429.45 386.832C427.999 386.832 426.783 386.363 425.802 385.424C424.82 384.485 424.33 383.269 424.33 381.776C424.33 380.283 424.82 379.067 425.802 378.128C426.783 377.147 427.999 376.656 429.45 376.656C430.858 376.656 432.052 377.147 433.034 378.128C434.058 379.067 434.57 380.283 434.57 381.776ZM463.883 368.4C463.883 371.685 464.587 374.096 465.995 375.632C467.446 377.125 469.302 377.872 471.563 377.872C472.8 377.872 473.952 377.701 475.019 377.36C476.128 377.019 477.024 376.613 477.707 376.144V358.8C477.152 358.672 476.47 358.565 475.659 358.48C474.848 358.352 473.824 358.288 472.587 358.288C469.771 358.288 467.616 359.227 466.123 361.104C464.63 362.939 463.883 365.371 463.883 368.4ZM485.451 382.608C485.451 387.941 484.086 391.845 481.355 394.32C478.667 396.795 474.528 398.032 468.939 398.032C466.891 398.032 464.886 397.861 462.923 397.52C461.003 397.179 459.254 396.731 457.675 396.176L459.083 389.584C460.406 390.139 461.899 390.587 463.563 390.928C465.27 391.269 467.104 391.44 469.067 391.44C472.182 391.44 474.4 390.8 475.723 389.52C477.046 388.24 477.707 386.341 477.707 383.824V382.544C476.939 382.928 475.915 383.312 474.635 383.696C473.398 384.08 471.968 384.272 470.347 384.272C468.214 384.272 466.251 383.931 464.459 383.248C462.71 382.565 461.195 381.563 459.915 380.24C458.678 378.917 457.696 377.275 456.971 375.312C456.288 373.307 455.947 371.003 455.947 368.4C455.947 365.968 456.31 363.728 457.035 361.68C457.803 359.632 458.891 357.883 460.299 356.432C461.75 354.981 463.499 353.851 465.547 353.04C467.595 352.229 469.92 351.824 472.523 351.824C475.04 351.824 477.43 352.016 479.691 352.4C481.952 352.784 483.872 353.189 485.451 353.616V382.608ZM507.079 380.56C509.468 380.56 511.282 380.432 512.519 380.176V371.6C512.092 371.472 511.474 371.344 510.663 371.216C509.852 371.088 508.956 371.024 507.975 371.024C507.122 371.024 506.247 371.088 505.351 371.216C504.498 371.344 503.708 371.579 502.983 371.92C502.3 372.261 501.746 372.752 501.319 373.392C500.892 373.989 500.679 374.757 500.679 375.696C500.679 377.531 501.255 378.811 502.407 379.536C503.559 380.219 505.116 380.56 507.079 380.56ZM506.439 351.696C508.999 351.696 511.154 352.016 512.903 352.656C514.652 353.296 516.039 354.192 517.063 355.344C518.13 356.496 518.876 357.904 519.303 359.568C519.772 361.189 520.007 362.981 520.007 364.944V385.232C518.812 385.488 516.999 385.787 514.567 386.128C512.178 386.512 509.468 386.704 506.439 386.704C504.434 386.704 502.599 386.512 500.935 386.128C499.271 385.744 497.842 385.125 496.647 384.272C495.495 383.419 494.578 382.309 493.895 380.944C493.255 379.579 492.935 377.893 492.935 375.888C492.935 373.968 493.298 372.347 494.023 371.024C494.791 369.701 495.815 368.635 497.095 367.824C498.375 366.971 499.847 366.373 501.511 366.032C503.218 365.648 504.988 365.456 506.823 365.456C507.676 365.456 508.572 365.52 509.511 365.648C510.45 365.733 511.452 365.904 512.519 366.16V364.88C512.519 363.984 512.412 363.131 512.199 362.32C511.986 361.509 511.602 360.805 511.047 360.208C510.535 359.568 509.831 359.077 508.935 358.736C508.082 358.395 506.994 358.224 505.671 358.224C503.879 358.224 502.236 358.352 500.743 358.608C499.25 358.864 498.034 359.163 497.095 359.504L496.135 353.232C497.116 352.891 498.546 352.549 500.423 352.208C502.3 351.867 504.306 351.696 506.439 351.696ZM551.699 369.424C551.699 365.968 550.909 363.28 549.331 361.36C547.795 359.44 545.299 358.48 541.843 358.48C541.117 358.48 540.349 358.523 539.539 358.608C538.771 358.651 538.003 358.779 537.235 358.992V378.128C537.917 378.597 538.813 379.045 539.923 379.472C541.075 379.856 542.291 380.048 543.571 380.048C546.387 380.048 548.435 379.088 549.715 377.168C551.037 375.248 551.699 372.667 551.699 369.424ZM559.635 369.296C559.635 371.856 559.293 374.203 558.611 376.336C557.971 378.469 557.032 380.304 555.795 381.84C554.557 383.376 553 384.571 551.123 385.424C549.288 386.277 547.197 386.704 544.851 386.704C543.272 386.704 541.821 386.512 540.499 386.128C539.176 385.744 538.088 385.317 537.235 384.848V397.84H529.491V353.616C531.069 353.189 533.011 352.784 535.315 352.4C537.619 352.016 540.051 351.824 542.611 351.824C545.256 351.824 547.624 352.229 549.715 353.04C551.805 353.851 553.576 355.024 555.027 356.56C556.52 358.053 557.651 359.888 558.419 362.064C559.229 364.197 559.635 366.608 559.635 369.296ZM586.01 373.143C586.01 376.669 586.54 379.98 587.601 383.076C588.662 386.172 590.138 388.996 592.03 391.547L588.375 393.955C586.053 391.174 584.218 388.021 582.871 384.495C581.524 380.94 580.85 377.156 580.85 373.143C580.85 369.13 581.524 365.36 582.871 361.834C584.218 358.279 586.053 355.112 588.375 352.331L592.03 354.739C590.138 357.319 588.662 360.157 587.601 363.253C586.54 366.32 586.01 369.617 586.01 373.143ZM608.321 368.198C607.891 368.055 607.289 367.911 606.515 367.768C605.77 367.596 604.896 367.51 603.892 367.51C603.319 367.51 602.703 367.567 602.043 367.682C601.413 367.797 600.968 367.897 600.71 367.983V386H595.507V364.586C596.511 364.213 597.758 363.869 599.248 363.554C600.768 363.21 602.445 363.038 604.279 363.038C604.623 363.038 605.025 363.067 605.483 363.124C605.942 363.153 606.401 363.21 606.859 363.296C607.318 363.353 607.762 363.439 608.192 363.554C608.622 363.64 608.966 363.726 609.224 363.812L608.321 368.198ZM633.189 374.734C633.189 376.511 632.931 378.131 632.415 379.593C631.899 381.055 631.168 382.302 630.222 383.334C629.276 384.366 628.129 385.169 626.782 385.742C625.463 386.315 624.001 386.602 622.396 386.602C620.791 386.602 619.329 386.315 618.01 385.742C616.691 385.169 615.559 384.366 614.613 383.334C613.667 382.302 612.922 381.055 612.377 379.593C611.861 378.131 611.603 376.511 611.603 374.734C611.603 372.957 611.861 371.351 612.377 369.918C612.922 368.456 613.667 367.209 614.613 366.177C615.588 365.145 616.734 364.357 618.053 363.812C619.372 363.239 620.819 362.952 622.396 362.952C623.973 362.952 625.42 363.239 626.739 363.812C628.086 364.357 629.233 365.145 630.179 366.177C631.125 367.209 631.856 368.456 632.372 369.918C632.917 371.351 633.189 372.957 633.189 374.734ZM627.857 374.734C627.857 372.498 627.37 370.735 626.395 369.445C625.449 368.126 624.116 367.467 622.396 367.467C620.676 367.467 619.329 368.126 618.354 369.445C617.408 370.735 616.935 372.498 616.935 374.734C616.935 376.999 617.408 378.79 618.354 380.109C619.329 381.428 620.676 382.087 622.396 382.087C624.116 382.087 625.449 381.428 626.395 380.109C627.37 378.79 627.857 376.999 627.857 374.734ZM651.503 371.853C650.844 374.376 650.127 376.841 649.353 379.249C648.608 381.628 647.863 383.879 647.117 386H642.86C642.287 384.681 641.685 383.176 641.054 381.485C640.424 379.794 639.793 377.988 639.162 376.067C638.532 374.146 637.901 372.125 637.27 370.004C636.64 367.883 636.023 365.718 635.421 363.511H640.925C641.183 364.715 641.484 366.019 641.828 367.424C642.172 368.8 642.531 370.219 642.903 371.681C643.276 373.114 643.663 374.519 644.064 375.895C644.466 377.271 644.867 378.532 645.268 379.679C645.698 378.36 646.114 376.999 646.515 375.594C646.945 374.189 647.347 372.785 647.719 371.38C648.092 369.975 648.436 368.614 648.751 367.295C649.095 365.948 649.396 364.686 649.654 363.511H653.653C653.911 364.686 654.198 365.948 654.513 367.295C654.829 368.614 655.158 369.975 655.502 371.38C655.875 372.785 656.262 374.189 656.663 375.594C657.093 376.999 657.523 378.36 657.953 379.679C658.326 378.532 658.713 377.271 659.114 375.895C659.516 374.519 659.903 373.114 660.275 371.681C660.677 370.219 661.049 368.8 661.393 367.424C661.737 366.019 662.038 364.715 662.296 363.511H667.671C667.069 365.718 666.453 367.883 665.822 370.004C665.192 372.125 664.561 374.146 663.93 376.067C663.3 377.988 662.669 379.794 662.038 381.485C661.408 383.176 660.791 384.681 660.189 386H655.975C655.23 383.879 654.456 381.628 653.653 379.249C652.879 376.841 652.163 374.376 651.503 371.853ZM669.317 371.337H680.884V376.11H669.317V371.337ZM689.288 374.175C689.288 376.382 689.761 378.002 690.707 379.034C691.681 380.037 692.928 380.539 694.448 380.539C695.279 380.539 696.053 380.424 696.77 380.195C697.515 379.966 698.117 379.693 698.576 379.378V367.725C698.203 367.639 697.744 367.567 697.2 367.51C696.655 367.424 695.967 367.381 695.136 367.381C693.244 367.381 691.796 368.012 690.793 369.273C689.789 370.506 689.288 372.14 689.288 374.175ZM703.779 383.721C703.779 387.304 702.861 389.927 701.027 391.59C699.221 393.253 696.44 394.084 692.685 394.084C691.309 394.084 689.961 393.969 688.643 393.74C687.353 393.511 686.177 393.21 685.117 392.837L686.063 388.408C686.951 388.781 687.955 389.082 689.073 389.311C690.219 389.54 691.452 389.655 692.771 389.655C694.863 389.655 696.354 389.225 697.243 388.365C698.131 387.505 698.576 386.229 698.576 384.538V383.678C698.06 383.936 697.372 384.194 696.512 384.452C695.68 384.71 694.72 384.839 693.631 384.839C692.197 384.839 690.879 384.61 689.675 384.151C688.499 383.692 687.482 383.019 686.622 382.13C685.79 381.241 685.131 380.138 684.644 378.819C684.185 377.472 683.956 375.924 683.956 374.175C683.956 372.541 684.199 371.036 684.687 369.66C685.203 368.284 685.934 367.109 686.88 366.134C687.854 365.159 689.03 364.4 690.406 363.855C691.782 363.31 693.344 363.038 695.093 363.038C696.784 363.038 698.389 363.167 699.909 363.425C701.428 363.683 702.718 363.955 703.779 364.242V383.721ZM718.31 382.345C719.915 382.345 721.134 382.259 721.965 382.087V376.325C721.678 376.239 721.263 376.153 720.718 376.067C720.173 375.981 719.571 375.938 718.912 375.938C718.339 375.938 717.751 375.981 717.149 376.067C716.576 376.153 716.045 376.311 715.558 376.54C715.099 376.769 714.727 377.099 714.44 377.529C714.153 377.93 714.01 378.446 714.01 379.077C714.01 380.31 714.397 381.17 715.171 381.657C715.945 382.116 716.991 382.345 718.31 382.345ZM717.88 362.952C719.6 362.952 721.048 363.167 722.223 363.597C723.398 364.027 724.33 364.629 725.018 365.403C725.735 366.177 726.236 367.123 726.523 368.241C726.838 369.33 726.996 370.534 726.996 371.853V385.484C726.193 385.656 724.975 385.857 723.341 386.086C721.736 386.344 719.915 386.473 717.88 386.473C716.533 386.473 715.3 386.344 714.182 386.086C713.064 385.828 712.104 385.412 711.301 384.839C710.527 384.266 709.911 383.52 709.452 382.603C709.022 381.686 708.807 380.553 708.807 379.206C708.807 377.916 709.051 376.827 709.538 375.938C710.054 375.049 710.742 374.333 711.602 373.788C712.462 373.215 713.451 372.813 714.569 372.584C715.716 372.326 716.905 372.197 718.138 372.197C718.711 372.197 719.313 372.24 719.944 372.326C720.575 372.383 721.248 372.498 721.965 372.67V371.81C721.965 371.208 721.893 370.635 721.75 370.09C721.607 369.545 721.349 369.072 720.976 368.671C720.632 368.241 720.159 367.911 719.557 367.682C718.984 367.453 718.253 367.338 717.364 367.338C716.16 367.338 715.056 367.424 714.053 367.596C713.05 367.768 712.233 367.969 711.602 368.198L710.957 363.984C711.616 363.755 712.577 363.525 713.838 363.296C715.099 363.067 716.447 362.952 717.88 362.952ZM748.289 374.863C748.289 372.541 747.758 370.735 746.698 369.445C745.666 368.155 743.989 367.51 741.667 367.51C741.179 367.51 740.663 367.539 740.119 367.596C739.603 367.625 739.087 367.711 738.571 367.854V380.711C739.029 381.026 739.631 381.327 740.377 381.614C741.151 381.872 741.968 382.001 742.828 382.001C744.72 382.001 746.096 381.356 746.956 380.066C747.844 378.776 748.289 377.042 748.289 374.863ZM753.621 374.777C753.621 376.497 753.391 378.074 752.933 379.507C752.503 380.94 751.872 382.173 751.041 383.205C750.209 384.237 749.163 385.04 747.902 385.613C746.669 386.186 745.264 386.473 743.688 386.473C742.627 386.473 741.652 386.344 740.764 386.086C739.875 385.828 739.144 385.541 738.571 385.226V393.955H733.368V364.242C734.428 363.955 735.733 363.683 737.281 363.425C738.829 363.167 740.463 363.038 742.183 363.038C743.96 363.038 745.551 363.31 746.956 363.855C748.36 364.4 749.55 365.188 750.525 366.22C751.528 367.223 752.288 368.456 752.804 369.918C753.348 371.351 753.621 372.971 753.621 374.777ZM769.879 393.955H764.547L779.081 352.331H784.327L769.879 393.955ZM795.697 374.777C795.697 373.114 795.955 371.566 796.471 370.133C796.987 368.671 797.718 367.41 798.664 366.349C799.638 365.288 800.814 364.457 802.19 363.855C803.566 363.253 805.114 362.952 806.834 362.952C808.955 362.952 810.962 363.339 812.854 364.113L811.736 368.37C811.134 368.112 810.446 367.897 809.672 367.725C808.926 367.553 808.124 367.467 807.264 367.467C805.228 367.467 803.68 368.112 802.62 369.402C801.559 370.663 801.029 372.455 801.029 374.777C801.029 377.013 801.53 378.79 802.534 380.109C803.537 381.399 805.228 382.044 807.608 382.044C808.496 382.044 809.371 381.958 810.231 381.786C811.091 381.614 811.836 381.399 812.467 381.141L813.198 385.441C812.624 385.728 811.75 385.986 810.575 386.215C809.428 386.444 808.238 386.559 807.006 386.559C805.085 386.559 803.408 386.272 801.975 385.699C800.57 385.097 799.395 384.28 798.449 383.248C797.531 382.187 796.843 380.94 796.385 379.507C795.926 378.045 795.697 376.468 795.697 374.777ZM837.103 374.734C837.103 376.511 836.845 378.131 836.329 379.593C835.813 381.055 835.082 382.302 834.136 383.334C833.19 384.366 832.043 385.169 830.696 385.742C829.377 386.315 827.915 386.602 826.31 386.602C824.705 386.602 823.243 386.315 821.924 385.742C820.605 385.169 819.473 384.366 818.527 383.334C817.581 382.302 816.836 381.055 816.291 379.593C815.775 378.131 815.517 376.511 815.517 374.734C815.517 372.957 815.775 371.351 816.291 369.918C816.836 368.456 817.581 367.209 818.527 366.177C819.502 365.145 820.648 364.357 821.967 363.812C823.286 363.239 824.733 362.952 826.31 362.952C827.887 362.952 829.334 363.239 830.653 363.812C832 364.357 833.147 365.145 834.093 366.177C835.039 367.209 835.77 368.456 836.286 369.918C836.831 371.351 837.103 372.957 837.103 374.734ZM831.771 374.734C831.771 372.498 831.284 370.735 830.309 369.445C829.363 368.126 828.03 367.467 826.31 367.467C824.59 367.467 823.243 368.126 822.268 369.445C821.322 370.735 820.849 372.498 820.849 374.734C820.849 376.999 821.322 378.79 822.268 380.109C823.243 381.428 824.59 382.087 826.31 382.087C828.03 382.087 829.363 381.428 830.309 380.109C831.284 378.79 831.771 376.999 831.771 374.734ZM850.289 386.43C848.741 386.401 847.451 386.229 846.419 385.914C845.416 385.599 844.613 385.154 844.011 384.581C843.409 383.979 842.979 383.248 842.721 382.388C842.492 381.499 842.377 380.496 842.377 379.378V353.492L847.58 352.632V378.389C847.58 379.02 847.623 379.55 847.709 379.98C847.824 380.41 848.01 380.783 848.268 381.098C848.526 381.385 848.87 381.614 849.3 381.786C849.759 381.929 850.332 382.044 851.02 382.13L850.289 386.43ZM873.676 385.312C872.673 385.57 871.368 385.828 869.763 386.086C868.158 386.373 866.395 386.516 864.474 386.516C862.668 386.516 861.149 386.258 859.916 385.742C858.712 385.226 857.737 384.509 856.992 383.592C856.275 382.675 855.759 381.585 855.444 380.324C855.129 379.034 854.971 377.629 854.971 376.11V363.511H860.174V375.293C860.174 377.701 860.518 379.421 861.206 380.453C861.923 381.485 863.155 382.001 864.904 382.001C865.535 382.001 866.194 381.972 866.882 381.915C867.599 381.858 868.129 381.786 868.473 381.7V363.511H873.676V385.312ZM893.112 374.175C893.112 371.824 892.811 370.133 892.209 369.101C891.636 368.04 890.547 367.51 888.941 367.51C888.368 367.51 887.737 367.553 887.049 367.639C886.361 367.725 885.845 367.797 885.501 367.854V386H880.298V364.242C881.302 363.955 882.606 363.683 884.211 363.425C885.845 363.167 887.565 363.038 889.371 363.038C890.919 363.038 892.181 363.239 893.155 363.64C894.159 364.041 894.99 364.572 895.649 365.231C895.965 365.002 896.366 364.758 896.853 364.5C897.341 364.242 897.885 364.013 898.487 363.812C899.089 363.583 899.72 363.396 900.379 363.253C901.067 363.11 901.755 363.038 902.443 363.038C904.192 363.038 905.625 363.296 906.743 363.812C907.89 364.299 908.779 365.002 909.409 365.919C910.069 366.808 910.513 367.897 910.742 369.187C911 370.448 911.129 371.839 911.129 373.358V386H905.926V374.175C905.926 371.824 905.64 370.133 905.066 369.101C904.493 368.04 903.389 367.51 901.755 367.51C900.924 367.51 900.136 367.653 899.39 367.94C898.645 368.198 898.086 368.456 897.713 368.714C897.943 369.431 898.1 370.19 898.186 370.993C898.272 371.796 898.315 372.656 898.315 373.573V386H893.112V374.175ZM917.503 364.242C918.507 363.955 919.811 363.683 921.416 363.425C923.022 363.167 924.799 363.038 926.748 363.038C928.583 363.038 930.117 363.296 931.349 363.812C932.582 364.299 933.557 365.002 934.273 365.919C935.019 366.808 935.535 367.897 935.821 369.187C936.137 370.448 936.294 371.839 936.294 373.358V386H931.091V374.175C931.091 372.971 931.005 371.953 930.833 371.122C930.69 370.262 930.432 369.574 930.059 369.058C929.715 368.513 929.228 368.126 928.597 367.897C927.995 367.639 927.25 367.51 926.361 367.51C925.702 367.51 925.014 367.553 924.297 367.639C923.581 367.725 923.05 367.797 922.706 367.854V386H917.503V364.242ZM940.335 371.337H951.902V376.11H940.335V371.337ZM960.305 374.175C960.305 376.382 960.778 378.002 961.724 379.034C962.699 380.037 963.946 380.539 965.465 380.539C966.297 380.539 967.071 380.424 967.787 380.195C968.533 379.966 969.135 379.693 969.593 379.378V367.725C969.221 367.639 968.762 367.567 968.217 367.51C967.673 367.424 966.985 367.381 966.153 367.381C964.261 367.381 962.814 368.012 961.81 369.273C960.807 370.506 960.305 372.14 960.305 374.175ZM974.796 383.721C974.796 387.304 973.879 389.927 972.044 391.59C970.238 393.253 967.458 394.084 963.702 394.084C962.326 394.084 960.979 393.969 959.66 393.74C958.37 393.511 957.195 393.21 956.134 392.837L957.08 388.408C957.969 388.781 958.972 389.082 960.09 389.311C961.237 389.54 962.47 389.655 963.788 389.655C965.881 389.655 967.372 389.225 968.26 388.365C969.149 387.505 969.593 386.229 969.593 384.538V383.678C969.077 383.936 968.389 384.194 967.529 384.452C966.698 384.71 965.738 384.839 964.648 384.839C963.215 384.839 961.896 384.61 960.692 384.151C959.517 383.692 958.499 383.019 957.639 382.13C956.808 381.241 956.149 380.138 955.661 378.819C955.203 377.472 954.973 375.924 954.973 374.175C954.973 372.541 955.217 371.036 955.704 369.66C956.22 368.284 956.951 367.109 957.897 366.134C958.872 365.159 960.047 364.4 961.423 363.855C962.799 363.31 964.362 363.038 966.11 363.038C967.802 363.038 969.407 363.167 970.926 363.425C972.446 363.683 973.736 363.955 974.796 364.242V383.721ZM989.327 382.345C990.933 382.345 992.151 382.259 992.982 382.087V376.325C992.696 376.239 992.28 376.153 991.735 376.067C991.191 375.981 990.589 375.938 989.929 375.938C989.356 375.938 988.768 375.981 988.166 376.067C987.593 376.153 987.063 376.311 986.575 376.54C986.117 376.769 985.744 377.099 985.457 377.529C985.171 377.93 985.027 378.446 985.027 379.077C985.027 380.31 985.414 381.17 986.188 381.657C986.962 382.116 988.009 382.345 989.327 382.345ZM988.897 362.952C990.617 362.952 992.065 363.167 993.24 363.597C994.416 364.027 995.347 364.629 996.035 365.403C996.752 366.177 997.254 367.123 997.54 368.241C997.856 369.33 998.013 370.534 998.013 371.853V385.484C997.211 385.656 995.992 385.857 994.358 386.086C992.753 386.344 990.933 386.473 988.897 386.473C987.55 386.473 986.317 386.344 985.199 386.086C984.081 385.828 983.121 385.412 982.318 384.839C981.544 384.266 980.928 383.52 980.469 382.603C980.039 381.686 979.824 380.553 979.824 379.206C979.824 377.916 980.068 376.827 980.555 375.938C981.071 375.049 981.759 374.333 982.619 373.788C983.479 373.215 984.468 372.813 985.586 372.584C986.733 372.326 987.923 372.197 989.155 372.197C989.729 372.197 990.331 372.24 990.961 372.326C991.592 372.383 992.266 372.498 992.982 372.67V371.81C992.982 371.208 992.911 370.635 992.767 370.09C992.624 369.545 992.366 369.072 991.993 368.671C991.649 368.241 991.176 367.911 990.574 367.682C990.001 367.453 989.27 367.338 988.381 367.338C987.177 367.338 986.074 367.424 985.07 367.596C984.067 367.768 983.25 367.969 982.619 368.198L981.974 363.984C982.634 363.755 983.594 363.525 984.855 363.296C986.117 363.067 987.464 362.952 988.897 362.952ZM1019.31 374.863C1019.31 372.541 1018.78 370.735 1017.72 369.445C1016.68 368.155 1015.01 367.51 1012.68 367.51C1012.2 367.51 1011.68 367.539 1011.14 367.596C1010.62 367.625 1010.1 367.711 1009.59 367.854V380.711C1010.05 381.026 1010.65 381.327 1011.39 381.614C1012.17 381.872 1012.99 382.001 1013.85 382.001C1015.74 382.001 1017.11 381.356 1017.97 380.066C1018.86 378.776 1019.31 377.042 1019.31 374.863ZM1024.64 374.777C1024.64 376.497 1024.41 378.074 1023.95 379.507C1023.52 380.94 1022.89 382.173 1022.06 383.205C1021.23 384.237 1020.18 385.04 1018.92 385.613C1017.69 386.186 1016.28 386.473 1014.71 386.473C1013.64 386.473 1012.67 386.344 1011.78 386.086C1010.89 385.828 1010.16 385.541 1009.59 385.226V393.955H1004.39V364.242C1005.45 363.955 1006.75 363.683 1008.3 363.425C1009.85 363.167 1011.48 363.038 1013.2 363.038C1014.98 363.038 1016.57 363.31 1017.97 363.855C1019.38 364.4 1020.57 365.188 1021.54 366.22C1022.55 367.223 1023.31 368.456 1023.82 369.918C1024.37 371.351 1024.64 372.971 1024.64 374.777ZM1031.83 373.143C1031.83 369.617 1031.3 366.32 1030.24 363.253C1029.18 360.157 1027.7 357.319 1025.81 354.739L1029.47 352.331C1031.79 355.112 1033.62 358.279 1034.97 361.834C1036.32 365.36 1036.99 369.13 1036.99 373.143C1036.99 377.156 1036.32 380.94 1034.97 384.495C1033.62 388.021 1031.79 391.174 1029.47 393.955L1025.81 391.547C1027.7 388.996 1029.18 386.172 1030.24 383.076C1031.3 379.98 1031.83 376.669 1031.83 373.143Z" fill="#60195E"/>
<path d="M1317.98 130.05C1317.98 133.027 1318.61 135.212 1319.89 136.604C1321.2 137.957 1322.89 138.634 1324.94 138.634C1326.06 138.634 1327.1 138.479 1328.07 138.17C1329.07 137.861 1329.89 137.493 1330.5 137.068V121.35C1330 121.234 1329.38 121.137 1328.65 121.06C1327.91 120.944 1326.99 120.886 1325.86 120.886C1323.31 120.886 1321.36 121.737 1320.01 123.438C1318.65 125.101 1317.98 127.305 1317.98 130.05ZM1337.52 142.926C1337.52 147.759 1336.28 151.297 1333.81 153.54C1331.37 155.783 1327.62 156.904 1322.56 156.904C1320.7 156.904 1318.88 156.749 1317.11 156.44C1315.37 156.131 1313.78 155.725 1312.35 155.222L1313.63 149.248C1314.82 149.751 1316.18 150.157 1317.69 150.466C1319.23 150.775 1320.9 150.93 1322.67 150.93C1325.5 150.93 1327.51 150.35 1328.71 149.19C1329.9 148.03 1330.5 146.309 1330.5 144.028V142.868C1329.81 143.216 1328.88 143.564 1327.72 143.912C1326.6 144.26 1325.3 144.434 1323.83 144.434C1321.9 144.434 1320.12 144.125 1318.5 143.506C1316.91 142.887 1315.54 141.979 1314.38 140.78C1313.26 139.581 1312.37 138.093 1311.71 136.314C1311.09 134.497 1310.78 132.409 1310.78 130.05C1310.78 127.846 1311.11 125.816 1311.77 123.96C1312.47 122.104 1313.45 120.519 1314.73 119.204C1316.04 117.889 1317.63 116.865 1319.48 116.13C1321.34 115.395 1323.45 115.028 1325.81 115.028C1328.09 115.028 1330.25 115.202 1332.3 115.55C1334.35 115.898 1336.09 116.265 1337.52 116.652V142.926ZM1357.12 141.07C1359.29 141.07 1360.93 140.954 1362.05 140.722V132.95C1361.67 132.834 1361.11 132.718 1360.37 132.602C1359.64 132.486 1358.82 132.428 1357.93 132.428C1357.16 132.428 1356.37 132.486 1355.56 132.602C1354.78 132.718 1354.07 132.931 1353.41 133.24C1352.79 133.549 1352.29 133.994 1351.9 134.574C1351.52 135.115 1351.32 135.811 1351.32 136.662C1351.32 138.325 1351.84 139.485 1352.89 140.142C1353.93 140.761 1355.34 141.07 1357.12 141.07ZM1356.54 114.912C1358.86 114.912 1360.82 115.202 1362.4 115.782C1363.99 116.362 1365.24 117.174 1366.17 118.218C1367.14 119.262 1367.81 120.538 1368.2 122.046C1368.63 123.515 1368.84 125.139 1368.84 126.918V145.304C1367.76 145.536 1366.11 145.807 1363.91 146.116C1361.74 146.464 1359.29 146.638 1356.54 146.638C1354.73 146.638 1353.06 146.464 1351.55 146.116C1350.05 145.768 1348.75 145.207 1347.67 144.434C1346.62 143.661 1345.79 142.655 1345.17 141.418C1344.59 140.181 1344.3 138.653 1344.3 136.836C1344.3 135.096 1344.63 133.627 1345.29 132.428C1345.99 131.229 1346.91 130.263 1348.07 129.528C1349.23 128.755 1350.57 128.213 1352.08 127.904C1353.62 127.556 1355.23 127.382 1356.89 127.382C1357.66 127.382 1358.48 127.44 1359.33 127.556C1360.18 127.633 1361.09 127.788 1362.05 128.02V126.86C1362.05 126.048 1361.96 125.275 1361.76 124.54C1361.57 123.805 1361.22 123.167 1360.72 122.626C1360.25 122.046 1359.62 121.601 1358.8 121.292C1358.03 120.983 1357.05 120.828 1355.85 120.828C1354.22 120.828 1352.73 120.944 1351.38 121.176C1350.03 121.408 1348.93 121.679 1348.07 121.988L1347.2 116.304C1348.09 115.995 1349.39 115.685 1351.09 115.376C1352.79 115.067 1354.61 114.912 1356.54 114.912ZM1397.56 130.978C1397.56 127.846 1396.84 125.41 1395.41 123.67C1394.02 121.93 1391.76 121.06 1388.63 121.06C1387.97 121.06 1387.27 121.099 1386.54 121.176C1385.84 121.215 1385.15 121.331 1384.45 121.524V138.866C1385.07 139.291 1385.88 139.697 1386.89 140.084C1387.93 140.432 1389.03 140.606 1390.19 140.606C1392.74 140.606 1394.6 139.736 1395.76 137.996C1396.96 136.256 1397.56 133.917 1397.56 130.978ZM1404.75 130.862C1404.75 133.182 1404.44 135.309 1403.82 137.242C1403.24 139.175 1402.39 140.838 1401.27 142.23C1400.15 143.622 1398.74 144.705 1397.04 145.478C1395.37 146.251 1393.48 146.638 1391.35 146.638C1389.92 146.638 1388.61 146.464 1387.41 146.116C1386.21 145.768 1385.22 145.381 1384.45 144.956V156.73H1377.43V116.652C1378.86 116.265 1380.62 115.898 1382.71 115.55C1384.8 115.202 1387 115.028 1389.32 115.028C1391.72 115.028 1393.87 115.395 1395.76 116.13C1397.66 116.865 1399.26 117.928 1400.57 119.32C1401.93 120.673 1402.95 122.336 1403.65 124.308C1404.38 126.241 1404.75 128.426 1404.75 130.862ZM1419.87 120.48C1419.87 121.833 1419.41 122.935 1418.48 123.786C1417.59 124.637 1416.51 125.062 1415.23 125.062C1413.92 125.062 1412.81 124.637 1411.93 123.786C1411.04 122.935 1410.59 121.833 1410.59 120.48C1410.59 119.127 1411.04 118.025 1411.93 117.174C1412.81 116.285 1413.92 115.84 1415.23 115.84C1416.51 115.84 1417.59 116.285 1418.48 117.174C1419.41 118.025 1419.87 119.127 1419.87 120.48ZM1419.87 142.172C1419.87 143.525 1419.41 144.627 1418.48 145.478C1417.59 146.329 1416.51 146.754 1415.23 146.754C1413.92 146.754 1412.81 146.329 1411.93 145.478C1411.04 144.627 1410.59 143.525 1410.59 142.172C1410.59 140.819 1411.04 139.717 1411.93 138.866C1412.81 137.977 1413.92 137.532 1415.23 137.532C1416.51 137.532 1417.59 137.977 1418.48 138.866C1419.41 139.717 1419.87 140.819 1419.87 142.172ZM1450.15 146.87C1449.1 146.87 1448.02 146.793 1446.9 146.638C1445.82 146.522 1444.77 146.348 1443.77 146.116C1442.8 145.923 1441.91 145.71 1441.1 145.478C1440.29 145.207 1439.67 144.956 1439.24 144.724L1440.64 138.75C1441.45 139.137 1442.63 139.581 1444.17 140.084C1445.72 140.548 1447.64 140.78 1449.92 140.78C1452.97 140.78 1455.18 140.2 1456.53 139.04C1457.88 137.841 1458.56 136.256 1458.56 134.284C1458.56 133.008 1458.29 131.945 1457.75 131.094C1457.24 130.243 1456.53 129.567 1455.6 129.064C1454.71 128.523 1453.67 128.155 1452.47 127.962C1451.31 127.73 1450.07 127.614 1448.76 127.614H1446.38V121.93H1449.28C1450.17 121.93 1451.06 121.853 1451.95 121.698C1452.87 121.505 1453.71 121.195 1454.44 120.77C1455.18 120.306 1455.77 119.707 1456.24 118.972C1456.7 118.237 1456.93 117.29 1456.93 116.13C1456.93 115.202 1456.76 114.409 1456.41 113.752C1456.06 113.095 1455.6 112.553 1455.02 112.128C1454.48 111.703 1453.84 111.393 1453.11 111.2C1452.37 111.007 1451.6 110.91 1450.79 110.91C1449.05 110.91 1447.5 111.181 1446.15 111.722C1444.79 112.225 1443.59 112.805 1442.55 113.462L1440 108.242C1440.54 107.894 1441.2 107.527 1441.97 107.14C1442.74 106.753 1443.59 106.386 1444.52 106.038C1445.49 105.69 1446.51 105.419 1447.6 105.226C1448.68 104.994 1449.82 104.878 1451.02 104.878C1453.26 104.878 1455.19 105.149 1456.82 105.69C1458.44 106.231 1459.78 107.005 1460.82 108.01C1461.9 108.977 1462.7 110.137 1463.2 111.49C1463.74 112.805 1464.01 114.255 1464.01 115.84C1464.01 117.696 1463.49 119.359 1462.44 120.828C1461.44 122.297 1460.12 123.419 1458.5 124.192C1460.59 124.927 1462.31 126.145 1463.66 127.846C1465.05 129.547 1465.75 131.732 1465.75 134.4C1465.75 136.179 1465.44 137.841 1464.82 139.388C1464.2 140.896 1463.26 142.211 1461.98 143.332C1460.7 144.415 1459.08 145.285 1457.11 145.942C1455.18 146.561 1452.86 146.87 1450.15 146.87ZM1499.88 125.874C1499.88 132.641 1498.64 137.841 1496.16 141.476C1493.69 145.072 1490.27 146.87 1485.9 146.87C1481.53 146.87 1478.11 145.072 1475.63 141.476C1473.16 137.841 1471.92 132.641 1471.92 125.874C1471.92 122.51 1472.23 119.533 1472.85 116.942C1473.51 114.313 1474.43 112.109 1475.63 110.33C1476.87 108.551 1478.34 107.198 1480.04 106.27C1481.78 105.342 1483.73 104.878 1485.9 104.878C1490.27 104.878 1493.69 106.695 1496.16 110.33C1498.64 113.926 1499.88 119.107 1499.88 125.874ZM1492.63 125.874C1492.63 123.786 1492.51 121.833 1492.28 120.016C1492.05 118.199 1491.66 116.633 1491.12 115.318C1490.62 113.965 1489.94 112.901 1489.09 112.128C1488.24 111.355 1487.17 110.968 1485.9 110.968C1484.62 110.968 1483.54 111.355 1482.65 112.128C1481.8 112.901 1481.1 113.965 1480.56 115.318C1480.06 116.633 1479.69 118.199 1479.46 120.016C1479.27 121.833 1479.17 123.786 1479.17 125.874C1479.17 127.962 1479.27 129.915 1479.46 131.732C1479.69 133.549 1480.06 135.135 1480.56 136.488C1481.1 137.803 1481.8 138.847 1482.65 139.62C1483.54 140.393 1484.62 140.78 1485.9 140.78C1487.17 140.78 1488.24 140.393 1489.09 139.62C1489.94 138.847 1490.62 137.803 1491.12 136.488C1491.66 135.135 1492.05 133.549 1492.28 131.732C1492.51 129.915 1492.63 127.962 1492.63 125.874ZM1526.98 130.978C1526.98 127.846 1526.27 125.41 1524.84 123.67C1523.44 121.93 1521.18 121.06 1518.05 121.06C1517.39 121.06 1516.7 121.099 1515.96 121.176C1515.27 121.215 1514.57 121.331 1513.87 121.524V138.866C1514.49 139.291 1515.31 139.697 1516.31 140.084C1517.35 140.432 1518.46 140.606 1519.62 140.606C1522.17 140.606 1524.02 139.736 1525.18 137.996C1526.38 136.256 1526.98 133.917 1526.98 130.978ZM1534.17 130.862C1534.17 133.182 1533.87 135.309 1533.25 137.242C1532.67 139.175 1531.82 140.838 1530.69 142.23C1529.57 143.622 1528.16 144.705 1526.46 145.478C1524.8 146.251 1522.9 146.638 1520.78 146.638C1519.35 146.638 1518.03 146.464 1516.83 146.116C1515.63 145.768 1514.65 145.381 1513.87 144.956V156.73H1506.86V116.652C1508.29 116.265 1510.05 115.898 1512.13 115.55C1514.22 115.202 1516.43 115.028 1518.75 115.028C1521.14 115.028 1523.29 115.395 1525.18 116.13C1527.08 116.865 1528.68 117.928 1530 119.32C1531.35 120.673 1532.38 122.336 1533.07 124.308C1533.81 126.241 1534.17 128.426 1534.17 130.862ZM1551.46 125.584L1557.9 115.666H1565.27L1555.29 129.992C1557.38 132.699 1559.37 135.444 1561.26 138.228C1563.2 140.973 1564.78 143.564 1566.02 146H1558.42C1558.07 145.265 1557.61 144.434 1557.03 143.506C1556.49 142.539 1555.89 141.553 1555.23 140.548C1554.61 139.504 1553.96 138.479 1553.26 137.474C1552.56 136.469 1551.89 135.521 1551.23 134.632C1549.88 136.372 1548.54 138.305 1547.23 140.432C1545.95 142.52 1544.89 144.376 1544.04 146H1536.85C1537.43 144.84 1538.12 143.603 1538.93 142.288C1539.75 140.973 1540.62 139.639 1541.54 138.286C1542.47 136.894 1543.42 135.521 1544.39 134.168C1545.39 132.776 1546.38 131.461 1547.34 130.224L1537.31 115.666H1545.02L1551.46 125.584Z" fill="#60195E"/>
<path d="M6.976 558.05C6.976 561.027 7.614 563.212 8.89 564.604C10.2047 565.957 11.8867 566.634 13.936 566.634C15.0573 566.634 16.1013 566.479 17.068 566.17C18.0733 565.861 18.8853 565.493 19.504 565.068V549.35C19.0013 549.234 18.3827 549.137 17.648 549.06C16.9133 548.944 15.9853 548.886 14.864 548.886C12.312 548.886 10.3593 549.737 9.006 551.438C7.65267 553.101 6.976 555.305 6.976 558.05ZM26.522 570.926C26.522 575.759 25.2847 579.297 22.81 581.54C20.374 583.783 16.6233 584.904 11.558 584.904C9.702 584.904 7.88467 584.749 6.106 584.44C4.366 584.131 2.78067 583.725 1.35 583.222L2.626 577.248C3.82467 577.751 5.178 578.157 6.686 578.466C8.23267 578.775 9.89533 578.93 11.674 578.93C14.4967 578.93 16.5073 578.35 17.706 577.19C18.9047 576.03 19.504 574.309 19.504 572.028V570.868C18.808 571.216 17.88 571.564 16.72 571.912C15.5987 572.26 14.3033 572.434 12.834 572.434C10.9007 572.434 9.122 572.125 7.498 571.506C5.91267 570.887 4.54 569.979 3.38 568.78C2.25867 567.581 1.36933 566.093 0.712 564.314C0.0933334 562.497 -0.216 560.409 -0.216 558.05C-0.216 555.846 0.112667 553.816 0.77 551.96C1.466 550.104 2.452 548.519 3.728 547.204C5.04267 545.889 6.628 544.865 8.484 544.13C10.34 543.395 12.4473 543.028 14.806 543.028C17.0873 543.028 19.2527 543.202 21.302 543.55C23.3513 543.898 25.0913 544.265 26.522 544.652V570.926ZM46.1224 569.07C48.2877 569.07 49.931 568.954 51.0524 568.722V560.95C50.6657 560.834 50.105 560.718 49.3704 560.602C48.6357 560.486 47.8237 560.428 46.9344 560.428C46.161 560.428 45.3684 560.486 44.5564 560.602C43.783 560.718 43.0677 560.931 42.4104 561.24C41.7917 561.549 41.289 561.994 40.9024 562.574C40.5157 563.115 40.3224 563.811 40.3224 564.662C40.3224 566.325 40.8444 567.485 41.8884 568.142C42.9324 568.761 44.3437 569.07 46.1224 569.07ZM45.5424 542.912C47.8624 542.912 49.815 543.202 51.4004 543.782C52.9857 544.362 54.2424 545.174 55.1704 546.218C56.137 547.262 56.8137 548.538 57.2004 550.046C57.6257 551.515 57.8384 553.139 57.8384 554.918V573.304C56.7557 573.536 55.1124 573.807 52.9084 574.116C50.743 574.464 48.2877 574.638 45.5424 574.638C43.725 574.638 42.0624 574.464 40.5544 574.116C39.0464 573.768 37.751 573.207 36.6684 572.434C35.6244 571.661 34.793 570.655 34.1744 569.418C33.5944 568.181 33.3044 566.653 33.3044 564.836C33.3044 563.096 33.633 561.627 34.2904 560.428C34.9864 559.229 35.9144 558.263 37.0744 557.528C38.2344 556.755 39.5684 556.213 41.0764 555.904C42.623 555.556 44.2277 555.382 45.8904 555.382C46.6637 555.382 47.4757 555.44 48.3264 555.556C49.177 555.633 50.0857 555.788 51.0524 556.02V554.86C51.0524 554.048 50.9557 553.275 50.7624 552.54C50.569 551.805 50.221 551.167 49.7184 550.626C49.2544 550.046 48.6164 549.601 47.8044 549.292C47.031 548.983 46.045 548.828 44.8464 548.828C43.2224 548.828 41.7337 548.944 40.3804 549.176C39.027 549.408 37.925 549.679 37.0744 549.988L36.2044 544.304C37.0937 543.995 38.389 543.685 40.0904 543.376C41.7917 543.067 43.609 542.912 45.5424 542.912ZM86.5588 558.978C86.5588 555.846 85.8435 553.41 84.4128 551.67C83.0208 549.93 80.7588 549.06 77.6268 549.06C76.9695 549.06 76.2735 549.099 75.5388 549.176C74.8428 549.215 74.1468 549.331 73.4508 549.524V566.866C74.0695 567.291 74.8815 567.697 75.8868 568.084C76.9308 568.432 78.0328 568.606 79.1928 568.606C81.7448 568.606 83.6008 567.736 84.7608 565.996C85.9595 564.256 86.5588 561.917 86.5588 558.978ZM93.7508 558.862C93.7508 561.182 93.4415 563.309 92.8228 565.242C92.2428 567.175 91.3921 568.838 90.2708 570.23C89.1495 571.622 87.7381 572.705 86.0368 573.478C84.3741 574.251 82.4795 574.638 80.3528 574.638C78.9221 574.638 77.6075 574.464 76.4088 574.116C75.2101 573.768 74.2241 573.381 73.4508 572.956V584.73H66.4328V544.652C67.8635 544.265 69.6228 543.898 71.7108 543.55C73.7988 543.202 76.0028 543.028 78.3228 543.028C80.7201 543.028 82.8661 543.395 84.7608 544.13C86.6555 544.865 88.2601 545.928 89.5748 547.32C90.9281 548.673 91.9528 550.336 92.6488 552.308C93.3835 554.241 93.7508 556.426 93.7508 558.862ZM108.872 548.48C108.872 549.833 108.408 550.935 107.48 551.786C106.59 552.637 105.508 553.062 104.232 553.062C102.917 553.062 101.815 552.637 100.926 551.786C100.036 550.935 99.5916 549.833 99.5916 548.48C99.5916 547.127 100.036 546.025 100.926 545.174C101.815 544.285 102.917 543.84 104.232 543.84C105.508 543.84 106.59 544.285 107.48 545.174C108.408 546.025 108.872 547.127 108.872 548.48ZM108.872 570.172C108.872 571.525 108.408 572.627 107.48 573.478C106.59 574.329 105.508 574.754 104.232 574.754C102.917 574.754 101.815 574.329 100.926 573.478C100.036 572.627 99.5916 571.525 99.5916 570.172C99.5916 568.819 100.036 567.717 100.926 566.866C101.815 565.977 102.917 565.532 104.232 565.532C105.508 565.532 106.59 565.977 107.48 566.866C108.408 567.717 108.872 568.819 108.872 570.172ZM130.681 542.158C132.924 541.269 135.166 540.128 137.409 538.736C139.69 537.344 141.701 535.701 143.441 533.806H148.371V574H141.353V543.202C140.309 544.014 138.994 544.807 137.409 545.58C135.824 546.353 134.296 546.991 132.827 547.494L130.681 542.158ZM188.876 553.874C188.876 560.641 187.638 565.841 185.164 569.476C182.689 573.072 179.267 574.87 174.898 574.87C170.528 574.87 167.106 573.072 164.632 569.476C162.157 565.841 160.92 560.641 160.92 553.874C160.92 550.51 161.229 547.533 161.848 544.942C162.505 542.313 163.433 540.109 164.632 538.33C165.869 536.551 167.338 535.198 169.04 534.27C170.78 533.342 172.732 532.878 174.898 532.878C179.267 532.878 182.689 534.695 185.164 538.33C187.638 541.926 188.876 547.107 188.876 553.874ZM181.626 553.874C181.626 551.786 181.51 549.833 181.278 548.016C181.046 546.199 180.659 544.633 180.118 543.318C179.615 541.965 178.938 540.901 178.088 540.128C177.237 539.355 176.174 538.968 174.898 538.968C173.622 538.968 172.539 539.355 171.65 540.128C170.799 540.901 170.103 541.965 169.562 543.318C169.059 544.633 168.692 546.199 168.46 548.016C168.266 549.833 168.17 551.786 168.17 553.874C168.17 555.962 168.266 557.915 168.46 559.732C168.692 561.549 169.059 563.135 169.562 564.488C170.103 565.803 170.799 566.847 171.65 567.62C172.539 568.393 173.622 568.78 174.898 568.78C176.174 568.78 177.237 568.393 178.088 567.62C178.938 566.847 179.615 565.803 180.118 564.488C180.659 563.135 181.046 561.549 181.278 559.732C181.51 557.915 181.626 555.962 181.626 553.874ZM215.983 558.978C215.983 555.846 215.267 553.41 213.837 551.67C212.445 549.93 210.183 549.06 207.051 549.06C206.393 549.06 205.697 549.099 204.963 549.176C204.267 549.215 203.571 549.331 202.875 549.524V566.866C203.493 567.291 204.305 567.697 205.311 568.084C206.355 568.432 207.457 568.606 208.617 568.606C211.169 568.606 213.025 567.736 214.185 565.996C215.383 564.256 215.983 561.917 215.983 558.978ZM223.175 558.862C223.175 561.182 222.865 563.309 222.247 565.242C221.667 567.175 220.816 568.838 219.695 570.23C218.573 571.622 217.162 572.705 215.461 573.478C213.798 574.251 211.903 574.638 209.777 574.638C208.346 574.638 207.031 574.464 205.833 574.116C204.634 573.768 203.648 573.381 202.875 572.956V584.73H195.857V544.652C197.287 544.265 199.047 543.898 201.135 543.55C203.223 543.202 205.427 543.028 207.747 543.028C210.144 543.028 212.29 543.395 214.185 544.13C216.079 544.865 217.684 545.928 218.999 547.32C220.352 548.673 221.377 550.336 222.073 552.308C222.807 554.241 223.175 556.426 223.175 558.862ZM240.462 553.584L246.9 543.666H254.266L244.29 557.992C246.378 560.699 248.369 563.444 250.264 566.228C252.197 568.973 253.782 571.564 255.02 574H247.422C247.074 573.265 246.61 572.434 246.03 571.506C245.488 570.539 244.889 569.553 244.232 568.548C243.613 567.504 242.956 566.479 242.26 565.474C241.564 564.469 240.887 563.521 240.23 562.632C238.876 564.372 237.542 566.305 236.228 568.432C234.952 570.52 233.888 572.376 233.038 574H225.846C226.426 572.84 227.122 571.603 227.934 570.288C228.746 568.973 229.616 567.639 230.544 566.286C231.472 564.894 232.419 563.521 233.386 562.168C234.391 560.776 235.377 559.461 236.344 558.224L226.31 543.666H234.024L240.462 553.584Z" fill="#60195E"/>
<path d="M1317.98 562.05C1317.98 565.027 1318.61 567.212 1319.89 568.604C1321.2 569.957 1322.89 570.634 1324.94 570.634C1326.06 570.634 1327.1 570.479 1328.07 570.17C1329.07 569.861 1329.89 569.493 1330.5 569.068V553.35C1330 553.234 1329.38 553.137 1328.65 553.06C1327.91 552.944 1326.99 552.886 1325.86 552.886C1323.31 552.886 1321.36 553.737 1320.01 555.438C1318.65 557.101 1317.98 559.305 1317.98 562.05ZM1337.52 574.926C1337.52 579.759 1336.28 583.297 1333.81 585.54C1331.37 587.783 1327.62 588.904 1322.56 588.904C1320.7 588.904 1318.88 588.749 1317.11 588.44C1315.37 588.131 1313.78 587.725 1312.35 587.222L1313.63 581.248C1314.82 581.751 1316.18 582.157 1317.69 582.466C1319.23 582.775 1320.9 582.93 1322.67 582.93C1325.5 582.93 1327.51 582.35 1328.71 581.19C1329.9 580.03 1330.5 578.309 1330.5 576.028V574.868C1329.81 575.216 1328.88 575.564 1327.72 575.912C1326.6 576.26 1325.3 576.434 1323.83 576.434C1321.9 576.434 1320.12 576.125 1318.5 575.506C1316.91 574.887 1315.54 573.979 1314.38 572.78C1313.26 571.581 1312.37 570.093 1311.71 568.314C1311.09 566.497 1310.78 564.409 1310.78 562.05C1310.78 559.846 1311.11 557.816 1311.77 555.96C1312.47 554.104 1313.45 552.519 1314.73 551.204C1316.04 549.889 1317.63 548.865 1319.48 548.13C1321.34 547.395 1323.45 547.028 1325.81 547.028C1328.09 547.028 1330.25 547.202 1332.3 547.55C1334.35 547.898 1336.09 548.265 1337.52 548.652V574.926ZM1357.12 573.07C1359.29 573.07 1360.93 572.954 1362.05 572.722V564.95C1361.67 564.834 1361.11 564.718 1360.37 564.602C1359.64 564.486 1358.82 564.428 1357.93 564.428C1357.16 564.428 1356.37 564.486 1355.56 564.602C1354.78 564.718 1354.07 564.931 1353.41 565.24C1352.79 565.549 1352.29 565.994 1351.9 566.574C1351.52 567.115 1351.32 567.811 1351.32 568.662C1351.32 570.325 1351.84 571.485 1352.89 572.142C1353.93 572.761 1355.34 573.07 1357.12 573.07ZM1356.54 546.912C1358.86 546.912 1360.82 547.202 1362.4 547.782C1363.99 548.362 1365.24 549.174 1366.17 550.218C1367.14 551.262 1367.81 552.538 1368.2 554.046C1368.63 555.515 1368.84 557.139 1368.84 558.918V577.304C1367.76 577.536 1366.11 577.807 1363.91 578.116C1361.74 578.464 1359.29 578.638 1356.54 578.638C1354.73 578.638 1353.06 578.464 1351.55 578.116C1350.05 577.768 1348.75 577.207 1347.67 576.434C1346.62 575.661 1345.79 574.655 1345.17 573.418C1344.59 572.181 1344.3 570.653 1344.3 568.836C1344.3 567.096 1344.63 565.627 1345.29 564.428C1345.99 563.229 1346.91 562.263 1348.07 561.528C1349.23 560.755 1350.57 560.213 1352.08 559.904C1353.62 559.556 1355.23 559.382 1356.89 559.382C1357.66 559.382 1358.48 559.44 1359.33 559.556C1360.18 559.633 1361.09 559.788 1362.05 560.02V558.86C1362.05 558.048 1361.96 557.275 1361.76 556.54C1361.57 555.805 1361.22 555.167 1360.72 554.626C1360.25 554.046 1359.62 553.601 1358.8 553.292C1358.03 552.983 1357.05 552.828 1355.85 552.828C1354.22 552.828 1352.73 552.944 1351.38 553.176C1350.03 553.408 1348.93 553.679 1348.07 553.988L1347.2 548.304C1348.09 547.995 1349.39 547.685 1351.09 547.376C1352.79 547.067 1354.61 546.912 1356.54 546.912ZM1397.56 562.978C1397.56 559.846 1396.84 557.41 1395.41 555.67C1394.02 553.93 1391.76 553.06 1388.63 553.06C1387.97 553.06 1387.27 553.099 1386.54 553.176C1385.84 553.215 1385.15 553.331 1384.45 553.524V570.866C1385.07 571.291 1385.88 571.697 1386.89 572.084C1387.93 572.432 1389.03 572.606 1390.19 572.606C1392.74 572.606 1394.6 571.736 1395.76 569.996C1396.96 568.256 1397.56 565.917 1397.56 562.978ZM1404.75 562.862C1404.75 565.182 1404.44 567.309 1403.82 569.242C1403.24 571.175 1402.39 572.838 1401.27 574.23C1400.15 575.622 1398.74 576.705 1397.04 577.478C1395.37 578.251 1393.48 578.638 1391.35 578.638C1389.92 578.638 1388.61 578.464 1387.41 578.116C1386.21 577.768 1385.22 577.381 1384.45 576.956V588.73H1377.43V548.652C1378.86 548.265 1380.62 547.898 1382.71 547.55C1384.8 547.202 1387 547.028 1389.32 547.028C1391.72 547.028 1393.87 547.395 1395.76 548.13C1397.66 548.865 1399.26 549.928 1400.57 551.32C1401.93 552.673 1402.95 554.336 1403.65 556.308C1404.38 558.241 1404.75 560.426 1404.75 562.862ZM1419.87 552.48C1419.87 553.833 1419.41 554.935 1418.48 555.786C1417.59 556.637 1416.51 557.062 1415.23 557.062C1413.92 557.062 1412.81 556.637 1411.93 555.786C1411.04 554.935 1410.59 553.833 1410.59 552.48C1410.59 551.127 1411.04 550.025 1411.93 549.174C1412.81 548.285 1413.92 547.84 1415.23 547.84C1416.51 547.84 1417.59 548.285 1418.48 549.174C1419.41 550.025 1419.87 551.127 1419.87 552.48ZM1419.87 574.172C1419.87 575.525 1419.41 576.627 1418.48 577.478C1417.59 578.329 1416.51 578.754 1415.23 578.754C1413.92 578.754 1412.81 578.329 1411.93 577.478C1411.04 576.627 1410.59 575.525 1410.59 574.172C1410.59 572.819 1411.04 571.717 1411.93 570.866C1412.81 569.977 1413.92 569.532 1415.23 569.532C1416.51 569.532 1417.59 569.977 1418.48 570.866C1419.41 571.717 1419.87 572.819 1419.87 574.172ZM1441.68 546.158C1443.92 545.269 1446.17 544.128 1448.41 542.736C1450.69 541.344 1452.7 539.701 1454.44 537.806H1459.37V578H1452.35V547.202C1451.31 548.014 1449.99 548.807 1448.41 549.58C1446.82 550.353 1445.3 550.991 1443.83 551.494L1441.68 546.158ZM1499.88 557.874C1499.88 564.641 1498.64 569.841 1496.16 573.476C1493.69 577.072 1490.27 578.87 1485.9 578.87C1481.53 578.87 1478.11 577.072 1475.63 573.476C1473.16 569.841 1471.92 564.641 1471.92 557.874C1471.92 554.51 1472.23 551.533 1472.85 548.942C1473.51 546.313 1474.43 544.109 1475.63 542.33C1476.87 540.551 1478.34 539.198 1480.04 538.27C1481.78 537.342 1483.73 536.878 1485.9 536.878C1490.27 536.878 1493.69 538.695 1496.16 542.33C1498.64 545.926 1499.88 551.107 1499.88 557.874ZM1492.63 557.874C1492.63 555.786 1492.51 553.833 1492.28 552.016C1492.05 550.199 1491.66 548.633 1491.12 547.318C1490.62 545.965 1489.94 544.901 1489.09 544.128C1488.24 543.355 1487.17 542.968 1485.9 542.968C1484.62 542.968 1483.54 543.355 1482.65 544.128C1481.8 544.901 1481.1 545.965 1480.56 547.318C1480.06 548.633 1479.69 550.199 1479.46 552.016C1479.27 553.833 1479.17 555.786 1479.17 557.874C1479.17 559.962 1479.27 561.915 1479.46 563.732C1479.69 565.549 1480.06 567.135 1480.56 568.488C1481.1 569.803 1481.8 570.847 1482.65 571.62C1483.54 572.393 1484.62 572.78 1485.9 572.78C1487.17 572.78 1488.24 572.393 1489.09 571.62C1489.94 570.847 1490.62 569.803 1491.12 568.488C1491.66 567.135 1492.05 565.549 1492.28 563.732C1492.51 561.915 1492.63 559.962 1492.63 557.874ZM1526.98 562.978C1526.98 559.846 1526.27 557.41 1524.84 555.67C1523.44 553.93 1521.18 553.06 1518.05 553.06C1517.39 553.06 1516.7 553.099 1515.96 553.176C1515.27 553.215 1514.57 553.331 1513.87 553.524V570.866C1514.49 571.291 1515.31 571.697 1516.31 572.084C1517.35 572.432 1518.46 572.606 1519.62 572.606C1522.17 572.606 1524.02 571.736 1525.18 569.996C1526.38 568.256 1526.98 565.917 1526.98 562.978ZM1534.17 562.862C1534.17 565.182 1533.87 567.309 1533.25 569.242C1532.67 571.175 1531.82 572.838 1530.69 574.23C1529.57 575.622 1528.16 576.705 1526.46 577.478C1524.8 578.251 1522.9 578.638 1520.78 578.638C1519.35 578.638 1518.03 578.464 1516.83 578.116C1515.63 577.768 1514.65 577.381 1513.87 576.956V588.73H1506.86V548.652C1508.29 548.265 1510.05 547.898 1512.13 547.55C1514.22 547.202 1516.43 547.028 1518.75 547.028C1521.14 547.028 1523.29 547.395 1525.18 548.13C1527.08 548.865 1528.68 549.928 1530 551.32C1531.35 552.673 1532.38 554.336 1533.07 556.308C1533.81 558.241 1534.17 560.426 1534.17 562.862ZM1551.46 557.584L1557.9 547.666H1565.27L1555.29 561.992C1557.38 564.699 1559.37 567.444 1561.26 570.228C1563.2 572.973 1564.78 575.564 1566.02 578H1558.42C1558.07 577.265 1557.61 576.434 1557.03 575.506C1556.49 574.539 1555.89 573.553 1555.23 572.548C1554.61 571.504 1553.96 570.479 1553.26 569.474C1552.56 568.469 1551.89 567.521 1551.23 566.632C1549.88 568.372 1548.54 570.305 1547.23 572.432C1545.95 574.52 1544.89 576.376 1544.04 578H1536.85C1537.43 576.84 1538.12 575.603 1538.93 574.288C1539.75 572.973 1540.62 571.639 1541.54 570.286C1542.47 568.894 1543.42 567.521 1544.39 566.168C1545.39 564.776 1546.38 563.461 1547.34 562.224L1537.31 547.666H1545.02L1551.46 557.584ZM1594.02 578.87C1592.97 578.87 1591.89 578.793 1590.77 578.638C1589.69 578.522 1588.64 578.348 1587.64 578.116C1586.67 577.923 1585.78 577.71 1584.97 577.478C1584.16 577.207 1583.54 576.956 1583.11 576.724L1584.5 570.75C1585.32 571.137 1586.5 571.581 1588.04 572.084C1589.59 572.548 1591.5 572.78 1593.78 572.78C1596.84 572.78 1599.04 572.2 1600.4 571.04C1601.75 569.841 1602.43 568.256 1602.43 566.284C1602.43 565.008 1602.16 563.945 1601.61 563.094C1601.11 562.243 1600.4 561.567 1599.47 561.064C1598.58 560.523 1597.53 560.155 1596.34 559.962C1595.18 559.73 1593.94 559.614 1592.62 559.614H1590.25V553.93H1593.15C1594.04 553.93 1594.92 553.853 1595.81 553.698C1596.74 553.505 1597.57 553.195 1598.31 552.77C1599.04 552.306 1599.64 551.707 1600.11 550.972C1600.57 550.237 1600.8 549.29 1600.8 548.13C1600.8 547.202 1600.63 546.409 1600.28 545.752C1599.93 545.095 1599.47 544.553 1598.89 544.128C1598.35 543.703 1597.71 543.393 1596.97 543.2C1596.24 543.007 1595.47 542.91 1594.65 542.91C1592.91 542.91 1591.37 543.181 1590.01 543.722C1588.66 544.225 1587.46 544.805 1586.42 545.462L1583.87 540.242C1584.41 539.894 1585.06 539.527 1585.84 539.14C1586.61 538.753 1587.46 538.386 1588.39 538.038C1589.36 537.69 1590.38 537.419 1591.46 537.226C1592.55 536.994 1593.69 536.878 1594.89 536.878C1597.13 536.878 1599.06 537.149 1600.69 537.69C1602.31 538.231 1603.64 539.005 1604.69 540.01C1605.77 540.977 1606.56 542.137 1607.07 543.49C1607.61 544.805 1607.88 546.255 1607.88 547.84C1607.88 549.696 1607.36 551.359 1606.31 552.828C1605.31 554.297 1603.99 555.419 1602.37 556.192C1604.46 556.927 1606.18 558.145 1607.53 559.846C1608.92 561.547 1609.62 563.732 1609.62 566.4C1609.62 568.179 1609.31 569.841 1608.69 571.388C1608.07 572.896 1607.12 574.211 1605.85 575.332C1604.57 576.415 1602.95 577.285 1600.98 577.942C1599.04 578.561 1596.72 578.87 1594.02 578.87ZM1643.74 557.874C1643.74 564.641 1642.51 569.841 1640.03 573.476C1637.56 577.072 1634.13 578.87 1629.76 578.87C1625.4 578.87 1621.97 577.072 1619.5 573.476C1617.02 569.841 1615.79 564.641 1615.79 557.874C1615.79 554.51 1616.1 551.533 1616.71 548.942C1617.37 546.313 1618.3 544.109 1619.5 542.33C1620.74 540.551 1622.21 539.198 1623.91 538.27C1625.65 537.342 1627.6 536.878 1629.76 536.878C1634.13 536.878 1637.56 538.695 1640.03 542.33C1642.51 545.926 1643.74 551.107 1643.74 557.874ZM1636.49 557.874C1636.49 555.786 1636.38 553.833 1636.14 552.016C1635.91 550.199 1635.53 548.633 1634.98 547.318C1634.48 545.965 1633.81 544.901 1632.95 544.128C1632.1 543.355 1631.04 542.968 1629.76 542.968C1628.49 542.968 1627.41 543.355 1626.52 544.128C1625.67 544.901 1624.97 545.965 1624.43 547.318C1623.93 548.633 1623.56 550.199 1623.33 552.016C1623.13 553.833 1623.04 555.786 1623.04 557.874C1623.04 559.962 1623.13 561.915 1623.33 563.732C1623.56 565.549 1623.93 567.135 1624.43 568.488C1624.97 569.803 1625.67 570.847 1626.52 571.62C1627.41 572.393 1628.49 572.78 1629.76 572.78C1631.04 572.78 1632.1 572.393 1632.95 571.62C1633.81 570.847 1634.48 569.803 1634.98 568.488C1635.53 567.135 1635.91 565.549 1636.14 563.732C1636.38 561.915 1636.49 559.962 1636.49 557.874ZM1670.85 562.978C1670.85 559.846 1670.13 557.41 1668.7 555.67C1667.31 553.93 1665.05 553.06 1661.92 553.06C1661.26 553.06 1660.56 553.099 1659.83 553.176C1659.13 553.215 1658.44 553.331 1657.74 553.524V570.866C1658.36 571.291 1659.17 571.697 1660.18 572.084C1661.22 572.432 1662.32 572.606 1663.48 572.606C1666.04 572.606 1667.89 571.736 1669.05 569.996C1670.25 568.256 1670.85 565.917 1670.85 562.978ZM1678.04 562.862C1678.04 565.182 1677.73 567.309 1677.11 569.242C1676.53 571.175 1675.68 572.838 1674.56 574.23C1673.44 575.622 1672.03 576.705 1670.33 577.478C1668.67 578.251 1666.77 578.638 1664.64 578.638C1663.21 578.638 1661.9 578.464 1660.7 578.116C1659.5 577.768 1658.52 577.381 1657.74 576.956V588.73H1650.72V548.652C1652.15 548.265 1653.91 547.898 1656 547.55C1658.09 547.202 1660.29 547.028 1662.61 547.028C1665.01 547.028 1667.16 547.395 1669.05 548.13C1670.95 548.865 1672.55 549.928 1673.87 551.32C1675.22 552.673 1676.24 554.336 1676.94 556.308C1677.67 558.241 1678.04 560.426 1678.04 562.862ZM1695.33 557.584L1701.77 547.666H1709.13L1699.16 561.992C1701.24 564.699 1703.24 567.444 1705.13 570.228C1707.06 572.973 1708.65 575.564 1709.89 578H1702.29C1701.94 577.265 1701.48 576.434 1700.9 575.506C1700.36 574.539 1699.76 573.553 1699.1 572.548C1698.48 571.504 1697.82 570.479 1697.13 569.474C1696.43 568.469 1695.75 567.521 1695.1 566.632C1693.74 568.372 1692.41 570.305 1691.09 572.432C1689.82 574.52 1688.76 576.376 1687.9 578H1680.71C1681.29 576.84 1681.99 575.603 1682.8 574.288C1683.61 572.973 1684.48 571.639 1685.41 570.286C1686.34 568.894 1687.29 567.521 1688.25 566.168C1689.26 564.776 1690.24 563.461 1691.21 562.224L1681.18 547.666H1688.89L1695.33 557.584Z" fill="#60195E"/>
<line x1="-5.68248e-07" y1="233.5" x2="1121" y2="233.5" stroke="#60195E" stroke-width="13"/>
<line x1="-5.68248e-07" y1="233.5" x2="1121" y2="233.5" stroke="black" stroke-opacity="0.2" stroke-width="13"/>
</g>
<defs>
<clipPath id="clip0_37_2">
<rect width="2432" height="1085" fill="white"/>
</clipPath>
</defs>
</svg>
