<svg width="2411" height="1435" viewBox="0 0 2411 1435" fill="none" xmlns="http://www.w3.org/2000/svg">
<g clip-path="url(#clip0_43_2)">
<path d="M1302.5 679C1302.5 669.335 1310.34 661.5 1320 661.5H2391C2400.66 661.5 2408.5 669.335 2408.5 679V858.963C2408.5 868.628 2400.66 876.463 2391 876.463H1320C1310.34 876.463 1302.5 868.628 1302.5 858.963V679Z" fill="#C4C4C4" stroke="#C4C4C4" stroke-width="5"/>
<path d="M2208.5 701C2208.5 691.335 2216.34 683.5 2226 683.5H2364.95C2374.62 683.5 2382.45 691.335 2382.45 701V836.225C2382.45 845.89 2374.62 853.725 2364.95 853.725H2226C2216.34 853.725 2208.5 845.89 2208.5 836.225V701Z" fill="#E6E6E6" stroke="#60195E" stroke-width="5"/>
<path d="M1328.6 701.369C1328.6 691.704 1336.43 683.869 1346.1 683.869H1485.05C1494.72 683.869 1502.55 691.704 1502.55 701.369V836.594C1502.55 846.259 1494.72 854.094 1485.05 854.094H1346.1C1336.43 854.094 1328.6 846.259 1328.6 836.594V701.369Z" fill="#E6E6E6" stroke="#60195E" stroke-width="5"/>
<path d="M1541.5 701C1541.5 691.335 1549.34 683.5 1559 683.5H2152C2161.66 683.5 2169.5 691.335 2169.5 701V837C2169.5 846.665 2161.66 854.5 2152 854.5H1559C1549.34 854.5 1541.5 846.665 1541.5 837V701Z" fill="#E6E6E6" stroke="#60195E" stroke-width="5"/>
<path d="M1419.07 786H1413.44V748.673L1402.15 752.82V747.734L1418.19 741.71H1419.07V786Z" fill="#60195E"/>
<path d="M1847.81 769.236H1852.01C1854.66 769.196 1856.74 768.5 1858.25 767.147C1859.76 765.795 1860.52 763.969 1860.52 761.668C1860.52 756.501 1857.95 753.918 1852.8 753.918C1850.38 753.918 1848.44 754.614 1846.99 756.007C1845.56 757.379 1844.84 759.206 1844.84 761.486H1839.24C1839.24 757.995 1840.51 755.099 1843.05 752.798C1845.62 750.477 1848.87 749.316 1852.8 749.316C1856.96 749.316 1860.22 750.416 1862.58 752.616C1864.94 754.816 1866.12 757.874 1866.12 761.789C1866.12 763.706 1865.5 765.563 1864.25 767.359C1863.01 769.156 1861.33 770.498 1859.19 771.386C1861.61 772.153 1863.48 773.424 1864.79 775.2C1866.12 776.976 1866.79 779.146 1866.79 781.709C1866.79 785.665 1865.5 788.803 1862.91 791.124C1860.33 793.445 1856.97 794.605 1852.83 794.605C1848.69 794.605 1845.32 793.485 1842.72 791.245C1840.14 789.005 1838.85 786.048 1838.85 782.375H1844.48C1844.48 784.696 1845.23 786.553 1846.75 787.945C1848.26 789.338 1850.29 790.034 1852.83 790.034C1855.54 790.034 1857.61 789.328 1859.04 787.915C1860.47 786.502 1861.19 784.474 1861.19 781.83C1861.19 779.267 1860.4 777.299 1858.83 775.927C1857.25 774.554 1854.98 773.848 1852.01 773.808H1847.81V769.236Z" fill="#60195E"/>
<path d="M2298.07 794H2292.44V756.673L2281.15 760.82V755.734L2297.19 749.71H2298.07V794Z" fill="#60195E"/>
<path d="M1299.5 1056C1299.5 1046.34 1307.34 1038.5 1317 1038.5H2388C2397.66 1038.5 2405.5 1046.34 2405.5 1056V1235.96C2405.5 1245.63 2397.66 1253.46 2388 1253.46H1317C1307.34 1253.46 1299.5 1245.63 1299.5 1235.96V1056Z" fill="#C4C4C4" stroke="#C4C4C4" stroke-width="5"/>
<path d="M1530.5 1079C1530.5 1069.34 1538.34 1061.5 1548 1061.5H1816C1825.66 1061.5 1833.5 1069.34 1833.5 1079V1214C1833.5 1223.66 1825.66 1231.5 1816 1231.5H1548C1538.34 1231.5 1530.5 1223.66 1530.5 1214V1079Z" fill="#E6E6E6" stroke="#60195E" stroke-width="5"/>
<path d="M2071.5 1080C2071.5 1070.34 2079.34 1062.5 2089 1062.5H2365C2374.67 1062.5 2382.5 1070.34 2382.5 1080V1215C2382.5 1224.66 2374.66 1232.5 2365 1232.5H2089C2079.34 1232.5 2071.5 1224.66 2071.5 1215V1080Z" fill="#E6E6E6" stroke="#60195E" stroke-width="5"/>
<path d="M1325.6 1078.37C1325.6 1068.7 1333.43 1060.87 1343.1 1060.87H1482.05C1491.72 1060.87 1499.55 1068.7 1499.55 1078.37V1213.59C1499.55 1223.26 1491.72 1231.09 1482.05 1231.09H1343.1C1333.43 1231.09 1325.6 1223.26 1325.6 1213.59V1078.37Z" fill="#E6E6E6" stroke="#60195E" stroke-width="5"/>
<path d="M1865.5 1080C1865.5 1070.34 1873.34 1062.5 1883 1062.5H2021.95C2031.62 1062.5 2039.45 1070.34 2039.45 1080V1215.22C2039.45 1224.89 2031.62 1232.72 2021.95 1232.72H1883C1873.34 1232.72 1865.5 1224.89 1865.5 1215.22V1080Z" fill="#E6E6E6" stroke="#60195E" stroke-width="5"/>
<path d="M1416.07 1163H1410.44V1125.67L1399.15 1129.82V1124.73L1415.19 1118.71H1416.07V1163Z" fill="#60195E"/>
<path d="M1955.07 1173H1949.44V1135.67L1938.15 1139.82V1134.73L1954.19 1128.71H1955.07V1173Z" fill="#60195E"/>
<path d="M1696.54 1173H1667.66V1168.97L1682.92 1152.02C1685.18 1149.46 1686.74 1147.38 1687.58 1145.78C1688.45 1144.17 1688.88 1142.5 1688.88 1140.79C1688.88 1138.49 1688.19 1136.6 1686.8 1135.13C1685.4 1133.65 1683.55 1132.92 1681.23 1132.92C1678.44 1132.92 1676.27 1133.72 1674.72 1135.31C1673.18 1136.88 1672.42 1139.08 1672.42 1141.91H1666.82C1666.82 1137.85 1668.12 1134.57 1670.72 1132.07C1673.34 1129.57 1676.85 1128.32 1681.23 1128.32C1685.32 1128.32 1688.56 1129.4 1690.94 1131.56C1693.32 1133.69 1694.52 1136.55 1694.52 1140.12C1694.52 1144.46 1691.75 1149.63 1686.22 1155.62L1674.41 1168.43H1696.54V1173Z" fill="#60195E"/>
<path d="M2240.54 1173H2211.66V1168.97L2226.92 1152.02C2229.18 1149.46 2230.74 1147.38 2231.58 1145.78C2232.45 1144.17 2232.88 1142.5 2232.88 1140.79C2232.88 1138.49 2232.19 1136.6 2230.8 1135.13C2229.4 1133.65 2227.55 1132.92 2225.23 1132.92C2222.44 1132.92 2220.27 1133.72 2218.72 1135.31C2217.18 1136.88 2216.42 1139.08 2216.42 1141.91H2210.82C2210.82 1137.85 2212.12 1134.57 2214.72 1132.07C2217.34 1129.57 2220.85 1128.32 2225.23 1128.32C2229.32 1128.32 2232.56 1129.4 2234.94 1131.56C2237.32 1133.69 2238.52 1136.55 2238.52 1140.12C2238.52 1144.46 2235.75 1149.63 2230.22 1155.62L2218.41 1168.43H2240.54V1173Z" fill="#60195E"/>
<path d="M16.856 173.05C16.856 178.081 17.934 181.772 20.09 184.124C22.3113 186.411 25.1533 187.554 28.616 187.554C30.5107 187.554 32.2747 187.293 33.908 186.77C35.6067 186.247 36.9787 185.627 38.024 184.908V158.35C37.1747 158.154 36.1293 157.991 34.888 157.86C33.6467 157.664 32.0787 157.566 30.184 157.566C25.872 157.566 22.5727 159.003 20.286 161.878C17.9993 164.687 16.856 168.411 16.856 173.05ZM49.882 194.806C49.882 202.973 47.7913 208.951 43.61 212.74C39.494 216.529 33.1567 218.424 24.598 218.424C21.462 218.424 18.3913 218.163 15.386 217.64C12.446 217.117 9.76733 216.431 7.35 215.582L9.506 205.488C11.5313 206.337 13.818 207.023 16.366 207.546C18.9793 208.069 21.7887 208.33 24.794 208.33C29.5633 208.33 32.9607 207.35 34.986 205.39C37.0113 203.43 38.024 200.523 38.024 196.668V194.708C36.848 195.296 35.28 195.884 33.32 196.472C31.4253 197.06 29.2367 197.354 26.754 197.354C23.4873 197.354 20.482 196.831 17.738 195.786C15.0593 194.741 12.74 193.205 10.78 191.18C8.88533 189.155 7.38267 186.639 6.272 183.634C5.22667 180.563 4.704 177.035 4.704 173.05C4.704 169.326 5.25933 165.896 6.37 162.76C7.546 159.624 9.212 156.945 11.368 154.724C13.5893 152.503 16.268 150.771 19.404 149.53C22.54 148.289 26.1007 147.668 30.086 147.668C33.9407 147.668 37.5993 147.962 41.062 148.55C44.5247 149.138 47.4647 149.759 49.882 150.412V194.806ZM94.1719 159.428C93.1919 159.101 91.8199 158.775 90.0559 158.448C88.3572 158.056 86.3645 157.86 84.0779 157.86C82.7712 157.86 81.3665 157.991 79.8639 158.252C78.4265 158.513 77.4139 158.742 76.8259 158.938V200H64.9679V151.196C67.2545 150.347 70.0965 149.563 73.4939 148.844C76.9565 148.06 80.7785 147.668 84.9599 147.668C85.7439 147.668 86.6585 147.733 87.7039 147.864C88.7492 147.929 89.7945 148.06 90.8399 148.256C91.8852 148.387 92.8979 148.583 93.8779 148.844C94.8579 149.04 95.6419 149.236 96.2299 149.432L94.1719 159.428ZM150.847 174.324C150.847 178.375 150.259 182.066 149.083 185.398C147.907 188.73 146.241 191.572 144.085 193.924C141.929 196.276 139.316 198.105 136.245 199.412C133.24 200.719 129.908 201.372 126.249 201.372C122.591 201.372 119.259 200.719 116.253 199.412C113.248 198.105 110.667 196.276 108.511 193.924C106.355 191.572 104.657 188.73 103.415 185.398C102.239 182.066 101.651 178.375 101.651 174.324C101.651 170.273 102.239 166.615 103.415 163.348C104.657 160.016 106.355 157.174 108.511 154.822C110.733 152.47 113.346 150.673 116.351 149.432C119.357 148.125 122.656 147.472 126.249 147.472C129.843 147.472 133.142 148.125 136.147 149.432C139.218 150.673 141.831 152.47 143.987 154.822C146.143 157.174 147.809 160.016 148.985 163.348C150.227 166.615 150.847 170.273 150.847 174.324ZM138.695 174.324C138.695 169.228 137.585 165.21 135.363 162.27C133.207 159.265 130.169 157.762 126.249 157.762C122.329 157.762 119.259 159.265 117.037 162.27C114.881 165.21 113.803 169.228 113.803 174.324C113.803 179.485 114.881 183.569 117.037 186.574C119.259 189.579 122.329 191.082 126.249 191.082C130.169 191.082 133.207 189.579 135.363 186.574C137.585 183.569 138.695 179.485 138.695 174.324ZM192.587 167.758C191.084 173.507 189.451 179.126 187.687 184.614C185.988 190.037 184.29 195.165 182.591 200H172.889C171.582 196.995 170.21 193.565 168.773 189.71C167.336 185.855 165.898 181.739 164.461 177.362C163.024 172.985 161.586 168.379 160.149 163.544C158.712 158.709 157.307 153.777 155.935 148.746H168.479C169.067 151.49 169.753 154.463 170.537 157.664C171.321 160.8 172.138 164.034 172.987 167.366C173.836 170.633 174.718 173.834 175.633 176.97C176.548 180.106 177.462 182.981 178.377 185.594C179.357 182.589 180.304 179.485 181.219 176.284C182.199 173.083 183.114 169.881 183.963 166.68C184.812 163.479 185.596 160.375 186.315 157.37C187.099 154.299 187.785 151.425 188.373 148.746H197.487C198.075 151.425 198.728 154.299 199.447 157.37C200.166 160.375 200.917 163.479 201.701 166.68C202.55 169.881 203.432 173.083 204.347 176.284C205.327 179.485 206.307 182.589 207.287 185.594C208.136 182.981 209.018 180.106 209.933 176.97C210.848 173.834 211.73 170.633 212.579 167.366C213.494 164.034 214.343 160.8 215.127 157.664C215.911 154.463 216.597 151.49 217.185 148.746H229.435C228.063 153.777 226.658 158.709 225.221 163.544C223.784 168.379 222.346 172.985 220.909 177.362C219.472 181.739 218.034 185.855 216.597 189.71C215.16 193.565 213.755 196.995 212.383 200H202.779C201.08 195.165 199.316 190.037 197.487 184.614C195.723 179.126 194.09 173.507 192.587 167.758Z" fill="#60195E"/>
<path d="M1.544 269.696L9.288 268.416V278.528H21.192V284.992H9.288V298.624C9.288 301.312 9.71467 303.232 10.568 304.384C11.4213 305.536 12.872 306.112 14.92 306.112C16.328 306.112 17.5653 305.963 18.632 305.664C19.7413 305.365 20.616 305.088 21.256 304.832L22.536 310.976C21.64 311.36 20.4667 311.744 19.016 312.128C17.5653 312.555 15.8587 312.768 13.896 312.768C11.5067 312.768 9.50133 312.448 7.88 311.808C6.30133 311.168 5.04267 310.251 4.104 309.056C3.16533 307.819 2.504 306.347 2.12 304.64C1.736 302.891 1.544 300.907 1.544 298.688V269.696ZM56.006 278.528C52.55 291.243 48.5393 302.763 43.974 313.088C43.1207 315.008 42.246 316.651 41.35 318.016C40.454 319.381 39.4513 320.512 38.342 321.408C37.2327 322.304 35.9953 322.944 34.63 323.328C33.2647 323.755 31.686 323.968 29.894 323.968C28.6993 323.968 27.5047 323.84 26.31 323.584C25.158 323.328 24.2833 323.051 23.686 322.752L25.094 316.544C26.63 317.141 28.1447 317.44 29.638 317.44C31.6433 317.44 33.2007 316.949 34.31 315.968C35.462 315.029 36.4647 313.557 37.318 311.552C34.886 306.859 32.5393 301.739 30.278 296.192C28.0593 290.645 26.0753 284.757 24.326 278.528H32.582C33.0087 280.32 33.5207 282.261 34.118 284.352C34.758 286.443 35.4407 288.576 36.166 290.752C36.8913 292.885 37.6593 295.019 38.47 297.152C39.2807 299.285 40.0913 301.269 40.902 303.104C42.2673 299.307 43.5473 295.275 44.742 291.008C45.9367 286.699 47.0247 282.539 48.006 278.528H56.006ZM84.0735 295.424C84.0735 291.968 83.2842 289.28 81.7055 287.36C80.1695 285.44 77.6735 284.48 74.2175 284.48C73.4922 284.48 72.7242 284.523 71.9135 284.608C71.1455 284.651 70.3775 284.779 69.6095 284.992V304.128C70.2922 304.597 71.1882 305.045 72.2975 305.472C73.4495 305.856 74.6655 306.048 75.9455 306.048C78.7615 306.048 80.8095 305.088 82.0895 303.168C83.4122 301.248 84.0735 298.667 84.0735 295.424ZM92.0095 295.296C92.0095 297.856 91.6682 300.203 90.9855 302.336C90.3455 304.469 89.4068 306.304 88.1695 307.84C86.9322 309.376 85.3748 310.571 83.4975 311.424C81.6628 312.277 79.5722 312.704 77.2255 312.704C75.6468 312.704 74.1962 312.512 72.8735 312.128C71.5508 311.744 70.4628 311.317 69.6095 310.848V323.84H61.8655V279.616C63.4442 279.189 65.3855 278.784 67.6895 278.4C69.9935 278.016 72.4255 277.824 74.9855 277.824C77.6308 277.824 79.9988 278.229 82.0895 279.04C84.1802 279.851 85.9508 281.024 87.4015 282.56C88.8948 284.053 90.0255 285.888 90.7935 288.064C91.6042 290.197 92.0095 292.608 92.0095 295.296ZM98.1345 295.424C98.1345 292.48 98.5612 289.899 99.4145 287.68C100.311 285.461 101.484 283.627 102.935 282.176C104.385 280.683 106.049 279.573 107.927 278.848C109.804 278.08 111.724 277.696 113.687 277.696C118.295 277.696 121.879 279.125 124.439 281.984C127.041 284.843 128.343 289.109 128.343 294.784C128.343 295.211 128.321 295.701 128.279 296.256C128.279 296.768 128.257 297.237 128.215 297.664H106.135C106.348 300.352 107.287 302.443 108.951 303.936C110.657 305.387 113.111 306.112 116.311 306.112C118.188 306.112 119.895 305.941 121.431 305.6C123.009 305.259 124.247 304.896 125.143 304.512L126.167 310.848C125.74 311.061 125.143 311.296 124.375 311.552C123.649 311.765 122.796 311.957 121.815 312.128C120.876 312.341 119.852 312.512 118.743 312.64C117.633 312.768 116.503 312.832 115.351 312.832C112.407 312.832 109.847 312.405 107.671 311.552C105.495 310.656 103.703 309.44 102.295 307.904C100.887 306.325 99.8412 304.491 99.1585 302.4C98.4758 300.267 98.1345 297.941 98.1345 295.424ZM120.599 291.968C120.599 290.901 120.449 289.899 120.151 288.96C119.852 287.979 119.404 287.147 118.807 286.464C118.252 285.739 117.548 285.184 116.695 284.8C115.884 284.373 114.903 284.16 113.751 284.16C112.556 284.16 111.511 284.395 110.615 284.864C109.719 285.291 108.951 285.867 108.311 286.592C107.713 287.317 107.244 288.149 106.903 289.088C106.561 290.027 106.327 290.987 106.199 291.968H120.599ZM145.257 283.84C145.257 285.333 144.745 286.549 143.721 287.488C142.74 288.427 141.545 288.896 140.137 288.896C138.686 288.896 137.47 288.427 136.489 287.488C135.508 286.549 135.017 285.333 135.017 283.84C135.017 282.347 135.508 281.131 136.489 280.192C137.47 279.211 138.686 278.72 140.137 278.72C141.545 278.72 142.74 279.211 143.721 280.192C144.745 281.131 145.257 282.347 145.257 283.84ZM145.257 307.776C145.257 309.269 144.745 310.485 143.721 311.424C142.74 312.363 141.545 312.832 140.137 312.832C138.686 312.832 137.47 312.363 136.489 311.424C135.508 310.485 135.017 309.269 135.017 307.776C135.017 306.283 135.508 305.067 136.489 304.128C137.47 303.147 138.686 302.656 140.137 302.656C141.545 302.656 142.74 303.147 143.721 304.128C144.745 305.067 145.257 306.283 145.257 307.776ZM182.251 262.336C183.872 262.336 185.237 262.464 186.347 262.72C187.499 262.976 188.395 263.232 189.035 263.488L187.819 269.76C187.221 269.547 186.496 269.355 185.643 269.184C184.832 269.013 183.936 268.928 182.955 268.928C180.395 268.928 178.624 269.611 177.643 270.976C176.704 272.341 176.235 274.112 176.235 276.288V278.528H188.523V284.992H176.235V312H168.491V276.16C168.491 271.808 169.621 268.416 171.883 265.984C174.144 263.552 177.6 262.336 182.251 262.336ZM206.123 312.64C203.819 312.597 201.899 312.341 200.363 311.872C198.869 311.403 197.675 310.741 196.779 309.888C195.883 308.992 195.243 307.904 194.859 306.624C194.517 305.301 194.347 303.808 194.347 302.144V263.616L202.091 262.336V300.672C202.091 301.611 202.155 302.4 202.283 303.04C202.453 303.68 202.731 304.235 203.115 304.704C203.499 305.131 204.011 305.472 204.651 305.728C205.333 305.941 206.187 306.112 207.211 306.24L206.123 312.64ZM211.635 295.424C211.635 292.48 212.061 289.899 212.915 287.68C213.811 285.461 214.984 283.627 216.435 282.176C217.885 280.683 219.549 279.573 221.427 278.848C223.304 278.08 225.224 277.696 227.187 277.696C231.795 277.696 235.379 279.125 237.939 281.984C240.541 284.843 241.843 289.109 241.843 294.784C241.843 295.211 241.821 295.701 241.779 296.256C241.779 296.768 241.757 297.237 241.715 297.664H219.635C219.848 300.352 220.787 302.443 222.451 303.936C224.157 305.387 226.611 306.112 229.811 306.112C231.688 306.112 233.395 305.941 234.931 305.6C236.509 305.259 237.747 304.896 238.643 304.512L239.667 310.848C239.24 311.061 238.643 311.296 237.875 311.552C237.149 311.765 236.296 311.957 235.315 312.128C234.376 312.341 233.352 312.512 232.243 312.64C231.133 312.768 230.003 312.832 228.851 312.832C225.907 312.832 223.347 312.405 221.171 311.552C218.995 310.656 217.203 309.44 215.795 307.904C214.387 306.325 213.341 304.491 212.659 302.4C211.976 300.267 211.635 297.941 211.635 295.424ZM234.099 291.968C234.099 290.901 233.949 289.899 233.651 288.96C233.352 287.979 232.904 287.147 232.307 286.464C231.752 285.739 231.048 285.184 230.195 284.8C229.384 284.373 228.403 284.16 227.251 284.16C226.056 284.16 225.011 284.395 224.115 284.864C223.219 285.291 222.451 285.867 221.811 286.592C221.213 287.317 220.744 288.149 220.403 289.088C220.061 290.027 219.827 290.987 219.699 291.968H234.099ZM262.085 289.472L269.189 278.528H277.317L266.309 294.336C268.613 297.323 270.81 300.352 272.901 303.424C275.034 306.453 276.784 309.312 278.149 312H269.765C269.381 311.189 268.869 310.272 268.229 309.248C267.632 308.181 266.97 307.093 266.245 305.984C265.562 304.832 264.837 303.701 264.069 302.592C263.301 301.483 262.554 300.437 261.829 299.456C260.336 301.376 258.864 303.509 257.413 305.856C256.005 308.16 254.832 310.208 253.893 312H245.957C246.597 310.72 247.365 309.355 248.261 307.904C249.157 306.453 250.117 304.981 251.141 303.488C252.165 301.952 253.21 300.437 254.277 298.944C255.386 297.408 256.474 295.957 257.541 294.592L246.469 278.528H254.981L262.085 289.472Z" fill="#60195E"/>
<path d="M3.072 369.424C3.072 366.48 3.49867 363.899 4.352 361.68C5.248 359.461 6.42133 357.627 7.872 356.176C9.32267 354.683 10.9867 353.573 12.864 352.848C14.7413 352.08 16.6613 351.696 18.624 351.696C23.232 351.696 26.816 353.125 29.376 355.984C31.9787 358.843 33.28 363.109 33.28 368.784C33.28 369.211 33.2587 369.701 33.216 370.256C33.216 370.768 33.1947 371.237 33.152 371.664H11.072C11.2853 374.352 12.224 376.443 13.888 377.936C15.5947 379.387 18.048 380.112 21.248 380.112C23.1253 380.112 24.832 379.941 26.368 379.6C27.9467 379.259 29.184 378.896 30.08 378.512L31.104 384.848C30.6773 385.061 30.08 385.296 29.312 385.552C28.5867 385.765 27.7333 385.957 26.752 386.128C25.8133 386.341 24.7893 386.512 23.68 386.64C22.5707 386.768 21.44 386.832 20.288 386.832C17.344 386.832 14.784 386.405 12.608 385.552C10.432 384.656 8.64 383.44 7.232 381.904C5.824 380.325 4.77867 378.491 4.096 376.4C3.41333 374.267 3.072 371.941 3.072 369.424ZM25.536 365.968C25.536 364.901 25.3867 363.899 25.088 362.96C24.7893 361.979 24.3413 361.147 23.744 360.464C23.1893 359.739 22.4853 359.184 21.632 358.8C20.8213 358.373 19.84 358.16 18.688 358.16C17.4933 358.16 16.448 358.395 15.552 358.864C14.656 359.291 13.888 359.867 13.248 360.592C12.6507 361.317 12.1813 362.149 11.84 363.088C11.4987 364.027 11.264 364.987 11.136 365.968H25.536ZM47.5705 369.424C47.5705 372.667 48.2105 375.248 49.4905 377.168C50.8132 379.088 52.8825 380.048 55.6985 380.048C56.9785 380.048 58.1732 379.856 59.2825 379.472C60.4345 379.045 61.3518 378.597 62.0345 378.128V358.992C61.4798 358.864 60.7758 358.757 59.9225 358.672C59.1118 358.544 58.0452 358.48 56.7225 358.48C53.8638 358.48 51.6238 359.461 50.0025 361.424C48.3812 363.344 47.5705 366.011 47.5705 369.424ZM39.6345 369.296C39.6345 366.651 40.0185 364.261 40.7865 362.128C41.5972 359.952 42.7278 358.117 44.1785 356.624C45.6718 355.088 47.4638 353.915 49.5545 353.104C51.6452 352.251 54.0132 351.824 56.6585 351.824C59.3038 351.824 61.7785 352.016 64.0825 352.4C66.3865 352.784 68.2852 353.189 69.7785 353.616V397.84H62.0345V384.848C61.1385 385.317 60.0292 385.744 58.7065 386.128C57.4265 386.512 55.9972 386.704 54.4185 386.704C52.0292 386.704 49.9172 386.299 48.0825 385.488C46.2478 384.635 44.7118 383.44 43.4745 381.904C42.2372 380.368 41.2772 378.533 40.5945 376.4C39.9545 374.267 39.6345 371.899 39.6345 369.296ZM107.072 384.976C105.578 385.36 103.637 385.744 101.248 386.128C98.8582 386.555 96.2342 386.768 93.3755 386.768C90.6875 386.768 88.4262 386.384 86.5915 385.616C84.7995 384.848 83.3488 383.781 82.2395 382.416C81.1728 381.051 80.4048 379.429 79.9355 377.552C79.4662 375.632 79.2315 373.541 79.2315 371.28V352.528H86.9755V370.064C86.9755 373.648 87.4875 376.208 88.5115 377.744C89.5782 379.28 91.4128 380.048 94.0155 380.048C94.9542 380.048 95.9355 380.005 96.9595 379.92C98.0262 379.835 98.8155 379.728 99.3275 379.6V352.528H107.072V384.976ZM124.736 386H116.992V352.528H124.736V386ZM125.568 342.736C125.568 344.187 125.099 345.339 124.16 346.192C123.221 347.045 122.112 347.472 120.832 347.472C119.509 347.472 118.379 347.045 117.44 346.192C116.501 345.339 116.032 344.187 116.032 342.736C116.032 341.243 116.501 340.069 117.44 339.216C118.379 338.363 119.509 337.936 120.832 337.936C122.112 337.936 123.221 338.363 124.16 339.216C125.099 340.069 125.568 341.243 125.568 342.736ZM143.192 386C141.058 381.605 138.861 376.571 136.6 370.896C134.381 365.179 132.354 359.056 130.52 352.528H138.776C139.245 354.405 139.778 356.432 140.376 358.608C141.016 360.741 141.677 362.896 142.36 365.072C143.085 367.205 143.81 369.296 144.536 371.344C145.304 373.349 146.008 375.163 146.648 376.784C147.288 375.163 147.97 373.349 148.696 371.344C149.421 369.296 150.125 367.205 150.808 365.072C151.533 362.896 152.216 360.741 152.856 358.608C153.496 356.432 154.05 354.405 154.52 352.528H162.52C160.685 359.056 158.637 365.179 156.376 370.896C154.157 376.571 151.981 381.605 149.848 386H143.192ZM180.079 380.56C182.468 380.56 184.282 380.432 185.519 380.176V371.6C185.092 371.472 184.474 371.344 183.663 371.216C182.852 371.088 181.956 371.024 180.975 371.024C180.122 371.024 179.247 371.088 178.351 371.216C177.498 371.344 176.708 371.579 175.983 371.92C175.3 372.261 174.746 372.752 174.319 373.392C173.892 373.989 173.679 374.757 173.679 375.696C173.679 377.531 174.255 378.811 175.407 379.536C176.559 380.219 178.116 380.56 180.079 380.56ZM179.439 351.696C181.999 351.696 184.154 352.016 185.903 352.656C187.652 353.296 189.039 354.192 190.063 355.344C191.13 356.496 191.876 357.904 192.303 359.568C192.772 361.189 193.007 362.981 193.007 364.944V385.232C191.812 385.488 189.999 385.787 187.567 386.128C185.178 386.512 182.468 386.704 179.439 386.704C177.434 386.704 175.599 386.512 173.935 386.128C172.271 385.744 170.842 385.125 169.647 384.272C168.495 383.419 167.578 382.309 166.895 380.944C166.255 379.579 165.935 377.893 165.935 375.888C165.935 373.968 166.298 372.347 167.023 371.024C167.791 369.701 168.815 368.635 170.095 367.824C171.375 366.971 172.847 366.373 174.511 366.032C176.218 365.648 177.988 365.456 179.823 365.456C180.676 365.456 181.572 365.52 182.511 365.648C183.45 365.733 184.452 365.904 185.519 366.16V364.88C185.519 363.984 185.412 363.131 185.199 362.32C184.986 361.509 184.602 360.805 184.047 360.208C183.535 359.568 182.831 359.077 181.935 358.736C181.082 358.395 179.994 358.224 178.671 358.224C176.879 358.224 175.236 358.352 173.743 358.608C172.25 358.864 171.034 359.163 170.095 359.504L169.135 353.232C170.116 352.891 171.546 352.549 173.423 352.208C175.3 351.867 177.306 351.696 179.439 351.696ZM214.139 386.64C211.835 386.597 209.915 386.341 208.379 385.872C206.885 385.403 205.691 384.741 204.795 383.888C203.899 382.992 203.259 381.904 202.875 380.624C202.533 379.301 202.363 377.808 202.363 376.144V337.616L210.107 336.336V374.672C210.107 375.611 210.171 376.4 210.299 377.04C210.469 377.68 210.747 378.235 211.131 378.704C211.515 379.131 212.027 379.472 212.667 379.728C213.349 379.941 214.203 380.112 215.227 380.24L214.139 386.64ZM219.635 369.424C219.635 366.48 220.061 363.899 220.915 361.68C221.811 359.461 222.984 357.627 224.435 356.176C225.885 354.683 227.549 353.573 229.427 352.848C231.304 352.08 233.224 351.696 235.187 351.696C239.795 351.696 243.379 353.125 245.939 355.984C248.541 358.843 249.843 363.109 249.843 368.784C249.843 369.211 249.821 369.701 249.779 370.256C249.779 370.768 249.757 371.237 249.715 371.664H227.635C227.848 374.352 228.787 376.443 230.451 377.936C232.157 379.387 234.611 380.112 237.811 380.112C239.688 380.112 241.395 379.941 242.931 379.6C244.509 379.259 245.747 378.896 246.643 378.512L247.667 384.848C247.24 385.061 246.643 385.296 245.875 385.552C245.149 385.765 244.296 385.957 243.315 386.128C242.376 386.341 241.352 386.512 240.243 386.64C239.133 386.768 238.003 386.832 236.851 386.832C233.907 386.832 231.347 386.405 229.171 385.552C226.995 384.656 225.203 383.44 223.795 381.904C222.387 380.325 221.341 378.491 220.659 376.4C219.976 374.267 219.635 371.941 219.635 369.424ZM242.099 365.968C242.099 364.901 241.949 363.899 241.651 362.96C241.352 361.979 240.904 361.147 240.307 360.464C239.752 359.739 239.048 359.184 238.195 358.8C237.384 358.373 236.403 358.16 235.251 358.16C234.056 358.16 233.011 358.395 232.115 358.864C231.219 359.291 230.451 359.867 229.811 360.592C229.213 361.317 228.744 362.149 228.403 363.088C228.061 364.027 227.827 364.987 227.699 365.968H242.099ZM258.053 353.616C259.546 353.189 261.488 352.784 263.877 352.4C266.266 352.016 268.912 351.824 271.813 351.824C274.544 351.824 276.826 352.208 278.661 352.976C280.496 353.701 281.946 354.747 283.013 356.112C284.122 357.435 284.89 359.056 285.317 360.976C285.786 362.853 286.021 364.923 286.021 367.184V386H278.277V368.4C278.277 366.608 278.149 365.093 277.893 363.856C277.68 362.576 277.296 361.552 276.741 360.784C276.229 359.973 275.504 359.397 274.565 359.056C273.669 358.672 272.56 358.48 271.237 358.48C270.256 358.48 269.232 358.544 268.165 358.672C267.098 358.8 266.309 358.907 265.797 358.992V386H258.053V353.616ZM295.107 343.696L302.851 342.416V352.528H314.755V358.992H302.851V372.624C302.851 375.312 303.277 377.232 304.131 378.384C304.984 379.536 306.435 380.112 308.483 380.112C309.891 380.112 311.128 379.963 312.195 379.664C313.304 379.365 314.179 379.088 314.819 378.832L316.099 384.976C315.203 385.36 314.029 385.744 312.579 386.128C311.128 386.555 309.421 386.768 307.458 386.768C305.069 386.768 303.064 386.448 301.443 385.808C299.864 385.168 298.605 384.251 297.667 383.056C296.728 381.819 296.067 380.347 295.683 378.64C295.299 376.891 295.107 374.907 295.107 372.688V343.696ZM335.322 369.296C335.322 366.821 335.706 364.517 336.474 362.384C337.242 360.208 338.33 358.331 339.738 356.752C341.189 355.173 342.938 353.936 344.986 353.04C347.034 352.144 349.338 351.696 351.898 351.696C355.055 351.696 358.042 352.272 360.858 353.424L359.194 359.76C358.298 359.376 357.274 359.056 356.122 358.8C355.013 358.544 353.818 358.416 352.538 358.416C349.509 358.416 347.205 359.376 345.626 361.296C344.047 363.173 343.258 365.84 343.258 369.296C343.258 372.624 344.005 375.269 345.498 377.232C346.991 379.152 349.509 380.112 353.05 380.112C354.373 380.112 355.674 379.984 356.954 379.728C358.234 379.472 359.343 379.152 360.282 378.768L361.37 385.168C360.517 385.595 359.215 385.979 357.466 386.32C355.759 386.661 353.989 386.832 352.154 386.832C349.295 386.832 346.799 386.405 344.666 385.552C342.575 384.656 340.826 383.44 339.418 381.904C338.053 380.325 337.029 378.469 336.346 376.336C335.663 374.16 335.322 371.813 335.322 369.296ZM375.75 380.432C377.798 380.432 379.291 380.197 380.23 379.728C381.168 379.216 381.638 378.363 381.638 377.168C381.638 376.059 381.126 375.141 380.102 374.416C379.12 373.691 377.478 372.901 375.174 372.048C373.766 371.536 372.464 371.003 371.27 370.448C370.118 369.851 369.115 369.168 368.262 368.4C367.408 367.632 366.726 366.715 366.214 365.648C365.744 364.539 365.51 363.195 365.51 361.616C365.51 358.544 366.64 356.133 368.902 354.384C371.163 352.592 374.235 351.696 378.118 351.696C380.08 351.696 381.958 351.888 383.75 352.272C385.542 352.613 386.886 352.955 387.782 353.296L386.374 359.568C385.52 359.184 384.432 358.843 383.11 358.544C381.787 358.203 380.251 358.032 378.502 358.032C376.923 358.032 375.643 358.309 374.662 358.864C373.68 359.376 373.19 360.187 373.19 361.296C373.19 361.851 373.275 362.341 373.446 362.768C373.659 363.195 374 363.6 374.47 363.984C374.939 364.325 375.558 364.688 376.326 365.072C377.094 365.413 378.032 365.776 379.142 366.16C380.976 366.843 382.534 367.525 383.814 368.208C385.094 368.848 386.139 369.595 386.95 370.448C387.803 371.259 388.422 372.197 388.806 373.264C389.19 374.331 389.382 375.611 389.382 377.104C389.382 380.304 388.187 382.736 385.798 384.4C383.451 386.021 380.08 386.832 375.686 386.832C372.742 386.832 370.374 386.576 368.582 386.064C366.79 385.595 365.531 385.211 364.806 384.912L366.15 378.448C367.302 378.917 368.667 379.365 370.246 379.792C371.867 380.219 373.702 380.432 375.75 380.432ZM405 380.432C407.048 380.432 408.541 380.197 409.48 379.728C410.418 379.216 410.888 378.363 410.888 377.168C410.888 376.059 410.376 375.141 409.352 374.416C408.37 373.691 406.728 372.901 404.424 372.048C403.016 371.536 401.714 371.003 400.52 370.448C399.368 369.851 398.365 369.168 397.512 368.4C396.658 367.632 395.976 366.715 395.464 365.648C394.994 364.539 394.76 363.195 394.76 361.616C394.76 358.544 395.89 356.133 398.152 354.384C400.413 352.592 403.485 351.696 407.368 351.696C409.33 351.696 411.208 351.888 413 352.272C414.792 352.613 416.136 352.955 417.032 353.296L415.624 359.568C414.77 359.184 413.682 358.843 412.36 358.544C411.037 358.203 409.501 358.032 407.752 358.032C406.173 358.032 404.893 358.309 403.912 358.864C402.93 359.376 402.44 360.187 402.44 361.296C402.44 361.851 402.525 362.341 402.696 362.768C402.909 363.195 403.25 363.6 403.72 363.984C404.189 364.325 404.808 364.688 405.576 365.072C406.344 365.413 407.282 365.776 408.392 366.16C410.226 366.843 411.784 367.525 413.064 368.208C414.344 368.848 415.389 369.595 416.2 370.448C417.053 371.259 417.672 372.197 418.056 373.264C418.44 374.331 418.632 375.611 418.632 377.104C418.632 380.304 417.437 382.736 415.048 384.4C412.701 386.021 409.33 386.832 404.936 386.832C401.992 386.832 399.624 386.576 397.832 386.064C396.04 385.595 394.781 385.211 394.056 384.912L395.4 378.448C396.552 378.917 397.917 379.365 399.496 379.792C401.117 380.219 402.952 380.432 405 380.432ZM434.57 357.84C434.57 359.333 434.058 360.549 433.034 361.488C432.052 362.427 430.858 362.896 429.45 362.896C427.999 362.896 426.783 362.427 425.802 361.488C424.82 360.549 424.33 359.333 424.33 357.84C424.33 356.347 424.82 355.131 425.802 354.192C426.783 353.211 427.999 352.72 429.45 352.72C430.858 352.72 432.052 353.211 433.034 354.192C434.058 355.131 434.57 356.347 434.57 357.84ZM434.57 381.776C434.57 383.269 434.058 384.485 433.034 385.424C432.052 386.363 430.858 386.832 429.45 386.832C427.999 386.832 426.783 386.363 425.802 385.424C424.82 384.485 424.33 383.269 424.33 381.776C424.33 380.283 424.82 379.067 425.802 378.128C426.783 377.147 427.999 376.656 429.45 376.656C430.858 376.656 432.052 377.147 433.034 378.128C434.058 379.067 434.57 380.283 434.57 381.776ZM471.563 336.336C473.184 336.336 474.55 336.464 475.659 336.72C476.811 336.976 477.707 337.232 478.347 337.488L477.131 343.76C476.534 343.547 475.808 343.355 474.955 343.184C474.144 343.013 473.248 342.928 472.267 342.928C469.707 342.928 467.936 343.611 466.955 344.976C466.016 346.341 465.547 348.112 465.547 350.288V352.528H477.835V358.992H465.547V386H457.803V350.16C457.803 345.808 458.934 342.416 461.195 339.984C463.456 337.552 466.912 336.336 471.563 336.336ZM495.435 386.64C493.131 386.597 491.211 386.341 489.675 385.872C488.182 385.403 486.987 384.741 486.091 383.888C485.195 382.992 484.555 381.904 484.171 380.624C483.83 379.301 483.659 377.808 483.659 376.144V337.616L491.403 336.336V374.672C491.403 375.611 491.467 376.4 491.595 377.04C491.766 377.68 492.043 378.235 492.427 378.704C492.811 379.131 493.323 379.472 493.963 379.728C494.646 379.941 495.499 380.112 496.523 380.24L495.435 386.64ZM500.947 369.424C500.947 366.48 501.374 363.899 502.227 361.68C503.123 359.461 504.296 357.627 505.747 356.176C507.198 354.683 508.862 353.573 510.739 352.848C512.616 352.08 514.536 351.696 516.499 351.696C521.107 351.696 524.691 353.125 527.251 355.984C529.854 358.843 531.155 363.109 531.155 368.784C531.155 369.211 531.134 369.701 531.091 370.256C531.091 370.768 531.07 371.237 531.027 371.664H508.947C509.16 374.352 510.099 376.443 511.763 377.936C513.47 379.387 515.923 380.112 519.123 380.112C521 380.112 522.707 379.941 524.243 379.6C525.822 379.259 527.059 378.896 527.955 378.512L528.979 384.848C528.552 385.061 527.955 385.296 527.187 385.552C526.462 385.765 525.608 385.957 524.627 386.128C523.688 386.341 522.664 386.512 521.555 386.64C520.446 386.768 519.315 386.832 518.163 386.832C515.219 386.832 512.659 386.405 510.483 385.552C508.307 384.656 506.515 383.44 505.107 381.904C503.699 380.325 502.654 378.491 501.971 376.4C501.288 374.267 500.947 371.941 500.947 369.424ZM523.411 365.968C523.411 364.901 523.262 363.899 522.963 362.96C522.664 361.979 522.216 361.147 521.619 360.464C521.064 359.739 520.36 359.184 519.507 358.8C518.696 358.373 517.715 358.16 516.563 358.16C515.368 358.16 514.323 358.395 513.427 358.864C512.531 359.291 511.763 359.867 511.123 360.592C510.526 361.317 510.056 362.149 509.715 363.088C509.374 364.027 509.139 364.987 509.011 365.968H523.411ZM551.398 363.472L558.502 352.528H566.63L555.622 368.336C557.926 371.323 560.123 374.352 562.214 377.424C564.347 380.453 566.096 383.312 567.462 386H559.078C558.694 385.189 558.182 384.272 557.542 383.248C556.944 382.181 556.283 381.093 555.558 379.984C554.875 378.832 554.15 377.701 553.382 376.592C552.614 375.483 551.867 374.437 551.142 373.456C549.648 375.376 548.176 377.509 546.726 379.856C545.318 382.16 544.144 384.208 543.206 386H535.27C535.91 384.72 536.678 383.355 537.574 381.904C538.47 380.453 539.43 378.981 540.454 377.488C541.478 375.952 542.523 374.437 543.59 372.944C544.699 371.408 545.787 369.957 546.854 368.592L535.782 352.528H544.294L551.398 363.472ZM569.785 364.176H587.001V371.28H569.785V364.176ZM599.508 368.4C599.508 371.685 600.212 374.096 601.62 375.632C603.071 377.125 604.927 377.872 607.188 377.872C608.425 377.872 609.577 377.701 610.644 377.36C611.753 377.019 612.649 376.613 613.332 376.144V358.8C612.777 358.672 612.095 358.565 611.284 358.48C610.473 358.352 609.449 358.288 608.212 358.288C605.396 358.288 603.241 359.227 601.748 361.104C600.255 362.939 599.508 365.371 599.508 368.4ZM621.076 382.608C621.076 387.941 619.711 391.845 616.98 394.32C614.292 396.795 610.153 398.032 604.564 398.032C602.516 398.032 600.511 397.861 598.548 397.52C596.628 397.179 594.879 396.731 593.3 396.176L594.708 389.584C596.031 390.139 597.524 390.587 599.188 390.928C600.895 391.269 602.729 391.44 604.692 391.44C607.807 391.44 610.025 390.8 611.348 389.52C612.671 388.24 613.332 386.341 613.332 383.824V382.544C612.564 382.928 611.54 383.312 610.26 383.696C609.023 384.08 607.593 384.272 605.972 384.272C603.839 384.272 601.876 383.931 600.084 383.248C598.335 382.565 596.82 381.563 595.54 380.24C594.303 378.917 593.321 377.275 592.596 375.312C591.913 373.307 591.572 371.003 591.572 368.4C591.572 365.968 591.935 363.728 592.66 361.68C593.428 359.632 594.516 357.883 595.924 356.432C597.375 354.981 599.124 353.851 601.172 353.04C603.22 352.229 605.545 351.824 608.148 351.824C610.665 351.824 613.055 352.016 615.316 352.4C617.577 352.784 619.497 353.189 621.076 353.616V382.608ZM650 359.504C649.36 359.291 648.464 359.077 647.312 358.864C646.203 358.608 644.901 358.48 643.408 358.48C642.555 358.48 641.637 358.565 640.656 358.736C639.717 358.907 639.056 359.056 638.672 359.184V386H630.928V354.128C632.421 353.573 634.277 353.061 636.496 352.592C638.757 352.08 641.253 351.824 643.984 351.824C644.496 351.824 645.093 351.867 645.776 351.952C646.459 351.995 647.141 352.08 647.824 352.208C648.507 352.293 649.168 352.421 649.808 352.592C650.448 352.72 650.96 352.848 651.344 352.976L650 359.504ZM687.013 369.232C687.013 371.877 686.629 374.288 685.861 376.464C685.093 378.64 684.005 380.496 682.597 382.032C681.189 383.568 679.482 384.763 677.477 385.616C675.514 386.469 673.338 386.896 670.949 386.896C668.559 386.896 666.383 386.469 664.421 385.616C662.458 384.763 660.773 383.568 659.365 382.032C657.957 380.496 656.847 378.64 656.036 376.464C655.269 374.288 654.885 371.877 654.885 369.232C654.885 366.587 655.269 364.197 656.036 362.064C656.847 359.888 657.957 358.032 659.365 356.496C660.815 354.96 662.522 353.787 664.485 352.976C666.447 352.123 668.602 351.696 670.949 351.696C673.295 351.696 675.45 352.123 677.413 352.976C679.418 353.787 681.125 354.96 682.533 356.496C683.941 358.032 685.029 359.888 685.797 362.064C686.607 364.197 687.013 366.587 687.013 369.232ZM679.077 369.232C679.077 365.904 678.351 363.28 676.901 361.36C675.493 359.397 673.509 358.416 670.949 358.416C668.389 358.416 666.383 359.397 664.933 361.36C663.525 363.28 662.821 365.904 662.821 369.232C662.821 372.603 663.525 375.269 664.933 377.232C666.383 379.195 668.389 380.176 670.949 380.176C673.509 380.176 675.493 379.195 676.901 377.232C678.351 375.269 679.077 372.603 679.077 369.232ZM714.271 364.944C713.29 368.699 712.223 372.368 711.071 375.952C709.962 379.493 708.852 382.843 707.743 386H701.407C700.554 384.037 699.658 381.797 698.719 379.28C697.78 376.763 696.842 374.075 695.903 371.216C694.964 368.357 694.026 365.349 693.087 362.192C692.148 359.035 691.231 355.813 690.335 352.528H698.527C698.911 354.32 699.359 356.261 699.871 358.352C700.383 360.4 700.916 362.512 701.471 364.688C702.026 366.821 702.602 368.912 703.199 370.96C703.796 373.008 704.394 374.885 704.991 376.592C705.631 374.629 706.25 372.603 706.847 370.512C707.487 368.421 708.084 366.331 708.639 364.24C709.194 362.149 709.706 360.123 710.175 358.16C710.687 356.155 711.135 354.277 711.519 352.528H717.471C717.855 354.277 718.282 356.155 718.751 358.16C719.22 360.123 719.711 362.149 720.223 364.24C720.778 366.331 721.354 368.421 721.951 370.512C722.591 372.603 723.231 374.629 723.871 376.592C724.426 374.885 725.002 373.008 725.599 370.96C726.196 368.912 726.772 366.821 727.327 364.688C727.924 362.512 728.479 360.4 728.991 358.352C729.503 356.261 729.951 354.32 730.335 352.528H738.335C737.439 355.813 736.522 359.035 735.583 362.192C734.644 365.349 733.706 368.357 732.767 371.216C731.828 374.075 730.89 376.763 729.951 379.28C729.012 381.797 728.095 384.037 727.199 386H720.927C719.818 382.843 718.666 379.493 717.471 375.952C716.319 372.368 715.252 368.699 714.271 364.944Z" fill="#60195E"/>
<path d="M31.9 610C30.5853 607.796 29.116 605.437 27.492 602.924C25.868 600.372 24.186 597.82 22.446 595.268C20.706 592.677 18.9273 590.183 17.11 587.786C15.3313 585.35 13.63 583.165 12.006 581.232V610H4.814V569.806H10.788C12.3347 571.43 13.9973 573.363 15.776 575.606C17.5547 577.81 19.3333 580.111 21.112 582.508C22.9293 584.905 24.6693 587.322 26.332 589.758C28.0333 592.155 29.5413 594.398 30.856 596.486V569.806H38.106V610H31.9ZM63.2336 610.87C60.4883 610.87 58.1296 610.483 56.1576 609.71C54.1856 608.898 52.5423 607.777 51.2276 606.346C49.9516 604.915 49.0043 603.233 48.3856 601.3C47.7669 599.367 47.4576 597.24 47.4576 594.92V569.806H54.8236V594.224C54.8236 596.041 55.0169 597.607 55.4036 598.922C55.8289 600.198 56.4089 601.242 57.1436 602.054C57.9169 602.866 58.8063 603.465 59.8116 603.852C60.8556 604.239 62.0156 604.432 63.2916 604.432C64.5676 604.432 65.7276 604.239 66.7716 603.852C67.8156 603.465 68.7049 602.866 69.4396 602.054C70.2129 601.242 70.7929 600.198 71.1796 598.922C71.6049 597.607 71.8176 596.041 71.8176 594.224V569.806H79.1836V594.92C79.1836 597.24 78.8549 599.367 78.1976 601.3C77.5789 603.233 76.6123 604.915 75.2976 606.346C74.0216 607.777 72.3783 608.898 70.3676 609.71C68.3569 610.483 65.9789 610.87 63.2336 610.87ZM113.933 603.678V610H88.5288V569.806H95.8368V603.678H113.933ZM144.915 603.678V610H119.511V569.806H126.819V603.678H144.915ZM170.527 592.658C170.527 597.414 171.242 601.88 172.673 606.056C174.103 610.232 176.095 614.041 178.647 617.482L173.717 620.73C170.585 616.979 168.11 612.726 166.293 607.97C164.475 603.175 163.567 598.071 163.567 592.658C163.567 587.245 164.475 582.16 166.293 577.404C168.11 572.609 170.585 568.337 173.717 564.586L178.647 567.834C176.095 571.314 174.103 575.142 172.673 579.318C171.242 583.455 170.527 587.902 170.527 592.658ZM188.847 594.746C188.847 597.839 189.582 600.275 191.051 602.054C192.52 603.794 194.55 604.664 197.141 604.664C198.262 604.664 199.21 604.625 199.983 604.548C200.795 604.432 201.452 604.316 201.955 604.2V586.8C201.336 586.375 200.505 585.988 199.461 585.64C198.456 585.253 197.373 585.06 196.213 585.06C193.661 585.06 191.786 585.93 190.587 587.67C189.427 589.41 188.847 591.769 188.847 594.746ZM208.973 609.072C207.581 609.497 205.822 609.884 203.695 610.232C201.607 610.58 199.403 610.754 197.083 610.754C194.686 610.754 192.54 610.387 190.645 609.652C188.75 608.917 187.126 607.873 185.773 606.52C184.458 605.128 183.434 603.465 182.699 601.532C182.003 599.56 181.655 597.356 181.655 594.92C181.655 592.523 181.945 590.357 182.525 588.424C183.144 586.452 184.033 584.77 185.193 583.378C186.353 581.986 187.764 580.923 189.427 580.188C191.09 579.415 193.004 579.028 195.169 579.028C196.638 579.028 197.934 579.202 199.055 579.55C200.176 579.898 201.143 580.285 201.955 580.71V566.152L208.973 564.992V609.072ZM216.206 594.978C216.206 592.31 216.593 589.971 217.366 587.96C218.178 585.949 219.241 584.287 220.556 582.972C221.871 581.619 223.379 580.613 225.08 579.956C226.781 579.26 228.521 578.912 230.3 578.912C234.476 578.912 237.724 580.207 240.044 582.798C242.403 585.389 243.582 589.255 243.582 594.398C243.582 594.785 243.563 595.229 243.524 595.732C243.524 596.196 243.505 596.621 243.466 597.008H223.456C223.649 599.444 224.5 601.339 226.008 602.692C227.555 604.007 229.778 604.664 232.678 604.664C234.379 604.664 235.926 604.509 237.318 604.2C238.749 603.891 239.87 603.562 240.682 603.214L241.61 608.956C241.223 609.149 240.682 609.362 239.986 609.594C239.329 609.787 238.555 609.961 237.666 610.116C236.815 610.309 235.887 610.464 234.882 610.58C233.877 610.696 232.852 610.754 231.808 610.754C229.14 610.754 226.82 610.367 224.848 609.594C222.876 608.782 221.252 607.68 219.976 606.288C218.7 604.857 217.753 603.195 217.134 601.3C216.515 599.367 216.206 597.259 216.206 594.978ZM236.564 591.846C236.564 590.879 236.429 589.971 236.158 589.12C235.887 588.231 235.481 587.477 234.94 586.858C234.437 586.201 233.799 585.698 233.026 585.35C232.291 584.963 231.402 584.77 230.358 584.77C229.275 584.77 228.328 584.983 227.516 585.408C226.704 585.795 226.008 586.317 225.428 586.974C224.887 587.631 224.461 588.385 224.152 589.236C223.843 590.087 223.63 590.957 223.514 591.846H236.564ZM263.377 564.992C265.001 564.992 266.431 565.147 267.669 565.456C268.906 565.727 269.834 565.978 270.453 566.21L269.119 572.01C268.461 571.701 267.688 571.449 266.799 571.256C265.948 571.063 265.02 570.966 264.015 570.966C262.893 570.966 261.946 571.14 261.173 571.488C260.399 571.797 259.781 572.242 259.317 572.822C258.853 573.402 258.524 574.117 258.331 574.968C258.137 575.78 258.041 576.669 258.041 577.636V579.666H269.061V585.524H258.041V610H251.023V577.52C251.023 573.615 252.047 570.56 254.097 568.356C256.146 566.113 259.239 564.992 263.377 564.992ZM284.917 605.07C287.083 605.07 288.726 604.954 289.847 604.722V596.95C289.461 596.834 288.9 596.718 288.165 596.602C287.431 596.486 286.619 596.428 285.729 596.428C284.956 596.428 284.163 596.486 283.351 596.602C282.578 596.718 281.863 596.931 281.205 597.24C280.587 597.549 280.084 597.994 279.697 598.574C279.311 599.115 279.117 599.811 279.117 600.662C279.117 602.325 279.639 603.485 280.683 604.142C281.727 604.761 283.139 605.07 284.917 605.07ZM284.337 578.912C286.657 578.912 288.61 579.202 290.195 579.782C291.781 580.362 293.037 581.174 293.965 582.218C294.932 583.262 295.609 584.538 295.995 586.046C296.421 587.515 296.633 589.139 296.633 590.918V609.304C295.551 609.536 293.907 609.807 291.703 610.116C289.538 610.464 287.083 610.638 284.337 610.638C282.52 610.638 280.857 610.464 279.349 610.116C277.841 609.768 276.546 609.207 275.463 608.434C274.419 607.661 273.588 606.655 272.969 605.418C272.389 604.181 272.099 602.653 272.099 600.836C272.099 599.096 272.428 597.627 273.085 596.428C273.781 595.229 274.709 594.263 275.869 593.528C277.029 592.755 278.363 592.213 279.871 591.904C281.418 591.556 283.023 591.382 284.685 591.382C285.459 591.382 286.271 591.44 287.121 591.556C287.972 591.633 288.881 591.788 289.847 592.02V590.86C289.847 590.048 289.751 589.275 289.557 588.54C289.364 587.805 289.016 587.167 288.513 586.626C288.049 586.046 287.411 585.601 286.599 585.292C285.826 584.983 284.84 584.828 283.641 584.828C282.017 584.828 280.529 584.944 279.175 585.176C277.822 585.408 276.72 585.679 275.869 585.988L274.999 580.304C275.889 579.995 277.184 579.685 278.885 579.376C280.587 579.067 282.404 578.912 284.337 578.912ZM330.11 609.072C328.756 609.42 326.997 609.768 324.832 610.116C322.666 610.503 320.288 610.696 317.698 610.696C315.262 610.696 313.212 610.348 311.55 609.652C309.926 608.956 308.611 607.989 307.606 606.752C306.639 605.515 305.943 604.045 305.518 602.344C305.092 600.604 304.88 598.709 304.88 596.66V579.666H311.898V595.558C311.898 598.806 312.362 601.126 313.29 602.518C314.256 603.91 315.919 604.606 318.278 604.606C319.128 604.606 320.018 604.567 320.946 604.49C321.912 604.413 322.628 604.316 323.092 604.2V579.666H330.11V609.072ZM349.598 610.58C347.51 610.541 345.77 610.309 344.378 609.884C343.025 609.459 341.942 608.859 341.13 608.086C340.318 607.274 339.738 606.288 339.39 605.128C339.081 603.929 338.926 602.576 338.926 601.068V566.152L345.944 564.992V599.734C345.944 600.585 346.002 601.3 346.118 601.88C346.273 602.46 346.524 602.963 346.872 603.388C347.22 603.775 347.684 604.084 348.264 604.316C348.883 604.509 349.656 604.664 350.584 604.78L349.598 610.58ZM355.913 571.662L362.931 570.502V579.666H373.719V585.524H362.931V597.878C362.931 600.314 363.318 602.054 364.091 603.098C364.864 604.142 366.179 604.664 368.035 604.664C369.311 604.664 370.432 604.529 371.399 604.258C372.404 603.987 373.197 603.736 373.777 603.504L374.937 609.072C374.125 609.42 373.062 609.768 371.747 610.116C370.432 610.503 368.886 610.696 367.107 610.696C364.942 610.696 363.124 610.406 361.655 609.826C360.224 609.246 359.084 608.415 358.233 607.332C357.382 606.211 356.783 604.877 356.435 603.33C356.087 601.745 355.913 599.947 355.913 597.936V571.662ZM390.908 590.222H406.51V596.66H390.908V590.222ZM438.226 564.992C439.85 564.992 441.281 565.147 442.518 565.456C443.756 565.727 444.684 565.978 445.302 566.21L443.968 572.01C443.311 571.701 442.538 571.449 441.648 571.256C440.798 571.063 439.87 570.966 438.864 570.966C437.743 570.966 436.796 571.14 436.022 571.488C435.249 571.797 434.63 572.242 434.166 572.822C433.702 573.402 433.374 574.117 433.18 574.968C432.987 575.78 432.89 576.669 432.89 577.636V579.666H443.91V585.524H432.89V610H425.872V577.52C425.872 573.615 426.897 570.56 428.946 568.356C430.996 566.113 434.089 564.992 438.226 564.992ZM459.767 605.07C461.932 605.07 463.576 604.954 464.697 604.722V596.95C464.31 596.834 463.75 596.718 463.015 596.602C462.28 596.486 461.468 596.428 460.579 596.428C459.806 596.428 459.013 596.486 458.201 596.602C457.428 596.718 456.712 596.931 456.055 597.24C455.436 597.549 454.934 597.994 454.547 598.574C454.16 599.115 453.967 599.811 453.967 600.662C453.967 602.325 454.489 603.485 455.533 604.142C456.577 604.761 457.988 605.07 459.767 605.07ZM459.187 578.912C461.507 578.912 463.46 579.202 465.045 579.782C466.63 580.362 467.887 581.174 468.815 582.218C469.782 583.262 470.458 584.538 470.845 586.046C471.27 587.515 471.483 589.139 471.483 590.918V609.304C470.4 609.536 468.757 609.807 466.553 610.116C464.388 610.464 461.932 610.638 459.187 610.638C457.37 610.638 455.707 610.464 454.199 610.116C452.691 609.768 451.396 609.207 450.313 608.434C449.269 607.661 448.438 606.655 447.819 605.418C447.239 604.181 446.949 602.653 446.949 600.836C446.949 599.096 447.278 597.627 447.935 596.428C448.631 595.229 449.559 594.263 450.719 593.528C451.879 592.755 453.213 592.213 454.721 591.904C456.268 591.556 457.872 591.382 459.535 591.382C460.308 591.382 461.12 591.44 461.971 591.556C462.822 591.633 463.73 591.788 464.697 592.02V590.86C464.697 590.048 464.6 589.275 464.407 588.54C464.214 587.805 463.866 587.167 463.363 586.626C462.899 586.046 462.261 585.601 461.449 585.292C460.676 584.983 459.69 584.828 458.491 584.828C456.867 584.828 455.378 584.944 454.025 585.176C452.672 585.408 451.57 585.679 450.719 585.988L449.849 580.304C450.738 579.995 452.034 579.685 453.735 579.376C455.436 579.067 457.254 578.912 459.187 578.912ZM490.633 610.58C488.545 610.541 486.805 610.309 485.413 609.884C484.06 609.459 482.977 608.859 482.165 608.086C481.353 607.274 480.773 606.288 480.425 605.128C480.116 603.929 479.961 602.576 479.961 601.068V566.152L486.979 564.992V599.734C486.979 600.585 487.037 601.3 487.153 601.88C487.308 602.46 487.559 602.963 487.907 603.388C488.255 603.775 488.719 604.084 489.299 604.316C489.918 604.509 490.691 604.664 491.619 604.78L490.633 610.58ZM507.852 610.58C505.764 610.541 504.024 610.309 502.632 609.884C501.279 609.459 500.196 608.859 499.384 608.086C498.572 607.274 497.992 606.288 497.644 605.128C497.335 603.929 497.18 602.576 497.18 601.068V566.152L504.198 564.992V599.734C504.198 600.585 504.256 601.3 504.372 601.88C504.527 602.46 504.778 602.963 505.126 603.388C505.474 603.775 505.938 604.084 506.518 604.316C507.137 604.509 507.91 604.664 508.838 604.78L507.852 610.58ZM522.113 604.954C523.969 604.954 525.322 604.741 526.173 604.316C527.023 603.852 527.449 603.079 527.449 601.996C527.449 600.991 526.985 600.159 526.057 599.502C525.167 598.845 523.679 598.129 521.591 597.356C520.315 596.892 519.135 596.409 518.053 595.906C517.009 595.365 516.1 594.746 515.327 594.05C514.553 593.354 513.935 592.523 513.471 591.556C513.045 590.551 512.833 589.333 512.833 587.902C512.833 585.118 513.857 582.933 515.907 581.348C517.956 579.724 520.74 578.912 524.259 578.912C526.037 578.912 527.739 579.086 529.363 579.434C530.987 579.743 532.205 580.053 533.017 580.362L531.741 586.046C530.967 585.698 529.981 585.389 528.783 585.118C527.584 584.809 526.192 584.654 524.607 584.654C523.176 584.654 522.016 584.905 521.127 585.408C520.237 585.872 519.793 586.607 519.793 587.612C519.793 588.115 519.87 588.559 520.025 588.946C520.218 589.333 520.527 589.7 520.953 590.048C521.378 590.357 521.939 590.686 522.635 591.034C523.331 591.343 524.181 591.672 525.187 592.02C526.849 592.639 528.261 593.257 529.421 593.876C530.581 594.456 531.528 595.133 532.263 595.906C533.036 596.641 533.597 597.491 533.945 598.458C534.293 599.425 534.467 600.585 534.467 601.938C534.467 604.838 533.384 607.042 531.219 608.55C529.092 610.019 526.037 610.754 522.055 610.754C519.387 610.754 517.241 610.522 515.617 610.058C513.993 609.633 512.852 609.285 512.195 609.014L513.413 603.156C514.457 603.581 515.694 603.987 517.125 604.374C518.594 604.761 520.257 604.954 522.113 604.954ZM574.686 594.746C574.686 591.769 574.086 589.41 572.888 587.67C571.728 585.93 569.872 585.06 567.32 585.06C566.16 585.06 565.058 585.234 564.014 585.582C563.008 585.93 562.196 586.317 561.578 586.742V604.2C562.08 604.316 562.718 604.432 563.492 604.548C564.304 604.625 565.27 604.664 566.392 604.664C568.982 604.664 571.012 603.794 572.482 602.054C573.951 600.275 574.686 597.839 574.686 594.746ZM581.878 594.862C581.878 597.298 581.51 599.502 580.776 601.474C580.08 603.407 579.055 605.07 577.702 606.462C576.387 607.854 574.782 608.917 572.888 609.652C570.993 610.387 568.847 610.754 566.45 610.754C564.13 610.754 561.906 610.58 559.78 610.232C557.692 609.884 555.952 609.497 554.56 609.072V566.152L561.578 564.992V580.71C562.39 580.285 563.376 579.898 564.536 579.55C565.734 579.202 567.049 579.028 568.48 579.028C570.606 579.028 572.501 579.415 574.164 580.188C575.865 580.923 577.276 581.986 578.398 583.378C579.519 584.77 580.37 586.452 580.95 588.424C581.568 590.357 581.878 592.503 581.878 594.862ZM599.783 605.07C601.948 605.07 603.591 604.954 604.713 604.722V596.95C604.326 596.834 603.765 596.718 603.031 596.602C602.296 596.486 601.484 596.428 600.595 596.428C599.821 596.428 599.029 596.486 598.217 596.602C597.443 596.718 596.728 596.931 596.071 597.24C595.452 597.549 594.949 597.994 594.563 598.574C594.176 599.115 593.983 599.811 593.983 600.662C593.983 602.325 594.505 603.485 595.549 604.142C596.593 604.761 598.004 605.07 599.783 605.07ZM599.203 578.912C601.523 578.912 603.475 579.202 605.061 579.782C606.646 580.362 607.903 581.174 608.831 582.218C609.797 583.262 610.474 584.538 610.861 586.046C611.286 587.515 611.499 589.139 611.499 590.918V609.304C610.416 609.536 608.773 609.807 606.569 610.116C604.403 610.464 601.948 610.638 599.203 610.638C597.385 610.638 595.723 610.464 594.215 610.116C592.707 609.768 591.411 609.207 590.329 608.434C589.285 607.661 588.453 606.655 587.835 605.418C587.255 604.181 586.965 602.653 586.965 600.836C586.965 599.096 587.293 597.627 587.951 596.428C588.647 595.229 589.575 594.263 590.735 593.528C591.895 592.755 593.229 592.213 594.737 591.904C596.283 591.556 597.888 591.382 599.551 591.382C600.324 591.382 601.136 591.44 601.987 591.556C602.837 591.633 603.746 591.788 604.713 592.02V590.86C604.713 590.048 604.616 589.275 604.423 588.54C604.229 587.805 603.881 587.167 603.379 586.626C602.915 586.046 602.277 585.601 601.465 585.292C600.691 584.983 599.705 584.828 598.507 584.828C596.883 584.828 595.394 584.944 594.041 585.176C592.687 585.408 591.585 585.679 590.735 585.988L589.865 580.304C590.754 579.995 592.049 579.685 593.751 579.376C595.452 579.067 597.269 578.912 599.203 578.912ZM618.411 594.862C618.411 592.619 618.759 590.531 619.455 588.598C620.151 586.626 621.137 584.925 622.413 583.494C623.728 582.063 625.313 580.942 627.169 580.13C629.025 579.318 631.113 578.912 633.433 578.912C636.294 578.912 639.001 579.434 641.553 580.478L640.045 586.22C639.233 585.872 638.305 585.582 637.261 585.35C636.256 585.118 635.173 585.002 634.013 585.002C631.268 585.002 629.18 585.872 627.749 587.612C626.318 589.313 625.603 591.73 625.603 594.862C625.603 597.878 626.28 600.275 627.633 602.054C628.986 603.794 631.268 604.664 634.477 604.664C635.676 604.664 636.855 604.548 638.015 604.316C639.175 604.084 640.18 603.794 641.031 603.446L642.017 609.246C641.244 609.633 640.064 609.981 638.479 610.29C636.932 610.599 635.328 610.754 633.665 610.754C631.074 610.754 628.812 610.367 626.879 609.594C624.984 608.782 623.399 607.68 622.123 606.288C620.886 604.857 619.958 603.175 619.339 601.242C618.72 599.27 618.411 597.143 618.411 594.862ZM654.468 591.498C655.358 590.57 656.305 589.584 657.31 588.54C658.316 587.457 659.302 586.394 660.268 585.35C661.235 584.267 662.144 583.243 662.994 582.276C663.884 581.271 664.638 580.401 665.256 579.666H673.55C671.617 581.831 669.568 584.074 667.402 586.394C665.276 588.714 663.13 590.976 660.964 593.18C662.124 594.147 663.342 595.326 664.618 596.718C665.894 598.071 667.132 599.521 668.33 601.068C669.529 602.615 670.65 604.161 671.694 605.708C672.738 607.255 673.608 608.685 674.304 610H666.184C665.488 608.801 664.676 607.545 663.748 606.23C662.859 604.915 661.892 603.639 660.848 602.402C659.804 601.165 658.741 600.005 657.658 598.922C656.576 597.801 655.512 596.853 654.468 596.08V610H647.45V566.152L654.468 564.992V591.498ZM692.585 571.662L699.603 570.502V579.666H710.391V585.524H699.603V597.878C699.603 600.314 699.989 602.054 700.763 603.098C701.536 604.142 702.851 604.664 704.707 604.664C705.983 604.664 707.104 604.529 708.071 604.258C709.076 603.987 709.869 603.736 710.449 603.504L711.609 609.072C710.797 609.42 709.733 609.768 708.419 610.116C707.104 610.503 705.557 610.696 703.779 610.696C701.613 610.696 699.796 610.406 698.327 609.826C696.896 609.246 695.755 608.415 694.905 607.332C694.054 606.211 693.455 604.877 693.107 603.33C692.759 601.745 692.585 599.947 692.585 597.936V571.662ZM743.929 594.804C743.929 597.201 743.581 599.386 742.885 601.358C742.189 603.33 741.203 605.012 739.927 606.404C738.651 607.796 737.105 608.879 735.287 609.652C733.509 610.425 731.537 610.812 729.371 610.812C727.206 610.812 725.234 610.425 723.455 609.652C721.677 608.879 720.149 607.796 718.873 606.404C717.597 605.012 716.592 603.33 715.857 601.358C715.161 599.386 714.813 597.201 714.813 594.804C714.813 592.407 715.161 590.241 715.857 588.308C716.592 586.336 717.597 584.654 718.873 583.262C720.188 581.87 721.735 580.807 723.513 580.072C725.292 579.299 727.245 578.912 729.371 578.912C731.498 578.912 733.451 579.299 735.229 580.072C737.047 580.807 738.593 581.87 739.869 583.262C741.145 584.654 742.131 586.336 742.827 588.308C743.562 590.241 743.929 592.407 743.929 594.804ZM736.737 594.804C736.737 591.788 736.08 589.41 734.765 587.67C733.489 585.891 731.691 585.002 729.371 585.002C727.051 585.002 725.234 585.891 723.919 587.67C722.643 589.41 722.005 591.788 722.005 594.804C722.005 597.859 722.643 600.275 723.919 602.054C725.234 603.833 727.051 604.722 729.371 604.722C731.691 604.722 733.489 603.833 734.765 602.054C736.08 600.275 736.737 597.859 736.737 594.804ZM777.166 564.992C778.636 564.992 779.873 565.108 780.878 565.34C781.922 565.572 782.734 565.804 783.314 566.036L782.212 571.72C781.671 571.527 781.014 571.353 780.24 571.198C779.506 571.043 778.694 570.966 777.804 570.966C775.484 570.966 773.88 571.585 772.99 572.822C772.14 574.059 771.714 575.664 771.714 577.636V579.666H782.85V585.524H771.714V610H764.696V577.52C764.696 573.576 765.721 570.502 767.77 568.298C769.82 566.094 772.952 564.992 777.166 564.992ZM798.8 610.58C796.712 610.541 794.972 610.309 793.58 609.884C792.227 609.459 791.144 608.859 790.332 608.086C789.52 607.274 788.94 606.288 788.592 605.128C788.283 603.929 788.128 602.576 788.128 601.068V566.152L795.146 564.992V599.734C795.146 600.585 795.204 601.3 795.32 601.88C795.475 602.46 795.726 602.963 796.074 603.388C796.422 603.775 796.886 604.084 797.466 604.316C798.085 604.509 798.858 604.664 799.786 604.78L798.8 610.58ZM803.796 594.978C803.796 592.31 804.182 589.971 804.956 587.96C805.768 585.949 806.831 584.287 808.146 582.972C809.46 581.619 810.968 580.613 812.67 579.956C814.371 579.26 816.111 578.912 817.89 578.912C822.066 578.912 825.314 580.207 827.634 582.798C829.992 585.389 831.172 589.255 831.172 594.398C831.172 594.785 831.152 595.229 831.114 595.732C831.114 596.196 831.094 596.621 831.056 597.008H811.046C811.239 599.444 812.09 601.339 813.598 602.692C815.144 604.007 817.368 604.664 820.268 604.664C821.969 604.664 823.516 604.509 824.908 604.2C826.338 603.891 827.46 603.562 828.272 603.214L829.2 608.956C828.813 609.149 828.272 609.362 827.576 609.594C826.918 609.787 826.145 609.961 825.256 610.116C824.405 610.309 823.477 610.464 822.472 610.58C821.466 610.696 820.442 610.754 819.398 610.754C816.73 610.754 814.41 610.367 812.438 609.594C810.466 608.782 808.842 607.68 807.566 606.288C806.29 604.857 805.342 603.195 804.724 601.3C804.105 599.367 803.796 597.259 803.796 594.978ZM824.154 591.846C824.154 590.879 824.018 589.971 823.748 589.12C823.477 588.231 823.071 587.477 822.53 586.858C822.027 586.201 821.389 585.698 820.616 585.35C819.881 584.963 818.992 584.77 817.948 584.77C816.865 584.77 815.918 584.983 815.106 585.408C814.294 585.795 813.598 586.317 813.018 586.974C812.476 587.631 812.051 588.385 811.742 589.236C811.432 590.087 811.22 590.957 811.104 591.846H824.154ZM849.516 589.584L855.954 579.666H863.32L853.344 593.992C855.432 596.699 857.424 599.444 859.318 602.228C861.252 604.973 862.837 607.564 864.074 610H856.476C856.128 609.265 855.664 608.434 855.084 607.506C854.543 606.539 853.944 605.553 853.286 604.548C852.668 603.504 852.01 602.479 851.314 601.474C850.618 600.469 849.942 599.521 849.284 598.632C847.931 600.372 846.597 602.305 845.282 604.432C844.006 606.52 842.943 608.376 842.092 610H834.9C835.48 608.84 836.176 607.603 836.988 606.288C837.8 604.973 838.67 603.639 839.598 602.286C840.526 600.894 841.474 599.521 842.44 598.168C843.446 596.776 844.432 595.461 845.398 594.224L835.364 579.666H843.078L849.516 589.584ZM890.621 610C888.687 606.017 886.696 601.455 884.647 596.312C882.636 591.131 880.799 585.582 879.137 579.666H886.619C887.044 581.367 887.527 583.204 888.069 585.176C888.649 587.109 889.248 589.062 889.867 591.034C890.524 592.967 891.181 594.862 891.839 596.718C892.535 598.535 893.173 600.179 893.753 601.648C894.333 600.179 894.951 598.535 895.609 596.718C896.266 594.862 896.904 592.967 897.523 591.034C898.18 589.062 898.799 587.109 899.379 585.176C899.959 583.204 900.461 581.367 900.887 579.666H908.137C906.474 585.582 904.618 591.131 902.569 596.312C900.558 601.455 898.586 606.017 896.653 610H890.621ZM924.05 605.07C926.215 605.07 927.859 604.954 928.98 604.722V596.95C928.593 596.834 928.033 596.718 927.298 596.602C926.563 596.486 925.751 596.428 924.862 596.428C924.089 596.428 923.296 596.486 922.484 596.602C921.711 596.718 920.995 596.931 920.338 597.24C919.719 597.549 919.217 597.994 918.83 598.574C918.443 599.115 918.25 599.811 918.25 600.662C918.25 602.325 918.772 603.485 919.816 604.142C920.86 604.761 922.271 605.07 924.05 605.07ZM923.47 578.912C925.79 578.912 927.743 579.202 929.328 579.782C930.913 580.362 932.17 581.174 933.098 582.218C934.065 583.262 934.741 584.538 935.128 586.046C935.553 587.515 935.766 589.139 935.766 590.918V609.304C934.683 609.536 933.04 609.807 930.836 610.116C928.671 610.464 926.215 610.638 923.47 610.638C921.653 610.638 919.99 610.464 918.482 610.116C916.974 609.768 915.679 609.207 914.596 608.434C913.552 607.661 912.721 606.655 912.102 605.418C911.522 604.181 911.232 602.653 911.232 600.836C911.232 599.096 911.561 597.627 912.218 596.428C912.914 595.229 913.842 594.263 915.002 593.528C916.162 592.755 917.496 592.213 919.004 591.904C920.551 591.556 922.155 591.382 923.818 591.382C924.591 591.382 925.403 591.44 926.254 591.556C927.105 591.633 928.013 591.788 928.98 592.02V590.86C928.98 590.048 928.883 589.275 928.69 588.54C928.497 587.805 928.149 587.167 927.646 586.626C927.182 586.046 926.544 585.601 925.732 585.292C924.959 584.983 923.973 584.828 922.774 584.828C921.15 584.828 919.661 584.944 918.308 585.176C916.955 585.408 915.853 585.679 915.002 585.988L914.132 580.304C915.021 579.995 916.317 579.685 918.018 579.376C919.719 579.067 921.537 578.912 923.47 578.912ZM954.917 610.58C952.829 610.541 951.089 610.309 949.697 609.884C948.343 609.459 947.261 608.859 946.449 608.086C945.637 607.274 945.057 606.288 944.709 605.128C944.399 603.929 944.245 602.576 944.245 601.068V566.152L951.263 564.992V599.734C951.263 600.585 951.321 601.3 951.437 601.88C951.591 602.46 951.843 602.963 952.191 603.388C952.539 603.775 953.003 604.084 953.583 604.316C954.201 604.509 954.975 604.664 955.903 604.78L954.917 610.58ZM986.461 609.072C985.108 609.42 983.349 609.768 981.183 610.116C979.018 610.503 976.64 610.696 974.049 610.696C971.613 610.696 969.564 610.348 967.901 609.652C966.277 608.956 964.963 607.989 963.957 606.752C962.991 605.515 962.295 604.045 961.869 602.344C961.444 600.604 961.231 598.709 961.231 596.66V579.666H968.249V595.558C968.249 598.806 968.713 601.126 969.641 602.518C970.608 603.91 972.271 604.606 974.629 604.606C975.48 604.606 976.369 604.567 977.297 604.49C978.264 604.413 978.979 604.316 979.443 604.2V579.666H986.461V609.072ZM993.712 594.978C993.712 592.31 994.098 589.971 994.872 587.96C995.684 585.949 996.747 584.287 998.062 582.972C999.376 581.619 1000.88 580.613 1002.59 579.956C1004.29 579.26 1006.03 578.912 1007.81 578.912C1011.98 578.912 1015.23 580.207 1017.55 582.798C1019.91 585.389 1021.09 589.255 1021.09 594.398C1021.09 594.785 1021.07 595.229 1021.03 595.732C1021.03 596.196 1021.01 596.621 1020.97 597.008H1000.96C1001.16 599.444 1002.01 601.339 1003.51 602.692C1005.06 604.007 1007.28 604.664 1010.18 604.664C1011.89 604.664 1013.43 604.509 1014.82 604.2C1016.25 603.891 1017.38 603.562 1018.19 603.214L1019.12 608.956C1018.73 609.149 1018.19 609.362 1017.49 609.594C1016.83 609.787 1016.06 609.961 1015.17 610.116C1014.32 610.309 1013.39 610.464 1012.39 610.58C1011.38 610.696 1010.36 610.754 1009.31 610.754C1006.65 610.754 1004.33 610.367 1002.35 609.594C1000.38 608.782 998.758 607.68 997.482 606.288C996.206 604.857 995.258 603.195 994.64 601.3C994.021 599.367 993.712 597.259 993.712 594.978ZM1014.07 591.846C1014.07 590.879 1013.93 589.971 1013.66 589.12C1013.39 588.231 1012.99 587.477 1012.45 586.858C1011.94 586.201 1011.31 585.698 1010.53 585.35C1009.8 584.963 1008.91 584.77 1007.86 584.77C1006.78 584.77 1005.83 584.983 1005.02 585.408C1004.21 585.795 1003.51 586.317 1002.93 586.974C1002.39 587.631 1001.97 588.385 1001.66 589.236C1001.35 590.087 1001.14 590.957 1001.02 591.846H1014.07ZM1032.41 592.658C1032.41 587.902 1031.7 583.455 1030.27 579.318C1028.84 575.142 1026.85 571.314 1024.29 567.834L1029.22 564.586C1032.36 568.337 1034.83 572.609 1036.65 577.404C1038.47 582.16 1039.37 587.245 1039.37 592.658C1039.37 598.071 1038.47 603.175 1036.65 607.97C1034.83 612.726 1032.36 616.979 1029.22 620.73L1024.29 617.482C1026.85 614.041 1028.84 610.232 1030.27 606.056C1031.7 601.88 1032.41 597.414 1032.41 592.658Z" fill="#60195E"/>
<path d="M2.784 971.862C2.784 969.619 3.132 967.531 3.828 965.598C4.524 963.626 5.51 961.925 6.786 960.494C8.10067 959.063 9.686 957.942 11.542 957.13C13.398 956.318 15.486 955.912 17.806 955.912C20.6673 955.912 23.374 956.434 25.926 957.478L24.418 963.22C23.606 962.872 22.678 962.582 21.634 962.35C20.6287 962.118 19.546 962.002 18.386 962.002C15.6407 962.002 13.5527 962.872 12.122 964.612C10.6913 966.313 9.976 968.73 9.976 971.862C9.976 974.878 10.6527 977.275 12.006 979.054C13.3593 980.794 15.6407 981.664 18.85 981.664C20.0487 981.664 21.228 981.548 22.388 981.316C23.548 981.084 24.5533 980.794 25.404 980.446L26.39 986.246C25.6167 986.633 24.4373 986.981 22.852 987.29C21.3053 987.599 19.7007 987.754 18.038 987.754C15.4473 987.754 13.1853 987.367 11.252 986.594C9.35733 985.782 7.772 984.68 6.496 983.288C5.25867 981.857 4.33067 980.175 3.712 978.242C3.09333 976.27 2.784 974.143 2.784 971.862ZM38.6674 969.658C38.6674 974.414 39.3828 978.88 40.8134 983.056C42.2441 987.232 44.2354 991.041 46.7874 994.482L41.8574 997.73C38.7254 993.979 36.2508 989.726 34.4334 984.97C32.6161 980.175 31.7074 975.071 31.7074 969.658C31.7074 964.245 32.6161 959.16 34.4334 954.404C36.2508 949.609 38.7254 945.337 41.8574 941.586L46.7874 944.834C44.2354 948.314 42.2441 952.142 40.8134 956.318C39.3828 960.455 38.6674 964.902 38.6674 969.658ZM52.2317 955.158C54.4744 954.269 56.7171 953.128 58.9597 951.736C61.2411 950.344 63.2517 948.701 64.9917 946.806H69.9217V987H62.9037V956.202C61.8597 957.014 60.5451 957.807 58.9597 958.58C57.3744 959.353 55.8471 959.991 54.3777 960.494L52.2317 955.158ZM88.3286 969.658C88.3286 964.902 87.6132 960.455 86.1826 956.318C84.7519 952.142 82.7606 948.314 80.2086 944.834L85.1386 941.586C88.2706 945.337 90.7452 949.609 92.5626 954.404C94.3799 959.16 95.2886 964.245 95.2886 969.658C95.2886 975.071 94.3799 980.175 92.5626 984.97C90.7452 989.726 88.2706 993.979 85.1386 997.73L80.2086 994.482C82.7606 991.041 84.7519 987.232 86.1826 983.056C87.6132 978.88 88.3286 974.414 88.3286 969.658Z" fill="#60195E"/>
<path d="M1302.78 594.862C1302.78 592.619 1303.13 590.531 1303.83 588.598C1304.52 586.626 1305.51 584.925 1306.79 583.494C1308.1 582.063 1309.69 580.942 1311.54 580.13C1313.4 579.318 1315.49 578.912 1317.81 578.912C1320.67 578.912 1323.37 579.434 1325.93 580.478L1324.42 586.22C1323.61 585.872 1322.68 585.582 1321.63 585.35C1320.63 585.118 1319.55 585.002 1318.39 585.002C1315.64 585.002 1313.55 585.872 1312.12 587.612C1310.69 589.313 1309.98 591.73 1309.98 594.862C1309.98 597.878 1310.65 600.275 1312.01 602.054C1313.36 603.794 1315.64 604.664 1318.85 604.664C1320.05 604.664 1321.23 604.548 1322.39 604.316C1323.55 604.084 1324.55 603.794 1325.4 603.446L1326.39 609.246C1325.62 609.633 1324.44 609.981 1322.85 610.29C1321.31 610.599 1319.7 610.754 1318.04 610.754C1315.45 610.754 1313.19 610.367 1311.25 609.594C1309.36 608.782 1307.77 607.68 1306.5 606.288C1305.26 604.857 1304.33 603.175 1303.71 601.242C1303.09 599.27 1302.78 597.143 1302.78 594.862ZM1338.67 592.658C1338.67 597.414 1339.38 601.88 1340.81 606.056C1342.24 610.232 1344.24 614.041 1346.79 617.482L1341.86 620.73C1338.73 616.979 1336.25 612.726 1334.43 607.97C1332.62 603.175 1331.71 598.071 1331.71 592.658C1331.71 587.245 1332.62 582.16 1334.43 577.404C1336.25 572.609 1338.73 568.337 1341.86 564.586L1346.79 567.834C1344.24 571.314 1342.24 575.142 1340.81 579.318C1339.38 583.455 1338.67 587.902 1338.67 592.658ZM1352.23 578.158C1354.47 577.269 1356.72 576.128 1358.96 574.736C1361.24 573.344 1363.25 571.701 1364.99 569.806H1369.92V610H1362.9V579.202C1361.86 580.014 1360.55 580.807 1358.96 581.58C1357.37 582.353 1355.85 582.991 1354.38 583.494L1352.23 578.158ZM1391.69 602.286C1391.77 602.943 1391.81 603.427 1391.81 603.736C1391.81 604.045 1391.81 604.355 1391.81 604.664C1391.81 607.061 1391.42 609.536 1390.65 612.088C1389.91 614.64 1388.87 617.057 1387.52 619.338L1382.01 617.83C1382.93 615.587 1383.55 613.383 1383.86 611.218C1384.21 609.091 1384.38 607.216 1384.38 605.592C1384.38 605.128 1384.37 604.548 1384.33 603.852C1384.33 603.156 1384.31 602.634 1384.27 602.286H1391.69ZM1422.72 610.87C1421.68 610.87 1420.59 610.793 1419.47 610.638C1418.39 610.522 1417.35 610.348 1416.34 610.116C1415.37 609.923 1414.49 609.71 1413.67 609.478C1412.86 609.207 1412.24 608.956 1411.82 608.724L1413.21 602.75C1414.02 603.137 1415.2 603.581 1416.75 604.084C1418.29 604.548 1420.21 604.78 1422.49 604.78C1425.54 604.78 1427.75 604.2 1429.1 603.04C1430.45 601.841 1431.13 600.256 1431.13 598.284C1431.13 597.008 1430.86 595.945 1430.32 595.094C1429.82 594.243 1429.1 593.567 1428.17 593.064C1427.28 592.523 1426.24 592.155 1425.04 591.962C1423.88 591.73 1422.64 591.614 1421.33 591.614H1418.95V585.93H1421.85C1422.74 585.93 1423.63 585.853 1424.52 585.698C1425.45 585.505 1426.28 585.195 1427.01 584.77C1427.75 584.306 1428.35 583.707 1428.81 582.972C1429.28 582.237 1429.51 581.29 1429.51 580.13C1429.51 579.202 1429.33 578.409 1428.99 577.752C1428.64 577.095 1428.17 576.553 1427.59 576.128C1427.05 575.703 1426.41 575.393 1425.68 575.2C1424.94 575.007 1424.17 574.91 1423.36 574.91C1421.62 574.91 1420.07 575.181 1418.72 575.722C1417.37 576.225 1416.17 576.805 1415.12 577.462L1412.57 572.242C1413.11 571.894 1413.77 571.527 1414.54 571.14C1415.32 570.753 1416.17 570.386 1417.1 570.038C1418.06 569.69 1419.09 569.419 1420.17 569.226C1421.25 568.994 1422.39 568.878 1423.59 568.878C1425.83 568.878 1427.77 569.149 1429.39 569.69C1431.02 570.231 1432.35 571.005 1433.39 572.01C1434.48 572.977 1435.27 574.137 1435.77 575.49C1436.31 576.805 1436.58 578.255 1436.58 579.84C1436.58 581.696 1436.06 583.359 1435.02 584.828C1434.01 586.297 1432.7 587.419 1431.07 588.192C1433.16 588.927 1434.88 590.145 1436.24 591.846C1437.63 593.547 1438.32 595.732 1438.32 598.4C1438.32 600.179 1438.01 601.841 1437.4 603.388C1436.78 604.896 1435.83 606.211 1434.55 607.332C1433.28 608.415 1431.65 609.285 1429.68 609.942C1427.75 610.561 1425.43 610.87 1422.72 610.87ZM1453.71 602.286C1453.79 602.943 1453.83 603.427 1453.83 603.736C1453.83 604.045 1453.83 604.355 1453.83 604.664C1453.83 607.061 1453.44 609.536 1452.67 612.088C1451.94 614.64 1450.89 617.057 1449.54 619.338L1444.03 617.83C1444.96 615.587 1445.57 613.383 1445.88 611.218C1446.23 609.091 1446.41 607.216 1446.41 605.592C1446.41 605.128 1446.39 604.548 1446.35 603.852C1446.35 603.156 1446.33 602.634 1446.29 602.286H1453.71ZM1476.27 578.158C1478.52 577.269 1480.76 576.128 1483 574.736C1485.28 573.344 1487.29 571.701 1489.03 569.806H1493.96V610H1486.95V579.202C1485.9 580.014 1484.59 580.807 1483 581.58C1481.42 582.353 1479.89 582.991 1478.42 583.494L1476.27 578.158ZM1512.37 592.658C1512.37 587.902 1511.66 583.455 1510.23 579.318C1508.79 575.142 1506.8 571.314 1504.25 567.834L1509.18 564.586C1512.31 568.337 1514.79 572.609 1516.61 577.404C1518.42 582.16 1519.33 587.245 1519.33 592.658C1519.33 598.071 1518.42 603.175 1516.61 607.97C1514.79 612.726 1512.31 616.979 1509.18 620.73L1504.25 617.482C1506.8 614.041 1508.79 610.232 1510.23 606.056C1511.66 601.88 1512.37 597.414 1512.37 592.658Z" fill="#60195E"/>
<path d="M1299.78 971.862C1299.78 969.619 1300.13 967.531 1300.83 965.598C1301.52 963.626 1302.51 961.925 1303.79 960.494C1305.1 959.063 1306.69 957.942 1308.54 957.13C1310.4 956.318 1312.49 955.912 1314.81 955.912C1317.67 955.912 1320.37 956.434 1322.93 957.478L1321.42 963.22C1320.61 962.872 1319.68 962.582 1318.63 962.35C1317.63 962.118 1316.55 962.002 1315.39 962.002C1312.64 962.002 1310.55 962.872 1309.12 964.612C1307.69 966.313 1306.98 968.73 1306.98 971.862C1306.98 974.878 1307.65 977.275 1309.01 979.054C1310.36 980.794 1312.64 981.664 1315.85 981.664C1317.05 981.664 1318.23 981.548 1319.39 981.316C1320.55 981.084 1321.55 980.794 1322.4 980.446L1323.39 986.246C1322.62 986.633 1321.44 986.981 1319.85 987.29C1318.31 987.599 1316.7 987.754 1315.04 987.754C1312.45 987.754 1310.19 987.367 1308.25 986.594C1306.36 985.782 1304.77 984.68 1303.5 983.288C1302.26 981.857 1301.33 980.175 1300.71 978.242C1300.09 976.27 1299.78 974.143 1299.78 971.862ZM1335.67 969.658C1335.67 974.414 1336.38 978.88 1337.81 983.056C1339.24 987.232 1341.24 991.041 1343.79 994.482L1338.86 997.73C1335.73 993.979 1333.25 989.726 1331.43 984.97C1329.62 980.175 1328.71 975.071 1328.71 969.658C1328.71 964.245 1329.62 959.16 1331.43 954.404C1333.25 949.609 1335.73 945.337 1338.86 941.586L1343.79 944.834C1341.24 948.314 1339.24 952.142 1337.81 956.318C1336.38 960.455 1335.67 964.902 1335.67 969.658ZM1349.23 955.158C1351.47 954.269 1353.72 953.128 1355.96 951.736C1358.24 950.344 1360.25 948.701 1361.99 946.806H1366.92V987H1359.9V956.202C1358.86 957.014 1357.55 957.807 1355.96 958.58C1354.37 959.353 1352.85 959.991 1351.38 960.494L1349.23 955.158ZM1388.69 979.286C1388.77 979.943 1388.81 980.427 1388.81 980.736C1388.81 981.045 1388.81 981.355 1388.81 981.664C1388.81 984.061 1388.42 986.536 1387.65 989.088C1386.91 991.64 1385.87 994.057 1384.52 996.338L1379.01 994.83C1379.93 992.587 1380.55 990.383 1380.86 988.218C1381.21 986.091 1381.38 984.216 1381.38 982.592C1381.38 982.128 1381.37 981.548 1381.33 980.852C1381.33 980.156 1381.31 979.634 1381.27 979.286H1388.69ZM1433.93 957.246C1433.93 958.638 1433.64 960.011 1433.06 961.364C1432.48 962.679 1431.73 963.974 1430.8 965.25C1429.91 966.487 1428.89 967.705 1427.73 968.904C1426.57 970.064 1425.41 971.205 1424.25 972.326C1423.63 972.906 1422.93 973.602 1422.16 974.414C1421.38 975.226 1420.65 976.038 1419.95 976.85C1419.26 977.662 1418.66 978.455 1418.16 979.228C1417.65 979.963 1417.38 980.581 1417.34 981.084H1435.21V987H1409.63C1409.59 986.691 1409.57 986.323 1409.57 985.898C1409.57 985.434 1409.57 985.086 1409.57 984.854C1409.57 982.998 1409.86 981.297 1410.44 979.75C1411.06 978.165 1411.85 976.695 1412.82 975.342C1413.79 973.989 1414.87 972.713 1416.07 971.514C1417.27 970.315 1418.46 969.136 1419.66 967.976C1420.59 967.087 1421.48 966.217 1422.33 965.366C1423.18 964.515 1423.92 963.684 1424.54 962.872C1425.19 962.021 1425.71 961.171 1426.1 960.32C1426.49 959.431 1426.68 958.522 1426.68 957.594C1426.68 955.583 1426.1 954.153 1424.94 953.302C1423.78 952.451 1422.37 952.026 1420.71 952.026C1419.62 952.026 1418.62 952.181 1417.69 952.49C1416.76 952.799 1415.93 953.167 1415.2 953.592C1414.5 954.017 1413.88 954.462 1413.34 954.926C1412.8 955.351 1412.39 955.699 1412.12 955.97L1408.64 951.04C1410.27 949.493 1412.16 948.256 1414.33 947.328C1416.53 946.361 1418.89 945.878 1421.4 945.878C1425.7 945.878 1428.85 946.903 1430.86 948.952C1432.91 950.963 1433.93 953.727 1433.93 957.246ZM1447.35 969.658C1447.35 964.902 1446.63 960.455 1445.2 956.318C1443.77 952.142 1441.78 948.314 1439.23 944.834L1444.16 941.586C1447.29 945.337 1449.77 949.609 1451.58 954.404C1453.4 959.16 1454.31 964.245 1454.31 969.658C1454.31 975.071 1453.4 980.175 1451.58 984.97C1449.77 989.726 1447.29 993.979 1444.16 997.73L1439.23 994.482C1441.78 991.041 1443.77 987.232 1445.2 983.056C1446.63 978.88 1447.35 974.414 1447.35 969.658Z" fill="#60195E"/>
<line x1="-5.68248e-07" y1="233.5" x2="1121" y2="233.5" stroke="#60195E" stroke-width="13"/>
<line x1="-5.68248e-07" y1="233.5" x2="1121" y2="233.5" stroke="black" stroke-opacity="0.2" stroke-width="13"/>
<path d="M2.5 1056C2.5 1046.34 10.335 1038.5 20 1038.5H1091C1100.66 1038.5 1108.5 1046.34 1108.5 1056V1235.96C1108.5 1245.63 1100.66 1253.46 1091 1253.46H20C10.335 1253.46 2.5 1245.63 2.5 1235.96V1056Z" fill="#C4C4C4" stroke="#C4C4C4" stroke-width="5"/>
<path d="M392.5 1078C392.5 1068.34 400.335 1060.5 410 1060.5H709C718.665 1060.5 726.5 1068.34 726.5 1078V1214C726.5 1223.66 718.665 1231.5 709 1231.5H410C400.335 1231.5 392.5 1223.66 392.5 1214V1078Z" fill="#E6E6E6" stroke="#60195E" stroke-width="5"/>
<path d="M757.5 1078C757.5 1068.34 765.335 1060.5 775 1060.5H1073C1082.66 1060.5 1090.5 1068.34 1090.5 1078V1214C1090.5 1223.66 1082.66 1231.5 1073 1231.5H775C765.335 1231.5 757.5 1223.66 757.5 1214V1078Z" fill="#E6E6E6" stroke="#60195E" stroke-width="5"/>
<path d="M28.5 1078C28.5 1068.34 36.335 1060.5 46 1060.5H344C353.665 1060.5 361.5 1068.34 361.5 1078V1214C361.5 1223.66 353.665 1231.5 344 1231.5H46C36.335 1231.5 28.5 1223.66 28.5 1214V1078Z" fill="#E6E6E6" stroke="#60195E" stroke-width="5"/>
<path d="M198.069 1128.68V1173H192.469V1135.67L181.177 1139.79V1134.73L197.191 1128.68H198.069Z" fill="#60195E"/>
<path d="M563.069 1126.68V1171H557.469V1133.67L546.177 1137.79V1132.73L562.191 1126.68H563.069Z" fill="#60195E"/>
<path d="M927.069 1171H921.438V1133.67L910.146 1137.82V1132.73L926.191 1126.71H927.069V1171Z" fill="#60195E"/>
<path d="M2.5 679C2.5 669.335 10.335 661.5 20 661.5H1091C1100.66 661.5 1108.5 669.335 1108.5 679V858.963C1108.5 868.628 1100.66 876.463 1091 876.463H20C10.335 876.463 2.5 868.628 2.5 858.963V679Z" fill="#C4C4C4" stroke="#C4C4C4" stroke-width="5"/>
<path d="M392.5 701C392.5 691.335 400.335 683.5 410 683.5H709C718.665 683.5 726.5 691.335 726.5 701V837C726.5 846.665 718.665 854.5 709 854.5H410C400.335 854.5 392.5 846.665 392.5 837V701Z" fill="#E6E6E6" stroke="#60195E" stroke-width="5"/>
<path d="M757.5 701C757.5 691.335 765.335 683.5 775 683.5H1073C1082.66 683.5 1090.5 691.335 1090.5 701V837C1090.5 846.665 1082.66 854.5 1073 854.5H775C765.335 854.5 757.5 846.665 757.5 837V701Z" fill="#E6E6E6" stroke="#60195E" stroke-width="5"/>
<path d="M28.5 701C28.5 691.335 36.335 683.5 46 683.5H344C353.665 683.5 361.5 691.335 361.5 701V837C361.5 846.665 353.665 854.5 344 854.5H46C36.335 854.5 28.5 846.665 28.5 837V701Z" fill="#E6E6E6" stroke="#60195E" stroke-width="5"/>
<path d="M198.069 751.68V796H192.469V758.673L181.177 762.79V757.734L197.191 751.68H198.069Z" fill="#60195E"/>
<path d="M563.069 749.68V794H557.469V756.673L546.177 760.79V755.734L562.191 749.68H563.069Z" fill="#60195E"/>
<path d="M927.069 794H921.438V756.673L910.146 760.82V755.734L926.191 749.71H927.069V794Z" fill="#60195E"/>
</g>
<defs>
<clipPath id="clip0_43_2">
<rect width="2411" height="1435" fill="white"/>
</clipPath>
</defs>
</svg>
