<svg width="2435" height="1630" viewBox="0 0 2435 1630" fill="none" xmlns="http://www.w3.org/2000/svg">
<g clip-path="url(#clip0_89_2)">
<path d="M28.578 191.67C32.2367 191.67 35.0133 191.474 36.908 191.082V177.95C36.2547 177.754 35.3073 177.558 34.066 177.362C32.8247 177.166 31.4527 177.068 29.95 177.068C28.6433 177.068 27.304 177.166 25.932 177.362C24.6253 177.558 23.4167 177.917 22.306 178.44C21.2607 178.963 20.4113 179.714 19.758 180.694C19.1047 181.609 18.778 182.785 18.778 184.222C18.778 187.031 19.66 188.991 21.424 190.102C23.188 191.147 25.5727 191.67 28.578 191.67ZM27.598 147.472C31.518 147.472 34.8173 147.962 37.496 148.942C40.1747 149.922 42.298 151.294 43.866 153.058C45.4993 154.822 46.6427 156.978 47.296 159.526C48.0147 162.009 48.374 164.753 48.374 167.758V198.824C46.5447 199.216 43.768 199.673 40.044 200.196C36.3853 200.784 32.2367 201.078 27.598 201.078C24.5273 201.078 21.718 200.784 19.17 200.196C16.622 199.608 14.4333 198.661 12.604 197.354C10.84 196.047 9.43533 194.349 8.39 192.258C7.41 190.167 6.92 187.587 6.92 184.516C6.92 181.576 7.47533 179.093 8.586 177.068C9.762 175.043 11.33 173.409 13.29 172.168C15.25 170.861 17.504 169.947 20.052 169.424C22.6653 168.836 25.3767 168.542 28.186 168.542C29.4927 168.542 30.8647 168.64 32.302 168.836C33.7393 168.967 35.2747 169.228 36.908 169.62V167.66C36.908 166.288 36.7447 164.981 36.418 163.74C36.0913 162.499 35.5033 161.421 34.654 160.506C33.87 159.526 32.792 158.775 31.42 158.252C30.1133 157.729 28.4473 157.468 26.422 157.468C23.678 157.468 21.1627 157.664 18.876 158.056C16.5893 158.448 14.7273 158.905 13.29 159.428L11.82 149.824C13.3227 149.301 15.5113 148.779 18.386 148.256C21.2607 147.733 24.3313 147.472 27.598 147.472ZM80.7316 200.98C77.2036 200.915 74.2636 200.523 71.9116 199.804C69.6249 199.085 67.7956 198.073 66.4236 196.766C65.0516 195.394 64.0716 193.728 63.4836 191.768C62.9609 189.743 62.6996 187.456 62.6996 184.908V125.912L74.5576 123.952V182.654C74.5576 184.091 74.6556 185.3 74.8516 186.28C75.1129 187.26 75.5376 188.109 76.1256 188.828C76.7136 189.481 77.4976 190.004 78.4776 190.396C79.5229 190.723 80.8296 190.984 82.3976 191.18L80.7316 200.98ZM103.945 200H92.0874V148.746H103.945V200ZM105.219 133.752C105.219 135.973 104.501 137.737 103.063 139.044C101.626 140.351 99.9274 141.004 97.9674 141.004C95.942 141.004 94.2107 140.351 92.7734 139.044C91.336 137.737 90.6174 135.973 90.6174 133.752C90.6174 131.465 91.336 129.669 92.7734 128.362C94.2107 127.055 95.942 126.402 97.9674 126.402C99.9274 126.402 101.626 127.055 103.063 128.362C104.501 129.669 105.219 131.465 105.219 133.752ZM128.383 173.05C128.383 178.081 129.461 181.772 131.617 184.124C133.839 186.411 136.681 187.554 140.143 187.554C142.038 187.554 143.802 187.293 145.435 186.77C147.134 186.247 148.506 185.627 149.551 184.908V158.35C148.702 158.154 147.657 157.991 146.415 157.86C145.174 157.664 143.606 157.566 141.711 157.566C137.399 157.566 134.1 159.003 131.813 161.878C129.527 164.687 128.383 168.411 128.383 173.05ZM161.409 194.806C161.409 202.973 159.319 208.951 155.137 212.74C151.021 216.529 144.684 218.424 136.125 218.424C132.989 218.424 129.919 218.163 126.913 217.64C123.973 217.117 121.295 216.431 118.877 215.582L121.033 205.488C123.059 206.337 125.345 207.023 127.893 207.546C130.507 208.069 133.316 208.33 136.321 208.33C141.091 208.33 144.488 207.35 146.513 205.39C148.539 203.43 149.551 200.523 149.551 196.668V194.708C148.375 195.296 146.807 195.884 144.847 196.472C142.953 197.06 140.764 197.354 138.281 197.354C135.015 197.354 132.009 196.831 129.265 195.786C126.587 194.741 124.267 193.205 122.307 191.18C120.413 189.155 118.91 186.639 117.799 183.634C116.754 180.563 116.231 177.035 116.231 173.05C116.231 169.326 116.787 165.896 117.897 162.76C119.073 159.624 120.739 156.945 122.895 154.724C125.117 152.503 127.795 150.771 130.931 149.53C134.067 148.289 137.628 147.668 141.613 147.668C145.468 147.668 149.127 147.962 152.589 148.55C156.052 149.138 158.992 149.759 161.409 150.412V194.806ZM176.495 150.412C178.782 149.759 181.755 149.138 185.413 148.55C189.072 147.962 193.123 147.668 197.565 147.668C201.747 147.668 205.242 148.256 208.051 149.432C210.861 150.543 213.082 152.143 214.715 154.234C216.414 156.259 217.59 158.742 218.243 161.682C218.962 164.557 219.321 167.725 219.321 171.188V200H207.463V173.05C207.463 170.306 207.267 167.987 206.875 166.092C206.549 164.132 205.961 162.564 205.111 161.388C204.327 160.147 203.217 159.265 201.779 158.742C200.407 158.154 198.709 157.86 196.683 157.86C195.181 157.86 193.613 157.958 191.979 158.154C190.346 158.35 189.137 158.513 188.353 158.644V200H176.495V150.412ZM226.275 208.232H275.275V218.13H226.275V208.232ZM294.777 200H282.919V148.746H294.777V200ZM296.051 133.752C296.051 135.973 295.333 137.737 293.895 139.044C292.458 140.351 290.759 141.004 288.799 141.004C286.774 141.004 285.043 140.351 283.605 139.044C282.168 137.737 281.449 135.973 281.449 133.752C281.449 131.465 282.168 129.669 283.605 128.362C285.043 127.055 286.774 126.402 288.799 126.402C290.759 126.402 292.458 127.055 293.895 128.362C295.333 129.669 296.051 131.465 296.051 133.752ZM309.317 135.222L321.175 133.262V148.746H339.403V158.644H321.175V179.518C321.175 183.634 321.829 186.574 323.135 188.338C324.442 190.102 326.663 190.984 329.799 190.984C331.955 190.984 333.85 190.755 335.483 190.298C337.182 189.841 338.521 189.416 339.501 189.024L341.461 198.432C340.089 199.02 338.293 199.608 336.071 200.196C333.85 200.849 331.237 201.176 328.231 201.176C324.573 201.176 321.502 200.686 319.019 199.706C316.602 198.726 314.675 197.321 313.237 195.492C311.8 193.597 310.787 191.343 310.199 188.73C309.611 186.051 309.317 183.013 309.317 179.616V135.222ZM347.163 174.618C347.163 170.11 347.816 166.157 349.123 162.76C350.495 159.363 352.292 156.553 354.513 154.332C356.734 152.045 359.282 150.347 362.157 149.236C365.032 148.06 367.972 147.472 370.977 147.472C378.033 147.472 383.521 149.661 387.441 154.038C391.426 158.415 393.419 164.949 393.419 173.638C393.419 174.291 393.386 175.043 393.321 175.892C393.321 176.676 393.288 177.395 393.223 178.048H359.413C359.74 182.164 361.177 185.365 363.725 187.652C366.338 189.873 370.095 190.984 374.995 190.984C377.87 190.984 380.483 190.723 382.835 190.2C385.252 189.677 387.147 189.122 388.519 188.534L390.087 198.236C389.434 198.563 388.519 198.922 387.343 199.314C386.232 199.641 384.926 199.935 383.423 200.196C381.986 200.523 380.418 200.784 378.719 200.98C377.02 201.176 375.289 201.274 373.525 201.274C369.017 201.274 365.097 200.621 361.765 199.314C358.433 197.942 355.689 196.08 353.533 193.728C351.377 191.311 349.776 188.501 348.731 185.3C347.686 182.033 347.163 178.473 347.163 174.618ZM381.561 169.326C381.561 167.693 381.332 166.157 380.875 164.72C380.418 163.217 379.732 161.943 378.817 160.898C377.968 159.787 376.89 158.938 375.583 158.35C374.342 157.697 372.839 157.37 371.075 157.37C369.246 157.37 367.645 157.729 366.273 158.448C364.901 159.101 363.725 159.983 362.745 161.094C361.83 162.205 361.112 163.479 360.589 164.916C360.066 166.353 359.707 167.823 359.511 169.326H381.561ZM435.195 173.05C435.195 167.693 434.509 163.838 433.137 161.486C431.831 159.069 429.348 157.86 425.689 157.86C424.383 157.86 422.945 157.958 421.377 158.154C419.809 158.35 418.633 158.513 417.849 158.644V200H405.991V150.412C408.278 149.759 411.251 149.138 414.909 148.55C418.633 147.962 422.553 147.668 426.669 147.668C430.197 147.668 433.072 148.125 435.293 149.04C437.58 149.955 439.475 151.163 440.977 152.666C441.696 152.143 442.611 151.588 443.721 151C444.832 150.412 446.073 149.889 447.445 149.432C448.817 148.909 450.255 148.485 451.757 148.158C453.325 147.831 454.893 147.668 456.461 147.668C460.447 147.668 463.713 148.256 466.261 149.432C468.875 150.543 470.9 152.143 472.337 154.234C473.84 156.259 474.853 158.742 475.375 161.682C475.963 164.557 476.257 167.725 476.257 171.188V200H464.399V173.05C464.399 167.693 463.746 163.838 462.439 161.486C461.133 159.069 458.617 157.86 454.893 157.86C452.999 157.86 451.202 158.187 449.503 158.84C447.805 159.428 446.531 160.016 445.681 160.604C446.204 162.237 446.563 163.969 446.759 165.798C446.955 167.627 447.053 169.587 447.053 171.678V200H435.195V173.05ZM503.622 191.474C506.758 191.474 509.045 191.115 510.482 190.396C511.92 189.612 512.638 188.305 512.638 186.476C512.638 184.777 511.854 183.373 510.286 182.262C508.784 181.151 506.268 179.943 502.74 178.636C500.584 177.852 498.592 177.035 496.762 176.186C494.998 175.271 493.463 174.226 492.156 173.05C490.85 171.874 489.804 170.469 489.02 168.836C488.302 167.137 487.942 165.079 487.942 162.662C487.942 157.958 489.674 154.267 493.136 151.588C496.599 148.844 501.303 147.472 507.248 147.472C510.254 147.472 513.128 147.766 515.872 148.354C518.616 148.877 520.674 149.399 522.046 149.922L519.89 159.526C518.584 158.938 516.918 158.415 514.892 157.958C512.867 157.435 510.515 157.174 507.836 157.174C505.419 157.174 503.459 157.599 501.956 158.448C500.454 159.232 499.702 160.473 499.702 162.172C499.702 163.021 499.833 163.773 500.094 164.426C500.421 165.079 500.944 165.7 501.662 166.288C502.381 166.811 503.328 167.366 504.504 167.954C505.68 168.477 507.118 169.032 508.816 169.62C511.626 170.665 514.01 171.711 515.97 172.756C517.93 173.736 519.531 174.879 520.772 176.186C522.079 177.427 523.026 178.865 523.614 180.498C524.202 182.131 524.496 184.091 524.496 186.378C524.496 191.278 522.667 195.002 519.008 197.55C515.415 200.033 510.254 201.274 503.524 201.274C499.016 201.274 495.39 200.882 492.646 200.098C489.902 199.379 487.975 198.791 486.864 198.334L488.922 188.436C490.686 189.155 492.777 189.841 495.194 190.494C497.677 191.147 500.486 191.474 503.622 191.474Z" fill="#60195E"/>
<path d="M4.544 269.696L12.288 268.416V278.528H24.192V284.992H12.288V298.624C12.288 301.312 12.7147 303.232 13.568 304.384C14.4213 305.536 15.872 306.112 17.92 306.112C19.328 306.112 20.5653 305.963 21.632 305.664C22.7413 305.365 23.616 305.088 24.256 304.832L25.536 310.976C24.64 311.36 23.4667 311.744 22.016 312.128C20.5653 312.555 18.8587 312.768 16.896 312.768C14.5067 312.768 12.5013 312.448 10.88 311.808C9.30133 311.168 8.04267 310.251 7.104 309.056C6.16533 307.819 5.504 306.347 5.12 304.64C4.736 302.891 4.544 300.907 4.544 298.688V269.696ZM59.006 278.528C55.55 291.243 51.5393 302.763 46.974 313.088C46.1207 315.008 45.246 316.651 44.35 318.016C43.454 319.381 42.4513 320.512 41.342 321.408C40.2327 322.304 38.9953 322.944 37.63 323.328C36.2647 323.755 34.686 323.968 32.894 323.968C31.6993 323.968 30.5047 323.84 29.31 323.584C28.158 323.328 27.2833 323.051 26.686 322.752L28.094 316.544C29.63 317.141 31.1447 317.44 32.638 317.44C34.6433 317.44 36.2007 316.949 37.31 315.968C38.462 315.029 39.4647 313.557 40.318 311.552C37.886 306.859 35.5393 301.739 33.278 296.192C31.0593 290.645 29.0753 284.757 27.326 278.528H35.582C36.0087 280.32 36.5207 282.261 37.118 284.352C37.758 286.443 38.4407 288.576 39.166 290.752C39.8913 292.885 40.6593 295.019 41.47 297.152C42.2807 299.285 43.0913 301.269 43.902 303.104C45.2673 299.307 46.5473 295.275 47.742 291.008C48.9367 286.699 50.0247 282.539 51.006 278.528H59.006ZM87.0735 295.424C87.0735 291.968 86.2842 289.28 84.7055 287.36C83.1695 285.44 80.6735 284.48 77.2175 284.48C76.4922 284.48 75.7242 284.523 74.9135 284.608C74.1455 284.651 73.3775 284.779 72.6095 284.992V304.128C73.2922 304.597 74.1882 305.045 75.2975 305.472C76.4495 305.856 77.6655 306.048 78.9455 306.048C81.7615 306.048 83.8095 305.088 85.0895 303.168C86.4122 301.248 87.0735 298.667 87.0735 295.424ZM95.0095 295.296C95.0095 297.856 94.6682 300.203 93.9855 302.336C93.3455 304.469 92.4068 306.304 91.1695 307.84C89.9322 309.376 88.3748 310.571 86.4975 311.424C84.6628 312.277 82.5722 312.704 80.2255 312.704C78.6468 312.704 77.1962 312.512 75.8735 312.128C74.5508 311.744 73.4628 311.317 72.6095 310.848V323.84H64.8655V279.616C66.4442 279.189 68.3855 278.784 70.6895 278.4C72.9935 278.016 75.4255 277.824 77.9855 277.824C80.6308 277.824 82.9988 278.229 85.0895 279.04C87.1802 279.851 88.9508 281.024 90.4015 282.56C91.8948 284.053 93.0255 285.888 93.7935 288.064C94.6042 290.197 95.0095 292.608 95.0095 295.296ZM101.135 295.424C101.135 292.48 101.561 289.899 102.415 287.68C103.311 285.461 104.484 283.627 105.935 282.176C107.385 280.683 109.049 279.573 110.927 278.848C112.804 278.08 114.724 277.696 116.687 277.696C121.295 277.696 124.879 279.125 127.439 281.984C130.041 284.843 131.343 289.109 131.343 294.784C131.343 295.211 131.321 295.701 131.279 296.256C131.279 296.768 131.257 297.237 131.215 297.664H109.135C109.348 300.352 110.287 302.443 111.951 303.936C113.657 305.387 116.111 306.112 119.311 306.112C121.188 306.112 122.895 305.941 124.431 305.6C126.009 305.259 127.247 304.896 128.143 304.512L129.167 310.848C128.74 311.061 128.143 311.296 127.375 311.552C126.649 311.765 125.796 311.957 124.815 312.128C123.876 312.341 122.852 312.512 121.743 312.64C120.633 312.768 119.503 312.832 118.351 312.832C115.407 312.832 112.847 312.405 110.671 311.552C108.495 310.656 106.703 309.44 105.295 307.904C103.887 306.325 102.841 304.491 102.159 302.4C101.476 300.267 101.135 297.941 101.135 295.424ZM123.599 291.968C123.599 290.901 123.449 289.899 123.151 288.96C122.852 287.979 122.404 287.147 121.807 286.464C121.252 285.739 120.548 285.184 119.695 284.8C118.884 284.373 117.903 284.16 116.751 284.16C115.556 284.16 114.511 284.395 113.615 284.864C112.719 285.291 111.951 285.867 111.311 286.592C110.713 287.317 110.244 288.149 109.903 289.088C109.561 290.027 109.327 290.987 109.199 291.968H123.599ZM148.257 283.84C148.257 285.333 147.745 286.549 146.721 287.488C145.74 288.427 144.545 288.896 143.137 288.896C141.686 288.896 140.47 288.427 139.489 287.488C138.508 286.549 138.017 285.333 138.017 283.84C138.017 282.347 138.508 281.131 139.489 280.192C140.47 279.211 141.686 278.72 143.137 278.72C144.545 278.72 145.74 279.211 146.721 280.192C147.745 281.131 148.257 282.347 148.257 283.84ZM148.257 307.776C148.257 309.269 147.745 310.485 146.721 311.424C145.74 312.363 144.545 312.832 143.137 312.832C141.686 312.832 140.47 312.363 139.489 311.424C138.508 310.485 138.017 309.269 138.017 307.776C138.017 306.283 138.508 305.067 139.489 304.128C140.47 303.147 141.686 302.656 143.137 302.656C144.545 302.656 145.74 303.147 146.721 304.128C147.745 305.067 148.257 306.283 148.257 307.776ZM177.571 294.4C177.571 297.685 178.275 300.096 179.683 301.632C181.133 303.125 182.989 303.872 185.251 303.872C186.488 303.872 187.64 303.701 188.707 303.36C189.816 303.019 190.712 302.613 191.395 302.144V284.8C190.84 284.672 190.157 284.565 189.347 284.48C188.536 284.352 187.512 284.288 186.275 284.288C183.459 284.288 181.304 285.227 179.811 287.104C178.317 288.939 177.571 291.371 177.571 294.4ZM199.139 308.608C199.139 313.941 197.773 317.845 195.043 320.32C192.355 322.795 188.216 324.032 182.627 324.032C180.579 324.032 178.573 323.861 176.611 323.52C174.691 323.179 172.941 322.731 171.363 322.176L172.771 315.584C174.093 316.139 175.587 316.587 177.251 316.928C178.957 317.269 180.792 317.44 182.755 317.44C185.869 317.44 188.088 316.8 189.411 315.52C190.733 314.24 191.395 312.341 191.395 309.824V308.544C190.627 308.928 189.603 309.312 188.323 309.696C187.085 310.08 185.656 310.272 184.035 310.272C181.901 310.272 179.939 309.931 178.147 309.248C176.397 308.565 174.883 307.563 173.603 306.24C172.365 304.917 171.384 303.275 170.659 301.312C169.976 299.307 169.635 297.003 169.635 294.4C169.635 291.968 169.997 289.728 170.723 287.68C171.491 285.632 172.579 283.883 173.987 282.432C175.437 280.981 177.187 279.851 179.235 279.04C181.283 278.229 183.608 277.824 186.211 277.824C188.728 277.824 191.117 278.016 193.379 278.4C195.64 278.784 197.56 279.189 199.139 279.616V308.608ZM228.063 285.504C227.423 285.291 226.527 285.077 225.375 284.864C224.265 284.608 222.964 284.48 221.471 284.48C220.617 284.48 219.7 284.565 218.719 284.736C217.78 284.907 217.119 285.056 216.735 285.184V312H208.991V280.128C210.484 279.573 212.34 279.061 214.559 278.592C216.82 278.08 219.316 277.824 222.047 277.824C222.559 277.824 223.156 277.867 223.839 277.952C224.521 277.995 225.204 278.08 225.887 278.208C226.569 278.293 227.231 278.421 227.871 278.592C228.511 278.72 229.023 278.848 229.407 278.976L228.063 285.504ZM242.611 312H234.867V278.528H242.611V312ZM243.443 268.736C243.443 270.187 242.974 271.339 242.035 272.192C241.096 273.045 239.987 273.472 238.707 273.472C237.384 273.472 236.254 273.045 235.315 272.192C234.376 271.339 233.907 270.187 233.907 268.736C233.907 267.243 234.376 266.069 235.315 265.216C236.254 264.363 237.384 263.936 238.707 263.936C239.987 263.936 241.096 264.363 242.035 265.216C242.974 266.069 243.443 267.243 243.443 268.736ZM258.571 295.168C258.571 298.581 259.381 301.269 261.003 303.232C262.624 305.152 264.864 306.112 267.723 306.112C268.96 306.112 270.005 306.069 270.859 305.984C271.755 305.856 272.48 305.728 273.035 305.6V286.4C272.352 285.931 271.435 285.504 270.283 285.12C269.173 284.693 267.979 284.48 266.699 284.48C263.883 284.48 261.813 285.44 260.491 287.36C259.211 289.28 258.571 291.883 258.571 295.168ZM280.779 310.976C279.243 311.445 277.301 311.872 274.955 312.256C272.651 312.64 270.219 312.832 267.659 312.832C265.013 312.832 262.645 312.427 260.555 311.616C258.464 310.805 256.672 309.653 255.179 308.16C253.728 306.624 252.597 304.789 251.786 302.656C251.019 300.48 250.635 298.048 250.635 295.36C250.635 292.715 250.955 290.325 251.595 288.192C252.277 286.016 253.259 284.16 254.539 282.624C255.819 281.088 257.376 279.915 259.211 279.104C261.045 278.251 263.157 277.824 265.547 277.824C267.168 277.824 268.597 278.016 269.835 278.4C271.072 278.784 272.139 279.211 273.035 279.68V263.616L280.779 262.336V310.976Z" fill="#60195E"/>
<path d="M6.072 369.424C6.072 366.48 6.49867 363.899 7.352 361.68C8.248 359.461 9.42133 357.627 10.872 356.176C12.3227 354.683 13.9867 353.573 15.864 352.848C17.7413 352.08 19.6613 351.696 21.624 351.696C26.232 351.696 29.816 353.125 32.376 355.984C34.9787 358.843 36.28 363.109 36.28 368.784C36.28 369.211 36.2587 369.701 36.216 370.256C36.216 370.768 36.1947 371.237 36.152 371.664H14.072C14.2853 374.352 15.224 376.443 16.888 377.936C18.5947 379.387 21.048 380.112 24.248 380.112C26.1253 380.112 27.832 379.941 29.368 379.6C30.9467 379.259 32.184 378.896 33.08 378.512L34.104 384.848C33.6773 385.061 33.08 385.296 32.312 385.552C31.5867 385.765 30.7333 385.957 29.752 386.128C28.8133 386.341 27.7893 386.512 26.68 386.64C25.5707 386.768 24.44 386.832 23.288 386.832C20.344 386.832 17.784 386.405 15.608 385.552C13.432 384.656 11.64 383.44 10.232 381.904C8.824 380.325 7.77867 378.491 7.096 376.4C6.41333 374.267 6.072 371.941 6.072 369.424ZM28.536 365.968C28.536 364.901 28.3867 363.899 28.088 362.96C27.7893 361.979 27.3413 361.147 26.744 360.464C26.1893 359.739 25.4853 359.184 24.632 358.8C23.8213 358.373 22.84 358.16 21.688 358.16C20.4933 358.16 19.448 358.395 18.552 358.864C17.656 359.291 16.888 359.867 16.248 360.592C15.6507 361.317 15.1813 362.149 14.84 363.088C14.4987 364.027 14.264 364.987 14.136 365.968H28.536ZM50.5705 369.424C50.5705 372.667 51.2105 375.248 52.4905 377.168C53.8132 379.088 55.8825 380.048 58.6985 380.048C59.9785 380.048 61.1732 379.856 62.2825 379.472C63.4345 379.045 64.3518 378.597 65.0345 378.128V358.992C64.4798 358.864 63.7758 358.757 62.9225 358.672C62.1118 358.544 61.0452 358.48 59.7225 358.48C56.8638 358.48 54.6238 359.461 53.0025 361.424C51.3812 363.344 50.5705 366.011 50.5705 369.424ZM42.6345 369.296C42.6345 366.651 43.0185 364.261 43.7865 362.128C44.5972 359.952 45.7278 358.117 47.1785 356.624C48.6718 355.088 50.4638 353.915 52.5545 353.104C54.6452 352.251 57.0132 351.824 59.6585 351.824C62.3038 351.824 64.7785 352.016 67.0825 352.4C69.3865 352.784 71.2852 353.189 72.7785 353.616V397.84H65.0345V384.848C64.1385 385.317 63.0292 385.744 61.7065 386.128C60.4265 386.512 58.9972 386.704 57.4185 386.704C55.0292 386.704 52.9172 386.299 51.0825 385.488C49.2478 384.635 47.7118 383.44 46.4745 381.904C45.2372 380.368 44.2772 378.533 43.5945 376.4C42.9545 374.267 42.6345 371.899 42.6345 369.296ZM110.072 384.976C108.578 385.36 106.637 385.744 104.248 386.128C101.858 386.555 99.2342 386.768 96.3755 386.768C93.6875 386.768 91.4262 386.384 89.5915 385.616C87.7995 384.848 86.3488 383.781 85.2395 382.416C84.1728 381.051 83.4048 379.429 82.9355 377.552C82.4662 375.632 82.2315 373.541 82.2315 371.28V352.528H89.9755V370.064C89.9755 373.648 90.4875 376.208 91.5115 377.744C92.5782 379.28 94.4128 380.048 97.0155 380.048C97.9542 380.048 98.9355 380.005 99.9595 379.92C101.026 379.835 101.816 379.728 102.328 379.6V352.528H110.072V384.976ZM127.736 386H119.992V352.528H127.736V386ZM128.568 342.736C128.568 344.187 128.099 345.339 127.16 346.192C126.221 347.045 125.112 347.472 123.832 347.472C122.509 347.472 121.379 347.045 120.44 346.192C119.501 345.339 119.032 344.187 119.032 342.736C119.032 341.243 119.501 340.069 120.44 339.216C121.379 338.363 122.509 337.936 123.832 337.936C125.112 337.936 126.221 338.363 127.16 339.216C128.099 340.069 128.568 341.243 128.568 342.736ZM146.192 386C144.058 381.605 141.861 376.571 139.6 370.896C137.381 365.179 135.354 359.056 133.52 352.528H141.776C142.245 354.405 142.778 356.432 143.376 358.608C144.016 360.741 144.677 362.896 145.36 365.072C146.085 367.205 146.81 369.296 147.536 371.344C148.304 373.349 149.008 375.163 149.648 376.784C150.288 375.163 150.97 373.349 151.696 371.344C152.421 369.296 153.125 367.205 153.808 365.072C154.533 362.896 155.216 360.741 155.856 358.608C156.496 356.432 157.05 354.405 157.52 352.528H165.52C163.685 359.056 161.637 365.179 159.376 370.896C157.157 376.571 154.981 381.605 152.848 386H146.192ZM183.079 380.56C185.468 380.56 187.282 380.432 188.519 380.176V371.6C188.092 371.472 187.474 371.344 186.663 371.216C185.852 371.088 184.956 371.024 183.975 371.024C183.122 371.024 182.247 371.088 181.351 371.216C180.498 371.344 179.708 371.579 178.983 371.92C178.3 372.261 177.746 372.752 177.319 373.392C176.892 373.989 176.679 374.757 176.679 375.696C176.679 377.531 177.255 378.811 178.407 379.536C179.559 380.219 181.116 380.56 183.079 380.56ZM182.439 351.696C184.999 351.696 187.154 352.016 188.903 352.656C190.652 353.296 192.039 354.192 193.063 355.344C194.13 356.496 194.876 357.904 195.303 359.568C195.772 361.189 196.007 362.981 196.007 364.944V385.232C194.812 385.488 192.999 385.787 190.567 386.128C188.178 386.512 185.468 386.704 182.439 386.704C180.434 386.704 178.599 386.512 176.935 386.128C175.271 385.744 173.842 385.125 172.647 384.272C171.495 383.419 170.578 382.309 169.895 380.944C169.255 379.579 168.935 377.893 168.935 375.888C168.935 373.968 169.298 372.347 170.023 371.024C170.791 369.701 171.815 368.635 173.095 367.824C174.375 366.971 175.847 366.373 177.511 366.032C179.218 365.648 180.988 365.456 182.823 365.456C183.676 365.456 184.572 365.52 185.511 365.648C186.45 365.733 187.452 365.904 188.519 366.16V364.88C188.519 363.984 188.412 363.131 188.199 362.32C187.986 361.509 187.602 360.805 187.047 360.208C186.535 359.568 185.831 359.077 184.935 358.736C184.082 358.395 182.994 358.224 181.671 358.224C179.879 358.224 178.236 358.352 176.743 358.608C175.25 358.864 174.034 359.163 173.095 359.504L172.135 353.232C173.116 352.891 174.546 352.549 176.423 352.208C178.3 351.867 180.306 351.696 182.439 351.696ZM217.139 386.64C214.835 386.597 212.915 386.341 211.379 385.872C209.885 385.403 208.691 384.741 207.795 383.888C206.899 382.992 206.259 381.904 205.875 380.624C205.533 379.301 205.363 377.808 205.363 376.144V337.616L213.107 336.336V374.672C213.107 375.611 213.171 376.4 213.299 377.04C213.469 377.68 213.747 378.235 214.131 378.704C214.515 379.131 215.027 379.472 215.667 379.728C216.349 379.941 217.203 380.112 218.227 380.24L217.139 386.64ZM222.635 369.424C222.635 366.48 223.061 363.899 223.915 361.68C224.811 359.461 225.984 357.627 227.435 356.176C228.885 354.683 230.549 353.573 232.427 352.848C234.304 352.08 236.224 351.696 238.187 351.696C242.795 351.696 246.379 353.125 248.939 355.984C251.541 358.843 252.843 363.109 252.843 368.784C252.843 369.211 252.821 369.701 252.779 370.256C252.779 370.768 252.757 371.237 252.715 371.664H230.635C230.848 374.352 231.787 376.443 233.451 377.936C235.157 379.387 237.611 380.112 240.811 380.112C242.688 380.112 244.395 379.941 245.931 379.6C247.509 379.259 248.747 378.896 249.643 378.512L250.667 384.848C250.24 385.061 249.643 385.296 248.875 385.552C248.149 385.765 247.296 385.957 246.315 386.128C245.376 386.341 244.352 386.512 243.243 386.64C242.133 386.768 241.003 386.832 239.851 386.832C236.907 386.832 234.347 386.405 232.171 385.552C229.995 384.656 228.203 383.44 226.795 381.904C225.387 380.325 224.341 378.491 223.659 376.4C222.976 374.267 222.635 371.941 222.635 369.424ZM245.099 365.968C245.099 364.901 244.949 363.899 244.651 362.96C244.352 361.979 243.904 361.147 243.307 360.464C242.752 359.739 242.048 359.184 241.195 358.8C240.384 358.373 239.403 358.16 238.251 358.16C237.056 358.16 236.011 358.395 235.115 358.864C234.219 359.291 233.451 359.867 232.811 360.592C232.213 361.317 231.744 362.149 231.403 363.088C231.061 364.027 230.827 364.987 230.699 365.968H245.099ZM261.053 353.616C262.546 353.189 264.488 352.784 266.877 352.4C269.266 352.016 271.912 351.824 274.813 351.824C277.544 351.824 279.826 352.208 281.661 352.976C283.496 353.701 284.946 354.747 286.013 356.112C287.122 357.435 287.89 359.056 288.317 360.976C288.786 362.853 289.021 364.923 289.021 367.184V386H281.277V368.4C281.277 366.608 281.149 365.093 280.893 363.856C280.68 362.576 280.296 361.552 279.741 360.784C279.229 359.973 278.504 359.397 277.565 359.056C276.669 358.672 275.56 358.48 274.237 358.48C273.256 358.48 272.232 358.544 271.165 358.672C270.098 358.8 269.309 358.907 268.797 358.992V386H261.053V353.616ZM298.107 343.696L305.851 342.416V352.528H317.755V358.992H305.851V372.624C305.851 375.312 306.277 377.232 307.131 378.384C307.984 379.536 309.435 380.112 311.483 380.112C312.891 380.112 314.128 379.963 315.195 379.664C316.304 379.365 317.179 379.088 317.819 378.832L319.099 384.976C318.203 385.36 317.029 385.744 315.579 386.128C314.128 386.555 312.421 386.768 310.458 386.768C308.069 386.768 306.064 386.448 304.443 385.808C302.864 385.168 301.605 384.251 300.667 383.056C299.728 381.819 299.067 380.347 298.683 378.64C298.299 376.891 298.107 374.907 298.107 372.688V343.696ZM338.322 369.296C338.322 366.821 338.706 364.517 339.474 362.384C340.242 360.208 341.33 358.331 342.738 356.752C344.189 355.173 345.938 353.936 347.986 353.04C350.034 352.144 352.338 351.696 354.898 351.696C358.055 351.696 361.042 352.272 363.858 353.424L362.194 359.76C361.298 359.376 360.274 359.056 359.122 358.8C358.013 358.544 356.818 358.416 355.538 358.416C352.509 358.416 350.205 359.376 348.626 361.296C347.047 363.173 346.258 365.84 346.258 369.296C346.258 372.624 347.005 375.269 348.498 377.232C349.991 379.152 352.509 380.112 356.05 380.112C357.373 380.112 358.674 379.984 359.954 379.728C361.234 379.472 362.343 379.152 363.282 378.768L364.37 385.168C363.517 385.595 362.215 385.979 360.466 386.32C358.759 386.661 356.989 386.832 355.154 386.832C352.295 386.832 349.799 386.405 347.666 385.552C345.575 384.656 343.826 383.44 342.418 381.904C341.053 380.325 340.029 378.469 339.346 376.336C338.663 374.16 338.322 371.813 338.322 369.296ZM378.75 380.432C380.798 380.432 382.291 380.197 383.23 379.728C384.168 379.216 384.638 378.363 384.638 377.168C384.638 376.059 384.126 375.141 383.102 374.416C382.12 373.691 380.478 372.901 378.174 372.048C376.766 371.536 375.464 371.003 374.27 370.448C373.118 369.851 372.115 369.168 371.262 368.4C370.408 367.632 369.726 366.715 369.214 365.648C368.744 364.539 368.51 363.195 368.51 361.616C368.51 358.544 369.64 356.133 371.902 354.384C374.163 352.592 377.235 351.696 381.118 351.696C383.08 351.696 384.958 351.888 386.75 352.272C388.542 352.613 389.886 352.955 390.782 353.296L389.374 359.568C388.52 359.184 387.432 358.843 386.11 358.544C384.787 358.203 383.251 358.032 381.502 358.032C379.923 358.032 378.643 358.309 377.662 358.864C376.68 359.376 376.19 360.187 376.19 361.296C376.19 361.851 376.275 362.341 376.446 362.768C376.659 363.195 377 363.6 377.47 363.984C377.939 364.325 378.558 364.688 379.326 365.072C380.094 365.413 381.032 365.776 382.142 366.16C383.976 366.843 385.534 367.525 386.814 368.208C388.094 368.848 389.139 369.595 389.95 370.448C390.803 371.259 391.422 372.197 391.806 373.264C392.19 374.331 392.382 375.611 392.382 377.104C392.382 380.304 391.187 382.736 388.798 384.4C386.451 386.021 383.08 386.832 378.686 386.832C375.742 386.832 373.374 386.576 371.582 386.064C369.79 385.595 368.531 385.211 367.806 384.912L369.15 378.448C370.302 378.917 371.667 379.365 373.246 379.792C374.867 380.219 376.702 380.432 378.75 380.432ZM408 380.432C410.048 380.432 411.541 380.197 412.48 379.728C413.418 379.216 413.888 378.363 413.888 377.168C413.888 376.059 413.376 375.141 412.352 374.416C411.37 373.691 409.728 372.901 407.424 372.048C406.016 371.536 404.714 371.003 403.52 370.448C402.368 369.851 401.365 369.168 400.512 368.4C399.658 367.632 398.976 366.715 398.464 365.648C397.994 364.539 397.76 363.195 397.76 361.616C397.76 358.544 398.89 356.133 401.152 354.384C403.413 352.592 406.485 351.696 410.368 351.696C412.33 351.696 414.208 351.888 416 352.272C417.792 352.613 419.136 352.955 420.032 353.296L418.624 359.568C417.77 359.184 416.682 358.843 415.36 358.544C414.037 358.203 412.501 358.032 410.752 358.032C409.173 358.032 407.893 358.309 406.912 358.864C405.93 359.376 405.44 360.187 405.44 361.296C405.44 361.851 405.525 362.341 405.696 362.768C405.909 363.195 406.25 363.6 406.72 363.984C407.189 364.325 407.808 364.688 408.576 365.072C409.344 365.413 410.282 365.776 411.392 366.16C413.226 366.843 414.784 367.525 416.064 368.208C417.344 368.848 418.389 369.595 419.2 370.448C420.053 371.259 420.672 372.197 421.056 373.264C421.44 374.331 421.632 375.611 421.632 377.104C421.632 380.304 420.437 382.736 418.048 384.4C415.701 386.021 412.33 386.832 407.936 386.832C404.992 386.832 402.624 386.576 400.832 386.064C399.04 385.595 397.781 385.211 397.056 384.912L398.4 378.448C399.552 378.917 400.917 379.365 402.496 379.792C404.117 380.219 405.952 380.432 408 380.432ZM437.57 357.84C437.57 359.333 437.058 360.549 436.034 361.488C435.052 362.427 433.858 362.896 432.45 362.896C430.999 362.896 429.783 362.427 428.802 361.488C427.82 360.549 427.33 359.333 427.33 357.84C427.33 356.347 427.82 355.131 428.802 354.192C429.783 353.211 430.999 352.72 432.45 352.72C433.858 352.72 435.052 353.211 436.034 354.192C437.058 355.131 437.57 356.347 437.57 357.84ZM437.57 381.776C437.57 383.269 437.058 384.485 436.034 385.424C435.052 386.363 433.858 386.832 432.45 386.832C430.999 386.832 429.783 386.363 428.802 385.424C427.82 384.485 427.33 383.269 427.33 381.776C427.33 380.283 427.82 379.067 428.802 378.128C429.783 377.147 430.999 376.656 432.45 376.656C433.858 376.656 435.052 377.147 436.034 378.128C437.058 379.067 437.57 380.283 437.57 381.776ZM472.579 380.56C474.968 380.56 476.782 380.432 478.019 380.176V371.6C477.592 371.472 476.974 371.344 476.163 371.216C475.352 371.088 474.456 371.024 473.475 371.024C472.622 371.024 471.747 371.088 470.851 371.216C469.998 371.344 469.208 371.579 468.483 371.92C467.8 372.261 467.246 372.752 466.819 373.392C466.392 373.989 466.179 374.757 466.179 375.696C466.179 377.531 466.755 378.811 467.907 379.536C469.059 380.219 470.616 380.56 472.579 380.56ZM471.939 351.696C474.499 351.696 476.654 352.016 478.403 352.656C480.152 353.296 481.539 354.192 482.563 355.344C483.63 356.496 484.376 357.904 484.803 359.568C485.272 361.189 485.507 362.981 485.507 364.944V385.232C484.312 385.488 482.499 385.787 480.067 386.128C477.678 386.512 474.968 386.704 471.939 386.704C469.934 386.704 468.099 386.512 466.435 386.128C464.771 385.744 463.342 385.125 462.147 384.272C460.995 383.419 460.078 382.309 459.395 380.944C458.755 379.579 458.435 377.893 458.435 375.888C458.435 373.968 458.798 372.347 459.523 371.024C460.291 369.701 461.315 368.635 462.595 367.824C463.875 366.971 465.347 366.373 467.011 366.032C468.718 365.648 470.488 365.456 472.323 365.456C473.176 365.456 474.072 365.52 475.011 365.648C475.95 365.733 476.952 365.904 478.019 366.16V364.88C478.019 363.984 477.912 363.131 477.699 362.32C477.486 361.509 477.102 360.805 476.547 360.208C476.035 359.568 475.331 359.077 474.435 358.736C473.582 358.395 472.494 358.224 471.171 358.224C469.379 358.224 467.736 358.352 466.243 358.608C464.75 358.864 463.534 359.163 462.595 359.504L461.635 353.232C462.616 352.891 464.046 352.549 465.923 352.208C467.8 351.867 469.806 351.696 471.939 351.696ZM506.639 386.64C504.335 386.597 502.415 386.341 500.879 385.872C499.385 385.403 498.191 384.741 497.295 383.888C496.399 382.992 495.759 381.904 495.375 380.624C495.033 379.301 494.863 377.808 494.863 376.144V337.616L502.607 336.336V374.672C502.607 375.611 502.671 376.4 502.799 377.04C502.969 377.68 503.247 378.235 503.631 378.704C504.015 379.131 504.527 379.472 505.167 379.728C505.849 379.941 506.703 380.112 507.727 380.24L506.639 386.64ZM521.799 386H514.055V352.528H521.799V386ZM522.631 342.736C522.631 344.187 522.161 345.339 521.223 346.192C520.284 347.045 519.175 347.472 517.895 347.472C516.572 347.472 515.441 347.045 514.503 346.192C513.564 345.339 513.095 344.187 513.095 342.736C513.095 341.243 513.564 340.069 514.503 339.216C515.441 338.363 516.572 337.936 517.895 337.936C519.175 337.936 520.284 338.363 521.223 339.216C522.161 340.069 522.631 341.243 522.631 342.736ZM537.758 368.4C537.758 371.685 538.462 374.096 539.87 375.632C541.321 377.125 543.177 377.872 545.438 377.872C546.675 377.872 547.827 377.701 548.894 377.36C550.003 377.019 550.899 376.613 551.582 376.144V358.8C551.027 358.672 550.345 358.565 549.534 358.48C548.723 358.352 547.699 358.288 546.462 358.288C543.646 358.288 541.491 359.227 539.998 361.104C538.505 362.939 537.758 365.371 537.758 368.4ZM559.326 382.608C559.326 387.941 557.961 391.845 555.23 394.32C552.542 396.795 548.403 398.032 542.814 398.032C540.766 398.032 538.761 397.861 536.798 397.52C534.878 397.179 533.129 396.731 531.55 396.176L532.958 389.584C534.281 390.139 535.774 390.587 537.438 390.928C539.145 391.269 540.979 391.44 542.942 391.44C546.057 391.44 548.275 390.8 549.598 389.52C550.921 388.24 551.582 386.341 551.582 383.824V382.544C550.814 382.928 549.79 383.312 548.51 383.696C547.273 384.08 545.843 384.272 544.222 384.272C542.089 384.272 540.126 383.931 538.334 383.248C536.585 382.565 535.07 381.563 533.79 380.24C532.553 378.917 531.571 377.275 530.846 375.312C530.163 373.307 529.822 371.003 529.822 368.4C529.822 365.968 530.185 363.728 530.91 361.68C531.678 359.632 532.766 357.883 534.174 356.432C535.625 354.981 537.374 353.851 539.422 353.04C541.47 352.229 543.795 351.824 546.398 351.824C548.915 351.824 551.305 352.016 553.566 352.4C555.827 352.784 557.747 353.189 559.326 353.616V382.608ZM569.178 353.616C570.671 353.189 572.613 352.784 575.002 352.4C577.391 352.016 580.037 351.824 582.938 351.824C585.669 351.824 587.951 352.208 589.786 352.976C591.621 353.701 593.071 354.747 594.138 356.112C595.247 357.435 596.015 359.056 596.442 360.976C596.911 362.853 597.146 364.923 597.146 367.184V386H589.402V368.4C589.402 366.608 589.274 365.093 589.018 363.856C588.805 362.576 588.421 361.552 587.866 360.784C587.354 359.973 586.629 359.397 585.69 359.056C584.794 358.672 583.685 358.48 582.362 358.48C581.381 358.48 580.357 358.544 579.29 358.672C578.223 358.8 577.434 358.907 576.922 358.992V386H569.178V353.616ZM603.16 364.176H620.376V371.28H603.16V364.176ZM634.611 386H626.867V352.528H634.611V386ZM635.443 342.736C635.443 344.187 634.974 345.339 634.035 346.192C633.096 347.045 631.987 347.472 630.707 347.472C629.384 347.472 628.254 347.045 627.315 346.192C626.376 345.339 625.907 344.187 625.907 342.736C625.907 341.243 626.376 340.069 627.315 339.216C628.254 338.363 629.384 337.936 630.707 337.936C631.987 337.936 633.096 338.363 634.035 339.216C634.974 340.069 635.443 341.243 635.443 342.736ZM644.107 343.696L651.851 342.416V352.528H663.755V358.992H651.851V372.624C651.851 375.312 652.277 377.232 653.131 378.384C653.984 379.536 655.435 380.112 657.483 380.112C658.891 380.112 660.128 379.963 661.195 379.664C662.304 379.365 663.179 379.088 663.819 378.832L665.099 384.976C664.203 385.36 663.029 385.744 661.579 386.128C660.128 386.555 658.421 386.768 656.458 386.768C654.069 386.768 652.064 386.448 650.443 385.808C648.864 385.168 647.605 384.251 646.667 383.056C645.728 381.819 645.067 380.347 644.683 378.64C644.299 376.891 644.107 374.907 644.107 372.688V343.696ZM668.822 369.424C668.822 366.48 669.249 363.899 670.102 361.68C670.998 359.461 672.171 357.627 673.622 356.176C675.073 354.683 676.737 353.573 678.614 352.848C680.491 352.08 682.411 351.696 684.374 351.696C688.982 351.696 692.566 353.125 695.126 355.984C697.729 358.843 699.03 363.109 699.03 368.784C699.03 369.211 699.009 369.701 698.966 370.256C698.966 370.768 698.945 371.237 698.902 371.664H676.822C677.035 374.352 677.974 376.443 679.638 377.936C681.345 379.387 683.798 380.112 686.998 380.112C688.875 380.112 690.582 379.941 692.118 379.6C693.697 379.259 694.934 378.896 695.83 378.512L696.854 384.848C696.427 385.061 695.83 385.296 695.062 385.552C694.337 385.765 693.483 385.957 692.502 386.128C691.563 386.341 690.539 386.512 689.43 386.64C688.321 386.768 687.19 386.832 686.038 386.832C683.094 386.832 680.534 386.405 678.358 385.552C676.182 384.656 674.39 383.44 672.982 381.904C671.574 380.325 670.529 378.491 669.846 376.4C669.163 374.267 668.822 371.941 668.822 369.424ZM691.286 365.968C691.286 364.901 691.137 363.899 690.838 362.96C690.539 361.979 690.091 361.147 689.494 360.464C688.939 359.739 688.235 359.184 687.382 358.8C686.571 358.373 685.59 358.16 684.438 358.16C683.243 358.16 682.198 358.395 681.302 358.864C680.406 359.291 679.638 359.867 678.998 360.592C678.401 361.317 677.931 362.149 677.59 363.088C677.249 364.027 677.014 364.987 676.886 365.968H691.286ZM726.313 368.4C726.313 364.901 725.865 362.384 724.969 360.848C724.115 359.269 722.494 358.48 720.105 358.48C719.251 358.48 718.313 358.544 717.289 358.672C716.265 358.8 715.497 358.907 714.985 358.992V386H707.241V353.616C708.734 353.189 710.675 352.784 713.065 352.4C715.497 352.016 718.057 351.824 720.745 351.824C723.049 351.824 724.926 352.123 726.377 352.72C727.87 353.317 729.107 354.107 730.089 355.088C730.558 354.747 731.155 354.384 731.881 354C732.606 353.616 733.417 353.275 734.312 352.976C735.209 352.635 736.147 352.357 737.129 352.144C738.153 351.931 739.177 351.824 740.201 351.824C742.803 351.824 744.937 352.208 746.601 352.976C748.307 353.701 749.63 354.747 750.569 356.112C751.55 357.435 752.211 359.056 752.553 360.976C752.937 362.853 753.129 364.923 753.129 367.184V386H745.385V368.4C745.385 364.901 744.958 362.384 744.105 360.848C743.251 359.269 741.609 358.48 739.177 358.48C737.939 358.48 736.766 358.693 735.657 359.12C734.547 359.504 733.715 359.888 733.161 360.272C733.502 361.339 733.737 362.469 733.865 363.664C733.993 364.859 734.057 366.139 734.057 367.504V386H726.313V368.4ZM771 380.432C773.048 380.432 774.541 380.197 775.48 379.728C776.418 379.216 776.888 378.363 776.888 377.168C776.888 376.059 776.376 375.141 775.352 374.416C774.37 373.691 772.728 372.901 770.424 372.048C769.016 371.536 767.714 371.003 766.52 370.448C765.368 369.851 764.365 369.168 763.512 368.4C762.658 367.632 761.976 366.715 761.464 365.648C760.994 364.539 760.76 363.195 760.76 361.616C760.76 358.544 761.89 356.133 764.152 354.384C766.413 352.592 769.485 351.696 773.368 351.696C775.33 351.696 777.208 351.888 779 352.272C780.792 352.613 782.136 352.955 783.032 353.296L781.624 359.568C780.77 359.184 779.682 358.843 778.36 358.544C777.037 358.203 775.501 358.032 773.752 358.032C772.173 358.032 770.893 358.309 769.912 358.864C768.93 359.376 768.44 360.187 768.44 361.296C768.44 361.851 768.525 362.341 768.696 362.768C768.909 363.195 769.25 363.6 769.72 363.984C770.189 364.325 770.808 364.688 771.576 365.072C772.344 365.413 773.282 365.776 774.392 366.16C776.226 366.843 777.784 367.525 779.064 368.208C780.344 368.848 781.389 369.595 782.2 370.448C783.053 371.259 783.672 372.197 784.056 373.264C784.44 374.331 784.632 375.611 784.632 377.104C784.632 380.304 783.437 382.736 781.048 384.4C778.701 386.021 775.33 386.832 770.936 386.832C767.992 386.832 765.624 386.576 763.832 386.064C762.04 385.595 760.781 385.211 760.056 384.912L761.4 378.448C762.552 378.917 763.917 379.365 765.496 379.792C767.117 380.219 768.952 380.432 771 380.432Z" fill="#60195E"/>
<path d="M18.064 616.954C19.92 616.954 21.2733 616.741 22.124 616.316C22.9747 615.852 23.4 615.079 23.4 613.996C23.4 612.991 22.936 612.159 22.008 611.502C21.1187 610.845 19.63 610.129 17.542 609.356C16.266 608.892 15.0867 608.409 14.004 607.906C12.96 607.365 12.0513 606.746 11.278 606.05C10.5047 605.354 9.886 604.523 9.422 603.556C8.99667 602.551 8.784 601.333 8.784 599.902C8.784 597.118 9.80867 594.933 11.858 593.348C13.9073 591.724 16.6913 590.912 20.21 590.912C21.9887 590.912 23.69 591.086 25.314 591.434C26.938 591.743 28.156 592.053 28.968 592.362L27.692 598.046C26.9187 597.698 25.9327 597.389 24.734 597.118C23.5353 596.809 22.1433 596.654 20.558 596.654C19.1273 596.654 17.9673 596.905 17.078 597.408C16.1887 597.872 15.744 598.607 15.744 599.612C15.744 600.115 15.8213 600.559 15.976 600.946C16.1693 601.333 16.4787 601.7 16.904 602.048C17.3293 602.357 17.89 602.686 18.586 603.034C19.282 603.343 20.1327 603.672 21.138 604.02C22.8007 604.639 24.212 605.257 25.372 605.876C26.532 606.456 27.4793 607.133 28.214 607.906C28.9873 608.641 29.548 609.491 29.896 610.458C30.244 611.425 30.418 612.585 30.418 613.938C30.418 616.838 29.3353 619.042 27.17 620.55C25.0433 622.019 21.9887 622.754 18.006 622.754C15.338 622.754 13.192 622.522 11.568 622.058C9.944 621.633 8.80333 621.285 8.146 621.014L9.364 615.156C10.408 615.581 11.6453 615.987 13.076 616.374C14.5453 616.761 16.208 616.954 18.064 616.954ZM36.6258 583.662L43.6438 582.502V591.666H54.4318V597.524H43.6438V609.878C43.6438 612.314 44.0305 614.054 44.8038 615.098C45.5771 616.142 46.8918 616.664 48.7478 616.664C50.0238 616.664 51.1451 616.529 52.1118 616.258C53.1171 615.987 53.9098 615.736 54.4898 615.504L55.6498 621.072C54.8378 621.42 53.7745 621.768 52.4598 622.116C51.1451 622.503 49.5985 622.696 47.8198 622.696C45.6545 622.696 43.8371 622.406 42.3678 621.826C40.9371 621.246 39.7965 620.415 38.9458 619.332C38.0951 618.211 37.4958 616.877 37.1478 615.33C36.7998 613.745 36.6258 611.947 36.6258 609.936V583.662ZM78.5 597.988C77.92 597.795 77.108 597.601 76.064 597.408C75.0587 597.176 73.8793 597.06 72.526 597.06C71.7527 597.06 70.9213 597.137 70.032 597.292C69.1813 597.447 68.582 597.582 68.234 597.698V622H61.216V593.116C62.5693 592.613 64.2513 592.149 66.262 591.724C68.3113 591.26 70.5733 591.028 73.048 591.028C73.512 591.028 74.0533 591.067 74.672 591.144C75.2907 591.183 75.9093 591.26 76.528 591.376C77.1467 591.453 77.746 591.569 78.326 591.724C78.906 591.84 79.37 591.956 79.718 592.072L78.5 597.988ZM82.9266 606.978C82.9266 604.31 83.3132 601.971 84.0866 599.96C84.8986 597.949 85.9619 596.287 87.2766 594.972C88.5912 593.619 90.0992 592.613 91.8006 591.956C93.5019 591.26 95.2419 590.912 97.0206 590.912C101.197 590.912 104.445 592.207 106.765 594.798C109.123 597.389 110.303 601.255 110.303 606.398C110.303 606.785 110.283 607.229 110.245 607.732C110.245 608.196 110.225 608.621 110.187 609.008H90.1766C90.3699 611.444 91.2206 613.339 92.7286 614.692C94.2752 616.007 96.4986 616.664 99.3986 616.664C101.1 616.664 102.647 616.509 104.039 616.2C105.469 615.891 106.591 615.562 107.403 615.214L108.331 620.956C107.944 621.149 107.403 621.362 106.707 621.594C106.049 621.787 105.276 621.961 104.387 622.116C103.536 622.309 102.608 622.464 101.603 622.58C100.597 622.696 99.5726 622.754 98.5286 622.754C95.8606 622.754 93.5406 622.367 91.5686 621.594C89.5966 620.782 87.9726 619.68 86.6966 618.288C85.4206 616.857 84.4732 615.195 83.8546 613.3C83.2359 611.367 82.9266 609.259 82.9266 606.978ZM103.285 603.846C103.285 602.879 103.149 601.971 102.879 601.12C102.608 600.231 102.202 599.477 101.661 598.858C101.158 598.201 100.52 597.698 99.7466 597.35C99.0119 596.963 98.1226 596.77 97.0786 596.77C95.9959 596.77 95.0486 596.983 94.2366 597.408C93.4246 597.795 92.7286 598.317 92.1486 598.974C91.6072 599.631 91.1819 600.385 90.8726 601.236C90.5632 602.087 90.3506 602.957 90.2346 603.846H103.285ZM117.395 583.662L124.413 582.502V591.666H135.201V597.524H124.413V609.878C124.413 612.314 124.8 614.054 125.573 615.098C126.347 616.142 127.661 616.664 129.517 616.664C130.793 616.664 131.915 616.529 132.881 616.258C133.887 615.987 134.679 615.736 135.259 615.504L136.419 621.072C135.607 621.42 134.544 621.768 133.229 622.116C131.915 622.503 130.368 622.696 128.589 622.696C126.424 622.696 124.607 622.406 123.137 621.826C121.707 621.246 120.566 620.415 119.715 619.332C118.865 618.211 118.265 616.877 117.917 615.33C117.569 613.745 117.395 611.947 117.395 609.936V583.662ZM139.68 606.862C139.68 604.619 140.028 602.531 140.724 600.598C141.42 598.626 142.406 596.925 143.682 595.494C144.997 594.063 146.582 592.942 148.438 592.13C150.294 591.318 152.382 590.912 154.702 590.912C157.564 590.912 160.27 591.434 162.822 592.478L161.314 598.22C160.502 597.872 159.574 597.582 158.53 597.35C157.525 597.118 156.442 597.002 155.282 597.002C152.537 597.002 150.449 597.872 149.018 599.612C147.588 601.313 146.872 603.73 146.872 606.862C146.872 609.878 147.549 612.275 148.902 614.054C150.256 615.794 152.537 616.664 155.746 616.664C156.945 616.664 158.124 616.548 159.284 616.316C160.444 616.084 161.45 615.794 162.3 615.446L163.286 621.246C162.513 621.633 161.334 621.981 159.748 622.29C158.202 622.599 156.597 622.754 154.934 622.754C152.344 622.754 150.082 622.367 148.148 621.594C146.254 620.782 144.668 619.68 143.392 618.288C142.155 616.857 141.227 615.175 140.608 613.242C139.99 611.27 139.68 609.143 139.68 606.862ZM168.72 622V578.152L175.738 576.992V592.014C176.511 591.743 177.401 591.511 178.406 591.318C179.45 591.125 180.475 591.028 181.48 591.028C183.916 591.028 185.927 591.376 187.512 592.072C189.136 592.729 190.431 593.677 191.398 594.914C192.365 596.113 193.041 597.563 193.428 599.264C193.853 600.965 194.066 602.86 194.066 604.948V622H187.048V606.05C187.048 604.426 186.932 603.053 186.7 601.932C186.507 600.772 186.159 599.844 185.656 599.148C185.192 598.413 184.554 597.891 183.742 597.582C182.93 597.234 181.925 597.06 180.726 597.06C179.798 597.06 178.851 597.157 177.884 597.35C176.917 597.543 176.202 597.717 175.738 597.872V622H168.72ZM222.859 604.658C222.859 609.414 223.574 613.88 225.005 618.056C226.435 622.232 228.427 626.041 230.979 629.482L226.049 632.73C222.917 628.979 220.442 624.726 218.625 619.97C216.807 615.175 215.899 610.071 215.899 604.658C215.899 599.245 216.807 594.16 218.625 589.404C220.442 584.609 222.917 580.337 226.049 576.586L230.979 579.834C228.427 583.314 226.435 587.142 225.005 591.318C223.574 595.455 222.859 599.902 222.859 604.658ZM241.179 606.746C241.179 609.839 241.914 612.275 243.383 614.054C244.852 615.794 246.882 616.664 249.473 616.664C250.594 616.664 251.542 616.625 252.315 616.548C253.127 616.432 253.784 616.316 254.287 616.2V598.8C253.668 598.375 252.837 597.988 251.793 597.64C250.788 597.253 249.705 597.06 248.545 597.06C245.993 597.06 244.118 597.93 242.919 599.67C241.759 601.41 241.179 603.769 241.179 606.746ZM261.305 621.072C259.913 621.497 258.154 621.884 256.027 622.232C253.939 622.58 251.735 622.754 249.415 622.754C247.018 622.754 244.872 622.387 242.977 621.652C241.082 620.917 239.458 619.873 238.105 618.52C236.79 617.128 235.766 615.465 235.031 613.532C234.335 611.56 233.987 609.356 233.987 606.92C233.987 604.523 234.277 602.357 234.857 600.424C235.476 598.452 236.365 596.77 237.525 595.378C238.685 593.986 240.096 592.923 241.759 592.188C243.422 591.415 245.336 591.028 247.501 591.028C248.97 591.028 250.266 591.202 251.387 591.55C252.508 591.898 253.475 592.285 254.287 592.71V578.152L261.305 576.992V621.072ZM268.538 606.978C268.538 604.31 268.925 601.971 269.698 599.96C270.51 597.949 271.573 596.287 272.888 594.972C274.203 593.619 275.711 592.613 277.412 591.956C279.113 591.26 280.853 590.912 282.632 590.912C286.808 590.912 290.056 592.207 292.376 594.798C294.735 597.389 295.914 601.255 295.914 606.398C295.914 606.785 295.895 607.229 295.856 607.732C295.856 608.196 295.837 608.621 295.798 609.008H275.788C275.981 611.444 276.832 613.339 278.34 614.692C279.887 616.007 282.11 616.664 285.01 616.664C286.711 616.664 288.258 616.509 289.65 616.2C291.081 615.891 292.202 615.562 293.014 615.214L293.942 620.956C293.555 621.149 293.014 621.362 292.318 621.594C291.661 621.787 290.887 621.961 289.998 622.116C289.147 622.309 288.219 622.464 287.214 622.58C286.209 622.696 285.184 622.754 284.14 622.754C281.472 622.754 279.152 622.367 277.18 621.594C275.208 620.782 273.584 619.68 272.308 618.288C271.032 616.857 270.085 615.195 269.466 613.3C268.847 611.367 268.538 609.259 268.538 606.978ZM288.896 603.846C288.896 602.879 288.761 601.971 288.49 601.12C288.219 600.231 287.813 599.477 287.272 598.858C286.769 598.201 286.131 597.698 285.358 597.35C284.623 596.963 283.734 596.77 282.69 596.77C281.607 596.77 280.66 596.983 279.848 597.408C279.036 597.795 278.34 598.317 277.76 598.974C277.219 599.631 276.793 600.385 276.484 601.236C276.175 602.087 275.962 602.957 275.846 603.846H288.896ZM315.709 576.992C317.333 576.992 318.763 577.147 320.001 577.456C321.238 577.727 322.166 577.978 322.785 578.21L321.451 584.01C320.793 583.701 320.02 583.449 319.131 583.256C318.28 583.063 317.352 582.966 316.347 582.966C315.225 582.966 314.278 583.14 313.505 583.488C312.731 583.797 312.113 584.242 311.649 584.822C311.185 585.402 310.856 586.117 310.663 586.968C310.469 587.78 310.373 588.669 310.373 589.636V591.666H321.393V597.524H310.373V622H303.355V589.52C303.355 585.615 304.379 582.56 306.429 580.356C308.478 578.113 311.571 576.992 315.709 576.992ZM337.249 617.07C339.415 617.07 341.058 616.954 342.179 616.722V608.95C341.793 608.834 341.232 608.718 340.497 608.602C339.763 608.486 338.951 608.428 338.061 608.428C337.288 608.428 336.495 608.486 335.683 608.602C334.91 608.718 334.195 608.931 333.537 609.24C332.919 609.549 332.416 609.994 332.029 610.574C331.643 611.115 331.449 611.811 331.449 612.662C331.449 614.325 331.971 615.485 333.015 616.142C334.059 616.761 335.471 617.07 337.249 617.07ZM336.669 590.912C338.989 590.912 340.942 591.202 342.527 591.782C344.113 592.362 345.369 593.174 346.297 594.218C347.264 595.262 347.941 596.538 348.327 598.046C348.753 599.515 348.965 601.139 348.965 602.918V621.304C347.883 621.536 346.239 621.807 344.035 622.116C341.87 622.464 339.415 622.638 336.669 622.638C334.852 622.638 333.189 622.464 331.681 622.116C330.173 621.768 328.878 621.207 327.795 620.434C326.751 619.661 325.92 618.655 325.301 617.418C324.721 616.181 324.431 614.653 324.431 612.836C324.431 611.096 324.76 609.627 325.417 608.428C326.113 607.229 327.041 606.263 328.201 605.528C329.361 604.755 330.695 604.213 332.203 603.904C333.75 603.556 335.355 603.382 337.017 603.382C337.791 603.382 338.603 603.44 339.453 603.556C340.304 603.633 341.213 603.788 342.179 604.02V602.86C342.179 602.048 342.083 601.275 341.889 600.54C341.696 599.805 341.348 599.167 340.845 598.626C340.381 598.046 339.743 597.601 338.931 597.292C338.158 596.983 337.172 596.828 335.973 596.828C334.349 596.828 332.861 596.944 331.507 597.176C330.154 597.408 329.052 597.679 328.201 597.988L327.331 592.304C328.221 591.995 329.516 591.685 331.217 591.376C332.919 591.067 334.736 590.912 336.669 590.912ZM382.442 621.072C381.088 621.42 379.329 621.768 377.164 622.116C374.998 622.503 372.62 622.696 370.03 622.696C367.594 622.696 365.544 622.348 363.882 621.652C362.258 620.956 360.943 619.989 359.938 618.752C358.971 617.515 358.275 616.045 357.85 614.344C357.424 612.604 357.212 610.709 357.212 608.66V591.666H364.23V607.558C364.23 610.806 364.694 613.126 365.622 614.518C366.588 615.91 368.251 616.606 370.61 616.606C371.46 616.606 372.35 616.567 373.278 616.49C374.244 616.413 374.96 616.316 375.424 616.2V591.666H382.442V621.072ZM401.93 622.58C399.842 622.541 398.102 622.309 396.71 621.884C395.357 621.459 394.274 620.859 393.462 620.086C392.65 619.274 392.07 618.288 391.722 617.128C391.413 615.929 391.258 614.576 391.258 613.068V578.152L398.276 576.992V611.734C398.276 612.585 398.334 613.3 398.45 613.88C398.605 614.46 398.856 614.963 399.204 615.388C399.552 615.775 400.016 616.084 400.596 616.316C401.215 616.509 401.988 616.664 402.916 616.78L401.93 622.58ZM408.245 583.662L415.263 582.502V591.666H426.051V597.524H415.263V609.878C415.263 612.314 415.65 614.054 416.423 615.098C417.196 616.142 418.511 616.664 420.367 616.664C421.643 616.664 422.764 616.529 423.731 616.258C424.736 615.987 425.529 615.736 426.109 615.504L427.269 621.072C426.457 621.42 425.394 621.768 424.079 622.116C422.764 622.503 421.218 622.696 419.439 622.696C417.274 622.696 415.456 622.406 413.987 621.826C412.556 621.246 411.416 620.415 410.565 619.332C409.714 618.211 409.115 616.877 408.767 615.33C408.419 613.745 408.245 611.947 408.245 609.936V583.662ZM436.721 604.658C436.721 599.902 436.006 595.455 434.575 591.318C433.144 587.142 431.153 583.314 428.601 579.834L433.531 576.586C436.663 580.337 439.138 584.609 440.955 589.404C442.772 594.16 443.681 599.245 443.681 604.658C443.681 610.071 442.772 615.175 440.955 619.97C439.138 624.726 436.663 628.979 433.531 632.73L428.601 629.482C431.153 626.041 433.144 622.232 434.575 618.056C436.006 613.88 436.721 609.414 436.721 604.658Z" fill="#60195E"/>
<path d="M18.064 1120.95C19.92 1120.95 21.2733 1120.74 22.124 1120.32C22.9747 1119.85 23.4 1119.08 23.4 1118C23.4 1116.99 22.936 1116.16 22.008 1115.5C21.1187 1114.84 19.63 1114.13 17.542 1113.36C16.266 1112.89 15.0867 1112.41 14.004 1111.91C12.96 1111.36 12.0513 1110.75 11.278 1110.05C10.5047 1109.35 9.886 1108.52 9.422 1107.56C8.99667 1106.55 8.784 1105.33 8.784 1103.9C8.784 1101.12 9.80867 1098.93 11.858 1097.35C13.9073 1095.72 16.6913 1094.91 20.21 1094.91C21.9887 1094.91 23.69 1095.09 25.314 1095.43C26.938 1095.74 28.156 1096.05 28.968 1096.36L27.692 1102.05C26.9187 1101.7 25.9327 1101.39 24.734 1101.12C23.5353 1100.81 22.1433 1100.65 20.558 1100.65C19.1273 1100.65 17.9673 1100.91 17.078 1101.41C16.1887 1101.87 15.744 1102.61 15.744 1103.61C15.744 1104.11 15.8213 1104.56 15.976 1104.95C16.1693 1105.33 16.4787 1105.7 16.904 1106.05C17.3293 1106.36 17.89 1106.69 18.586 1107.03C19.282 1107.34 20.1327 1107.67 21.138 1108.02C22.8007 1108.64 24.212 1109.26 25.372 1109.88C26.532 1110.46 27.4793 1111.13 28.214 1111.91C28.9873 1112.64 29.548 1113.49 29.896 1114.46C30.244 1115.42 30.418 1116.58 30.418 1117.94C30.418 1120.84 29.3353 1123.04 27.17 1124.55C25.0433 1126.02 21.9887 1126.75 18.006 1126.75C15.338 1126.75 13.192 1126.52 11.568 1126.06C9.944 1125.63 8.80333 1125.28 8.146 1125.01L9.364 1119.16C10.408 1119.58 11.6453 1119.99 13.076 1120.37C14.5453 1120.76 16.208 1120.95 18.064 1120.95ZM36.6258 1087.66L43.6438 1086.5V1095.67H54.4318V1101.52H43.6438V1113.88C43.6438 1116.31 44.0305 1118.05 44.8038 1119.1C45.5771 1120.14 46.8918 1120.66 48.7478 1120.66C50.0238 1120.66 51.1451 1120.53 52.1118 1120.26C53.1171 1119.99 53.9098 1119.74 54.4898 1119.5L55.6498 1125.07C54.8378 1125.42 53.7745 1125.77 52.4598 1126.12C51.1451 1126.5 49.5985 1126.7 47.8198 1126.7C45.6545 1126.7 43.8371 1126.41 42.3678 1125.83C40.9371 1125.25 39.7965 1124.41 38.9458 1123.33C38.0951 1122.21 37.4958 1120.88 37.1478 1119.33C36.7998 1117.74 36.6258 1115.95 36.6258 1113.94V1087.66ZM71.888 1121.07C74.0533 1121.07 75.6967 1120.95 76.818 1120.72V1112.95C76.4313 1112.83 75.8707 1112.72 75.136 1112.6C74.4013 1112.49 73.5893 1112.43 72.7 1112.43C71.9267 1112.43 71.134 1112.49 70.322 1112.6C69.5487 1112.72 68.8333 1112.93 68.176 1113.24C67.5573 1113.55 67.0547 1113.99 66.668 1114.57C66.2813 1115.12 66.088 1115.81 66.088 1116.66C66.088 1118.32 66.61 1119.48 67.654 1120.14C68.698 1120.76 70.1093 1121.07 71.888 1121.07ZM71.308 1094.91C73.628 1094.91 75.5807 1095.2 77.166 1095.78C78.7513 1096.36 80.008 1097.17 80.936 1098.22C81.9027 1099.26 82.5793 1100.54 82.966 1102.05C83.3913 1103.52 83.604 1105.14 83.604 1106.92V1125.3C82.5213 1125.54 80.878 1125.81 78.674 1126.12C76.5087 1126.46 74.0533 1126.64 71.308 1126.64C69.4907 1126.64 67.828 1126.46 66.32 1126.12C64.812 1125.77 63.5167 1125.21 62.434 1124.43C61.39 1123.66 60.5587 1122.66 59.94 1121.42C59.36 1120.18 59.07 1118.65 59.07 1116.84C59.07 1115.1 59.3987 1113.63 60.056 1112.43C60.752 1111.23 61.68 1110.26 62.84 1109.53C64 1108.75 65.334 1108.21 66.842 1107.9C68.3887 1107.56 69.9933 1107.38 71.656 1107.38C72.4293 1107.38 73.2413 1107.44 74.092 1107.56C74.9427 1107.63 75.8513 1107.79 76.818 1108.02V1106.86C76.818 1106.05 76.7213 1105.27 76.528 1104.54C76.3347 1103.81 75.9867 1103.17 75.484 1102.63C75.02 1102.05 74.382 1101.6 73.57 1101.29C72.7967 1100.98 71.8107 1100.83 70.612 1100.83C68.988 1100.83 67.4993 1100.94 66.146 1101.18C64.7927 1101.41 63.6907 1101.68 62.84 1101.99L61.97 1096.3C62.8593 1095.99 64.1547 1095.69 65.856 1095.38C67.5573 1095.07 69.3747 1094.91 71.308 1094.91ZM109.482 1101.99C108.902 1101.79 108.09 1101.6 107.046 1101.41C106.041 1101.18 104.862 1101.06 103.508 1101.06C102.735 1101.06 101.904 1101.14 101.014 1101.29C100.164 1101.45 99.5644 1101.58 99.2164 1101.7V1126H92.1984V1097.12C93.5518 1096.61 95.2338 1096.15 97.2444 1095.72C99.2938 1095.26 101.556 1095.03 104.03 1095.03C104.494 1095.03 105.036 1095.07 105.654 1095.14C106.273 1095.18 106.892 1095.26 107.51 1095.38C108.129 1095.45 108.728 1095.57 109.308 1095.72C109.888 1095.84 110.352 1095.96 110.7 1096.07L109.482 1101.99ZM115.243 1087.66L122.261 1086.5V1095.67H133.049V1101.52H122.261V1113.88C122.261 1116.31 122.648 1118.05 123.421 1119.1C124.194 1120.14 125.509 1120.66 127.365 1120.66C128.641 1120.66 129.762 1120.53 130.729 1120.26C131.734 1119.99 132.527 1119.74 133.107 1119.5L134.267 1125.07C133.455 1125.42 132.392 1125.77 131.077 1126.12C129.762 1126.5 128.216 1126.7 126.437 1126.7C124.272 1126.7 122.454 1126.41 120.985 1125.83C119.554 1125.25 118.414 1124.41 117.563 1123.33C116.712 1122.21 116.113 1120.88 115.765 1119.33C115.417 1117.74 115.243 1115.95 115.243 1113.94V1087.66Z" fill="#60195E"/>
<path d="M1329.78 606.978C1329.78 604.31 1330.17 601.971 1330.94 599.96C1331.76 597.949 1332.82 596.287 1334.13 594.972C1335.45 593.619 1336.96 592.613 1338.66 591.956C1340.36 591.26 1342.1 590.912 1343.88 590.912C1348.05 590.912 1351.3 592.207 1353.62 594.798C1355.98 597.389 1357.16 601.255 1357.16 606.398C1357.16 606.785 1357.14 607.229 1357.1 607.732C1357.1 608.196 1357.08 608.621 1357.04 609.008H1337.03C1337.23 611.444 1338.08 613.339 1339.59 614.692C1341.13 616.007 1343.36 616.664 1346.26 616.664C1347.96 616.664 1349.5 616.509 1350.9 616.2C1352.33 615.891 1353.45 615.562 1354.26 615.214L1355.19 620.956C1354.8 621.149 1354.26 621.362 1353.56 621.594C1352.91 621.787 1352.13 621.961 1351.24 622.116C1350.39 622.309 1349.47 622.464 1348.46 622.58C1347.45 622.696 1346.43 622.754 1345.39 622.754C1342.72 622.754 1340.4 622.367 1338.43 621.594C1336.45 620.782 1334.83 619.68 1333.55 618.288C1332.28 616.857 1331.33 615.195 1330.71 613.3C1330.09 611.367 1329.78 609.259 1329.78 606.978ZM1350.14 603.846C1350.14 602.879 1350.01 601.971 1349.74 601.12C1349.47 600.231 1349.06 599.477 1348.52 598.858C1348.02 598.201 1347.38 597.698 1346.6 597.35C1345.87 596.963 1344.98 596.77 1343.94 596.77C1342.85 596.77 1341.91 596.983 1341.09 597.408C1340.28 597.795 1339.59 598.317 1339.01 598.974C1338.46 599.631 1338.04 600.385 1337.73 601.236C1337.42 602.087 1337.21 602.957 1337.09 603.846H1350.14ZM1364.6 592.652C1365.95 592.265 1367.71 591.898 1369.88 591.55C1372.04 591.202 1374.44 591.028 1377.07 591.028C1379.55 591.028 1381.61 591.376 1383.28 592.072C1384.94 592.729 1386.25 593.677 1387.22 594.914C1388.23 596.113 1388.92 597.582 1389.31 599.322C1389.73 601.023 1389.95 602.899 1389.95 604.948V622H1382.93V606.05C1382.93 604.426 1382.81 603.053 1382.58 601.932C1382.39 600.772 1382.04 599.844 1381.54 599.148C1381.07 598.413 1380.42 597.891 1379.56 597.582C1378.75 597.234 1377.75 597.06 1376.55 597.06C1375.66 597.06 1374.73 597.118 1373.76 597.234C1372.8 597.35 1372.08 597.447 1371.62 597.524V622H1364.6V592.652ZM1404.04 606.746C1404.04 609.839 1404.77 612.275 1406.24 614.054C1407.71 615.794 1409.74 616.664 1412.33 616.664C1413.45 616.664 1414.4 616.625 1415.17 616.548C1415.99 616.432 1416.64 616.316 1417.15 616.2V598.8C1416.53 598.375 1415.7 597.988 1414.65 597.64C1413.65 597.253 1412.56 597.06 1411.4 597.06C1408.85 597.06 1406.98 597.93 1405.78 599.67C1404.62 601.41 1404.04 603.769 1404.04 606.746ZM1424.16 621.072C1422.77 621.497 1421.01 621.884 1418.89 622.232C1416.8 622.58 1414.59 622.754 1412.27 622.754C1409.88 622.754 1407.73 622.387 1405.84 621.652C1403.94 620.917 1402.32 619.873 1400.96 618.52C1399.65 617.128 1398.63 615.465 1397.89 613.532C1397.19 611.56 1396.85 609.356 1396.85 606.92C1396.85 604.523 1397.14 602.357 1397.72 600.424C1398.34 598.452 1399.22 596.77 1400.38 595.378C1401.54 593.986 1402.96 592.923 1404.62 592.188C1406.28 591.415 1408.2 591.028 1410.36 591.028C1411.83 591.028 1413.13 591.202 1414.25 591.55C1415.37 591.898 1416.33 592.285 1417.15 592.71V578.152L1424.16 576.992V621.072Z" fill="#60195E"/>
<path d="M1320.78 1102.86C1320.78 1100.62 1321.13 1098.53 1321.83 1096.6C1322.52 1094.63 1323.51 1092.92 1324.79 1091.49C1326.1 1090.06 1327.69 1088.94 1329.54 1088.13C1331.4 1087.32 1333.49 1086.91 1335.81 1086.91C1338.67 1086.91 1341.37 1087.43 1343.93 1088.48L1342.42 1094.22C1341.61 1093.87 1340.68 1093.58 1339.63 1093.35C1338.63 1093.12 1337.55 1093 1336.39 1093C1333.64 1093 1331.55 1093.87 1330.12 1095.61C1328.69 1097.31 1327.98 1099.73 1327.98 1102.86C1327.98 1105.88 1328.65 1108.28 1330.01 1110.05C1331.36 1111.79 1333.64 1112.66 1336.85 1112.66C1338.05 1112.66 1339.23 1112.55 1340.39 1112.32C1341.55 1112.08 1342.55 1111.79 1343.4 1111.45L1344.39 1117.25C1343.62 1117.63 1342.44 1117.98 1340.85 1118.29C1339.31 1118.6 1337.7 1118.75 1336.04 1118.75C1333.45 1118.75 1331.19 1118.37 1329.25 1117.59C1327.36 1116.78 1325.77 1115.68 1324.5 1114.29C1323.26 1112.86 1322.33 1111.18 1321.71 1109.24C1321.09 1107.27 1320.78 1105.14 1320.78 1102.86ZM1348.14 1102.98C1348.14 1100.31 1348.53 1097.97 1349.3 1095.96C1350.11 1093.95 1351.18 1092.29 1352.49 1090.97C1353.81 1089.62 1355.31 1088.61 1357.02 1087.96C1358.72 1087.26 1360.46 1086.91 1362.24 1086.91C1366.41 1086.91 1369.66 1088.21 1371.98 1090.8C1374.34 1093.39 1375.52 1097.26 1375.52 1102.4C1375.52 1102.78 1375.5 1103.23 1375.46 1103.73C1375.46 1104.2 1375.44 1104.62 1375.4 1105.01H1355.39C1355.58 1107.44 1356.44 1109.34 1357.94 1110.69C1359.49 1112.01 1361.71 1112.66 1364.61 1112.66C1366.31 1112.66 1367.86 1112.51 1369.25 1112.2C1370.68 1111.89 1371.81 1111.56 1372.62 1111.21L1373.55 1116.96C1373.16 1117.15 1372.62 1117.36 1371.92 1117.59C1371.26 1117.79 1370.49 1117.96 1369.6 1118.12C1368.75 1118.31 1367.82 1118.46 1366.82 1118.58C1365.81 1118.7 1364.79 1118.75 1363.74 1118.75C1361.08 1118.75 1358.76 1118.37 1356.78 1117.59C1354.81 1116.78 1353.19 1115.68 1351.91 1114.29C1350.64 1112.86 1349.69 1111.19 1349.07 1109.3C1348.45 1107.37 1348.14 1105.26 1348.14 1102.98ZM1368.5 1099.85C1368.5 1098.88 1368.36 1097.97 1368.09 1097.12C1367.82 1096.23 1367.42 1095.48 1366.88 1094.86C1366.37 1094.2 1365.73 1093.7 1364.96 1093.35C1364.23 1092.96 1363.34 1092.77 1362.29 1092.77C1361.21 1092.77 1360.26 1092.98 1359.45 1093.41C1358.64 1093.79 1357.94 1094.32 1357.36 1094.97C1356.82 1095.63 1356.4 1096.39 1356.09 1097.24C1355.78 1098.09 1355.57 1098.96 1355.45 1099.85H1368.5ZM1382.96 1088.65C1384.31 1088.27 1386.07 1087.9 1388.24 1087.55C1390.4 1087.2 1392.8 1087.03 1395.43 1087.03C1397.9 1087.03 1399.97 1087.38 1401.63 1088.07C1403.3 1088.73 1404.61 1089.68 1405.58 1090.91C1406.58 1092.11 1407.28 1093.58 1407.67 1095.32C1408.09 1097.02 1408.3 1098.9 1408.3 1100.95V1118H1401.29V1102.05C1401.29 1100.43 1401.17 1099.05 1400.94 1097.93C1400.74 1096.77 1400.4 1095.84 1399.89 1095.15C1399.43 1094.41 1398.77 1093.89 1397.92 1093.58C1397.11 1093.23 1396.1 1093.06 1394.91 1093.06C1394.02 1093.06 1393.09 1093.12 1392.12 1093.23C1391.16 1093.35 1390.44 1093.45 1389.98 1093.52V1118H1382.96V1088.65ZM1416.54 1079.66L1423.56 1078.5V1087.67H1434.34V1093.52H1423.56V1105.88C1423.56 1108.31 1423.94 1110.05 1424.72 1111.1C1425.49 1112.14 1426.8 1112.66 1428.66 1112.66C1429.94 1112.66 1431.06 1112.53 1432.02 1112.26C1433.03 1111.99 1433.82 1111.74 1434.4 1111.5L1435.56 1117.07C1434.75 1117.42 1433.69 1117.77 1432.37 1118.12C1431.06 1118.5 1429.51 1118.7 1427.73 1118.7C1425.57 1118.7 1423.75 1118.41 1422.28 1117.83C1420.85 1117.25 1419.71 1116.41 1418.86 1115.33C1418.01 1114.21 1417.41 1112.88 1417.06 1111.33C1416.71 1109.74 1416.54 1107.95 1416.54 1105.94V1079.66ZM1438.94 1102.98C1438.94 1100.31 1439.32 1097.97 1440.1 1095.96C1440.91 1093.95 1441.97 1092.29 1443.29 1090.97C1444.6 1089.62 1446.11 1088.61 1447.81 1087.96C1449.51 1087.26 1451.25 1086.91 1453.03 1086.91C1457.21 1086.91 1460.45 1088.21 1462.77 1090.8C1465.13 1093.39 1466.31 1097.26 1466.31 1102.4C1466.31 1102.78 1466.29 1103.23 1466.25 1103.73C1466.25 1104.2 1466.24 1104.62 1466.2 1105.01H1446.19C1446.38 1107.44 1447.23 1109.34 1448.74 1110.69C1450.29 1112.01 1452.51 1112.66 1455.41 1112.66C1457.11 1112.66 1458.66 1112.51 1460.05 1112.2C1461.48 1111.89 1462.6 1111.56 1463.41 1111.21L1464.34 1116.96C1463.95 1117.15 1463.41 1117.36 1462.72 1117.59C1462.06 1117.79 1461.29 1117.96 1460.4 1118.12C1459.55 1118.31 1458.62 1118.46 1457.61 1118.58C1456.61 1118.7 1455.58 1118.75 1454.54 1118.75C1451.87 1118.75 1449.55 1118.37 1447.58 1117.59C1445.61 1116.78 1443.98 1115.68 1442.71 1114.29C1441.43 1112.86 1440.48 1111.19 1439.86 1109.3C1439.25 1107.37 1438.94 1105.26 1438.94 1102.98ZM1459.29 1099.85C1459.29 1098.88 1459.16 1097.97 1458.89 1097.12C1458.62 1096.23 1458.21 1095.48 1457.67 1094.86C1457.17 1094.2 1456.53 1093.7 1455.76 1093.35C1455.02 1092.96 1454.13 1092.77 1453.09 1092.77C1452.01 1092.77 1451.06 1092.98 1450.25 1093.41C1449.43 1093.79 1448.74 1094.32 1448.16 1094.97C1447.62 1095.63 1447.19 1096.39 1446.88 1097.24C1446.57 1098.09 1446.36 1098.96 1446.24 1099.85H1459.29ZM1491.04 1093.99C1490.46 1093.79 1489.65 1093.6 1488.6 1093.41C1487.6 1093.18 1486.42 1093.06 1485.06 1093.06C1484.29 1093.06 1483.46 1093.14 1482.57 1093.29C1481.72 1093.45 1481.12 1093.58 1480.77 1093.7V1118H1473.75V1089.12C1475.11 1088.61 1476.79 1088.15 1478.8 1087.72C1480.85 1087.26 1483.11 1087.03 1485.59 1087.03C1486.05 1087.03 1486.59 1087.07 1487.21 1087.14C1487.83 1087.18 1488.45 1087.26 1489.07 1087.38C1489.68 1087.45 1490.28 1087.57 1490.86 1087.72C1491.44 1087.84 1491.91 1087.96 1492.26 1088.07L1491.04 1093.99Z" fill="#60195E"/>
<line x1="3" y1="233.5" x2="1124" y2="233.5" stroke="#60195E" stroke-width="13"/>
<line x1="3" y1="233.5" x2="1124" y2="233.5" stroke="black" stroke-opacity="0.2" stroke-width="13"/>
<path d="M23 660.5H1094C1103.67 660.5 1111.5 668.335 1111.5 678V1011C1111.5 1020.66 1103.67 1028.5 1094 1028.5H23C13.335 1028.5 5.5 1020.67 5.5 1011V678C5.5 668.335 13.335 660.5 23 660.5Z" fill="#C4C4C4" stroke="#C4C4C4" stroke-width="5"/>
<path d="M26 668.5H221C230.665 668.5 238.5 676.335 238.5 686V752C238.5 761.665 230.665 769.5 221 769.5H26C16.335 769.5 8.5 761.665 8.5 752V686C8.5 676.335 16.335 668.5 26 668.5Z" fill="#E6E6E6" stroke="#60195E" stroke-width="5"/>
<path d="M26 793.5H221C230.665 793.5 238.5 801.335 238.5 811V896C238.5 905.665 230.665 913.5 221 913.5H26C16.335 913.5 8.5 905.665 8.5 896V811C8.5 801.335 16.335 793.5 26 793.5Z" fill="#E6E6E6" stroke="#60195E" stroke-width="5"/>
<path d="M26 934.5H221C230.665 934.5 238.5 942.335 238.5 952V1007C238.5 1016.66 230.665 1024.5 221 1024.5H26C16.335 1024.5 8.5 1016.66 8.5 1007V952C8.5 942.335 16.335 934.5 26 934.5Z" fill="#E6E6E6" stroke="#60195E" stroke-width="5"/>
<path d="M282 934.5H729C738.665 934.5 746.5 942.335 746.5 952V1007C746.5 1016.67 738.665 1024.5 729 1024.5H282C272.335 1024.5 264.5 1016.67 264.5 1007V952C264.5 942.335 272.335 934.5 282 934.5Z" fill="#E6E6E6" stroke="#60195E" stroke-width="5"/>
<path d="M282 793.5H729C738.665 793.5 746.5 801.335 746.5 811V896C746.5 905.665 738.665 913.5 729 913.5H282C272.335 913.5 264.5 905.665 264.5 896V811C264.5 801.335 272.335 793.5 282 793.5Z" fill="#E6E6E6" stroke="#60195E" stroke-width="5"/>
<path d="M282 667.5H729C738.665 667.5 746.5 675.335 746.5 685V751.435C746.5 761.1 738.665 768.935 729 768.935H282C272.335 768.935 264.5 761.1 264.5 751.435V685C264.5 675.335 272.335 667.5 282 667.5Z" fill="#E6E6E6" stroke="#60195E" stroke-width="5"/>
<path d="M787 667.5H1087C1096.66 667.5 1104.5 675.335 1104.5 685V751.435C1104.5 761.1 1096.66 768.935 1087 768.935H787C777.335 768.935 769.5 761.1 769.5 751.435V685C769.5 675.335 777.335 667.5 787 667.5Z" fill="#E6E6E6" stroke="#60195E" stroke-width="5"/>
<path d="M787 793.5H1087C1096.66 793.5 1104.5 801.335 1104.5 811V896C1104.5 905.665 1096.66 913.5 1087 913.5H787C777.335 913.5 769.5 905.665 769.5 896V811C769.5 801.335 777.335 793.5 787 793.5Z" fill="#E6E6E6" stroke="#60195E" stroke-width="5"/>
<path d="M785 934.5H1085C1094.66 934.5 1102.5 942.335 1102.5 952V1007C1102.5 1016.67 1094.66 1024.5 1085 1024.5H785C775.335 1024.5 767.5 1016.67 767.5 1007V952C767.5 942.335 775.335 934.5 785 934.5Z" fill="#E6E6E6" stroke="#60195E" stroke-width="5"/>
<line x1="254" y1="658" x2="254" y2="1031" stroke="black" stroke-opacity="0.6" stroke-width="8" stroke-dasharray="16 3"/>
<line x1="757" y1="658" x2="757" y2="1031" stroke="black" stroke-opacity="0.6" stroke-width="8" stroke-dasharray="16 3"/>
<line x1="1105" y1="782.182" x2="-6" y2="782.182" stroke="black" stroke-opacity="0.6" stroke-width="8" stroke-dasharray="16 3"/>
<line x1="1114" y1="923.536" x2="3" y2="923.536" stroke="black" stroke-opacity="0.6" stroke-width="8" stroke-dasharray="16 3"/>
<path d="M23 1164.5H1094C1103.67 1164.5 1111.5 1172.34 1111.5 1182V1515C1111.5 1524.66 1103.67 1532.5 1094 1532.5H23C13.335 1532.5 5.5 1524.67 5.5 1515V1182C5.5 1172.34 13.335 1164.5 23 1164.5Z" fill="#C4C4C4" stroke="#C4C4C4" stroke-width="5"/>
<path d="M26 1168.86H221C230.665 1168.86 238.5 1176.69 238.5 1186.36V1214C238.5 1223.67 230.665 1231.5 221 1231.5H26C16.335 1231.5 8.5 1223.67 8.5 1214V1186.36C8.5 1176.69 16.335 1168.86 26 1168.86Z" fill="#E6E6E6" stroke="#60195E" stroke-width="5"/>
<path d="M26 1297.5H221C230.665 1297.5 238.5 1305.34 238.5 1315V1342.64C238.5 1352.31 230.665 1360.14 221 1360.14H26C16.335 1360.14 8.5 1352.31 8.5 1342.64V1315C8.5 1305.34 16.335 1297.5 26 1297.5Z" fill="#E6E6E6" stroke="#60195E" stroke-width="5"/>
<path d="M26 1438.5H221C230.665 1438.5 238.5 1446.34 238.5 1456V1483.64C238.5 1493.31 230.665 1501.14 221 1501.14H26C16.335 1501.14 8.5 1493.31 8.5 1483.64V1456C8.5 1446.34 16.335 1438.5 26 1438.5Z" fill="#E6E6E6" stroke="#60195E" stroke-width="5"/>
<path d="M282 1438.5H729C738.665 1438.5 746.5 1446.34 746.5 1456V1483.64C746.5 1493.31 738.665 1501.14 729 1501.14H282C272.335 1501.14 264.5 1493.31 264.5 1483.64V1456C264.5 1446.34 272.335 1438.5 282 1438.5Z" fill="#E6E6E6" stroke="#60195E" stroke-width="5"/>
<path d="M282 1297.5H729C738.665 1297.5 746.5 1305.34 746.5 1315V1342.64C746.5 1352.31 738.665 1360.14 729 1360.14H282C272.335 1360.14 264.5 1352.31 264.5 1342.64V1315C264.5 1305.34 272.335 1297.5 282 1297.5Z" fill="#E6E6E6" stroke="#60195E" stroke-width="5"/>
<path d="M282 1168.5H729C738.665 1168.5 746.5 1176.34 746.5 1186V1213.64C746.5 1223.31 738.665 1231.14 729 1231.14H282C272.335 1231.14 264.5 1223.31 264.5 1213.64V1186C264.5 1176.34 272.335 1168.5 282 1168.5Z" fill="#E6E6E6" stroke="#60195E" stroke-width="5"/>
<path d="M787 1168.5H1087C1096.66 1168.5 1104.5 1176.34 1104.5 1186V1213.64C1104.5 1223.31 1096.66 1231.14 1087 1231.14H787C777.335 1231.14 769.5 1223.31 769.5 1213.64V1186C769.5 1176.34 777.335 1168.5 787 1168.5Z" fill="#E6E6E6" stroke="#60195E" stroke-width="5"/>
<path d="M787 1297.5H1087C1096.66 1297.5 1104.5 1305.34 1104.5 1315V1342.64C1104.5 1352.31 1096.66 1360.14 1087 1360.14H787C777.335 1360.14 769.5 1352.31 769.5 1342.64V1315C769.5 1305.34 777.335 1297.5 787 1297.5Z" fill="#E6E6E6" stroke="#60195E" stroke-width="5"/>
<path d="M785 1438.5H1085C1094.66 1438.5 1102.5 1446.34 1102.5 1456V1483.64C1102.5 1493.31 1094.66 1501.14 1085 1501.14H785C775.335 1501.14 767.5 1493.31 767.5 1483.64V1456C767.5 1446.34 775.335 1438.5 785 1438.5Z" fill="#E6E6E6" stroke="#60195E" stroke-width="5"/>
<line x1="254" y1="1162" x2="254" y2="1535" stroke="black" stroke-opacity="0.6" stroke-width="8" stroke-dasharray="16 3"/>
<line x1="757" y1="1162" x2="757" y2="1535" stroke="black" stroke-opacity="0.6" stroke-width="8" stroke-dasharray="16 3"/>
<line x1="1105" y1="1286.18" x2="-6" y2="1286.18" stroke="black" stroke-opacity="0.6" stroke-width="8" stroke-dasharray="16 3"/>
<line x1="1114" y1="1427.54" x2="3" y2="1427.54" stroke="black" stroke-opacity="0.6" stroke-width="8" stroke-dasharray="16 3"/>
<path d="M1344 660.5H2415C2424.67 660.5 2432.5 668.335 2432.5 678V1011C2432.5 1020.66 2424.67 1028.5 2415 1028.5H1344C1334.34 1028.5 1326.5 1020.67 1326.5 1011V678C1326.5 668.335 1334.34 660.5 1344 660.5Z" fill="#C4C4C4" stroke="#C4C4C4" stroke-width="5"/>
<path d="M1347 709.859H1542C1551.66 709.859 1559.5 717.694 1559.5 727.359V755C1559.5 764.665 1551.66 772.5 1542 772.5H1347C1337.34 772.5 1329.5 764.665 1329.5 755V727.359C1329.5 717.694 1337.34 709.859 1347 709.859Z" fill="#E6E6E6" stroke="#60195E" stroke-width="5"/>
<path d="M1347 849.5H1542C1551.66 849.5 1559.5 857.335 1559.5 867V894.641C1559.5 904.306 1551.66 912.141 1542 912.141H1347C1337.34 912.141 1329.5 904.306 1329.5 894.641V867C1329.5 857.335 1337.34 849.5 1347 849.5Z" fill="#E6E6E6" stroke="#60195E" stroke-width="5"/>
<path d="M1347 959.5H1542C1551.66 959.5 1559.5 967.335 1559.5 977V1004.64C1559.5 1014.31 1551.66 1022.14 1542 1022.14H1347C1337.34 1022.14 1329.5 1014.31 1329.5 1004.64V977C1329.5 967.335 1337.34 959.5 1347 959.5Z" fill="#E6E6E6" stroke="#60195E" stroke-width="5"/>
<path d="M1603 959.5H2050C2059.66 959.5 2067.5 967.335 2067.5 977V1004.64C2067.5 1014.31 2059.66 1022.14 2050 1022.14H1603C1593.34 1022.14 1585.5 1014.31 1585.5 1004.64V977C1585.5 967.335 1593.34 959.5 1603 959.5Z" fill="#E6E6E6" stroke="#60195E" stroke-width="5"/>
<path d="M1603 849.5H2050C2059.66 849.5 2067.5 857.335 2067.5 867V894.641C2067.5 904.306 2059.66 912.141 2050 912.141H1603C1593.34 912.141 1585.5 904.306 1585.5 894.641V867C1585.5 857.335 1593.34 849.5 1603 849.5Z" fill="#E6E6E6" stroke="#60195E" stroke-width="5"/>
<path d="M1603 709.5H2050C2059.66 709.5 2067.5 717.335 2067.5 727V754.641C2067.5 764.306 2059.66 772.141 2050 772.141H1603C1593.34 772.141 1585.5 764.306 1585.5 754.641V727C1585.5 717.335 1593.34 709.5 1603 709.5Z" fill="#E6E6E6" stroke="#60195E" stroke-width="5"/>
<path d="M2108 709.5H2408C2417.66 709.5 2425.5 717.335 2425.5 727V754.641C2425.5 764.306 2417.66 772.141 2408 772.141H2108C2098.34 772.141 2090.5 764.306 2090.5 754.641V727C2090.5 717.335 2098.34 709.5 2108 709.5Z" fill="#E6E6E6" stroke="#60195E" stroke-width="5"/>
<path d="M2108 849.5H2408C2417.66 849.5 2425.5 857.335 2425.5 867V894.641C2425.5 904.306 2417.66 912.141 2408 912.141H2108C2098.34 912.141 2090.5 904.306 2090.5 894.641V867C2090.5 857.335 2098.34 849.5 2108 849.5Z" fill="#E6E6E6" stroke="#60195E" stroke-width="5"/>
<path d="M2106 959.5H2406C2415.66 959.5 2423.5 967.335 2423.5 977V1004.64C2423.5 1014.31 2415.66 1022.14 2406 1022.14H2106C2096.34 1022.14 2088.5 1014.31 2088.5 1004.64V977C2088.5 967.335 2096.34 959.5 2106 959.5Z" fill="#E6E6E6" stroke="#60195E" stroke-width="5"/>
<line x1="1575" y1="658" x2="1575" y2="1031" stroke="black" stroke-opacity="0.6" stroke-width="8" stroke-dasharray="16 3"/>
<line x1="2078" y1="658" x2="2078" y2="1031" stroke="black" stroke-opacity="0.6" stroke-width="8" stroke-dasharray="16 3"/>
<line x1="2426" y1="782.182" x2="1315" y2="782.182" stroke="black" stroke-opacity="0.6" stroke-width="8" stroke-dasharray="16 3"/>
<line x1="2435" y1="923.536" x2="1324" y2="923.536" stroke="black" stroke-opacity="0.6" stroke-width="8" stroke-dasharray="16 3"/>
<path d="M1335 1156.5H2406C2415.67 1156.5 2423.5 1164.34 2423.5 1174V1507C2423.5 1516.66 2415.67 1524.5 2406 1524.5H1335C1325.34 1524.5 1317.5 1516.67 1317.5 1507V1174C1317.5 1164.34 1325.34 1156.5 1335 1156.5Z" fill="#C4C4C4" stroke="#C4C4C4" stroke-width="5"/>
<path d="M1340 1181.86H1535C1544.66 1181.86 1552.5 1189.69 1552.5 1199.36V1227C1552.5 1236.67 1544.66 1244.5 1535 1244.5H1340C1330.34 1244.5 1322.5 1236.67 1322.5 1227V1199.36C1322.5 1189.69 1330.34 1181.86 1340 1181.86Z" fill="#E6E6E6" stroke="#60195E" stroke-width="5"/>
<path d="M1340 1317.5H1535C1544.66 1317.5 1552.5 1325.34 1552.5 1335V1362.64C1552.5 1372.31 1544.66 1380.14 1535 1380.14H1340C1330.34 1380.14 1322.5 1372.31 1322.5 1362.64V1335C1322.5 1325.34 1330.34 1317.5 1340 1317.5Z" fill="#E6E6E6" stroke="#60195E" stroke-width="5"/>
<path d="M1338 1444.5H1533C1542.66 1444.5 1550.5 1452.34 1550.5 1462V1489.64C1550.5 1499.31 1542.66 1507.14 1533 1507.14H1338C1328.34 1507.14 1320.5 1499.31 1320.5 1489.64V1462C1320.5 1452.34 1328.34 1444.5 1338 1444.5Z" fill="#E6E6E6" stroke="#60195E" stroke-width="5"/>
<path d="M1594 1444.5H2041C2050.66 1444.5 2058.5 1452.34 2058.5 1462V1489.64C2058.5 1499.31 2050.66 1507.14 2041 1507.14H1594C1584.34 1507.14 1576.5 1499.31 1576.5 1489.64V1462C1576.5 1452.34 1584.34 1444.5 1594 1444.5Z" fill="#E6E6E6" stroke="#60195E" stroke-width="5"/>
<path d="M1596 1317.5H2043C2052.66 1317.5 2060.5 1325.34 2060.5 1335V1362.64C2060.5 1372.31 2052.66 1380.14 2043 1380.14H1596C1586.34 1380.14 1578.5 1372.31 1578.5 1362.64V1335C1578.5 1325.34 1586.34 1317.5 1596 1317.5Z" fill="#E6E6E6" stroke="#60195E" stroke-width="5"/>
<path d="M1596 1181.5H2043C2052.66 1181.5 2060.5 1189.34 2060.5 1199V1226.64C2060.5 1236.31 2052.66 1244.14 2043 1244.14H1596C1586.34 1244.14 1578.5 1236.31 1578.5 1226.64V1199C1578.5 1189.34 1586.34 1181.5 1596 1181.5Z" fill="#E6E6E6" stroke="#60195E" stroke-width="5"/>
<path d="M2101 1181.5H2401C2410.66 1181.5 2418.5 1189.34 2418.5 1199V1226.64C2418.5 1236.31 2410.66 1244.14 2401 1244.14H2101C2091.34 1244.14 2083.5 1236.31 2083.5 1226.64V1199C2083.5 1189.34 2091.34 1181.5 2101 1181.5Z" fill="#E6E6E6" stroke="#60195E" stroke-width="5"/>
<path d="M2101 1317.5H2401C2410.66 1317.5 2418.5 1325.34 2418.5 1335V1362.64C2418.5 1372.31 2410.66 1380.14 2401 1380.14H2101C2091.34 1380.14 2083.5 1372.31 2083.5 1362.64V1335C2083.5 1325.34 2091.34 1317.5 2101 1317.5Z" fill="#E6E6E6" stroke="#60195E" stroke-width="5"/>
<path d="M2097 1444.5H2397C2406.66 1444.5 2414.5 1452.34 2414.5 1462V1489.64C2414.5 1499.31 2406.66 1507.14 2397 1507.14H2097C2087.34 1507.14 2079.5 1499.31 2079.5 1489.64V1462C2079.5 1452.34 2087.34 1444.5 2097 1444.5Z" fill="#E6E6E6" stroke="#60195E" stroke-width="5"/>
<line x1="1566" y1="1154" x2="1566" y2="1527" stroke="black" stroke-opacity="0.6" stroke-width="8" stroke-dasharray="16 3"/>
<line x1="2069" y1="1154" x2="2069" y2="1527" stroke="black" stroke-opacity="0.6" stroke-width="8" stroke-dasharray="16 3"/>
<line x1="2417" y1="1278.18" x2="1306" y2="1278.18" stroke="black" stroke-opacity="0.6" stroke-width="8" stroke-dasharray="16 3"/>
<line x1="2426" y1="1419.54" x2="1315" y2="1419.54" stroke="black" stroke-opacity="0.6" stroke-width="8" stroke-dasharray="16 3"/>
</g>
<defs>
<clipPath id="clip0_89_2">
<rect width="2435" height="1630" fill="white"/>
</clipPath>
</defs>
</svg>
