<svg width="2432" height="1085" viewBox="0 0 2432 1085" fill="none" xmlns="http://www.w3.org/2000/svg">
<g clip-path="url(#clip0_96_491)">
<path d="M4.704 174.422C4.704 170.633 5.292 167.105 6.468 163.838C7.644 160.506 9.31 157.631 11.466 155.214C13.6873 152.797 16.366 150.902 19.502 149.53C22.638 148.158 26.166 147.472 30.086 147.472C34.9207 147.472 39.494 148.354 43.806 150.118L41.258 159.82C39.886 159.232 38.318 158.742 36.554 158.35C34.8553 157.958 33.026 157.762 31.066 157.762C26.4273 157.762 22.8993 159.232 20.482 162.172C18.0647 165.047 16.856 169.13 16.856 174.422C16.856 179.518 17.9993 183.569 20.286 186.574C22.5727 189.514 26.4273 190.984 31.85 190.984C33.8753 190.984 35.868 190.788 37.828 190.396C39.788 190.004 41.4867 189.514 42.924 188.926L44.59 198.726C43.2833 199.379 41.2907 199.967 38.612 200.49C35.9987 201.013 33.2873 201.274 30.478 201.274C26.1007 201.274 22.2787 200.621 19.012 199.314C15.8107 197.942 13.132 196.08 10.976 193.728C8.88533 191.311 7.31733 188.469 6.272 185.202C5.22667 181.87 4.704 178.277 4.704 174.422ZM99.0719 174.324C99.0719 178.375 98.4839 182.066 97.3079 185.398C96.1319 188.73 94.4659 191.572 92.3099 193.924C90.1539 196.276 87.5405 198.105 84.4699 199.412C81.4645 200.719 78.1325 201.372 74.4739 201.372C70.8152 201.372 67.4832 200.719 64.4779 199.412C61.4725 198.105 58.8919 196.276 56.7359 193.924C54.5799 191.572 52.8812 188.73 51.6399 185.398C50.4639 182.066 49.8759 178.375 49.8759 174.324C49.8759 170.273 50.4639 166.615 51.6399 163.348C52.8812 160.016 54.5799 157.174 56.7359 154.822C58.9572 152.47 61.5705 150.673 64.5759 149.432C67.5812 148.125 70.8805 147.472 74.4739 147.472C78.0672 147.472 81.3665 148.125 84.3719 149.432C87.4425 150.673 90.0559 152.47 92.2119 154.822C94.3679 157.174 96.0339 160.016 97.2099 163.348C98.4512 166.615 99.0719 170.273 99.0719 174.324ZM86.9199 174.324C86.9199 169.228 85.8092 165.21 83.5879 162.27C81.4319 159.265 78.3939 157.762 74.4739 157.762C70.5539 157.762 67.4832 159.265 65.2619 162.27C63.1059 165.21 62.0279 169.228 62.0279 174.324C62.0279 179.485 63.1059 183.569 65.2619 186.574C67.4832 189.579 70.5539 191.082 74.4739 191.082C78.3939 191.082 81.4319 189.579 83.5879 186.574C85.8092 183.569 86.9199 179.485 86.9199 174.324ZM129.124 200.98C125.596 200.915 122.656 200.523 120.304 199.804C118.018 199.085 116.188 198.073 114.816 196.766C113.444 195.394 112.464 193.728 111.876 191.768C111.354 189.743 111.092 187.456 111.092 184.908V125.912L122.95 123.952V182.654C122.95 184.091 123.048 185.3 123.244 186.28C123.506 187.26 123.93 188.109 124.518 188.828C125.106 189.481 125.89 190.004 126.87 190.396C127.916 190.723 129.222 190.984 130.79 191.18L129.124 200.98ZM182.424 198.432C180.137 199.02 177.165 199.608 173.506 200.196C169.847 200.849 165.829 201.176 161.452 201.176C157.336 201.176 153.873 200.588 151.064 199.412C148.32 198.236 146.099 196.603 144.4 194.512C142.767 192.421 141.591 189.939 140.872 187.064C140.153 184.124 139.794 180.923 139.794 177.46V148.746H151.652V175.598C151.652 181.086 152.436 185.006 154.004 187.358C155.637 189.71 158.447 190.886 162.432 190.886C163.869 190.886 165.372 190.821 166.94 190.69C168.573 190.559 169.782 190.396 170.566 190.2V148.746H182.424V198.432ZM226.721 173.05C226.721 167.693 226.035 163.838 224.663 161.486C223.356 159.069 220.873 157.86 217.215 157.86C215.908 157.86 214.471 157.958 212.903 158.154C211.335 158.35 210.159 158.513 209.375 158.644V200H197.517V150.412C199.803 149.759 202.776 149.138 206.435 148.55C210.159 147.962 214.079 147.668 218.195 147.668C221.723 147.668 224.597 148.125 226.819 149.04C229.105 149.955 231 151.163 232.503 152.666C233.221 152.143 234.136 151.588 235.247 151C236.357 150.412 237.599 149.889 238.971 149.432C240.343 148.909 241.78 148.485 243.283 148.158C244.851 147.831 246.419 147.668 247.987 147.668C251.972 147.668 255.239 148.256 257.787 149.432C260.4 150.543 262.425 152.143 263.863 154.234C265.365 156.259 266.378 158.742 266.901 161.682C267.489 164.557 267.783 167.725 267.783 171.188V200H255.925V173.05C255.925 167.693 255.271 163.838 253.965 161.486C252.658 159.069 250.143 157.86 246.419 157.86C244.524 157.86 242.727 158.187 241.029 158.84C239.33 159.428 238.056 160.016 237.207 160.604C237.729 162.237 238.089 163.969 238.285 165.798C238.481 167.627 238.579 169.587 238.579 171.678V200H226.721V173.05ZM282.31 150.412C284.596 149.759 287.569 149.138 291.228 148.55C294.886 147.962 298.937 147.668 303.38 147.668C307.561 147.668 311.056 148.256 313.866 149.432C316.675 150.543 318.896 152.143 320.53 154.234C322.228 156.259 323.404 158.742 324.058 161.682C324.776 164.557 325.136 167.725 325.136 171.188V200H313.278V173.05C313.278 170.306 313.082 167.987 312.69 166.092C312.363 164.132 311.775 162.564 310.926 161.388C310.142 160.147 309.031 159.265 307.594 158.742C306.222 158.154 304.523 157.86 302.498 157.86C300.995 157.86 299.427 157.958 297.794 158.154C296.16 158.35 294.952 158.513 294.168 158.644V200H282.31V150.412ZM352.474 191.474C355.61 191.474 357.897 191.115 359.334 190.396C360.771 189.612 361.49 188.305 361.49 186.476C361.49 184.777 360.706 183.373 359.138 182.262C357.635 181.151 355.12 179.943 351.592 178.636C349.436 177.852 347.443 177.035 345.614 176.186C343.85 175.271 342.315 174.226 341.008 173.05C339.701 171.874 338.656 170.469 337.872 168.836C337.153 167.137 336.794 165.079 336.794 162.662C336.794 157.958 338.525 154.267 341.988 151.588C345.451 148.844 350.155 147.472 356.1 147.472C359.105 147.472 361.98 147.766 364.724 148.354C367.468 148.877 369.526 149.399 370.898 149.922L368.742 159.526C367.435 158.938 365.769 158.415 363.744 157.958C361.719 157.435 359.367 157.174 356.688 157.174C354.271 157.174 352.311 157.599 350.808 158.448C349.305 159.232 348.554 160.473 348.554 162.172C348.554 163.021 348.685 163.773 348.946 164.426C349.273 165.079 349.795 165.7 350.514 166.288C351.233 166.811 352.18 167.366 353.356 167.954C354.532 168.477 355.969 169.032 357.668 169.62C360.477 170.665 362.862 171.711 364.822 172.756C366.782 173.736 368.383 174.879 369.624 176.186C370.931 177.427 371.878 178.865 372.466 180.498C373.054 182.131 373.348 184.091 373.348 186.378C373.348 191.278 371.519 195.002 367.86 197.55C364.267 200.033 359.105 201.274 352.376 201.274C347.868 201.274 344.242 200.882 341.498 200.098C338.754 199.379 336.827 198.791 335.716 198.334L337.774 188.436C339.538 189.155 341.629 189.841 344.046 190.494C346.529 191.147 349.338 191.474 352.474 191.474Z" fill="#60195E"/>
<path d="M1.544 269.696L9.288 268.416V278.528H21.192V284.992H9.288V298.624C9.288 301.312 9.71467 303.232 10.568 304.384C11.4213 305.536 12.872 306.112 14.92 306.112C16.328 306.112 17.5653 305.963 18.632 305.664C19.7413 305.365 20.616 305.088 21.256 304.832L22.536 310.976C21.64 311.36 20.4667 311.744 19.016 312.128C17.5653 312.555 15.8587 312.768 13.896 312.768C11.5067 312.768 9.50133 312.448 7.88 311.808C6.30133 311.168 5.04267 310.251 4.104 309.056C3.16533 307.819 2.504 306.347 2.12 304.64C1.736 302.891 1.544 300.907 1.544 298.688V269.696ZM56.006 278.528C52.55 291.243 48.5393 302.763 43.974 313.088C43.1207 315.008 42.246 316.651 41.35 318.016C40.454 319.381 39.4513 320.512 38.342 321.408C37.2327 322.304 35.9953 322.944 34.63 323.328C33.2647 323.755 31.686 323.968 29.894 323.968C28.6993 323.968 27.5047 323.84 26.31 323.584C25.158 323.328 24.2833 323.051 23.686 322.752L25.094 316.544C26.63 317.141 28.1447 317.44 29.638 317.44C31.6433 317.44 33.2007 316.949 34.31 315.968C35.462 315.029 36.4647 313.557 37.318 311.552C34.886 306.859 32.5393 301.739 30.278 296.192C28.0593 290.645 26.0753 284.757 24.326 278.528H32.582C33.0087 280.32 33.5207 282.261 34.118 284.352C34.758 286.443 35.4407 288.576 36.166 290.752C36.8913 292.885 37.6593 295.019 38.47 297.152C39.2807 299.285 40.0913 301.269 40.902 303.104C42.2673 299.307 43.5473 295.275 44.742 291.008C45.9367 286.699 47.0247 282.539 48.006 278.528H56.006ZM84.0735 295.424C84.0735 291.968 83.2842 289.28 81.7055 287.36C80.1695 285.44 77.6735 284.48 74.2175 284.48C73.4922 284.48 72.7242 284.523 71.9135 284.608C71.1455 284.651 70.3775 284.779 69.6095 284.992V304.128C70.2922 304.597 71.1882 305.045 72.2975 305.472C73.4495 305.856 74.6655 306.048 75.9455 306.048C78.7615 306.048 80.8095 305.088 82.0895 303.168C83.4122 301.248 84.0735 298.667 84.0735 295.424ZM92.0095 295.296C92.0095 297.856 91.6682 300.203 90.9855 302.336C90.3455 304.469 89.4068 306.304 88.1695 307.84C86.9322 309.376 85.3748 310.571 83.4975 311.424C81.6628 312.277 79.5722 312.704 77.2255 312.704C75.6468 312.704 74.1962 312.512 72.8735 312.128C71.5508 311.744 70.4628 311.317 69.6095 310.848V323.84H61.8655V279.616C63.4442 279.189 65.3855 278.784 67.6895 278.4C69.9935 278.016 72.4255 277.824 74.9855 277.824C77.6308 277.824 79.9988 278.229 82.0895 279.04C84.1802 279.851 85.9508 281.024 87.4015 282.56C88.8948 284.053 90.0255 285.888 90.7935 288.064C91.6042 290.197 92.0095 292.608 92.0095 295.296ZM98.1345 295.424C98.1345 292.48 98.5612 289.899 99.4145 287.68C100.311 285.461 101.484 283.627 102.935 282.176C104.385 280.683 106.049 279.573 107.927 278.848C109.804 278.08 111.724 277.696 113.687 277.696C118.295 277.696 121.879 279.125 124.439 281.984C127.041 284.843 128.343 289.109 128.343 294.784C128.343 295.211 128.321 295.701 128.279 296.256C128.279 296.768 128.257 297.237 128.215 297.664H106.135C106.348 300.352 107.287 302.443 108.951 303.936C110.657 305.387 113.111 306.112 116.311 306.112C118.188 306.112 119.895 305.941 121.431 305.6C123.009 305.259 124.247 304.896 125.143 304.512L126.167 310.848C125.74 311.061 125.143 311.296 124.375 311.552C123.649 311.765 122.796 311.957 121.815 312.128C120.876 312.341 119.852 312.512 118.743 312.64C117.633 312.768 116.503 312.832 115.351 312.832C112.407 312.832 109.847 312.405 107.671 311.552C105.495 310.656 103.703 309.44 102.295 307.904C100.887 306.325 99.8412 304.491 99.1585 302.4C98.4758 300.267 98.1345 297.941 98.1345 295.424ZM120.599 291.968C120.599 290.901 120.449 289.899 120.151 288.96C119.852 287.979 119.404 287.147 118.807 286.464C118.252 285.739 117.548 285.184 116.695 284.8C115.884 284.373 114.903 284.16 113.751 284.16C112.556 284.16 111.511 284.395 110.615 284.864C109.719 285.291 108.951 285.867 108.311 286.592C107.713 287.317 107.244 288.149 106.903 289.088C106.561 290.027 106.327 290.987 106.199 291.968H120.599ZM145.257 283.84C145.257 285.333 144.745 286.549 143.721 287.488C142.74 288.427 141.545 288.896 140.137 288.896C138.686 288.896 137.47 288.427 136.489 287.488C135.508 286.549 135.017 285.333 135.017 283.84C135.017 282.347 135.508 281.131 136.489 280.192C137.47 279.211 138.686 278.72 140.137 278.72C141.545 278.72 142.74 279.211 143.721 280.192C144.745 281.131 145.257 282.347 145.257 283.84ZM145.257 307.776C145.257 309.269 144.745 310.485 143.721 311.424C142.74 312.363 141.545 312.832 140.137 312.832C138.686 312.832 137.47 312.363 136.489 311.424C135.508 310.485 135.017 309.269 135.017 307.776C135.017 306.283 135.508 305.067 136.489 304.128C137.47 303.147 138.686 302.656 140.137 302.656C141.545 302.656 142.74 303.147 143.721 304.128C144.745 305.067 145.257 306.283 145.257 307.776ZM182.251 262.336C183.872 262.336 185.237 262.464 186.347 262.72C187.499 262.976 188.395 263.232 189.035 263.488L187.819 269.76C187.221 269.547 186.496 269.355 185.643 269.184C184.832 269.013 183.936 268.928 182.955 268.928C180.395 268.928 178.624 269.611 177.643 270.976C176.704 272.341 176.235 274.112 176.235 276.288V278.528H188.523V284.992H176.235V312H168.491V276.16C168.491 271.808 169.621 268.416 171.883 265.984C174.144 263.552 177.6 262.336 182.251 262.336ZM206.123 312.64C203.819 312.597 201.899 312.341 200.363 311.872C198.869 311.403 197.675 310.741 196.779 309.888C195.883 308.992 195.243 307.904 194.859 306.624C194.517 305.301 194.347 303.808 194.347 302.144V263.616L202.091 262.336V300.672C202.091 301.611 202.155 302.4 202.283 303.04C202.453 303.68 202.731 304.235 203.115 304.704C203.499 305.131 204.011 305.472 204.651 305.728C205.333 305.941 206.187 306.112 207.211 306.24L206.123 312.64ZM211.635 295.424C211.635 292.48 212.061 289.899 212.915 287.68C213.811 285.461 214.984 283.627 216.435 282.176C217.885 280.683 219.549 279.573 221.427 278.848C223.304 278.08 225.224 277.696 227.187 277.696C231.795 277.696 235.379 279.125 237.939 281.984C240.541 284.843 241.843 289.109 241.843 294.784C241.843 295.211 241.821 295.701 241.779 296.256C241.779 296.768 241.757 297.237 241.715 297.664H219.635C219.848 300.352 220.787 302.443 222.451 303.936C224.157 305.387 226.611 306.112 229.811 306.112C231.688 306.112 233.395 305.941 234.931 305.6C236.509 305.259 237.747 304.896 238.643 304.512L239.667 310.848C239.24 311.061 238.643 311.296 237.875 311.552C237.149 311.765 236.296 311.957 235.315 312.128C234.376 312.341 233.352 312.512 232.243 312.64C231.133 312.768 230.003 312.832 228.851 312.832C225.907 312.832 223.347 312.405 221.171 311.552C218.995 310.656 217.203 309.44 215.795 307.904C214.387 306.325 213.341 304.491 212.659 302.4C211.976 300.267 211.635 297.941 211.635 295.424ZM234.099 291.968C234.099 290.901 233.949 289.899 233.651 288.96C233.352 287.979 232.904 287.147 232.307 286.464C231.752 285.739 231.048 285.184 230.195 284.8C229.384 284.373 228.403 284.16 227.251 284.16C226.056 284.16 225.011 284.395 224.115 284.864C223.219 285.291 222.451 285.867 221.811 286.592C221.213 287.317 220.744 288.149 220.403 289.088C220.061 290.027 219.827 290.987 219.699 291.968H234.099ZM262.085 289.472L269.189 278.528H277.317L266.309 294.336C268.613 297.323 270.81 300.352 272.901 303.424C275.034 306.453 276.784 309.312 278.149 312H269.765C269.381 311.189 268.869 310.272 268.229 309.248C267.632 308.181 266.97 307.093 266.245 305.984C265.562 304.832 264.837 303.701 264.069 302.592C263.301 301.483 262.554 300.437 261.829 299.456C260.336 301.376 258.864 303.509 257.413 305.856C256.005 308.16 254.832 310.208 253.893 312H245.957C246.597 310.72 247.365 309.355 248.261 307.904C249.157 306.453 250.117 304.981 251.141 303.488C252.165 301.952 253.21 300.437 254.277 298.944C255.386 297.408 256.474 295.957 257.541 294.592L246.469 278.528H254.981L262.085 289.472ZM300.146 323.84H292.209L313.842 261.888H321.65L300.146 323.84ZM346.508 294.4C346.508 297.685 347.212 300.096 348.62 301.632C350.071 303.125 351.927 303.872 354.188 303.872C355.425 303.872 356.577 303.701 357.644 303.36C358.753 303.019 359.649 302.613 360.332 302.144V284.8C359.777 284.672 359.095 284.565 358.284 284.48C357.473 284.352 356.449 284.288 355.212 284.288C352.396 284.288 350.241 285.227 348.748 287.104C347.255 288.939 346.508 291.371 346.508 294.4ZM368.076 308.608C368.076 313.941 366.711 317.845 363.98 320.32C361.292 322.795 357.153 324.032 351.564 324.032C349.516 324.032 347.511 323.861 345.548 323.52C343.628 323.179 341.879 322.731 340.3 322.176L341.708 315.584C343.031 316.139 344.524 316.587 346.188 316.928C347.895 317.269 349.729 317.44 351.692 317.44C354.807 317.44 357.025 316.8 358.348 315.52C359.671 314.24 360.332 312.341 360.332 309.824V308.544C359.564 308.928 358.54 309.312 357.26 309.696C356.023 310.08 354.593 310.272 352.972 310.272C350.839 310.272 348.876 309.931 347.084 309.248C345.335 308.565 343.82 307.563 342.54 306.24C341.303 304.917 340.321 303.275 339.596 301.312C338.913 299.307 338.572 297.003 338.572 294.4C338.572 291.968 338.935 289.728 339.66 287.68C340.428 285.632 341.516 283.883 342.924 282.432C344.375 280.981 346.124 279.851 348.172 279.04C350.22 278.229 352.545 277.824 355.148 277.824C357.665 277.824 360.055 278.016 362.316 278.4C364.577 278.784 366.497 279.189 368.076 279.616V308.608ZM397 285.504C396.36 285.291 395.464 285.077 394.312 284.864C393.203 284.608 391.901 284.48 390.408 284.48C389.555 284.48 388.637 284.565 387.656 284.736C386.717 284.907 386.056 285.056 385.672 285.184V312H377.928V280.128C379.421 279.573 381.277 279.061 383.496 278.592C385.757 278.08 388.253 277.824 390.984 277.824C391.496 277.824 392.093 277.867 392.776 277.952C393.459 277.995 394.141 278.08 394.824 278.208C395.507 278.293 396.168 278.421 396.808 278.592C397.448 278.72 397.96 278.848 398.344 278.976L397 285.504ZM411.549 312H403.805V278.528H411.549V312ZM412.381 268.736C412.381 270.187 411.911 271.339 410.973 272.192C410.034 273.045 408.925 273.472 407.645 273.472C406.322 273.472 405.191 273.045 404.253 272.192C403.314 271.339 402.845 270.187 402.845 268.736C402.845 267.243 403.314 266.069 404.253 265.216C405.191 264.363 406.322 263.936 407.645 263.936C408.925 263.936 410.034 264.363 410.973 265.216C411.911 266.069 412.381 267.243 412.381 268.736ZM427.508 295.168C427.508 298.581 428.319 301.269 429.94 303.232C431.561 305.152 433.801 306.112 436.66 306.112C437.897 306.112 438.943 306.069 439.796 305.984C440.692 305.856 441.417 305.728 441.972 305.6V286.4C441.289 285.931 440.372 285.504 439.22 285.12C438.111 284.693 436.916 284.48 435.636 284.48C432.82 284.48 430.751 285.44 429.428 287.36C428.148 289.28 427.508 291.883 427.508 295.168ZM449.716 310.976C448.18 311.445 446.239 311.872 443.892 312.256C441.588 312.64 439.156 312.832 436.596 312.832C433.951 312.832 431.583 312.427 429.492 311.616C427.401 310.805 425.609 309.653 424.116 308.16C422.665 306.624 421.535 304.789 420.724 302.656C419.956 300.48 419.572 298.048 419.572 295.36C419.572 292.715 419.892 290.325 420.532 288.192C421.215 286.016 422.196 284.16 423.476 282.624C424.756 281.088 426.313 279.915 428.148 279.104C429.983 278.251 432.095 277.824 434.484 277.824C436.105 277.824 437.535 278.016 438.772 278.4C440.009 278.784 441.076 279.211 441.972 279.68V263.616L449.716 262.336V310.976Z" fill="#60195E"/>
<path d="M3.072 369.424C3.072 366.48 3.49867 363.899 4.352 361.68C5.248 359.461 6.42133 357.627 7.872 356.176C9.32267 354.683 10.9867 353.573 12.864 352.848C14.7413 352.08 16.6613 351.696 18.624 351.696C23.232 351.696 26.816 353.125 29.376 355.984C31.9787 358.843 33.28 363.109 33.28 368.784C33.28 369.211 33.2587 369.701 33.216 370.256C33.216 370.768 33.1947 371.237 33.152 371.664H11.072C11.2853 374.352 12.224 376.443 13.888 377.936C15.5947 379.387 18.048 380.112 21.248 380.112C23.1253 380.112 24.832 379.941 26.368 379.6C27.9467 379.259 29.184 378.896 30.08 378.512L31.104 384.848C30.6773 385.061 30.08 385.296 29.312 385.552C28.5867 385.765 27.7333 385.957 26.752 386.128C25.8133 386.341 24.7893 386.512 23.68 386.64C22.5707 386.768 21.44 386.832 20.288 386.832C17.344 386.832 14.784 386.405 12.608 385.552C10.432 384.656 8.64 383.44 7.232 381.904C5.824 380.325 4.77867 378.491 4.096 376.4C3.41333 374.267 3.072 371.941 3.072 369.424ZM25.536 365.968C25.536 364.901 25.3867 363.899 25.088 362.96C24.7893 361.979 24.3413 361.147 23.744 360.464C23.1893 359.739 22.4853 359.184 21.632 358.8C20.8213 358.373 19.84 358.16 18.688 358.16C17.4933 358.16 16.448 358.395 15.552 358.864C14.656 359.291 13.888 359.867 13.248 360.592C12.6507 361.317 12.1813 362.149 11.84 363.088C11.4987 364.027 11.264 364.987 11.136 365.968H25.536ZM47.5705 369.424C47.5705 372.667 48.2105 375.248 49.4905 377.168C50.8132 379.088 52.8825 380.048 55.6985 380.048C56.9785 380.048 58.1732 379.856 59.2825 379.472C60.4345 379.045 61.3518 378.597 62.0345 378.128V358.992C61.4798 358.864 60.7758 358.757 59.9225 358.672C59.1118 358.544 58.0452 358.48 56.7225 358.48C53.8638 358.48 51.6238 359.461 50.0025 361.424C48.3812 363.344 47.5705 366.011 47.5705 369.424ZM39.6345 369.296C39.6345 366.651 40.0185 364.261 40.7865 362.128C41.5972 359.952 42.7278 358.117 44.1785 356.624C45.6718 355.088 47.4638 353.915 49.5545 353.104C51.6452 352.251 54.0132 351.824 56.6585 351.824C59.3038 351.824 61.7785 352.016 64.0825 352.4C66.3865 352.784 68.2852 353.189 69.7785 353.616V397.84H62.0345V384.848C61.1385 385.317 60.0292 385.744 58.7065 386.128C57.4265 386.512 55.9972 386.704 54.4185 386.704C52.0292 386.704 49.9172 386.299 48.0825 385.488C46.2478 384.635 44.7118 383.44 43.4745 381.904C42.2372 380.368 41.2772 378.533 40.5945 376.4C39.9545 374.267 39.6345 371.899 39.6345 369.296ZM107.072 384.976C105.578 385.36 103.637 385.744 101.248 386.128C98.8582 386.555 96.2342 386.768 93.3755 386.768C90.6875 386.768 88.4262 386.384 86.5915 385.616C84.7995 384.848 83.3488 383.781 82.2395 382.416C81.1728 381.051 80.4048 379.429 79.9355 377.552C79.4662 375.632 79.2315 373.541 79.2315 371.28V352.528H86.9755V370.064C86.9755 373.648 87.4875 376.208 88.5115 377.744C89.5782 379.28 91.4128 380.048 94.0155 380.048C94.9542 380.048 95.9355 380.005 96.9595 379.92C98.0262 379.835 98.8155 379.728 99.3275 379.6V352.528H107.072V384.976ZM124.736 386H116.992V352.528H124.736V386ZM125.568 342.736C125.568 344.187 125.099 345.339 124.16 346.192C123.221 347.045 122.112 347.472 120.832 347.472C119.509 347.472 118.379 347.045 117.44 346.192C116.501 345.339 116.032 344.187 116.032 342.736C116.032 341.243 116.501 340.069 117.44 339.216C118.379 338.363 119.509 337.936 120.832 337.936C122.112 337.936 123.221 338.363 124.16 339.216C125.099 340.069 125.568 341.243 125.568 342.736ZM143.192 386C141.058 381.605 138.861 376.571 136.6 370.896C134.381 365.179 132.354 359.056 130.52 352.528H138.776C139.245 354.405 139.778 356.432 140.376 358.608C141.016 360.741 141.677 362.896 142.36 365.072C143.085 367.205 143.81 369.296 144.536 371.344C145.304 373.349 146.008 375.163 146.648 376.784C147.288 375.163 147.97 373.349 148.696 371.344C149.421 369.296 150.125 367.205 150.808 365.072C151.533 362.896 152.216 360.741 152.856 358.608C153.496 356.432 154.05 354.405 154.52 352.528H162.52C160.685 359.056 158.637 365.179 156.376 370.896C154.157 376.571 151.981 381.605 149.848 386H143.192ZM180.079 380.56C182.468 380.56 184.282 380.432 185.519 380.176V371.6C185.092 371.472 184.474 371.344 183.663 371.216C182.852 371.088 181.956 371.024 180.975 371.024C180.122 371.024 179.247 371.088 178.351 371.216C177.498 371.344 176.708 371.579 175.983 371.92C175.3 372.261 174.746 372.752 174.319 373.392C173.892 373.989 173.679 374.757 173.679 375.696C173.679 377.531 174.255 378.811 175.407 379.536C176.559 380.219 178.116 380.56 180.079 380.56ZM179.439 351.696C181.999 351.696 184.154 352.016 185.903 352.656C187.652 353.296 189.039 354.192 190.063 355.344C191.13 356.496 191.876 357.904 192.303 359.568C192.772 361.189 193.007 362.981 193.007 364.944V385.232C191.812 385.488 189.999 385.787 187.567 386.128C185.178 386.512 182.468 386.704 179.439 386.704C177.434 386.704 175.599 386.512 173.935 386.128C172.271 385.744 170.842 385.125 169.647 384.272C168.495 383.419 167.578 382.309 166.895 380.944C166.255 379.579 165.935 377.893 165.935 375.888C165.935 373.968 166.298 372.347 167.023 371.024C167.791 369.701 168.815 368.635 170.095 367.824C171.375 366.971 172.847 366.373 174.511 366.032C176.218 365.648 177.988 365.456 179.823 365.456C180.676 365.456 181.572 365.52 182.511 365.648C183.45 365.733 184.452 365.904 185.519 366.16V364.88C185.519 363.984 185.412 363.131 185.199 362.32C184.986 361.509 184.602 360.805 184.047 360.208C183.535 359.568 182.831 359.077 181.935 358.736C181.082 358.395 179.994 358.224 178.671 358.224C176.879 358.224 175.236 358.352 173.743 358.608C172.25 358.864 171.034 359.163 170.095 359.504L169.135 353.232C170.116 352.891 171.546 352.549 173.423 352.208C175.3 351.867 177.306 351.696 179.439 351.696ZM214.139 386.64C211.835 386.597 209.915 386.341 208.379 385.872C206.885 385.403 205.691 384.741 204.795 383.888C203.899 382.992 203.259 381.904 202.875 380.624C202.533 379.301 202.363 377.808 202.363 376.144V337.616L210.107 336.336V374.672C210.107 375.611 210.171 376.4 210.299 377.04C210.469 377.68 210.747 378.235 211.131 378.704C211.515 379.131 212.027 379.472 212.667 379.728C213.349 379.941 214.203 380.112 215.227 380.24L214.139 386.64ZM219.635 369.424C219.635 366.48 220.061 363.899 220.915 361.68C221.811 359.461 222.984 357.627 224.435 356.176C225.885 354.683 227.549 353.573 229.427 352.848C231.304 352.08 233.224 351.696 235.187 351.696C239.795 351.696 243.379 353.125 245.939 355.984C248.541 358.843 249.843 363.109 249.843 368.784C249.843 369.211 249.821 369.701 249.779 370.256C249.779 370.768 249.757 371.237 249.715 371.664H227.635C227.848 374.352 228.787 376.443 230.451 377.936C232.157 379.387 234.611 380.112 237.811 380.112C239.688 380.112 241.395 379.941 242.931 379.6C244.509 379.259 245.747 378.896 246.643 378.512L247.667 384.848C247.24 385.061 246.643 385.296 245.875 385.552C245.149 385.765 244.296 385.957 243.315 386.128C242.376 386.341 241.352 386.512 240.243 386.64C239.133 386.768 238.003 386.832 236.851 386.832C233.907 386.832 231.347 386.405 229.171 385.552C226.995 384.656 225.203 383.44 223.795 381.904C222.387 380.325 221.341 378.491 220.659 376.4C219.976 374.267 219.635 371.941 219.635 369.424ZM242.099 365.968C242.099 364.901 241.949 363.899 241.651 362.96C241.352 361.979 240.904 361.147 240.307 360.464C239.752 359.739 239.048 359.184 238.195 358.8C237.384 358.373 236.403 358.16 235.251 358.16C234.056 358.16 233.011 358.395 232.115 358.864C231.219 359.291 230.451 359.867 229.811 360.592C229.213 361.317 228.744 362.149 228.403 363.088C228.061 364.027 227.827 364.987 227.699 365.968H242.099ZM258.053 353.616C259.546 353.189 261.488 352.784 263.877 352.4C266.266 352.016 268.912 351.824 271.813 351.824C274.544 351.824 276.826 352.208 278.661 352.976C280.496 353.701 281.946 354.747 283.013 356.112C284.122 357.435 284.89 359.056 285.317 360.976C285.786 362.853 286.021 364.923 286.021 367.184V386H278.277V368.4C278.277 366.608 278.149 365.093 277.893 363.856C277.68 362.576 277.296 361.552 276.741 360.784C276.229 359.973 275.504 359.397 274.565 359.056C273.669 358.672 272.56 358.48 271.237 358.48C270.256 358.48 269.232 358.544 268.165 358.672C267.098 358.8 266.309 358.907 265.797 358.992V386H258.053V353.616ZM295.107 343.696L302.851 342.416V352.528H314.755V358.992H302.851V372.624C302.851 375.312 303.277 377.232 304.131 378.384C304.984 379.536 306.435 380.112 308.483 380.112C309.891 380.112 311.128 379.963 312.195 379.664C313.304 379.365 314.179 379.088 314.819 378.832L316.099 384.976C315.203 385.36 314.029 385.744 312.579 386.128C311.128 386.555 309.421 386.768 307.458 386.768C305.069 386.768 303.064 386.448 301.443 385.808C299.864 385.168 298.605 384.251 297.667 383.056C296.728 381.819 296.067 380.347 295.683 378.64C295.299 376.891 295.107 374.907 295.107 372.688V343.696ZM335.322 369.296C335.322 366.821 335.706 364.517 336.474 362.384C337.242 360.208 338.33 358.331 339.738 356.752C341.189 355.173 342.938 353.936 344.986 353.04C347.034 352.144 349.338 351.696 351.898 351.696C355.055 351.696 358.042 352.272 360.858 353.424L359.194 359.76C358.298 359.376 357.274 359.056 356.122 358.8C355.013 358.544 353.818 358.416 352.538 358.416C349.509 358.416 347.205 359.376 345.626 361.296C344.047 363.173 343.258 365.84 343.258 369.296C343.258 372.624 344.005 375.269 345.498 377.232C346.991 379.152 349.509 380.112 353.05 380.112C354.373 380.112 355.674 379.984 356.954 379.728C358.234 379.472 359.343 379.152 360.282 378.768L361.37 385.168C360.517 385.595 359.215 385.979 357.466 386.32C355.759 386.661 353.989 386.832 352.154 386.832C349.295 386.832 346.799 386.405 344.666 385.552C342.575 384.656 340.826 383.44 339.418 381.904C338.053 380.325 337.029 378.469 336.346 376.336C335.663 374.16 335.322 371.813 335.322 369.296ZM375.75 380.432C377.798 380.432 379.291 380.197 380.23 379.728C381.168 379.216 381.638 378.363 381.638 377.168C381.638 376.059 381.126 375.141 380.102 374.416C379.12 373.691 377.478 372.901 375.174 372.048C373.766 371.536 372.464 371.003 371.27 370.448C370.118 369.851 369.115 369.168 368.262 368.4C367.408 367.632 366.726 366.715 366.214 365.648C365.744 364.539 365.51 363.195 365.51 361.616C365.51 358.544 366.64 356.133 368.902 354.384C371.163 352.592 374.235 351.696 378.118 351.696C380.08 351.696 381.958 351.888 383.75 352.272C385.542 352.613 386.886 352.955 387.782 353.296L386.374 359.568C385.52 359.184 384.432 358.843 383.11 358.544C381.787 358.203 380.251 358.032 378.502 358.032C376.923 358.032 375.643 358.309 374.662 358.864C373.68 359.376 373.19 360.187 373.19 361.296C373.19 361.851 373.275 362.341 373.446 362.768C373.659 363.195 374 363.6 374.47 363.984C374.939 364.325 375.558 364.688 376.326 365.072C377.094 365.413 378.032 365.776 379.142 366.16C380.976 366.843 382.534 367.525 383.814 368.208C385.094 368.848 386.139 369.595 386.95 370.448C387.803 371.259 388.422 372.197 388.806 373.264C389.19 374.331 389.382 375.611 389.382 377.104C389.382 380.304 388.187 382.736 385.798 384.4C383.451 386.021 380.08 386.832 375.686 386.832C372.742 386.832 370.374 386.576 368.582 386.064C366.79 385.595 365.531 385.211 364.806 384.912L366.15 378.448C367.302 378.917 368.667 379.365 370.246 379.792C371.867 380.219 373.702 380.432 375.75 380.432ZM405 380.432C407.048 380.432 408.541 380.197 409.48 379.728C410.418 379.216 410.888 378.363 410.888 377.168C410.888 376.059 410.376 375.141 409.352 374.416C408.37 373.691 406.728 372.901 404.424 372.048C403.016 371.536 401.714 371.003 400.52 370.448C399.368 369.851 398.365 369.168 397.512 368.4C396.658 367.632 395.976 366.715 395.464 365.648C394.994 364.539 394.76 363.195 394.76 361.616C394.76 358.544 395.89 356.133 398.152 354.384C400.413 352.592 403.485 351.696 407.368 351.696C409.33 351.696 411.208 351.888 413 352.272C414.792 352.613 416.136 352.955 417.032 353.296L415.624 359.568C414.77 359.184 413.682 358.843 412.36 358.544C411.037 358.203 409.501 358.032 407.752 358.032C406.173 358.032 404.893 358.309 403.912 358.864C402.93 359.376 402.44 360.187 402.44 361.296C402.44 361.851 402.525 362.341 402.696 362.768C402.909 363.195 403.25 363.6 403.72 363.984C404.189 364.325 404.808 364.688 405.576 365.072C406.344 365.413 407.282 365.776 408.392 366.16C410.226 366.843 411.784 367.525 413.064 368.208C414.344 368.848 415.389 369.595 416.2 370.448C417.053 371.259 417.672 372.197 418.056 373.264C418.44 374.331 418.632 375.611 418.632 377.104C418.632 380.304 417.437 382.736 415.048 384.4C412.701 386.021 409.33 386.832 404.936 386.832C401.992 386.832 399.624 386.576 397.832 386.064C396.04 385.595 394.781 385.211 394.056 384.912L395.4 378.448C396.552 378.917 397.917 379.365 399.496 379.792C401.117 380.219 402.952 380.432 405 380.432ZM434.57 357.84C434.57 359.333 434.058 360.549 433.034 361.488C432.052 362.427 430.858 362.896 429.45 362.896C427.999 362.896 426.783 362.427 425.802 361.488C424.82 360.549 424.33 359.333 424.33 357.84C424.33 356.347 424.82 355.131 425.802 354.192C426.783 353.211 427.999 352.72 429.45 352.72C430.858 352.72 432.052 353.211 433.034 354.192C434.058 355.131 434.57 356.347 434.57 357.84ZM434.57 381.776C434.57 383.269 434.058 384.485 433.034 385.424C432.052 386.363 430.858 386.832 429.45 386.832C427.999 386.832 426.783 386.363 425.802 385.424C424.82 384.485 424.33 383.269 424.33 381.776C424.33 380.283 424.82 379.067 425.802 378.128C426.783 377.147 427.999 376.656 429.45 376.656C430.858 376.656 432.052 377.147 433.034 378.128C434.058 379.067 434.57 380.283 434.57 381.776ZM463.883 368.4C463.883 371.685 464.587 374.096 465.995 375.632C467.446 377.125 469.302 377.872 471.563 377.872C472.8 377.872 473.952 377.701 475.019 377.36C476.128 377.019 477.024 376.613 477.707 376.144V358.8C477.152 358.672 476.47 358.565 475.659 358.48C474.848 358.352 473.824 358.288 472.587 358.288C469.771 358.288 467.616 359.227 466.123 361.104C464.63 362.939 463.883 365.371 463.883 368.4ZM485.451 382.608C485.451 387.941 484.086 391.845 481.355 394.32C478.667 396.795 474.528 398.032 468.939 398.032C466.891 398.032 464.886 397.861 462.923 397.52C461.003 397.179 459.254 396.731 457.675 396.176L459.083 389.584C460.406 390.139 461.899 390.587 463.563 390.928C465.27 391.269 467.104 391.44 469.067 391.44C472.182 391.44 474.4 390.8 475.723 389.52C477.046 388.24 477.707 386.341 477.707 383.824V382.544C476.939 382.928 475.915 383.312 474.635 383.696C473.398 384.08 471.968 384.272 470.347 384.272C468.214 384.272 466.251 383.931 464.459 383.248C462.71 382.565 461.195 381.563 459.915 380.24C458.678 378.917 457.696 377.275 456.971 375.312C456.288 373.307 455.947 371.003 455.947 368.4C455.947 365.968 456.31 363.728 457.035 361.68C457.803 359.632 458.891 357.883 460.299 356.432C461.75 354.981 463.499 353.851 465.547 353.04C467.595 352.229 469.92 351.824 472.523 351.824C475.04 351.824 477.43 352.016 479.691 352.4C481.952 352.784 483.872 353.189 485.451 353.616V382.608ZM514.375 359.504C513.735 359.291 512.839 359.077 511.687 358.864C510.578 358.608 509.276 358.48 507.783 358.48C506.93 358.48 506.012 358.565 505.031 358.736C504.092 358.907 503.431 359.056 503.047 359.184V386H495.303V354.128C496.796 353.573 498.652 353.061 500.871 352.592C503.132 352.08 505.628 351.824 508.359 351.824C508.871 351.824 509.468 351.867 510.151 351.952C510.834 351.995 511.516 352.08 512.199 352.208C512.882 352.293 513.543 352.421 514.183 352.592C514.823 352.72 515.335 352.848 515.719 352.976L514.375 359.504ZM528.924 386H521.18V352.528H528.924V386ZM529.756 342.736C529.756 344.187 529.286 345.339 528.348 346.192C527.409 347.045 526.3 347.472 525.02 347.472C523.697 347.472 522.566 347.045 521.628 346.192C520.689 345.339 520.22 344.187 520.22 342.736C520.22 341.243 520.689 340.069 521.628 339.216C522.566 338.363 523.697 337.936 525.02 337.936C526.3 337.936 527.409 338.363 528.348 339.216C529.286 340.069 529.756 341.243 529.756 342.736ZM544.883 369.168C544.883 372.581 545.694 375.269 547.315 377.232C548.936 379.152 551.176 380.112 554.035 380.112C555.272 380.112 556.318 380.069 557.171 379.984C558.067 379.856 558.792 379.728 559.347 379.6V360.4C558.664 359.931 557.747 359.504 556.595 359.12C555.486 358.693 554.291 358.48 553.011 358.48C550.195 358.48 548.126 359.44 546.803 361.36C545.523 363.28 544.883 365.883 544.883 369.168ZM567.091 384.976C565.555 385.445 563.614 385.872 561.267 386.256C558.963 386.64 556.531 386.832 553.971 386.832C551.326 386.832 548.958 386.427 546.867 385.616C544.776 384.805 542.984 383.653 541.491 382.16C540.04 380.624 538.91 378.789 538.099 376.656C537.331 374.48 536.947 372.048 536.947 369.36C536.947 366.715 537.267 364.325 537.907 362.192C538.59 360.016 539.571 358.16 540.851 356.624C542.131 355.088 543.688 353.915 545.523 353.104C547.358 352.251 549.47 351.824 551.859 351.824C553.48 351.824 554.91 352.016 556.147 352.4C557.384 352.784 558.451 353.211 559.347 353.68V337.616L567.091 336.336V384.976ZM573.472 364.176H590.688V371.28H573.472V364.176ZM596.732 343.696L604.476 342.416V352.528H616.38V358.992H604.476V372.624C604.476 375.312 604.902 377.232 605.756 378.384C606.609 379.536 608.06 380.112 610.108 380.112C611.516 380.112 612.753 379.963 613.82 379.664C614.929 379.365 615.804 379.088 616.444 378.832L617.724 384.976C616.828 385.36 615.654 385.744 614.204 386.128C612.753 386.555 611.046 386.768 609.083 386.768C606.694 386.768 604.689 386.448 603.068 385.808C601.489 385.168 600.23 384.251 599.292 383.056C598.353 381.819 597.692 380.347 597.308 378.64C596.924 376.891 596.732 374.907 596.732 372.688V343.696ZM621.447 369.424C621.447 366.48 621.874 363.899 622.727 361.68C623.623 359.461 624.796 357.627 626.247 356.176C627.698 354.683 629.362 353.573 631.239 352.848C633.116 352.08 635.036 351.696 636.999 351.696C641.607 351.696 645.191 353.125 647.751 355.984C650.354 358.843 651.655 363.109 651.655 368.784C651.655 369.211 651.634 369.701 651.591 370.256C651.591 370.768 651.57 371.237 651.527 371.664H629.447C629.66 374.352 630.599 376.443 632.263 377.936C633.97 379.387 636.423 380.112 639.623 380.112C641.5 380.112 643.207 379.941 644.743 379.6C646.322 379.259 647.559 378.896 648.455 378.512L649.479 384.848C649.052 385.061 648.455 385.296 647.687 385.552C646.962 385.765 646.108 385.957 645.127 386.128C644.188 386.341 643.164 386.512 642.055 386.64C640.946 386.768 639.815 386.832 638.663 386.832C635.719 386.832 633.159 386.405 630.983 385.552C628.807 384.656 627.015 383.44 625.607 381.904C624.199 380.325 623.154 378.491 622.471 376.4C621.788 374.267 621.447 371.941 621.447 369.424ZM643.911 365.968C643.911 364.901 643.762 363.899 643.463 362.96C643.164 361.979 642.716 361.147 642.119 360.464C641.564 359.739 640.86 359.184 640.007 358.8C639.196 358.373 638.215 358.16 637.063 358.16C635.868 358.16 634.823 358.395 633.927 358.864C633.031 359.291 632.263 359.867 631.623 360.592C631.026 361.317 630.556 362.149 630.215 363.088C629.874 364.027 629.639 364.987 629.511 365.968H643.911ZM678.938 368.4C678.938 364.901 678.49 362.384 677.594 360.848C676.74 359.269 675.119 358.48 672.73 358.48C671.876 358.48 670.938 358.544 669.914 358.672C668.89 358.8 668.122 358.907 667.61 358.992V386H659.866V353.616C661.359 353.189 663.3 352.784 665.69 352.4C668.122 352.016 670.682 351.824 673.37 351.824C675.674 351.824 677.551 352.123 679.002 352.72C680.495 353.317 681.732 354.107 682.714 355.088C683.183 354.747 683.78 354.384 684.506 354C685.231 353.616 686.042 353.275 686.938 352.976C687.834 352.635 688.772 352.357 689.754 352.144C690.778 351.931 691.802 351.824 692.826 351.824C695.428 351.824 697.562 352.208 699.226 352.976C700.932 353.701 702.255 354.747 703.194 356.112C704.175 357.435 704.836 359.056 705.178 360.976C705.562 362.853 705.754 364.923 705.754 367.184V386H698.01V368.4C698.01 364.901 697.583 362.384 696.73 360.848C695.876 359.269 694.234 358.48 691.802 358.48C690.564 358.48 689.391 358.693 688.282 359.12C687.172 359.504 686.34 359.888 685.786 360.272C686.127 361.339 686.362 362.469 686.49 363.664C686.618 364.859 686.682 366.139 686.682 367.504V386H678.938V368.4ZM737.449 369.424C737.449 365.968 736.659 363.28 735.081 361.36C733.545 359.44 731.049 358.48 727.593 358.48C726.867 358.48 726.099 358.523 725.289 358.608C724.521 358.651 723.753 358.779 722.985 358.992V378.128C723.667 378.597 724.563 379.045 725.673 379.472C726.825 379.856 728.041 380.048 729.321 380.048C732.137 380.048 734.185 379.088 735.465 377.168C736.787 375.248 737.449 372.667 737.449 369.424ZM745.385 369.296C745.385 371.856 745.043 374.203 744.361 376.336C743.721 378.469 742.782 380.304 741.545 381.84C740.307 383.376 738.75 384.571 736.873 385.424C735.038 386.277 732.947 386.704 730.601 386.704C729.022 386.704 727.571 386.512 726.249 386.128C724.926 385.744 723.838 385.317 722.985 384.848V397.84H715.241V353.616C716.819 353.189 718.761 352.784 721.065 352.4C723.369 352.016 725.801 351.824 728.361 351.824C731.006 351.824 733.374 352.229 735.465 353.04C737.555 353.851 739.326 355.024 740.777 356.56C742.27 358.053 743.401 359.888 744.169 362.064C744.979 364.197 745.385 366.608 745.385 369.296ZM765.014 386.64C762.71 386.597 760.79 386.341 759.254 385.872C757.76 385.403 756.566 384.741 755.67 383.888C754.774 382.992 754.134 381.904 753.75 380.624C753.408 379.301 753.238 377.808 753.238 376.144V337.616L760.982 336.336V374.672C760.982 375.611 761.046 376.4 761.174 377.04C761.344 377.68 761.622 378.235 762.006 378.704C762.39 379.131 762.902 379.472 763.542 379.728C764.224 379.941 765.078 380.112 766.102 380.24L765.014 386.64ZM784.142 380.56C786.531 380.56 788.344 380.432 789.582 380.176V371.6C789.155 371.472 788.536 371.344 787.726 371.216C786.915 371.088 786.019 371.024 785.038 371.024C784.184 371.024 783.31 371.088 782.414 371.216C781.56 371.344 780.771 371.579 780.046 371.92C779.363 372.261 778.808 372.752 778.382 373.392C777.955 373.989 777.742 374.757 777.742 375.696C777.742 377.531 778.318 378.811 779.47 379.536C780.622 380.219 782.179 380.56 784.142 380.56ZM783.502 351.696C786.062 351.696 788.216 352.016 789.966 352.656C791.715 353.296 793.102 354.192 794.126 355.344C795.192 356.496 795.939 357.904 796.366 359.568C796.835 361.189 797.07 362.981 797.07 364.944V385.232C795.875 385.488 794.062 385.787 791.63 386.128C789.24 386.512 786.531 386.704 783.502 386.704C781.496 386.704 779.662 386.512 777.998 386.128C776.334 385.744 774.904 385.125 773.71 384.272C772.558 383.419 771.64 382.309 770.958 380.944C770.318 379.579 769.998 377.893 769.998 375.888C769.998 373.968 770.36 372.347 771.086 371.024C771.854 369.701 772.878 368.635 774.158 367.824C775.438 366.971 776.91 366.373 778.574 366.032C780.28 365.648 782.051 365.456 783.885 365.456C784.739 365.456 785.635 365.52 786.574 365.648C787.512 365.733 788.515 365.904 789.582 366.16V364.88C789.582 363.984 789.475 363.131 789.262 362.32C789.048 361.509 788.664 360.805 788.11 360.208C787.598 359.568 786.894 359.077 785.998 358.736C785.144 358.395 784.056 358.224 782.734 358.224C780.942 358.224 779.299 358.352 777.806 358.608C776.312 358.864 775.096 359.163 774.158 359.504L773.198 353.232C774.179 352.891 775.608 352.549 777.486 352.208C779.363 351.867 781.368 351.696 783.502 351.696ZM806.169 343.696L813.913 342.416V352.528H825.817V358.992H813.913V372.624C813.913 375.312 814.34 377.232 815.193 378.384C816.046 379.536 817.497 380.112 819.545 380.112C820.953 380.112 822.19 379.963 823.257 379.664C824.366 379.365 825.241 379.088 825.881 378.832L827.161 384.976C826.265 385.36 825.092 385.744 823.641 386.128C822.19 386.555 820.484 386.768 818.521 386.768C816.132 386.768 814.126 386.448 812.505 385.808C810.926 385.168 809.668 384.251 808.729 383.056C807.79 381.819 807.129 380.347 806.745 378.64C806.361 376.891 806.169 374.907 806.169 372.688V343.696ZM830.885 369.424C830.885 366.48 831.311 363.899 832.165 361.68C833.061 359.461 834.234 357.627 835.685 356.176C837.135 354.683 838.799 353.573 840.677 352.848C842.554 352.08 844.474 351.696 846.437 351.696C851.045 351.696 854.629 353.125 857.189 355.984C859.791 358.843 861.093 363.109 861.093 368.784C861.093 369.211 861.071 369.701 861.029 370.256C861.029 370.768 861.007 371.237 860.965 371.664H838.885C839.098 374.352 840.037 376.443 841.701 377.936C843.407 379.387 845.861 380.112 849.061 380.112C850.938 380.112 852.645 379.941 854.181 379.6C855.759 379.259 856.997 378.896 857.893 378.512L858.917 384.848C858.49 385.061 857.893 385.296 857.125 385.552C856.399 385.765 855.546 385.957 854.565 386.128C853.626 386.341 852.602 386.512 851.493 386.64C850.383 386.768 849.253 386.832 848.101 386.832C845.157 386.832 842.597 386.405 840.421 385.552C838.245 384.656 836.453 383.44 835.045 381.904C833.637 380.325 832.591 378.491 831.909 376.4C831.226 374.267 830.885 371.941 830.885 369.424ZM853.349 365.968C853.349 364.901 853.199 363.899 852.901 362.96C852.602 361.979 852.154 361.147 851.557 360.464C851.002 359.739 850.298 359.184 849.445 358.8C848.634 358.373 847.653 358.16 846.501 358.16C845.306 358.16 844.261 358.395 843.365 358.864C842.469 359.291 841.701 359.867 841.061 360.592C840.463 361.317 839.994 362.149 839.653 363.088C839.311 364.027 839.077 364.987 838.949 365.968H853.349ZM865.847 364.176H883.063V371.28H865.847V364.176ZM887.635 369.296C887.635 366.821 888.019 364.517 888.786 362.384C889.555 360.208 890.643 358.331 892.051 356.752C893.501 355.173 895.251 353.936 897.299 353.04C899.347 352.144 901.651 351.696 904.211 351.696C907.368 351.696 910.355 352.272 913.171 353.424L911.507 359.76C910.611 359.376 909.587 359.056 908.435 358.8C907.325 358.544 906.131 358.416 904.851 358.416C901.821 358.416 899.517 359.376 897.939 361.296C896.36 363.173 895.571 365.84 895.571 369.296C895.571 372.624 896.317 375.269 897.811 377.232C899.304 379.152 901.821 380.112 905.363 380.112C906.685 380.112 907.987 379.984 909.267 379.728C910.547 379.472 911.656 379.152 912.595 378.768L913.683 385.168C912.829 385.595 911.528 385.979 909.779 386.32C908.072 386.661 906.301 386.832 904.467 386.832C901.608 386.832 899.112 386.405 896.979 385.552C894.888 384.656 893.139 383.44 891.731 381.904C890.365 380.325 889.341 378.469 888.659 376.336C887.976 374.16 887.635 371.813 887.635 369.296ZM949.263 369.232C949.263 371.877 948.879 374.288 948.111 376.464C947.343 378.64 946.255 380.496 944.847 382.032C943.439 383.568 941.732 384.763 939.727 385.616C937.764 386.469 935.588 386.896 933.199 386.896C930.809 386.896 928.633 386.469 926.671 385.616C924.708 384.763 923.023 383.568 921.615 382.032C920.207 380.496 919.097 378.64 918.286 376.464C917.519 374.288 917.135 371.877 917.135 369.232C917.135 366.587 917.519 364.197 918.286 362.064C919.097 359.888 920.207 358.032 921.615 356.496C923.065 354.96 924.772 353.787 926.735 352.976C928.697 352.123 930.852 351.696 933.199 351.696C935.545 351.696 937.7 352.123 939.663 352.976C941.668 353.787 943.375 354.96 944.783 356.496C946.191 358.032 947.279 359.888 948.047 362.064C948.857 364.197 949.263 366.587 949.263 369.232ZM941.327 369.232C941.327 365.904 940.601 363.28 939.151 361.36C937.743 359.397 935.759 358.416 933.199 358.416C930.639 358.416 928.633 359.397 927.183 361.36C925.775 363.28 925.071 365.904 925.071 369.232C925.071 372.603 925.775 375.269 927.183 377.232C928.633 379.195 930.639 380.176 933.199 380.176C935.759 380.176 937.743 379.195 939.151 377.232C940.601 375.269 941.327 372.603 941.327 369.232ZM968.889 386.64C966.585 386.597 964.665 386.341 963.129 385.872C961.635 385.403 960.441 384.741 959.545 383.888C958.649 382.992 958.009 381.904 957.625 380.624C957.283 379.301 957.113 377.808 957.113 376.144V337.616L964.857 336.336V374.672C964.857 375.611 964.921 376.4 965.049 377.04C965.219 377.68 965.497 378.235 965.881 378.704C966.265 379.131 966.777 379.472 967.417 379.728C968.099 379.941 968.953 380.112 969.977 380.24L968.889 386.64ZM1003.7 384.976C1002.2 385.36 1000.26 385.744 997.873 386.128C995.483 386.555 992.859 386.768 990.001 386.768C987.313 386.768 985.051 386.384 983.217 385.616C981.425 384.848 979.974 383.781 978.865 382.416C977.798 381.051 977.03 379.429 976.561 377.552C976.091 375.632 975.857 373.541 975.857 371.28V352.528H983.601V370.064C983.601 373.648 984.113 376.208 985.137 377.744C986.203 379.28 988.038 380.048 990.641 380.048C991.579 380.048 992.561 380.005 993.585 379.92C994.651 379.835 995.441 379.728 995.953 379.6V352.528H1003.7V384.976ZM1032.63 368.4C1032.63 364.901 1032.18 362.384 1031.28 360.848C1030.43 359.269 1028.81 358.48 1026.42 358.48C1025.56 358.48 1024.63 358.544 1023.6 358.672C1022.58 358.8 1021.81 358.907 1021.3 358.992V386H1013.55V353.616C1015.05 353.189 1016.99 352.784 1019.38 352.4C1021.81 352.016 1024.37 351.824 1027.06 351.824C1029.36 351.824 1031.24 352.123 1032.69 352.72C1034.18 353.317 1035.42 354.107 1036.4 355.088C1036.87 354.747 1037.47 354.384 1038.19 354C1038.92 353.616 1039.73 353.275 1040.62 352.976C1041.52 352.635 1042.46 352.357 1043.44 352.144C1044.47 351.931 1045.49 351.824 1046.51 351.824C1049.12 351.824 1051.25 352.208 1052.91 352.976C1054.62 353.701 1055.94 354.747 1056.88 356.112C1057.86 357.435 1058.52 359.056 1058.87 360.976C1059.25 362.853 1059.44 364.923 1059.44 367.184V386H1051.7V368.4C1051.7 364.901 1051.27 362.384 1050.42 360.848C1049.56 359.269 1047.92 358.48 1045.49 358.48C1044.25 358.48 1043.08 358.693 1041.97 359.12C1040.86 359.504 1040.03 359.888 1039.47 360.272C1039.81 361.339 1040.05 362.469 1040.18 363.664C1040.31 364.859 1040.37 366.139 1040.37 367.504V386H1032.63V368.4ZM1068.93 353.616C1070.42 353.189 1072.36 352.784 1074.75 352.4C1077.14 352.016 1079.79 351.824 1082.69 351.824C1085.42 351.824 1087.7 352.208 1089.54 352.976C1091.37 353.701 1092.82 354.747 1093.89 356.112C1095 357.435 1095.77 359.056 1096.19 360.976C1096.66 362.853 1096.9 364.923 1096.9 367.184V386H1089.15V368.4C1089.15 366.608 1089.02 365.093 1088.77 363.856C1088.55 362.576 1088.17 361.552 1087.62 360.784C1087.1 359.973 1086.38 359.397 1085.44 359.056C1084.54 358.672 1083.43 358.48 1082.11 358.48C1081.13 358.48 1080.11 358.544 1079.04 358.672C1077.97 358.8 1077.18 358.907 1076.67 358.992V386H1068.93V353.616ZM1114.75 380.432C1116.8 380.432 1118.29 380.197 1119.23 379.728C1120.17 379.216 1120.64 378.363 1120.64 377.168C1120.64 376.059 1120.13 375.141 1119.1 374.416C1118.12 373.691 1116.48 372.901 1114.17 372.048C1112.77 371.536 1111.46 371.003 1110.27 370.448C1109.12 369.851 1108.11 369.168 1107.26 368.4C1106.41 367.632 1105.73 366.715 1105.21 365.648C1104.74 364.539 1104.51 363.195 1104.51 361.616C1104.51 358.544 1105.64 356.133 1107.9 354.384C1110.16 352.592 1113.23 351.696 1117.12 351.696C1119.08 351.696 1120.96 351.888 1122.75 352.272C1124.54 352.613 1125.89 352.955 1126.78 353.296L1125.37 359.568C1124.52 359.184 1123.43 358.843 1122.11 358.544C1120.79 358.203 1119.25 358.032 1117.5 358.032C1115.92 358.032 1114.64 358.309 1113.66 358.864C1112.68 359.376 1112.19 360.187 1112.19 361.296C1112.19 361.851 1112.27 362.341 1112.45 362.768C1112.66 363.195 1113 363.6 1113.47 363.984C1113.94 364.325 1114.56 364.688 1115.33 365.072C1116.09 365.413 1117.03 365.776 1118.14 366.16C1119.98 366.843 1121.53 367.525 1122.81 368.208C1124.09 368.848 1125.14 369.595 1125.95 370.448C1126.8 371.259 1127.42 372.197 1127.81 373.264C1128.19 374.331 1128.38 375.611 1128.38 377.104C1128.38 380.304 1127.19 382.736 1124.8 384.4C1122.45 386.021 1119.08 386.832 1114.69 386.832C1111.74 386.832 1109.37 386.576 1107.58 386.064C1105.79 385.595 1104.53 385.211 1103.81 384.912L1105.15 378.448C1106.3 378.917 1107.67 379.365 1109.25 379.792C1110.87 380.219 1112.7 380.432 1114.75 380.432Z" fill="#60195E"/>
<path d="M-0.216 558.862C-0.216 556.619 0.132 554.531 0.828 552.598C1.524 550.626 2.51 548.925 3.786 547.494C5.10067 546.063 6.686 544.942 8.542 544.13C10.398 543.318 12.486 542.912 14.806 542.912C17.6673 542.912 20.374 543.434 22.926 544.478L21.418 550.22C20.606 549.872 19.678 549.582 18.634 549.35C17.6287 549.118 16.546 549.002 15.386 549.002C12.6407 549.002 10.5527 549.872 9.122 551.612C7.69133 553.313 6.976 555.73 6.976 558.862C6.976 561.878 7.65267 564.275 9.006 566.054C10.3593 567.794 12.6407 568.664 15.85 568.664C17.0487 568.664 18.228 568.548 19.388 568.316C20.548 568.084 21.5533 567.794 22.404 567.446L23.39 573.246C22.6167 573.633 21.4373 573.981 19.852 574.29C18.3053 574.599 16.7007 574.754 15.038 574.754C12.4473 574.754 10.1853 574.367 8.252 573.594C6.35733 572.782 4.772 571.68 3.496 570.288C2.25867 568.857 1.33067 567.175 0.712 565.242C0.0933334 563.27 -0.216 561.143 -0.216 558.862ZM55.6344 558.804C55.6344 561.201 55.2864 563.386 54.5904 565.358C53.8944 567.33 52.9084 569.012 51.6324 570.404C50.3564 571.796 48.8097 572.879 46.9924 573.652C45.2137 574.425 43.2417 574.812 41.0764 574.812C38.911 574.812 36.939 574.425 35.1604 573.652C33.3817 572.879 31.8544 571.796 30.5784 570.404C29.3024 569.012 28.297 567.33 27.5624 565.358C26.8664 563.386 26.5184 561.201 26.5184 558.804C26.5184 556.407 26.8664 554.241 27.5624 552.308C28.297 550.336 29.3024 548.654 30.5784 547.262C31.893 545.87 33.4397 544.807 35.2184 544.072C36.997 543.299 38.9497 542.912 41.0764 542.912C43.203 542.912 45.1557 543.299 46.9344 544.072C48.7517 544.807 50.2984 545.87 51.5744 547.262C52.8504 548.654 53.8364 550.336 54.5324 552.308C55.267 554.241 55.6344 556.407 55.6344 558.804ZM48.4424 558.804C48.4424 555.788 47.785 553.41 46.4704 551.67C45.1944 549.891 43.3964 549.002 41.0764 549.002C38.7564 549.002 36.939 549.891 35.6244 551.67C34.3484 553.41 33.7104 555.788 33.7104 558.804C33.7104 561.859 34.3484 564.275 35.6244 566.054C36.939 567.833 38.7564 568.722 41.0764 568.722C43.3964 568.722 45.1944 567.833 46.4704 566.054C47.785 564.275 48.4424 561.859 48.4424 558.804ZM73.4204 574.58C71.3324 574.541 69.5924 574.309 68.2004 573.884C66.8471 573.459 65.7644 572.859 64.9524 572.086C64.1404 571.274 63.5604 570.288 63.2124 569.128C62.9031 567.929 62.7484 566.576 62.7484 565.068V530.152L69.7664 528.992V563.734C69.7664 564.585 69.8244 565.3 69.9404 565.88C70.0951 566.46 70.3464 566.963 70.6944 567.388C71.0424 567.775 71.5064 568.084 72.0864 568.316C72.7051 568.509 73.4784 568.664 74.4064 568.78L73.4204 574.58ZM104.965 573.072C103.612 573.42 101.853 573.768 99.6872 574.116C97.5219 574.503 95.1439 574.696 92.5532 574.696C90.1172 574.696 88.0679 574.348 86.4052 573.652C84.7812 572.956 83.4665 571.989 82.4612 570.752C81.4945 569.515 80.7985 568.045 80.3732 566.344C79.9479 564.604 79.7352 562.709 79.7352 560.66V543.666H86.7532V559.558C86.7532 562.806 87.2172 565.126 88.1452 566.518C89.1119 567.91 90.7745 568.606 93.1332 568.606C93.9839 568.606 94.8732 568.567 95.8012 568.49C96.7679 568.413 97.4832 568.316 97.9472 568.2V543.666H104.965V573.072ZM131.182 558.05C131.182 554.879 130.776 552.598 129.964 551.206C129.19 549.775 127.721 549.06 125.556 549.06C124.782 549.06 123.932 549.118 123.004 549.234C122.076 549.35 121.38 549.447 120.916 549.524V574H113.898V544.652C115.251 544.265 117.01 543.898 119.176 543.55C121.38 543.202 123.7 543.028 126.136 543.028C128.224 543.028 129.925 543.299 131.24 543.84C132.593 544.381 133.714 545.097 134.604 545.986C135.029 545.677 135.57 545.348 136.228 545C136.885 544.652 137.62 544.343 138.432 544.072C139.244 543.763 140.094 543.511 140.984 543.318C141.912 543.125 142.84 543.028 143.768 543.028C146.126 543.028 148.06 543.376 149.568 544.072C151.114 544.729 152.313 545.677 153.164 546.914C154.053 548.113 154.652 549.582 154.962 551.322C155.31 553.023 155.484 554.899 155.484 556.948V574H148.466V558.05C148.466 554.879 148.079 552.598 147.306 551.206C146.532 549.775 145.044 549.06 142.84 549.06C141.718 549.06 140.655 549.253 139.65 549.64C138.644 549.988 137.89 550.336 137.388 550.684C137.697 551.651 137.91 552.675 138.026 553.758C138.142 554.841 138.2 556.001 138.2 557.238V574H131.182V558.05ZM164.081 544.652C165.435 544.265 167.194 543.898 169.359 543.55C171.525 543.202 173.922 543.028 176.551 543.028C179.026 543.028 181.095 543.376 182.757 544.072C184.42 544.729 185.735 545.677 186.701 546.914C187.707 548.113 188.403 549.582 188.789 551.322C189.215 553.023 189.427 554.899 189.427 556.948V574H182.409V558.05C182.409 556.426 182.293 555.053 182.061 553.932C181.868 552.772 181.52 551.844 181.017 551.148C180.553 550.413 179.896 549.891 179.045 549.582C178.233 549.234 177.228 549.06 176.029 549.06C175.14 549.06 174.212 549.118 173.245 549.234C172.279 549.35 171.563 549.447 171.099 549.524V574H164.081V544.652ZM205.607 568.954C207.463 568.954 208.816 568.741 209.667 568.316C210.518 567.852 210.943 567.079 210.943 565.996C210.943 564.991 210.479 564.159 209.551 563.502C208.662 562.845 207.173 562.129 205.085 561.356C203.809 560.892 202.63 560.409 201.547 559.906C200.503 559.365 199.594 558.746 198.821 558.05C198.048 557.354 197.429 556.523 196.965 555.556C196.54 554.551 196.327 553.333 196.327 551.902C196.327 549.118 197.352 546.933 199.401 545.348C201.45 543.724 204.234 542.912 207.753 542.912C209.532 542.912 211.233 543.086 212.857 543.434C214.481 543.743 215.699 544.053 216.511 544.362L215.235 550.046C214.462 549.698 213.476 549.389 212.277 549.118C211.078 548.809 209.686 548.654 208.101 548.654C206.67 548.654 205.51 548.905 204.621 549.408C203.732 549.872 203.287 550.607 203.287 551.612C203.287 552.115 203.364 552.559 203.519 552.946C203.712 553.333 204.022 553.7 204.447 554.048C204.872 554.357 205.433 554.686 206.129 555.034C206.825 555.343 207.676 555.672 208.681 556.02C210.344 556.639 211.755 557.257 212.915 557.876C214.075 558.456 215.022 559.133 215.757 559.906C216.53 560.641 217.091 561.491 217.439 562.458C217.787 563.425 217.961 564.585 217.961 565.938C217.961 568.838 216.878 571.042 214.713 572.55C212.586 574.019 209.532 574.754 205.549 574.754C202.881 574.754 200.735 574.522 199.111 574.058C197.487 573.633 196.346 573.285 195.689 573.014L196.907 567.156C197.951 567.581 199.188 567.987 200.619 568.374C202.088 568.761 203.751 568.954 205.607 568.954ZM232.405 548.48C232.405 549.833 231.941 550.935 231.013 551.786C230.123 552.637 229.041 553.062 227.765 553.062C226.45 553.062 225.348 552.637 224.459 551.786C223.569 550.935 223.125 549.833 223.125 548.48C223.125 547.127 223.569 546.025 224.459 545.174C225.348 544.285 226.45 543.84 227.765 543.84C229.041 543.84 230.123 544.285 231.013 545.174C231.941 546.025 232.405 547.127 232.405 548.48ZM232.405 570.172C232.405 571.525 231.941 572.627 231.013 573.478C230.123 574.329 229.041 574.754 227.765 574.754C226.45 574.754 225.348 574.329 224.459 573.478C223.569 572.627 223.125 571.525 223.125 570.172C223.125 568.819 223.569 567.717 224.459 566.866C225.348 565.977 226.45 565.532 227.765 565.532C229.041 565.532 230.123 565.977 231.013 566.866C231.941 567.717 232.405 568.819 232.405 570.172ZM271.208 562.516C271.208 561.24 270.957 560.099 270.454 559.094C269.951 558.089 269.062 557.238 267.786 556.542C266.549 555.846 264.867 555.324 262.74 554.976C260.652 554.628 258.003 554.454 254.794 554.454C255.219 550.742 255.548 547.223 255.78 543.898C256.012 540.534 256.205 537.17 256.36 533.806H276.892V539.722H262.334C262.295 540.379 262.237 541.133 262.16 541.984C262.121 542.796 262.063 543.627 261.986 544.478C261.947 545.329 261.889 546.141 261.812 546.914C261.735 547.687 261.657 548.345 261.58 548.886C267.303 549.195 271.517 550.51 274.224 552.83C276.969 555.111 278.342 558.243 278.342 562.226C278.342 564.043 278.033 565.725 277.414 567.272C276.795 568.819 275.848 570.153 274.572 571.274C273.296 572.395 271.691 573.285 269.758 573.942C267.825 574.561 265.563 574.87 262.972 574.87C261.928 574.87 260.865 574.793 259.782 574.638C258.699 574.483 257.655 574.29 256.65 574.058C255.683 573.865 254.813 573.652 254.04 573.42C253.267 573.188 252.687 572.975 252.3 572.782L253.634 566.866C254.446 567.253 255.606 567.678 257.114 568.142C258.661 568.567 260.536 568.78 262.74 568.78C264.248 568.78 265.543 568.625 266.626 568.316C267.709 567.968 268.579 567.504 269.236 566.924C269.932 566.344 270.435 565.687 270.744 564.952C271.053 564.179 271.208 563.367 271.208 562.516ZM312.409 553.874C312.409 560.641 311.172 565.841 308.697 569.476C306.222 573.072 302.8 574.87 298.431 574.87C294.062 574.87 290.64 573.072 288.165 569.476C285.69 565.841 284.453 560.641 284.453 553.874C284.453 550.51 284.762 547.533 285.381 544.942C286.038 542.313 286.966 540.109 288.165 538.33C289.402 536.551 290.872 535.198 292.573 534.27C294.313 533.342 296.266 532.878 298.431 532.878C302.8 532.878 306.222 534.695 308.697 538.33C311.172 541.926 312.409 547.107 312.409 553.874ZM305.159 553.874C305.159 551.786 305.043 549.833 304.811 548.016C304.579 546.199 304.192 544.633 303.651 543.318C303.148 541.965 302.472 540.901 301.621 540.128C300.77 539.355 299.707 538.968 298.431 538.968C297.155 538.968 296.072 539.355 295.183 540.128C294.332 540.901 293.636 541.965 293.095 543.318C292.592 544.633 292.225 546.199 291.993 548.016C291.8 549.833 291.703 551.786 291.703 553.874C291.703 555.962 291.8 557.915 291.993 559.732C292.225 561.549 292.592 563.135 293.095 564.488C293.636 565.803 294.332 566.847 295.183 567.62C296.072 568.393 297.155 568.78 298.431 568.78C299.707 568.78 300.77 568.393 301.621 567.62C302.472 566.847 303.148 565.803 303.651 564.488C304.192 563.135 304.579 561.549 304.811 559.732C305.043 557.915 305.159 555.962 305.159 553.874ZM337.138 543.898C337.138 547.417 336.229 550.123 334.412 552.018C332.633 553.913 330.294 554.86 327.394 554.86C325.963 554.86 324.648 554.628 323.45 554.164C322.251 553.661 321.226 552.946 320.376 552.018C319.525 551.09 318.848 549.949 318.346 548.596C317.882 547.204 317.65 545.638 317.65 543.898C317.65 540.341 318.539 537.634 320.318 535.778C322.135 533.883 324.494 532.936 327.394 532.936C330.294 532.936 332.633 533.883 334.412 535.778C336.229 537.634 337.138 540.341 337.138 543.898ZM331.628 543.898C331.628 541.849 331.241 540.321 330.468 539.316C329.733 538.272 328.708 537.75 327.394 537.75C326.079 537.75 325.054 538.272 324.32 539.316C323.585 540.321 323.218 541.849 323.218 543.898C323.218 545.947 323.585 547.494 324.32 548.538C325.054 549.543 326.079 550.046 327.394 550.046C328.708 550.046 329.733 549.543 330.468 548.538C331.241 547.494 331.628 545.947 331.628 543.898ZM348.912 533.806H355.582L332.904 574H326.234L348.912 533.806ZM364.224 563.966C364.224 567.485 363.315 570.191 361.498 572.086C359.719 573.981 357.38 574.928 354.48 574.928C353.049 574.928 351.734 574.677 350.536 574.174C349.337 573.71 348.312 573.014 347.462 572.086C346.611 571.158 345.934 570.017 345.432 568.664C344.968 567.272 344.736 565.706 344.736 563.966C344.736 560.409 345.625 557.702 347.404 555.846C349.221 553.951 351.58 553.004 354.48 553.004C357.38 553.004 359.719 553.951 361.498 555.846C363.315 557.702 364.224 560.409 364.224 563.966ZM358.714 563.966C358.714 561.917 358.327 560.389 357.554 559.384C356.819 558.34 355.794 557.818 354.48 557.818C353.165 557.818 352.14 558.34 351.406 559.384C350.671 560.389 350.304 561.917 350.304 563.966C350.304 566.015 350.671 567.562 351.406 568.606C352.14 569.611 353.165 570.114 354.48 570.114C355.794 570.114 356.819 569.611 357.554 568.606C358.327 567.562 358.714 566.015 358.714 563.966ZM402.728 562.516C402.728 561.24 402.476 560.099 401.974 559.094C401.471 558.089 400.582 557.238 399.306 556.542C398.068 555.846 396.386 555.324 394.26 554.976C392.172 554.628 389.523 554.454 386.314 554.454C386.739 550.742 387.068 547.223 387.3 543.898C387.532 540.534 387.725 537.17 387.88 533.806H408.412V539.722H393.854C393.815 540.379 393.757 541.133 393.68 541.984C393.641 542.796 393.583 543.627 393.506 544.478C393.467 545.329 393.409 546.141 393.332 546.914C393.254 547.687 393.177 548.345 393.1 548.886C398.822 549.195 403.037 550.51 405.744 552.83C408.489 555.111 409.862 558.243 409.862 562.226C409.862 564.043 409.552 565.725 408.934 567.272C408.315 568.819 407.368 570.153 406.092 571.274C404.816 572.395 403.211 573.285 401.278 573.942C399.344 574.561 397.082 574.87 394.492 574.87C393.448 574.87 392.384 574.793 391.302 574.638C390.219 574.483 389.175 574.29 388.17 574.058C387.203 573.865 386.333 573.652 385.56 573.42C384.786 573.188 384.206 572.975 383.82 572.782L385.154 566.866C385.966 567.253 387.126 567.678 388.634 568.142C390.18 568.567 392.056 568.78 394.26 568.78C395.768 568.78 397.063 568.625 398.146 568.316C399.228 567.968 400.098 567.504 400.756 566.924C401.452 566.344 401.954 565.687 402.264 564.952C402.573 564.179 402.728 563.367 402.728 562.516ZM443.929 553.874C443.929 560.641 442.691 565.841 440.217 569.476C437.742 573.072 434.32 574.87 429.951 574.87C425.581 574.87 422.159 573.072 419.685 569.476C417.21 565.841 415.973 560.641 415.973 553.874C415.973 550.51 416.282 547.533 416.901 544.942C417.558 542.313 418.486 540.109 419.685 538.33C420.922 536.551 422.391 535.198 424.093 534.27C425.833 533.342 427.785 532.878 429.951 532.878C434.32 532.878 437.742 534.695 440.217 538.33C442.691 541.926 443.929 547.107 443.929 553.874ZM436.679 553.874C436.679 551.786 436.563 549.833 436.331 548.016C436.099 546.199 435.712 544.633 435.171 543.318C434.668 541.965 433.991 540.901 433.141 540.128C432.29 539.355 431.227 538.968 429.951 538.968C428.675 538.968 427.592 539.355 426.703 540.128C425.852 540.901 425.156 541.965 424.615 543.318C424.112 544.633 423.745 546.199 423.513 548.016C423.319 549.833 423.223 551.786 423.223 553.874C423.223 555.962 423.319 557.915 423.513 559.732C423.745 561.549 424.112 563.135 424.615 564.488C425.156 565.803 425.852 566.847 426.703 567.62C427.592 568.393 428.675 568.78 429.951 568.78C431.227 568.78 432.29 568.393 433.141 567.62C433.991 566.847 434.668 565.803 435.171 564.488C435.712 563.135 436.099 561.549 436.331 559.732C436.563 557.915 436.679 555.962 436.679 553.874ZM468.657 543.898C468.657 547.417 467.749 550.123 465.931 552.018C464.153 553.913 461.813 554.86 458.913 554.86C457.483 554.86 456.168 554.628 454.969 554.164C453.771 553.661 452.746 552.946 451.895 552.018C451.045 551.09 450.368 549.949 449.865 548.596C449.401 547.204 449.169 545.638 449.169 543.898C449.169 540.341 450.059 537.634 451.837 535.778C453.655 533.883 456.013 532.936 458.913 532.936C461.813 532.936 464.153 533.883 465.931 535.778C467.749 537.634 468.657 540.341 468.657 543.898ZM463.147 543.898C463.147 541.849 462.761 540.321 461.987 539.316C461.253 538.272 460.228 537.75 458.913 537.75C457.599 537.75 456.574 538.272 455.839 539.316C455.105 540.321 454.737 541.849 454.737 543.898C454.737 545.947 455.105 547.494 455.839 548.538C456.574 549.543 457.599 550.046 458.913 550.046C460.228 550.046 461.253 549.543 461.987 548.538C462.761 547.494 463.147 545.947 463.147 543.898ZM480.431 533.806H487.101L464.423 574H457.753L480.431 533.806ZM495.743 563.966C495.743 567.485 494.835 570.191 493.017 572.086C491.239 573.981 488.899 574.928 485.999 574.928C484.569 574.928 483.254 574.677 482.055 574.174C480.857 573.71 479.832 573.014 478.981 572.086C478.131 571.158 477.454 570.017 476.951 568.664C476.487 567.272 476.255 565.706 476.255 563.966C476.255 560.409 477.145 557.702 478.923 555.846C480.741 553.951 483.099 553.004 485.999 553.004C488.899 553.004 491.239 553.951 493.017 555.846C494.835 557.702 495.743 560.409 495.743 563.966ZM490.233 563.966C490.233 561.917 489.847 560.389 489.073 559.384C488.339 558.34 487.314 557.818 485.999 557.818C484.685 557.818 483.66 558.34 482.925 559.384C482.191 560.389 481.823 561.917 481.823 563.966C481.823 566.015 482.191 567.562 482.925 568.606C483.66 569.611 484.685 570.114 485.999 570.114C487.314 570.114 488.339 569.611 489.073 568.606C489.847 567.562 490.233 566.015 490.233 563.966Z" fill="#60195E"/>
<path d="M1315.78 95.862C1315.78 93.6193 1316.13 91.5313 1316.83 89.598C1317.52 87.626 1318.51 85.9247 1319.79 84.494C1321.1 83.0633 1322.69 81.942 1324.54 81.13C1326.4 80.318 1328.49 79.912 1330.81 79.912C1333.67 79.912 1336.37 80.434 1338.93 81.478L1337.42 87.22C1336.61 86.872 1335.68 86.582 1334.63 86.35C1333.63 86.118 1332.55 86.002 1331.39 86.002C1328.64 86.002 1326.55 86.872 1325.12 88.612C1323.69 90.3133 1322.98 92.73 1322.98 95.862C1322.98 98.878 1323.65 101.275 1325.01 103.054C1326.36 104.794 1328.64 105.664 1331.85 105.664C1333.05 105.664 1334.23 105.548 1335.39 105.316C1336.55 105.084 1337.55 104.794 1338.4 104.446L1339.39 110.246C1338.62 110.633 1337.44 110.981 1335.85 111.29C1334.31 111.599 1332.7 111.754 1331.04 111.754C1328.45 111.754 1326.19 111.367 1324.25 110.594C1322.36 109.782 1320.77 108.68 1319.5 107.288C1318.26 105.857 1317.33 104.175 1316.71 102.242C1316.09 100.27 1315.78 98.1433 1315.78 95.862ZM1371.63 95.804C1371.63 98.2013 1371.29 100.386 1370.59 102.358C1369.89 104.33 1368.91 106.012 1367.63 107.404C1366.36 108.796 1364.81 109.879 1362.99 110.652C1361.21 111.425 1359.24 111.812 1357.08 111.812C1354.91 111.812 1352.94 111.425 1351.16 110.652C1349.38 109.879 1347.85 108.796 1346.58 107.404C1345.3 106.012 1344.3 104.33 1343.56 102.358C1342.87 100.386 1342.52 98.2013 1342.52 95.804C1342.52 93.4067 1342.87 91.2413 1343.56 89.308C1344.3 87.336 1345.3 85.654 1346.58 84.262C1347.89 82.87 1349.44 81.8067 1351.22 81.072C1353 80.2987 1354.95 79.912 1357.08 79.912C1359.2 79.912 1361.16 80.2987 1362.93 81.072C1364.75 81.8067 1366.3 82.87 1367.57 84.262C1368.85 85.654 1369.84 87.336 1370.53 89.308C1371.27 91.2413 1371.63 93.4067 1371.63 95.804ZM1364.44 95.804C1364.44 92.788 1363.79 90.41 1362.47 88.67C1361.19 86.8913 1359.4 86.002 1357.08 86.002C1354.76 86.002 1352.94 86.8913 1351.62 88.67C1350.35 90.41 1349.71 92.788 1349.71 95.804C1349.71 98.8587 1350.35 101.275 1351.62 103.054C1352.94 104.833 1354.76 105.722 1357.08 105.722C1359.4 105.722 1361.19 104.833 1362.47 103.054C1363.79 101.275 1364.44 98.8587 1364.44 95.804ZM1389.42 111.58C1387.33 111.541 1385.59 111.309 1384.2 110.884C1382.85 110.459 1381.76 109.859 1380.95 109.086C1380.14 108.274 1379.56 107.288 1379.21 106.128C1378.9 104.929 1378.75 103.576 1378.75 102.068V67.152L1385.77 65.992V100.734C1385.77 101.585 1385.82 102.3 1385.94 102.88C1386.1 103.46 1386.35 103.963 1386.69 104.388C1387.04 104.775 1387.51 105.084 1388.09 105.316C1388.71 105.509 1389.48 105.664 1390.41 105.78L1389.42 111.58ZM1420.97 110.072C1419.61 110.42 1417.85 110.768 1415.69 111.116C1413.52 111.503 1411.14 111.696 1408.55 111.696C1406.12 111.696 1404.07 111.348 1402.41 110.652C1400.78 109.956 1399.47 108.989 1398.46 107.752C1397.49 106.515 1396.8 105.045 1396.37 103.344C1395.95 101.604 1395.74 99.7093 1395.74 97.66V80.666H1402.75V96.558C1402.75 99.806 1403.22 102.126 1404.15 103.518C1405.11 104.91 1406.77 105.606 1409.13 105.606C1409.98 105.606 1410.87 105.567 1411.8 105.49C1412.77 105.413 1413.48 105.316 1413.95 105.2V80.666H1420.97V110.072ZM1447.18 95.05C1447.18 91.8793 1446.78 89.598 1445.96 88.206C1445.19 86.7753 1443.72 86.06 1441.56 86.06C1440.78 86.06 1439.93 86.118 1439 86.234C1438.08 86.35 1437.38 86.4467 1436.92 86.524V111H1429.9V81.652C1431.25 81.2653 1433.01 80.898 1435.18 80.55C1437.38 80.202 1439.7 80.028 1442.14 80.028C1444.22 80.028 1445.92 80.2987 1447.24 80.84C1448.59 81.3813 1449.71 82.0967 1450.6 82.986C1451.03 82.6767 1451.57 82.348 1452.23 82C1452.88 81.652 1453.62 81.3427 1454.43 81.072C1455.24 80.7627 1456.09 80.5113 1456.98 80.318C1457.91 80.1247 1458.84 80.028 1459.77 80.028C1462.13 80.028 1464.06 80.376 1465.57 81.072C1467.11 81.7293 1468.31 82.6767 1469.16 83.914C1470.05 85.1127 1470.65 86.582 1470.96 88.322C1471.31 90.0233 1471.48 91.8987 1471.48 93.948V111H1464.47V95.05C1464.47 91.8793 1464.08 89.598 1463.31 88.206C1462.53 86.7753 1461.04 86.06 1458.84 86.06C1457.72 86.06 1456.65 86.2533 1455.65 86.64C1454.64 86.988 1453.89 87.336 1453.39 87.684C1453.7 88.6507 1453.91 89.6753 1454.03 90.758C1454.14 91.8407 1454.2 93.0007 1454.2 94.238V111H1447.18V95.05ZM1480.08 81.652C1481.43 81.2653 1483.19 80.898 1485.36 80.55C1487.52 80.202 1489.92 80.028 1492.55 80.028C1495.03 80.028 1497.09 80.376 1498.76 81.072C1500.42 81.7293 1501.73 82.6767 1502.7 83.914C1503.71 85.1127 1504.4 86.582 1504.79 88.322C1505.21 90.0233 1505.43 91.8987 1505.43 93.948V111H1498.41V95.05C1498.41 93.426 1498.29 92.0533 1498.06 90.932C1497.87 89.772 1497.52 88.844 1497.02 88.148C1496.55 87.4133 1495.9 86.8913 1495.05 86.582C1494.23 86.234 1493.23 86.06 1492.03 86.06C1491.14 86.06 1490.21 86.118 1489.25 86.234C1488.28 86.35 1487.56 86.4467 1487.1 86.524V111H1480.08V81.652ZM1521.61 105.954C1523.46 105.954 1524.82 105.741 1525.67 105.316C1526.52 104.852 1526.94 104.079 1526.94 102.996C1526.94 101.991 1526.48 101.159 1525.55 100.502C1524.66 99.8447 1523.17 99.1293 1521.08 98.356C1519.81 97.892 1518.63 97.4087 1517.55 96.906C1516.5 96.3647 1515.59 95.746 1514.82 95.05C1514.05 94.354 1513.43 93.5227 1512.96 92.556C1512.54 91.5507 1512.33 90.3327 1512.33 88.902C1512.33 86.118 1513.35 83.9333 1515.4 82.348C1517.45 80.724 1520.23 79.912 1523.75 79.912C1525.53 79.912 1527.23 80.086 1528.86 80.434C1530.48 80.7433 1531.7 81.0527 1532.51 81.362L1531.23 87.046C1530.46 86.698 1529.48 86.3887 1528.28 86.118C1527.08 85.8087 1525.69 85.654 1524.1 85.654C1522.67 85.654 1521.51 85.9053 1520.62 86.408C1519.73 86.872 1519.29 87.6067 1519.29 88.612C1519.29 89.1147 1519.36 89.5593 1519.52 89.946C1519.71 90.3327 1520.02 90.7 1520.45 91.048C1520.87 91.3573 1521.43 91.686 1522.13 92.034C1522.82 92.3433 1523.68 92.672 1524.68 93.02C1526.34 93.6387 1527.75 94.2573 1528.91 94.876C1530.07 95.456 1531.02 96.1327 1531.76 96.906C1532.53 97.6407 1533.09 98.4913 1533.44 99.458C1533.79 100.425 1533.96 101.585 1533.96 102.938C1533.96 105.838 1532.88 108.042 1530.71 109.55C1528.59 111.019 1525.53 111.754 1521.55 111.754C1518.88 111.754 1516.73 111.522 1515.11 111.058C1513.49 110.633 1512.35 110.285 1511.69 110.014L1512.91 104.156C1513.95 104.581 1515.19 104.987 1516.62 105.374C1518.09 105.761 1519.75 105.954 1521.61 105.954ZM1548.4 85.48C1548.4 86.8333 1547.94 87.9353 1547.01 88.786C1546.12 89.6367 1545.04 90.062 1543.76 90.062C1542.45 90.062 1541.35 89.6367 1540.46 88.786C1539.57 87.9353 1539.12 86.8333 1539.12 85.48C1539.12 84.1267 1539.57 83.0247 1540.46 82.174C1541.35 81.2847 1542.45 80.84 1543.76 80.84C1545.04 80.84 1546.12 81.2847 1547.01 82.174C1547.94 83.0247 1548.4 84.1267 1548.4 85.48ZM1548.4 107.172C1548.4 108.525 1547.94 109.627 1547.01 110.478C1546.12 111.329 1545.04 111.754 1543.76 111.754C1542.45 111.754 1541.35 111.329 1540.46 110.478C1539.57 109.627 1539.12 108.525 1539.12 107.172C1539.12 105.819 1539.57 104.717 1540.46 103.866C1541.35 102.977 1542.45 102.532 1543.76 102.532C1545.04 102.532 1546.12 102.977 1547.01 103.866C1547.94 104.717 1548.4 105.819 1548.4 107.172ZM1592.89 81.246C1592.89 82.638 1592.6 84.0107 1592.02 85.364C1591.44 86.6787 1590.69 87.974 1589.76 89.25C1588.87 90.4873 1587.85 91.7053 1586.69 92.904C1585.53 94.064 1584.37 95.2047 1583.21 96.326C1582.59 96.906 1581.89 97.602 1581.12 98.414C1580.34 99.226 1579.61 100.038 1578.91 100.85C1578.22 101.662 1577.62 102.455 1577.12 103.228C1576.61 103.963 1576.34 104.581 1576.3 105.084H1594.17V111H1568.59C1568.55 110.691 1568.53 110.323 1568.53 109.898C1568.53 109.434 1568.53 109.086 1568.53 108.854C1568.53 106.998 1568.82 105.297 1569.4 103.75C1570.02 102.165 1570.81 100.695 1571.78 99.342C1572.75 97.9887 1573.83 96.7127 1575.03 95.514C1576.23 94.3153 1577.43 93.136 1578.62 91.976C1579.55 91.0867 1580.44 90.2167 1581.29 89.366C1582.14 88.5153 1582.88 87.684 1583.5 86.872C1584.15 86.0213 1584.68 85.1707 1585.06 84.32C1585.45 83.4307 1585.64 82.522 1585.64 81.594C1585.64 79.5833 1585.06 78.1527 1583.9 77.302C1582.74 76.4513 1581.33 76.026 1579.67 76.026C1578.59 76.026 1577.58 76.1807 1576.65 76.49C1575.72 76.7993 1574.89 77.1667 1574.16 77.592C1573.46 78.0173 1572.84 78.462 1572.3 78.926C1571.76 79.3513 1571.35 79.6993 1571.08 79.97L1567.6 75.04C1569.23 73.4933 1571.12 72.256 1573.29 71.328C1575.49 70.3613 1577.85 69.878 1580.36 69.878C1584.66 69.878 1587.81 70.9027 1589.82 72.952C1591.87 74.9627 1592.89 77.7273 1592.89 81.246ZM1620.17 99.516C1620.17 98.24 1619.92 97.0993 1619.42 96.094C1618.92 95.0887 1618.03 94.238 1616.75 93.542C1615.51 92.846 1613.83 92.324 1611.7 91.976C1609.62 91.628 1606.97 91.454 1603.76 91.454C1604.18 87.742 1604.51 84.2233 1604.74 80.898C1604.98 77.534 1605.17 74.17 1605.32 70.806H1625.86V76.722H1611.3C1611.26 77.3793 1611.2 78.1333 1611.12 78.984C1611.09 79.796 1611.03 80.6273 1610.95 81.478C1610.91 82.3287 1610.85 83.1407 1610.78 83.914C1610.7 84.6873 1610.62 85.3447 1610.54 85.886C1616.27 86.1953 1620.48 87.51 1623.19 89.83C1625.93 92.1113 1627.31 95.2433 1627.31 99.226C1627.31 101.043 1627 102.725 1626.38 104.272C1625.76 105.819 1624.81 107.153 1623.54 108.274C1622.26 109.395 1620.66 110.285 1618.72 110.942C1616.79 111.561 1614.53 111.87 1611.94 111.87C1610.89 111.87 1609.83 111.793 1608.75 111.638C1607.66 111.483 1606.62 111.29 1605.61 111.058C1604.65 110.865 1603.78 110.652 1603 110.42C1602.23 110.188 1601.65 109.975 1601.26 109.782L1602.6 103.866C1603.41 104.253 1604.57 104.678 1606.08 105.142C1607.63 105.567 1609.5 105.78 1611.7 105.78C1613.21 105.78 1614.51 105.625 1615.59 105.316C1616.67 104.968 1617.54 104.504 1618.2 103.924C1618.9 103.344 1619.4 102.687 1619.71 101.952C1620.02 101.179 1620.17 100.367 1620.17 99.516ZM1655.52 95.978C1655.52 92.846 1654.8 90.41 1653.37 88.67C1651.98 86.93 1649.72 86.06 1646.58 86.06C1645.93 86.06 1645.23 86.0987 1644.5 86.176C1643.8 86.2147 1643.1 86.3307 1642.41 86.524V103.866C1643.03 104.291 1643.84 104.697 1644.84 105.084C1645.89 105.432 1646.99 105.606 1648.15 105.606C1650.7 105.606 1652.56 104.736 1653.72 102.996C1654.92 101.256 1655.52 98.9167 1655.52 95.978ZM1662.71 95.862C1662.71 98.182 1662.4 100.309 1661.78 102.242C1661.2 104.175 1660.35 105.838 1659.23 107.23C1658.11 108.622 1656.7 109.705 1654.99 110.478C1653.33 111.251 1651.44 111.638 1649.31 111.638C1647.88 111.638 1646.56 111.464 1645.37 111.116C1644.17 110.768 1643.18 110.381 1642.41 109.956V121.73H1635.39V81.652C1636.82 81.2653 1638.58 80.898 1640.67 80.55C1642.76 80.202 1644.96 80.028 1647.28 80.028C1649.68 80.028 1651.82 80.3953 1653.72 81.13C1655.61 81.8647 1657.22 82.928 1658.53 84.32C1659.89 85.6733 1660.91 87.336 1661.61 89.308C1662.34 91.2413 1662.71 93.426 1662.71 95.862ZM1680 90.584L1686.43 80.666H1693.8L1683.82 94.992C1685.91 97.6987 1687.9 100.444 1689.8 103.228C1691.73 105.973 1693.32 108.564 1694.55 111H1686.96C1686.61 110.265 1686.14 109.434 1685.56 108.506C1685.02 107.539 1684.42 106.553 1683.77 105.548C1683.15 104.504 1682.49 103.479 1681.79 102.474C1681.1 101.469 1680.42 100.521 1679.76 99.632C1678.41 101.372 1677.08 103.305 1675.76 105.432C1674.49 107.52 1673.42 109.376 1672.57 111H1665.38C1665.96 109.84 1666.66 108.603 1667.47 107.288C1668.28 105.973 1669.15 104.639 1670.08 103.286C1671.01 101.894 1671.95 100.521 1672.92 99.168C1673.92 97.776 1674.91 96.4613 1675.88 95.224L1665.84 80.666H1673.56L1680 90.584ZM1714.08 79.158C1716.32 78.2687 1718.57 77.128 1720.81 75.736C1723.09 74.344 1725.1 72.7007 1726.84 70.806H1731.77V111H1724.75V80.202C1723.71 81.014 1722.39 81.8067 1720.81 82.58C1719.22 83.3533 1717.7 83.9913 1716.23 84.494L1714.08 79.158ZM1758.65 65.992C1760.27 65.992 1761.7 66.1467 1762.94 66.456C1764.18 66.7267 1765.1 66.978 1765.72 67.21L1764.39 73.01C1763.73 72.7007 1762.96 72.4493 1762.07 72.256C1761.22 72.0627 1760.29 71.966 1759.28 71.966C1758.16 71.966 1757.22 72.14 1756.44 72.488C1755.67 72.7973 1755.05 73.242 1754.59 73.822C1754.12 74.402 1753.79 75.1173 1753.6 75.968C1753.41 76.78 1753.31 77.6693 1753.31 78.636V80.666H1764.33V86.524H1753.31V111H1746.29V78.52C1746.29 74.6147 1747.32 71.56 1749.37 69.356C1751.42 67.1133 1754.51 65.992 1758.65 65.992ZM1786.8 86.988C1786.22 86.7947 1785.41 86.6013 1784.36 86.408C1783.36 86.176 1782.18 86.06 1780.82 86.06C1780.05 86.06 1779.22 86.1373 1778.33 86.292C1777.48 86.4467 1776.88 86.582 1776.53 86.698V111H1769.51V82.116C1770.87 81.6133 1772.55 81.1493 1774.56 80.724C1776.61 80.26 1778.87 80.028 1781.35 80.028C1781.81 80.028 1782.35 80.0667 1782.97 80.144C1783.59 80.1827 1784.21 80.26 1784.83 80.376C1785.45 80.4533 1786.04 80.5693 1786.62 80.724C1787.2 80.84 1787.67 80.956 1788.02 81.072L1786.8 86.988Z" fill="#60195E"/>
<path d="M1319.78 573.862C1319.78 571.619 1320.13 569.531 1320.83 567.598C1321.52 565.626 1322.51 563.925 1323.79 562.494C1325.1 561.063 1326.69 559.942 1328.54 559.13C1330.4 558.318 1332.49 557.912 1334.81 557.912C1337.67 557.912 1340.37 558.434 1342.93 559.478L1341.42 565.22C1340.61 564.872 1339.68 564.582 1338.63 564.35C1337.63 564.118 1336.55 564.002 1335.39 564.002C1332.64 564.002 1330.55 564.872 1329.12 566.612C1327.69 568.313 1326.98 570.73 1326.98 573.862C1326.98 576.878 1327.65 579.275 1329.01 581.054C1330.36 582.794 1332.64 583.664 1335.85 583.664C1337.05 583.664 1338.23 583.548 1339.39 583.316C1340.55 583.084 1341.55 582.794 1342.4 582.446L1343.39 588.246C1342.62 588.633 1341.44 588.981 1339.85 589.29C1338.31 589.599 1336.7 589.754 1335.04 589.754C1332.45 589.754 1330.19 589.367 1328.25 588.594C1326.36 587.782 1324.77 586.68 1323.5 585.288C1322.26 583.857 1321.33 582.175 1320.71 580.242C1320.09 578.27 1319.78 576.143 1319.78 573.862ZM1375.63 573.804C1375.63 576.201 1375.29 578.386 1374.59 580.358C1373.89 582.33 1372.91 584.012 1371.63 585.404C1370.36 586.796 1368.81 587.879 1366.99 588.652C1365.21 589.425 1363.24 589.812 1361.08 589.812C1358.91 589.812 1356.94 589.425 1355.16 588.652C1353.38 587.879 1351.85 586.796 1350.58 585.404C1349.3 584.012 1348.3 582.33 1347.56 580.358C1346.87 578.386 1346.52 576.201 1346.52 573.804C1346.52 571.407 1346.87 569.241 1347.56 567.308C1348.3 565.336 1349.3 563.654 1350.58 562.262C1351.89 560.87 1353.44 559.807 1355.22 559.072C1357 558.299 1358.95 557.912 1361.08 557.912C1363.2 557.912 1365.16 558.299 1366.93 559.072C1368.75 559.807 1370.3 560.87 1371.57 562.262C1372.85 563.654 1373.84 565.336 1374.53 567.308C1375.27 569.241 1375.63 571.407 1375.63 573.804ZM1368.44 573.804C1368.44 570.788 1367.79 568.41 1366.47 566.67C1365.19 564.891 1363.4 564.002 1361.08 564.002C1358.76 564.002 1356.94 564.891 1355.62 566.67C1354.35 568.41 1353.71 570.788 1353.71 573.804C1353.71 576.859 1354.35 579.275 1355.62 581.054C1356.94 582.833 1358.76 583.722 1361.08 583.722C1363.4 583.722 1365.19 582.833 1366.47 581.054C1367.79 579.275 1368.44 576.859 1368.44 573.804ZM1393.42 589.58C1391.33 589.541 1389.59 589.309 1388.2 588.884C1386.85 588.459 1385.76 587.859 1384.95 587.086C1384.14 586.274 1383.56 585.288 1383.21 584.128C1382.9 582.929 1382.75 581.576 1382.75 580.068V545.152L1389.77 543.992V578.734C1389.77 579.585 1389.82 580.3 1389.94 580.88C1390.1 581.46 1390.35 581.963 1390.69 582.388C1391.04 582.775 1391.51 583.084 1392.09 583.316C1392.71 583.509 1393.48 583.664 1394.41 583.78L1393.42 589.58ZM1424.97 588.072C1423.61 588.42 1421.85 588.768 1419.69 589.116C1417.52 589.503 1415.14 589.696 1412.55 589.696C1410.12 589.696 1408.07 589.348 1406.41 588.652C1404.78 587.956 1403.47 586.989 1402.46 585.752C1401.49 584.515 1400.8 583.045 1400.37 581.344C1399.95 579.604 1399.74 577.709 1399.74 575.66V558.666H1406.75V574.558C1406.75 577.806 1407.22 580.126 1408.15 581.518C1409.11 582.91 1410.77 583.606 1413.13 583.606C1413.98 583.606 1414.87 583.567 1415.8 583.49C1416.77 583.413 1417.48 583.316 1417.95 583.2V558.666H1424.97V588.072ZM1451.18 573.05C1451.18 569.879 1450.78 567.598 1449.96 566.206C1449.19 564.775 1447.72 564.06 1445.56 564.06C1444.78 564.06 1443.93 564.118 1443 564.234C1442.08 564.35 1441.38 564.447 1440.92 564.524V589H1433.9V559.652C1435.25 559.265 1437.01 558.898 1439.18 558.55C1441.38 558.202 1443.7 558.028 1446.14 558.028C1448.22 558.028 1449.92 558.299 1451.24 558.84C1452.59 559.381 1453.71 560.097 1454.6 560.986C1455.03 560.677 1455.57 560.348 1456.23 560C1456.88 559.652 1457.62 559.343 1458.43 559.072C1459.24 558.763 1460.09 558.511 1460.98 558.318C1461.91 558.125 1462.84 558.028 1463.77 558.028C1466.13 558.028 1468.06 558.376 1469.57 559.072C1471.11 559.729 1472.31 560.677 1473.16 561.914C1474.05 563.113 1474.65 564.582 1474.96 566.322C1475.31 568.023 1475.48 569.899 1475.48 571.948V589H1468.47V573.05C1468.47 569.879 1468.08 567.598 1467.31 566.206C1466.53 564.775 1465.04 564.06 1462.84 564.06C1461.72 564.06 1460.65 564.253 1459.65 564.64C1458.64 564.988 1457.89 565.336 1457.39 565.684C1457.7 566.651 1457.91 567.675 1458.03 568.758C1458.14 569.841 1458.2 571.001 1458.2 572.238V589H1451.18V573.05ZM1484.08 559.652C1485.43 559.265 1487.19 558.898 1489.36 558.55C1491.52 558.202 1493.92 558.028 1496.55 558.028C1499.03 558.028 1501.09 558.376 1502.76 559.072C1504.42 559.729 1505.73 560.677 1506.7 561.914C1507.71 563.113 1508.4 564.582 1508.79 566.322C1509.21 568.023 1509.43 569.899 1509.43 571.948V589H1502.41V573.05C1502.41 571.426 1502.29 570.053 1502.06 568.932C1501.87 567.772 1501.52 566.844 1501.02 566.148C1500.55 565.413 1499.9 564.891 1499.05 564.582C1498.23 564.234 1497.23 564.06 1496.03 564.06C1495.14 564.06 1494.21 564.118 1493.25 564.234C1492.28 564.35 1491.56 564.447 1491.1 564.524V589H1484.08V559.652ZM1525.61 583.954C1527.46 583.954 1528.82 583.741 1529.67 583.316C1530.52 582.852 1530.94 582.079 1530.94 580.996C1530.94 579.991 1530.48 579.159 1529.55 578.502C1528.66 577.845 1527.17 577.129 1525.08 576.356C1523.81 575.892 1522.63 575.409 1521.55 574.906C1520.5 574.365 1519.59 573.746 1518.82 573.05C1518.05 572.354 1517.43 571.523 1516.96 570.556C1516.54 569.551 1516.33 568.333 1516.33 566.902C1516.33 564.118 1517.35 561.933 1519.4 560.348C1521.45 558.724 1524.23 557.912 1527.75 557.912C1529.53 557.912 1531.23 558.086 1532.86 558.434C1534.48 558.743 1535.7 559.053 1536.51 559.362L1535.23 565.046C1534.46 564.698 1533.48 564.389 1532.28 564.118C1531.08 563.809 1529.69 563.654 1528.1 563.654C1526.67 563.654 1525.51 563.905 1524.62 564.408C1523.73 564.872 1523.29 565.607 1523.29 566.612C1523.29 567.115 1523.36 567.559 1523.52 567.946C1523.71 568.333 1524.02 568.7 1524.45 569.048C1524.87 569.357 1525.43 569.686 1526.13 570.034C1526.82 570.343 1527.68 570.672 1528.68 571.02C1530.34 571.639 1531.75 572.257 1532.91 572.876C1534.07 573.456 1535.02 574.133 1535.76 574.906C1536.53 575.641 1537.09 576.491 1537.44 577.458C1537.79 578.425 1537.96 579.585 1537.96 580.938C1537.96 583.838 1536.88 586.042 1534.71 587.55C1532.59 589.019 1529.53 589.754 1525.55 589.754C1522.88 589.754 1520.73 589.522 1519.11 589.058C1517.49 588.633 1516.35 588.285 1515.69 588.014L1516.91 582.156C1517.95 582.581 1519.19 582.987 1520.62 583.374C1522.09 583.761 1523.75 583.954 1525.61 583.954ZM1552.4 563.48C1552.4 564.833 1551.94 565.935 1551.01 566.786C1550.12 567.637 1549.04 568.062 1547.76 568.062C1546.45 568.062 1545.35 567.637 1544.46 566.786C1543.57 565.935 1543.12 564.833 1543.12 563.48C1543.12 562.127 1543.57 561.025 1544.46 560.174C1545.35 559.285 1546.45 558.84 1547.76 558.84C1549.04 558.84 1550.12 559.285 1551.01 560.174C1551.94 561.025 1552.4 562.127 1552.4 563.48ZM1552.4 585.172C1552.4 586.525 1551.94 587.627 1551.01 588.478C1550.12 589.329 1549.04 589.754 1547.76 589.754C1546.45 589.754 1545.35 589.329 1544.46 588.478C1543.57 587.627 1543.12 586.525 1543.12 585.172C1543.12 583.819 1543.57 582.717 1544.46 581.866C1545.35 580.977 1546.45 580.532 1547.76 580.532C1549.04 580.532 1550.12 580.977 1551.01 581.866C1551.94 582.717 1552.4 583.819 1552.4 585.172ZM1596.89 559.246C1596.89 560.638 1596.6 562.011 1596.02 563.364C1595.44 564.679 1594.69 565.974 1593.76 567.25C1592.87 568.487 1591.85 569.705 1590.69 570.904C1589.53 572.064 1588.37 573.205 1587.21 574.326C1586.59 574.906 1585.89 575.602 1585.12 576.414C1584.34 577.226 1583.61 578.038 1582.91 578.85C1582.22 579.662 1581.62 580.455 1581.12 581.228C1580.61 581.963 1580.34 582.581 1580.3 583.084H1598.17V589H1572.59C1572.55 588.691 1572.53 588.323 1572.53 587.898C1572.53 587.434 1572.53 587.086 1572.53 586.854C1572.53 584.998 1572.82 583.297 1573.4 581.75C1574.02 580.165 1574.81 578.695 1575.78 577.342C1576.75 575.989 1577.83 574.713 1579.03 573.514C1580.23 572.315 1581.43 571.136 1582.62 569.976C1583.55 569.087 1584.44 568.217 1585.29 567.366C1586.14 566.515 1586.88 565.684 1587.5 564.872C1588.15 564.021 1588.68 563.171 1589.06 562.32C1589.45 561.431 1589.64 560.522 1589.64 559.594C1589.64 557.583 1589.06 556.153 1587.9 555.302C1586.74 554.451 1585.33 554.026 1583.67 554.026C1582.59 554.026 1581.58 554.181 1580.65 554.49C1579.72 554.799 1578.89 555.167 1578.16 555.592C1577.46 556.017 1576.84 556.462 1576.3 556.926C1575.76 557.351 1575.35 557.699 1575.08 557.97L1571.6 553.04C1573.23 551.493 1575.12 550.256 1577.29 549.328C1579.49 548.361 1581.85 547.878 1584.36 547.878C1588.66 547.878 1591.81 548.903 1593.82 550.952C1595.87 552.963 1596.89 555.727 1596.89 559.246ZM1624.17 577.516C1624.17 576.24 1623.92 575.099 1623.42 574.094C1622.92 573.089 1622.03 572.238 1620.75 571.542C1619.51 570.846 1617.83 570.324 1615.7 569.976C1613.62 569.628 1610.97 569.454 1607.76 569.454C1608.18 565.742 1608.51 562.223 1608.74 558.898C1608.98 555.534 1609.17 552.17 1609.32 548.806H1629.86V554.722H1615.3C1615.26 555.379 1615.2 556.133 1615.12 556.984C1615.09 557.796 1615.03 558.627 1614.95 559.478C1614.91 560.329 1614.85 561.141 1614.78 561.914C1614.7 562.687 1614.62 563.345 1614.54 563.886C1620.27 564.195 1624.48 565.51 1627.19 567.83C1629.93 570.111 1631.31 573.243 1631.31 577.226C1631.31 579.043 1631 580.725 1630.38 582.272C1629.76 583.819 1628.81 585.153 1627.54 586.274C1626.26 587.395 1624.66 588.285 1622.72 588.942C1620.79 589.561 1618.53 589.87 1615.94 589.87C1614.89 589.87 1613.83 589.793 1612.75 589.638C1611.66 589.483 1610.62 589.29 1609.61 589.058C1608.65 588.865 1607.78 588.652 1607 588.42C1606.23 588.188 1605.65 587.975 1605.26 587.782L1606.6 581.866C1607.41 582.253 1608.57 582.678 1610.08 583.142C1611.63 583.567 1613.5 583.78 1615.7 583.78C1617.21 583.78 1618.51 583.625 1619.59 583.316C1620.67 582.968 1621.54 582.504 1622.2 581.924C1622.9 581.344 1623.4 580.687 1623.71 579.952C1624.02 579.179 1624.17 578.367 1624.17 577.516ZM1659.52 573.978C1659.52 570.846 1658.8 568.41 1657.37 566.67C1655.98 564.93 1653.72 564.06 1650.58 564.06C1649.93 564.06 1649.23 564.099 1648.5 564.176C1647.8 564.215 1647.1 564.331 1646.41 564.524V581.866C1647.03 582.291 1647.84 582.697 1648.84 583.084C1649.89 583.432 1650.99 583.606 1652.15 583.606C1654.7 583.606 1656.56 582.736 1657.72 580.996C1658.92 579.256 1659.52 576.917 1659.52 573.978ZM1666.71 573.862C1666.71 576.182 1666.4 578.309 1665.78 580.242C1665.2 582.175 1664.35 583.838 1663.23 585.23C1662.11 586.622 1660.7 587.705 1658.99 588.478C1657.33 589.251 1655.44 589.638 1653.31 589.638C1651.88 589.638 1650.56 589.464 1649.37 589.116C1648.17 588.768 1647.18 588.381 1646.41 587.956V599.73H1639.39V559.652C1640.82 559.265 1642.58 558.898 1644.67 558.55C1646.76 558.202 1648.96 558.028 1651.28 558.028C1653.68 558.028 1655.82 558.395 1657.72 559.13C1659.61 559.865 1661.22 560.928 1662.53 562.32C1663.89 563.673 1664.91 565.336 1665.61 567.308C1666.34 569.241 1666.71 571.426 1666.71 573.862ZM1684 568.584L1690.43 558.666H1697.8L1687.82 572.992C1689.91 575.699 1691.9 578.444 1693.8 581.228C1695.73 583.973 1697.32 586.564 1698.55 589H1690.96C1690.61 588.265 1690.14 587.434 1689.56 586.506C1689.02 585.539 1688.42 584.553 1687.77 583.548C1687.15 582.504 1686.49 581.479 1685.79 580.474C1685.1 579.469 1684.42 578.521 1683.76 577.632C1682.41 579.372 1681.08 581.305 1679.76 583.432C1678.49 585.52 1677.42 587.376 1676.57 589H1669.38C1669.96 587.84 1670.66 586.603 1671.47 585.288C1672.28 583.973 1673.15 582.639 1674.08 581.286C1675.01 579.894 1675.95 578.521 1676.92 577.168C1677.92 575.776 1678.91 574.461 1679.88 573.224L1669.84 558.666H1677.56L1684 568.584ZM1718.08 557.158C1720.32 556.269 1722.57 555.128 1724.81 553.736C1727.09 552.344 1729.1 550.701 1730.84 548.806H1735.77V589H1728.75V558.202C1727.71 559.014 1726.39 559.807 1724.81 560.58C1723.22 561.353 1721.7 561.991 1720.23 562.494L1718.08 557.158ZM1762.65 543.992C1764.27 543.992 1765.7 544.147 1766.94 544.456C1768.18 544.727 1769.1 544.978 1769.72 545.21L1768.39 551.01C1767.73 550.701 1766.96 550.449 1766.07 550.256C1765.22 550.063 1764.29 549.966 1763.28 549.966C1762.16 549.966 1761.22 550.14 1760.44 550.488C1759.67 550.797 1759.05 551.242 1758.59 551.822C1758.12 552.402 1757.79 553.117 1757.6 553.968C1757.41 554.78 1757.31 555.669 1757.31 556.636V558.666H1768.33V564.524H1757.31V589H1750.29V556.52C1750.29 552.615 1751.32 549.56 1753.37 547.356C1755.42 545.113 1758.51 543.992 1762.65 543.992ZM1790.8 564.988C1790.22 564.795 1789.41 564.601 1788.36 564.408C1787.36 564.176 1786.18 564.06 1784.82 564.06C1784.05 564.06 1783.22 564.137 1782.33 564.292C1781.48 564.447 1780.88 564.582 1780.53 564.698V589H1773.51V560.116C1774.87 559.613 1776.55 559.149 1778.56 558.724C1780.61 558.26 1782.87 558.028 1785.35 558.028C1785.81 558.028 1786.35 558.067 1786.97 558.144C1787.59 558.183 1788.21 558.26 1788.83 558.376C1789.45 558.453 1790.04 558.569 1790.62 558.724C1791.2 558.84 1791.67 558.956 1792.02 559.072L1790.8 564.988ZM1811.2 557.158C1813.44 556.269 1815.68 555.128 1817.93 553.736C1820.21 552.344 1822.22 550.701 1823.96 548.806H1828.89V589H1821.87V558.202C1820.83 559.014 1819.51 559.807 1817.93 560.58C1816.34 561.353 1814.81 561.991 1813.34 562.494L1811.2 557.158ZM1855.76 543.992C1857.39 543.992 1858.82 544.147 1860.06 544.456C1861.29 544.727 1862.22 544.978 1862.84 545.21L1861.51 551.01C1860.85 550.701 1860.07 550.449 1859.19 550.256C1858.33 550.063 1857.41 549.966 1856.4 549.966C1855.28 549.966 1854.33 550.14 1853.56 550.488C1852.79 550.797 1852.17 551.242 1851.7 551.822C1851.24 552.402 1850.91 553.117 1850.72 553.968C1850.52 554.78 1850.43 555.669 1850.43 556.636V558.666H1861.45V564.524H1850.43V589H1843.41V556.52C1843.41 552.615 1844.43 549.56 1846.48 547.356C1848.53 545.113 1851.63 543.992 1855.76 543.992ZM1883.92 564.988C1883.34 564.795 1882.52 564.601 1881.48 564.408C1880.47 564.176 1879.3 564.06 1877.94 564.06C1877.17 564.06 1876.34 564.137 1875.45 564.292C1874.6 564.447 1874 564.582 1873.65 564.698V589H1866.63V560.116C1867.99 559.613 1869.67 559.149 1871.68 558.724C1873.73 558.26 1875.99 558.028 1878.46 558.028C1878.93 558.028 1879.47 558.067 1880.09 558.144C1880.71 558.183 1881.33 558.26 1881.94 558.376C1882.56 558.453 1883.16 558.569 1883.74 558.724C1884.32 558.84 1884.79 558.956 1885.13 559.072L1883.92 564.988Z" fill="#60195E"/>
<line x1="-5.68248e-07" y1="233.5" x2="1121" y2="233.5" stroke="#60195E" stroke-width="13"/>
<line x1="-5.68248e-07" y1="233.5" x2="1121" y2="233.5" stroke="black" stroke-opacity="0.2" stroke-width="13"/>
<path d="M1337 136.5H2408C2417.67 136.5 2425.5 144.335 2425.5 154V487C2425.5 496.665 2417.67 504.5 2408 504.5H1337C1327.34 504.5 1319.5 496.665 1319.5 487V154C1319.5 144.335 1327.34 136.5 1337 136.5Z" fill="#C4C4C4" stroke="#C4C4C4" stroke-width="5"/>
<line x1="1392" y1="134" x2="1392" y2="507" stroke="black" stroke-opacity="0.6" stroke-width="8" stroke-dasharray="16 3"/>
<path d="M1341 614.5H2412C2421.67 614.5 2429.5 622.335 2429.5 632V965C2429.5 974.665 2421.67 982.5 2412 982.5H1341C1331.34 982.5 1323.5 974.665 1323.5 965V632C1323.5 622.335 1331.34 614.5 1341 614.5Z" fill="#C4C4C4" stroke="#C4C4C4" stroke-width="5"/>
<line x1="1392" y1="612" x2="1392" y2="985" stroke="black" stroke-opacity="0.6" stroke-width="8" stroke-dasharray="16 3"/>
<line x1="1945" y1="612" x2="1945" y2="985" stroke="black" stroke-opacity="0.6" stroke-width="8" stroke-dasharray="16 3"/>
<path d="M20 614.5H1091C1100.67 614.5 1108.5 622.335 1108.5 632V965C1108.5 974.665 1100.67 982.5 1091 982.5H20C10.335 982.5 2.5 974.665 2.5 965V632C2.5 622.335 10.335 614.5 20 614.5Z" fill="#C4C4C4" stroke="#C4C4C4" stroke-width="5"/>
<line x1="556" y1="612" x2="556" y2="985" stroke="black" stroke-opacity="0.6" stroke-width="8" stroke-dasharray="16 3"/>
</g>
<defs>
<clipPath id="clip0_96_491">
<rect width="2432" height="1085" fill="white"/>
</clipPath>
</defs>
</svg>
