<svg width="1865" height="626" viewBox="0 0 1865 626" fill="none" xmlns="http://www.w3.org/2000/svg">
<path d="M20 622C17.8232 622 15.7575 621.567 13.8765 620.787L12.3443 624.482C7.45546 622.455 3.54494 618.545 1.51762 613.656L5.21252 612.124C4.43251 610.243 4 608.177 4 606V597.861H0V581.583H4V565.306H0V549.028H4V532.75H0V516.472H4V500.194H0V483.917H4V467.639H0V451.361H4V435.083H0V418.806H4V402.528H0V386.25H4V369.972H0V353.694H4V337.417H0V321.139H4V304.861H0V288.583H4V272.306H0V256.028H4V239.75H0V223.472H4V207.195H0V190.917H4V174.639H0V158.361H4V142.083H0V125.806H4V109.528H0V93.2501H4V76.9723H0V60.6946H4V44.4168H0V28.139H4V20C4 17.8232 4.43251 15.7574 5.21251 13.8764L1.51761 12.3442C3.54492 7.45543 7.45544 3.54491 12.3442 1.51761L13.8765 5.21251C15.7574 4.43251 17.8232 4 20 4H28.0025V0H44.0075V4H60.0126V0H76.0176V4H92.0227V0H108.028V4H124.033V0H140.038V4H156.043V0H172.048V4H188.053V0H204.058V4H220.063V0H236.068V4H252.073V0H268.078V4H284.083V0H300.088V4H316.093V0H332.098V4H348.103V0H364.108V4H380.113V0H396.118V4H412.123V0H428.128V4H444.133V0H460.138V4H476.143V0H492.148V4H508.154V0H524.159V4H540.164V0H556.169V4H572.174V0H588.179V4H604.184V0H620.189V4H636.194V0H652.199V4H668.204V0H684.209V4H700.214V0H716.219V4H732.224V0H748.229V4H764.234V0H780.239V4H796.244V0H812.249V4H828.254V0H844.259V4H860.264V0H876.269V4H892.274V0H908.279V4H924.284V0H940.289V4H956.294V0H972.299V4H988.304V0H1004.31V4H1020.31V0H1036.32V4H1052.32V0H1068.33V4H1084.33V0H1100.34V4H1116.34V0H1132.35V4H1148.35V0H1164.36V4H1180.36V0H1196.37V4H1212.37V0H1228.38V4H1244.38V0H1260.39V4H1276.39V0H1292.4V4H1308.4V0H1324.41V4H1340.41V0H1356.42V4H1372.42V0H1388.43V4H1404.43V0H1420.44V4H1436.44V0H1452.45V4H1468.45V0H1484.46V4H1500.46V0H1516.47V4H1532.47V0H1548.48V4H1564.48V0H1580.49V4H1596.49V0H1612.5V4H1628.5V0H1644.51V4H1660.51V0H1676.52V4H1692.52V0H1708.53V4H1724.53V0H1740.54V4H1756.54V0H1772.55V4H1788.55V0H1804.56V4H1820.56V0H1836.57V4H1844.57C1846.75 4 1848.82 4.43251 1850.7 5.21252L1852.23 1.5176C1857.12 3.5449 1861.03 7.45542 1863.06 12.3442L1859.36 13.8765C1860.14 15.7574 1860.57 17.8232 1860.57 20V28.1389H1864.57V44.4167H1860.57V60.6944H1864.57V76.9722H1860.57V93.25H1864.57V109.528H1860.57V125.806H1864.57V142.083H1860.57V158.361H1864.57V174.639H1860.57V190.917H1864.57V207.194H1860.57V223.472H1864.57V239.75H1860.57V256.028H1864.57V272.306H1860.57V288.583H1864.57V304.861H1860.57V321.139H1864.57V337.417H1860.57V353.694H1864.57V369.972H1860.57V386.25H1864.57V402.528H1860.57V418.805H1864.57V435.083H1860.57V451.361H1864.57V467.639H1860.57V483.917H1864.57V500.194H1860.57V516.472H1864.57V532.75H1860.57V549.028H1864.57V565.305H1860.57V581.583H1864.57V597.861H1860.57V606C1860.57 608.177 1860.14 610.243 1859.36 612.124L1863.06 613.656C1861.03 618.545 1857.12 622.455 1852.23 624.482L1850.7 620.787C1848.82 621.568 1846.75 622 1844.57 622H1836.57V626H1820.57V622H1804.56V626H1788.56V622H1772.55V626H1756.55V622H1740.54V626H1724.54V622H1708.53V626H1692.53V622H1676.52V626H1660.52V622H1644.51V626H1628.51V622H1612.5V626H1596.5V622H1580.49V626H1564.49V622H1548.48V626H1532.48V622H1516.47V626H1500.47V622H1484.46V626H1468.46V622H1452.45V626H1436.45V622H1420.44V626H1404.44V622H1388.43V626H1372.43V622H1356.42V626H1340.42V622H1324.41V626H1308.41V622H1292.4V626H1276.4V622H1260.39V626H1244.39V622H1228.38V626H1212.38V622H1196.37V626H1180.37V622H1164.36V626H1148.35V622H1132.35V626H1116.34V622H1100.34V626H1084.34V622H1068.33V626H1052.33V622H1036.32V626H1020.32V622H1004.31V626H988.305V622H972.3V626H956.295V622H940.29V626H924.285V622H908.28V626H892.275V622H876.27V626H860.265V622H844.26V626H828.255V622H812.25V626H796.245V622H780.24V626H764.235V622H748.23V626H732.225V622H716.22V626H700.215V622H684.21V626H668.205V622H652.2V626H636.195V622H620.19V626H604.185V622H588.18V626H572.175V622H556.17V626H540.165V622H524.16V626H508.155V622H492.15V626H476.145V622H460.14V626H444.135V622H428.13V626H412.125V622H396.12V626H380.115V622H364.11V626H348.105V622H332.1V626H316.095V622H300.09V626H284.085V622H268.08V626H252.075V622H236.07V626H220.065V622H204.06V626H188.055V622H172.05V626H156.045V622H140.04V626H124.035V622H108.03V626H92.0247V622H76.0197V626H60.0146V622H44.0097V626H28.0047V622H20Z" fill="#C4C4C4" stroke="#C4C4C4" stroke-width="8" stroke-dasharray="16 16"/>
<line x1="1864.57" y1="205.393" x2="-5.61568e-07" y2="205.392" stroke="black" stroke-opacity="0.6" stroke-width="8" stroke-dasharray="16 3"/>
<line x1="1864.57" y1="442.934" x2="-5.61568e-07" y2="442.934" stroke="black" stroke-opacity="0.6" stroke-width="8" stroke-dasharray="16 3"/>
<line x1="485.133" y1="626" x2="485.133" y2="-1.74846e-07" stroke="black" stroke-opacity="0.6" stroke-width="8" stroke-dasharray="16 3"/>
<line x1="978.753" y1="626" x2="978.753" y2="-1.74846e-07" stroke="black" stroke-opacity="0.6" stroke-width="8" stroke-dasharray="16 3"/>
<line x1="1467.89" y1="626" x2="1467.89" y2="-1.74846e-07" stroke="black" stroke-opacity="0.6" stroke-width="8" stroke-dasharray="16 3"/>
<rect x="2" y="439" width="1863" height="187" fill="#60195E" fill-opacity="0.54"/>
<rect x="2" y="201" width="975" height="238" fill="#601919" fill-opacity="0.54"/>
<rect x="1472" y="201" width="393" height="238" fill="#192460" fill-opacity="0.54"/>
<rect x="2" width="1863" height="201" fill="#2B6019" fill-opacity="0.54"/>
<path d="M50.466 87V43.152L57.484 41.992V57.014C58.2573 56.7433 59.1467 56.5113 60.152 56.318C61.196 56.1247 62.2207 56.028 63.226 56.028C65.662 56.028 67.6727 56.376 69.258 57.072C70.882 57.7293 72.1773 58.6767 73.144 59.914C74.1107 61.1127 74.7873 62.5627 75.174 64.264C75.5993 65.9653 75.812 67.86 75.812 69.948V87H68.794V71.05C68.794 69.426 68.678 68.0533 68.446 66.932C68.2527 65.772 67.9047 64.844 67.402 64.148C66.938 63.4133 66.3 62.8913 65.488 62.582C64.676 62.234 63.6707 62.06 62.472 62.06C61.544 62.06 60.5967 62.1567 59.63 62.35C58.6633 62.5433 57.948 62.7173 57.484 62.872V87H50.466ZM82.5418 71.978C82.5418 69.31 82.9285 66.9707 83.7018 64.96C84.5138 62.9493 85.5771 61.2867 86.8918 59.972C88.2065 58.6187 89.7145 57.6133 91.4158 56.956C93.1171 56.26 94.8571 55.912 96.6358 55.912C100.812 55.912 104.06 57.2073 106.38 59.798C108.738 62.3887 109.918 66.2553 109.918 71.398C109.918 71.7847 109.898 72.2293 109.86 72.732C109.86 73.196 109.84 73.6213 109.802 74.008H89.7918C89.9851 76.444 90.8358 78.3387 92.3438 79.692C93.8905 81.0067 96.1138 81.664 99.0138 81.664C100.715 81.664 102.262 81.5093 103.654 81.2C105.084 80.8907 106.206 80.562 107.018 80.214L107.946 85.956C107.559 86.1493 107.018 86.362 106.322 86.594C105.664 86.7873 104.891 86.9613 104.002 87.116C103.151 87.3093 102.223 87.464 101.218 87.58C100.212 87.696 99.1878 87.754 98.1438 87.754C95.4758 87.754 93.1558 87.3673 91.1838 86.594C89.2118 85.782 87.5878 84.68 86.3118 83.288C85.0358 81.8573 84.0885 80.1947 83.4698 78.3C82.8511 76.3667 82.5418 74.2593 82.5418 71.978ZM102.9 68.846C102.9 67.8793 102.764 66.9707 102.494 66.12C102.223 65.2307 101.817 64.4767 101.276 63.858C100.773 63.2007 100.135 62.698 99.3618 62.35C98.6271 61.9633 97.7378 61.77 96.6938 61.77C95.6111 61.77 94.6638 61.9827 93.8518 62.408C93.0398 62.7947 92.3438 63.3167 91.7638 63.974C91.2225 64.6313 90.7971 65.3853 90.4878 66.236C90.1785 67.0867 89.9658 67.9567 89.8498 68.846H102.9ZM128.031 82.07C130.196 82.07 131.839 81.954 132.961 81.722V73.95C132.574 73.834 132.013 73.718 131.279 73.602C130.544 73.486 129.732 73.428 128.843 73.428C128.069 73.428 127.277 73.486 126.465 73.602C125.691 73.718 124.976 73.9307 124.319 74.24C123.7 74.5493 123.197 74.994 122.811 75.574C122.424 76.1153 122.231 76.8113 122.231 77.662C122.231 79.3247 122.753 80.4847 123.797 81.142C124.841 81.7607 126.252 82.07 128.031 82.07ZM127.451 55.912C129.771 55.912 131.723 56.202 133.309 56.782C134.894 57.362 136.151 58.174 137.079 59.218C138.045 60.262 138.722 61.538 139.109 63.046C139.534 64.5153 139.747 66.1393 139.747 67.918V86.304C138.664 86.536 137.021 86.8067 134.817 87.116C132.651 87.464 130.196 87.638 127.451 87.638C125.633 87.638 123.971 87.464 122.463 87.116C120.955 86.768 119.659 86.2073 118.577 85.434C117.533 84.6607 116.701 83.6553 116.083 82.418C115.503 81.1807 115.213 79.6533 115.213 77.836C115.213 76.096 115.541 74.6267 116.199 73.428C116.895 72.2293 117.823 71.2627 118.983 70.528C120.143 69.7547 121.477 69.2133 122.985 68.904C124.531 68.556 126.136 68.382 127.799 68.382C128.572 68.382 129.384 68.44 130.235 68.556C131.085 68.6333 131.994 68.788 132.961 69.02V67.86C132.961 67.048 132.864 66.2747 132.671 65.54C132.477 64.8053 132.129 64.1673 131.627 63.626C131.163 63.046 130.525 62.6013 129.713 62.292C128.939 61.9827 127.953 61.828 126.755 61.828C125.131 61.828 123.642 61.944 122.289 62.176C120.935 62.408 119.833 62.6787 118.983 62.988L118.113 57.304C119.002 56.9947 120.297 56.6853 121.999 56.376C123.7 56.0667 125.517 55.912 127.451 55.912ZM153.851 71.746C153.851 74.8393 154.586 77.2753 156.055 79.054C157.524 80.794 159.554 81.664 162.145 81.664C163.266 81.664 164.214 81.6253 164.987 81.548C165.799 81.432 166.456 81.316 166.959 81.2V63.8C166.34 63.3747 165.509 62.988 164.465 62.64C163.46 62.2533 162.377 62.06 161.217 62.06C158.665 62.06 156.79 62.93 155.591 64.67C154.431 66.41 153.851 68.7687 153.851 71.746ZM173.977 86.072C172.585 86.4973 170.826 86.884 168.699 87.232C166.611 87.58 164.407 87.754 162.087 87.754C159.69 87.754 157.544 87.3867 155.649 86.652C153.754 85.9173 152.13 84.8733 150.777 83.52C149.462 82.128 148.438 80.4653 147.703 78.532C147.007 76.56 146.659 74.356 146.659 71.92C146.659 69.5227 146.949 67.3573 147.529 65.424C148.148 63.452 149.037 61.77 150.197 60.378C151.357 58.986 152.768 57.9227 154.431 57.188C156.094 56.4147 158.008 56.028 160.173 56.028C161.642 56.028 162.938 56.202 164.059 56.55C165.18 56.898 166.147 57.2847 166.959 57.71V43.152L173.977 41.992V86.072ZM181.21 71.978C181.21 69.31 181.596 66.9707 182.37 64.96C183.182 62.9493 184.245 61.2867 185.56 59.972C186.874 58.6187 188.382 57.6133 190.084 56.956C191.785 56.26 193.525 55.912 195.304 55.912C199.48 55.912 202.728 57.2073 205.048 59.798C207.406 62.3887 208.586 66.2553 208.586 71.398C208.586 71.7847 208.566 72.2293 208.528 72.732C208.528 73.196 208.508 73.6213 208.47 74.008H188.46C188.653 76.444 189.504 78.3387 191.012 79.692C192.558 81.0067 194.782 81.664 197.682 81.664C199.383 81.664 200.93 81.5093 202.322 81.2C203.752 80.8907 204.874 80.562 205.686 80.214L206.614 85.956C206.227 86.1493 205.686 86.362 204.99 86.594C204.332 86.7873 203.559 86.9613 202.67 87.116C201.819 87.3093 200.891 87.464 199.886 87.58C198.88 87.696 197.856 87.754 196.812 87.754C194.144 87.754 191.824 87.3673 189.852 86.594C187.88 85.782 186.256 84.68 184.98 83.288C183.704 81.8573 182.756 80.1947 182.138 78.3C181.519 76.3667 181.21 74.2593 181.21 71.978ZM201.568 68.846C201.568 67.8793 201.432 66.9707 201.162 66.12C200.891 65.2307 200.485 64.4767 199.944 63.858C199.441 63.2007 198.803 62.698 198.03 62.35C197.295 61.9633 196.406 61.77 195.362 61.77C194.279 61.77 193.332 61.9827 192.52 62.408C191.708 62.7947 191.012 63.3167 190.432 63.974C189.89 64.6313 189.465 65.3853 189.156 66.236C188.846 67.0867 188.634 67.9567 188.518 68.846H201.568ZM233.311 62.988C232.731 62.7947 231.919 62.6013 230.875 62.408C229.869 62.176 228.69 62.06 227.337 62.06C226.563 62.06 225.732 62.1373 224.843 62.292C223.992 62.4467 223.393 62.582 223.045 62.698V87H216.027V58.116C217.38 57.6133 219.062 57.1493 221.073 56.724C223.122 56.26 225.384 56.028 227.859 56.028C228.323 56.028 228.864 56.0667 229.483 56.144C230.101 56.1827 230.72 56.26 231.339 56.376C231.957 56.4533 232.557 56.5693 233.137 56.724C233.717 56.84 234.181 56.956 234.529 57.072L233.311 62.988Z" fill="#0E3519"/>
<path d="M67.75 268.05C67.75 264.879 67.344 262.598 66.532 261.206C65.7587 259.775 64.2893 259.06 62.124 259.06C61.3507 259.06 60.5 259.118 59.572 259.234C58.644 259.35 57.948 259.447 57.484 259.524V284H50.466V254.652C51.8193 254.265 53.5787 253.898 55.744 253.55C57.948 253.202 60.268 253.028 62.704 253.028C64.792 253.028 66.4933 253.299 67.808 253.84C69.1613 254.381 70.2827 255.097 71.172 255.986C71.5973 255.677 72.1387 255.348 72.796 255C73.4533 254.652 74.188 254.343 75 254.072C75.812 253.763 76.6627 253.511 77.552 253.318C78.48 253.125 79.408 253.028 80.336 253.028C82.6947 253.028 84.628 253.376 86.136 254.072C87.6827 254.729 88.8813 255.677 89.732 256.914C90.6213 258.113 91.2207 259.582 91.53 261.322C91.878 263.023 92.052 264.899 92.052 266.948V284H85.034V268.05C85.034 264.879 84.6473 262.598 83.874 261.206C83.1007 259.775 81.612 259.06 79.408 259.06C78.2867 259.06 77.2233 259.253 76.218 259.64C75.2127 259.988 74.4587 260.336 73.956 260.684C74.2653 261.651 74.478 262.675 74.594 263.758C74.71 264.841 74.768 266.001 74.768 267.238V284H67.75V268.05ZM111.322 279.07C113.487 279.07 115.13 278.954 116.252 278.722V270.95C115.865 270.834 115.304 270.718 114.57 270.602C113.835 270.486 113.023 270.428 112.134 270.428C111.36 270.428 110.568 270.486 109.756 270.602C108.982 270.718 108.267 270.931 107.61 271.24C106.991 271.549 106.488 271.994 106.102 272.574C105.715 273.115 105.522 273.811 105.522 274.662C105.522 276.325 106.044 277.485 107.088 278.142C108.132 278.761 109.543 279.07 111.322 279.07ZM110.742 252.912C113.062 252.912 115.014 253.202 116.6 253.782C118.185 254.362 119.442 255.174 120.37 256.218C121.336 257.262 122.013 258.538 122.4 260.046C122.825 261.515 123.038 263.139 123.038 264.918V283.304C121.955 283.536 120.312 283.807 118.108 284.116C115.942 284.464 113.487 284.638 110.742 284.638C108.924 284.638 107.262 284.464 105.754 284.116C104.246 283.768 102.95 283.207 101.868 282.434C100.824 281.661 99.9923 280.655 99.3736 279.418C98.7936 278.181 98.5036 276.653 98.5036 274.836C98.5036 273.096 98.8323 271.627 99.4896 270.428C100.186 269.229 101.114 268.263 102.274 267.528C103.434 266.755 104.768 266.213 106.276 265.904C107.822 265.556 109.427 265.382 111.09 265.382C111.863 265.382 112.675 265.44 113.526 265.556C114.376 265.633 115.285 265.788 116.252 266.02V264.86C116.252 264.048 116.155 263.275 115.962 262.54C115.768 261.805 115.42 261.167 114.918 260.626C114.454 260.046 113.816 259.601 113.004 259.292C112.23 258.983 111.244 258.828 110.046 258.828C108.422 258.828 106.933 258.944 105.58 259.176C104.226 259.408 103.124 259.679 102.274 259.988L101.404 254.304C102.293 253.995 103.588 253.685 105.29 253.376C106.991 253.067 108.808 252.912 110.742 252.912ZM138.708 284H131.69V253.666H138.708V284ZM139.462 244.792C139.462 246.107 139.037 247.151 138.186 247.924C137.335 248.697 136.33 249.084 135.17 249.084C133.971 249.084 132.947 248.697 132.096 247.924C131.245 247.151 130.82 246.107 130.82 244.792C130.82 243.439 131.245 242.375 132.096 241.602C132.947 240.829 133.971 240.442 135.17 240.442C136.33 240.442 137.335 240.829 138.186 241.602C139.037 242.375 139.462 243.439 139.462 244.792ZM147.661 254.652C149.015 254.265 150.774 253.898 152.939 253.55C155.105 253.202 157.502 253.028 160.131 253.028C162.606 253.028 164.675 253.376 166.337 254.072C168 254.729 169.315 255.677 170.281 256.914C171.287 258.113 171.983 259.582 172.369 261.322C172.795 263.023 173.007 264.899 173.007 266.948V284H165.989V268.05C165.989 266.426 165.873 265.053 165.641 263.932C165.448 262.772 165.1 261.844 164.597 261.148C164.133 260.413 163.476 259.891 162.625 259.582C161.813 259.234 160.808 259.06 159.609 259.06C158.72 259.06 157.792 259.118 156.825 259.234C155.859 259.35 155.143 259.447 154.679 259.524V284H147.661V254.652Z" fill="#890000"/>
<path d="M1507.06 274.954C1508.92 274.954 1510.27 274.741 1511.12 274.316C1511.97 273.852 1512.4 273.079 1512.4 271.996C1512.4 270.991 1511.94 270.159 1511.01 269.502C1510.12 268.845 1508.63 268.129 1506.54 267.356C1505.27 266.892 1504.09 266.409 1503 265.906C1501.96 265.365 1501.05 264.746 1500.28 264.05C1499.5 263.354 1498.89 262.523 1498.42 261.556C1498 260.551 1497.78 259.333 1497.78 257.902C1497.78 255.118 1498.81 252.933 1500.86 251.348C1502.91 249.724 1505.69 248.912 1509.21 248.912C1510.99 248.912 1512.69 249.086 1514.31 249.434C1515.94 249.743 1517.16 250.053 1517.97 250.362L1516.69 256.046C1515.92 255.698 1514.93 255.389 1513.73 255.118C1512.54 254.809 1511.14 254.654 1509.56 254.654C1508.13 254.654 1506.97 254.905 1506.08 255.408C1505.19 255.872 1504.74 256.607 1504.74 257.612C1504.74 258.115 1504.82 258.559 1504.98 258.946C1505.17 259.333 1505.48 259.7 1505.9 260.048C1506.33 260.357 1506.89 260.686 1507.59 261.034C1508.28 261.343 1509.13 261.672 1510.14 262.02C1511.8 262.639 1513.21 263.257 1514.37 263.876C1515.53 264.456 1516.48 265.133 1517.21 265.906C1517.99 266.641 1518.55 267.491 1518.9 268.458C1519.24 269.425 1519.42 270.585 1519.42 271.938C1519.42 274.838 1518.34 277.042 1516.17 278.55C1514.04 280.019 1510.99 280.754 1507.01 280.754C1504.34 280.754 1502.19 280.522 1500.57 280.058C1498.94 279.633 1497.8 279.285 1497.15 279.014L1498.36 273.156C1499.41 273.581 1500.65 273.987 1502.08 274.374C1503.55 274.761 1505.21 274.954 1507.06 274.954ZM1533.05 280H1526.03V249.666H1533.05V280ZM1533.8 240.792C1533.8 242.107 1533.38 243.151 1532.53 243.924C1531.68 244.697 1530.67 245.084 1529.51 245.084C1528.31 245.084 1527.29 244.697 1526.44 243.924C1525.59 243.151 1525.16 242.107 1525.16 240.792C1525.16 239.439 1525.59 238.375 1526.44 237.602C1527.29 236.829 1528.31 236.442 1529.51 236.442C1530.67 236.442 1531.68 236.829 1532.53 237.602C1533.38 238.375 1533.8 239.439 1533.8 240.792ZM1547.51 264.746C1547.51 267.839 1548.25 270.275 1549.72 272.054C1551.19 273.794 1553.22 274.664 1555.81 274.664C1556.93 274.664 1557.88 274.625 1558.65 274.548C1559.46 274.432 1560.12 274.316 1560.62 274.2V256.8C1560 256.375 1559.17 255.988 1558.13 255.64C1557.12 255.253 1556.04 255.06 1554.88 255.06C1552.33 255.06 1550.45 255.93 1549.25 257.67C1548.09 259.41 1547.51 261.769 1547.51 264.746ZM1567.64 279.072C1566.25 279.497 1564.49 279.884 1562.36 280.232C1560.27 280.58 1558.07 280.754 1555.75 280.754C1553.35 280.754 1551.21 280.387 1549.31 279.652C1547.42 278.917 1545.79 277.873 1544.44 276.52C1543.12 275.128 1542.1 273.465 1541.37 271.532C1540.67 269.56 1540.32 267.356 1540.32 264.92C1540.32 262.523 1540.61 260.357 1541.19 258.424C1541.81 256.452 1542.7 254.77 1543.86 253.378C1545.02 251.986 1546.43 250.923 1548.09 250.188C1549.76 249.415 1551.67 249.028 1553.84 249.028C1555.3 249.028 1556.6 249.202 1557.72 249.55C1558.84 249.898 1559.81 250.285 1560.62 250.71V236.152L1567.64 234.992V279.072ZM1574.87 264.978C1574.87 262.31 1575.26 259.971 1576.03 257.96C1576.84 255.949 1577.91 254.287 1579.22 252.972C1580.54 251.619 1582.04 250.613 1583.75 249.956C1585.45 249.26 1587.19 248.912 1588.97 248.912C1593.14 248.912 1596.39 250.207 1598.71 252.798C1601.07 255.389 1602.25 259.255 1602.25 264.398C1602.25 264.785 1602.23 265.229 1602.19 265.732C1602.19 266.196 1602.17 266.621 1602.13 267.008H1582.12C1582.32 269.444 1583.17 271.339 1584.67 272.692C1586.22 274.007 1588.44 274.664 1591.34 274.664C1593.05 274.664 1594.59 274.509 1595.98 274.2C1597.41 273.891 1598.54 273.562 1599.35 273.214L1600.28 278.956C1599.89 279.149 1599.35 279.362 1598.65 279.594C1597.99 279.787 1597.22 279.961 1596.33 280.116C1595.48 280.309 1594.55 280.464 1593.55 280.58C1592.54 280.696 1591.52 280.754 1590.47 280.754C1587.81 280.754 1585.49 280.367 1583.51 279.594C1581.54 278.782 1579.92 277.68 1578.64 276.288C1577.37 274.857 1576.42 273.195 1575.8 271.3C1575.18 269.367 1574.87 267.259 1574.87 264.978ZM1595.23 261.846C1595.23 260.879 1595.09 259.971 1594.82 259.12C1594.55 258.231 1594.15 257.477 1593.61 256.858C1593.1 256.201 1592.47 255.698 1591.69 255.35C1590.96 254.963 1590.07 254.77 1589.02 254.77C1587.94 254.77 1586.99 254.983 1586.18 255.408C1585.37 255.795 1584.67 256.317 1584.09 256.974C1583.55 257.631 1583.13 258.385 1582.82 259.236C1582.51 260.087 1582.3 260.957 1582.18 261.846H1595.23ZM1629.81 264.746C1629.81 261.769 1629.22 259.41 1628.02 257.67C1626.86 255.93 1625 255.06 1622.45 255.06C1621.29 255.06 1620.19 255.234 1619.14 255.582C1618.14 255.93 1617.33 256.317 1616.71 256.742V274.2C1617.21 274.316 1617.85 274.432 1618.62 274.548C1619.43 274.625 1620.4 274.664 1621.52 274.664C1624.11 274.664 1626.14 273.794 1627.61 272.054C1629.08 270.275 1629.81 267.839 1629.81 264.746ZM1637.01 264.862C1637.01 267.298 1636.64 269.502 1635.9 271.474C1635.21 273.407 1634.18 275.07 1632.83 276.462C1631.52 277.854 1629.91 278.917 1628.02 279.652C1626.12 280.387 1623.98 280.754 1621.58 280.754C1619.26 280.754 1617.04 280.58 1614.91 280.232C1612.82 279.884 1611.08 279.497 1609.69 279.072V236.152L1616.71 234.992V250.71C1617.52 250.285 1618.5 249.898 1619.66 249.55C1620.86 249.202 1622.18 249.028 1623.61 249.028C1625.74 249.028 1627.63 249.415 1629.29 250.188C1630.99 250.923 1632.41 251.986 1633.53 253.378C1634.65 254.77 1635.5 256.452 1636.08 258.424C1636.7 260.357 1637.01 262.503 1637.01 264.862ZM1654.91 275.07C1657.08 275.07 1658.72 274.954 1659.84 274.722V266.95C1659.45 266.834 1658.89 266.718 1658.16 266.602C1657.42 266.486 1656.61 266.428 1655.72 266.428C1654.95 266.428 1654.16 266.486 1653.35 266.602C1652.57 266.718 1651.86 266.931 1651.2 267.24C1650.58 267.549 1650.08 267.994 1649.69 268.574C1649.3 269.115 1649.11 269.811 1649.11 270.662C1649.11 272.325 1649.63 273.485 1650.68 274.142C1651.72 274.761 1653.13 275.07 1654.91 275.07ZM1654.33 248.912C1656.65 248.912 1658.6 249.202 1660.19 249.782C1661.77 250.362 1663.03 251.174 1663.96 252.218C1664.93 253.262 1665.6 254.538 1665.99 256.046C1666.41 257.515 1666.63 259.139 1666.63 260.918V279.304C1665.54 279.536 1663.9 279.807 1661.7 280.116C1659.53 280.464 1657.08 280.638 1654.33 280.638C1652.51 280.638 1650.85 280.464 1649.34 280.116C1647.84 279.768 1646.54 279.207 1645.46 278.434C1644.41 277.661 1643.58 276.655 1642.96 275.418C1642.38 274.181 1642.09 272.653 1642.09 270.836C1642.09 269.096 1642.42 267.627 1643.08 266.428C1643.78 265.229 1644.7 264.263 1645.86 263.528C1647.02 262.755 1648.36 262.213 1649.87 261.904C1651.41 261.556 1653.02 261.382 1654.68 261.382C1655.45 261.382 1656.26 261.44 1657.12 261.556C1657.97 261.633 1658.87 261.788 1659.84 262.02V260.86C1659.84 260.048 1659.74 259.275 1659.55 258.54C1659.36 257.805 1659.01 257.167 1658.51 256.626C1658.04 256.046 1657.41 255.601 1656.59 255.292C1655.82 254.983 1654.83 254.828 1653.64 254.828C1652.01 254.828 1650.52 254.944 1649.17 255.176C1647.82 255.408 1646.71 255.679 1645.86 255.988L1644.99 250.304C1645.88 249.995 1647.18 249.685 1648.88 249.376C1650.58 249.067 1652.4 248.912 1654.33 248.912ZM1692.51 255.988C1691.93 255.795 1691.11 255.601 1690.07 255.408C1689.06 255.176 1687.89 255.06 1686.53 255.06C1685.76 255.06 1684.93 255.137 1684.04 255.292C1683.19 255.447 1682.59 255.582 1682.24 255.698V280H1675.22V251.116C1676.58 250.613 1678.26 250.149 1680.27 249.724C1682.32 249.26 1684.58 249.028 1687.05 249.028C1687.52 249.028 1688.06 249.067 1688.68 249.144C1689.3 249.183 1689.92 249.26 1690.53 249.376C1691.15 249.453 1691.75 249.569 1692.33 249.724C1692.91 249.84 1693.38 249.956 1693.72 250.072L1692.51 255.988Z" fill="#130089"/>
<path d="M62.82 470.992C64.444 470.992 65.8747 471.147 67.112 471.456C68.3493 471.727 69.2773 471.978 69.896 472.21L68.562 478.01C67.9047 477.701 67.1313 477.449 66.242 477.256C65.3913 477.063 64.4633 476.966 63.458 476.966C62.3367 476.966 61.3893 477.14 60.616 477.488C59.8427 477.797 59.224 478.242 58.76 478.822C58.296 479.402 57.9673 480.117 57.774 480.968C57.5807 481.78 57.484 482.669 57.484 483.636V485.666H68.504V491.524H57.484V516H50.466V483.52C50.466 479.615 51.4907 476.56 53.54 474.356C55.5893 472.113 58.6827 470.992 62.82 470.992ZM100.556 500.804C100.556 503.201 100.208 505.386 99.5123 507.358C98.8163 509.33 97.8303 511.012 96.5543 512.404C95.2783 513.796 93.7316 514.879 91.9143 515.652C90.1356 516.425 88.1636 516.812 85.9983 516.812C83.8329 516.812 81.8609 516.425 80.0823 515.652C78.3036 514.879 76.7763 513.796 75.5003 512.404C74.2243 511.012 73.2189 509.33 72.4842 507.358C71.7883 505.386 71.4403 503.201 71.4403 500.804C71.4403 498.407 71.7883 496.241 72.4842 494.308C73.2189 492.336 74.2243 490.654 75.5003 489.262C76.8149 487.87 78.3616 486.807 80.1403 486.072C81.9189 485.299 83.8716 484.912 85.9983 484.912C88.1249 484.912 90.0776 485.299 91.8563 486.072C93.6736 486.807 95.2203 487.87 96.4963 489.262C97.7723 490.654 98.7583 492.336 99.4543 494.308C100.189 496.241 100.556 498.407 100.556 500.804ZM93.3643 500.804C93.3643 497.788 92.7069 495.41 91.3923 493.67C90.1163 491.891 88.3183 491.002 85.9983 491.002C83.6783 491.002 81.8609 491.891 80.5463 493.67C79.2703 495.41 78.6323 497.788 78.6323 500.804C78.6323 503.859 79.2703 506.275 80.5463 508.054C81.8609 509.833 83.6783 510.722 85.9983 510.722C88.3183 510.722 90.1163 509.833 91.3923 508.054C92.7069 506.275 93.3643 503.859 93.3643 500.804ZM135.22 500.804C135.22 503.201 134.872 505.386 134.176 507.358C133.48 509.33 132.494 511.012 131.218 512.404C129.942 513.796 128.396 514.879 126.578 515.652C124.8 516.425 122.828 516.812 120.662 516.812C118.497 516.812 116.525 516.425 114.746 515.652C112.968 514.879 111.44 513.796 110.164 512.404C108.888 511.012 107.883 509.33 107.148 507.358C106.452 505.386 106.104 503.201 106.104 500.804C106.104 498.407 106.452 496.241 107.148 494.308C107.883 492.336 108.888 490.654 110.164 489.262C111.479 487.87 113.026 486.807 114.804 486.072C116.583 485.299 118.536 484.912 120.662 484.912C122.789 484.912 124.742 485.299 126.52 486.072C128.338 486.807 129.884 487.87 131.16 489.262C132.436 490.654 133.422 492.336 134.118 494.308C134.853 496.241 135.22 498.407 135.22 500.804ZM128.028 500.804C128.028 497.788 127.371 495.41 126.056 493.67C124.78 491.891 122.982 491.002 120.662 491.002C118.342 491.002 116.525 491.891 115.21 493.67C113.934 495.41 113.296 497.788 113.296 500.804C113.296 503.859 113.934 506.275 115.21 508.054C116.525 509.833 118.342 510.722 120.662 510.722C122.982 510.722 124.78 509.833 126.056 508.054C127.371 506.275 128.028 503.859 128.028 500.804ZM142.102 477.662L149.12 476.502V485.666H159.908V491.524H149.12V503.878C149.12 506.314 149.507 508.054 150.28 509.098C151.054 510.142 152.368 510.664 154.224 510.664C155.5 510.664 156.622 510.529 157.588 510.258C158.594 509.987 159.386 509.736 159.966 509.504L161.126 515.072C160.314 515.42 159.251 515.768 157.936 516.116C156.622 516.503 155.075 516.696 153.296 516.696C151.131 516.696 149.314 516.406 147.844 515.826C146.414 515.246 145.273 514.415 144.422 513.332C143.572 512.211 142.972 510.877 142.624 509.33C142.276 507.745 142.102 505.947 142.102 503.936V477.662ZM164.501 500.978C164.501 498.31 164.887 495.971 165.661 493.96C166.473 491.949 167.536 490.287 168.851 488.972C170.165 487.619 171.673 486.613 173.375 485.956C175.076 485.26 176.816 484.912 178.595 484.912C182.771 484.912 186.019 486.207 188.339 488.798C190.697 491.389 191.877 495.255 191.877 500.398C191.877 500.785 191.857 501.229 191.819 501.732C191.819 502.196 191.799 502.621 191.761 503.008H171.751C171.944 505.444 172.795 507.339 174.303 508.692C175.849 510.007 178.073 510.664 180.973 510.664C182.674 510.664 184.221 510.509 185.613 510.2C187.043 509.891 188.165 509.562 188.977 509.214L189.905 514.956C189.518 515.149 188.977 515.362 188.281 515.594C187.623 515.787 186.85 515.961 185.961 516.116C185.11 516.309 184.182 516.464 183.177 516.58C182.171 516.696 181.147 516.754 180.103 516.754C177.435 516.754 175.115 516.367 173.143 515.594C171.171 514.782 169.547 513.68 168.271 512.288C166.995 510.857 166.047 509.195 165.429 507.3C164.81 505.367 164.501 503.259 164.501 500.978ZM184.859 497.846C184.859 496.879 184.723 495.971 184.453 495.12C184.182 494.231 183.776 493.477 183.235 492.858C182.732 492.201 182.094 491.698 181.321 491.35C180.586 490.963 179.697 490.77 178.653 490.77C177.57 490.77 176.623 490.983 175.811 491.408C174.999 491.795 174.303 492.317 173.723 492.974C173.181 493.631 172.756 494.385 172.447 495.236C172.137 496.087 171.925 496.957 171.809 497.846H184.859ZM216.602 491.988C216.022 491.795 215.21 491.601 214.166 491.408C213.16 491.176 211.981 491.06 210.628 491.06C209.854 491.06 209.023 491.137 208.134 491.292C207.283 491.447 206.684 491.582 206.336 491.698V516H199.318V487.116C200.671 486.613 202.353 486.149 204.364 485.724C206.413 485.26 208.675 485.028 211.15 485.028C211.614 485.028 212.155 485.067 212.774 485.144C213.392 485.183 214.011 485.26 214.63 485.376C215.248 485.453 215.848 485.569 216.428 485.724C217.008 485.84 217.472 485.956 217.82 486.072L216.602 491.988Z" fill="#60195E"/>
</svg>
