<svg width="1869" height="279" viewBox="0 0 1869 279" fill="none" xmlns="http://www.w3.org/2000/svg">
<path d="M20 275C17.8232 275 15.7574 274.568 13.8765 273.787L12.3442 277.482C7.45543 275.455 3.54492 271.545 1.51761 266.656L5.21251 265.124C4.43251 263.243 4 261.177 4 259V250.464H0V233.393H4V216.321H0V199.25H4V182.179H0V165.107H4V148.036H0V130.964H4V113.893H0V96.8214H4V79.75H0V62.6786H4V45.6072H0V28.5357H4V20C4 17.8232 4.43251 15.7574 5.21251 13.8765L1.51761 12.3442C3.54492 7.45544 7.45544 3.54492 12.3442 1.51761L13.8765 5.21251C15.7574 4.43251 17.8232 4 20 4H27.9102V0H43.7305V4H59.5508V0H75.3711V4H91.1914V0H107.012V4H122.832V0H138.652V4H154.473V0H170.293V4H186.113V0H201.934V4H217.754V0H233.574V4H249.395V0H265.215V4H281.035V0H296.856V4H312.676V0H328.496V4H344.317V0H360.137V4H375.957V0H391.778V4H407.598V0H423.418V4H439.238V0H455.059V4H470.879V0H486.699V4H502.52V0H518.34V4H534.16V0H549.981V4H565.801V0H581.621V4H597.442V0H613.262V4H629.082V0H644.903V4H660.723V0H676.543V4H692.363V0H708.184V4H724.004V0H739.824V4H755.645V0H771.465V4H787.285V0H803.106V4H811.016C813.193 4 815.259 4.43251 817.14 5.21251L818.672 1.51761C823.561 3.54492 827.471 7.45543 829.499 12.3442L825.804 13.8765C826.584 15.7574 827.016 17.8232 827.016 20V28.5357H831.016V45.6071H827.016V62.6786H831.016V79.75H827.016V96.8214H831.016V113.893H827.016V130.964H831.016V148.036H827.016V165.107H831.016V182.179H827.016V199.25H831.016V216.321H827.016V233.393H831.016V250.464H827.016V259C827.016 261.177 826.584 263.243 825.804 265.124L829.499 266.656C827.471 271.545 823.561 275.455 818.672 277.482L817.14 273.787C815.259 274.568 813.193 275 811.016 275H803.106V279H787.286V275H771.465V279H755.645V275H739.825V279H724.004V275H708.184V279H692.364V275H676.543V279H660.723V275H644.903V279H629.082V275H613.262V279H597.442V275H581.621V279H565.801V275H549.981V279H534.16V275H518.34V279H502.52V275H486.7V279H470.879V275H455.059V279H439.239V275H423.418V279H407.598V275H391.778V279H375.957V275H360.137V279H344.317V275H328.496V279H312.676V275H296.856V279H281.035V275H265.215V279H249.395V275H233.575V279H217.754V275H201.934V279H186.114V275H170.293V279H154.473V275H138.653V279H122.832V275H107.012V279H91.1917V275H75.3714V279H59.5511V275H43.7308V279H27.9105V275H20Z" fill="#C4C4C4" stroke="#C4C4C4" stroke-width="8" stroke-dasharray="16 16"/>
<line x1="831.016" y1="93.7578" x2="-5.61568e-07" y2="93.7578" stroke="black" stroke-opacity="0.6" stroke-width="8" stroke-dasharray="16 3"/>
<line x1="831.016" y1="199.627" x2="-5.61568e-07" y2="199.627" stroke="black" stroke-opacity="0.6" stroke-width="8" stroke-dasharray="16 3"/>
<line x1="214" y1="279" x2="214" y2="-1.74846e-07" stroke="black" stroke-opacity="0.6" stroke-width="8" stroke-dasharray="16 3"/>
<line x1="434" y1="279" x2="434" y2="-1.74846e-07" stroke="black" stroke-opacity="0.6" stroke-width="8" stroke-dasharray="16 3"/>
<line x1="652" y1="279" x2="652" y2="-1.74846e-07" stroke="black" stroke-opacity="0.6" stroke-width="8" stroke-dasharray="16 3"/>
<rect x="656" y="98" width="175" height="98" fill="#60195E" fill-opacity="0.54"/>
<path d="M1057 275C1054.82 275 1052.76 274.568 1050.88 273.787L1049.34 277.482C1044.46 275.455 1040.54 271.545 1038.52 266.656L1042.21 265.124C1041.43 263.243 1041 261.177 1041 259V250.464H1037V233.393H1041V216.321H1037V199.25H1041V182.179H1037V165.107H1041V148.036H1037V130.964H1041V113.893H1037V96.8214H1041V79.75H1037V62.6786H1041V45.6072H1037V28.5357H1041V20C1041 17.8232 1041.43 15.7574 1042.21 13.8765L1038.52 12.3442C1040.54 7.45544 1044.46 3.54492 1049.34 1.51761L1050.88 5.21251C1052.76 4.43251 1054.82 4 1057 4H1064.91V0H1080.73V4H1096.55V0H1112.37V4H1128.19V0H1144.01V4H1159.83V0H1175.65V4H1191.47V0H1207.29V4H1223.11V0H1238.93V4H1254.75V0H1270.57V4H1286.39V0H1302.22V4H1318.04V0H1333.86V4H1349.68V0H1365.5V4H1381.32V0H1397.14V4H1412.96V0H1428.78V4H1444.6V0H1460.42V4H1476.24V0H1492.06V4H1507.88V0H1523.7V4H1539.52V0H1555.34V4H1571.16V0H1586.98V4H1602.8V0H1618.62V4H1634.44V0H1650.26V4H1666.08V0H1681.9V4H1697.72V0H1713.54V4H1729.36V0H1745.18V4H1761V0H1776.82V4H1792.64V0H1808.47V4H1824.29V0H1840.11V4H1848.02C1850.19 4 1852.26 4.43251 1854.14 5.21251L1855.67 1.51761C1860.56 3.54492 1864.47 7.45543 1866.5 12.3442L1862.8 13.8765C1863.58 15.7574 1864.02 17.8232 1864.02 20V28.5357H1868.02V45.6071H1864.02V62.6786H1868.02V79.75H1864.02V96.8214H1868.02V113.893H1864.02V130.964H1868.02V148.036H1864.02V165.107H1868.02V182.179H1864.02V199.25H1868.02V216.321H1864.02V233.393H1868.02V250.464H1864.02V259C1864.02 261.177 1863.58 263.243 1862.8 265.124L1866.5 266.656C1864.47 271.545 1860.56 275.455 1855.67 277.482L1854.14 273.787C1852.26 274.568 1850.19 275 1848.02 275H1840.11V279H1824.29V275H1808.47V279H1792.64V275H1776.82V279H1761V275H1745.18V279H1729.36V275H1713.54V279H1697.72V275H1681.9V279H1666.08V275H1650.26V279H1634.44V275H1618.62V279H1602.8V275H1586.98V279H1571.16V275H1555.34V279H1539.52V275H1523.7V279H1507.88V275H1492.06V279H1476.24V275H1460.42V279H1444.6V275H1428.78V279H1412.96V275H1397.14V279H1381.32V275H1365.5V279H1349.68V275H1333.86V279H1318.04V275H1302.22V279H1286.39V275H1270.57V279H1254.75V275H1238.93V279H1223.11V275H1207.29V279H1191.47V275H1175.65V279H1159.83V275H1144.01V279H1128.19V275H1112.37V279H1096.55V275H1080.73V279H1064.91V275H1057Z" fill="#C4C4C4" stroke="#C4C4C4" stroke-width="8" stroke-dasharray="16 16"/>
<line x1="1868.02" y1="93.7578" x2="1037" y2="93.7578" stroke="black" stroke-opacity="0.6" stroke-width="8" stroke-dasharray="16 3"/>
<line x1="1868.02" y1="199.627" x2="1037" y2="199.627" stroke="black" stroke-opacity="0.6" stroke-width="8" stroke-dasharray="16 3"/>
<line x1="1251" y1="279" x2="1251" y2="-1.74846e-07" stroke="black" stroke-opacity="0.6" stroke-width="8" stroke-dasharray="16 3"/>
<line x1="1471" y1="279" x2="1471" y2="-1.74846e-07" stroke="black" stroke-opacity="0.6" stroke-width="8" stroke-dasharray="16 3"/>
<line x1="1689" y1="279" x2="1689" y2="-1.74846e-07" stroke="black" stroke-opacity="0.6" stroke-width="8" stroke-dasharray="16 3"/>
<rect x="1255" y="98" width="212" height="98" fill="#60195E" fill-opacity="0.54"/>
</svg>
