<svg width="1869" height="279" viewBox="0 0 1869 279" fill="none" xmlns="http://www.w3.org/2000/svg">
<path d="M20 275C17.8232 275 15.7574 274.568 13.8765 273.787L12.3442 277.482C7.45543 275.455 3.54492 271.545 1.51761 266.656L5.21251 265.124C4.43251 263.243 4 261.177 4 259V250.464H0V233.393H4V216.321H0V199.25H4V182.179H0V165.107H4V148.036H0V130.964H4V113.893H0V96.8214H4V79.75H0V62.6786H4V45.6072H0V28.5357H4V20C4 17.8232 4.43251 15.7574 5.21251 13.8765L1.51761 12.3442C3.54492 7.45544 7.45544 3.54492 12.3442 1.51761L13.8765 5.21251C15.7574 4.43251 17.8232 4 20 4H27.9102V0H43.7305V4H59.5508V0H75.3711V4H91.1914V0H107.012V4H122.832V0H138.652V4H154.473V0H170.293V4H186.113V0H201.934V4H217.754V0H233.574V4H249.395V0H265.215V4H281.035V0H296.856V4H312.676V0H328.496V4H344.317V0H360.137V4H375.957V0H391.778V4H407.598V0H423.418V4H439.238V0H455.059V4H470.879V0H486.699V4H502.52V0H518.34V4H534.16V0H549.981V4H565.801V0H581.621V4H597.442V0H613.262V4H629.082V0H644.903V4H660.723V0H676.543V4H692.363V0H708.184V4H724.004V0H739.824V4H755.645V0H771.465V4H787.285V0H803.106V4H811.016C813.193 4 815.259 4.43251 817.14 5.21251L818.672 1.51761C823.561 3.54492 827.471 7.45543 829.499 12.3442L825.804 13.8765C826.584 15.7574 827.016 17.8232 827.016 20V28.5357H831.016V45.6071H827.016V62.6786H831.016V79.75H827.016V96.8214H831.016V113.893H827.016V130.964H831.016V148.036H827.016V165.107H831.016V182.179H827.016V199.25H831.016V216.321H827.016V233.393H831.016V250.464H827.016V259C827.016 261.177 826.584 263.243 825.804 265.124L829.499 266.656C827.471 271.545 823.561 275.455 818.672 277.482L817.14 273.787C815.259 274.568 813.193 275 811.016 275H803.106V279H787.286V275H771.465V279H755.645V275H739.825V279H724.004V275H708.184V279H692.364V275H676.543V279H660.723V275H644.903V279H629.082V275H613.262V279H597.442V275H581.621V279H565.801V275H549.981V279H534.16V275H518.34V279H502.52V275H486.7V279H470.879V275H455.059V279H439.239V275H423.418V279H407.598V275H391.778V279H375.957V275H360.137V279H344.317V275H328.496V279H312.676V275H296.856V279H281.035V275H265.215V279H249.395V275H233.575V279H217.754V275H201.934V279H186.114V275H170.293V279H154.473V275H138.653V279H122.832V275H107.012V279H91.1917V275H75.3714V279H59.5511V275H43.7308V279H27.9105V275H20Z" fill="#C4C4C4" stroke="#C4C4C4" stroke-width="8" stroke-dasharray="16 16"/>
<line x1="831.016" y1="93.7578" x2="-5.61568e-07" y2="93.7578" stroke="black" stroke-opacity="0.6" stroke-width="8" stroke-dasharray="16 3"/>
<line x1="831.016" y1="199.627" x2="-5.61568e-07" y2="199.627" stroke="black" stroke-opacity="0.6" stroke-width="8" stroke-dasharray="16 3"/>
<line x1="214" y1="279" x2="214" y2="-1.74846e-07" stroke="black" stroke-opacity="0.6" stroke-width="8" stroke-dasharray="16 3"/>
<line x1="434" y1="279" x2="434" y2="-1.74846e-07" stroke="black" stroke-opacity="0.6" stroke-width="8" stroke-dasharray="16 3"/>
<line x1="652" y1="279" x2="652" y2="-1.74846e-07" stroke="black" stroke-opacity="0.6" stroke-width="8" stroke-dasharray="16 3"/>
<rect x="438" y="98" width="393" height="181" fill="#60195E" fill-opacity="0.54"/>
<path d="M1057 275C1054.82 275 1052.76 274.568 1050.88 273.787L1049.34 277.482C1044.46 275.455 1040.54 271.545 1038.52 266.656L1042.21 265.124C1041.43 263.243 1041 261.177 1041 259V250.464H1037V233.393H1041V216.321H1037V199.25H1041V182.179H1037V165.107H1041V148.036H1037V130.964H1041V113.893H1037V96.8214H1041V79.75H1037V62.6786H1041V45.6072H1037V28.5357H1041V20C1041 17.8232 1041.43 15.7574 1042.21 13.8765L1038.52 12.3442C1040.54 7.45544 1044.46 3.54492 1049.34 1.51761L1050.88 5.21251C1052.76 4.43251 1054.82 4 1057 4H1064.91V0H1080.73V4H1096.55V0H1112.37V4H1128.19V0H1144.01V4H1159.83V0H1175.65V4H1191.47V0H1207.29V4H1223.11V0H1238.93V4H1254.75V0H1270.57V4H1286.39V0H1302.22V4H1318.04V0H1333.86V4H1349.68V0H1365.5V4H1381.32V0H1397.14V4H1412.96V0H1428.78V4H1444.6V0H1460.42V4H1476.24V0H1492.06V4H1507.88V0H1523.7V4H1539.52V0H1555.34V4H1571.16V0H1586.98V4H1602.8V0H1618.62V4H1634.44V0H1650.26V4H1666.08V0H1681.9V4H1697.72V0H1713.54V4H1729.36V0H1745.18V4H1761V0H1776.82V4H1792.64V0H1808.47V4H1824.29V0H1840.11V4H1848.02C1850.19 4 1852.26 4.43251 1854.14 5.21251L1855.67 1.51761C1860.56 3.54492 1864.47 7.45543 1866.5 12.3442L1862.8 13.8765C1863.58 15.7574 1864.02 17.8232 1864.02 20V28.5357H1868.02V45.6071H1864.02V62.6786H1868.02V79.75H1864.02V96.8214H1868.02V113.893H1864.02V130.964H1868.02V148.036H1864.02V165.107H1868.02V182.179H1864.02V199.25H1868.02V216.321H1864.02V233.393H1868.02V250.464H1864.02V259C1864.02 261.177 1863.58 263.243 1862.8 265.124L1866.5 266.656C1864.47 271.545 1860.56 275.455 1855.67 277.482L1854.14 273.787C1852.26 274.568 1850.19 275 1848.02 275H1840.11V279H1824.29V275H1808.47V279H1792.64V275H1776.82V279H1761V275H1745.18V279H1729.36V275H1713.54V279H1697.72V275H1681.9V279H1666.08V275H1650.26V279H1634.44V275H1618.62V279H1602.8V275H1586.98V279H1571.16V275H1555.34V279H1539.52V275H1523.7V279H1507.88V275H1492.06V279H1476.24V275H1460.42V279H1444.6V275H1428.78V279H1412.96V275H1397.14V279H1381.32V275H1365.5V279H1349.68V275H1333.86V279H1318.04V275H1302.22V279H1286.39V275H1270.57V279H1254.75V275H1238.93V279H1223.11V275H1207.29V279H1191.47V275H1175.65V279H1159.83V275H1144.01V279H1128.19V275H1112.37V279H1096.55V275H1080.73V279H1064.91V275H1057Z" fill="#C4C4C4" stroke="#C4C4C4" stroke-width="8" stroke-dasharray="16 16"/>
<line x1="1868.02" y1="93.7578" x2="1037" y2="93.7578" stroke="black" stroke-opacity="0.6" stroke-width="8" stroke-dasharray="16 3"/>
<line x1="1868.02" y1="199.627" x2="1037" y2="199.627" stroke="black" stroke-opacity="0.6" stroke-width="8" stroke-dasharray="16 3"/>
<line x1="1251" y1="279" x2="1251" y2="-1.74846e-07" stroke="black" stroke-opacity="0.6" stroke-width="8" stroke-dasharray="16 3"/>
<line x1="1471" y1="279" x2="1471" y2="-1.74846e-07" stroke="black" stroke-opacity="0.6" stroke-width="8" stroke-dasharray="16 3"/>
<line x1="1689" y1="279" x2="1689" y2="-1.74846e-07" stroke="black" stroke-opacity="0.6" stroke-width="8" stroke-dasharray="16 3"/>
<rect x="1255" width="431" height="196" fill="#60195E" fill-opacity="0.54"/>
<path d="M471.542 266H464.524V235.666H471.542V266ZM472.296 226.792C472.296 228.107 471.871 229.151 471.02 229.924C470.169 230.697 469.164 231.084 468.004 231.084C466.805 231.084 465.781 230.697 464.93 229.924C464.079 229.151 463.654 228.107 463.654 226.792C463.654 225.439 464.079 224.375 464.93 223.602C465.781 222.829 466.805 222.442 468.004 222.442C469.164 222.442 470.169 222.829 471.02 223.602C471.871 224.375 472.296 225.439 472.296 226.792ZM480.147 227.662L487.165 226.502V235.666H497.953V241.524H487.165V253.878C487.165 256.314 487.552 258.054 488.325 259.098C489.099 260.142 490.413 260.664 492.269 260.664C493.545 260.664 494.667 260.529 495.633 260.258C496.639 259.987 497.431 259.736 498.011 259.504L499.171 265.072C498.359 265.42 497.296 265.768 495.981 266.116C494.667 266.503 493.12 266.696 491.341 266.696C489.176 266.696 487.359 266.406 485.889 265.826C484.459 265.246 483.318 264.415 482.467 263.332C481.617 262.211 481.017 260.877 480.669 259.33C480.321 257.745 480.147 255.947 480.147 253.936V227.662ZM502.546 250.978C502.546 248.31 502.932 245.971 503.706 243.96C504.518 241.949 505.581 240.287 506.896 238.972C508.21 237.619 509.718 236.613 511.42 235.956C513.121 235.26 514.861 234.912 516.64 234.912C520.816 234.912 524.064 236.207 526.384 238.798C528.742 241.389 529.922 245.255 529.922 250.398C529.922 250.785 529.902 251.229 529.864 251.732C529.864 252.196 529.844 252.621 529.806 253.008H509.796C509.989 255.444 510.84 257.339 512.348 258.692C513.894 260.007 516.118 260.664 519.018 260.664C520.719 260.664 522.266 260.509 523.658 260.2C525.088 259.891 526.21 259.562 527.022 259.214L527.95 264.956C527.563 265.149 527.022 265.362 526.326 265.594C525.668 265.787 524.895 265.961 524.006 266.116C523.155 266.309 522.227 266.464 521.222 266.58C520.216 266.696 519.192 266.754 518.148 266.754C515.48 266.754 513.16 266.367 511.188 265.594C509.216 264.782 507.592 263.68 506.316 262.288C505.04 260.857 504.092 259.195 503.474 257.3C502.855 255.367 502.546 253.259 502.546 250.978ZM522.904 247.846C522.904 246.879 522.768 245.971 522.498 245.12C522.227 244.231 521.821 243.477 521.28 242.858C520.777 242.201 520.139 241.698 519.366 241.35C518.631 240.963 517.742 240.77 516.698 240.77C515.615 240.77 514.668 240.983 513.856 241.408C513.044 241.795 512.348 242.317 511.768 242.974C511.226 243.631 510.801 244.385 510.492 245.236C510.182 246.087 509.97 246.957 509.854 247.846H522.904ZM554.646 250.05C554.646 246.879 554.24 244.598 553.428 243.206C552.655 241.775 551.186 241.06 549.02 241.06C548.247 241.06 547.396 241.118 546.468 241.234C545.54 241.35 544.844 241.447 544.38 241.524V266H537.362V236.652C538.716 236.265 540.475 235.898 542.64 235.55C544.844 235.202 547.164 235.028 549.6 235.028C551.688 235.028 553.39 235.299 554.704 235.84C556.058 236.381 557.179 237.097 558.068 237.986C558.494 237.677 559.035 237.348 559.692 237C560.35 236.652 561.084 236.343 561.896 236.072C562.708 235.763 563.559 235.511 564.448 235.318C565.376 235.125 566.304 235.028 567.232 235.028C569.591 235.028 571.524 235.376 573.032 236.072C574.579 236.729 575.778 237.677 576.628 238.914C577.518 240.113 578.117 241.582 578.426 243.322C578.774 245.023 578.948 246.899 578.948 248.948V266H571.93V250.05C571.93 246.879 571.544 244.598 570.77 243.206C569.997 241.775 568.508 241.06 566.304 241.06C565.183 241.06 564.12 241.253 563.114 241.64C562.109 241.988 561.355 242.336 560.852 242.684C561.162 243.651 561.374 244.675 561.49 245.758C561.606 246.841 561.664 248.001 561.664 249.238V266H554.646V250.05ZM584.414 246.222H600.016V252.66H584.414V246.222ZM606.595 234.158C608.838 233.269 611.08 232.128 613.323 230.736C615.604 229.344 617.615 227.701 619.355 225.806H624.285V266H617.267V235.202C616.223 236.014 614.908 236.807 613.323 237.58C611.738 238.353 610.21 238.991 608.741 239.494L606.595 234.158Z" fill="#60195E"/>
<path d="M1275.54 64H1268.52V33.666H1275.54V64ZM1276.3 24.792C1276.3 26.1067 1275.87 27.1507 1275.02 27.924C1274.17 28.6973 1273.16 29.084 1272 29.084C1270.81 29.084 1269.78 28.6973 1268.93 27.924C1268.08 27.1507 1267.65 26.1067 1267.65 24.792C1267.65 23.4387 1268.08 22.3753 1268.93 21.602C1269.78 20.8287 1270.81 20.442 1272 20.442C1273.16 20.442 1274.17 20.8287 1275.02 21.602C1275.87 22.3753 1276.3 23.4387 1276.3 24.792ZM1284.15 25.662L1291.17 24.502V33.666H1301.95V39.524H1291.17V51.878C1291.17 54.314 1291.55 56.054 1292.33 57.098C1293.1 58.142 1294.41 58.664 1296.27 58.664C1297.55 58.664 1298.67 58.5287 1299.63 58.258C1300.64 57.9873 1301.43 57.736 1302.01 57.504L1303.17 63.072C1302.36 63.42 1301.3 63.768 1299.98 64.116C1298.67 64.5027 1297.12 64.696 1295.34 64.696C1293.18 64.696 1291.36 64.406 1289.89 63.826C1288.46 63.246 1287.32 62.4147 1286.47 61.332C1285.62 60.2107 1285.02 58.8767 1284.67 57.33C1284.32 55.7447 1284.15 53.9467 1284.15 51.936V25.662ZM1306.55 48.978C1306.55 46.31 1306.93 43.9707 1307.71 41.96C1308.52 39.9493 1309.58 38.2867 1310.9 36.972C1312.21 35.6187 1313.72 34.6133 1315.42 33.956C1317.12 33.26 1318.86 32.912 1320.64 32.912C1324.82 32.912 1328.06 34.2073 1330.38 36.798C1332.74 39.3887 1333.92 43.2553 1333.92 48.398C1333.92 48.7847 1333.9 49.2293 1333.86 49.732C1333.86 50.196 1333.84 50.6213 1333.81 51.008H1313.8C1313.99 53.444 1314.84 55.3387 1316.35 56.692C1317.89 58.0067 1320.12 58.664 1323.02 58.664C1324.72 58.664 1326.27 58.5093 1327.66 58.2C1329.09 57.8907 1330.21 57.562 1331.02 57.214L1331.95 62.956C1331.56 63.1493 1331.02 63.362 1330.33 63.594C1329.67 63.7873 1328.9 63.9613 1328.01 64.116C1327.16 64.3093 1326.23 64.464 1325.22 64.58C1324.22 64.696 1323.19 64.754 1322.15 64.754C1319.48 64.754 1317.16 64.3673 1315.19 63.594C1313.22 62.782 1311.59 61.68 1310.32 60.288C1309.04 58.8573 1308.09 57.1947 1307.47 55.3C1306.86 53.3667 1306.55 51.2593 1306.55 48.978ZM1326.9 45.846C1326.9 44.8793 1326.77 43.9707 1326.5 43.12C1326.23 42.2307 1325.82 41.4767 1325.28 40.858C1324.78 40.2007 1324.14 39.698 1323.37 39.35C1322.63 38.9633 1321.74 38.77 1320.7 38.77C1319.62 38.77 1318.67 38.9827 1317.86 39.408C1317.04 39.7947 1316.35 40.3167 1315.77 40.974C1315.23 41.6313 1314.8 42.3853 1314.49 43.236C1314.18 44.0867 1313.97 44.9567 1313.85 45.846H1326.9ZM1358.65 48.05C1358.65 44.8793 1358.24 42.598 1357.43 41.206C1356.66 39.7753 1355.19 39.06 1353.02 39.06C1352.25 39.06 1351.4 39.118 1350.47 39.234C1349.54 39.35 1348.84 39.4467 1348.38 39.524V64H1341.36V34.652C1342.72 34.2653 1344.48 33.898 1346.64 33.55C1348.84 33.202 1351.16 33.028 1353.6 33.028C1355.69 33.028 1357.39 33.2987 1358.7 33.84C1360.06 34.3813 1361.18 35.0967 1362.07 35.986C1362.49 35.6767 1363.04 35.348 1363.69 35C1364.35 34.652 1365.08 34.3427 1365.9 34.072C1366.71 33.7627 1367.56 33.5113 1368.45 33.318C1369.38 33.1247 1370.3 33.028 1371.23 33.028C1373.59 33.028 1375.52 33.376 1377.03 34.072C1378.58 34.7293 1379.78 35.6767 1380.63 36.914C1381.52 38.1127 1382.12 39.582 1382.43 41.322C1382.77 43.0233 1382.95 44.8987 1382.95 46.948V64H1375.93V48.05C1375.93 44.8793 1375.54 42.598 1374.77 41.206C1374 39.7753 1372.51 39.06 1370.3 39.06C1369.18 39.06 1368.12 39.2533 1367.11 39.64C1366.11 39.988 1365.36 40.336 1364.85 40.684C1365.16 41.6507 1365.37 42.6753 1365.49 43.758C1365.61 44.8407 1365.66 46.0007 1365.66 47.238V64H1358.65V48.05ZM1388.41 44.222H1404.02V50.66H1388.41V44.222ZM1433.27 34.246C1433.27 35.638 1432.98 37.0107 1432.4 38.364C1431.82 39.6787 1431.07 40.974 1430.14 42.25C1429.25 43.4873 1428.23 44.7053 1427.07 45.904C1425.91 47.064 1424.75 48.2047 1423.59 49.326C1422.97 49.906 1422.27 50.602 1421.5 51.414C1420.73 52.226 1419.99 53.038 1419.3 53.85C1418.6 54.662 1418 55.4547 1417.5 56.228C1416.99 56.9627 1416.72 57.5813 1416.69 58.084H1434.55V64H1408.97C1408.93 63.6907 1408.91 63.3233 1408.91 62.898C1408.91 62.434 1408.91 62.086 1408.91 61.854C1408.91 59.998 1409.2 58.2967 1409.78 56.75C1410.4 55.1647 1411.19 53.6953 1412.16 52.342C1413.13 50.9887 1414.21 49.7127 1415.41 48.514C1416.61 47.3153 1417.81 46.136 1419.01 44.976C1419.93 44.0867 1420.82 43.2167 1421.67 42.366C1422.52 41.5153 1423.26 40.684 1423.88 39.872C1424.53 39.0213 1425.06 38.1707 1425.44 37.32C1425.83 36.4307 1426.02 35.522 1426.02 34.594C1426.02 32.5833 1425.44 31.1527 1424.28 30.302C1423.12 29.4513 1421.71 29.026 1420.05 29.026C1418.97 29.026 1417.96 29.1807 1417.03 29.49C1416.11 29.7993 1415.27 30.1667 1414.54 30.592C1413.84 31.0173 1413.22 31.462 1412.68 31.926C1412.14 32.3513 1411.74 32.6993 1411.47 32.97L1407.99 28.04C1409.61 26.4933 1411.5 25.256 1413.67 24.328C1415.87 23.3613 1418.23 22.878 1420.75 22.878C1425.04 22.878 1428.19 23.9027 1430.2 25.952C1432.25 27.9627 1433.27 30.7273 1433.27 34.246Z" fill="#60195E"/>
</svg>
