<svg width="2435" height="1620" viewBox="0 0 2435 1620" fill="none" xmlns="http://www.w3.org/2000/svg">
<g clip-path="url(#clip0_89_231)">
<path d="M3.98 218.228C3.13067 218.228 1.95467 218.13 0.452 217.934C-1.116 217.803 -2.488 217.509 -3.664 217.052L-2.096 207.35C-0.658667 207.807 1.07267 208.036 3.098 208.036C5.842 208.036 7.76933 207.219 8.88 205.586C9.99067 204.018 10.546 201.633 10.546 198.432V148.746H22.404V198.628C22.404 205.292 20.8033 210.225 17.602 213.426C14.466 216.627 9.92533 218.228 3.98 218.228ZM23.678 133.752C23.678 135.973 22.9593 137.737 21.522 139.044C20.0847 140.351 18.386 141.004 16.426 141.004C14.4007 141.004 12.6693 140.351 11.232 139.044C9.79467 137.737 9.076 135.973 9.076 133.752C9.076 131.465 9.79467 129.669 11.232 128.362C12.6693 127.055 14.4007 126.402 16.426 126.402C18.386 126.402 20.0847 127.055 21.522 128.362C22.9593 129.669 23.678 131.465 23.678 133.752ZM79.5763 198.432C77.2896 199.02 74.3169 199.608 70.6583 200.196C66.9996 200.849 62.9816 201.176 58.6043 201.176C54.4883 201.176 51.0256 200.588 48.2163 199.412C45.4723 198.236 43.2509 196.603 41.5523 194.512C39.9189 192.421 38.7429 189.939 38.0243 187.064C37.3056 184.124 36.9463 180.923 36.9463 177.46V148.746H48.8043V175.598C48.8043 181.086 49.5883 185.006 51.1563 187.358C52.7896 189.71 55.5989 190.886 59.5843 190.886C61.0216 190.886 62.5243 190.821 64.0923 190.69C65.7256 190.559 66.9343 190.396 67.7183 190.2V148.746H79.5763V198.432ZM107.507 191.474C110.643 191.474 112.93 191.115 114.367 190.396C115.804 189.612 116.523 188.305 116.523 186.476C116.523 184.777 115.739 183.373 114.171 182.262C112.668 181.151 110.153 179.943 106.625 178.636C104.469 177.852 102.476 177.035 100.647 176.186C98.883 175.271 97.3477 174.226 96.041 173.05C94.7344 171.874 93.689 170.469 92.905 168.836C92.1864 167.137 91.827 165.079 91.827 162.662C91.827 157.958 93.5584 154.267 97.021 151.588C100.484 148.844 105.188 147.472 111.133 147.472C114.138 147.472 117.013 147.766 119.757 148.354C122.501 148.877 124.559 149.399 125.931 149.922L123.775 159.526C122.468 158.938 120.802 158.415 118.777 157.958C116.752 157.435 114.4 157.174 111.721 157.174C109.304 157.174 107.344 157.599 105.841 158.448C104.338 159.232 103.587 160.473 103.587 162.172C103.587 163.021 103.718 163.773 103.979 164.426C104.306 165.079 104.828 165.7 105.547 166.288C106.266 166.811 107.213 167.366 108.389 167.954C109.565 168.477 111.002 169.032 112.701 169.62C115.51 170.665 117.895 171.711 119.855 172.756C121.815 173.736 123.416 174.879 124.657 176.186C125.964 177.427 126.911 178.865 127.499 180.498C128.087 182.131 128.381 184.091 128.381 186.378C128.381 191.278 126.552 195.002 122.893 197.55C119.3 200.033 114.138 201.274 107.409 201.274C102.901 201.274 99.275 200.882 96.531 200.098C93.787 199.379 91.8597 198.791 90.749 198.334L92.807 188.436C94.571 189.155 96.6617 189.841 99.079 190.494C101.562 191.147 104.371 191.474 107.507 191.474ZM138.87 135.222L150.728 133.262V148.746H168.956V158.644H150.728V179.518C150.728 183.634 151.381 186.574 152.688 188.338C153.995 190.102 156.216 190.984 159.352 190.984C161.508 190.984 163.403 190.755 165.036 190.298C166.735 189.841 168.074 189.416 169.054 189.024L171.014 198.432C169.642 199.02 167.845 199.608 165.624 200.196C163.403 200.849 160.789 201.176 157.784 201.176C154.125 201.176 151.055 200.686 148.572 199.706C146.155 198.726 144.227 197.321 142.79 195.492C141.353 193.597 140.34 191.343 139.752 188.73C139.164 186.051 138.87 183.013 138.87 179.616V135.222ZM192.375 200H180.517V148.746H192.375V200ZM193.649 133.752C193.649 135.973 192.93 137.737 191.493 139.044C190.056 140.351 188.357 141.004 186.397 141.004C184.372 141.004 182.64 140.351 181.203 139.044C179.766 137.737 179.047 135.973 179.047 133.752C179.047 131.465 179.766 129.669 181.203 128.362C182.64 127.055 184.372 126.402 186.397 126.402C188.357 126.402 190.056 127.055 191.493 128.362C192.93 129.669 193.649 131.465 193.649 133.752ZM228.377 123.952C231.121 123.952 233.538 124.213 235.629 124.736C237.72 125.193 239.288 125.618 240.333 126.01L238.079 135.81C236.968 135.287 235.662 134.863 234.159 134.536C232.722 134.209 231.154 134.046 229.455 134.046C227.56 134.046 225.96 134.34 224.653 134.928C223.346 135.451 222.301 136.202 221.517 137.182C220.733 138.162 220.178 139.371 219.851 140.808C219.524 142.18 219.361 143.683 219.361 145.316V148.746H237.981V158.644H219.361V200H207.503V145.12C207.503 138.521 209.234 133.36 212.697 129.636C216.16 125.847 221.386 123.952 228.377 123.952ZM290.214 148.746C284.922 168.215 278.781 185.855 271.79 201.666C270.484 204.606 269.144 207.121 267.772 209.212C266.4 211.303 264.865 213.034 263.166 214.406C261.468 215.778 259.573 216.758 257.482 217.346C255.392 217.999 252.974 218.326 250.23 218.326C248.401 218.326 246.572 218.13 244.742 217.738C242.978 217.346 241.639 216.921 240.724 216.464L242.88 206.958C245.232 207.873 247.552 208.33 249.838 208.33C252.909 208.33 255.294 207.579 256.992 206.076C258.756 204.639 260.292 202.385 261.598 199.314C257.874 192.127 254.281 184.287 250.818 175.794C247.421 167.301 244.383 158.285 241.704 148.746H254.346C255 151.49 255.784 154.463 256.698 157.664C257.678 160.865 258.724 164.132 259.834 167.464C260.945 170.731 262.121 173.997 263.362 177.264C264.604 180.531 265.845 183.569 267.086 186.378C269.177 180.563 271.137 174.389 272.966 167.856C274.796 161.257 276.462 154.887 277.964 148.746H290.214ZM291.641 208.232H340.641V218.13H291.641V208.232ZM360.143 200H348.285V148.746H360.143V200ZM361.417 133.752C361.417 135.973 360.698 137.737 359.261 139.044C357.823 140.351 356.125 141.004 354.165 141.004C352.139 141.004 350.408 140.351 348.971 139.044C347.533 137.737 346.815 135.973 346.815 133.752C346.815 131.465 347.533 129.669 348.971 128.362C350.408 127.055 352.139 126.402 354.165 126.402C356.125 126.402 357.823 127.055 359.261 128.362C360.698 129.669 361.417 131.465 361.417 133.752ZM374.683 135.222L386.541 133.262V148.746H404.769V158.644H386.541V179.518C386.541 183.634 387.194 186.574 388.501 188.338C389.807 190.102 392.029 190.984 395.165 190.984C397.321 190.984 399.215 190.755 400.849 190.298C402.547 189.841 403.887 189.416 404.867 189.024L406.827 198.432C405.455 199.02 403.658 199.608 401.437 200.196C399.215 200.849 396.602 201.176 393.597 201.176C389.938 201.176 386.867 200.686 384.385 199.706C381.967 198.726 380.04 197.321 378.603 195.492C377.165 193.597 376.153 191.343 375.565 188.73C374.977 186.051 374.683 183.013 374.683 179.616V135.222ZM412.528 174.618C412.528 170.11 413.182 166.157 414.488 162.76C415.86 159.363 417.657 156.553 419.878 154.332C422.1 152.045 424.648 150.347 427.522 149.236C430.397 148.06 433.337 147.472 436.342 147.472C443.398 147.472 448.886 149.661 452.806 154.038C456.792 158.415 458.784 164.949 458.784 173.638C458.784 174.291 458.752 175.043 458.686 175.892C458.686 176.676 458.654 177.395 458.588 178.048H424.778C425.105 182.164 426.542 185.365 429.09 187.652C431.704 189.873 435.46 190.984 440.36 190.984C443.235 190.984 445.848 190.723 448.2 190.2C450.618 189.677 452.512 189.122 453.884 188.534L455.452 198.236C454.799 198.563 453.884 198.922 452.708 199.314C451.598 199.641 450.291 199.935 448.788 200.196C447.351 200.523 445.783 200.784 444.084 200.98C442.386 201.176 440.654 201.274 438.89 201.274C434.382 201.274 430.462 200.621 427.13 199.314C423.798 197.942 421.054 196.08 418.898 193.728C416.742 191.311 415.142 188.501 414.096 185.3C413.051 182.033 412.528 178.473 412.528 174.618ZM446.926 169.326C446.926 167.693 446.698 166.157 446.24 164.72C445.783 163.217 445.097 161.943 444.182 160.898C443.333 159.787 442.255 158.938 440.948 158.35C439.707 157.697 438.204 157.37 436.44 157.37C434.611 157.37 433.01 157.729 431.638 158.448C430.266 159.101 429.09 159.983 428.11 161.094C427.196 162.205 426.477 163.479 425.954 164.916C425.432 166.353 425.072 167.823 424.876 169.326H446.926ZM500.561 173.05C500.561 167.693 499.875 163.838 498.503 161.486C497.196 159.069 494.713 157.86 491.055 157.86C489.748 157.86 488.311 157.958 486.743 158.154C485.175 158.35 483.999 158.513 483.215 158.644V200H471.357V150.412C473.643 149.759 476.616 149.138 480.275 148.55C483.999 147.962 487.919 147.668 492.035 147.668C495.563 147.668 498.437 148.125 500.659 149.04C502.945 149.955 504.84 151.163 506.343 152.666C507.061 152.143 507.976 151.588 509.087 151C510.197 150.412 511.439 149.889 512.811 149.432C514.183 148.909 515.62 148.485 517.123 148.158C518.691 147.831 520.259 147.668 521.827 147.668C525.812 147.668 529.079 148.256 531.627 149.432C534.24 150.543 536.265 152.143 537.703 154.234C539.205 156.259 540.218 158.742 540.741 161.682C541.329 164.557 541.623 167.725 541.623 171.188V200H529.765V173.05C529.765 167.693 529.111 163.838 527.805 161.486C526.498 159.069 523.983 157.86 520.259 157.86C518.364 157.86 516.567 158.187 514.869 158.84C513.17 159.428 511.896 160.016 511.047 160.604C511.569 162.237 511.929 163.969 512.125 165.798C512.321 167.627 512.419 169.587 512.419 171.678V200H500.561V173.05ZM568.988 191.474C572.124 191.474 574.41 191.115 575.848 190.396C577.285 189.612 578.004 188.305 578.004 186.476C578.004 184.777 577.22 183.373 575.652 182.262C574.149 181.151 571.634 179.943 568.106 178.636C565.95 177.852 563.957 177.035 562.128 176.186C560.364 175.271 558.828 174.226 557.522 173.05C556.215 171.874 555.17 170.469 554.386 168.836C553.667 167.137 553.308 165.079 553.308 162.662C553.308 157.958 555.039 154.267 558.502 151.588C561.964 148.844 566.668 147.472 572.614 147.472C575.619 147.472 578.494 147.766 581.238 148.354C583.982 148.877 586.04 149.399 587.412 149.922L585.256 159.526C583.949 158.938 582.283 158.415 580.258 157.958C578.232 157.435 575.88 157.174 573.202 157.174C570.784 157.174 568.824 157.599 567.322 158.448C565.819 159.232 565.068 160.473 565.068 162.172C565.068 163.021 565.198 163.773 565.46 164.426C565.786 165.079 566.309 165.7 567.028 166.288C567.746 166.811 568.694 167.366 569.87 167.954C571.046 168.477 572.483 169.032 574.182 169.62C576.991 170.665 579.376 171.711 581.336 172.756C583.296 173.736 584.896 174.879 586.138 176.186C587.444 177.427 588.392 178.865 588.98 180.498C589.568 182.131 589.862 184.091 589.862 186.378C589.862 191.278 588.032 195.002 584.374 197.55C580.78 200.033 575.619 201.274 568.89 201.274C564.382 201.274 560.756 200.882 558.012 200.098C555.268 199.379 553.34 198.791 552.23 198.334L554.288 188.436C556.052 189.155 558.142 189.841 560.56 190.494C563.042 191.147 565.852 191.474 568.988 191.474Z" fill="#60195E"/>
<path d="M4.544 269.696L12.288 268.416V278.528H24.192V284.992H12.288V298.624C12.288 301.312 12.7147 303.232 13.568 304.384C14.4213 305.536 15.872 306.112 17.92 306.112C19.328 306.112 20.5653 305.963 21.632 305.664C22.7413 305.365 23.616 305.088 24.256 304.832L25.536 310.976C24.64 311.36 23.4667 311.744 22.016 312.128C20.5653 312.555 18.8587 312.768 16.896 312.768C14.5067 312.768 12.5013 312.448 10.88 311.808C9.30133 311.168 8.04267 310.251 7.104 309.056C6.16533 307.819 5.504 306.347 5.12 304.64C4.736 302.891 4.544 300.907 4.544 298.688V269.696ZM59.006 278.528C55.55 291.243 51.5393 302.763 46.974 313.088C46.1207 315.008 45.246 316.651 44.35 318.016C43.454 319.381 42.4513 320.512 41.342 321.408C40.2327 322.304 38.9953 322.944 37.63 323.328C36.2647 323.755 34.686 323.968 32.894 323.968C31.6993 323.968 30.5047 323.84 29.31 323.584C28.158 323.328 27.2833 323.051 26.686 322.752L28.094 316.544C29.63 317.141 31.1447 317.44 32.638 317.44C34.6433 317.44 36.2007 316.949 37.31 315.968C38.462 315.029 39.4647 313.557 40.318 311.552C37.886 306.859 35.5393 301.739 33.278 296.192C31.0593 290.645 29.0753 284.757 27.326 278.528H35.582C36.0087 280.32 36.5207 282.261 37.118 284.352C37.758 286.443 38.4407 288.576 39.166 290.752C39.8913 292.885 40.6593 295.019 41.47 297.152C42.2807 299.285 43.0913 301.269 43.902 303.104C45.2673 299.307 46.5473 295.275 47.742 291.008C48.9367 286.699 50.0247 282.539 51.006 278.528H59.006ZM87.0735 295.424C87.0735 291.968 86.2842 289.28 84.7055 287.36C83.1695 285.44 80.6735 284.48 77.2175 284.48C76.4922 284.48 75.7242 284.523 74.9135 284.608C74.1455 284.651 73.3775 284.779 72.6095 284.992V304.128C73.2922 304.597 74.1882 305.045 75.2975 305.472C76.4495 305.856 77.6655 306.048 78.9455 306.048C81.7615 306.048 83.8095 305.088 85.0895 303.168C86.4122 301.248 87.0735 298.667 87.0735 295.424ZM95.0095 295.296C95.0095 297.856 94.6682 300.203 93.9855 302.336C93.3455 304.469 92.4068 306.304 91.1695 307.84C89.9322 309.376 88.3748 310.571 86.4975 311.424C84.6628 312.277 82.5722 312.704 80.2255 312.704C78.6468 312.704 77.1962 312.512 75.8735 312.128C74.5508 311.744 73.4628 311.317 72.6095 310.848V323.84H64.8655V279.616C66.4442 279.189 68.3855 278.784 70.6895 278.4C72.9935 278.016 75.4255 277.824 77.9855 277.824C80.6308 277.824 82.9988 278.229 85.0895 279.04C87.1802 279.851 88.9508 281.024 90.4015 282.56C91.8948 284.053 93.0255 285.888 93.7935 288.064C94.6042 290.197 95.0095 292.608 95.0095 295.296ZM101.135 295.424C101.135 292.48 101.561 289.899 102.415 287.68C103.311 285.461 104.484 283.627 105.935 282.176C107.385 280.683 109.049 279.573 110.927 278.848C112.804 278.08 114.724 277.696 116.687 277.696C121.295 277.696 124.879 279.125 127.439 281.984C130.041 284.843 131.343 289.109 131.343 294.784C131.343 295.211 131.321 295.701 131.279 296.256C131.279 296.768 131.257 297.237 131.215 297.664H109.135C109.348 300.352 110.287 302.443 111.951 303.936C113.657 305.387 116.111 306.112 119.311 306.112C121.188 306.112 122.895 305.941 124.431 305.6C126.009 305.259 127.247 304.896 128.143 304.512L129.167 310.848C128.74 311.061 128.143 311.296 127.375 311.552C126.649 311.765 125.796 311.957 124.815 312.128C123.876 312.341 122.852 312.512 121.743 312.64C120.633 312.768 119.503 312.832 118.351 312.832C115.407 312.832 112.847 312.405 110.671 311.552C108.495 310.656 106.703 309.44 105.295 307.904C103.887 306.325 102.841 304.491 102.159 302.4C101.476 300.267 101.135 297.941 101.135 295.424ZM123.599 291.968C123.599 290.901 123.449 289.899 123.151 288.96C122.852 287.979 122.404 287.147 121.807 286.464C121.252 285.739 120.548 285.184 119.695 284.8C118.884 284.373 117.903 284.16 116.751 284.16C115.556 284.16 114.511 284.395 113.615 284.864C112.719 285.291 111.951 285.867 111.311 286.592C110.713 287.317 110.244 288.149 109.903 289.088C109.561 290.027 109.327 290.987 109.199 291.968H123.599ZM148.257 283.84C148.257 285.333 147.745 286.549 146.721 287.488C145.74 288.427 144.545 288.896 143.137 288.896C141.686 288.896 140.47 288.427 139.489 287.488C138.508 286.549 138.017 285.333 138.017 283.84C138.017 282.347 138.508 281.131 139.489 280.192C140.47 279.211 141.686 278.72 143.137 278.72C144.545 278.72 145.74 279.211 146.721 280.192C147.745 281.131 148.257 282.347 148.257 283.84ZM148.257 307.776C148.257 309.269 147.745 310.485 146.721 311.424C145.74 312.363 144.545 312.832 143.137 312.832C141.686 312.832 140.47 312.363 139.489 311.424C138.508 310.485 138.017 309.269 138.017 307.776C138.017 306.283 138.508 305.067 139.489 304.128C140.47 303.147 141.686 302.656 143.137 302.656C144.545 302.656 145.74 303.147 146.721 304.128C147.745 305.067 148.257 306.283 148.257 307.776ZM177.571 294.4C177.571 297.685 178.275 300.096 179.683 301.632C181.133 303.125 182.989 303.872 185.251 303.872C186.488 303.872 187.64 303.701 188.707 303.36C189.816 303.019 190.712 302.613 191.395 302.144V284.8C190.84 284.672 190.157 284.565 189.347 284.48C188.536 284.352 187.512 284.288 186.275 284.288C183.459 284.288 181.304 285.227 179.811 287.104C178.317 288.939 177.571 291.371 177.571 294.4ZM199.139 308.608C199.139 313.941 197.773 317.845 195.043 320.32C192.355 322.795 188.216 324.032 182.627 324.032C180.579 324.032 178.573 323.861 176.611 323.52C174.691 323.179 172.941 322.731 171.363 322.176L172.771 315.584C174.093 316.139 175.587 316.587 177.251 316.928C178.957 317.269 180.792 317.44 182.755 317.44C185.869 317.44 188.088 316.8 189.411 315.52C190.733 314.24 191.395 312.341 191.395 309.824V308.544C190.627 308.928 189.603 309.312 188.323 309.696C187.085 310.08 185.656 310.272 184.035 310.272C181.901 310.272 179.939 309.931 178.147 309.248C176.397 308.565 174.883 307.563 173.603 306.24C172.365 304.917 171.384 303.275 170.659 301.312C169.976 299.307 169.635 297.003 169.635 294.4C169.635 291.968 169.997 289.728 170.723 287.68C171.491 285.632 172.579 283.883 173.987 282.432C175.437 280.981 177.187 279.851 179.235 279.04C181.283 278.229 183.608 277.824 186.211 277.824C188.728 277.824 191.117 278.016 193.379 278.4C195.64 278.784 197.56 279.189 199.139 279.616V308.608ZM228.063 285.504C227.423 285.291 226.527 285.077 225.375 284.864C224.265 284.608 222.964 284.48 221.471 284.48C220.617 284.48 219.7 284.565 218.719 284.736C217.78 284.907 217.119 285.056 216.735 285.184V312H208.991V280.128C210.484 279.573 212.34 279.061 214.559 278.592C216.82 278.08 219.316 277.824 222.047 277.824C222.559 277.824 223.156 277.867 223.839 277.952C224.521 277.995 225.204 278.08 225.887 278.208C226.569 278.293 227.231 278.421 227.871 278.592C228.511 278.72 229.023 278.848 229.407 278.976L228.063 285.504ZM242.611 312H234.867V278.528H242.611V312ZM243.443 268.736C243.443 270.187 242.974 271.339 242.035 272.192C241.096 273.045 239.987 273.472 238.707 273.472C237.384 273.472 236.254 273.045 235.315 272.192C234.376 271.339 233.907 270.187 233.907 268.736C233.907 267.243 234.376 266.069 235.315 265.216C236.254 264.363 237.384 263.936 238.707 263.936C239.987 263.936 241.096 264.363 242.035 265.216C242.974 266.069 243.443 267.243 243.443 268.736ZM258.571 295.168C258.571 298.581 259.381 301.269 261.003 303.232C262.624 305.152 264.864 306.112 267.723 306.112C268.96 306.112 270.005 306.069 270.859 305.984C271.755 305.856 272.48 305.728 273.035 305.6V286.4C272.352 285.931 271.435 285.504 270.283 285.12C269.173 284.693 267.979 284.48 266.699 284.48C263.883 284.48 261.813 285.44 260.491 287.36C259.211 289.28 258.571 291.883 258.571 295.168ZM280.779 310.976C279.243 311.445 277.301 311.872 274.955 312.256C272.651 312.64 270.219 312.832 267.659 312.832C265.013 312.832 262.645 312.427 260.555 311.616C258.464 310.805 256.672 309.653 255.179 308.16C253.728 306.624 252.597 304.789 251.786 302.656C251.019 300.48 250.635 298.048 250.635 295.36C250.635 292.715 250.955 290.325 251.595 288.192C252.277 286.016 253.259 284.16 254.539 282.624C255.819 281.088 257.376 279.915 259.211 279.104C261.045 278.251 263.157 277.824 265.547 277.824C267.168 277.824 268.597 278.016 269.835 278.4C271.072 278.784 272.139 279.211 273.035 279.68V263.616L280.779 262.336V310.976Z" fill="#60195E"/>
<path d="M6.072 369.424C6.072 366.48 6.49867 363.899 7.352 361.68C8.248 359.461 9.42133 357.627 10.872 356.176C12.3227 354.683 13.9867 353.573 15.864 352.848C17.7413 352.08 19.6613 351.696 21.624 351.696C26.232 351.696 29.816 353.125 32.376 355.984C34.9787 358.843 36.28 363.109 36.28 368.784C36.28 369.211 36.2587 369.701 36.216 370.256C36.216 370.768 36.1947 371.237 36.152 371.664H14.072C14.2853 374.352 15.224 376.443 16.888 377.936C18.5947 379.387 21.048 380.112 24.248 380.112C26.1253 380.112 27.832 379.941 29.368 379.6C30.9467 379.259 32.184 378.896 33.08 378.512L34.104 384.848C33.6773 385.061 33.08 385.296 32.312 385.552C31.5867 385.765 30.7333 385.957 29.752 386.128C28.8133 386.341 27.7893 386.512 26.68 386.64C25.5707 386.768 24.44 386.832 23.288 386.832C20.344 386.832 17.784 386.405 15.608 385.552C13.432 384.656 11.64 383.44 10.232 381.904C8.824 380.325 7.77867 378.491 7.096 376.4C6.41333 374.267 6.072 371.941 6.072 369.424ZM28.536 365.968C28.536 364.901 28.3867 363.899 28.088 362.96C27.7893 361.979 27.3413 361.147 26.744 360.464C26.1893 359.739 25.4853 359.184 24.632 358.8C23.8213 358.373 22.84 358.16 21.688 358.16C20.4933 358.16 19.448 358.395 18.552 358.864C17.656 359.291 16.888 359.867 16.248 360.592C15.6507 361.317 15.1813 362.149 14.84 363.088C14.4987 364.027 14.264 364.987 14.136 365.968H28.536ZM50.5705 369.424C50.5705 372.667 51.2105 375.248 52.4905 377.168C53.8132 379.088 55.8825 380.048 58.6985 380.048C59.9785 380.048 61.1732 379.856 62.2825 379.472C63.4345 379.045 64.3518 378.597 65.0345 378.128V358.992C64.4798 358.864 63.7758 358.757 62.9225 358.672C62.1118 358.544 61.0452 358.48 59.7225 358.48C56.8638 358.48 54.6238 359.461 53.0025 361.424C51.3812 363.344 50.5705 366.011 50.5705 369.424ZM42.6345 369.296C42.6345 366.651 43.0185 364.261 43.7865 362.128C44.5972 359.952 45.7278 358.117 47.1785 356.624C48.6718 355.088 50.4638 353.915 52.5545 353.104C54.6452 352.251 57.0132 351.824 59.6585 351.824C62.3038 351.824 64.7785 352.016 67.0825 352.4C69.3865 352.784 71.2852 353.189 72.7785 353.616V397.84H65.0345V384.848C64.1385 385.317 63.0292 385.744 61.7065 386.128C60.4265 386.512 58.9972 386.704 57.4185 386.704C55.0292 386.704 52.9172 386.299 51.0825 385.488C49.2478 384.635 47.7118 383.44 46.4745 381.904C45.2372 380.368 44.2772 378.533 43.5945 376.4C42.9545 374.267 42.6345 371.899 42.6345 369.296ZM110.072 384.976C108.578 385.36 106.637 385.744 104.248 386.128C101.858 386.555 99.2342 386.768 96.3755 386.768C93.6875 386.768 91.4262 386.384 89.5915 385.616C87.7995 384.848 86.3488 383.781 85.2395 382.416C84.1728 381.051 83.4048 379.429 82.9355 377.552C82.4662 375.632 82.2315 373.541 82.2315 371.28V352.528H89.9755V370.064C89.9755 373.648 90.4875 376.208 91.5115 377.744C92.5782 379.28 94.4128 380.048 97.0155 380.048C97.9542 380.048 98.9355 380.005 99.9595 379.92C101.026 379.835 101.816 379.728 102.328 379.6V352.528H110.072V384.976ZM127.736 386H119.992V352.528H127.736V386ZM128.568 342.736C128.568 344.187 128.099 345.339 127.16 346.192C126.221 347.045 125.112 347.472 123.832 347.472C122.509 347.472 121.379 347.045 120.44 346.192C119.501 345.339 119.032 344.187 119.032 342.736C119.032 341.243 119.501 340.069 120.44 339.216C121.379 338.363 122.509 337.936 123.832 337.936C125.112 337.936 126.221 338.363 127.16 339.216C128.099 340.069 128.568 341.243 128.568 342.736ZM146.192 386C144.058 381.605 141.861 376.571 139.6 370.896C137.381 365.179 135.354 359.056 133.52 352.528H141.776C142.245 354.405 142.778 356.432 143.376 358.608C144.016 360.741 144.677 362.896 145.36 365.072C146.085 367.205 146.81 369.296 147.536 371.344C148.304 373.349 149.008 375.163 149.648 376.784C150.288 375.163 150.97 373.349 151.696 371.344C152.421 369.296 153.125 367.205 153.808 365.072C154.533 362.896 155.216 360.741 155.856 358.608C156.496 356.432 157.05 354.405 157.52 352.528H165.52C163.685 359.056 161.637 365.179 159.376 370.896C157.157 376.571 154.981 381.605 152.848 386H146.192ZM183.079 380.56C185.468 380.56 187.282 380.432 188.519 380.176V371.6C188.092 371.472 187.474 371.344 186.663 371.216C185.852 371.088 184.956 371.024 183.975 371.024C183.122 371.024 182.247 371.088 181.351 371.216C180.498 371.344 179.708 371.579 178.983 371.92C178.3 372.261 177.746 372.752 177.319 373.392C176.892 373.989 176.679 374.757 176.679 375.696C176.679 377.531 177.255 378.811 178.407 379.536C179.559 380.219 181.116 380.56 183.079 380.56ZM182.439 351.696C184.999 351.696 187.154 352.016 188.903 352.656C190.652 353.296 192.039 354.192 193.063 355.344C194.13 356.496 194.876 357.904 195.303 359.568C195.772 361.189 196.007 362.981 196.007 364.944V385.232C194.812 385.488 192.999 385.787 190.567 386.128C188.178 386.512 185.468 386.704 182.439 386.704C180.434 386.704 178.599 386.512 176.935 386.128C175.271 385.744 173.842 385.125 172.647 384.272C171.495 383.419 170.578 382.309 169.895 380.944C169.255 379.579 168.935 377.893 168.935 375.888C168.935 373.968 169.298 372.347 170.023 371.024C170.791 369.701 171.815 368.635 173.095 367.824C174.375 366.971 175.847 366.373 177.511 366.032C179.218 365.648 180.988 365.456 182.823 365.456C183.676 365.456 184.572 365.52 185.511 365.648C186.45 365.733 187.452 365.904 188.519 366.16V364.88C188.519 363.984 188.412 363.131 188.199 362.32C187.986 361.509 187.602 360.805 187.047 360.208C186.535 359.568 185.831 359.077 184.935 358.736C184.082 358.395 182.994 358.224 181.671 358.224C179.879 358.224 178.236 358.352 176.743 358.608C175.25 358.864 174.034 359.163 173.095 359.504L172.135 353.232C173.116 352.891 174.546 352.549 176.423 352.208C178.3 351.867 180.306 351.696 182.439 351.696ZM217.139 386.64C214.835 386.597 212.915 386.341 211.379 385.872C209.885 385.403 208.691 384.741 207.795 383.888C206.899 382.992 206.259 381.904 205.875 380.624C205.533 379.301 205.363 377.808 205.363 376.144V337.616L213.107 336.336V374.672C213.107 375.611 213.171 376.4 213.299 377.04C213.469 377.68 213.747 378.235 214.131 378.704C214.515 379.131 215.027 379.472 215.667 379.728C216.349 379.941 217.203 380.112 218.227 380.24L217.139 386.64ZM222.635 369.424C222.635 366.48 223.061 363.899 223.915 361.68C224.811 359.461 225.984 357.627 227.435 356.176C228.885 354.683 230.549 353.573 232.427 352.848C234.304 352.08 236.224 351.696 238.187 351.696C242.795 351.696 246.379 353.125 248.939 355.984C251.541 358.843 252.843 363.109 252.843 368.784C252.843 369.211 252.821 369.701 252.779 370.256C252.779 370.768 252.757 371.237 252.715 371.664H230.635C230.848 374.352 231.787 376.443 233.451 377.936C235.157 379.387 237.611 380.112 240.811 380.112C242.688 380.112 244.395 379.941 245.931 379.6C247.509 379.259 248.747 378.896 249.643 378.512L250.667 384.848C250.24 385.061 249.643 385.296 248.875 385.552C248.149 385.765 247.296 385.957 246.315 386.128C245.376 386.341 244.352 386.512 243.243 386.64C242.133 386.768 241.003 386.832 239.851 386.832C236.907 386.832 234.347 386.405 232.171 385.552C229.995 384.656 228.203 383.44 226.795 381.904C225.387 380.325 224.341 378.491 223.659 376.4C222.976 374.267 222.635 371.941 222.635 369.424ZM245.099 365.968C245.099 364.901 244.949 363.899 244.651 362.96C244.352 361.979 243.904 361.147 243.307 360.464C242.752 359.739 242.048 359.184 241.195 358.8C240.384 358.373 239.403 358.16 238.251 358.16C237.056 358.16 236.011 358.395 235.115 358.864C234.219 359.291 233.451 359.867 232.811 360.592C232.213 361.317 231.744 362.149 231.403 363.088C231.061 364.027 230.827 364.987 230.699 365.968H245.099ZM261.053 353.616C262.546 353.189 264.488 352.784 266.877 352.4C269.266 352.016 271.912 351.824 274.813 351.824C277.544 351.824 279.826 352.208 281.661 352.976C283.496 353.701 284.946 354.747 286.013 356.112C287.122 357.435 287.89 359.056 288.317 360.976C288.786 362.853 289.021 364.923 289.021 367.184V386H281.277V368.4C281.277 366.608 281.149 365.093 280.893 363.856C280.68 362.576 280.296 361.552 279.741 360.784C279.229 359.973 278.504 359.397 277.565 359.056C276.669 358.672 275.56 358.48 274.237 358.48C273.256 358.48 272.232 358.544 271.165 358.672C270.098 358.8 269.309 358.907 268.797 358.992V386H261.053V353.616ZM298.107 343.696L305.851 342.416V352.528H317.755V358.992H305.851V372.624C305.851 375.312 306.277 377.232 307.131 378.384C307.984 379.536 309.435 380.112 311.483 380.112C312.891 380.112 314.128 379.963 315.195 379.664C316.304 379.365 317.179 379.088 317.819 378.832L319.099 384.976C318.203 385.36 317.029 385.744 315.579 386.128C314.128 386.555 312.421 386.768 310.458 386.768C308.069 386.768 306.064 386.448 304.443 385.808C302.864 385.168 301.605 384.251 300.667 383.056C299.728 381.819 299.067 380.347 298.683 378.64C298.299 376.891 298.107 374.907 298.107 372.688V343.696ZM338.322 369.296C338.322 366.821 338.706 364.517 339.474 362.384C340.242 360.208 341.33 358.331 342.738 356.752C344.189 355.173 345.938 353.936 347.986 353.04C350.034 352.144 352.338 351.696 354.898 351.696C358.055 351.696 361.042 352.272 363.858 353.424L362.194 359.76C361.298 359.376 360.274 359.056 359.122 358.8C358.013 358.544 356.818 358.416 355.538 358.416C352.509 358.416 350.205 359.376 348.626 361.296C347.047 363.173 346.258 365.84 346.258 369.296C346.258 372.624 347.005 375.269 348.498 377.232C349.991 379.152 352.509 380.112 356.05 380.112C357.373 380.112 358.674 379.984 359.954 379.728C361.234 379.472 362.343 379.152 363.282 378.768L364.37 385.168C363.517 385.595 362.215 385.979 360.466 386.32C358.759 386.661 356.989 386.832 355.154 386.832C352.295 386.832 349.799 386.405 347.666 385.552C345.575 384.656 343.826 383.44 342.418 381.904C341.053 380.325 340.029 378.469 339.346 376.336C338.663 374.16 338.322 371.813 338.322 369.296ZM378.75 380.432C380.798 380.432 382.291 380.197 383.23 379.728C384.168 379.216 384.638 378.363 384.638 377.168C384.638 376.059 384.126 375.141 383.102 374.416C382.12 373.691 380.478 372.901 378.174 372.048C376.766 371.536 375.464 371.003 374.27 370.448C373.118 369.851 372.115 369.168 371.262 368.4C370.408 367.632 369.726 366.715 369.214 365.648C368.744 364.539 368.51 363.195 368.51 361.616C368.51 358.544 369.64 356.133 371.902 354.384C374.163 352.592 377.235 351.696 381.118 351.696C383.08 351.696 384.958 351.888 386.75 352.272C388.542 352.613 389.886 352.955 390.782 353.296L389.374 359.568C388.52 359.184 387.432 358.843 386.11 358.544C384.787 358.203 383.251 358.032 381.502 358.032C379.923 358.032 378.643 358.309 377.662 358.864C376.68 359.376 376.19 360.187 376.19 361.296C376.19 361.851 376.275 362.341 376.446 362.768C376.659 363.195 377 363.6 377.47 363.984C377.939 364.325 378.558 364.688 379.326 365.072C380.094 365.413 381.032 365.776 382.142 366.16C383.976 366.843 385.534 367.525 386.814 368.208C388.094 368.848 389.139 369.595 389.95 370.448C390.803 371.259 391.422 372.197 391.806 373.264C392.19 374.331 392.382 375.611 392.382 377.104C392.382 380.304 391.187 382.736 388.798 384.4C386.451 386.021 383.08 386.832 378.686 386.832C375.742 386.832 373.374 386.576 371.582 386.064C369.79 385.595 368.531 385.211 367.806 384.912L369.15 378.448C370.302 378.917 371.667 379.365 373.246 379.792C374.867 380.219 376.702 380.432 378.75 380.432ZM408 380.432C410.048 380.432 411.541 380.197 412.48 379.728C413.418 379.216 413.888 378.363 413.888 377.168C413.888 376.059 413.376 375.141 412.352 374.416C411.37 373.691 409.728 372.901 407.424 372.048C406.016 371.536 404.714 371.003 403.52 370.448C402.368 369.851 401.365 369.168 400.512 368.4C399.658 367.632 398.976 366.715 398.464 365.648C397.994 364.539 397.76 363.195 397.76 361.616C397.76 358.544 398.89 356.133 401.152 354.384C403.413 352.592 406.485 351.696 410.368 351.696C412.33 351.696 414.208 351.888 416 352.272C417.792 352.613 419.136 352.955 420.032 353.296L418.624 359.568C417.77 359.184 416.682 358.843 415.36 358.544C414.037 358.203 412.501 358.032 410.752 358.032C409.173 358.032 407.893 358.309 406.912 358.864C405.93 359.376 405.44 360.187 405.44 361.296C405.44 361.851 405.525 362.341 405.696 362.768C405.909 363.195 406.25 363.6 406.72 363.984C407.189 364.325 407.808 364.688 408.576 365.072C409.344 365.413 410.282 365.776 411.392 366.16C413.226 366.843 414.784 367.525 416.064 368.208C417.344 368.848 418.389 369.595 419.2 370.448C420.053 371.259 420.672 372.197 421.056 373.264C421.44 374.331 421.632 375.611 421.632 377.104C421.632 380.304 420.437 382.736 418.048 384.4C415.701 386.021 412.33 386.832 407.936 386.832C404.992 386.832 402.624 386.576 400.832 386.064C399.04 385.595 397.781 385.211 397.056 384.912L398.4 378.448C399.552 378.917 400.917 379.365 402.496 379.792C404.117 380.219 405.952 380.432 408 380.432ZM437.57 357.84C437.57 359.333 437.058 360.549 436.034 361.488C435.052 362.427 433.858 362.896 432.45 362.896C430.999 362.896 429.783 362.427 428.802 361.488C427.82 360.549 427.33 359.333 427.33 357.84C427.33 356.347 427.82 355.131 428.802 354.192C429.783 353.211 430.999 352.72 432.45 352.72C433.858 352.72 435.052 353.211 436.034 354.192C437.058 355.131 437.57 356.347 437.57 357.84ZM437.57 381.776C437.57 383.269 437.058 384.485 436.034 385.424C435.052 386.363 433.858 386.832 432.45 386.832C430.999 386.832 429.783 386.363 428.802 385.424C427.82 384.485 427.33 383.269 427.33 381.776C427.33 380.283 427.82 379.067 428.802 378.128C429.783 377.147 430.999 376.656 432.45 376.656C433.858 376.656 435.052 377.147 436.034 378.128C437.058 379.067 437.57 380.283 437.57 381.776ZM456.515 397.904C455.96 397.904 455.192 397.84 454.211 397.712C453.187 397.627 452.291 397.435 451.523 397.136L452.547 390.8C453.486 391.099 454.616 391.248 455.939 391.248C457.731 391.248 458.99 390.715 459.715 389.648C460.44 388.624 460.803 387.067 460.803 384.976V352.528H468.547V385.104C468.547 389.456 467.502 392.677 465.411 394.768C463.363 396.859 460.398 397.904 456.515 397.904ZM469.379 342.736C469.379 344.187 468.91 345.339 467.971 346.192C467.032 347.045 465.923 347.472 464.643 347.472C463.32 347.472 462.19 347.045 461.251 346.192C460.312 345.339 459.843 344.187 459.843 342.736C459.843 341.243 460.312 340.069 461.251 339.216C462.19 338.363 463.32 337.936 464.643 337.936C465.923 337.936 467.032 338.363 467.971 339.216C468.91 340.069 469.379 341.243 469.379 342.736ZM505.884 384.976C504.391 385.36 502.449 385.744 500.06 386.128C497.671 386.555 495.047 386.768 492.188 386.768C489.5 386.768 487.239 386.384 485.404 385.616C483.612 384.848 482.161 383.781 481.052 382.416C479.985 381.051 479.217 379.429 478.748 377.552C478.279 375.632 478.044 373.541 478.044 371.28V352.528H485.788V370.064C485.788 373.648 486.3 376.208 487.324 377.744C488.391 379.28 490.225 380.048 492.828 380.048C493.767 380.048 494.748 380.005 495.772 379.92C496.839 379.835 497.628 379.728 498.14 379.6V352.528H505.884V384.976ZM524.125 380.432C526.173 380.432 527.666 380.197 528.605 379.728C529.543 379.216 530.013 378.363 530.013 377.168C530.013 376.059 529.501 375.141 528.477 374.416C527.495 373.691 525.853 372.901 523.549 372.048C522.141 371.536 520.839 371.003 519.645 370.448C518.493 369.851 517.49 369.168 516.637 368.4C515.783 367.632 515.101 366.715 514.589 365.648C514.119 364.539 513.885 363.195 513.885 361.616C513.885 358.544 515.015 356.133 517.277 354.384C519.538 352.592 522.61 351.696 526.493 351.696C528.455 351.696 530.333 351.888 532.125 352.272C533.917 352.613 535.261 352.955 536.157 353.296L534.749 359.568C533.895 359.184 532.807 358.843 531.485 358.544C530.162 358.203 528.626 358.032 526.877 358.032C525.298 358.032 524.018 358.309 523.037 358.864C522.055 359.376 521.565 360.187 521.565 361.296C521.565 361.851 521.65 362.341 521.821 362.768C522.034 363.195 522.375 363.6 522.845 363.984C523.314 364.325 523.933 364.688 524.701 365.072C525.469 365.413 526.407 365.776 527.517 366.16C529.351 366.843 530.909 367.525 532.189 368.208C533.469 368.848 534.514 369.595 535.325 370.448C536.178 371.259 536.797 372.197 537.181 373.264C537.565 374.331 537.757 375.611 537.757 377.104C537.757 380.304 536.562 382.736 534.173 384.4C531.826 386.021 528.455 386.832 524.061 386.832C521.117 386.832 518.749 386.576 516.957 386.064C515.165 385.595 513.906 385.211 513.181 384.912L514.525 378.448C515.677 378.917 517.042 379.365 518.621 379.792C520.242 380.219 522.077 380.432 524.125 380.432ZM544.607 343.696L552.351 342.416V352.528H564.255V358.992H552.351V372.624C552.351 375.312 552.777 377.232 553.631 378.384C554.484 379.536 555.935 380.112 557.983 380.112C559.391 380.112 560.628 379.963 561.695 379.664C562.804 379.365 563.679 379.088 564.319 378.832L565.599 384.976C564.703 385.36 563.529 385.744 562.079 386.128C560.628 386.555 558.921 386.768 556.958 386.768C554.569 386.768 552.564 386.448 550.943 385.808C549.364 385.168 548.105 384.251 547.167 383.056C546.228 381.819 545.567 380.347 545.183 378.64C544.799 376.891 544.607 374.907 544.607 372.688V343.696ZM579.549 386H571.805V352.528H579.549V386ZM580.381 342.736C580.381 344.187 579.911 345.339 578.973 346.192C578.034 347.045 576.925 347.472 575.645 347.472C574.322 347.472 573.191 347.045 572.253 346.192C571.314 345.339 570.845 344.187 570.845 342.736C570.845 341.243 571.314 340.069 572.253 339.216C573.191 338.363 574.322 337.936 575.645 337.936C576.925 337.936 578.034 338.363 578.973 339.216C579.911 340.069 580.381 341.243 580.381 342.736ZM603.06 336.336C604.852 336.336 606.431 336.507 607.796 336.848C609.161 337.147 610.185 337.424 610.868 337.68L609.396 344.08C608.671 343.739 607.817 343.461 606.836 343.248C605.897 343.035 604.873 342.928 603.764 342.928C602.527 342.928 601.481 343.12 600.628 343.504C599.775 343.845 599.092 344.336 598.58 344.976C598.068 345.616 597.705 346.405 597.492 347.344C597.279 348.24 597.172 349.221 597.172 350.288V352.528H609.332V358.992H597.172V386H589.428V350.16C589.428 345.851 590.559 342.48 592.82 340.048C595.081 337.573 598.495 336.336 603.06 336.336ZM643.444 352.528C639.988 365.243 635.977 376.763 631.412 387.088C630.558 389.008 629.684 390.651 628.788 392.016C627.892 393.381 626.889 394.512 625.78 395.408C624.67 396.304 623.433 396.944 622.068 397.328C620.702 397.755 619.124 397.968 617.332 397.968C616.137 397.968 614.942 397.84 613.748 397.584C612.596 397.328 611.721 397.051 611.123 396.752L612.532 390.544C614.068 391.141 615.582 391.44 617.076 391.44C619.081 391.44 620.638 390.949 621.748 389.968C622.9 389.029 623.902 387.557 624.756 385.552C622.324 380.859 619.977 375.739 617.716 370.192C615.497 364.645 613.513 358.757 611.764 352.528H620.02C620.446 354.32 620.958 356.261 621.556 358.352C622.196 360.443 622.878 362.576 623.604 364.752C624.329 366.885 625.097 369.019 625.908 371.152C626.718 373.285 627.529 375.269 628.34 377.104C629.705 373.307 630.985 369.275 632.18 365.008C633.374 360.699 634.462 356.539 635.444 352.528H643.444ZM645.847 364.176H663.063V371.28H645.847V364.176ZM677.299 386H669.555V352.528H677.299V386ZM678.131 342.736C678.131 344.187 677.661 345.339 676.723 346.192C675.784 347.045 674.675 347.472 673.395 347.472C672.072 347.472 670.941 347.045 670.003 346.192C669.064 345.339 668.595 344.187 668.595 342.736C668.595 341.243 669.064 340.069 670.003 339.216C670.941 338.363 672.072 337.936 673.395 337.936C674.675 337.936 675.784 338.363 676.723 339.216C677.661 340.069 678.131 341.243 678.131 342.736ZM686.794 343.696L694.538 342.416V352.528H706.442V358.992H694.538V372.624C694.538 375.312 694.965 377.232 695.818 378.384C696.671 379.536 698.122 380.112 700.17 380.112C701.578 380.112 702.815 379.963 703.882 379.664C704.991 379.365 705.866 379.088 706.506 378.832L707.786 384.976C706.89 385.36 705.717 385.744 704.266 386.128C702.815 386.555 701.109 386.768 699.146 386.768C696.757 386.768 694.751 386.448 693.13 385.808C691.551 385.168 690.293 384.251 689.354 383.056C688.415 381.819 687.754 380.347 687.37 378.64C686.986 376.891 686.794 374.907 686.794 372.688V343.696ZM711.51 369.424C711.51 366.48 711.936 363.899 712.79 361.68C713.686 359.461 714.859 357.627 716.31 356.176C717.76 354.683 719.424 353.573 721.302 352.848C723.179 352.08 725.099 351.696 727.062 351.696C731.67 351.696 735.254 353.125 737.814 355.984C740.416 358.843 741.718 363.109 741.718 368.784C741.718 369.211 741.696 369.701 741.654 370.256C741.654 370.768 741.632 371.237 741.59 371.664H719.51C719.723 374.352 720.662 376.443 722.326 377.936C724.032 379.387 726.486 380.112 729.686 380.112C731.563 380.112 733.27 379.941 734.806 379.6C736.384 379.259 737.622 378.896 738.518 378.512L739.542 384.848C739.115 385.061 738.518 385.296 737.75 385.552C737.024 385.765 736.171 385.957 735.19 386.128C734.251 386.341 733.227 386.512 732.118 386.64C731.008 386.768 729.878 386.832 728.726 386.832C725.782 386.832 723.222 386.405 721.046 385.552C718.87 384.656 717.078 383.44 715.67 381.904C714.262 380.325 713.216 378.491 712.534 376.4C711.851 374.267 711.51 371.941 711.51 369.424ZM733.974 365.968C733.974 364.901 733.824 363.899 733.526 362.96C733.227 361.979 732.779 361.147 732.182 360.464C731.627 359.739 730.923 359.184 730.07 358.8C729.259 358.373 728.278 358.16 727.126 358.16C725.931 358.16 724.886 358.395 723.99 358.864C723.094 359.291 722.326 359.867 721.686 360.592C721.088 361.317 720.619 362.149 720.278 363.088C719.936 364.027 719.702 364.987 719.574 365.968H733.974ZM769 368.4C769 364.901 768.552 362.384 767.656 360.848C766.803 359.269 765.181 358.48 762.792 358.48C761.939 358.48 761 358.544 759.976 358.672C758.952 358.8 758.184 358.907 757.672 358.992V386H749.928V353.616C751.421 353.189 753.363 352.784 755.752 352.4C758.184 352.016 760.744 351.824 763.432 351.824C765.736 351.824 767.613 352.123 769.064 352.72C770.557 353.317 771.795 354.107 772.776 355.088C773.245 354.747 773.843 354.384 774.568 354C775.293 353.616 776.104 353.275 777 352.976C777.896 352.635 778.835 352.357 779.816 352.144C780.84 351.931 781.864 351.824 782.888 351.824C785.491 351.824 787.624 352.208 789.288 352.976C790.995 353.701 792.317 354.747 793.256 356.112C794.237 357.435 794.899 359.056 795.24 360.976C795.624 362.853 795.816 364.923 795.816 367.184V386H788.072V368.4C788.072 364.901 787.645 362.384 786.792 360.848C785.939 359.269 784.296 358.48 781.864 358.48C780.627 358.48 779.453 358.693 778.344 359.12C777.235 359.504 776.403 359.888 775.848 360.272C776.189 361.339 776.424 362.469 776.552 363.664C776.68 364.859 776.744 366.139 776.744 367.504V386H769V368.4ZM813.687 380.432C815.735 380.432 817.228 380.197 818.167 379.728C819.106 379.216 819.575 378.363 819.575 377.168C819.575 376.059 819.063 375.141 818.039 374.416C817.058 373.691 815.415 372.901 813.111 372.048C811.703 371.536 810.402 371.003 809.207 370.448C808.055 369.851 807.052 369.168 806.199 368.4C805.346 367.632 804.663 366.715 804.151 365.648C803.682 364.539 803.447 363.195 803.447 361.616C803.447 358.544 804.578 356.133 806.839 354.384C809.1 352.592 812.172 351.696 816.055 351.696C818.018 351.696 819.895 351.888 821.687 352.272C823.479 352.613 824.823 352.955 825.719 353.296L824.311 359.568C823.458 359.184 822.37 358.843 821.047 358.544C819.724 358.203 818.188 358.032 816.439 358.032C814.86 358.032 813.58 358.309 812.599 358.864C811.618 359.376 811.127 360.187 811.127 361.296C811.127 361.851 811.212 362.341 811.383 362.768C811.596 363.195 811.938 363.6 812.407 363.984C812.876 364.325 813.495 364.688 814.263 365.072C815.031 365.413 815.97 365.776 817.079 366.16C818.914 366.843 820.471 367.525 821.751 368.208C823.031 368.848 824.076 369.595 824.887 370.448C825.74 371.259 826.359 372.197 826.743 373.264C827.127 374.331 827.319 375.611 827.319 377.104C827.319 380.304 826.124 382.736 823.735 384.4C821.388 386.021 818.018 386.832 813.623 386.832C810.679 386.832 808.311 386.576 806.519 386.064C804.727 385.595 803.468 385.211 802.743 384.912L804.087 378.448C805.239 378.917 806.604 379.365 808.183 379.792C809.804 380.219 811.639 380.432 813.687 380.432Z" fill="#60195E"/>
<path d="M18.064 616.954C19.92 616.954 21.2733 616.741 22.124 616.316C22.9747 615.852 23.4 615.079 23.4 613.996C23.4 612.991 22.936 612.159 22.008 611.502C21.1187 610.845 19.63 610.129 17.542 609.356C16.266 608.892 15.0867 608.409 14.004 607.906C12.96 607.365 12.0513 606.746 11.278 606.05C10.5047 605.354 9.886 604.523 9.422 603.556C8.99667 602.551 8.784 601.333 8.784 599.902C8.784 597.118 9.80867 594.933 11.858 593.348C13.9073 591.724 16.6913 590.912 20.21 590.912C21.9887 590.912 23.69 591.086 25.314 591.434C26.938 591.743 28.156 592.053 28.968 592.362L27.692 598.046C26.9187 597.698 25.9327 597.389 24.734 597.118C23.5353 596.809 22.1433 596.654 20.558 596.654C19.1273 596.654 17.9673 596.905 17.078 597.408C16.1887 597.872 15.744 598.607 15.744 599.612C15.744 600.115 15.8213 600.559 15.976 600.946C16.1693 601.333 16.4787 601.7 16.904 602.048C17.3293 602.357 17.89 602.686 18.586 603.034C19.282 603.343 20.1327 603.672 21.138 604.02C22.8007 604.639 24.212 605.257 25.372 605.876C26.532 606.456 27.4793 607.133 28.214 607.906C28.9873 608.641 29.548 609.491 29.896 610.458C30.244 611.425 30.418 612.585 30.418 613.938C30.418 616.838 29.3353 619.042 27.17 620.55C25.0433 622.019 21.9887 622.754 18.006 622.754C15.338 622.754 13.192 622.522 11.568 622.058C9.944 621.633 8.80333 621.285 8.146 621.014L9.364 615.156C10.408 615.581 11.6453 615.987 13.076 616.374C14.5453 616.761 16.208 616.954 18.064 616.954ZM36.6258 583.662L43.6438 582.502V591.666H54.4318V597.524H43.6438V609.878C43.6438 612.314 44.0305 614.054 44.8038 615.098C45.5771 616.142 46.8918 616.664 48.7478 616.664C50.0238 616.664 51.1451 616.529 52.1118 616.258C53.1171 615.987 53.9098 615.736 54.4898 615.504L55.6498 621.072C54.8378 621.42 53.7745 621.768 52.4598 622.116C51.1451 622.503 49.5985 622.696 47.8198 622.696C45.6545 622.696 43.8371 622.406 42.3678 621.826C40.9371 621.246 39.7965 620.415 38.9458 619.332C38.0951 618.211 37.4958 616.877 37.1478 615.33C36.7998 613.745 36.6258 611.947 36.6258 609.936V583.662ZM78.5 597.988C77.92 597.795 77.108 597.601 76.064 597.408C75.0587 597.176 73.8793 597.06 72.526 597.06C71.7527 597.06 70.9213 597.137 70.032 597.292C69.1813 597.447 68.582 597.582 68.234 597.698V622H61.216V593.116C62.5693 592.613 64.2513 592.149 66.262 591.724C68.3113 591.26 70.5733 591.028 73.048 591.028C73.512 591.028 74.0533 591.067 74.672 591.144C75.2907 591.183 75.9093 591.26 76.528 591.376C77.1467 591.453 77.746 591.569 78.326 591.724C78.906 591.84 79.37 591.956 79.718 592.072L78.5 597.988ZM82.9266 606.978C82.9266 604.31 83.3132 601.971 84.0866 599.96C84.8986 597.949 85.9619 596.287 87.2766 594.972C88.5912 593.619 90.0992 592.613 91.8006 591.956C93.5019 591.26 95.2419 590.912 97.0206 590.912C101.197 590.912 104.445 592.207 106.765 594.798C109.123 597.389 110.303 601.255 110.303 606.398C110.303 606.785 110.283 607.229 110.245 607.732C110.245 608.196 110.225 608.621 110.187 609.008H90.1766C90.3699 611.444 91.2206 613.339 92.7286 614.692C94.2752 616.007 96.4986 616.664 99.3986 616.664C101.1 616.664 102.647 616.509 104.039 616.2C105.469 615.891 106.591 615.562 107.403 615.214L108.331 620.956C107.944 621.149 107.403 621.362 106.707 621.594C106.049 621.787 105.276 621.961 104.387 622.116C103.536 622.309 102.608 622.464 101.603 622.58C100.597 622.696 99.5726 622.754 98.5286 622.754C95.8606 622.754 93.5406 622.367 91.5686 621.594C89.5966 620.782 87.9726 619.68 86.6966 618.288C85.4206 616.857 84.4732 615.195 83.8546 613.3C83.2359 611.367 82.9266 609.259 82.9266 606.978ZM103.285 603.846C103.285 602.879 103.149 601.971 102.879 601.12C102.608 600.231 102.202 599.477 101.661 598.858C101.158 598.201 100.52 597.698 99.7466 597.35C99.0119 596.963 98.1226 596.77 97.0786 596.77C95.9959 596.77 95.0486 596.983 94.2366 597.408C93.4246 597.795 92.7286 598.317 92.1486 598.974C91.6072 599.631 91.1819 600.385 90.8726 601.236C90.5632 602.087 90.3506 602.957 90.2346 603.846H103.285ZM117.395 583.662L124.413 582.502V591.666H135.201V597.524H124.413V609.878C124.413 612.314 124.8 614.054 125.573 615.098C126.347 616.142 127.661 616.664 129.517 616.664C130.793 616.664 131.915 616.529 132.881 616.258C133.887 615.987 134.679 615.736 135.259 615.504L136.419 621.072C135.607 621.42 134.544 621.768 133.229 622.116C131.915 622.503 130.368 622.696 128.589 622.696C126.424 622.696 124.607 622.406 123.137 621.826C121.707 621.246 120.566 620.415 119.715 619.332C118.865 618.211 118.265 616.877 117.917 615.33C117.569 613.745 117.395 611.947 117.395 609.936V583.662ZM139.68 606.862C139.68 604.619 140.028 602.531 140.724 600.598C141.42 598.626 142.406 596.925 143.682 595.494C144.997 594.063 146.582 592.942 148.438 592.13C150.294 591.318 152.382 590.912 154.702 590.912C157.564 590.912 160.27 591.434 162.822 592.478L161.314 598.22C160.502 597.872 159.574 597.582 158.53 597.35C157.525 597.118 156.442 597.002 155.282 597.002C152.537 597.002 150.449 597.872 149.018 599.612C147.588 601.313 146.872 603.73 146.872 606.862C146.872 609.878 147.549 612.275 148.902 614.054C150.256 615.794 152.537 616.664 155.746 616.664C156.945 616.664 158.124 616.548 159.284 616.316C160.444 616.084 161.45 615.794 162.3 615.446L163.286 621.246C162.513 621.633 161.334 621.981 159.748 622.29C158.202 622.599 156.597 622.754 154.934 622.754C152.344 622.754 150.082 622.367 148.148 621.594C146.254 620.782 144.668 619.68 143.392 618.288C142.155 616.857 141.227 615.175 140.608 613.242C139.99 611.27 139.68 609.143 139.68 606.862ZM168.72 622V578.152L175.738 576.992V592.014C176.511 591.743 177.401 591.511 178.406 591.318C179.45 591.125 180.475 591.028 181.48 591.028C183.916 591.028 185.927 591.376 187.512 592.072C189.136 592.729 190.431 593.677 191.398 594.914C192.365 596.113 193.041 597.563 193.428 599.264C193.853 600.965 194.066 602.86 194.066 604.948V622H187.048V606.05C187.048 604.426 186.932 603.053 186.7 601.932C186.507 600.772 186.159 599.844 185.656 599.148C185.192 598.413 184.554 597.891 183.742 597.582C182.93 597.234 181.925 597.06 180.726 597.06C179.798 597.06 178.851 597.157 177.884 597.35C176.917 597.543 176.202 597.717 175.738 597.872V622H168.72ZM222.859 604.658C222.859 609.414 223.574 613.88 225.005 618.056C226.435 622.232 228.427 626.041 230.979 629.482L226.049 632.73C222.917 628.979 220.442 624.726 218.625 619.97C216.807 615.175 215.899 610.071 215.899 604.658C215.899 599.245 216.807 594.16 218.625 589.404C220.442 584.609 222.917 580.337 226.049 576.586L230.979 579.834C228.427 583.314 226.435 587.142 225.005 591.318C223.574 595.455 222.859 599.902 222.859 604.658ZM241.179 606.746C241.179 609.839 241.914 612.275 243.383 614.054C244.852 615.794 246.882 616.664 249.473 616.664C250.594 616.664 251.542 616.625 252.315 616.548C253.127 616.432 253.784 616.316 254.287 616.2V598.8C253.668 598.375 252.837 597.988 251.793 597.64C250.788 597.253 249.705 597.06 248.545 597.06C245.993 597.06 244.118 597.93 242.919 599.67C241.759 601.41 241.179 603.769 241.179 606.746ZM261.305 621.072C259.913 621.497 258.154 621.884 256.027 622.232C253.939 622.58 251.735 622.754 249.415 622.754C247.018 622.754 244.872 622.387 242.977 621.652C241.082 620.917 239.458 619.873 238.105 618.52C236.79 617.128 235.766 615.465 235.031 613.532C234.335 611.56 233.987 609.356 233.987 606.92C233.987 604.523 234.277 602.357 234.857 600.424C235.476 598.452 236.365 596.77 237.525 595.378C238.685 593.986 240.096 592.923 241.759 592.188C243.422 591.415 245.336 591.028 247.501 591.028C248.97 591.028 250.266 591.202 251.387 591.55C252.508 591.898 253.475 592.285 254.287 592.71V578.152L261.305 576.992V621.072ZM268.538 606.978C268.538 604.31 268.925 601.971 269.698 599.96C270.51 597.949 271.573 596.287 272.888 594.972C274.203 593.619 275.711 592.613 277.412 591.956C279.113 591.26 280.853 590.912 282.632 590.912C286.808 590.912 290.056 592.207 292.376 594.798C294.735 597.389 295.914 601.255 295.914 606.398C295.914 606.785 295.895 607.229 295.856 607.732C295.856 608.196 295.837 608.621 295.798 609.008H275.788C275.981 611.444 276.832 613.339 278.34 614.692C279.887 616.007 282.11 616.664 285.01 616.664C286.711 616.664 288.258 616.509 289.65 616.2C291.081 615.891 292.202 615.562 293.014 615.214L293.942 620.956C293.555 621.149 293.014 621.362 292.318 621.594C291.661 621.787 290.887 621.961 289.998 622.116C289.147 622.309 288.219 622.464 287.214 622.58C286.209 622.696 285.184 622.754 284.14 622.754C281.472 622.754 279.152 622.367 277.18 621.594C275.208 620.782 273.584 619.68 272.308 618.288C271.032 616.857 270.085 615.195 269.466 613.3C268.847 611.367 268.538 609.259 268.538 606.978ZM288.896 603.846C288.896 602.879 288.761 601.971 288.49 601.12C288.219 600.231 287.813 599.477 287.272 598.858C286.769 598.201 286.131 597.698 285.358 597.35C284.623 596.963 283.734 596.77 282.69 596.77C281.607 596.77 280.66 596.983 279.848 597.408C279.036 597.795 278.34 598.317 277.76 598.974C277.219 599.631 276.793 600.385 276.484 601.236C276.175 602.087 275.962 602.957 275.846 603.846H288.896ZM315.709 576.992C317.333 576.992 318.763 577.147 320.001 577.456C321.238 577.727 322.166 577.978 322.785 578.21L321.451 584.01C320.793 583.701 320.02 583.449 319.131 583.256C318.28 583.063 317.352 582.966 316.347 582.966C315.225 582.966 314.278 583.14 313.505 583.488C312.731 583.797 312.113 584.242 311.649 584.822C311.185 585.402 310.856 586.117 310.663 586.968C310.469 587.78 310.373 588.669 310.373 589.636V591.666H321.393V597.524H310.373V622H303.355V589.52C303.355 585.615 304.379 582.56 306.429 580.356C308.478 578.113 311.571 576.992 315.709 576.992ZM337.249 617.07C339.415 617.07 341.058 616.954 342.179 616.722V608.95C341.793 608.834 341.232 608.718 340.497 608.602C339.763 608.486 338.951 608.428 338.061 608.428C337.288 608.428 336.495 608.486 335.683 608.602C334.91 608.718 334.195 608.931 333.537 609.24C332.919 609.549 332.416 609.994 332.029 610.574C331.643 611.115 331.449 611.811 331.449 612.662C331.449 614.325 331.971 615.485 333.015 616.142C334.059 616.761 335.471 617.07 337.249 617.07ZM336.669 590.912C338.989 590.912 340.942 591.202 342.527 591.782C344.113 592.362 345.369 593.174 346.297 594.218C347.264 595.262 347.941 596.538 348.327 598.046C348.753 599.515 348.965 601.139 348.965 602.918V621.304C347.883 621.536 346.239 621.807 344.035 622.116C341.87 622.464 339.415 622.638 336.669 622.638C334.852 622.638 333.189 622.464 331.681 622.116C330.173 621.768 328.878 621.207 327.795 620.434C326.751 619.661 325.92 618.655 325.301 617.418C324.721 616.181 324.431 614.653 324.431 612.836C324.431 611.096 324.76 609.627 325.417 608.428C326.113 607.229 327.041 606.263 328.201 605.528C329.361 604.755 330.695 604.213 332.203 603.904C333.75 603.556 335.355 603.382 337.017 603.382C337.791 603.382 338.603 603.44 339.453 603.556C340.304 603.633 341.213 603.788 342.179 604.02V602.86C342.179 602.048 342.083 601.275 341.889 600.54C341.696 599.805 341.348 599.167 340.845 598.626C340.381 598.046 339.743 597.601 338.931 597.292C338.158 596.983 337.172 596.828 335.973 596.828C334.349 596.828 332.861 596.944 331.507 597.176C330.154 597.408 329.052 597.679 328.201 597.988L327.331 592.304C328.221 591.995 329.516 591.685 331.217 591.376C332.919 591.067 334.736 590.912 336.669 590.912ZM382.442 621.072C381.088 621.42 379.329 621.768 377.164 622.116C374.998 622.503 372.62 622.696 370.03 622.696C367.594 622.696 365.544 622.348 363.882 621.652C362.258 620.956 360.943 619.989 359.938 618.752C358.971 617.515 358.275 616.045 357.85 614.344C357.424 612.604 357.212 610.709 357.212 608.66V591.666H364.23V607.558C364.23 610.806 364.694 613.126 365.622 614.518C366.588 615.91 368.251 616.606 370.61 616.606C371.46 616.606 372.35 616.567 373.278 616.49C374.244 616.413 374.96 616.316 375.424 616.2V591.666H382.442V621.072ZM401.93 622.58C399.842 622.541 398.102 622.309 396.71 621.884C395.357 621.459 394.274 620.859 393.462 620.086C392.65 619.274 392.07 618.288 391.722 617.128C391.413 615.929 391.258 614.576 391.258 613.068V578.152L398.276 576.992V611.734C398.276 612.585 398.334 613.3 398.45 613.88C398.605 614.46 398.856 614.963 399.204 615.388C399.552 615.775 400.016 616.084 400.596 616.316C401.215 616.509 401.988 616.664 402.916 616.78L401.93 622.58ZM408.245 583.662L415.263 582.502V591.666H426.051V597.524H415.263V609.878C415.263 612.314 415.65 614.054 416.423 615.098C417.196 616.142 418.511 616.664 420.367 616.664C421.643 616.664 422.764 616.529 423.731 616.258C424.736 615.987 425.529 615.736 426.109 615.504L427.269 621.072C426.457 621.42 425.394 621.768 424.079 622.116C422.764 622.503 421.218 622.696 419.439 622.696C417.274 622.696 415.456 622.406 413.987 621.826C412.556 621.246 411.416 620.415 410.565 619.332C409.714 618.211 409.115 616.877 408.767 615.33C408.419 613.745 408.245 611.947 408.245 609.936V583.662ZM436.721 604.658C436.721 599.902 436.006 595.455 434.575 591.318C433.144 587.142 431.153 583.314 428.601 579.834L433.531 576.586C436.663 580.337 439.138 584.609 440.955 589.404C442.772 594.16 443.681 599.245 443.681 604.658C443.681 610.071 442.772 615.175 440.955 619.97C439.138 624.726 436.663 628.979 433.531 632.73L428.601 629.482C431.153 626.041 433.144 622.232 434.575 618.056C436.006 613.88 436.721 609.414 436.721 604.658Z" fill="#60195E"/>
<path d="M18.064 1120.95C19.92 1120.95 21.2733 1120.74 22.124 1120.32C22.9747 1119.85 23.4 1119.08 23.4 1118C23.4 1116.99 22.936 1116.16 22.008 1115.5C21.1187 1114.84 19.63 1114.13 17.542 1113.36C16.266 1112.89 15.0867 1112.41 14.004 1111.91C12.96 1111.36 12.0513 1110.75 11.278 1110.05C10.5047 1109.35 9.886 1108.52 9.422 1107.56C8.99667 1106.55 8.784 1105.33 8.784 1103.9C8.784 1101.12 9.80867 1098.93 11.858 1097.35C13.9073 1095.72 16.6913 1094.91 20.21 1094.91C21.9887 1094.91 23.69 1095.09 25.314 1095.43C26.938 1095.74 28.156 1096.05 28.968 1096.36L27.692 1102.05C26.9187 1101.7 25.9327 1101.39 24.734 1101.12C23.5353 1100.81 22.1433 1100.65 20.558 1100.65C19.1273 1100.65 17.9673 1100.91 17.078 1101.41C16.1887 1101.87 15.744 1102.61 15.744 1103.61C15.744 1104.11 15.8213 1104.56 15.976 1104.95C16.1693 1105.33 16.4787 1105.7 16.904 1106.05C17.3293 1106.36 17.89 1106.69 18.586 1107.03C19.282 1107.34 20.1327 1107.67 21.138 1108.02C22.8007 1108.64 24.212 1109.26 25.372 1109.88C26.532 1110.46 27.4793 1111.13 28.214 1111.91C28.9873 1112.64 29.548 1113.49 29.896 1114.46C30.244 1115.42 30.418 1116.58 30.418 1117.94C30.418 1120.84 29.3353 1123.04 27.17 1124.55C25.0433 1126.02 21.9887 1126.75 18.006 1126.75C15.338 1126.75 13.192 1126.52 11.568 1126.06C9.944 1125.63 8.80333 1125.28 8.146 1125.01L9.364 1119.16C10.408 1119.58 11.6453 1119.99 13.076 1120.37C14.5453 1120.76 16.208 1120.95 18.064 1120.95ZM36.6258 1087.66L43.6438 1086.5V1095.67H54.4318V1101.52H43.6438V1113.88C43.6438 1116.31 44.0305 1118.05 44.8038 1119.1C45.5771 1120.14 46.8918 1120.66 48.7478 1120.66C50.0238 1120.66 51.1451 1120.53 52.1118 1120.26C53.1171 1119.99 53.9098 1119.74 54.4898 1119.5L55.6498 1125.07C54.8378 1125.42 53.7745 1125.77 52.4598 1126.12C51.1451 1126.5 49.5985 1126.7 47.8198 1126.7C45.6545 1126.7 43.8371 1126.41 42.3678 1125.83C40.9371 1125.25 39.7965 1124.41 38.9458 1123.33C38.0951 1122.21 37.4958 1120.88 37.1478 1119.33C36.7998 1117.74 36.6258 1115.95 36.6258 1113.94V1087.66ZM71.888 1121.07C74.0533 1121.07 75.6967 1120.95 76.818 1120.72V1112.95C76.4313 1112.83 75.8707 1112.72 75.136 1112.6C74.4013 1112.49 73.5893 1112.43 72.7 1112.43C71.9267 1112.43 71.134 1112.49 70.322 1112.6C69.5487 1112.72 68.8333 1112.93 68.176 1113.24C67.5573 1113.55 67.0547 1113.99 66.668 1114.57C66.2813 1115.12 66.088 1115.81 66.088 1116.66C66.088 1118.32 66.61 1119.48 67.654 1120.14C68.698 1120.76 70.1093 1121.07 71.888 1121.07ZM71.308 1094.91C73.628 1094.91 75.5807 1095.2 77.166 1095.78C78.7513 1096.36 80.008 1097.17 80.936 1098.22C81.9027 1099.26 82.5793 1100.54 82.966 1102.05C83.3913 1103.52 83.604 1105.14 83.604 1106.92V1125.3C82.5213 1125.54 80.878 1125.81 78.674 1126.12C76.5087 1126.46 74.0533 1126.64 71.308 1126.64C69.4907 1126.64 67.828 1126.46 66.32 1126.12C64.812 1125.77 63.5167 1125.21 62.434 1124.43C61.39 1123.66 60.5587 1122.66 59.94 1121.42C59.36 1120.18 59.07 1118.65 59.07 1116.84C59.07 1115.1 59.3987 1113.63 60.056 1112.43C60.752 1111.23 61.68 1110.26 62.84 1109.53C64 1108.75 65.334 1108.21 66.842 1107.9C68.3887 1107.56 69.9933 1107.38 71.656 1107.38C72.4293 1107.38 73.2413 1107.44 74.092 1107.56C74.9427 1107.63 75.8513 1107.79 76.818 1108.02V1106.86C76.818 1106.05 76.7213 1105.27 76.528 1104.54C76.3347 1103.81 75.9867 1103.17 75.484 1102.63C75.02 1102.05 74.382 1101.6 73.57 1101.29C72.7967 1100.98 71.8107 1100.83 70.612 1100.83C68.988 1100.83 67.4993 1100.94 66.146 1101.18C64.7927 1101.41 63.6907 1101.68 62.84 1101.99L61.97 1096.3C62.8593 1095.99 64.1547 1095.69 65.856 1095.38C67.5573 1095.07 69.3747 1094.91 71.308 1094.91ZM109.482 1101.99C108.902 1101.79 108.09 1101.6 107.046 1101.41C106.041 1101.18 104.862 1101.06 103.508 1101.06C102.735 1101.06 101.904 1101.14 101.014 1101.29C100.164 1101.45 99.5644 1101.58 99.2164 1101.7V1126H92.1984V1097.12C93.5518 1096.61 95.2338 1096.15 97.2444 1095.72C99.2938 1095.26 101.556 1095.03 104.03 1095.03C104.494 1095.03 105.036 1095.07 105.654 1095.14C106.273 1095.18 106.892 1095.26 107.51 1095.38C108.129 1095.45 108.728 1095.57 109.308 1095.72C109.888 1095.84 110.352 1095.96 110.7 1096.07L109.482 1101.99ZM115.243 1087.66L122.261 1086.5V1095.67H133.049V1101.52H122.261V1113.88C122.261 1116.31 122.648 1118.05 123.421 1119.1C124.194 1120.14 125.509 1120.66 127.365 1120.66C128.641 1120.66 129.762 1120.53 130.729 1120.26C131.734 1119.99 132.527 1119.74 133.107 1119.5L134.267 1125.07C133.455 1125.42 132.392 1125.77 131.077 1126.12C129.762 1126.5 128.216 1126.7 126.437 1126.7C124.272 1126.7 122.454 1126.41 120.985 1125.83C119.554 1125.25 118.414 1124.41 117.563 1123.33C116.712 1122.21 116.113 1120.88 115.765 1119.33C115.417 1117.74 115.243 1115.95 115.243 1113.94V1087.66Z" fill="#60195E"/>
<path d="M1329.78 606.978C1329.78 604.31 1330.17 601.971 1330.94 599.96C1331.76 597.949 1332.82 596.287 1334.13 594.972C1335.45 593.619 1336.96 592.613 1338.66 591.956C1340.36 591.26 1342.1 590.912 1343.88 590.912C1348.05 590.912 1351.3 592.207 1353.62 594.798C1355.98 597.389 1357.16 601.255 1357.16 606.398C1357.16 606.785 1357.14 607.229 1357.1 607.732C1357.1 608.196 1357.08 608.621 1357.04 609.008H1337.03C1337.23 611.444 1338.08 613.339 1339.59 614.692C1341.13 616.007 1343.36 616.664 1346.26 616.664C1347.96 616.664 1349.5 616.509 1350.9 616.2C1352.33 615.891 1353.45 615.562 1354.26 615.214L1355.19 620.956C1354.8 621.149 1354.26 621.362 1353.56 621.594C1352.91 621.787 1352.13 621.961 1351.24 622.116C1350.39 622.309 1349.47 622.464 1348.46 622.58C1347.45 622.696 1346.43 622.754 1345.39 622.754C1342.72 622.754 1340.4 622.367 1338.43 621.594C1336.45 620.782 1334.83 619.68 1333.55 618.288C1332.28 616.857 1331.33 615.195 1330.71 613.3C1330.09 611.367 1329.78 609.259 1329.78 606.978ZM1350.14 603.846C1350.14 602.879 1350.01 601.971 1349.74 601.12C1349.47 600.231 1349.06 599.477 1348.52 598.858C1348.02 598.201 1347.38 597.698 1346.6 597.35C1345.87 596.963 1344.98 596.77 1343.94 596.77C1342.85 596.77 1341.91 596.983 1341.09 597.408C1340.28 597.795 1339.59 598.317 1339.01 598.974C1338.46 599.631 1338.04 600.385 1337.73 601.236C1337.42 602.087 1337.21 602.957 1337.09 603.846H1350.14ZM1364.6 592.652C1365.95 592.265 1367.71 591.898 1369.88 591.55C1372.04 591.202 1374.44 591.028 1377.07 591.028C1379.55 591.028 1381.61 591.376 1383.28 592.072C1384.94 592.729 1386.25 593.677 1387.22 594.914C1388.23 596.113 1388.92 597.582 1389.31 599.322C1389.73 601.023 1389.95 602.899 1389.95 604.948V622H1382.93V606.05C1382.93 604.426 1382.81 603.053 1382.58 601.932C1382.39 600.772 1382.04 599.844 1381.54 599.148C1381.07 598.413 1380.42 597.891 1379.56 597.582C1378.75 597.234 1377.75 597.06 1376.55 597.06C1375.66 597.06 1374.73 597.118 1373.76 597.234C1372.8 597.35 1372.08 597.447 1371.62 597.524V622H1364.6V592.652ZM1404.04 606.746C1404.04 609.839 1404.77 612.275 1406.24 614.054C1407.71 615.794 1409.74 616.664 1412.33 616.664C1413.45 616.664 1414.4 616.625 1415.17 616.548C1415.99 616.432 1416.64 616.316 1417.15 616.2V598.8C1416.53 598.375 1415.7 597.988 1414.65 597.64C1413.65 597.253 1412.56 597.06 1411.4 597.06C1408.85 597.06 1406.98 597.93 1405.78 599.67C1404.62 601.41 1404.04 603.769 1404.04 606.746ZM1424.16 621.072C1422.77 621.497 1421.01 621.884 1418.89 622.232C1416.8 622.58 1414.59 622.754 1412.27 622.754C1409.88 622.754 1407.73 622.387 1405.84 621.652C1403.94 620.917 1402.32 619.873 1400.96 618.52C1399.65 617.128 1398.63 615.465 1397.89 613.532C1397.19 611.56 1396.85 609.356 1396.85 606.92C1396.85 604.523 1397.14 602.357 1397.72 600.424C1398.34 598.452 1399.22 596.77 1400.38 595.378C1401.54 593.986 1402.96 592.923 1404.62 592.188C1406.28 591.415 1408.2 591.028 1410.36 591.028C1411.83 591.028 1413.13 591.202 1414.25 591.55C1415.37 591.898 1416.33 592.285 1417.15 592.71V578.152L1424.16 576.992V621.072Z" fill="#60195E"/>
<path d="M1320.78 1102.86C1320.78 1100.62 1321.13 1098.53 1321.83 1096.6C1322.52 1094.63 1323.51 1092.92 1324.79 1091.49C1326.1 1090.06 1327.69 1088.94 1329.54 1088.13C1331.4 1087.32 1333.49 1086.91 1335.81 1086.91C1338.67 1086.91 1341.37 1087.43 1343.93 1088.48L1342.42 1094.22C1341.61 1093.87 1340.68 1093.58 1339.63 1093.35C1338.63 1093.12 1337.55 1093 1336.39 1093C1333.64 1093 1331.55 1093.87 1330.12 1095.61C1328.69 1097.31 1327.98 1099.73 1327.98 1102.86C1327.98 1105.88 1328.65 1108.28 1330.01 1110.05C1331.36 1111.79 1333.64 1112.66 1336.85 1112.66C1338.05 1112.66 1339.23 1112.55 1340.39 1112.32C1341.55 1112.08 1342.55 1111.79 1343.4 1111.45L1344.39 1117.25C1343.62 1117.63 1342.44 1117.98 1340.85 1118.29C1339.31 1118.6 1337.7 1118.75 1336.04 1118.75C1333.45 1118.75 1331.19 1118.37 1329.25 1117.59C1327.36 1116.78 1325.77 1115.68 1324.5 1114.29C1323.26 1112.86 1322.33 1111.18 1321.71 1109.24C1321.09 1107.27 1320.78 1105.14 1320.78 1102.86ZM1348.14 1102.98C1348.14 1100.31 1348.53 1097.97 1349.3 1095.96C1350.11 1093.95 1351.18 1092.29 1352.49 1090.97C1353.81 1089.62 1355.31 1088.61 1357.02 1087.96C1358.72 1087.26 1360.46 1086.91 1362.24 1086.91C1366.41 1086.91 1369.66 1088.21 1371.98 1090.8C1374.34 1093.39 1375.52 1097.26 1375.52 1102.4C1375.52 1102.78 1375.5 1103.23 1375.46 1103.73C1375.46 1104.2 1375.44 1104.62 1375.4 1105.01H1355.39C1355.58 1107.44 1356.44 1109.34 1357.94 1110.69C1359.49 1112.01 1361.71 1112.66 1364.61 1112.66C1366.31 1112.66 1367.86 1112.51 1369.25 1112.2C1370.68 1111.89 1371.81 1111.56 1372.62 1111.21L1373.55 1116.96C1373.16 1117.15 1372.62 1117.36 1371.92 1117.59C1371.26 1117.79 1370.49 1117.96 1369.6 1118.12C1368.75 1118.31 1367.82 1118.46 1366.82 1118.58C1365.81 1118.7 1364.79 1118.75 1363.74 1118.75C1361.08 1118.75 1358.76 1118.37 1356.78 1117.59C1354.81 1116.78 1353.19 1115.68 1351.91 1114.29C1350.64 1112.86 1349.69 1111.19 1349.07 1109.3C1348.45 1107.37 1348.14 1105.26 1348.14 1102.98ZM1368.5 1099.85C1368.5 1098.88 1368.36 1097.97 1368.09 1097.12C1367.82 1096.23 1367.42 1095.48 1366.88 1094.86C1366.37 1094.2 1365.73 1093.7 1364.96 1093.35C1364.23 1092.96 1363.34 1092.77 1362.29 1092.77C1361.21 1092.77 1360.26 1092.98 1359.45 1093.41C1358.64 1093.79 1357.94 1094.32 1357.36 1094.97C1356.82 1095.63 1356.4 1096.39 1356.09 1097.24C1355.78 1098.09 1355.57 1098.96 1355.45 1099.85H1368.5ZM1382.96 1088.65C1384.31 1088.27 1386.07 1087.9 1388.24 1087.55C1390.4 1087.2 1392.8 1087.03 1395.43 1087.03C1397.9 1087.03 1399.97 1087.38 1401.63 1088.07C1403.3 1088.73 1404.61 1089.68 1405.58 1090.91C1406.58 1092.11 1407.28 1093.58 1407.67 1095.32C1408.09 1097.02 1408.3 1098.9 1408.3 1100.95V1118H1401.29V1102.05C1401.29 1100.43 1401.17 1099.05 1400.94 1097.93C1400.74 1096.77 1400.4 1095.84 1399.89 1095.15C1399.43 1094.41 1398.77 1093.89 1397.92 1093.58C1397.11 1093.23 1396.1 1093.06 1394.91 1093.06C1394.02 1093.06 1393.09 1093.12 1392.12 1093.23C1391.16 1093.35 1390.44 1093.45 1389.98 1093.52V1118H1382.96V1088.65ZM1416.54 1079.66L1423.56 1078.5V1087.67H1434.34V1093.52H1423.56V1105.88C1423.56 1108.31 1423.94 1110.05 1424.72 1111.1C1425.49 1112.14 1426.8 1112.66 1428.66 1112.66C1429.94 1112.66 1431.06 1112.53 1432.02 1112.26C1433.03 1111.99 1433.82 1111.74 1434.4 1111.5L1435.56 1117.07C1434.75 1117.42 1433.69 1117.77 1432.37 1118.12C1431.06 1118.5 1429.51 1118.7 1427.73 1118.7C1425.57 1118.7 1423.75 1118.41 1422.28 1117.83C1420.85 1117.25 1419.71 1116.41 1418.86 1115.33C1418.01 1114.21 1417.41 1112.88 1417.06 1111.33C1416.71 1109.74 1416.54 1107.95 1416.54 1105.94V1079.66ZM1438.94 1102.98C1438.94 1100.31 1439.32 1097.97 1440.1 1095.96C1440.91 1093.95 1441.97 1092.29 1443.29 1090.97C1444.6 1089.62 1446.11 1088.61 1447.81 1087.96C1449.51 1087.26 1451.25 1086.91 1453.03 1086.91C1457.21 1086.91 1460.45 1088.21 1462.77 1090.8C1465.13 1093.39 1466.31 1097.26 1466.31 1102.4C1466.31 1102.78 1466.29 1103.23 1466.25 1103.73C1466.25 1104.2 1466.24 1104.62 1466.2 1105.01H1446.19C1446.38 1107.44 1447.23 1109.34 1448.74 1110.69C1450.29 1112.01 1452.51 1112.66 1455.41 1112.66C1457.11 1112.66 1458.66 1112.51 1460.05 1112.2C1461.48 1111.89 1462.6 1111.56 1463.41 1111.21L1464.34 1116.96C1463.95 1117.15 1463.41 1117.36 1462.72 1117.59C1462.06 1117.79 1461.29 1117.96 1460.4 1118.12C1459.55 1118.31 1458.62 1118.46 1457.61 1118.58C1456.61 1118.7 1455.58 1118.75 1454.54 1118.75C1451.87 1118.75 1449.55 1118.37 1447.58 1117.59C1445.61 1116.78 1443.98 1115.68 1442.71 1114.29C1441.43 1112.86 1440.48 1111.19 1439.86 1109.3C1439.25 1107.37 1438.94 1105.26 1438.94 1102.98ZM1459.29 1099.85C1459.29 1098.88 1459.16 1097.97 1458.89 1097.12C1458.62 1096.23 1458.21 1095.48 1457.67 1094.86C1457.17 1094.2 1456.53 1093.7 1455.76 1093.35C1455.02 1092.96 1454.13 1092.77 1453.09 1092.77C1452.01 1092.77 1451.06 1092.98 1450.25 1093.41C1449.43 1093.79 1448.74 1094.32 1448.16 1094.97C1447.62 1095.63 1447.19 1096.39 1446.88 1097.24C1446.57 1098.09 1446.36 1098.96 1446.24 1099.85H1459.29ZM1491.04 1093.99C1490.46 1093.79 1489.65 1093.6 1488.6 1093.41C1487.6 1093.18 1486.42 1093.06 1485.06 1093.06C1484.29 1093.06 1483.46 1093.14 1482.57 1093.29C1481.72 1093.45 1481.12 1093.58 1480.77 1093.7V1118H1473.75V1089.12C1475.11 1088.61 1476.79 1088.15 1478.8 1087.72C1480.85 1087.26 1483.11 1087.03 1485.59 1087.03C1486.05 1087.03 1486.59 1087.07 1487.21 1087.14C1487.83 1087.18 1488.45 1087.26 1489.07 1087.38C1489.68 1087.45 1490.28 1087.57 1490.86 1087.72C1491.44 1087.84 1491.91 1087.96 1492.26 1088.07L1491.04 1093.99Z" fill="#60195E"/>
<line x1="3" y1="233.5" x2="1124" y2="233.5" stroke="#60195E" stroke-width="13"/>
<line x1="3" y1="233.5" x2="1124" y2="233.5" stroke="black" stroke-opacity="0.2" stroke-width="13"/>
<path d="M23 660.5H1094C1103.67 660.5 1111.5 668.335 1111.5 678V1011C1111.5 1020.66 1103.67 1028.5 1094 1028.5H23C13.335 1028.5 5.5 1020.67 5.5 1011V678C5.5 668.335 13.335 660.5 23 660.5Z" fill="#C4C4C4" stroke="#C4C4C4" stroke-width="5"/>
<path d="M26 668.5H221C230.665 668.5 238.5 676.335 238.5 686V752C238.5 761.665 230.665 769.5 221 769.5H26C16.335 769.5 8.5 761.665 8.5 752V686C8.5 676.335 16.335 668.5 26 668.5Z" fill="#E6E6E6" stroke="#60195E" stroke-width="5"/>
<path d="M26 793.5H221C230.665 793.5 238.5 801.335 238.5 811V896C238.5 905.665 230.665 913.5 221 913.5H26C16.335 913.5 8.5 905.665 8.5 896V811C8.5 801.335 16.335 793.5 26 793.5Z" fill="#E6E6E6" stroke="#60195E" stroke-width="5"/>
<path d="M26 934.5H221C230.665 934.5 238.5 942.335 238.5 952V1007C238.5 1016.66 230.665 1024.5 221 1024.5H26C16.335 1024.5 8.5 1016.66 8.5 1007V952C8.5 942.335 16.335 934.5 26 934.5Z" fill="#E6E6E6" stroke="#60195E" stroke-width="5"/>
<path d="M282 934.5H729C738.665 934.5 746.5 942.335 746.5 952V1007C746.5 1016.67 738.665 1024.5 729 1024.5H282C272.335 1024.5 264.5 1016.67 264.5 1007V952C264.5 942.335 272.335 934.5 282 934.5Z" fill="#E6E6E6" stroke="#60195E" stroke-width="5"/>
<path d="M282 793.5H729C738.665 793.5 746.5 801.335 746.5 811V896C746.5 905.665 738.665 913.5 729 913.5H282C272.335 913.5 264.5 905.665 264.5 896V811C264.5 801.335 272.335 793.5 282 793.5Z" fill="#E6E6E6" stroke="#60195E" stroke-width="5"/>
<path d="M282 667.5H729C738.665 667.5 746.5 675.335 746.5 685V751.435C746.5 761.1 738.665 768.935 729 768.935H282C272.335 768.935 264.5 761.1 264.5 751.435V685C264.5 675.335 272.335 667.5 282 667.5Z" fill="#E6E6E6" stroke="#60195E" stroke-width="5"/>
<path d="M787 667.5H1087C1096.66 667.5 1104.5 675.335 1104.5 685V751.435C1104.5 761.1 1096.66 768.935 1087 768.935H787C777.335 768.935 769.5 761.1 769.5 751.435V685C769.5 675.335 777.335 667.5 787 667.5Z" fill="#E6E6E6" stroke="#60195E" stroke-width="5"/>
<path d="M787 793.5H1087C1096.66 793.5 1104.5 801.335 1104.5 811V896C1104.5 905.665 1096.66 913.5 1087 913.5H787C777.335 913.5 769.5 905.665 769.5 896V811C769.5 801.335 777.335 793.5 787 793.5Z" fill="#E6E6E6" stroke="#60195E" stroke-width="5"/>
<path d="M785 934.5H1085C1094.66 934.5 1102.5 942.335 1102.5 952V1007C1102.5 1016.67 1094.66 1024.5 1085 1024.5H785C775.335 1024.5 767.5 1016.67 767.5 1007V952C767.5 942.335 775.335 934.5 785 934.5Z" fill="#E6E6E6" stroke="#60195E" stroke-width="5"/>
<line x1="254" y1="658" x2="254" y2="1031" stroke="black" stroke-opacity="0.6" stroke-width="8" stroke-dasharray="16 3"/>
<line x1="757" y1="658" x2="757" y2="1031" stroke="black" stroke-opacity="0.6" stroke-width="8" stroke-dasharray="16 3"/>
<line x1="1105" y1="782.182" x2="-6" y2="782.182" stroke="black" stroke-opacity="0.6" stroke-width="8" stroke-dasharray="16 3"/>
<line x1="1114" y1="923.536" x2="3" y2="923.536" stroke="black" stroke-opacity="0.6" stroke-width="8" stroke-dasharray="16 3"/>
<path d="M1335 660.5H2406C2415.67 660.5 2423.5 668.335 2423.5 678V1011C2423.5 1020.66 2415.67 1028.5 2406 1028.5H1335C1325.34 1028.5 1317.5 1020.67 1317.5 1011V678C1317.5 668.335 1325.34 660.5 1335 660.5Z" fill="#C4C4C4" stroke="#C4C4C4" stroke-width="5"/>
<path d="M1449 668.5H1533C1542.66 668.5 1550.5 676.335 1550.5 686V752C1550.5 761.665 1542.66 769.5 1533 769.5H1449C1439.34 769.5 1431.5 761.665 1431.5 752V686C1431.5 676.335 1439.34 668.5 1449 668.5Z" fill="#E6E6E6" stroke="#60195E" stroke-width="5"/>
<path d="M1449 793.5H1533C1542.66 793.5 1550.5 801.335 1550.5 811V896C1550.5 905.665 1542.66 913.5 1533 913.5H1449C1439.34 913.5 1431.5 905.665 1431.5 896V811C1431.5 801.335 1439.34 793.5 1449 793.5Z" fill="#E6E6E6" stroke="#60195E" stroke-width="5"/>
<path d="M1449 934.5H1533C1542.66 934.5 1550.5 942.335 1550.5 952V1007C1550.5 1016.66 1542.66 1024.5 1533 1024.5H1449C1439.34 1024.5 1431.5 1016.66 1431.5 1007V952C1431.5 942.335 1439.34 934.5 1449 934.5Z" fill="#E6E6E6" stroke="#60195E" stroke-width="5"/>
<path d="M1733 934.5H2041C2050.66 934.5 2058.5 942.335 2058.5 952V1007C2058.5 1016.67 2050.66 1024.5 2041 1024.5H1733C1723.34 1024.5 1715.5 1016.67 1715.5 1007V952C1715.5 942.335 1723.34 934.5 1733 934.5Z" fill="#E6E6E6" stroke="#60195E" stroke-width="5"/>
<path d="M1733 793.5H2041C2050.66 793.5 2058.5 801.335 2058.5 811V896C2058.5 905.665 2050.66 913.5 2041 913.5H1733C1723.34 913.5 1715.5 905.665 1715.5 896V811C1715.5 801.335 1723.34 793.5 1733 793.5Z" fill="#E6E6E6" stroke="#60195E" stroke-width="5"/>
<path d="M1733 667.5H2041C2050.66 667.5 2058.5 675.335 2058.5 685V751.435C2058.5 761.1 2050.66 768.935 2041 768.935H1733C1723.34 768.935 1715.5 761.1 1715.5 751.435V685C1715.5 675.335 1723.34 667.5 1733 667.5Z" fill="#E6E6E6" stroke="#60195E" stroke-width="5"/>
<path d="M2242.16 667.5H2399C2408.66 667.5 2416.5 675.335 2416.5 685V751.435C2416.5 761.1 2408.66 768.935 2399 768.935H2242.16C2232.49 768.935 2224.66 761.1 2224.66 751.435V685C2224.66 675.335 2232.49 667.5 2242.16 667.5Z" fill="#E6E6E6" stroke="#60195E" stroke-width="5"/>
<path d="M2242.16 793.5H2399C2408.66 793.5 2416.5 801.335 2416.5 811V896C2416.5 905.665 2408.66 913.5 2399 913.5H2242.16C2232.49 913.5 2224.66 905.665 2224.66 896V811C2224.66 801.335 2232.49 793.5 2242.16 793.5Z" fill="#E6E6E6" stroke="#60195E" stroke-width="5"/>
<path d="M2241 934.5H2397.84C2407.51 934.5 2415.34 942.335 2415.34 952V1007C2415.34 1016.67 2407.51 1024.5 2397.84 1024.5H2241C2231.33 1024.5 2223.5 1016.67 2223.5 1007V952C2223.5 942.335 2231.34 934.5 2241 934.5Z" fill="#E6E6E6" stroke="#60195E" stroke-width="5"/>
<line x1="1566" y1="658" x2="1566" y2="1031" stroke="black" stroke-opacity="0.6" stroke-width="8" stroke-dasharray="16 3"/>
<line x1="2069" y1="658" x2="2069" y2="1031" stroke="black" stroke-opacity="0.6" stroke-width="8" stroke-dasharray="16 3"/>
<line x1="2417" y1="782.182" x2="1306" y2="782.182" stroke="black" stroke-opacity="0.6" stroke-width="8" stroke-dasharray="16 3"/>
<line x1="2426" y1="923.536" x2="1315" y2="923.536" stroke="black" stroke-opacity="0.6" stroke-width="8" stroke-dasharray="16 3"/>
<path d="M27 1164.5H1098C1107.67 1164.5 1115.5 1172.34 1115.5 1182V1515C1115.5 1524.66 1107.67 1532.5 1098 1532.5H27C17.335 1532.5 9.5 1524.67 9.5 1515V1182C9.5 1172.34 17.335 1164.5 27 1164.5Z" fill="#C4C4C4" stroke="#C4C4C4" stroke-width="5"/>
<path d="M30 1172.5H162C171.665 1172.5 179.5 1180.34 179.5 1190V1256C179.5 1265.66 171.665 1273.5 162 1273.5H30C20.335 1273.5 12.5 1265.66 12.5 1256V1190C12.5 1180.34 20.335 1172.5 30 1172.5Z" fill="#E6E6E6" stroke="#60195E" stroke-width="5"/>
<path d="M30 1297.5H162C171.665 1297.5 179.5 1305.34 179.5 1315V1400C179.5 1409.66 171.665 1417.5 162 1417.5H30C20.335 1417.5 12.5 1409.66 12.5 1400V1315C12.5 1305.34 20.335 1297.5 30 1297.5Z" fill="#E6E6E6" stroke="#60195E" stroke-width="5"/>
<path d="M30 1438.5H162C171.665 1438.5 179.5 1446.34 179.5 1456V1511C179.5 1520.66 171.665 1528.5 162 1528.5H30C20.335 1528.5 12.5 1520.66 12.5 1511V1456C12.5 1446.34 20.335 1438.5 30 1438.5Z" fill="#E6E6E6" stroke="#60195E" stroke-width="5"/>
<path d="M286 1438.5H572C581.665 1438.5 589.5 1446.34 589.5 1456V1511C589.5 1520.67 581.665 1528.5 572 1528.5H286C276.335 1528.5 268.5 1520.67 268.5 1511V1456C268.5 1446.34 276.335 1438.5 286 1438.5Z" fill="#E6E6E6" stroke="#60195E" stroke-width="5"/>
<path d="M286 1297.5H572C581.665 1297.5 589.5 1305.34 589.5 1315V1400C589.5 1409.66 581.665 1417.5 572 1417.5H286C276.335 1417.5 268.5 1409.66 268.5 1400V1315C268.5 1305.34 276.335 1297.5 286 1297.5Z" fill="#E6E6E6" stroke="#60195E" stroke-width="5"/>
<path d="M286 1171.5H572C581.665 1171.5 589.5 1179.34 589.5 1189V1255.44C589.5 1265.1 581.665 1272.94 572 1272.94H286C276.335 1272.94 268.5 1265.1 268.5 1255.44V1189C268.5 1179.34 276.335 1171.5 286 1171.5Z" fill="#E6E6E6" stroke="#60195E" stroke-width="5"/>
<path d="M790.117 1171.5H940C949.665 1171.5 957.5 1179.34 957.5 1189V1255.44C957.5 1265.1 949.665 1272.94 940 1272.94H790.117C780.452 1272.94 772.617 1265.1 772.617 1255.44V1189C772.617 1179.34 780.452 1171.5 790.117 1171.5Z" fill="#E6E6E6" stroke="#60195E" stroke-width="5"/>
<path d="M790.117 1297.5H940C949.665 1297.5 957.5 1305.34 957.5 1315V1400C957.5 1409.66 949.665 1417.5 940 1417.5H790.117C780.452 1417.5 772.617 1409.66 772.617 1400V1315C772.617 1305.34 780.452 1297.5 790.117 1297.5Z" fill="#E6E6E6" stroke="#60195E" stroke-width="5"/>
<path d="M789 1438.5H938.883C948.548 1438.5 956.383 1446.34 956.383 1456V1511C956.383 1520.67 948.548 1528.5 938.883 1528.5H789C779.335 1528.5 771.5 1520.67 771.5 1511V1456C771.5 1446.34 779.335 1438.5 789 1438.5Z" fill="#E6E6E6" stroke="#60195E" stroke-width="5"/>
<line x1="258" y1="1162" x2="258" y2="1535" stroke="black" stroke-opacity="0.6" stroke-width="8" stroke-dasharray="16 3"/>
<line x1="761" y1="1162" x2="761" y2="1535" stroke="black" stroke-opacity="0.6" stroke-width="8" stroke-dasharray="16 3"/>
<line x1="1109" y1="1286.18" x2="-2" y2="1286.18" stroke="black" stroke-opacity="0.6" stroke-width="8" stroke-dasharray="16 3"/>
<line x1="1118" y1="1427.54" x2="7" y2="1427.54" stroke="black" stroke-opacity="0.6" stroke-width="8" stroke-dasharray="16 3"/>
<path d="M1335 1164.5H2406C2415.67 1164.5 2423.5 1172.34 2423.5 1182V1515C2423.5 1524.66 2415.67 1532.5 2406 1532.5H1335C1325.34 1532.5 1317.5 1524.67 1317.5 1515V1182C1317.5 1172.34 1325.34 1164.5 1335 1164.5Z" fill="#C4C4C4" stroke="#C4C4C4" stroke-width="5"/>
<path d="M1388 1172.5H1483C1492.66 1172.5 1500.5 1180.34 1500.5 1190V1256C1500.5 1265.66 1492.66 1273.5 1483 1273.5H1388C1378.34 1273.5 1370.5 1265.66 1370.5 1256V1190C1370.5 1180.34 1378.34 1172.5 1388 1172.5Z" fill="#E6E6E6" stroke="#60195E" stroke-width="5"/>
<path d="M1388 1297.5H1483C1492.66 1297.5 1500.5 1305.34 1500.5 1315V1400C1500.5 1409.66 1492.66 1417.5 1483 1417.5H1388C1378.34 1417.5 1370.5 1409.66 1370.5 1400V1315C1370.5 1305.34 1378.34 1297.5 1388 1297.5Z" fill="#E6E6E6" stroke="#60195E" stroke-width="5"/>
<path d="M1388 1438.5H1483C1492.66 1438.5 1500.5 1446.34 1500.5 1456V1511C1500.5 1520.66 1492.66 1528.5 1483 1528.5H1388C1378.34 1528.5 1370.5 1520.66 1370.5 1511V1456C1370.5 1446.34 1378.34 1438.5 1388 1438.5Z" fill="#E6E6E6" stroke="#60195E" stroke-width="5"/>
<path d="M1724 1438.5H1911C1920.66 1438.5 1928.5 1446.34 1928.5 1456V1511C1928.5 1520.67 1920.66 1528.5 1911 1528.5H1724C1714.34 1528.5 1706.5 1520.67 1706.5 1511V1456C1706.5 1446.34 1714.34 1438.5 1724 1438.5Z" fill="#E6E6E6" stroke="#60195E" stroke-width="5"/>
<path d="M1724 1297.5H1911C1920.66 1297.5 1928.5 1305.34 1928.5 1315V1400C1928.5 1409.66 1920.66 1417.5 1911 1417.5H1724C1714.34 1417.5 1706.5 1409.66 1706.5 1400V1315C1706.5 1305.34 1714.34 1297.5 1724 1297.5Z" fill="#E6E6E6" stroke="#60195E" stroke-width="5"/>
<path d="M1724 1171.5H1911C1920.66 1171.5 1928.5 1179.34 1928.5 1189V1255.44C1928.5 1265.1 1920.66 1272.94 1911 1272.94H1724C1714.34 1272.94 1706.5 1265.1 1706.5 1255.44V1189C1706.5 1179.34 1714.34 1171.5 1724 1171.5Z" fill="#E6E6E6" stroke="#60195E" stroke-width="5"/>
<path d="M2209.69 1171.5H2287C2296.66 1171.5 2304.5 1179.34 2304.5 1189V1255.44C2304.5 1265.1 2296.66 1272.94 2287 1272.94H2209.69C2200.02 1272.94 2192.19 1265.1 2192.19 1255.44V1189C2192.19 1179.34 2200.02 1171.5 2209.69 1171.5Z" fill="#E6E6E6" stroke="#60195E" stroke-width="5"/>
<path d="M2209.69 1297.5H2287C2296.66 1297.5 2304.5 1305.34 2304.5 1315V1400C2304.5 1409.66 2296.66 1417.5 2287 1417.5H2209.69C2200.02 1417.5 2192.19 1409.66 2192.19 1400V1315C2192.19 1305.34 2200.02 1297.5 2209.69 1297.5Z" fill="#E6E6E6" stroke="#60195E" stroke-width="5"/>
<path d="M2209 1438.5H2286.31C2295.97 1438.5 2303.81 1446.34 2303.81 1456V1511C2303.81 1520.67 2295.97 1528.5 2286.31 1528.5H2209C2199.34 1528.5 2191.5 1520.67 2191.5 1511V1456C2191.5 1446.34 2199.34 1438.5 2209 1438.5Z" fill="#E6E6E6" stroke="#60195E" stroke-width="5"/>
<line x1="1566" y1="1162" x2="1566" y2="1535" stroke="black" stroke-opacity="0.6" stroke-width="8" stroke-dasharray="16 3"/>
<line x1="2069" y1="1162" x2="2069" y2="1535" stroke="black" stroke-opacity="0.6" stroke-width="8" stroke-dasharray="16 3"/>
<line x1="2417" y1="1286.18" x2="1306" y2="1286.18" stroke="black" stroke-opacity="0.6" stroke-width="8" stroke-dasharray="16 3"/>
<line x1="2426" y1="1427.54" x2="1315" y2="1427.54" stroke="black" stroke-opacity="0.6" stroke-width="8" stroke-dasharray="16 3"/>
</g>
<defs>
<clipPath id="clip0_89_231">
<rect width="2435" height="1620" fill="white"/>
</clipPath>
</defs>
</svg>
